G75*
%MOIN*%
%OFA0B0*%
%FSLAX25Y25*%
%IPPOS*%
%LPD*%
%AMOC8*
5,1,8,0,0,1.08239X$1,22.5*
%
%ADD10C,0.00000*%
%ADD11C,0.00039*%
D10*
X0001800Y0001800D02*
X0001800Y0229261D01*
X0205501Y0229261D01*
X0205501Y0001800D01*
X0001800Y0001800D01*
X0013611Y0024300D02*
X0013613Y0024453D01*
X0013619Y0024607D01*
X0013629Y0024760D01*
X0013643Y0024912D01*
X0013661Y0025065D01*
X0013683Y0025216D01*
X0013708Y0025367D01*
X0013738Y0025518D01*
X0013772Y0025668D01*
X0013809Y0025816D01*
X0013850Y0025964D01*
X0013895Y0026110D01*
X0013944Y0026256D01*
X0013997Y0026400D01*
X0014053Y0026542D01*
X0014113Y0026683D01*
X0014177Y0026823D01*
X0014244Y0026961D01*
X0014315Y0027097D01*
X0014390Y0027231D01*
X0014467Y0027363D01*
X0014549Y0027493D01*
X0014633Y0027621D01*
X0014721Y0027747D01*
X0014812Y0027870D01*
X0014906Y0027991D01*
X0015004Y0028109D01*
X0015104Y0028225D01*
X0015208Y0028338D01*
X0015314Y0028449D01*
X0015423Y0028557D01*
X0015535Y0028662D01*
X0015649Y0028763D01*
X0015767Y0028862D01*
X0015886Y0028958D01*
X0016008Y0029051D01*
X0016133Y0029140D01*
X0016260Y0029227D01*
X0016389Y0029309D01*
X0016520Y0029389D01*
X0016653Y0029465D01*
X0016788Y0029538D01*
X0016925Y0029607D01*
X0017064Y0029672D01*
X0017204Y0029734D01*
X0017346Y0029792D01*
X0017489Y0029847D01*
X0017634Y0029898D01*
X0017780Y0029945D01*
X0017927Y0029988D01*
X0018075Y0030027D01*
X0018224Y0030063D01*
X0018374Y0030094D01*
X0018525Y0030122D01*
X0018676Y0030146D01*
X0018829Y0030166D01*
X0018981Y0030182D01*
X0019134Y0030194D01*
X0019287Y0030202D01*
X0019440Y0030206D01*
X0019594Y0030206D01*
X0019747Y0030202D01*
X0019900Y0030194D01*
X0020053Y0030182D01*
X0020205Y0030166D01*
X0020358Y0030146D01*
X0020509Y0030122D01*
X0020660Y0030094D01*
X0020810Y0030063D01*
X0020959Y0030027D01*
X0021107Y0029988D01*
X0021254Y0029945D01*
X0021400Y0029898D01*
X0021545Y0029847D01*
X0021688Y0029792D01*
X0021830Y0029734D01*
X0021970Y0029672D01*
X0022109Y0029607D01*
X0022246Y0029538D01*
X0022381Y0029465D01*
X0022514Y0029389D01*
X0022645Y0029309D01*
X0022774Y0029227D01*
X0022901Y0029140D01*
X0023026Y0029051D01*
X0023148Y0028958D01*
X0023267Y0028862D01*
X0023385Y0028763D01*
X0023499Y0028662D01*
X0023611Y0028557D01*
X0023720Y0028449D01*
X0023826Y0028338D01*
X0023930Y0028225D01*
X0024030Y0028109D01*
X0024128Y0027991D01*
X0024222Y0027870D01*
X0024313Y0027747D01*
X0024401Y0027621D01*
X0024485Y0027493D01*
X0024567Y0027363D01*
X0024644Y0027231D01*
X0024719Y0027097D01*
X0024790Y0026961D01*
X0024857Y0026823D01*
X0024921Y0026683D01*
X0024981Y0026542D01*
X0025037Y0026400D01*
X0025090Y0026256D01*
X0025139Y0026110D01*
X0025184Y0025964D01*
X0025225Y0025816D01*
X0025262Y0025668D01*
X0025296Y0025518D01*
X0025326Y0025367D01*
X0025351Y0025216D01*
X0025373Y0025065D01*
X0025391Y0024912D01*
X0025405Y0024760D01*
X0025415Y0024607D01*
X0025421Y0024453D01*
X0025423Y0024300D01*
X0025421Y0024147D01*
X0025415Y0023993D01*
X0025405Y0023840D01*
X0025391Y0023688D01*
X0025373Y0023535D01*
X0025351Y0023384D01*
X0025326Y0023233D01*
X0025296Y0023082D01*
X0025262Y0022932D01*
X0025225Y0022784D01*
X0025184Y0022636D01*
X0025139Y0022490D01*
X0025090Y0022344D01*
X0025037Y0022200D01*
X0024981Y0022058D01*
X0024921Y0021917D01*
X0024857Y0021777D01*
X0024790Y0021639D01*
X0024719Y0021503D01*
X0024644Y0021369D01*
X0024567Y0021237D01*
X0024485Y0021107D01*
X0024401Y0020979D01*
X0024313Y0020853D01*
X0024222Y0020730D01*
X0024128Y0020609D01*
X0024030Y0020491D01*
X0023930Y0020375D01*
X0023826Y0020262D01*
X0023720Y0020151D01*
X0023611Y0020043D01*
X0023499Y0019938D01*
X0023385Y0019837D01*
X0023267Y0019738D01*
X0023148Y0019642D01*
X0023026Y0019549D01*
X0022901Y0019460D01*
X0022774Y0019373D01*
X0022645Y0019291D01*
X0022514Y0019211D01*
X0022381Y0019135D01*
X0022246Y0019062D01*
X0022109Y0018993D01*
X0021970Y0018928D01*
X0021830Y0018866D01*
X0021688Y0018808D01*
X0021545Y0018753D01*
X0021400Y0018702D01*
X0021254Y0018655D01*
X0021107Y0018612D01*
X0020959Y0018573D01*
X0020810Y0018537D01*
X0020660Y0018506D01*
X0020509Y0018478D01*
X0020358Y0018454D01*
X0020205Y0018434D01*
X0020053Y0018418D01*
X0019900Y0018406D01*
X0019747Y0018398D01*
X0019594Y0018394D01*
X0019440Y0018394D01*
X0019287Y0018398D01*
X0019134Y0018406D01*
X0018981Y0018418D01*
X0018829Y0018434D01*
X0018676Y0018454D01*
X0018525Y0018478D01*
X0018374Y0018506D01*
X0018224Y0018537D01*
X0018075Y0018573D01*
X0017927Y0018612D01*
X0017780Y0018655D01*
X0017634Y0018702D01*
X0017489Y0018753D01*
X0017346Y0018808D01*
X0017204Y0018866D01*
X0017064Y0018928D01*
X0016925Y0018993D01*
X0016788Y0019062D01*
X0016653Y0019135D01*
X0016520Y0019211D01*
X0016389Y0019291D01*
X0016260Y0019373D01*
X0016133Y0019460D01*
X0016008Y0019549D01*
X0015886Y0019642D01*
X0015767Y0019738D01*
X0015649Y0019837D01*
X0015535Y0019938D01*
X0015423Y0020043D01*
X0015314Y0020151D01*
X0015208Y0020262D01*
X0015104Y0020375D01*
X0015004Y0020491D01*
X0014906Y0020609D01*
X0014812Y0020730D01*
X0014721Y0020853D01*
X0014633Y0020979D01*
X0014549Y0021107D01*
X0014467Y0021237D01*
X0014390Y0021369D01*
X0014315Y0021503D01*
X0014244Y0021639D01*
X0014177Y0021777D01*
X0014113Y0021917D01*
X0014053Y0022058D01*
X0013997Y0022200D01*
X0013944Y0022344D01*
X0013895Y0022490D01*
X0013850Y0022636D01*
X0013809Y0022784D01*
X0013772Y0022932D01*
X0013738Y0023082D01*
X0013708Y0023233D01*
X0013683Y0023384D01*
X0013661Y0023535D01*
X0013643Y0023688D01*
X0013629Y0023840D01*
X0013619Y0023993D01*
X0013613Y0024147D01*
X0013611Y0024300D01*
X0069731Y0189300D02*
X0069733Y0189460D01*
X0069739Y0189619D01*
X0069749Y0189778D01*
X0069763Y0189937D01*
X0069781Y0190096D01*
X0069802Y0190254D01*
X0069828Y0190411D01*
X0069858Y0190568D01*
X0069891Y0190724D01*
X0069929Y0190879D01*
X0069970Y0191033D01*
X0070015Y0191186D01*
X0070064Y0191338D01*
X0070117Y0191489D01*
X0070173Y0191638D01*
X0070234Y0191786D01*
X0070297Y0191932D01*
X0070365Y0192077D01*
X0070436Y0192220D01*
X0070510Y0192361D01*
X0070588Y0192500D01*
X0070670Y0192637D01*
X0070755Y0192772D01*
X0070843Y0192905D01*
X0070935Y0193036D01*
X0071029Y0193164D01*
X0071127Y0193290D01*
X0071228Y0193414D01*
X0071332Y0193535D01*
X0071439Y0193653D01*
X0071549Y0193769D01*
X0071662Y0193882D01*
X0071778Y0193992D01*
X0071896Y0194099D01*
X0072017Y0194203D01*
X0072141Y0194304D01*
X0072267Y0194402D01*
X0072395Y0194496D01*
X0072526Y0194588D01*
X0072659Y0194676D01*
X0072794Y0194761D01*
X0072931Y0194843D01*
X0073070Y0194921D01*
X0073211Y0194995D01*
X0073354Y0195066D01*
X0073499Y0195134D01*
X0073645Y0195197D01*
X0073793Y0195258D01*
X0073942Y0195314D01*
X0074093Y0195367D01*
X0074245Y0195416D01*
X0074398Y0195461D01*
X0074552Y0195502D01*
X0074707Y0195540D01*
X0074863Y0195573D01*
X0075020Y0195603D01*
X0075177Y0195629D01*
X0075335Y0195650D01*
X0075494Y0195668D01*
X0075653Y0195682D01*
X0075812Y0195692D01*
X0075971Y0195698D01*
X0076131Y0195700D01*
X0076291Y0195698D01*
X0076450Y0195692D01*
X0076609Y0195682D01*
X0076768Y0195668D01*
X0076927Y0195650D01*
X0077085Y0195629D01*
X0077242Y0195603D01*
X0077399Y0195573D01*
X0077555Y0195540D01*
X0077710Y0195502D01*
X0077864Y0195461D01*
X0078017Y0195416D01*
X0078169Y0195367D01*
X0078320Y0195314D01*
X0078469Y0195258D01*
X0078617Y0195197D01*
X0078763Y0195134D01*
X0078908Y0195066D01*
X0079051Y0194995D01*
X0079192Y0194921D01*
X0079331Y0194843D01*
X0079468Y0194761D01*
X0079603Y0194676D01*
X0079736Y0194588D01*
X0079867Y0194496D01*
X0079995Y0194402D01*
X0080121Y0194304D01*
X0080245Y0194203D01*
X0080366Y0194099D01*
X0080484Y0193992D01*
X0080600Y0193882D01*
X0080713Y0193769D01*
X0080823Y0193653D01*
X0080930Y0193535D01*
X0081034Y0193414D01*
X0081135Y0193290D01*
X0081233Y0193164D01*
X0081327Y0193036D01*
X0081419Y0192905D01*
X0081507Y0192772D01*
X0081592Y0192637D01*
X0081674Y0192500D01*
X0081752Y0192361D01*
X0081826Y0192220D01*
X0081897Y0192077D01*
X0081965Y0191932D01*
X0082028Y0191786D01*
X0082089Y0191638D01*
X0082145Y0191489D01*
X0082198Y0191338D01*
X0082247Y0191186D01*
X0082292Y0191033D01*
X0082333Y0190879D01*
X0082371Y0190724D01*
X0082404Y0190568D01*
X0082434Y0190411D01*
X0082460Y0190254D01*
X0082481Y0190096D01*
X0082499Y0189937D01*
X0082513Y0189778D01*
X0082523Y0189619D01*
X0082529Y0189460D01*
X0082531Y0189300D01*
X0082529Y0189140D01*
X0082523Y0188981D01*
X0082513Y0188822D01*
X0082499Y0188663D01*
X0082481Y0188504D01*
X0082460Y0188346D01*
X0082434Y0188189D01*
X0082404Y0188032D01*
X0082371Y0187876D01*
X0082333Y0187721D01*
X0082292Y0187567D01*
X0082247Y0187414D01*
X0082198Y0187262D01*
X0082145Y0187111D01*
X0082089Y0186962D01*
X0082028Y0186814D01*
X0081965Y0186668D01*
X0081897Y0186523D01*
X0081826Y0186380D01*
X0081752Y0186239D01*
X0081674Y0186100D01*
X0081592Y0185963D01*
X0081507Y0185828D01*
X0081419Y0185695D01*
X0081327Y0185564D01*
X0081233Y0185436D01*
X0081135Y0185310D01*
X0081034Y0185186D01*
X0080930Y0185065D01*
X0080823Y0184947D01*
X0080713Y0184831D01*
X0080600Y0184718D01*
X0080484Y0184608D01*
X0080366Y0184501D01*
X0080245Y0184397D01*
X0080121Y0184296D01*
X0079995Y0184198D01*
X0079867Y0184104D01*
X0079736Y0184012D01*
X0079603Y0183924D01*
X0079468Y0183839D01*
X0079331Y0183757D01*
X0079192Y0183679D01*
X0079051Y0183605D01*
X0078908Y0183534D01*
X0078763Y0183466D01*
X0078617Y0183403D01*
X0078469Y0183342D01*
X0078320Y0183286D01*
X0078169Y0183233D01*
X0078017Y0183184D01*
X0077864Y0183139D01*
X0077710Y0183098D01*
X0077555Y0183060D01*
X0077399Y0183027D01*
X0077242Y0182997D01*
X0077085Y0182971D01*
X0076927Y0182950D01*
X0076768Y0182932D01*
X0076609Y0182918D01*
X0076450Y0182908D01*
X0076291Y0182902D01*
X0076131Y0182900D01*
X0075971Y0182902D01*
X0075812Y0182908D01*
X0075653Y0182918D01*
X0075494Y0182932D01*
X0075335Y0182950D01*
X0075177Y0182971D01*
X0075020Y0182997D01*
X0074863Y0183027D01*
X0074707Y0183060D01*
X0074552Y0183098D01*
X0074398Y0183139D01*
X0074245Y0183184D01*
X0074093Y0183233D01*
X0073942Y0183286D01*
X0073793Y0183342D01*
X0073645Y0183403D01*
X0073499Y0183466D01*
X0073354Y0183534D01*
X0073211Y0183605D01*
X0073070Y0183679D01*
X0072931Y0183757D01*
X0072794Y0183839D01*
X0072659Y0183924D01*
X0072526Y0184012D01*
X0072395Y0184104D01*
X0072267Y0184198D01*
X0072141Y0184296D01*
X0072017Y0184397D01*
X0071896Y0184501D01*
X0071778Y0184608D01*
X0071662Y0184718D01*
X0071549Y0184831D01*
X0071439Y0184947D01*
X0071332Y0185065D01*
X0071228Y0185186D01*
X0071127Y0185310D01*
X0071029Y0185436D01*
X0070935Y0185564D01*
X0070843Y0185695D01*
X0070755Y0185828D01*
X0070670Y0185963D01*
X0070588Y0186100D01*
X0070510Y0186239D01*
X0070436Y0186380D01*
X0070365Y0186523D01*
X0070297Y0186668D01*
X0070234Y0186814D01*
X0070173Y0186962D01*
X0070117Y0187111D01*
X0070064Y0187262D01*
X0070015Y0187414D01*
X0069970Y0187567D01*
X0069929Y0187721D01*
X0069891Y0187876D01*
X0069858Y0188032D01*
X0069828Y0188189D01*
X0069802Y0188346D01*
X0069781Y0188504D01*
X0069763Y0188663D01*
X0069749Y0188822D01*
X0069739Y0188981D01*
X0069733Y0189140D01*
X0069731Y0189300D01*
X0109731Y0189300D02*
X0109733Y0189460D01*
X0109739Y0189619D01*
X0109749Y0189778D01*
X0109763Y0189937D01*
X0109781Y0190096D01*
X0109802Y0190254D01*
X0109828Y0190411D01*
X0109858Y0190568D01*
X0109891Y0190724D01*
X0109929Y0190879D01*
X0109970Y0191033D01*
X0110015Y0191186D01*
X0110064Y0191338D01*
X0110117Y0191489D01*
X0110173Y0191638D01*
X0110234Y0191786D01*
X0110297Y0191932D01*
X0110365Y0192077D01*
X0110436Y0192220D01*
X0110510Y0192361D01*
X0110588Y0192500D01*
X0110670Y0192637D01*
X0110755Y0192772D01*
X0110843Y0192905D01*
X0110935Y0193036D01*
X0111029Y0193164D01*
X0111127Y0193290D01*
X0111228Y0193414D01*
X0111332Y0193535D01*
X0111439Y0193653D01*
X0111549Y0193769D01*
X0111662Y0193882D01*
X0111778Y0193992D01*
X0111896Y0194099D01*
X0112017Y0194203D01*
X0112141Y0194304D01*
X0112267Y0194402D01*
X0112395Y0194496D01*
X0112526Y0194588D01*
X0112659Y0194676D01*
X0112794Y0194761D01*
X0112931Y0194843D01*
X0113070Y0194921D01*
X0113211Y0194995D01*
X0113354Y0195066D01*
X0113499Y0195134D01*
X0113645Y0195197D01*
X0113793Y0195258D01*
X0113942Y0195314D01*
X0114093Y0195367D01*
X0114245Y0195416D01*
X0114398Y0195461D01*
X0114552Y0195502D01*
X0114707Y0195540D01*
X0114863Y0195573D01*
X0115020Y0195603D01*
X0115177Y0195629D01*
X0115335Y0195650D01*
X0115494Y0195668D01*
X0115653Y0195682D01*
X0115812Y0195692D01*
X0115971Y0195698D01*
X0116131Y0195700D01*
X0116291Y0195698D01*
X0116450Y0195692D01*
X0116609Y0195682D01*
X0116768Y0195668D01*
X0116927Y0195650D01*
X0117085Y0195629D01*
X0117242Y0195603D01*
X0117399Y0195573D01*
X0117555Y0195540D01*
X0117710Y0195502D01*
X0117864Y0195461D01*
X0118017Y0195416D01*
X0118169Y0195367D01*
X0118320Y0195314D01*
X0118469Y0195258D01*
X0118617Y0195197D01*
X0118763Y0195134D01*
X0118908Y0195066D01*
X0119051Y0194995D01*
X0119192Y0194921D01*
X0119331Y0194843D01*
X0119468Y0194761D01*
X0119603Y0194676D01*
X0119736Y0194588D01*
X0119867Y0194496D01*
X0119995Y0194402D01*
X0120121Y0194304D01*
X0120245Y0194203D01*
X0120366Y0194099D01*
X0120484Y0193992D01*
X0120600Y0193882D01*
X0120713Y0193769D01*
X0120823Y0193653D01*
X0120930Y0193535D01*
X0121034Y0193414D01*
X0121135Y0193290D01*
X0121233Y0193164D01*
X0121327Y0193036D01*
X0121419Y0192905D01*
X0121507Y0192772D01*
X0121592Y0192637D01*
X0121674Y0192500D01*
X0121752Y0192361D01*
X0121826Y0192220D01*
X0121897Y0192077D01*
X0121965Y0191932D01*
X0122028Y0191786D01*
X0122089Y0191638D01*
X0122145Y0191489D01*
X0122198Y0191338D01*
X0122247Y0191186D01*
X0122292Y0191033D01*
X0122333Y0190879D01*
X0122371Y0190724D01*
X0122404Y0190568D01*
X0122434Y0190411D01*
X0122460Y0190254D01*
X0122481Y0190096D01*
X0122499Y0189937D01*
X0122513Y0189778D01*
X0122523Y0189619D01*
X0122529Y0189460D01*
X0122531Y0189300D01*
X0122529Y0189140D01*
X0122523Y0188981D01*
X0122513Y0188822D01*
X0122499Y0188663D01*
X0122481Y0188504D01*
X0122460Y0188346D01*
X0122434Y0188189D01*
X0122404Y0188032D01*
X0122371Y0187876D01*
X0122333Y0187721D01*
X0122292Y0187567D01*
X0122247Y0187414D01*
X0122198Y0187262D01*
X0122145Y0187111D01*
X0122089Y0186962D01*
X0122028Y0186814D01*
X0121965Y0186668D01*
X0121897Y0186523D01*
X0121826Y0186380D01*
X0121752Y0186239D01*
X0121674Y0186100D01*
X0121592Y0185963D01*
X0121507Y0185828D01*
X0121419Y0185695D01*
X0121327Y0185564D01*
X0121233Y0185436D01*
X0121135Y0185310D01*
X0121034Y0185186D01*
X0120930Y0185065D01*
X0120823Y0184947D01*
X0120713Y0184831D01*
X0120600Y0184718D01*
X0120484Y0184608D01*
X0120366Y0184501D01*
X0120245Y0184397D01*
X0120121Y0184296D01*
X0119995Y0184198D01*
X0119867Y0184104D01*
X0119736Y0184012D01*
X0119603Y0183924D01*
X0119468Y0183839D01*
X0119331Y0183757D01*
X0119192Y0183679D01*
X0119051Y0183605D01*
X0118908Y0183534D01*
X0118763Y0183466D01*
X0118617Y0183403D01*
X0118469Y0183342D01*
X0118320Y0183286D01*
X0118169Y0183233D01*
X0118017Y0183184D01*
X0117864Y0183139D01*
X0117710Y0183098D01*
X0117555Y0183060D01*
X0117399Y0183027D01*
X0117242Y0182997D01*
X0117085Y0182971D01*
X0116927Y0182950D01*
X0116768Y0182932D01*
X0116609Y0182918D01*
X0116450Y0182908D01*
X0116291Y0182902D01*
X0116131Y0182900D01*
X0115971Y0182902D01*
X0115812Y0182908D01*
X0115653Y0182918D01*
X0115494Y0182932D01*
X0115335Y0182950D01*
X0115177Y0182971D01*
X0115020Y0182997D01*
X0114863Y0183027D01*
X0114707Y0183060D01*
X0114552Y0183098D01*
X0114398Y0183139D01*
X0114245Y0183184D01*
X0114093Y0183233D01*
X0113942Y0183286D01*
X0113793Y0183342D01*
X0113645Y0183403D01*
X0113499Y0183466D01*
X0113354Y0183534D01*
X0113211Y0183605D01*
X0113070Y0183679D01*
X0112931Y0183757D01*
X0112794Y0183839D01*
X0112659Y0183924D01*
X0112526Y0184012D01*
X0112395Y0184104D01*
X0112267Y0184198D01*
X0112141Y0184296D01*
X0112017Y0184397D01*
X0111896Y0184501D01*
X0111778Y0184608D01*
X0111662Y0184718D01*
X0111549Y0184831D01*
X0111439Y0184947D01*
X0111332Y0185065D01*
X0111228Y0185186D01*
X0111127Y0185310D01*
X0111029Y0185436D01*
X0110935Y0185564D01*
X0110843Y0185695D01*
X0110755Y0185828D01*
X0110670Y0185963D01*
X0110588Y0186100D01*
X0110510Y0186239D01*
X0110436Y0186380D01*
X0110365Y0186523D01*
X0110297Y0186668D01*
X0110234Y0186814D01*
X0110173Y0186962D01*
X0110117Y0187111D01*
X0110064Y0187262D01*
X0110015Y0187414D01*
X0109970Y0187567D01*
X0109929Y0187721D01*
X0109891Y0187876D01*
X0109858Y0188032D01*
X0109828Y0188189D01*
X0109802Y0188346D01*
X0109781Y0188504D01*
X0109763Y0188663D01*
X0109749Y0188822D01*
X0109739Y0188981D01*
X0109733Y0189140D01*
X0109731Y0189300D01*
X0182902Y0206800D02*
X0182904Y0206953D01*
X0182910Y0207107D01*
X0182920Y0207260D01*
X0182934Y0207412D01*
X0182952Y0207565D01*
X0182974Y0207716D01*
X0182999Y0207867D01*
X0183029Y0208018D01*
X0183063Y0208168D01*
X0183100Y0208316D01*
X0183141Y0208464D01*
X0183186Y0208610D01*
X0183235Y0208756D01*
X0183288Y0208900D01*
X0183344Y0209042D01*
X0183404Y0209183D01*
X0183468Y0209323D01*
X0183535Y0209461D01*
X0183606Y0209597D01*
X0183681Y0209731D01*
X0183758Y0209863D01*
X0183840Y0209993D01*
X0183924Y0210121D01*
X0184012Y0210247D01*
X0184103Y0210370D01*
X0184197Y0210491D01*
X0184295Y0210609D01*
X0184395Y0210725D01*
X0184499Y0210838D01*
X0184605Y0210949D01*
X0184714Y0211057D01*
X0184826Y0211162D01*
X0184940Y0211263D01*
X0185058Y0211362D01*
X0185177Y0211458D01*
X0185299Y0211551D01*
X0185424Y0211640D01*
X0185551Y0211727D01*
X0185680Y0211809D01*
X0185811Y0211889D01*
X0185944Y0211965D01*
X0186079Y0212038D01*
X0186216Y0212107D01*
X0186355Y0212172D01*
X0186495Y0212234D01*
X0186637Y0212292D01*
X0186780Y0212347D01*
X0186925Y0212398D01*
X0187071Y0212445D01*
X0187218Y0212488D01*
X0187366Y0212527D01*
X0187515Y0212563D01*
X0187665Y0212594D01*
X0187816Y0212622D01*
X0187967Y0212646D01*
X0188120Y0212666D01*
X0188272Y0212682D01*
X0188425Y0212694D01*
X0188578Y0212702D01*
X0188731Y0212706D01*
X0188885Y0212706D01*
X0189038Y0212702D01*
X0189191Y0212694D01*
X0189344Y0212682D01*
X0189496Y0212666D01*
X0189649Y0212646D01*
X0189800Y0212622D01*
X0189951Y0212594D01*
X0190101Y0212563D01*
X0190250Y0212527D01*
X0190398Y0212488D01*
X0190545Y0212445D01*
X0190691Y0212398D01*
X0190836Y0212347D01*
X0190979Y0212292D01*
X0191121Y0212234D01*
X0191261Y0212172D01*
X0191400Y0212107D01*
X0191537Y0212038D01*
X0191672Y0211965D01*
X0191805Y0211889D01*
X0191936Y0211809D01*
X0192065Y0211727D01*
X0192192Y0211640D01*
X0192317Y0211551D01*
X0192439Y0211458D01*
X0192558Y0211362D01*
X0192676Y0211263D01*
X0192790Y0211162D01*
X0192902Y0211057D01*
X0193011Y0210949D01*
X0193117Y0210838D01*
X0193221Y0210725D01*
X0193321Y0210609D01*
X0193419Y0210491D01*
X0193513Y0210370D01*
X0193604Y0210247D01*
X0193692Y0210121D01*
X0193776Y0209993D01*
X0193858Y0209863D01*
X0193935Y0209731D01*
X0194010Y0209597D01*
X0194081Y0209461D01*
X0194148Y0209323D01*
X0194212Y0209183D01*
X0194272Y0209042D01*
X0194328Y0208900D01*
X0194381Y0208756D01*
X0194430Y0208610D01*
X0194475Y0208464D01*
X0194516Y0208316D01*
X0194553Y0208168D01*
X0194587Y0208018D01*
X0194617Y0207867D01*
X0194642Y0207716D01*
X0194664Y0207565D01*
X0194682Y0207412D01*
X0194696Y0207260D01*
X0194706Y0207107D01*
X0194712Y0206953D01*
X0194714Y0206800D01*
X0194712Y0206647D01*
X0194706Y0206493D01*
X0194696Y0206340D01*
X0194682Y0206188D01*
X0194664Y0206035D01*
X0194642Y0205884D01*
X0194617Y0205733D01*
X0194587Y0205582D01*
X0194553Y0205432D01*
X0194516Y0205284D01*
X0194475Y0205136D01*
X0194430Y0204990D01*
X0194381Y0204844D01*
X0194328Y0204700D01*
X0194272Y0204558D01*
X0194212Y0204417D01*
X0194148Y0204277D01*
X0194081Y0204139D01*
X0194010Y0204003D01*
X0193935Y0203869D01*
X0193858Y0203737D01*
X0193776Y0203607D01*
X0193692Y0203479D01*
X0193604Y0203353D01*
X0193513Y0203230D01*
X0193419Y0203109D01*
X0193321Y0202991D01*
X0193221Y0202875D01*
X0193117Y0202762D01*
X0193011Y0202651D01*
X0192902Y0202543D01*
X0192790Y0202438D01*
X0192676Y0202337D01*
X0192558Y0202238D01*
X0192439Y0202142D01*
X0192317Y0202049D01*
X0192192Y0201960D01*
X0192065Y0201873D01*
X0191936Y0201791D01*
X0191805Y0201711D01*
X0191672Y0201635D01*
X0191537Y0201562D01*
X0191400Y0201493D01*
X0191261Y0201428D01*
X0191121Y0201366D01*
X0190979Y0201308D01*
X0190836Y0201253D01*
X0190691Y0201202D01*
X0190545Y0201155D01*
X0190398Y0201112D01*
X0190250Y0201073D01*
X0190101Y0201037D01*
X0189951Y0201006D01*
X0189800Y0200978D01*
X0189649Y0200954D01*
X0189496Y0200934D01*
X0189344Y0200918D01*
X0189191Y0200906D01*
X0189038Y0200898D01*
X0188885Y0200894D01*
X0188731Y0200894D01*
X0188578Y0200898D01*
X0188425Y0200906D01*
X0188272Y0200918D01*
X0188120Y0200934D01*
X0187967Y0200954D01*
X0187816Y0200978D01*
X0187665Y0201006D01*
X0187515Y0201037D01*
X0187366Y0201073D01*
X0187218Y0201112D01*
X0187071Y0201155D01*
X0186925Y0201202D01*
X0186780Y0201253D01*
X0186637Y0201308D01*
X0186495Y0201366D01*
X0186355Y0201428D01*
X0186216Y0201493D01*
X0186079Y0201562D01*
X0185944Y0201635D01*
X0185811Y0201711D01*
X0185680Y0201791D01*
X0185551Y0201873D01*
X0185424Y0201960D01*
X0185299Y0202049D01*
X0185177Y0202142D01*
X0185058Y0202238D01*
X0184940Y0202337D01*
X0184826Y0202438D01*
X0184714Y0202543D01*
X0184605Y0202651D01*
X0184499Y0202762D01*
X0184395Y0202875D01*
X0184295Y0202991D01*
X0184197Y0203109D01*
X0184103Y0203230D01*
X0184012Y0203353D01*
X0183924Y0203479D01*
X0183840Y0203607D01*
X0183758Y0203737D01*
X0183681Y0203869D01*
X0183606Y0204003D01*
X0183535Y0204139D01*
X0183468Y0204277D01*
X0183404Y0204417D01*
X0183344Y0204558D01*
X0183288Y0204700D01*
X0183235Y0204844D01*
X0183186Y0204990D01*
X0183141Y0205136D01*
X0183100Y0205284D01*
X0183063Y0205432D01*
X0183029Y0205582D01*
X0182999Y0205733D01*
X0182974Y0205884D01*
X0182952Y0206035D01*
X0182934Y0206188D01*
X0182920Y0206340D01*
X0182910Y0206493D01*
X0182904Y0206647D01*
X0182902Y0206800D01*
X0013611Y0206800D02*
X0013613Y0206953D01*
X0013619Y0207107D01*
X0013629Y0207260D01*
X0013643Y0207412D01*
X0013661Y0207565D01*
X0013683Y0207716D01*
X0013708Y0207867D01*
X0013738Y0208018D01*
X0013772Y0208168D01*
X0013809Y0208316D01*
X0013850Y0208464D01*
X0013895Y0208610D01*
X0013944Y0208756D01*
X0013997Y0208900D01*
X0014053Y0209042D01*
X0014113Y0209183D01*
X0014177Y0209323D01*
X0014244Y0209461D01*
X0014315Y0209597D01*
X0014390Y0209731D01*
X0014467Y0209863D01*
X0014549Y0209993D01*
X0014633Y0210121D01*
X0014721Y0210247D01*
X0014812Y0210370D01*
X0014906Y0210491D01*
X0015004Y0210609D01*
X0015104Y0210725D01*
X0015208Y0210838D01*
X0015314Y0210949D01*
X0015423Y0211057D01*
X0015535Y0211162D01*
X0015649Y0211263D01*
X0015767Y0211362D01*
X0015886Y0211458D01*
X0016008Y0211551D01*
X0016133Y0211640D01*
X0016260Y0211727D01*
X0016389Y0211809D01*
X0016520Y0211889D01*
X0016653Y0211965D01*
X0016788Y0212038D01*
X0016925Y0212107D01*
X0017064Y0212172D01*
X0017204Y0212234D01*
X0017346Y0212292D01*
X0017489Y0212347D01*
X0017634Y0212398D01*
X0017780Y0212445D01*
X0017927Y0212488D01*
X0018075Y0212527D01*
X0018224Y0212563D01*
X0018374Y0212594D01*
X0018525Y0212622D01*
X0018676Y0212646D01*
X0018829Y0212666D01*
X0018981Y0212682D01*
X0019134Y0212694D01*
X0019287Y0212702D01*
X0019440Y0212706D01*
X0019594Y0212706D01*
X0019747Y0212702D01*
X0019900Y0212694D01*
X0020053Y0212682D01*
X0020205Y0212666D01*
X0020358Y0212646D01*
X0020509Y0212622D01*
X0020660Y0212594D01*
X0020810Y0212563D01*
X0020959Y0212527D01*
X0021107Y0212488D01*
X0021254Y0212445D01*
X0021400Y0212398D01*
X0021545Y0212347D01*
X0021688Y0212292D01*
X0021830Y0212234D01*
X0021970Y0212172D01*
X0022109Y0212107D01*
X0022246Y0212038D01*
X0022381Y0211965D01*
X0022514Y0211889D01*
X0022645Y0211809D01*
X0022774Y0211727D01*
X0022901Y0211640D01*
X0023026Y0211551D01*
X0023148Y0211458D01*
X0023267Y0211362D01*
X0023385Y0211263D01*
X0023499Y0211162D01*
X0023611Y0211057D01*
X0023720Y0210949D01*
X0023826Y0210838D01*
X0023930Y0210725D01*
X0024030Y0210609D01*
X0024128Y0210491D01*
X0024222Y0210370D01*
X0024313Y0210247D01*
X0024401Y0210121D01*
X0024485Y0209993D01*
X0024567Y0209863D01*
X0024644Y0209731D01*
X0024719Y0209597D01*
X0024790Y0209461D01*
X0024857Y0209323D01*
X0024921Y0209183D01*
X0024981Y0209042D01*
X0025037Y0208900D01*
X0025090Y0208756D01*
X0025139Y0208610D01*
X0025184Y0208464D01*
X0025225Y0208316D01*
X0025262Y0208168D01*
X0025296Y0208018D01*
X0025326Y0207867D01*
X0025351Y0207716D01*
X0025373Y0207565D01*
X0025391Y0207412D01*
X0025405Y0207260D01*
X0025415Y0207107D01*
X0025421Y0206953D01*
X0025423Y0206800D01*
X0025421Y0206647D01*
X0025415Y0206493D01*
X0025405Y0206340D01*
X0025391Y0206188D01*
X0025373Y0206035D01*
X0025351Y0205884D01*
X0025326Y0205733D01*
X0025296Y0205582D01*
X0025262Y0205432D01*
X0025225Y0205284D01*
X0025184Y0205136D01*
X0025139Y0204990D01*
X0025090Y0204844D01*
X0025037Y0204700D01*
X0024981Y0204558D01*
X0024921Y0204417D01*
X0024857Y0204277D01*
X0024790Y0204139D01*
X0024719Y0204003D01*
X0024644Y0203869D01*
X0024567Y0203737D01*
X0024485Y0203607D01*
X0024401Y0203479D01*
X0024313Y0203353D01*
X0024222Y0203230D01*
X0024128Y0203109D01*
X0024030Y0202991D01*
X0023930Y0202875D01*
X0023826Y0202762D01*
X0023720Y0202651D01*
X0023611Y0202543D01*
X0023499Y0202438D01*
X0023385Y0202337D01*
X0023267Y0202238D01*
X0023148Y0202142D01*
X0023026Y0202049D01*
X0022901Y0201960D01*
X0022774Y0201873D01*
X0022645Y0201791D01*
X0022514Y0201711D01*
X0022381Y0201635D01*
X0022246Y0201562D01*
X0022109Y0201493D01*
X0021970Y0201428D01*
X0021830Y0201366D01*
X0021688Y0201308D01*
X0021545Y0201253D01*
X0021400Y0201202D01*
X0021254Y0201155D01*
X0021107Y0201112D01*
X0020959Y0201073D01*
X0020810Y0201037D01*
X0020660Y0201006D01*
X0020509Y0200978D01*
X0020358Y0200954D01*
X0020205Y0200934D01*
X0020053Y0200918D01*
X0019900Y0200906D01*
X0019747Y0200898D01*
X0019594Y0200894D01*
X0019440Y0200894D01*
X0019287Y0200898D01*
X0019134Y0200906D01*
X0018981Y0200918D01*
X0018829Y0200934D01*
X0018676Y0200954D01*
X0018525Y0200978D01*
X0018374Y0201006D01*
X0018224Y0201037D01*
X0018075Y0201073D01*
X0017927Y0201112D01*
X0017780Y0201155D01*
X0017634Y0201202D01*
X0017489Y0201253D01*
X0017346Y0201308D01*
X0017204Y0201366D01*
X0017064Y0201428D01*
X0016925Y0201493D01*
X0016788Y0201562D01*
X0016653Y0201635D01*
X0016520Y0201711D01*
X0016389Y0201791D01*
X0016260Y0201873D01*
X0016133Y0201960D01*
X0016008Y0202049D01*
X0015886Y0202142D01*
X0015767Y0202238D01*
X0015649Y0202337D01*
X0015535Y0202438D01*
X0015423Y0202543D01*
X0015314Y0202651D01*
X0015208Y0202762D01*
X0015104Y0202875D01*
X0015004Y0202991D01*
X0014906Y0203109D01*
X0014812Y0203230D01*
X0014721Y0203353D01*
X0014633Y0203479D01*
X0014549Y0203607D01*
X0014467Y0203737D01*
X0014390Y0203869D01*
X0014315Y0204003D01*
X0014244Y0204139D01*
X0014177Y0204277D01*
X0014113Y0204417D01*
X0014053Y0204558D01*
X0013997Y0204700D01*
X0013944Y0204844D01*
X0013895Y0204990D01*
X0013850Y0205136D01*
X0013809Y0205284D01*
X0013772Y0205432D01*
X0013738Y0205582D01*
X0013708Y0205733D01*
X0013683Y0205884D01*
X0013661Y0206035D01*
X0013643Y0206188D01*
X0013629Y0206340D01*
X0013619Y0206493D01*
X0013613Y0206647D01*
X0013611Y0206800D01*
X0182902Y0024300D02*
X0182904Y0024453D01*
X0182910Y0024607D01*
X0182920Y0024760D01*
X0182934Y0024912D01*
X0182952Y0025065D01*
X0182974Y0025216D01*
X0182999Y0025367D01*
X0183029Y0025518D01*
X0183063Y0025668D01*
X0183100Y0025816D01*
X0183141Y0025964D01*
X0183186Y0026110D01*
X0183235Y0026256D01*
X0183288Y0026400D01*
X0183344Y0026542D01*
X0183404Y0026683D01*
X0183468Y0026823D01*
X0183535Y0026961D01*
X0183606Y0027097D01*
X0183681Y0027231D01*
X0183758Y0027363D01*
X0183840Y0027493D01*
X0183924Y0027621D01*
X0184012Y0027747D01*
X0184103Y0027870D01*
X0184197Y0027991D01*
X0184295Y0028109D01*
X0184395Y0028225D01*
X0184499Y0028338D01*
X0184605Y0028449D01*
X0184714Y0028557D01*
X0184826Y0028662D01*
X0184940Y0028763D01*
X0185058Y0028862D01*
X0185177Y0028958D01*
X0185299Y0029051D01*
X0185424Y0029140D01*
X0185551Y0029227D01*
X0185680Y0029309D01*
X0185811Y0029389D01*
X0185944Y0029465D01*
X0186079Y0029538D01*
X0186216Y0029607D01*
X0186355Y0029672D01*
X0186495Y0029734D01*
X0186637Y0029792D01*
X0186780Y0029847D01*
X0186925Y0029898D01*
X0187071Y0029945D01*
X0187218Y0029988D01*
X0187366Y0030027D01*
X0187515Y0030063D01*
X0187665Y0030094D01*
X0187816Y0030122D01*
X0187967Y0030146D01*
X0188120Y0030166D01*
X0188272Y0030182D01*
X0188425Y0030194D01*
X0188578Y0030202D01*
X0188731Y0030206D01*
X0188885Y0030206D01*
X0189038Y0030202D01*
X0189191Y0030194D01*
X0189344Y0030182D01*
X0189496Y0030166D01*
X0189649Y0030146D01*
X0189800Y0030122D01*
X0189951Y0030094D01*
X0190101Y0030063D01*
X0190250Y0030027D01*
X0190398Y0029988D01*
X0190545Y0029945D01*
X0190691Y0029898D01*
X0190836Y0029847D01*
X0190979Y0029792D01*
X0191121Y0029734D01*
X0191261Y0029672D01*
X0191400Y0029607D01*
X0191537Y0029538D01*
X0191672Y0029465D01*
X0191805Y0029389D01*
X0191936Y0029309D01*
X0192065Y0029227D01*
X0192192Y0029140D01*
X0192317Y0029051D01*
X0192439Y0028958D01*
X0192558Y0028862D01*
X0192676Y0028763D01*
X0192790Y0028662D01*
X0192902Y0028557D01*
X0193011Y0028449D01*
X0193117Y0028338D01*
X0193221Y0028225D01*
X0193321Y0028109D01*
X0193419Y0027991D01*
X0193513Y0027870D01*
X0193604Y0027747D01*
X0193692Y0027621D01*
X0193776Y0027493D01*
X0193858Y0027363D01*
X0193935Y0027231D01*
X0194010Y0027097D01*
X0194081Y0026961D01*
X0194148Y0026823D01*
X0194212Y0026683D01*
X0194272Y0026542D01*
X0194328Y0026400D01*
X0194381Y0026256D01*
X0194430Y0026110D01*
X0194475Y0025964D01*
X0194516Y0025816D01*
X0194553Y0025668D01*
X0194587Y0025518D01*
X0194617Y0025367D01*
X0194642Y0025216D01*
X0194664Y0025065D01*
X0194682Y0024912D01*
X0194696Y0024760D01*
X0194706Y0024607D01*
X0194712Y0024453D01*
X0194714Y0024300D01*
X0194712Y0024147D01*
X0194706Y0023993D01*
X0194696Y0023840D01*
X0194682Y0023688D01*
X0194664Y0023535D01*
X0194642Y0023384D01*
X0194617Y0023233D01*
X0194587Y0023082D01*
X0194553Y0022932D01*
X0194516Y0022784D01*
X0194475Y0022636D01*
X0194430Y0022490D01*
X0194381Y0022344D01*
X0194328Y0022200D01*
X0194272Y0022058D01*
X0194212Y0021917D01*
X0194148Y0021777D01*
X0194081Y0021639D01*
X0194010Y0021503D01*
X0193935Y0021369D01*
X0193858Y0021237D01*
X0193776Y0021107D01*
X0193692Y0020979D01*
X0193604Y0020853D01*
X0193513Y0020730D01*
X0193419Y0020609D01*
X0193321Y0020491D01*
X0193221Y0020375D01*
X0193117Y0020262D01*
X0193011Y0020151D01*
X0192902Y0020043D01*
X0192790Y0019938D01*
X0192676Y0019837D01*
X0192558Y0019738D01*
X0192439Y0019642D01*
X0192317Y0019549D01*
X0192192Y0019460D01*
X0192065Y0019373D01*
X0191936Y0019291D01*
X0191805Y0019211D01*
X0191672Y0019135D01*
X0191537Y0019062D01*
X0191400Y0018993D01*
X0191261Y0018928D01*
X0191121Y0018866D01*
X0190979Y0018808D01*
X0190836Y0018753D01*
X0190691Y0018702D01*
X0190545Y0018655D01*
X0190398Y0018612D01*
X0190250Y0018573D01*
X0190101Y0018537D01*
X0189951Y0018506D01*
X0189800Y0018478D01*
X0189649Y0018454D01*
X0189496Y0018434D01*
X0189344Y0018418D01*
X0189191Y0018406D01*
X0189038Y0018398D01*
X0188885Y0018394D01*
X0188731Y0018394D01*
X0188578Y0018398D01*
X0188425Y0018406D01*
X0188272Y0018418D01*
X0188120Y0018434D01*
X0187967Y0018454D01*
X0187816Y0018478D01*
X0187665Y0018506D01*
X0187515Y0018537D01*
X0187366Y0018573D01*
X0187218Y0018612D01*
X0187071Y0018655D01*
X0186925Y0018702D01*
X0186780Y0018753D01*
X0186637Y0018808D01*
X0186495Y0018866D01*
X0186355Y0018928D01*
X0186216Y0018993D01*
X0186079Y0019062D01*
X0185944Y0019135D01*
X0185811Y0019211D01*
X0185680Y0019291D01*
X0185551Y0019373D01*
X0185424Y0019460D01*
X0185299Y0019549D01*
X0185177Y0019642D01*
X0185058Y0019738D01*
X0184940Y0019837D01*
X0184826Y0019938D01*
X0184714Y0020043D01*
X0184605Y0020151D01*
X0184499Y0020262D01*
X0184395Y0020375D01*
X0184295Y0020491D01*
X0184197Y0020609D01*
X0184103Y0020730D01*
X0184012Y0020853D01*
X0183924Y0020979D01*
X0183840Y0021107D01*
X0183758Y0021237D01*
X0183681Y0021369D01*
X0183606Y0021503D01*
X0183535Y0021639D01*
X0183468Y0021777D01*
X0183404Y0021917D01*
X0183344Y0022058D01*
X0183288Y0022200D01*
X0183235Y0022344D01*
X0183186Y0022490D01*
X0183141Y0022636D01*
X0183100Y0022784D01*
X0183063Y0022932D01*
X0183029Y0023082D01*
X0182999Y0023233D01*
X0182974Y0023384D01*
X0182952Y0023535D01*
X0182934Y0023688D01*
X0182920Y0023840D01*
X0182910Y0023993D01*
X0182904Y0024147D01*
X0182902Y0024300D01*
D11*
X0126881Y0221505D02*
X0065381Y0221505D01*
M02*
