%
M48
M72
T01C0.02362
T02C0.03200
T03C0.03543
T04C0.04000
T05C0.04400
T06C0.04724
T07C0.07480
T08C0.11811
T09C0.12800
%
T01
X9300Y176800
X31800Y176800
X31800Y156800
X9300Y141800
X31800Y121800
X31800Y96800
X84300Y136800
X114300Y164300
X126800Y136800
X116800Y111800
X101800Y96800
X86800Y81800
X86800Y56800
X116800Y76800
X131800Y56800
X126800Y21800
X86800Y21800
X46800Y11800
X166800Y11800
X196800Y51800
X196800Y81800
X191800Y121800
X176800Y141800
X176800Y181800
T02
X19300Y179300
X41800Y179300
X136800Y186800
X146800Y186800
X156800Y186800
X166800Y186800
X184300Y169300
X166800Y156800
X156800Y156800
X146800Y156800
X136800Y156800
X166800Y119300
X184300Y129300
X166800Y79300
X166800Y64300
X166800Y24300
X41800Y89300
X21800Y69300
X16800Y61800
X26800Y61800
X19300Y89300
X19300Y129300
X19300Y139300
X41800Y139300
X41800Y129300
T03
X83631Y164300
X93631Y164300
X98631Y154300
X103631Y164300
X108631Y154300
X88631Y154300
T04
X61800Y39300
X61800Y49300
X61800Y59300
X61800Y69300
X61800Y79300
X61800Y89300
X61800Y99300
X61800Y109300
X151800Y109300
X151800Y99300
X151800Y89300
X151800Y79300
X151800Y69300
X151800Y59300
X151800Y49300
X151800Y39300
X184300Y66800
X184300Y76800
X184300Y86800
X184300Y96800
T05
X41800Y64300
X41800Y24300
T06
X58080Y216800
X44300Y216800
X136800Y216800
X150580Y216800
X164359Y216800
T07
X68631Y154800
X68631Y210300
X123631Y210300
X123631Y154800
T08
X19517Y24300
X19517Y206800
X188808Y206800
X188808Y24300
T09
X76131Y189300
X116131Y189300
M30
