G75*
%MOIN*%
%OFA0B0*%
%FSLAX25Y25*%
%IPPOS*%
%LPD*%
%AMOC8*
5,1,8,0,0,1.08239X$1,22.5*
%
%ADD10C,0.00000*%
%ADD11C,0.00039*%
D10*
X0001800Y0001800D02*
X0001800Y0234261D01*
X0195501Y0234261D01*
X0195501Y0001800D01*
X0001800Y0001800D01*
X0015579Y0021485D02*
X0015581Y0021638D01*
X0015587Y0021792D01*
X0015597Y0021945D01*
X0015611Y0022097D01*
X0015629Y0022250D01*
X0015651Y0022401D01*
X0015676Y0022552D01*
X0015706Y0022703D01*
X0015740Y0022853D01*
X0015777Y0023001D01*
X0015818Y0023149D01*
X0015863Y0023295D01*
X0015912Y0023441D01*
X0015965Y0023585D01*
X0016021Y0023727D01*
X0016081Y0023868D01*
X0016145Y0024008D01*
X0016212Y0024146D01*
X0016283Y0024282D01*
X0016358Y0024416D01*
X0016435Y0024548D01*
X0016517Y0024678D01*
X0016601Y0024806D01*
X0016689Y0024932D01*
X0016780Y0025055D01*
X0016874Y0025176D01*
X0016972Y0025294D01*
X0017072Y0025410D01*
X0017176Y0025523D01*
X0017282Y0025634D01*
X0017391Y0025742D01*
X0017503Y0025847D01*
X0017617Y0025948D01*
X0017735Y0026047D01*
X0017854Y0026143D01*
X0017976Y0026236D01*
X0018101Y0026325D01*
X0018228Y0026412D01*
X0018357Y0026494D01*
X0018488Y0026574D01*
X0018621Y0026650D01*
X0018756Y0026723D01*
X0018893Y0026792D01*
X0019032Y0026857D01*
X0019172Y0026919D01*
X0019314Y0026977D01*
X0019457Y0027032D01*
X0019602Y0027083D01*
X0019748Y0027130D01*
X0019895Y0027173D01*
X0020043Y0027212D01*
X0020192Y0027248D01*
X0020342Y0027279D01*
X0020493Y0027307D01*
X0020644Y0027331D01*
X0020797Y0027351D01*
X0020949Y0027367D01*
X0021102Y0027379D01*
X0021255Y0027387D01*
X0021408Y0027391D01*
X0021562Y0027391D01*
X0021715Y0027387D01*
X0021868Y0027379D01*
X0022021Y0027367D01*
X0022173Y0027351D01*
X0022326Y0027331D01*
X0022477Y0027307D01*
X0022628Y0027279D01*
X0022778Y0027248D01*
X0022927Y0027212D01*
X0023075Y0027173D01*
X0023222Y0027130D01*
X0023368Y0027083D01*
X0023513Y0027032D01*
X0023656Y0026977D01*
X0023798Y0026919D01*
X0023938Y0026857D01*
X0024077Y0026792D01*
X0024214Y0026723D01*
X0024349Y0026650D01*
X0024482Y0026574D01*
X0024613Y0026494D01*
X0024742Y0026412D01*
X0024869Y0026325D01*
X0024994Y0026236D01*
X0025116Y0026143D01*
X0025235Y0026047D01*
X0025353Y0025948D01*
X0025467Y0025847D01*
X0025579Y0025742D01*
X0025688Y0025634D01*
X0025794Y0025523D01*
X0025898Y0025410D01*
X0025998Y0025294D01*
X0026096Y0025176D01*
X0026190Y0025055D01*
X0026281Y0024932D01*
X0026369Y0024806D01*
X0026453Y0024678D01*
X0026535Y0024548D01*
X0026612Y0024416D01*
X0026687Y0024282D01*
X0026758Y0024146D01*
X0026825Y0024008D01*
X0026889Y0023868D01*
X0026949Y0023727D01*
X0027005Y0023585D01*
X0027058Y0023441D01*
X0027107Y0023295D01*
X0027152Y0023149D01*
X0027193Y0023001D01*
X0027230Y0022853D01*
X0027264Y0022703D01*
X0027294Y0022552D01*
X0027319Y0022401D01*
X0027341Y0022250D01*
X0027359Y0022097D01*
X0027373Y0021945D01*
X0027383Y0021792D01*
X0027389Y0021638D01*
X0027391Y0021485D01*
X0027389Y0021332D01*
X0027383Y0021178D01*
X0027373Y0021025D01*
X0027359Y0020873D01*
X0027341Y0020720D01*
X0027319Y0020569D01*
X0027294Y0020418D01*
X0027264Y0020267D01*
X0027230Y0020117D01*
X0027193Y0019969D01*
X0027152Y0019821D01*
X0027107Y0019675D01*
X0027058Y0019529D01*
X0027005Y0019385D01*
X0026949Y0019243D01*
X0026889Y0019102D01*
X0026825Y0018962D01*
X0026758Y0018824D01*
X0026687Y0018688D01*
X0026612Y0018554D01*
X0026535Y0018422D01*
X0026453Y0018292D01*
X0026369Y0018164D01*
X0026281Y0018038D01*
X0026190Y0017915D01*
X0026096Y0017794D01*
X0025998Y0017676D01*
X0025898Y0017560D01*
X0025794Y0017447D01*
X0025688Y0017336D01*
X0025579Y0017228D01*
X0025467Y0017123D01*
X0025353Y0017022D01*
X0025235Y0016923D01*
X0025116Y0016827D01*
X0024994Y0016734D01*
X0024869Y0016645D01*
X0024742Y0016558D01*
X0024613Y0016476D01*
X0024482Y0016396D01*
X0024349Y0016320D01*
X0024214Y0016247D01*
X0024077Y0016178D01*
X0023938Y0016113D01*
X0023798Y0016051D01*
X0023656Y0015993D01*
X0023513Y0015938D01*
X0023368Y0015887D01*
X0023222Y0015840D01*
X0023075Y0015797D01*
X0022927Y0015758D01*
X0022778Y0015722D01*
X0022628Y0015691D01*
X0022477Y0015663D01*
X0022326Y0015639D01*
X0022173Y0015619D01*
X0022021Y0015603D01*
X0021868Y0015591D01*
X0021715Y0015583D01*
X0021562Y0015579D01*
X0021408Y0015579D01*
X0021255Y0015583D01*
X0021102Y0015591D01*
X0020949Y0015603D01*
X0020797Y0015619D01*
X0020644Y0015639D01*
X0020493Y0015663D01*
X0020342Y0015691D01*
X0020192Y0015722D01*
X0020043Y0015758D01*
X0019895Y0015797D01*
X0019748Y0015840D01*
X0019602Y0015887D01*
X0019457Y0015938D01*
X0019314Y0015993D01*
X0019172Y0016051D01*
X0019032Y0016113D01*
X0018893Y0016178D01*
X0018756Y0016247D01*
X0018621Y0016320D01*
X0018488Y0016396D01*
X0018357Y0016476D01*
X0018228Y0016558D01*
X0018101Y0016645D01*
X0017976Y0016734D01*
X0017854Y0016827D01*
X0017735Y0016923D01*
X0017617Y0017022D01*
X0017503Y0017123D01*
X0017391Y0017228D01*
X0017282Y0017336D01*
X0017176Y0017447D01*
X0017072Y0017560D01*
X0016972Y0017676D01*
X0016874Y0017794D01*
X0016780Y0017915D01*
X0016689Y0018038D01*
X0016601Y0018164D01*
X0016517Y0018292D01*
X0016435Y0018422D01*
X0016358Y0018554D01*
X0016283Y0018688D01*
X0016212Y0018824D01*
X0016145Y0018962D01*
X0016081Y0019102D01*
X0016021Y0019243D01*
X0015965Y0019385D01*
X0015912Y0019529D01*
X0015863Y0019675D01*
X0015818Y0019821D01*
X0015777Y0019969D01*
X0015740Y0020117D01*
X0015706Y0020267D01*
X0015676Y0020418D01*
X0015651Y0020569D01*
X0015629Y0020720D01*
X0015611Y0020873D01*
X0015597Y0021025D01*
X0015587Y0021178D01*
X0015581Y0021332D01*
X0015579Y0021485D01*
X0072231Y0204300D02*
X0072233Y0204460D01*
X0072239Y0204619D01*
X0072249Y0204778D01*
X0072263Y0204937D01*
X0072281Y0205096D01*
X0072302Y0205254D01*
X0072328Y0205411D01*
X0072358Y0205568D01*
X0072391Y0205724D01*
X0072429Y0205879D01*
X0072470Y0206033D01*
X0072515Y0206186D01*
X0072564Y0206338D01*
X0072617Y0206489D01*
X0072673Y0206638D01*
X0072734Y0206786D01*
X0072797Y0206932D01*
X0072865Y0207077D01*
X0072936Y0207220D01*
X0073010Y0207361D01*
X0073088Y0207500D01*
X0073170Y0207637D01*
X0073255Y0207772D01*
X0073343Y0207905D01*
X0073435Y0208036D01*
X0073529Y0208164D01*
X0073627Y0208290D01*
X0073728Y0208414D01*
X0073832Y0208535D01*
X0073939Y0208653D01*
X0074049Y0208769D01*
X0074162Y0208882D01*
X0074278Y0208992D01*
X0074396Y0209099D01*
X0074517Y0209203D01*
X0074641Y0209304D01*
X0074767Y0209402D01*
X0074895Y0209496D01*
X0075026Y0209588D01*
X0075159Y0209676D01*
X0075294Y0209761D01*
X0075431Y0209843D01*
X0075570Y0209921D01*
X0075711Y0209995D01*
X0075854Y0210066D01*
X0075999Y0210134D01*
X0076145Y0210197D01*
X0076293Y0210258D01*
X0076442Y0210314D01*
X0076593Y0210367D01*
X0076745Y0210416D01*
X0076898Y0210461D01*
X0077052Y0210502D01*
X0077207Y0210540D01*
X0077363Y0210573D01*
X0077520Y0210603D01*
X0077677Y0210629D01*
X0077835Y0210650D01*
X0077994Y0210668D01*
X0078153Y0210682D01*
X0078312Y0210692D01*
X0078471Y0210698D01*
X0078631Y0210700D01*
X0078791Y0210698D01*
X0078950Y0210692D01*
X0079109Y0210682D01*
X0079268Y0210668D01*
X0079427Y0210650D01*
X0079585Y0210629D01*
X0079742Y0210603D01*
X0079899Y0210573D01*
X0080055Y0210540D01*
X0080210Y0210502D01*
X0080364Y0210461D01*
X0080517Y0210416D01*
X0080669Y0210367D01*
X0080820Y0210314D01*
X0080969Y0210258D01*
X0081117Y0210197D01*
X0081263Y0210134D01*
X0081408Y0210066D01*
X0081551Y0209995D01*
X0081692Y0209921D01*
X0081831Y0209843D01*
X0081968Y0209761D01*
X0082103Y0209676D01*
X0082236Y0209588D01*
X0082367Y0209496D01*
X0082495Y0209402D01*
X0082621Y0209304D01*
X0082745Y0209203D01*
X0082866Y0209099D01*
X0082984Y0208992D01*
X0083100Y0208882D01*
X0083213Y0208769D01*
X0083323Y0208653D01*
X0083430Y0208535D01*
X0083534Y0208414D01*
X0083635Y0208290D01*
X0083733Y0208164D01*
X0083827Y0208036D01*
X0083919Y0207905D01*
X0084007Y0207772D01*
X0084092Y0207637D01*
X0084174Y0207500D01*
X0084252Y0207361D01*
X0084326Y0207220D01*
X0084397Y0207077D01*
X0084465Y0206932D01*
X0084528Y0206786D01*
X0084589Y0206638D01*
X0084645Y0206489D01*
X0084698Y0206338D01*
X0084747Y0206186D01*
X0084792Y0206033D01*
X0084833Y0205879D01*
X0084871Y0205724D01*
X0084904Y0205568D01*
X0084934Y0205411D01*
X0084960Y0205254D01*
X0084981Y0205096D01*
X0084999Y0204937D01*
X0085013Y0204778D01*
X0085023Y0204619D01*
X0085029Y0204460D01*
X0085031Y0204300D01*
X0085029Y0204140D01*
X0085023Y0203981D01*
X0085013Y0203822D01*
X0084999Y0203663D01*
X0084981Y0203504D01*
X0084960Y0203346D01*
X0084934Y0203189D01*
X0084904Y0203032D01*
X0084871Y0202876D01*
X0084833Y0202721D01*
X0084792Y0202567D01*
X0084747Y0202414D01*
X0084698Y0202262D01*
X0084645Y0202111D01*
X0084589Y0201962D01*
X0084528Y0201814D01*
X0084465Y0201668D01*
X0084397Y0201523D01*
X0084326Y0201380D01*
X0084252Y0201239D01*
X0084174Y0201100D01*
X0084092Y0200963D01*
X0084007Y0200828D01*
X0083919Y0200695D01*
X0083827Y0200564D01*
X0083733Y0200436D01*
X0083635Y0200310D01*
X0083534Y0200186D01*
X0083430Y0200065D01*
X0083323Y0199947D01*
X0083213Y0199831D01*
X0083100Y0199718D01*
X0082984Y0199608D01*
X0082866Y0199501D01*
X0082745Y0199397D01*
X0082621Y0199296D01*
X0082495Y0199198D01*
X0082367Y0199104D01*
X0082236Y0199012D01*
X0082103Y0198924D01*
X0081968Y0198839D01*
X0081831Y0198757D01*
X0081692Y0198679D01*
X0081551Y0198605D01*
X0081408Y0198534D01*
X0081263Y0198466D01*
X0081117Y0198403D01*
X0080969Y0198342D01*
X0080820Y0198286D01*
X0080669Y0198233D01*
X0080517Y0198184D01*
X0080364Y0198139D01*
X0080210Y0198098D01*
X0080055Y0198060D01*
X0079899Y0198027D01*
X0079742Y0197997D01*
X0079585Y0197971D01*
X0079427Y0197950D01*
X0079268Y0197932D01*
X0079109Y0197918D01*
X0078950Y0197908D01*
X0078791Y0197902D01*
X0078631Y0197900D01*
X0078471Y0197902D01*
X0078312Y0197908D01*
X0078153Y0197918D01*
X0077994Y0197932D01*
X0077835Y0197950D01*
X0077677Y0197971D01*
X0077520Y0197997D01*
X0077363Y0198027D01*
X0077207Y0198060D01*
X0077052Y0198098D01*
X0076898Y0198139D01*
X0076745Y0198184D01*
X0076593Y0198233D01*
X0076442Y0198286D01*
X0076293Y0198342D01*
X0076145Y0198403D01*
X0075999Y0198466D01*
X0075854Y0198534D01*
X0075711Y0198605D01*
X0075570Y0198679D01*
X0075431Y0198757D01*
X0075294Y0198839D01*
X0075159Y0198924D01*
X0075026Y0199012D01*
X0074895Y0199104D01*
X0074767Y0199198D01*
X0074641Y0199296D01*
X0074517Y0199397D01*
X0074396Y0199501D01*
X0074278Y0199608D01*
X0074162Y0199718D01*
X0074049Y0199831D01*
X0073939Y0199947D01*
X0073832Y0200065D01*
X0073728Y0200186D01*
X0073627Y0200310D01*
X0073529Y0200436D01*
X0073435Y0200564D01*
X0073343Y0200695D01*
X0073255Y0200828D01*
X0073170Y0200963D01*
X0073088Y0201100D01*
X0073010Y0201239D01*
X0072936Y0201380D01*
X0072865Y0201523D01*
X0072797Y0201668D01*
X0072734Y0201814D01*
X0072673Y0201962D01*
X0072617Y0202111D01*
X0072564Y0202262D01*
X0072515Y0202414D01*
X0072470Y0202567D01*
X0072429Y0202721D01*
X0072391Y0202876D01*
X0072358Y0203032D01*
X0072328Y0203189D01*
X0072302Y0203346D01*
X0072281Y0203504D01*
X0072263Y0203663D01*
X0072249Y0203822D01*
X0072239Y0203981D01*
X0072233Y0204140D01*
X0072231Y0204300D01*
X0112231Y0204300D02*
X0112233Y0204460D01*
X0112239Y0204619D01*
X0112249Y0204778D01*
X0112263Y0204937D01*
X0112281Y0205096D01*
X0112302Y0205254D01*
X0112328Y0205411D01*
X0112358Y0205568D01*
X0112391Y0205724D01*
X0112429Y0205879D01*
X0112470Y0206033D01*
X0112515Y0206186D01*
X0112564Y0206338D01*
X0112617Y0206489D01*
X0112673Y0206638D01*
X0112734Y0206786D01*
X0112797Y0206932D01*
X0112865Y0207077D01*
X0112936Y0207220D01*
X0113010Y0207361D01*
X0113088Y0207500D01*
X0113170Y0207637D01*
X0113255Y0207772D01*
X0113343Y0207905D01*
X0113435Y0208036D01*
X0113529Y0208164D01*
X0113627Y0208290D01*
X0113728Y0208414D01*
X0113832Y0208535D01*
X0113939Y0208653D01*
X0114049Y0208769D01*
X0114162Y0208882D01*
X0114278Y0208992D01*
X0114396Y0209099D01*
X0114517Y0209203D01*
X0114641Y0209304D01*
X0114767Y0209402D01*
X0114895Y0209496D01*
X0115026Y0209588D01*
X0115159Y0209676D01*
X0115294Y0209761D01*
X0115431Y0209843D01*
X0115570Y0209921D01*
X0115711Y0209995D01*
X0115854Y0210066D01*
X0115999Y0210134D01*
X0116145Y0210197D01*
X0116293Y0210258D01*
X0116442Y0210314D01*
X0116593Y0210367D01*
X0116745Y0210416D01*
X0116898Y0210461D01*
X0117052Y0210502D01*
X0117207Y0210540D01*
X0117363Y0210573D01*
X0117520Y0210603D01*
X0117677Y0210629D01*
X0117835Y0210650D01*
X0117994Y0210668D01*
X0118153Y0210682D01*
X0118312Y0210692D01*
X0118471Y0210698D01*
X0118631Y0210700D01*
X0118791Y0210698D01*
X0118950Y0210692D01*
X0119109Y0210682D01*
X0119268Y0210668D01*
X0119427Y0210650D01*
X0119585Y0210629D01*
X0119742Y0210603D01*
X0119899Y0210573D01*
X0120055Y0210540D01*
X0120210Y0210502D01*
X0120364Y0210461D01*
X0120517Y0210416D01*
X0120669Y0210367D01*
X0120820Y0210314D01*
X0120969Y0210258D01*
X0121117Y0210197D01*
X0121263Y0210134D01*
X0121408Y0210066D01*
X0121551Y0209995D01*
X0121692Y0209921D01*
X0121831Y0209843D01*
X0121968Y0209761D01*
X0122103Y0209676D01*
X0122236Y0209588D01*
X0122367Y0209496D01*
X0122495Y0209402D01*
X0122621Y0209304D01*
X0122745Y0209203D01*
X0122866Y0209099D01*
X0122984Y0208992D01*
X0123100Y0208882D01*
X0123213Y0208769D01*
X0123323Y0208653D01*
X0123430Y0208535D01*
X0123534Y0208414D01*
X0123635Y0208290D01*
X0123733Y0208164D01*
X0123827Y0208036D01*
X0123919Y0207905D01*
X0124007Y0207772D01*
X0124092Y0207637D01*
X0124174Y0207500D01*
X0124252Y0207361D01*
X0124326Y0207220D01*
X0124397Y0207077D01*
X0124465Y0206932D01*
X0124528Y0206786D01*
X0124589Y0206638D01*
X0124645Y0206489D01*
X0124698Y0206338D01*
X0124747Y0206186D01*
X0124792Y0206033D01*
X0124833Y0205879D01*
X0124871Y0205724D01*
X0124904Y0205568D01*
X0124934Y0205411D01*
X0124960Y0205254D01*
X0124981Y0205096D01*
X0124999Y0204937D01*
X0125013Y0204778D01*
X0125023Y0204619D01*
X0125029Y0204460D01*
X0125031Y0204300D01*
X0125029Y0204140D01*
X0125023Y0203981D01*
X0125013Y0203822D01*
X0124999Y0203663D01*
X0124981Y0203504D01*
X0124960Y0203346D01*
X0124934Y0203189D01*
X0124904Y0203032D01*
X0124871Y0202876D01*
X0124833Y0202721D01*
X0124792Y0202567D01*
X0124747Y0202414D01*
X0124698Y0202262D01*
X0124645Y0202111D01*
X0124589Y0201962D01*
X0124528Y0201814D01*
X0124465Y0201668D01*
X0124397Y0201523D01*
X0124326Y0201380D01*
X0124252Y0201239D01*
X0124174Y0201100D01*
X0124092Y0200963D01*
X0124007Y0200828D01*
X0123919Y0200695D01*
X0123827Y0200564D01*
X0123733Y0200436D01*
X0123635Y0200310D01*
X0123534Y0200186D01*
X0123430Y0200065D01*
X0123323Y0199947D01*
X0123213Y0199831D01*
X0123100Y0199718D01*
X0122984Y0199608D01*
X0122866Y0199501D01*
X0122745Y0199397D01*
X0122621Y0199296D01*
X0122495Y0199198D01*
X0122367Y0199104D01*
X0122236Y0199012D01*
X0122103Y0198924D01*
X0121968Y0198839D01*
X0121831Y0198757D01*
X0121692Y0198679D01*
X0121551Y0198605D01*
X0121408Y0198534D01*
X0121263Y0198466D01*
X0121117Y0198403D01*
X0120969Y0198342D01*
X0120820Y0198286D01*
X0120669Y0198233D01*
X0120517Y0198184D01*
X0120364Y0198139D01*
X0120210Y0198098D01*
X0120055Y0198060D01*
X0119899Y0198027D01*
X0119742Y0197997D01*
X0119585Y0197971D01*
X0119427Y0197950D01*
X0119268Y0197932D01*
X0119109Y0197918D01*
X0118950Y0197908D01*
X0118791Y0197902D01*
X0118631Y0197900D01*
X0118471Y0197902D01*
X0118312Y0197908D01*
X0118153Y0197918D01*
X0117994Y0197932D01*
X0117835Y0197950D01*
X0117677Y0197971D01*
X0117520Y0197997D01*
X0117363Y0198027D01*
X0117207Y0198060D01*
X0117052Y0198098D01*
X0116898Y0198139D01*
X0116745Y0198184D01*
X0116593Y0198233D01*
X0116442Y0198286D01*
X0116293Y0198342D01*
X0116145Y0198403D01*
X0115999Y0198466D01*
X0115854Y0198534D01*
X0115711Y0198605D01*
X0115570Y0198679D01*
X0115431Y0198757D01*
X0115294Y0198839D01*
X0115159Y0198924D01*
X0115026Y0199012D01*
X0114895Y0199104D01*
X0114767Y0199198D01*
X0114641Y0199296D01*
X0114517Y0199397D01*
X0114396Y0199501D01*
X0114278Y0199608D01*
X0114162Y0199718D01*
X0114049Y0199831D01*
X0113939Y0199947D01*
X0113832Y0200065D01*
X0113728Y0200186D01*
X0113627Y0200310D01*
X0113529Y0200436D01*
X0113435Y0200564D01*
X0113343Y0200695D01*
X0113255Y0200828D01*
X0113170Y0200963D01*
X0113088Y0201100D01*
X0113010Y0201239D01*
X0112936Y0201380D01*
X0112865Y0201523D01*
X0112797Y0201668D01*
X0112734Y0201814D01*
X0112673Y0201962D01*
X0112617Y0202111D01*
X0112564Y0202262D01*
X0112515Y0202414D01*
X0112470Y0202567D01*
X0112429Y0202721D01*
X0112391Y0202876D01*
X0112358Y0203032D01*
X0112328Y0203189D01*
X0112302Y0203346D01*
X0112281Y0203504D01*
X0112263Y0203663D01*
X0112249Y0203822D01*
X0112239Y0203981D01*
X0112233Y0204140D01*
X0112231Y0204300D01*
X0173059Y0218335D02*
X0173061Y0218488D01*
X0173067Y0218642D01*
X0173077Y0218795D01*
X0173091Y0218947D01*
X0173109Y0219100D01*
X0173131Y0219251D01*
X0173156Y0219402D01*
X0173186Y0219553D01*
X0173220Y0219703D01*
X0173257Y0219851D01*
X0173298Y0219999D01*
X0173343Y0220145D01*
X0173392Y0220291D01*
X0173445Y0220435D01*
X0173501Y0220577D01*
X0173561Y0220718D01*
X0173625Y0220858D01*
X0173692Y0220996D01*
X0173763Y0221132D01*
X0173838Y0221266D01*
X0173915Y0221398D01*
X0173997Y0221528D01*
X0174081Y0221656D01*
X0174169Y0221782D01*
X0174260Y0221905D01*
X0174354Y0222026D01*
X0174452Y0222144D01*
X0174552Y0222260D01*
X0174656Y0222373D01*
X0174762Y0222484D01*
X0174871Y0222592D01*
X0174983Y0222697D01*
X0175097Y0222798D01*
X0175215Y0222897D01*
X0175334Y0222993D01*
X0175456Y0223086D01*
X0175581Y0223175D01*
X0175708Y0223262D01*
X0175837Y0223344D01*
X0175968Y0223424D01*
X0176101Y0223500D01*
X0176236Y0223573D01*
X0176373Y0223642D01*
X0176512Y0223707D01*
X0176652Y0223769D01*
X0176794Y0223827D01*
X0176937Y0223882D01*
X0177082Y0223933D01*
X0177228Y0223980D01*
X0177375Y0224023D01*
X0177523Y0224062D01*
X0177672Y0224098D01*
X0177822Y0224129D01*
X0177973Y0224157D01*
X0178124Y0224181D01*
X0178277Y0224201D01*
X0178429Y0224217D01*
X0178582Y0224229D01*
X0178735Y0224237D01*
X0178888Y0224241D01*
X0179042Y0224241D01*
X0179195Y0224237D01*
X0179348Y0224229D01*
X0179501Y0224217D01*
X0179653Y0224201D01*
X0179806Y0224181D01*
X0179957Y0224157D01*
X0180108Y0224129D01*
X0180258Y0224098D01*
X0180407Y0224062D01*
X0180555Y0224023D01*
X0180702Y0223980D01*
X0180848Y0223933D01*
X0180993Y0223882D01*
X0181136Y0223827D01*
X0181278Y0223769D01*
X0181418Y0223707D01*
X0181557Y0223642D01*
X0181694Y0223573D01*
X0181829Y0223500D01*
X0181962Y0223424D01*
X0182093Y0223344D01*
X0182222Y0223262D01*
X0182349Y0223175D01*
X0182474Y0223086D01*
X0182596Y0222993D01*
X0182715Y0222897D01*
X0182833Y0222798D01*
X0182947Y0222697D01*
X0183059Y0222592D01*
X0183168Y0222484D01*
X0183274Y0222373D01*
X0183378Y0222260D01*
X0183478Y0222144D01*
X0183576Y0222026D01*
X0183670Y0221905D01*
X0183761Y0221782D01*
X0183849Y0221656D01*
X0183933Y0221528D01*
X0184015Y0221398D01*
X0184092Y0221266D01*
X0184167Y0221132D01*
X0184238Y0220996D01*
X0184305Y0220858D01*
X0184369Y0220718D01*
X0184429Y0220577D01*
X0184485Y0220435D01*
X0184538Y0220291D01*
X0184587Y0220145D01*
X0184632Y0219999D01*
X0184673Y0219851D01*
X0184710Y0219703D01*
X0184744Y0219553D01*
X0184774Y0219402D01*
X0184799Y0219251D01*
X0184821Y0219100D01*
X0184839Y0218947D01*
X0184853Y0218795D01*
X0184863Y0218642D01*
X0184869Y0218488D01*
X0184871Y0218335D01*
X0184869Y0218182D01*
X0184863Y0218028D01*
X0184853Y0217875D01*
X0184839Y0217723D01*
X0184821Y0217570D01*
X0184799Y0217419D01*
X0184774Y0217268D01*
X0184744Y0217117D01*
X0184710Y0216967D01*
X0184673Y0216819D01*
X0184632Y0216671D01*
X0184587Y0216525D01*
X0184538Y0216379D01*
X0184485Y0216235D01*
X0184429Y0216093D01*
X0184369Y0215952D01*
X0184305Y0215812D01*
X0184238Y0215674D01*
X0184167Y0215538D01*
X0184092Y0215404D01*
X0184015Y0215272D01*
X0183933Y0215142D01*
X0183849Y0215014D01*
X0183761Y0214888D01*
X0183670Y0214765D01*
X0183576Y0214644D01*
X0183478Y0214526D01*
X0183378Y0214410D01*
X0183274Y0214297D01*
X0183168Y0214186D01*
X0183059Y0214078D01*
X0182947Y0213973D01*
X0182833Y0213872D01*
X0182715Y0213773D01*
X0182596Y0213677D01*
X0182474Y0213584D01*
X0182349Y0213495D01*
X0182222Y0213408D01*
X0182093Y0213326D01*
X0181962Y0213246D01*
X0181829Y0213170D01*
X0181694Y0213097D01*
X0181557Y0213028D01*
X0181418Y0212963D01*
X0181278Y0212901D01*
X0181136Y0212843D01*
X0180993Y0212788D01*
X0180848Y0212737D01*
X0180702Y0212690D01*
X0180555Y0212647D01*
X0180407Y0212608D01*
X0180258Y0212572D01*
X0180108Y0212541D01*
X0179957Y0212513D01*
X0179806Y0212489D01*
X0179653Y0212469D01*
X0179501Y0212453D01*
X0179348Y0212441D01*
X0179195Y0212433D01*
X0179042Y0212429D01*
X0178888Y0212429D01*
X0178735Y0212433D01*
X0178582Y0212441D01*
X0178429Y0212453D01*
X0178277Y0212469D01*
X0178124Y0212489D01*
X0177973Y0212513D01*
X0177822Y0212541D01*
X0177672Y0212572D01*
X0177523Y0212608D01*
X0177375Y0212647D01*
X0177228Y0212690D01*
X0177082Y0212737D01*
X0176937Y0212788D01*
X0176794Y0212843D01*
X0176652Y0212901D01*
X0176512Y0212963D01*
X0176373Y0213028D01*
X0176236Y0213097D01*
X0176101Y0213170D01*
X0175968Y0213246D01*
X0175837Y0213326D01*
X0175708Y0213408D01*
X0175581Y0213495D01*
X0175456Y0213584D01*
X0175334Y0213677D01*
X0175215Y0213773D01*
X0175097Y0213872D01*
X0174983Y0213973D01*
X0174871Y0214078D01*
X0174762Y0214186D01*
X0174656Y0214297D01*
X0174552Y0214410D01*
X0174452Y0214526D01*
X0174354Y0214644D01*
X0174260Y0214765D01*
X0174169Y0214888D01*
X0174081Y0215014D01*
X0173997Y0215142D01*
X0173915Y0215272D01*
X0173838Y0215404D01*
X0173763Y0215538D01*
X0173692Y0215674D01*
X0173625Y0215812D01*
X0173561Y0215952D01*
X0173501Y0216093D01*
X0173445Y0216235D01*
X0173392Y0216379D01*
X0173343Y0216525D01*
X0173298Y0216671D01*
X0173257Y0216819D01*
X0173220Y0216967D01*
X0173186Y0217117D01*
X0173156Y0217268D01*
X0173131Y0217419D01*
X0173109Y0217570D01*
X0173091Y0217723D01*
X0173077Y0217875D01*
X0173067Y0218028D01*
X0173061Y0218182D01*
X0173059Y0218335D01*
X0015579Y0218335D02*
X0015581Y0218488D01*
X0015587Y0218642D01*
X0015597Y0218795D01*
X0015611Y0218947D01*
X0015629Y0219100D01*
X0015651Y0219251D01*
X0015676Y0219402D01*
X0015706Y0219553D01*
X0015740Y0219703D01*
X0015777Y0219851D01*
X0015818Y0219999D01*
X0015863Y0220145D01*
X0015912Y0220291D01*
X0015965Y0220435D01*
X0016021Y0220577D01*
X0016081Y0220718D01*
X0016145Y0220858D01*
X0016212Y0220996D01*
X0016283Y0221132D01*
X0016358Y0221266D01*
X0016435Y0221398D01*
X0016517Y0221528D01*
X0016601Y0221656D01*
X0016689Y0221782D01*
X0016780Y0221905D01*
X0016874Y0222026D01*
X0016972Y0222144D01*
X0017072Y0222260D01*
X0017176Y0222373D01*
X0017282Y0222484D01*
X0017391Y0222592D01*
X0017503Y0222697D01*
X0017617Y0222798D01*
X0017735Y0222897D01*
X0017854Y0222993D01*
X0017976Y0223086D01*
X0018101Y0223175D01*
X0018228Y0223262D01*
X0018357Y0223344D01*
X0018488Y0223424D01*
X0018621Y0223500D01*
X0018756Y0223573D01*
X0018893Y0223642D01*
X0019032Y0223707D01*
X0019172Y0223769D01*
X0019314Y0223827D01*
X0019457Y0223882D01*
X0019602Y0223933D01*
X0019748Y0223980D01*
X0019895Y0224023D01*
X0020043Y0224062D01*
X0020192Y0224098D01*
X0020342Y0224129D01*
X0020493Y0224157D01*
X0020644Y0224181D01*
X0020797Y0224201D01*
X0020949Y0224217D01*
X0021102Y0224229D01*
X0021255Y0224237D01*
X0021408Y0224241D01*
X0021562Y0224241D01*
X0021715Y0224237D01*
X0021868Y0224229D01*
X0022021Y0224217D01*
X0022173Y0224201D01*
X0022326Y0224181D01*
X0022477Y0224157D01*
X0022628Y0224129D01*
X0022778Y0224098D01*
X0022927Y0224062D01*
X0023075Y0224023D01*
X0023222Y0223980D01*
X0023368Y0223933D01*
X0023513Y0223882D01*
X0023656Y0223827D01*
X0023798Y0223769D01*
X0023938Y0223707D01*
X0024077Y0223642D01*
X0024214Y0223573D01*
X0024349Y0223500D01*
X0024482Y0223424D01*
X0024613Y0223344D01*
X0024742Y0223262D01*
X0024869Y0223175D01*
X0024994Y0223086D01*
X0025116Y0222993D01*
X0025235Y0222897D01*
X0025353Y0222798D01*
X0025467Y0222697D01*
X0025579Y0222592D01*
X0025688Y0222484D01*
X0025794Y0222373D01*
X0025898Y0222260D01*
X0025998Y0222144D01*
X0026096Y0222026D01*
X0026190Y0221905D01*
X0026281Y0221782D01*
X0026369Y0221656D01*
X0026453Y0221528D01*
X0026535Y0221398D01*
X0026612Y0221266D01*
X0026687Y0221132D01*
X0026758Y0220996D01*
X0026825Y0220858D01*
X0026889Y0220718D01*
X0026949Y0220577D01*
X0027005Y0220435D01*
X0027058Y0220291D01*
X0027107Y0220145D01*
X0027152Y0219999D01*
X0027193Y0219851D01*
X0027230Y0219703D01*
X0027264Y0219553D01*
X0027294Y0219402D01*
X0027319Y0219251D01*
X0027341Y0219100D01*
X0027359Y0218947D01*
X0027373Y0218795D01*
X0027383Y0218642D01*
X0027389Y0218488D01*
X0027391Y0218335D01*
X0027389Y0218182D01*
X0027383Y0218028D01*
X0027373Y0217875D01*
X0027359Y0217723D01*
X0027341Y0217570D01*
X0027319Y0217419D01*
X0027294Y0217268D01*
X0027264Y0217117D01*
X0027230Y0216967D01*
X0027193Y0216819D01*
X0027152Y0216671D01*
X0027107Y0216525D01*
X0027058Y0216379D01*
X0027005Y0216235D01*
X0026949Y0216093D01*
X0026889Y0215952D01*
X0026825Y0215812D01*
X0026758Y0215674D01*
X0026687Y0215538D01*
X0026612Y0215404D01*
X0026535Y0215272D01*
X0026453Y0215142D01*
X0026369Y0215014D01*
X0026281Y0214888D01*
X0026190Y0214765D01*
X0026096Y0214644D01*
X0025998Y0214526D01*
X0025898Y0214410D01*
X0025794Y0214297D01*
X0025688Y0214186D01*
X0025579Y0214078D01*
X0025467Y0213973D01*
X0025353Y0213872D01*
X0025235Y0213773D01*
X0025116Y0213677D01*
X0024994Y0213584D01*
X0024869Y0213495D01*
X0024742Y0213408D01*
X0024613Y0213326D01*
X0024482Y0213246D01*
X0024349Y0213170D01*
X0024214Y0213097D01*
X0024077Y0213028D01*
X0023938Y0212963D01*
X0023798Y0212901D01*
X0023656Y0212843D01*
X0023513Y0212788D01*
X0023368Y0212737D01*
X0023222Y0212690D01*
X0023075Y0212647D01*
X0022927Y0212608D01*
X0022778Y0212572D01*
X0022628Y0212541D01*
X0022477Y0212513D01*
X0022326Y0212489D01*
X0022173Y0212469D01*
X0022021Y0212453D01*
X0021868Y0212441D01*
X0021715Y0212433D01*
X0021562Y0212429D01*
X0021408Y0212429D01*
X0021255Y0212433D01*
X0021102Y0212441D01*
X0020949Y0212453D01*
X0020797Y0212469D01*
X0020644Y0212489D01*
X0020493Y0212513D01*
X0020342Y0212541D01*
X0020192Y0212572D01*
X0020043Y0212608D01*
X0019895Y0212647D01*
X0019748Y0212690D01*
X0019602Y0212737D01*
X0019457Y0212788D01*
X0019314Y0212843D01*
X0019172Y0212901D01*
X0019032Y0212963D01*
X0018893Y0213028D01*
X0018756Y0213097D01*
X0018621Y0213170D01*
X0018488Y0213246D01*
X0018357Y0213326D01*
X0018228Y0213408D01*
X0018101Y0213495D01*
X0017976Y0213584D01*
X0017854Y0213677D01*
X0017735Y0213773D01*
X0017617Y0213872D01*
X0017503Y0213973D01*
X0017391Y0214078D01*
X0017282Y0214186D01*
X0017176Y0214297D01*
X0017072Y0214410D01*
X0016972Y0214526D01*
X0016874Y0214644D01*
X0016780Y0214765D01*
X0016689Y0214888D01*
X0016601Y0215014D01*
X0016517Y0215142D01*
X0016435Y0215272D01*
X0016358Y0215404D01*
X0016283Y0215538D01*
X0016212Y0215674D01*
X0016145Y0215812D01*
X0016081Y0215952D01*
X0016021Y0216093D01*
X0015965Y0216235D01*
X0015912Y0216379D01*
X0015863Y0216525D01*
X0015818Y0216671D01*
X0015777Y0216819D01*
X0015740Y0216967D01*
X0015706Y0217117D01*
X0015676Y0217268D01*
X0015651Y0217419D01*
X0015629Y0217570D01*
X0015611Y0217723D01*
X0015597Y0217875D01*
X0015587Y0218028D01*
X0015581Y0218182D01*
X0015579Y0218335D01*
X0173059Y0021485D02*
X0173061Y0021638D01*
X0173067Y0021792D01*
X0173077Y0021945D01*
X0173091Y0022097D01*
X0173109Y0022250D01*
X0173131Y0022401D01*
X0173156Y0022552D01*
X0173186Y0022703D01*
X0173220Y0022853D01*
X0173257Y0023001D01*
X0173298Y0023149D01*
X0173343Y0023295D01*
X0173392Y0023441D01*
X0173445Y0023585D01*
X0173501Y0023727D01*
X0173561Y0023868D01*
X0173625Y0024008D01*
X0173692Y0024146D01*
X0173763Y0024282D01*
X0173838Y0024416D01*
X0173915Y0024548D01*
X0173997Y0024678D01*
X0174081Y0024806D01*
X0174169Y0024932D01*
X0174260Y0025055D01*
X0174354Y0025176D01*
X0174452Y0025294D01*
X0174552Y0025410D01*
X0174656Y0025523D01*
X0174762Y0025634D01*
X0174871Y0025742D01*
X0174983Y0025847D01*
X0175097Y0025948D01*
X0175215Y0026047D01*
X0175334Y0026143D01*
X0175456Y0026236D01*
X0175581Y0026325D01*
X0175708Y0026412D01*
X0175837Y0026494D01*
X0175968Y0026574D01*
X0176101Y0026650D01*
X0176236Y0026723D01*
X0176373Y0026792D01*
X0176512Y0026857D01*
X0176652Y0026919D01*
X0176794Y0026977D01*
X0176937Y0027032D01*
X0177082Y0027083D01*
X0177228Y0027130D01*
X0177375Y0027173D01*
X0177523Y0027212D01*
X0177672Y0027248D01*
X0177822Y0027279D01*
X0177973Y0027307D01*
X0178124Y0027331D01*
X0178277Y0027351D01*
X0178429Y0027367D01*
X0178582Y0027379D01*
X0178735Y0027387D01*
X0178888Y0027391D01*
X0179042Y0027391D01*
X0179195Y0027387D01*
X0179348Y0027379D01*
X0179501Y0027367D01*
X0179653Y0027351D01*
X0179806Y0027331D01*
X0179957Y0027307D01*
X0180108Y0027279D01*
X0180258Y0027248D01*
X0180407Y0027212D01*
X0180555Y0027173D01*
X0180702Y0027130D01*
X0180848Y0027083D01*
X0180993Y0027032D01*
X0181136Y0026977D01*
X0181278Y0026919D01*
X0181418Y0026857D01*
X0181557Y0026792D01*
X0181694Y0026723D01*
X0181829Y0026650D01*
X0181962Y0026574D01*
X0182093Y0026494D01*
X0182222Y0026412D01*
X0182349Y0026325D01*
X0182474Y0026236D01*
X0182596Y0026143D01*
X0182715Y0026047D01*
X0182833Y0025948D01*
X0182947Y0025847D01*
X0183059Y0025742D01*
X0183168Y0025634D01*
X0183274Y0025523D01*
X0183378Y0025410D01*
X0183478Y0025294D01*
X0183576Y0025176D01*
X0183670Y0025055D01*
X0183761Y0024932D01*
X0183849Y0024806D01*
X0183933Y0024678D01*
X0184015Y0024548D01*
X0184092Y0024416D01*
X0184167Y0024282D01*
X0184238Y0024146D01*
X0184305Y0024008D01*
X0184369Y0023868D01*
X0184429Y0023727D01*
X0184485Y0023585D01*
X0184538Y0023441D01*
X0184587Y0023295D01*
X0184632Y0023149D01*
X0184673Y0023001D01*
X0184710Y0022853D01*
X0184744Y0022703D01*
X0184774Y0022552D01*
X0184799Y0022401D01*
X0184821Y0022250D01*
X0184839Y0022097D01*
X0184853Y0021945D01*
X0184863Y0021792D01*
X0184869Y0021638D01*
X0184871Y0021485D01*
X0184869Y0021332D01*
X0184863Y0021178D01*
X0184853Y0021025D01*
X0184839Y0020873D01*
X0184821Y0020720D01*
X0184799Y0020569D01*
X0184774Y0020418D01*
X0184744Y0020267D01*
X0184710Y0020117D01*
X0184673Y0019969D01*
X0184632Y0019821D01*
X0184587Y0019675D01*
X0184538Y0019529D01*
X0184485Y0019385D01*
X0184429Y0019243D01*
X0184369Y0019102D01*
X0184305Y0018962D01*
X0184238Y0018824D01*
X0184167Y0018688D01*
X0184092Y0018554D01*
X0184015Y0018422D01*
X0183933Y0018292D01*
X0183849Y0018164D01*
X0183761Y0018038D01*
X0183670Y0017915D01*
X0183576Y0017794D01*
X0183478Y0017676D01*
X0183378Y0017560D01*
X0183274Y0017447D01*
X0183168Y0017336D01*
X0183059Y0017228D01*
X0182947Y0017123D01*
X0182833Y0017022D01*
X0182715Y0016923D01*
X0182596Y0016827D01*
X0182474Y0016734D01*
X0182349Y0016645D01*
X0182222Y0016558D01*
X0182093Y0016476D01*
X0181962Y0016396D01*
X0181829Y0016320D01*
X0181694Y0016247D01*
X0181557Y0016178D01*
X0181418Y0016113D01*
X0181278Y0016051D01*
X0181136Y0015993D01*
X0180993Y0015938D01*
X0180848Y0015887D01*
X0180702Y0015840D01*
X0180555Y0015797D01*
X0180407Y0015758D01*
X0180258Y0015722D01*
X0180108Y0015691D01*
X0179957Y0015663D01*
X0179806Y0015639D01*
X0179653Y0015619D01*
X0179501Y0015603D01*
X0179348Y0015591D01*
X0179195Y0015583D01*
X0179042Y0015579D01*
X0178888Y0015579D01*
X0178735Y0015583D01*
X0178582Y0015591D01*
X0178429Y0015603D01*
X0178277Y0015619D01*
X0178124Y0015639D01*
X0177973Y0015663D01*
X0177822Y0015691D01*
X0177672Y0015722D01*
X0177523Y0015758D01*
X0177375Y0015797D01*
X0177228Y0015840D01*
X0177082Y0015887D01*
X0176937Y0015938D01*
X0176794Y0015993D01*
X0176652Y0016051D01*
X0176512Y0016113D01*
X0176373Y0016178D01*
X0176236Y0016247D01*
X0176101Y0016320D01*
X0175968Y0016396D01*
X0175837Y0016476D01*
X0175708Y0016558D01*
X0175581Y0016645D01*
X0175456Y0016734D01*
X0175334Y0016827D01*
X0175215Y0016923D01*
X0175097Y0017022D01*
X0174983Y0017123D01*
X0174871Y0017228D01*
X0174762Y0017336D01*
X0174656Y0017447D01*
X0174552Y0017560D01*
X0174452Y0017676D01*
X0174354Y0017794D01*
X0174260Y0017915D01*
X0174169Y0018038D01*
X0174081Y0018164D01*
X0173997Y0018292D01*
X0173915Y0018422D01*
X0173838Y0018554D01*
X0173763Y0018688D01*
X0173692Y0018824D01*
X0173625Y0018962D01*
X0173561Y0019102D01*
X0173501Y0019243D01*
X0173445Y0019385D01*
X0173392Y0019529D01*
X0173343Y0019675D01*
X0173298Y0019821D01*
X0173257Y0019969D01*
X0173220Y0020117D01*
X0173186Y0020267D01*
X0173156Y0020418D01*
X0173131Y0020569D01*
X0173109Y0020720D01*
X0173091Y0020873D01*
X0173077Y0021025D01*
X0173067Y0021178D01*
X0173061Y0021332D01*
X0173059Y0021485D01*
D11*
X0129381Y0236505D02*
X0067881Y0236505D01*
M02*
