%
M48
M72
T01C0.03200
T02C0.03543
T03C0.04000
T04C0.04400
T05C0.04724
T06C0.07480
T07C0.11811
T08C0.12800
%
T01
X119300Y131800
X109300Y116800
X99300Y131800
X89300Y116800
X79300Y131800
X79300Y91800
X89300Y76800
X99300Y91800
X109300Y76800
X119300Y91800
X129300Y76800
X121800Y39300
X81800Y39300
X26800Y71800
X19300Y76800
X26800Y81800
X21800Y106800
X31800Y106800
X31800Y136800
X21800Y136800
X129300Y116800
T02
X86131Y179300
X91131Y169300
X96131Y179300
X101131Y169300
X106131Y179300
X111131Y169300
T03
X56800Y39300
X56800Y49300
X56800Y59300
X56800Y69300
X56800Y79300
X56800Y89300
X56800Y99300
X56800Y109300
X146800Y109300
X146800Y99300
X146800Y89300
X146800Y79300
X146800Y69300
X146800Y59300
X146800Y49300
X146800Y39300
X176800Y76800
X176800Y86800
X176800Y96800
T04
X81800Y54300
X121800Y54300
T05
X16800Y181800
X16800Y168020
X181800Y184359
X181800Y170580
X181800Y156800
T06
X71131Y169800
X71131Y225300
X126131Y225300
X126131Y169800
T07
X21485Y21485
X21485Y218335
X178965Y218335
X178965Y21485
T08
X78631Y204300
X118631Y204300
M30
