G75*
%MOIN*%
%OFA0B0*%
%FSLAX25Y25*%
%IPPOS*%
%LPD*%
%AMOC8*
5,1,8,0,0,1.08239X$1,22.5*
%
%ADD10C,0.00000*%
%ADD11C,0.00800*%
%ADD12C,0.00500*%
%ADD13C,0.00900*%
%ADD14C,0.01000*%
%ADD15C,0.00600*%
%ADD16R,0.02400X0.03400*%
%ADD17C,0.00400*%
%ADD18C,0.00200*%
%ADD19C,0.00300*%
%ADD20C,0.00039*%
%ADD21R,0.03642X0.05091*%
%ADD22R,0.10000X0.02000*%
%ADD23R,0.03000X0.07500*%
D10*
X0001800Y0001800D02*
X0001800Y0234261D01*
X0195501Y0234261D01*
X0195501Y0001800D01*
X0001800Y0001800D01*
X0015579Y0021485D02*
X0015581Y0021638D01*
X0015587Y0021792D01*
X0015597Y0021945D01*
X0015611Y0022097D01*
X0015629Y0022250D01*
X0015651Y0022401D01*
X0015676Y0022552D01*
X0015706Y0022703D01*
X0015740Y0022853D01*
X0015777Y0023001D01*
X0015818Y0023149D01*
X0015863Y0023295D01*
X0015912Y0023441D01*
X0015965Y0023585D01*
X0016021Y0023727D01*
X0016081Y0023868D01*
X0016145Y0024008D01*
X0016212Y0024146D01*
X0016283Y0024282D01*
X0016358Y0024416D01*
X0016435Y0024548D01*
X0016517Y0024678D01*
X0016601Y0024806D01*
X0016689Y0024932D01*
X0016780Y0025055D01*
X0016874Y0025176D01*
X0016972Y0025294D01*
X0017072Y0025410D01*
X0017176Y0025523D01*
X0017282Y0025634D01*
X0017391Y0025742D01*
X0017503Y0025847D01*
X0017617Y0025948D01*
X0017735Y0026047D01*
X0017854Y0026143D01*
X0017976Y0026236D01*
X0018101Y0026325D01*
X0018228Y0026412D01*
X0018357Y0026494D01*
X0018488Y0026574D01*
X0018621Y0026650D01*
X0018756Y0026723D01*
X0018893Y0026792D01*
X0019032Y0026857D01*
X0019172Y0026919D01*
X0019314Y0026977D01*
X0019457Y0027032D01*
X0019602Y0027083D01*
X0019748Y0027130D01*
X0019895Y0027173D01*
X0020043Y0027212D01*
X0020192Y0027248D01*
X0020342Y0027279D01*
X0020493Y0027307D01*
X0020644Y0027331D01*
X0020797Y0027351D01*
X0020949Y0027367D01*
X0021102Y0027379D01*
X0021255Y0027387D01*
X0021408Y0027391D01*
X0021562Y0027391D01*
X0021715Y0027387D01*
X0021868Y0027379D01*
X0022021Y0027367D01*
X0022173Y0027351D01*
X0022326Y0027331D01*
X0022477Y0027307D01*
X0022628Y0027279D01*
X0022778Y0027248D01*
X0022927Y0027212D01*
X0023075Y0027173D01*
X0023222Y0027130D01*
X0023368Y0027083D01*
X0023513Y0027032D01*
X0023656Y0026977D01*
X0023798Y0026919D01*
X0023938Y0026857D01*
X0024077Y0026792D01*
X0024214Y0026723D01*
X0024349Y0026650D01*
X0024482Y0026574D01*
X0024613Y0026494D01*
X0024742Y0026412D01*
X0024869Y0026325D01*
X0024994Y0026236D01*
X0025116Y0026143D01*
X0025235Y0026047D01*
X0025353Y0025948D01*
X0025467Y0025847D01*
X0025579Y0025742D01*
X0025688Y0025634D01*
X0025794Y0025523D01*
X0025898Y0025410D01*
X0025998Y0025294D01*
X0026096Y0025176D01*
X0026190Y0025055D01*
X0026281Y0024932D01*
X0026369Y0024806D01*
X0026453Y0024678D01*
X0026535Y0024548D01*
X0026612Y0024416D01*
X0026687Y0024282D01*
X0026758Y0024146D01*
X0026825Y0024008D01*
X0026889Y0023868D01*
X0026949Y0023727D01*
X0027005Y0023585D01*
X0027058Y0023441D01*
X0027107Y0023295D01*
X0027152Y0023149D01*
X0027193Y0023001D01*
X0027230Y0022853D01*
X0027264Y0022703D01*
X0027294Y0022552D01*
X0027319Y0022401D01*
X0027341Y0022250D01*
X0027359Y0022097D01*
X0027373Y0021945D01*
X0027383Y0021792D01*
X0027389Y0021638D01*
X0027391Y0021485D01*
X0027389Y0021332D01*
X0027383Y0021178D01*
X0027373Y0021025D01*
X0027359Y0020873D01*
X0027341Y0020720D01*
X0027319Y0020569D01*
X0027294Y0020418D01*
X0027264Y0020267D01*
X0027230Y0020117D01*
X0027193Y0019969D01*
X0027152Y0019821D01*
X0027107Y0019675D01*
X0027058Y0019529D01*
X0027005Y0019385D01*
X0026949Y0019243D01*
X0026889Y0019102D01*
X0026825Y0018962D01*
X0026758Y0018824D01*
X0026687Y0018688D01*
X0026612Y0018554D01*
X0026535Y0018422D01*
X0026453Y0018292D01*
X0026369Y0018164D01*
X0026281Y0018038D01*
X0026190Y0017915D01*
X0026096Y0017794D01*
X0025998Y0017676D01*
X0025898Y0017560D01*
X0025794Y0017447D01*
X0025688Y0017336D01*
X0025579Y0017228D01*
X0025467Y0017123D01*
X0025353Y0017022D01*
X0025235Y0016923D01*
X0025116Y0016827D01*
X0024994Y0016734D01*
X0024869Y0016645D01*
X0024742Y0016558D01*
X0024613Y0016476D01*
X0024482Y0016396D01*
X0024349Y0016320D01*
X0024214Y0016247D01*
X0024077Y0016178D01*
X0023938Y0016113D01*
X0023798Y0016051D01*
X0023656Y0015993D01*
X0023513Y0015938D01*
X0023368Y0015887D01*
X0023222Y0015840D01*
X0023075Y0015797D01*
X0022927Y0015758D01*
X0022778Y0015722D01*
X0022628Y0015691D01*
X0022477Y0015663D01*
X0022326Y0015639D01*
X0022173Y0015619D01*
X0022021Y0015603D01*
X0021868Y0015591D01*
X0021715Y0015583D01*
X0021562Y0015579D01*
X0021408Y0015579D01*
X0021255Y0015583D01*
X0021102Y0015591D01*
X0020949Y0015603D01*
X0020797Y0015619D01*
X0020644Y0015639D01*
X0020493Y0015663D01*
X0020342Y0015691D01*
X0020192Y0015722D01*
X0020043Y0015758D01*
X0019895Y0015797D01*
X0019748Y0015840D01*
X0019602Y0015887D01*
X0019457Y0015938D01*
X0019314Y0015993D01*
X0019172Y0016051D01*
X0019032Y0016113D01*
X0018893Y0016178D01*
X0018756Y0016247D01*
X0018621Y0016320D01*
X0018488Y0016396D01*
X0018357Y0016476D01*
X0018228Y0016558D01*
X0018101Y0016645D01*
X0017976Y0016734D01*
X0017854Y0016827D01*
X0017735Y0016923D01*
X0017617Y0017022D01*
X0017503Y0017123D01*
X0017391Y0017228D01*
X0017282Y0017336D01*
X0017176Y0017447D01*
X0017072Y0017560D01*
X0016972Y0017676D01*
X0016874Y0017794D01*
X0016780Y0017915D01*
X0016689Y0018038D01*
X0016601Y0018164D01*
X0016517Y0018292D01*
X0016435Y0018422D01*
X0016358Y0018554D01*
X0016283Y0018688D01*
X0016212Y0018824D01*
X0016145Y0018962D01*
X0016081Y0019102D01*
X0016021Y0019243D01*
X0015965Y0019385D01*
X0015912Y0019529D01*
X0015863Y0019675D01*
X0015818Y0019821D01*
X0015777Y0019969D01*
X0015740Y0020117D01*
X0015706Y0020267D01*
X0015676Y0020418D01*
X0015651Y0020569D01*
X0015629Y0020720D01*
X0015611Y0020873D01*
X0015597Y0021025D01*
X0015587Y0021178D01*
X0015581Y0021332D01*
X0015579Y0021485D01*
X0067231Y0184300D02*
X0067233Y0184460D01*
X0067239Y0184619D01*
X0067249Y0184778D01*
X0067263Y0184937D01*
X0067281Y0185096D01*
X0067302Y0185254D01*
X0067328Y0185411D01*
X0067358Y0185568D01*
X0067391Y0185724D01*
X0067429Y0185879D01*
X0067470Y0186033D01*
X0067515Y0186186D01*
X0067564Y0186338D01*
X0067617Y0186489D01*
X0067673Y0186638D01*
X0067734Y0186786D01*
X0067797Y0186932D01*
X0067865Y0187077D01*
X0067936Y0187220D01*
X0068010Y0187361D01*
X0068088Y0187500D01*
X0068170Y0187637D01*
X0068255Y0187772D01*
X0068343Y0187905D01*
X0068435Y0188036D01*
X0068529Y0188164D01*
X0068627Y0188290D01*
X0068728Y0188414D01*
X0068832Y0188535D01*
X0068939Y0188653D01*
X0069049Y0188769D01*
X0069162Y0188882D01*
X0069278Y0188992D01*
X0069396Y0189099D01*
X0069517Y0189203D01*
X0069641Y0189304D01*
X0069767Y0189402D01*
X0069895Y0189496D01*
X0070026Y0189588D01*
X0070159Y0189676D01*
X0070294Y0189761D01*
X0070431Y0189843D01*
X0070570Y0189921D01*
X0070711Y0189995D01*
X0070854Y0190066D01*
X0070999Y0190134D01*
X0071145Y0190197D01*
X0071293Y0190258D01*
X0071442Y0190314D01*
X0071593Y0190367D01*
X0071745Y0190416D01*
X0071898Y0190461D01*
X0072052Y0190502D01*
X0072207Y0190540D01*
X0072363Y0190573D01*
X0072520Y0190603D01*
X0072677Y0190629D01*
X0072835Y0190650D01*
X0072994Y0190668D01*
X0073153Y0190682D01*
X0073312Y0190692D01*
X0073471Y0190698D01*
X0073631Y0190700D01*
X0073791Y0190698D01*
X0073950Y0190692D01*
X0074109Y0190682D01*
X0074268Y0190668D01*
X0074427Y0190650D01*
X0074585Y0190629D01*
X0074742Y0190603D01*
X0074899Y0190573D01*
X0075055Y0190540D01*
X0075210Y0190502D01*
X0075364Y0190461D01*
X0075517Y0190416D01*
X0075669Y0190367D01*
X0075820Y0190314D01*
X0075969Y0190258D01*
X0076117Y0190197D01*
X0076263Y0190134D01*
X0076408Y0190066D01*
X0076551Y0189995D01*
X0076692Y0189921D01*
X0076831Y0189843D01*
X0076968Y0189761D01*
X0077103Y0189676D01*
X0077236Y0189588D01*
X0077367Y0189496D01*
X0077495Y0189402D01*
X0077621Y0189304D01*
X0077745Y0189203D01*
X0077866Y0189099D01*
X0077984Y0188992D01*
X0078100Y0188882D01*
X0078213Y0188769D01*
X0078323Y0188653D01*
X0078430Y0188535D01*
X0078534Y0188414D01*
X0078635Y0188290D01*
X0078733Y0188164D01*
X0078827Y0188036D01*
X0078919Y0187905D01*
X0079007Y0187772D01*
X0079092Y0187637D01*
X0079174Y0187500D01*
X0079252Y0187361D01*
X0079326Y0187220D01*
X0079397Y0187077D01*
X0079465Y0186932D01*
X0079528Y0186786D01*
X0079589Y0186638D01*
X0079645Y0186489D01*
X0079698Y0186338D01*
X0079747Y0186186D01*
X0079792Y0186033D01*
X0079833Y0185879D01*
X0079871Y0185724D01*
X0079904Y0185568D01*
X0079934Y0185411D01*
X0079960Y0185254D01*
X0079981Y0185096D01*
X0079999Y0184937D01*
X0080013Y0184778D01*
X0080023Y0184619D01*
X0080029Y0184460D01*
X0080031Y0184300D01*
X0080029Y0184140D01*
X0080023Y0183981D01*
X0080013Y0183822D01*
X0079999Y0183663D01*
X0079981Y0183504D01*
X0079960Y0183346D01*
X0079934Y0183189D01*
X0079904Y0183032D01*
X0079871Y0182876D01*
X0079833Y0182721D01*
X0079792Y0182567D01*
X0079747Y0182414D01*
X0079698Y0182262D01*
X0079645Y0182111D01*
X0079589Y0181962D01*
X0079528Y0181814D01*
X0079465Y0181668D01*
X0079397Y0181523D01*
X0079326Y0181380D01*
X0079252Y0181239D01*
X0079174Y0181100D01*
X0079092Y0180963D01*
X0079007Y0180828D01*
X0078919Y0180695D01*
X0078827Y0180564D01*
X0078733Y0180436D01*
X0078635Y0180310D01*
X0078534Y0180186D01*
X0078430Y0180065D01*
X0078323Y0179947D01*
X0078213Y0179831D01*
X0078100Y0179718D01*
X0077984Y0179608D01*
X0077866Y0179501D01*
X0077745Y0179397D01*
X0077621Y0179296D01*
X0077495Y0179198D01*
X0077367Y0179104D01*
X0077236Y0179012D01*
X0077103Y0178924D01*
X0076968Y0178839D01*
X0076831Y0178757D01*
X0076692Y0178679D01*
X0076551Y0178605D01*
X0076408Y0178534D01*
X0076263Y0178466D01*
X0076117Y0178403D01*
X0075969Y0178342D01*
X0075820Y0178286D01*
X0075669Y0178233D01*
X0075517Y0178184D01*
X0075364Y0178139D01*
X0075210Y0178098D01*
X0075055Y0178060D01*
X0074899Y0178027D01*
X0074742Y0177997D01*
X0074585Y0177971D01*
X0074427Y0177950D01*
X0074268Y0177932D01*
X0074109Y0177918D01*
X0073950Y0177908D01*
X0073791Y0177902D01*
X0073631Y0177900D01*
X0073471Y0177902D01*
X0073312Y0177908D01*
X0073153Y0177918D01*
X0072994Y0177932D01*
X0072835Y0177950D01*
X0072677Y0177971D01*
X0072520Y0177997D01*
X0072363Y0178027D01*
X0072207Y0178060D01*
X0072052Y0178098D01*
X0071898Y0178139D01*
X0071745Y0178184D01*
X0071593Y0178233D01*
X0071442Y0178286D01*
X0071293Y0178342D01*
X0071145Y0178403D01*
X0070999Y0178466D01*
X0070854Y0178534D01*
X0070711Y0178605D01*
X0070570Y0178679D01*
X0070431Y0178757D01*
X0070294Y0178839D01*
X0070159Y0178924D01*
X0070026Y0179012D01*
X0069895Y0179104D01*
X0069767Y0179198D01*
X0069641Y0179296D01*
X0069517Y0179397D01*
X0069396Y0179501D01*
X0069278Y0179608D01*
X0069162Y0179718D01*
X0069049Y0179831D01*
X0068939Y0179947D01*
X0068832Y0180065D01*
X0068728Y0180186D01*
X0068627Y0180310D01*
X0068529Y0180436D01*
X0068435Y0180564D01*
X0068343Y0180695D01*
X0068255Y0180828D01*
X0068170Y0180963D01*
X0068088Y0181100D01*
X0068010Y0181239D01*
X0067936Y0181380D01*
X0067865Y0181523D01*
X0067797Y0181668D01*
X0067734Y0181814D01*
X0067673Y0181962D01*
X0067617Y0182111D01*
X0067564Y0182262D01*
X0067515Y0182414D01*
X0067470Y0182567D01*
X0067429Y0182721D01*
X0067391Y0182876D01*
X0067358Y0183032D01*
X0067328Y0183189D01*
X0067302Y0183346D01*
X0067281Y0183504D01*
X0067263Y0183663D01*
X0067249Y0183822D01*
X0067239Y0183981D01*
X0067233Y0184140D01*
X0067231Y0184300D01*
X0015579Y0218335D02*
X0015581Y0218488D01*
X0015587Y0218642D01*
X0015597Y0218795D01*
X0015611Y0218947D01*
X0015629Y0219100D01*
X0015651Y0219251D01*
X0015676Y0219402D01*
X0015706Y0219553D01*
X0015740Y0219703D01*
X0015777Y0219851D01*
X0015818Y0219999D01*
X0015863Y0220145D01*
X0015912Y0220291D01*
X0015965Y0220435D01*
X0016021Y0220577D01*
X0016081Y0220718D01*
X0016145Y0220858D01*
X0016212Y0220996D01*
X0016283Y0221132D01*
X0016358Y0221266D01*
X0016435Y0221398D01*
X0016517Y0221528D01*
X0016601Y0221656D01*
X0016689Y0221782D01*
X0016780Y0221905D01*
X0016874Y0222026D01*
X0016972Y0222144D01*
X0017072Y0222260D01*
X0017176Y0222373D01*
X0017282Y0222484D01*
X0017391Y0222592D01*
X0017503Y0222697D01*
X0017617Y0222798D01*
X0017735Y0222897D01*
X0017854Y0222993D01*
X0017976Y0223086D01*
X0018101Y0223175D01*
X0018228Y0223262D01*
X0018357Y0223344D01*
X0018488Y0223424D01*
X0018621Y0223500D01*
X0018756Y0223573D01*
X0018893Y0223642D01*
X0019032Y0223707D01*
X0019172Y0223769D01*
X0019314Y0223827D01*
X0019457Y0223882D01*
X0019602Y0223933D01*
X0019748Y0223980D01*
X0019895Y0224023D01*
X0020043Y0224062D01*
X0020192Y0224098D01*
X0020342Y0224129D01*
X0020493Y0224157D01*
X0020644Y0224181D01*
X0020797Y0224201D01*
X0020949Y0224217D01*
X0021102Y0224229D01*
X0021255Y0224237D01*
X0021408Y0224241D01*
X0021562Y0224241D01*
X0021715Y0224237D01*
X0021868Y0224229D01*
X0022021Y0224217D01*
X0022173Y0224201D01*
X0022326Y0224181D01*
X0022477Y0224157D01*
X0022628Y0224129D01*
X0022778Y0224098D01*
X0022927Y0224062D01*
X0023075Y0224023D01*
X0023222Y0223980D01*
X0023368Y0223933D01*
X0023513Y0223882D01*
X0023656Y0223827D01*
X0023798Y0223769D01*
X0023938Y0223707D01*
X0024077Y0223642D01*
X0024214Y0223573D01*
X0024349Y0223500D01*
X0024482Y0223424D01*
X0024613Y0223344D01*
X0024742Y0223262D01*
X0024869Y0223175D01*
X0024994Y0223086D01*
X0025116Y0222993D01*
X0025235Y0222897D01*
X0025353Y0222798D01*
X0025467Y0222697D01*
X0025579Y0222592D01*
X0025688Y0222484D01*
X0025794Y0222373D01*
X0025898Y0222260D01*
X0025998Y0222144D01*
X0026096Y0222026D01*
X0026190Y0221905D01*
X0026281Y0221782D01*
X0026369Y0221656D01*
X0026453Y0221528D01*
X0026535Y0221398D01*
X0026612Y0221266D01*
X0026687Y0221132D01*
X0026758Y0220996D01*
X0026825Y0220858D01*
X0026889Y0220718D01*
X0026949Y0220577D01*
X0027005Y0220435D01*
X0027058Y0220291D01*
X0027107Y0220145D01*
X0027152Y0219999D01*
X0027193Y0219851D01*
X0027230Y0219703D01*
X0027264Y0219553D01*
X0027294Y0219402D01*
X0027319Y0219251D01*
X0027341Y0219100D01*
X0027359Y0218947D01*
X0027373Y0218795D01*
X0027383Y0218642D01*
X0027389Y0218488D01*
X0027391Y0218335D01*
X0027389Y0218182D01*
X0027383Y0218028D01*
X0027373Y0217875D01*
X0027359Y0217723D01*
X0027341Y0217570D01*
X0027319Y0217419D01*
X0027294Y0217268D01*
X0027264Y0217117D01*
X0027230Y0216967D01*
X0027193Y0216819D01*
X0027152Y0216671D01*
X0027107Y0216525D01*
X0027058Y0216379D01*
X0027005Y0216235D01*
X0026949Y0216093D01*
X0026889Y0215952D01*
X0026825Y0215812D01*
X0026758Y0215674D01*
X0026687Y0215538D01*
X0026612Y0215404D01*
X0026535Y0215272D01*
X0026453Y0215142D01*
X0026369Y0215014D01*
X0026281Y0214888D01*
X0026190Y0214765D01*
X0026096Y0214644D01*
X0025998Y0214526D01*
X0025898Y0214410D01*
X0025794Y0214297D01*
X0025688Y0214186D01*
X0025579Y0214078D01*
X0025467Y0213973D01*
X0025353Y0213872D01*
X0025235Y0213773D01*
X0025116Y0213677D01*
X0024994Y0213584D01*
X0024869Y0213495D01*
X0024742Y0213408D01*
X0024613Y0213326D01*
X0024482Y0213246D01*
X0024349Y0213170D01*
X0024214Y0213097D01*
X0024077Y0213028D01*
X0023938Y0212963D01*
X0023798Y0212901D01*
X0023656Y0212843D01*
X0023513Y0212788D01*
X0023368Y0212737D01*
X0023222Y0212690D01*
X0023075Y0212647D01*
X0022927Y0212608D01*
X0022778Y0212572D01*
X0022628Y0212541D01*
X0022477Y0212513D01*
X0022326Y0212489D01*
X0022173Y0212469D01*
X0022021Y0212453D01*
X0021868Y0212441D01*
X0021715Y0212433D01*
X0021562Y0212429D01*
X0021408Y0212429D01*
X0021255Y0212433D01*
X0021102Y0212441D01*
X0020949Y0212453D01*
X0020797Y0212469D01*
X0020644Y0212489D01*
X0020493Y0212513D01*
X0020342Y0212541D01*
X0020192Y0212572D01*
X0020043Y0212608D01*
X0019895Y0212647D01*
X0019748Y0212690D01*
X0019602Y0212737D01*
X0019457Y0212788D01*
X0019314Y0212843D01*
X0019172Y0212901D01*
X0019032Y0212963D01*
X0018893Y0213028D01*
X0018756Y0213097D01*
X0018621Y0213170D01*
X0018488Y0213246D01*
X0018357Y0213326D01*
X0018228Y0213408D01*
X0018101Y0213495D01*
X0017976Y0213584D01*
X0017854Y0213677D01*
X0017735Y0213773D01*
X0017617Y0213872D01*
X0017503Y0213973D01*
X0017391Y0214078D01*
X0017282Y0214186D01*
X0017176Y0214297D01*
X0017072Y0214410D01*
X0016972Y0214526D01*
X0016874Y0214644D01*
X0016780Y0214765D01*
X0016689Y0214888D01*
X0016601Y0215014D01*
X0016517Y0215142D01*
X0016435Y0215272D01*
X0016358Y0215404D01*
X0016283Y0215538D01*
X0016212Y0215674D01*
X0016145Y0215812D01*
X0016081Y0215952D01*
X0016021Y0216093D01*
X0015965Y0216235D01*
X0015912Y0216379D01*
X0015863Y0216525D01*
X0015818Y0216671D01*
X0015777Y0216819D01*
X0015740Y0216967D01*
X0015706Y0217117D01*
X0015676Y0217268D01*
X0015651Y0217419D01*
X0015629Y0217570D01*
X0015611Y0217723D01*
X0015597Y0217875D01*
X0015587Y0218028D01*
X0015581Y0218182D01*
X0015579Y0218335D01*
X0107231Y0184300D02*
X0107233Y0184460D01*
X0107239Y0184619D01*
X0107249Y0184778D01*
X0107263Y0184937D01*
X0107281Y0185096D01*
X0107302Y0185254D01*
X0107328Y0185411D01*
X0107358Y0185568D01*
X0107391Y0185724D01*
X0107429Y0185879D01*
X0107470Y0186033D01*
X0107515Y0186186D01*
X0107564Y0186338D01*
X0107617Y0186489D01*
X0107673Y0186638D01*
X0107734Y0186786D01*
X0107797Y0186932D01*
X0107865Y0187077D01*
X0107936Y0187220D01*
X0108010Y0187361D01*
X0108088Y0187500D01*
X0108170Y0187637D01*
X0108255Y0187772D01*
X0108343Y0187905D01*
X0108435Y0188036D01*
X0108529Y0188164D01*
X0108627Y0188290D01*
X0108728Y0188414D01*
X0108832Y0188535D01*
X0108939Y0188653D01*
X0109049Y0188769D01*
X0109162Y0188882D01*
X0109278Y0188992D01*
X0109396Y0189099D01*
X0109517Y0189203D01*
X0109641Y0189304D01*
X0109767Y0189402D01*
X0109895Y0189496D01*
X0110026Y0189588D01*
X0110159Y0189676D01*
X0110294Y0189761D01*
X0110431Y0189843D01*
X0110570Y0189921D01*
X0110711Y0189995D01*
X0110854Y0190066D01*
X0110999Y0190134D01*
X0111145Y0190197D01*
X0111293Y0190258D01*
X0111442Y0190314D01*
X0111593Y0190367D01*
X0111745Y0190416D01*
X0111898Y0190461D01*
X0112052Y0190502D01*
X0112207Y0190540D01*
X0112363Y0190573D01*
X0112520Y0190603D01*
X0112677Y0190629D01*
X0112835Y0190650D01*
X0112994Y0190668D01*
X0113153Y0190682D01*
X0113312Y0190692D01*
X0113471Y0190698D01*
X0113631Y0190700D01*
X0113791Y0190698D01*
X0113950Y0190692D01*
X0114109Y0190682D01*
X0114268Y0190668D01*
X0114427Y0190650D01*
X0114585Y0190629D01*
X0114742Y0190603D01*
X0114899Y0190573D01*
X0115055Y0190540D01*
X0115210Y0190502D01*
X0115364Y0190461D01*
X0115517Y0190416D01*
X0115669Y0190367D01*
X0115820Y0190314D01*
X0115969Y0190258D01*
X0116117Y0190197D01*
X0116263Y0190134D01*
X0116408Y0190066D01*
X0116551Y0189995D01*
X0116692Y0189921D01*
X0116831Y0189843D01*
X0116968Y0189761D01*
X0117103Y0189676D01*
X0117236Y0189588D01*
X0117367Y0189496D01*
X0117495Y0189402D01*
X0117621Y0189304D01*
X0117745Y0189203D01*
X0117866Y0189099D01*
X0117984Y0188992D01*
X0118100Y0188882D01*
X0118213Y0188769D01*
X0118323Y0188653D01*
X0118430Y0188535D01*
X0118534Y0188414D01*
X0118635Y0188290D01*
X0118733Y0188164D01*
X0118827Y0188036D01*
X0118919Y0187905D01*
X0119007Y0187772D01*
X0119092Y0187637D01*
X0119174Y0187500D01*
X0119252Y0187361D01*
X0119326Y0187220D01*
X0119397Y0187077D01*
X0119465Y0186932D01*
X0119528Y0186786D01*
X0119589Y0186638D01*
X0119645Y0186489D01*
X0119698Y0186338D01*
X0119747Y0186186D01*
X0119792Y0186033D01*
X0119833Y0185879D01*
X0119871Y0185724D01*
X0119904Y0185568D01*
X0119934Y0185411D01*
X0119960Y0185254D01*
X0119981Y0185096D01*
X0119999Y0184937D01*
X0120013Y0184778D01*
X0120023Y0184619D01*
X0120029Y0184460D01*
X0120031Y0184300D01*
X0120029Y0184140D01*
X0120023Y0183981D01*
X0120013Y0183822D01*
X0119999Y0183663D01*
X0119981Y0183504D01*
X0119960Y0183346D01*
X0119934Y0183189D01*
X0119904Y0183032D01*
X0119871Y0182876D01*
X0119833Y0182721D01*
X0119792Y0182567D01*
X0119747Y0182414D01*
X0119698Y0182262D01*
X0119645Y0182111D01*
X0119589Y0181962D01*
X0119528Y0181814D01*
X0119465Y0181668D01*
X0119397Y0181523D01*
X0119326Y0181380D01*
X0119252Y0181239D01*
X0119174Y0181100D01*
X0119092Y0180963D01*
X0119007Y0180828D01*
X0118919Y0180695D01*
X0118827Y0180564D01*
X0118733Y0180436D01*
X0118635Y0180310D01*
X0118534Y0180186D01*
X0118430Y0180065D01*
X0118323Y0179947D01*
X0118213Y0179831D01*
X0118100Y0179718D01*
X0117984Y0179608D01*
X0117866Y0179501D01*
X0117745Y0179397D01*
X0117621Y0179296D01*
X0117495Y0179198D01*
X0117367Y0179104D01*
X0117236Y0179012D01*
X0117103Y0178924D01*
X0116968Y0178839D01*
X0116831Y0178757D01*
X0116692Y0178679D01*
X0116551Y0178605D01*
X0116408Y0178534D01*
X0116263Y0178466D01*
X0116117Y0178403D01*
X0115969Y0178342D01*
X0115820Y0178286D01*
X0115669Y0178233D01*
X0115517Y0178184D01*
X0115364Y0178139D01*
X0115210Y0178098D01*
X0115055Y0178060D01*
X0114899Y0178027D01*
X0114742Y0177997D01*
X0114585Y0177971D01*
X0114427Y0177950D01*
X0114268Y0177932D01*
X0114109Y0177918D01*
X0113950Y0177908D01*
X0113791Y0177902D01*
X0113631Y0177900D01*
X0113471Y0177902D01*
X0113312Y0177908D01*
X0113153Y0177918D01*
X0112994Y0177932D01*
X0112835Y0177950D01*
X0112677Y0177971D01*
X0112520Y0177997D01*
X0112363Y0178027D01*
X0112207Y0178060D01*
X0112052Y0178098D01*
X0111898Y0178139D01*
X0111745Y0178184D01*
X0111593Y0178233D01*
X0111442Y0178286D01*
X0111293Y0178342D01*
X0111145Y0178403D01*
X0110999Y0178466D01*
X0110854Y0178534D01*
X0110711Y0178605D01*
X0110570Y0178679D01*
X0110431Y0178757D01*
X0110294Y0178839D01*
X0110159Y0178924D01*
X0110026Y0179012D01*
X0109895Y0179104D01*
X0109767Y0179198D01*
X0109641Y0179296D01*
X0109517Y0179397D01*
X0109396Y0179501D01*
X0109278Y0179608D01*
X0109162Y0179718D01*
X0109049Y0179831D01*
X0108939Y0179947D01*
X0108832Y0180065D01*
X0108728Y0180186D01*
X0108627Y0180310D01*
X0108529Y0180436D01*
X0108435Y0180564D01*
X0108343Y0180695D01*
X0108255Y0180828D01*
X0108170Y0180963D01*
X0108088Y0181100D01*
X0108010Y0181239D01*
X0107936Y0181380D01*
X0107865Y0181523D01*
X0107797Y0181668D01*
X0107734Y0181814D01*
X0107673Y0181962D01*
X0107617Y0182111D01*
X0107564Y0182262D01*
X0107515Y0182414D01*
X0107470Y0182567D01*
X0107429Y0182721D01*
X0107391Y0182876D01*
X0107358Y0183032D01*
X0107328Y0183189D01*
X0107302Y0183346D01*
X0107281Y0183504D01*
X0107263Y0183663D01*
X0107249Y0183822D01*
X0107239Y0183981D01*
X0107233Y0184140D01*
X0107231Y0184300D01*
X0173059Y0218335D02*
X0173061Y0218488D01*
X0173067Y0218642D01*
X0173077Y0218795D01*
X0173091Y0218947D01*
X0173109Y0219100D01*
X0173131Y0219251D01*
X0173156Y0219402D01*
X0173186Y0219553D01*
X0173220Y0219703D01*
X0173257Y0219851D01*
X0173298Y0219999D01*
X0173343Y0220145D01*
X0173392Y0220291D01*
X0173445Y0220435D01*
X0173501Y0220577D01*
X0173561Y0220718D01*
X0173625Y0220858D01*
X0173692Y0220996D01*
X0173763Y0221132D01*
X0173838Y0221266D01*
X0173915Y0221398D01*
X0173997Y0221528D01*
X0174081Y0221656D01*
X0174169Y0221782D01*
X0174260Y0221905D01*
X0174354Y0222026D01*
X0174452Y0222144D01*
X0174552Y0222260D01*
X0174656Y0222373D01*
X0174762Y0222484D01*
X0174871Y0222592D01*
X0174983Y0222697D01*
X0175097Y0222798D01*
X0175215Y0222897D01*
X0175334Y0222993D01*
X0175456Y0223086D01*
X0175581Y0223175D01*
X0175708Y0223262D01*
X0175837Y0223344D01*
X0175968Y0223424D01*
X0176101Y0223500D01*
X0176236Y0223573D01*
X0176373Y0223642D01*
X0176512Y0223707D01*
X0176652Y0223769D01*
X0176794Y0223827D01*
X0176937Y0223882D01*
X0177082Y0223933D01*
X0177228Y0223980D01*
X0177375Y0224023D01*
X0177523Y0224062D01*
X0177672Y0224098D01*
X0177822Y0224129D01*
X0177973Y0224157D01*
X0178124Y0224181D01*
X0178277Y0224201D01*
X0178429Y0224217D01*
X0178582Y0224229D01*
X0178735Y0224237D01*
X0178888Y0224241D01*
X0179042Y0224241D01*
X0179195Y0224237D01*
X0179348Y0224229D01*
X0179501Y0224217D01*
X0179653Y0224201D01*
X0179806Y0224181D01*
X0179957Y0224157D01*
X0180108Y0224129D01*
X0180258Y0224098D01*
X0180407Y0224062D01*
X0180555Y0224023D01*
X0180702Y0223980D01*
X0180848Y0223933D01*
X0180993Y0223882D01*
X0181136Y0223827D01*
X0181278Y0223769D01*
X0181418Y0223707D01*
X0181557Y0223642D01*
X0181694Y0223573D01*
X0181829Y0223500D01*
X0181962Y0223424D01*
X0182093Y0223344D01*
X0182222Y0223262D01*
X0182349Y0223175D01*
X0182474Y0223086D01*
X0182596Y0222993D01*
X0182715Y0222897D01*
X0182833Y0222798D01*
X0182947Y0222697D01*
X0183059Y0222592D01*
X0183168Y0222484D01*
X0183274Y0222373D01*
X0183378Y0222260D01*
X0183478Y0222144D01*
X0183576Y0222026D01*
X0183670Y0221905D01*
X0183761Y0221782D01*
X0183849Y0221656D01*
X0183933Y0221528D01*
X0184015Y0221398D01*
X0184092Y0221266D01*
X0184167Y0221132D01*
X0184238Y0220996D01*
X0184305Y0220858D01*
X0184369Y0220718D01*
X0184429Y0220577D01*
X0184485Y0220435D01*
X0184538Y0220291D01*
X0184587Y0220145D01*
X0184632Y0219999D01*
X0184673Y0219851D01*
X0184710Y0219703D01*
X0184744Y0219553D01*
X0184774Y0219402D01*
X0184799Y0219251D01*
X0184821Y0219100D01*
X0184839Y0218947D01*
X0184853Y0218795D01*
X0184863Y0218642D01*
X0184869Y0218488D01*
X0184871Y0218335D01*
X0184869Y0218182D01*
X0184863Y0218028D01*
X0184853Y0217875D01*
X0184839Y0217723D01*
X0184821Y0217570D01*
X0184799Y0217419D01*
X0184774Y0217268D01*
X0184744Y0217117D01*
X0184710Y0216967D01*
X0184673Y0216819D01*
X0184632Y0216671D01*
X0184587Y0216525D01*
X0184538Y0216379D01*
X0184485Y0216235D01*
X0184429Y0216093D01*
X0184369Y0215952D01*
X0184305Y0215812D01*
X0184238Y0215674D01*
X0184167Y0215538D01*
X0184092Y0215404D01*
X0184015Y0215272D01*
X0183933Y0215142D01*
X0183849Y0215014D01*
X0183761Y0214888D01*
X0183670Y0214765D01*
X0183576Y0214644D01*
X0183478Y0214526D01*
X0183378Y0214410D01*
X0183274Y0214297D01*
X0183168Y0214186D01*
X0183059Y0214078D01*
X0182947Y0213973D01*
X0182833Y0213872D01*
X0182715Y0213773D01*
X0182596Y0213677D01*
X0182474Y0213584D01*
X0182349Y0213495D01*
X0182222Y0213408D01*
X0182093Y0213326D01*
X0181962Y0213246D01*
X0181829Y0213170D01*
X0181694Y0213097D01*
X0181557Y0213028D01*
X0181418Y0212963D01*
X0181278Y0212901D01*
X0181136Y0212843D01*
X0180993Y0212788D01*
X0180848Y0212737D01*
X0180702Y0212690D01*
X0180555Y0212647D01*
X0180407Y0212608D01*
X0180258Y0212572D01*
X0180108Y0212541D01*
X0179957Y0212513D01*
X0179806Y0212489D01*
X0179653Y0212469D01*
X0179501Y0212453D01*
X0179348Y0212441D01*
X0179195Y0212433D01*
X0179042Y0212429D01*
X0178888Y0212429D01*
X0178735Y0212433D01*
X0178582Y0212441D01*
X0178429Y0212453D01*
X0178277Y0212469D01*
X0178124Y0212489D01*
X0177973Y0212513D01*
X0177822Y0212541D01*
X0177672Y0212572D01*
X0177523Y0212608D01*
X0177375Y0212647D01*
X0177228Y0212690D01*
X0177082Y0212737D01*
X0176937Y0212788D01*
X0176794Y0212843D01*
X0176652Y0212901D01*
X0176512Y0212963D01*
X0176373Y0213028D01*
X0176236Y0213097D01*
X0176101Y0213170D01*
X0175968Y0213246D01*
X0175837Y0213326D01*
X0175708Y0213408D01*
X0175581Y0213495D01*
X0175456Y0213584D01*
X0175334Y0213677D01*
X0175215Y0213773D01*
X0175097Y0213872D01*
X0174983Y0213973D01*
X0174871Y0214078D01*
X0174762Y0214186D01*
X0174656Y0214297D01*
X0174552Y0214410D01*
X0174452Y0214526D01*
X0174354Y0214644D01*
X0174260Y0214765D01*
X0174169Y0214888D01*
X0174081Y0215014D01*
X0173997Y0215142D01*
X0173915Y0215272D01*
X0173838Y0215404D01*
X0173763Y0215538D01*
X0173692Y0215674D01*
X0173625Y0215812D01*
X0173561Y0215952D01*
X0173501Y0216093D01*
X0173445Y0216235D01*
X0173392Y0216379D01*
X0173343Y0216525D01*
X0173298Y0216671D01*
X0173257Y0216819D01*
X0173220Y0216967D01*
X0173186Y0217117D01*
X0173156Y0217268D01*
X0173131Y0217419D01*
X0173109Y0217570D01*
X0173091Y0217723D01*
X0173077Y0217875D01*
X0173067Y0218028D01*
X0173061Y0218182D01*
X0173059Y0218335D01*
X0173059Y0021485D02*
X0173061Y0021638D01*
X0173067Y0021792D01*
X0173077Y0021945D01*
X0173091Y0022097D01*
X0173109Y0022250D01*
X0173131Y0022401D01*
X0173156Y0022552D01*
X0173186Y0022703D01*
X0173220Y0022853D01*
X0173257Y0023001D01*
X0173298Y0023149D01*
X0173343Y0023295D01*
X0173392Y0023441D01*
X0173445Y0023585D01*
X0173501Y0023727D01*
X0173561Y0023868D01*
X0173625Y0024008D01*
X0173692Y0024146D01*
X0173763Y0024282D01*
X0173838Y0024416D01*
X0173915Y0024548D01*
X0173997Y0024678D01*
X0174081Y0024806D01*
X0174169Y0024932D01*
X0174260Y0025055D01*
X0174354Y0025176D01*
X0174452Y0025294D01*
X0174552Y0025410D01*
X0174656Y0025523D01*
X0174762Y0025634D01*
X0174871Y0025742D01*
X0174983Y0025847D01*
X0175097Y0025948D01*
X0175215Y0026047D01*
X0175334Y0026143D01*
X0175456Y0026236D01*
X0175581Y0026325D01*
X0175708Y0026412D01*
X0175837Y0026494D01*
X0175968Y0026574D01*
X0176101Y0026650D01*
X0176236Y0026723D01*
X0176373Y0026792D01*
X0176512Y0026857D01*
X0176652Y0026919D01*
X0176794Y0026977D01*
X0176937Y0027032D01*
X0177082Y0027083D01*
X0177228Y0027130D01*
X0177375Y0027173D01*
X0177523Y0027212D01*
X0177672Y0027248D01*
X0177822Y0027279D01*
X0177973Y0027307D01*
X0178124Y0027331D01*
X0178277Y0027351D01*
X0178429Y0027367D01*
X0178582Y0027379D01*
X0178735Y0027387D01*
X0178888Y0027391D01*
X0179042Y0027391D01*
X0179195Y0027387D01*
X0179348Y0027379D01*
X0179501Y0027367D01*
X0179653Y0027351D01*
X0179806Y0027331D01*
X0179957Y0027307D01*
X0180108Y0027279D01*
X0180258Y0027248D01*
X0180407Y0027212D01*
X0180555Y0027173D01*
X0180702Y0027130D01*
X0180848Y0027083D01*
X0180993Y0027032D01*
X0181136Y0026977D01*
X0181278Y0026919D01*
X0181418Y0026857D01*
X0181557Y0026792D01*
X0181694Y0026723D01*
X0181829Y0026650D01*
X0181962Y0026574D01*
X0182093Y0026494D01*
X0182222Y0026412D01*
X0182349Y0026325D01*
X0182474Y0026236D01*
X0182596Y0026143D01*
X0182715Y0026047D01*
X0182833Y0025948D01*
X0182947Y0025847D01*
X0183059Y0025742D01*
X0183168Y0025634D01*
X0183274Y0025523D01*
X0183378Y0025410D01*
X0183478Y0025294D01*
X0183576Y0025176D01*
X0183670Y0025055D01*
X0183761Y0024932D01*
X0183849Y0024806D01*
X0183933Y0024678D01*
X0184015Y0024548D01*
X0184092Y0024416D01*
X0184167Y0024282D01*
X0184238Y0024146D01*
X0184305Y0024008D01*
X0184369Y0023868D01*
X0184429Y0023727D01*
X0184485Y0023585D01*
X0184538Y0023441D01*
X0184587Y0023295D01*
X0184632Y0023149D01*
X0184673Y0023001D01*
X0184710Y0022853D01*
X0184744Y0022703D01*
X0184774Y0022552D01*
X0184799Y0022401D01*
X0184821Y0022250D01*
X0184839Y0022097D01*
X0184853Y0021945D01*
X0184863Y0021792D01*
X0184869Y0021638D01*
X0184871Y0021485D01*
X0184869Y0021332D01*
X0184863Y0021178D01*
X0184853Y0021025D01*
X0184839Y0020873D01*
X0184821Y0020720D01*
X0184799Y0020569D01*
X0184774Y0020418D01*
X0184744Y0020267D01*
X0184710Y0020117D01*
X0184673Y0019969D01*
X0184632Y0019821D01*
X0184587Y0019675D01*
X0184538Y0019529D01*
X0184485Y0019385D01*
X0184429Y0019243D01*
X0184369Y0019102D01*
X0184305Y0018962D01*
X0184238Y0018824D01*
X0184167Y0018688D01*
X0184092Y0018554D01*
X0184015Y0018422D01*
X0183933Y0018292D01*
X0183849Y0018164D01*
X0183761Y0018038D01*
X0183670Y0017915D01*
X0183576Y0017794D01*
X0183478Y0017676D01*
X0183378Y0017560D01*
X0183274Y0017447D01*
X0183168Y0017336D01*
X0183059Y0017228D01*
X0182947Y0017123D01*
X0182833Y0017022D01*
X0182715Y0016923D01*
X0182596Y0016827D01*
X0182474Y0016734D01*
X0182349Y0016645D01*
X0182222Y0016558D01*
X0182093Y0016476D01*
X0181962Y0016396D01*
X0181829Y0016320D01*
X0181694Y0016247D01*
X0181557Y0016178D01*
X0181418Y0016113D01*
X0181278Y0016051D01*
X0181136Y0015993D01*
X0180993Y0015938D01*
X0180848Y0015887D01*
X0180702Y0015840D01*
X0180555Y0015797D01*
X0180407Y0015758D01*
X0180258Y0015722D01*
X0180108Y0015691D01*
X0179957Y0015663D01*
X0179806Y0015639D01*
X0179653Y0015619D01*
X0179501Y0015603D01*
X0179348Y0015591D01*
X0179195Y0015583D01*
X0179042Y0015579D01*
X0178888Y0015579D01*
X0178735Y0015583D01*
X0178582Y0015591D01*
X0178429Y0015603D01*
X0178277Y0015619D01*
X0178124Y0015639D01*
X0177973Y0015663D01*
X0177822Y0015691D01*
X0177672Y0015722D01*
X0177523Y0015758D01*
X0177375Y0015797D01*
X0177228Y0015840D01*
X0177082Y0015887D01*
X0176937Y0015938D01*
X0176794Y0015993D01*
X0176652Y0016051D01*
X0176512Y0016113D01*
X0176373Y0016178D01*
X0176236Y0016247D01*
X0176101Y0016320D01*
X0175968Y0016396D01*
X0175837Y0016476D01*
X0175708Y0016558D01*
X0175581Y0016645D01*
X0175456Y0016734D01*
X0175334Y0016827D01*
X0175215Y0016923D01*
X0175097Y0017022D01*
X0174983Y0017123D01*
X0174871Y0017228D01*
X0174762Y0017336D01*
X0174656Y0017447D01*
X0174552Y0017560D01*
X0174452Y0017676D01*
X0174354Y0017794D01*
X0174260Y0017915D01*
X0174169Y0018038D01*
X0174081Y0018164D01*
X0173997Y0018292D01*
X0173915Y0018422D01*
X0173838Y0018554D01*
X0173763Y0018688D01*
X0173692Y0018824D01*
X0173625Y0018962D01*
X0173561Y0019102D01*
X0173501Y0019243D01*
X0173445Y0019385D01*
X0173392Y0019529D01*
X0173343Y0019675D01*
X0173298Y0019821D01*
X0173257Y0019969D01*
X0173220Y0020117D01*
X0173186Y0020267D01*
X0173156Y0020418D01*
X0173131Y0020569D01*
X0173109Y0020720D01*
X0173091Y0020873D01*
X0173077Y0021025D01*
X0173067Y0021178D01*
X0173061Y0021332D01*
X0173059Y0021485D01*
D11*
X0172666Y0021485D02*
X0172668Y0021643D01*
X0172674Y0021801D01*
X0172684Y0021959D01*
X0172698Y0022117D01*
X0172716Y0022274D01*
X0172737Y0022431D01*
X0172763Y0022587D01*
X0172793Y0022743D01*
X0172826Y0022898D01*
X0172864Y0023051D01*
X0172905Y0023204D01*
X0172950Y0023356D01*
X0172999Y0023507D01*
X0173052Y0023656D01*
X0173108Y0023804D01*
X0173168Y0023950D01*
X0173232Y0024095D01*
X0173300Y0024238D01*
X0173371Y0024380D01*
X0173445Y0024520D01*
X0173523Y0024657D01*
X0173605Y0024793D01*
X0173689Y0024927D01*
X0173778Y0025058D01*
X0173869Y0025187D01*
X0173964Y0025314D01*
X0174061Y0025439D01*
X0174162Y0025561D01*
X0174266Y0025680D01*
X0174373Y0025797D01*
X0174483Y0025911D01*
X0174596Y0026022D01*
X0174711Y0026131D01*
X0174829Y0026236D01*
X0174950Y0026338D01*
X0175073Y0026438D01*
X0175199Y0026534D01*
X0175327Y0026627D01*
X0175457Y0026717D01*
X0175590Y0026803D01*
X0175725Y0026887D01*
X0175861Y0026966D01*
X0176000Y0027043D01*
X0176141Y0027115D01*
X0176283Y0027185D01*
X0176427Y0027250D01*
X0176573Y0027312D01*
X0176720Y0027370D01*
X0176869Y0027425D01*
X0177019Y0027476D01*
X0177170Y0027523D01*
X0177322Y0027566D01*
X0177475Y0027605D01*
X0177630Y0027641D01*
X0177785Y0027672D01*
X0177941Y0027700D01*
X0178097Y0027724D01*
X0178254Y0027744D01*
X0178412Y0027760D01*
X0178569Y0027772D01*
X0178728Y0027780D01*
X0178886Y0027784D01*
X0179044Y0027784D01*
X0179202Y0027780D01*
X0179361Y0027772D01*
X0179518Y0027760D01*
X0179676Y0027744D01*
X0179833Y0027724D01*
X0179989Y0027700D01*
X0180145Y0027672D01*
X0180300Y0027641D01*
X0180455Y0027605D01*
X0180608Y0027566D01*
X0180760Y0027523D01*
X0180911Y0027476D01*
X0181061Y0027425D01*
X0181210Y0027370D01*
X0181357Y0027312D01*
X0181503Y0027250D01*
X0181647Y0027185D01*
X0181789Y0027115D01*
X0181930Y0027043D01*
X0182069Y0026966D01*
X0182205Y0026887D01*
X0182340Y0026803D01*
X0182473Y0026717D01*
X0182603Y0026627D01*
X0182731Y0026534D01*
X0182857Y0026438D01*
X0182980Y0026338D01*
X0183101Y0026236D01*
X0183219Y0026131D01*
X0183334Y0026022D01*
X0183447Y0025911D01*
X0183557Y0025797D01*
X0183664Y0025680D01*
X0183768Y0025561D01*
X0183869Y0025439D01*
X0183966Y0025314D01*
X0184061Y0025187D01*
X0184152Y0025058D01*
X0184241Y0024927D01*
X0184325Y0024793D01*
X0184407Y0024657D01*
X0184485Y0024520D01*
X0184559Y0024380D01*
X0184630Y0024238D01*
X0184698Y0024095D01*
X0184762Y0023950D01*
X0184822Y0023804D01*
X0184878Y0023656D01*
X0184931Y0023507D01*
X0184980Y0023356D01*
X0185025Y0023204D01*
X0185066Y0023051D01*
X0185104Y0022898D01*
X0185137Y0022743D01*
X0185167Y0022587D01*
X0185193Y0022431D01*
X0185214Y0022274D01*
X0185232Y0022117D01*
X0185246Y0021959D01*
X0185256Y0021801D01*
X0185262Y0021643D01*
X0185264Y0021485D01*
X0185262Y0021327D01*
X0185256Y0021169D01*
X0185246Y0021011D01*
X0185232Y0020853D01*
X0185214Y0020696D01*
X0185193Y0020539D01*
X0185167Y0020383D01*
X0185137Y0020227D01*
X0185104Y0020072D01*
X0185066Y0019919D01*
X0185025Y0019766D01*
X0184980Y0019614D01*
X0184931Y0019463D01*
X0184878Y0019314D01*
X0184822Y0019166D01*
X0184762Y0019020D01*
X0184698Y0018875D01*
X0184630Y0018732D01*
X0184559Y0018590D01*
X0184485Y0018450D01*
X0184407Y0018313D01*
X0184325Y0018177D01*
X0184241Y0018043D01*
X0184152Y0017912D01*
X0184061Y0017783D01*
X0183966Y0017656D01*
X0183869Y0017531D01*
X0183768Y0017409D01*
X0183664Y0017290D01*
X0183557Y0017173D01*
X0183447Y0017059D01*
X0183334Y0016948D01*
X0183219Y0016839D01*
X0183101Y0016734D01*
X0182980Y0016632D01*
X0182857Y0016532D01*
X0182731Y0016436D01*
X0182603Y0016343D01*
X0182473Y0016253D01*
X0182340Y0016167D01*
X0182205Y0016083D01*
X0182069Y0016004D01*
X0181930Y0015927D01*
X0181789Y0015855D01*
X0181647Y0015785D01*
X0181503Y0015720D01*
X0181357Y0015658D01*
X0181210Y0015600D01*
X0181061Y0015545D01*
X0180911Y0015494D01*
X0180760Y0015447D01*
X0180608Y0015404D01*
X0180455Y0015365D01*
X0180300Y0015329D01*
X0180145Y0015298D01*
X0179989Y0015270D01*
X0179833Y0015246D01*
X0179676Y0015226D01*
X0179518Y0015210D01*
X0179361Y0015198D01*
X0179202Y0015190D01*
X0179044Y0015186D01*
X0178886Y0015186D01*
X0178728Y0015190D01*
X0178569Y0015198D01*
X0178412Y0015210D01*
X0178254Y0015226D01*
X0178097Y0015246D01*
X0177941Y0015270D01*
X0177785Y0015298D01*
X0177630Y0015329D01*
X0177475Y0015365D01*
X0177322Y0015404D01*
X0177170Y0015447D01*
X0177019Y0015494D01*
X0176869Y0015545D01*
X0176720Y0015600D01*
X0176573Y0015658D01*
X0176427Y0015720D01*
X0176283Y0015785D01*
X0176141Y0015855D01*
X0176000Y0015927D01*
X0175861Y0016004D01*
X0175725Y0016083D01*
X0175590Y0016167D01*
X0175457Y0016253D01*
X0175327Y0016343D01*
X0175199Y0016436D01*
X0175073Y0016532D01*
X0174950Y0016632D01*
X0174829Y0016734D01*
X0174711Y0016839D01*
X0174596Y0016948D01*
X0174483Y0017059D01*
X0174373Y0017173D01*
X0174266Y0017290D01*
X0174162Y0017409D01*
X0174061Y0017531D01*
X0173964Y0017656D01*
X0173869Y0017783D01*
X0173778Y0017912D01*
X0173689Y0018043D01*
X0173605Y0018177D01*
X0173523Y0018313D01*
X0173445Y0018450D01*
X0173371Y0018590D01*
X0173300Y0018732D01*
X0173232Y0018875D01*
X0173168Y0019020D01*
X0173108Y0019166D01*
X0173052Y0019314D01*
X0172999Y0019463D01*
X0172950Y0019614D01*
X0172905Y0019766D01*
X0172864Y0019919D01*
X0172826Y0020072D01*
X0172793Y0020227D01*
X0172763Y0020383D01*
X0172737Y0020539D01*
X0172716Y0020696D01*
X0172698Y0020853D01*
X0172684Y0021011D01*
X0172674Y0021169D01*
X0172668Y0021327D01*
X0172666Y0021485D01*
X0116800Y0024300D02*
X0116800Y0004300D01*
X0086800Y0004300D01*
X0086800Y0024300D01*
X0116800Y0024300D01*
X0071800Y0029300D02*
X0071800Y0009300D01*
X0056800Y0009300D01*
X0056800Y0029300D01*
X0071800Y0029300D01*
X0015186Y0021485D02*
X0015188Y0021643D01*
X0015194Y0021801D01*
X0015204Y0021959D01*
X0015218Y0022117D01*
X0015236Y0022274D01*
X0015257Y0022431D01*
X0015283Y0022587D01*
X0015313Y0022743D01*
X0015346Y0022898D01*
X0015384Y0023051D01*
X0015425Y0023204D01*
X0015470Y0023356D01*
X0015519Y0023507D01*
X0015572Y0023656D01*
X0015628Y0023804D01*
X0015688Y0023950D01*
X0015752Y0024095D01*
X0015820Y0024238D01*
X0015891Y0024380D01*
X0015965Y0024520D01*
X0016043Y0024657D01*
X0016125Y0024793D01*
X0016209Y0024927D01*
X0016298Y0025058D01*
X0016389Y0025187D01*
X0016484Y0025314D01*
X0016581Y0025439D01*
X0016682Y0025561D01*
X0016786Y0025680D01*
X0016893Y0025797D01*
X0017003Y0025911D01*
X0017116Y0026022D01*
X0017231Y0026131D01*
X0017349Y0026236D01*
X0017470Y0026338D01*
X0017593Y0026438D01*
X0017719Y0026534D01*
X0017847Y0026627D01*
X0017977Y0026717D01*
X0018110Y0026803D01*
X0018245Y0026887D01*
X0018381Y0026966D01*
X0018520Y0027043D01*
X0018661Y0027115D01*
X0018803Y0027185D01*
X0018947Y0027250D01*
X0019093Y0027312D01*
X0019240Y0027370D01*
X0019389Y0027425D01*
X0019539Y0027476D01*
X0019690Y0027523D01*
X0019842Y0027566D01*
X0019995Y0027605D01*
X0020150Y0027641D01*
X0020305Y0027672D01*
X0020461Y0027700D01*
X0020617Y0027724D01*
X0020774Y0027744D01*
X0020932Y0027760D01*
X0021089Y0027772D01*
X0021248Y0027780D01*
X0021406Y0027784D01*
X0021564Y0027784D01*
X0021722Y0027780D01*
X0021881Y0027772D01*
X0022038Y0027760D01*
X0022196Y0027744D01*
X0022353Y0027724D01*
X0022509Y0027700D01*
X0022665Y0027672D01*
X0022820Y0027641D01*
X0022975Y0027605D01*
X0023128Y0027566D01*
X0023280Y0027523D01*
X0023431Y0027476D01*
X0023581Y0027425D01*
X0023730Y0027370D01*
X0023877Y0027312D01*
X0024023Y0027250D01*
X0024167Y0027185D01*
X0024309Y0027115D01*
X0024450Y0027043D01*
X0024589Y0026966D01*
X0024725Y0026887D01*
X0024860Y0026803D01*
X0024993Y0026717D01*
X0025123Y0026627D01*
X0025251Y0026534D01*
X0025377Y0026438D01*
X0025500Y0026338D01*
X0025621Y0026236D01*
X0025739Y0026131D01*
X0025854Y0026022D01*
X0025967Y0025911D01*
X0026077Y0025797D01*
X0026184Y0025680D01*
X0026288Y0025561D01*
X0026389Y0025439D01*
X0026486Y0025314D01*
X0026581Y0025187D01*
X0026672Y0025058D01*
X0026761Y0024927D01*
X0026845Y0024793D01*
X0026927Y0024657D01*
X0027005Y0024520D01*
X0027079Y0024380D01*
X0027150Y0024238D01*
X0027218Y0024095D01*
X0027282Y0023950D01*
X0027342Y0023804D01*
X0027398Y0023656D01*
X0027451Y0023507D01*
X0027500Y0023356D01*
X0027545Y0023204D01*
X0027586Y0023051D01*
X0027624Y0022898D01*
X0027657Y0022743D01*
X0027687Y0022587D01*
X0027713Y0022431D01*
X0027734Y0022274D01*
X0027752Y0022117D01*
X0027766Y0021959D01*
X0027776Y0021801D01*
X0027782Y0021643D01*
X0027784Y0021485D01*
X0027782Y0021327D01*
X0027776Y0021169D01*
X0027766Y0021011D01*
X0027752Y0020853D01*
X0027734Y0020696D01*
X0027713Y0020539D01*
X0027687Y0020383D01*
X0027657Y0020227D01*
X0027624Y0020072D01*
X0027586Y0019919D01*
X0027545Y0019766D01*
X0027500Y0019614D01*
X0027451Y0019463D01*
X0027398Y0019314D01*
X0027342Y0019166D01*
X0027282Y0019020D01*
X0027218Y0018875D01*
X0027150Y0018732D01*
X0027079Y0018590D01*
X0027005Y0018450D01*
X0026927Y0018313D01*
X0026845Y0018177D01*
X0026761Y0018043D01*
X0026672Y0017912D01*
X0026581Y0017783D01*
X0026486Y0017656D01*
X0026389Y0017531D01*
X0026288Y0017409D01*
X0026184Y0017290D01*
X0026077Y0017173D01*
X0025967Y0017059D01*
X0025854Y0016948D01*
X0025739Y0016839D01*
X0025621Y0016734D01*
X0025500Y0016632D01*
X0025377Y0016532D01*
X0025251Y0016436D01*
X0025123Y0016343D01*
X0024993Y0016253D01*
X0024860Y0016167D01*
X0024725Y0016083D01*
X0024589Y0016004D01*
X0024450Y0015927D01*
X0024309Y0015855D01*
X0024167Y0015785D01*
X0024023Y0015720D01*
X0023877Y0015658D01*
X0023730Y0015600D01*
X0023581Y0015545D01*
X0023431Y0015494D01*
X0023280Y0015447D01*
X0023128Y0015404D01*
X0022975Y0015365D01*
X0022820Y0015329D01*
X0022665Y0015298D01*
X0022509Y0015270D01*
X0022353Y0015246D01*
X0022196Y0015226D01*
X0022038Y0015210D01*
X0021881Y0015198D01*
X0021722Y0015190D01*
X0021564Y0015186D01*
X0021406Y0015186D01*
X0021248Y0015190D01*
X0021089Y0015198D01*
X0020932Y0015210D01*
X0020774Y0015226D01*
X0020617Y0015246D01*
X0020461Y0015270D01*
X0020305Y0015298D01*
X0020150Y0015329D01*
X0019995Y0015365D01*
X0019842Y0015404D01*
X0019690Y0015447D01*
X0019539Y0015494D01*
X0019389Y0015545D01*
X0019240Y0015600D01*
X0019093Y0015658D01*
X0018947Y0015720D01*
X0018803Y0015785D01*
X0018661Y0015855D01*
X0018520Y0015927D01*
X0018381Y0016004D01*
X0018245Y0016083D01*
X0018110Y0016167D01*
X0017977Y0016253D01*
X0017847Y0016343D01*
X0017719Y0016436D01*
X0017593Y0016532D01*
X0017470Y0016632D01*
X0017349Y0016734D01*
X0017231Y0016839D01*
X0017116Y0016948D01*
X0017003Y0017059D01*
X0016893Y0017173D01*
X0016786Y0017290D01*
X0016682Y0017409D01*
X0016581Y0017531D01*
X0016484Y0017656D01*
X0016389Y0017783D01*
X0016298Y0017912D01*
X0016209Y0018043D01*
X0016125Y0018177D01*
X0016043Y0018313D01*
X0015965Y0018450D01*
X0015891Y0018590D01*
X0015820Y0018732D01*
X0015752Y0018875D01*
X0015688Y0019020D01*
X0015628Y0019166D01*
X0015572Y0019314D01*
X0015519Y0019463D01*
X0015470Y0019614D01*
X0015425Y0019766D01*
X0015384Y0019919D01*
X0015346Y0020072D01*
X0015313Y0020227D01*
X0015283Y0020383D01*
X0015257Y0020539D01*
X0015236Y0020696D01*
X0015218Y0020853D01*
X0015204Y0021011D01*
X0015194Y0021169D01*
X0015188Y0021327D01*
X0015186Y0021485D01*
X0066556Y0141706D02*
X0120706Y0141706D01*
X0120706Y0156706D02*
X0120706Y0197438D01*
X0122410Y0185776D02*
X0163749Y0185776D01*
X0163749Y0182627D01*
X0122410Y0182627D01*
X0122410Y0185776D01*
X0122410Y0210186D01*
X0163749Y0210186D01*
X0163749Y0185776D01*
X0172666Y0218335D02*
X0172668Y0218493D01*
X0172674Y0218651D01*
X0172684Y0218809D01*
X0172698Y0218967D01*
X0172716Y0219124D01*
X0172737Y0219281D01*
X0172763Y0219437D01*
X0172793Y0219593D01*
X0172826Y0219748D01*
X0172864Y0219901D01*
X0172905Y0220054D01*
X0172950Y0220206D01*
X0172999Y0220357D01*
X0173052Y0220506D01*
X0173108Y0220654D01*
X0173168Y0220800D01*
X0173232Y0220945D01*
X0173300Y0221088D01*
X0173371Y0221230D01*
X0173445Y0221370D01*
X0173523Y0221507D01*
X0173605Y0221643D01*
X0173689Y0221777D01*
X0173778Y0221908D01*
X0173869Y0222037D01*
X0173964Y0222164D01*
X0174061Y0222289D01*
X0174162Y0222411D01*
X0174266Y0222530D01*
X0174373Y0222647D01*
X0174483Y0222761D01*
X0174596Y0222872D01*
X0174711Y0222981D01*
X0174829Y0223086D01*
X0174950Y0223188D01*
X0175073Y0223288D01*
X0175199Y0223384D01*
X0175327Y0223477D01*
X0175457Y0223567D01*
X0175590Y0223653D01*
X0175725Y0223737D01*
X0175861Y0223816D01*
X0176000Y0223893D01*
X0176141Y0223965D01*
X0176283Y0224035D01*
X0176427Y0224100D01*
X0176573Y0224162D01*
X0176720Y0224220D01*
X0176869Y0224275D01*
X0177019Y0224326D01*
X0177170Y0224373D01*
X0177322Y0224416D01*
X0177475Y0224455D01*
X0177630Y0224491D01*
X0177785Y0224522D01*
X0177941Y0224550D01*
X0178097Y0224574D01*
X0178254Y0224594D01*
X0178412Y0224610D01*
X0178569Y0224622D01*
X0178728Y0224630D01*
X0178886Y0224634D01*
X0179044Y0224634D01*
X0179202Y0224630D01*
X0179361Y0224622D01*
X0179518Y0224610D01*
X0179676Y0224594D01*
X0179833Y0224574D01*
X0179989Y0224550D01*
X0180145Y0224522D01*
X0180300Y0224491D01*
X0180455Y0224455D01*
X0180608Y0224416D01*
X0180760Y0224373D01*
X0180911Y0224326D01*
X0181061Y0224275D01*
X0181210Y0224220D01*
X0181357Y0224162D01*
X0181503Y0224100D01*
X0181647Y0224035D01*
X0181789Y0223965D01*
X0181930Y0223893D01*
X0182069Y0223816D01*
X0182205Y0223737D01*
X0182340Y0223653D01*
X0182473Y0223567D01*
X0182603Y0223477D01*
X0182731Y0223384D01*
X0182857Y0223288D01*
X0182980Y0223188D01*
X0183101Y0223086D01*
X0183219Y0222981D01*
X0183334Y0222872D01*
X0183447Y0222761D01*
X0183557Y0222647D01*
X0183664Y0222530D01*
X0183768Y0222411D01*
X0183869Y0222289D01*
X0183966Y0222164D01*
X0184061Y0222037D01*
X0184152Y0221908D01*
X0184241Y0221777D01*
X0184325Y0221643D01*
X0184407Y0221507D01*
X0184485Y0221370D01*
X0184559Y0221230D01*
X0184630Y0221088D01*
X0184698Y0220945D01*
X0184762Y0220800D01*
X0184822Y0220654D01*
X0184878Y0220506D01*
X0184931Y0220357D01*
X0184980Y0220206D01*
X0185025Y0220054D01*
X0185066Y0219901D01*
X0185104Y0219748D01*
X0185137Y0219593D01*
X0185167Y0219437D01*
X0185193Y0219281D01*
X0185214Y0219124D01*
X0185232Y0218967D01*
X0185246Y0218809D01*
X0185256Y0218651D01*
X0185262Y0218493D01*
X0185264Y0218335D01*
X0185262Y0218177D01*
X0185256Y0218019D01*
X0185246Y0217861D01*
X0185232Y0217703D01*
X0185214Y0217546D01*
X0185193Y0217389D01*
X0185167Y0217233D01*
X0185137Y0217077D01*
X0185104Y0216922D01*
X0185066Y0216769D01*
X0185025Y0216616D01*
X0184980Y0216464D01*
X0184931Y0216313D01*
X0184878Y0216164D01*
X0184822Y0216016D01*
X0184762Y0215870D01*
X0184698Y0215725D01*
X0184630Y0215582D01*
X0184559Y0215440D01*
X0184485Y0215300D01*
X0184407Y0215163D01*
X0184325Y0215027D01*
X0184241Y0214893D01*
X0184152Y0214762D01*
X0184061Y0214633D01*
X0183966Y0214506D01*
X0183869Y0214381D01*
X0183768Y0214259D01*
X0183664Y0214140D01*
X0183557Y0214023D01*
X0183447Y0213909D01*
X0183334Y0213798D01*
X0183219Y0213689D01*
X0183101Y0213584D01*
X0182980Y0213482D01*
X0182857Y0213382D01*
X0182731Y0213286D01*
X0182603Y0213193D01*
X0182473Y0213103D01*
X0182340Y0213017D01*
X0182205Y0212933D01*
X0182069Y0212854D01*
X0181930Y0212777D01*
X0181789Y0212705D01*
X0181647Y0212635D01*
X0181503Y0212570D01*
X0181357Y0212508D01*
X0181210Y0212450D01*
X0181061Y0212395D01*
X0180911Y0212344D01*
X0180760Y0212297D01*
X0180608Y0212254D01*
X0180455Y0212215D01*
X0180300Y0212179D01*
X0180145Y0212148D01*
X0179989Y0212120D01*
X0179833Y0212096D01*
X0179676Y0212076D01*
X0179518Y0212060D01*
X0179361Y0212048D01*
X0179202Y0212040D01*
X0179044Y0212036D01*
X0178886Y0212036D01*
X0178728Y0212040D01*
X0178569Y0212048D01*
X0178412Y0212060D01*
X0178254Y0212076D01*
X0178097Y0212096D01*
X0177941Y0212120D01*
X0177785Y0212148D01*
X0177630Y0212179D01*
X0177475Y0212215D01*
X0177322Y0212254D01*
X0177170Y0212297D01*
X0177019Y0212344D01*
X0176869Y0212395D01*
X0176720Y0212450D01*
X0176573Y0212508D01*
X0176427Y0212570D01*
X0176283Y0212635D01*
X0176141Y0212705D01*
X0176000Y0212777D01*
X0175861Y0212854D01*
X0175725Y0212933D01*
X0175590Y0213017D01*
X0175457Y0213103D01*
X0175327Y0213193D01*
X0175199Y0213286D01*
X0175073Y0213382D01*
X0174950Y0213482D01*
X0174829Y0213584D01*
X0174711Y0213689D01*
X0174596Y0213798D01*
X0174483Y0213909D01*
X0174373Y0214023D01*
X0174266Y0214140D01*
X0174162Y0214259D01*
X0174061Y0214381D01*
X0173964Y0214506D01*
X0173869Y0214633D01*
X0173778Y0214762D01*
X0173689Y0214893D01*
X0173605Y0215027D01*
X0173523Y0215163D01*
X0173445Y0215300D01*
X0173371Y0215440D01*
X0173300Y0215582D01*
X0173232Y0215725D01*
X0173168Y0215870D01*
X0173108Y0216016D01*
X0173052Y0216164D01*
X0172999Y0216313D01*
X0172950Y0216464D01*
X0172905Y0216616D01*
X0172864Y0216769D01*
X0172826Y0216922D01*
X0172793Y0217077D01*
X0172763Y0217233D01*
X0172737Y0217389D01*
X0172716Y0217546D01*
X0172698Y0217703D01*
X0172684Y0217861D01*
X0172674Y0218019D01*
X0172668Y0218177D01*
X0172666Y0218335D01*
X0120706Y0224938D02*
X0120706Y0211706D01*
X0120706Y0224938D02*
X0066556Y0224938D01*
X0066556Y0211706D01*
X0064969Y0210186D02*
X0064969Y0185776D01*
X0037410Y0185776D01*
X0037410Y0210186D01*
X0064969Y0210186D01*
X0066556Y0197438D02*
X0066556Y0156706D01*
X0064969Y0182627D02*
X0037410Y0182627D01*
X0037410Y0185776D01*
X0064969Y0185776D02*
X0064969Y0182627D01*
X0015186Y0218335D02*
X0015188Y0218493D01*
X0015194Y0218651D01*
X0015204Y0218809D01*
X0015218Y0218967D01*
X0015236Y0219124D01*
X0015257Y0219281D01*
X0015283Y0219437D01*
X0015313Y0219593D01*
X0015346Y0219748D01*
X0015384Y0219901D01*
X0015425Y0220054D01*
X0015470Y0220206D01*
X0015519Y0220357D01*
X0015572Y0220506D01*
X0015628Y0220654D01*
X0015688Y0220800D01*
X0015752Y0220945D01*
X0015820Y0221088D01*
X0015891Y0221230D01*
X0015965Y0221370D01*
X0016043Y0221507D01*
X0016125Y0221643D01*
X0016209Y0221777D01*
X0016298Y0221908D01*
X0016389Y0222037D01*
X0016484Y0222164D01*
X0016581Y0222289D01*
X0016682Y0222411D01*
X0016786Y0222530D01*
X0016893Y0222647D01*
X0017003Y0222761D01*
X0017116Y0222872D01*
X0017231Y0222981D01*
X0017349Y0223086D01*
X0017470Y0223188D01*
X0017593Y0223288D01*
X0017719Y0223384D01*
X0017847Y0223477D01*
X0017977Y0223567D01*
X0018110Y0223653D01*
X0018245Y0223737D01*
X0018381Y0223816D01*
X0018520Y0223893D01*
X0018661Y0223965D01*
X0018803Y0224035D01*
X0018947Y0224100D01*
X0019093Y0224162D01*
X0019240Y0224220D01*
X0019389Y0224275D01*
X0019539Y0224326D01*
X0019690Y0224373D01*
X0019842Y0224416D01*
X0019995Y0224455D01*
X0020150Y0224491D01*
X0020305Y0224522D01*
X0020461Y0224550D01*
X0020617Y0224574D01*
X0020774Y0224594D01*
X0020932Y0224610D01*
X0021089Y0224622D01*
X0021248Y0224630D01*
X0021406Y0224634D01*
X0021564Y0224634D01*
X0021722Y0224630D01*
X0021881Y0224622D01*
X0022038Y0224610D01*
X0022196Y0224594D01*
X0022353Y0224574D01*
X0022509Y0224550D01*
X0022665Y0224522D01*
X0022820Y0224491D01*
X0022975Y0224455D01*
X0023128Y0224416D01*
X0023280Y0224373D01*
X0023431Y0224326D01*
X0023581Y0224275D01*
X0023730Y0224220D01*
X0023877Y0224162D01*
X0024023Y0224100D01*
X0024167Y0224035D01*
X0024309Y0223965D01*
X0024450Y0223893D01*
X0024589Y0223816D01*
X0024725Y0223737D01*
X0024860Y0223653D01*
X0024993Y0223567D01*
X0025123Y0223477D01*
X0025251Y0223384D01*
X0025377Y0223288D01*
X0025500Y0223188D01*
X0025621Y0223086D01*
X0025739Y0222981D01*
X0025854Y0222872D01*
X0025967Y0222761D01*
X0026077Y0222647D01*
X0026184Y0222530D01*
X0026288Y0222411D01*
X0026389Y0222289D01*
X0026486Y0222164D01*
X0026581Y0222037D01*
X0026672Y0221908D01*
X0026761Y0221777D01*
X0026845Y0221643D01*
X0026927Y0221507D01*
X0027005Y0221370D01*
X0027079Y0221230D01*
X0027150Y0221088D01*
X0027218Y0220945D01*
X0027282Y0220800D01*
X0027342Y0220654D01*
X0027398Y0220506D01*
X0027451Y0220357D01*
X0027500Y0220206D01*
X0027545Y0220054D01*
X0027586Y0219901D01*
X0027624Y0219748D01*
X0027657Y0219593D01*
X0027687Y0219437D01*
X0027713Y0219281D01*
X0027734Y0219124D01*
X0027752Y0218967D01*
X0027766Y0218809D01*
X0027776Y0218651D01*
X0027782Y0218493D01*
X0027784Y0218335D01*
X0027782Y0218177D01*
X0027776Y0218019D01*
X0027766Y0217861D01*
X0027752Y0217703D01*
X0027734Y0217546D01*
X0027713Y0217389D01*
X0027687Y0217233D01*
X0027657Y0217077D01*
X0027624Y0216922D01*
X0027586Y0216769D01*
X0027545Y0216616D01*
X0027500Y0216464D01*
X0027451Y0216313D01*
X0027398Y0216164D01*
X0027342Y0216016D01*
X0027282Y0215870D01*
X0027218Y0215725D01*
X0027150Y0215582D01*
X0027079Y0215440D01*
X0027005Y0215300D01*
X0026927Y0215163D01*
X0026845Y0215027D01*
X0026761Y0214893D01*
X0026672Y0214762D01*
X0026581Y0214633D01*
X0026486Y0214506D01*
X0026389Y0214381D01*
X0026288Y0214259D01*
X0026184Y0214140D01*
X0026077Y0214023D01*
X0025967Y0213909D01*
X0025854Y0213798D01*
X0025739Y0213689D01*
X0025621Y0213584D01*
X0025500Y0213482D01*
X0025377Y0213382D01*
X0025251Y0213286D01*
X0025123Y0213193D01*
X0024993Y0213103D01*
X0024860Y0213017D01*
X0024725Y0212933D01*
X0024589Y0212854D01*
X0024450Y0212777D01*
X0024309Y0212705D01*
X0024167Y0212635D01*
X0024023Y0212570D01*
X0023877Y0212508D01*
X0023730Y0212450D01*
X0023581Y0212395D01*
X0023431Y0212344D01*
X0023280Y0212297D01*
X0023128Y0212254D01*
X0022975Y0212215D01*
X0022820Y0212179D01*
X0022665Y0212148D01*
X0022509Y0212120D01*
X0022353Y0212096D01*
X0022196Y0212076D01*
X0022038Y0212060D01*
X0021881Y0212048D01*
X0021722Y0212040D01*
X0021564Y0212036D01*
X0021406Y0212036D01*
X0021248Y0212040D01*
X0021089Y0212048D01*
X0020932Y0212060D01*
X0020774Y0212076D01*
X0020617Y0212096D01*
X0020461Y0212120D01*
X0020305Y0212148D01*
X0020150Y0212179D01*
X0019995Y0212215D01*
X0019842Y0212254D01*
X0019690Y0212297D01*
X0019539Y0212344D01*
X0019389Y0212395D01*
X0019240Y0212450D01*
X0019093Y0212508D01*
X0018947Y0212570D01*
X0018803Y0212635D01*
X0018661Y0212705D01*
X0018520Y0212777D01*
X0018381Y0212854D01*
X0018245Y0212933D01*
X0018110Y0213017D01*
X0017977Y0213103D01*
X0017847Y0213193D01*
X0017719Y0213286D01*
X0017593Y0213382D01*
X0017470Y0213482D01*
X0017349Y0213584D01*
X0017231Y0213689D01*
X0017116Y0213798D01*
X0017003Y0213909D01*
X0016893Y0214023D01*
X0016786Y0214140D01*
X0016682Y0214259D01*
X0016581Y0214381D01*
X0016484Y0214506D01*
X0016389Y0214633D01*
X0016298Y0214762D01*
X0016209Y0214893D01*
X0016125Y0215027D01*
X0016043Y0215163D01*
X0015965Y0215300D01*
X0015891Y0215440D01*
X0015820Y0215582D01*
X0015752Y0215725D01*
X0015688Y0215870D01*
X0015628Y0216016D01*
X0015572Y0216164D01*
X0015519Y0216313D01*
X0015470Y0216464D01*
X0015425Y0216616D01*
X0015384Y0216769D01*
X0015346Y0216922D01*
X0015313Y0217077D01*
X0015283Y0217233D01*
X0015257Y0217389D01*
X0015236Y0217546D01*
X0015218Y0217703D01*
X0015204Y0217861D01*
X0015194Y0218019D01*
X0015188Y0218177D01*
X0015186Y0218335D01*
D12*
X0035297Y0168256D02*
X0036798Y0168256D01*
X0037549Y0167506D01*
X0037549Y0165254D01*
X0039050Y0165254D02*
X0034546Y0165254D01*
X0034546Y0167506D01*
X0035297Y0168256D01*
X0037549Y0166755D02*
X0039050Y0168256D01*
X0038299Y0163653D02*
X0035297Y0163653D01*
X0038299Y0160650D01*
X0039050Y0161401D01*
X0039050Y0162902D01*
X0038299Y0163653D01*
X0038299Y0160650D02*
X0035297Y0160650D01*
X0034546Y0161401D01*
X0034546Y0162902D01*
X0035297Y0163653D01*
X0035297Y0159049D02*
X0034546Y0158298D01*
X0034546Y0156797D01*
X0035297Y0156046D01*
X0035297Y0154445D02*
X0034546Y0153694D01*
X0034546Y0152193D01*
X0035297Y0151442D01*
X0035297Y0154445D02*
X0036047Y0154445D01*
X0039050Y0151442D01*
X0039050Y0154445D01*
X0039050Y0156046D02*
X0036047Y0159049D01*
X0035297Y0159049D01*
X0039050Y0159049D02*
X0039050Y0156046D01*
X0016550Y0156730D02*
X0016550Y0159732D01*
X0016550Y0158231D02*
X0012046Y0158231D01*
X0013547Y0156730D01*
X0012046Y0161334D02*
X0016550Y0161334D01*
X0015049Y0161334D02*
X0016550Y0163586D01*
X0015049Y0161334D02*
X0013547Y0163586D01*
X0021047Y0116086D02*
X0022549Y0113834D01*
X0024050Y0116086D01*
X0024050Y0113834D02*
X0019546Y0113834D01*
X0019546Y0110731D02*
X0024050Y0110731D01*
X0024050Y0109230D02*
X0024050Y0112232D01*
X0021047Y0109230D02*
X0019546Y0110731D01*
X0016550Y0110068D02*
X0015799Y0110068D01*
X0012797Y0113071D01*
X0012046Y0113071D01*
X0012046Y0110068D01*
X0013547Y0108484D02*
X0015049Y0106232D01*
X0016550Y0108484D01*
X0016550Y0106232D02*
X0012046Y0106232D01*
X0012046Y0103880D02*
X0014298Y0101628D01*
X0014298Y0104630D01*
X0016550Y0103880D02*
X0012046Y0103880D01*
X0018704Y0076833D02*
X0018460Y0076755D01*
X0018218Y0076670D01*
X0017979Y0076580D01*
X0017741Y0076484D01*
X0017506Y0076382D01*
X0017273Y0076274D01*
X0017043Y0076161D01*
X0016816Y0076042D01*
X0016592Y0075918D01*
X0016371Y0075788D01*
X0016154Y0075653D01*
X0015939Y0075512D01*
X0015728Y0075366D01*
X0015521Y0075216D01*
X0015318Y0075060D01*
X0015118Y0074899D01*
X0014922Y0074734D01*
X0014731Y0074564D01*
X0014543Y0074389D01*
X0014360Y0074209D01*
X0014182Y0074026D01*
X0014007Y0073837D01*
X0013838Y0073645D01*
X0013673Y0073449D01*
X0013513Y0073248D01*
X0013359Y0073044D01*
X0013209Y0072836D01*
X0013064Y0072625D01*
X0012924Y0072410D01*
X0012790Y0072192D01*
X0012661Y0071970D01*
X0012538Y0071746D01*
X0012420Y0071518D01*
X0012307Y0071288D01*
X0012201Y0071055D01*
X0012100Y0070819D01*
X0012004Y0070581D01*
X0011915Y0070341D01*
X0011832Y0070099D01*
X0011754Y0069854D01*
X0011683Y0069608D01*
X0011617Y0069360D01*
X0011558Y0069111D01*
X0011504Y0068861D01*
X0011457Y0068609D01*
X0011416Y0068356D01*
X0011381Y0068102D01*
X0011352Y0067847D01*
X0011330Y0067592D01*
X0011314Y0067336D01*
X0011304Y0067080D01*
X0011300Y0066824D01*
X0011303Y0066567D01*
X0011311Y0066311D01*
X0011326Y0066055D01*
X0011348Y0065800D01*
X0012927Y0065800D01*
X0013554Y0060300D02*
X0030046Y0060300D01*
X0030673Y0065800D02*
X0032252Y0065800D01*
X0022927Y0065800D02*
X0020673Y0065800D01*
X0013554Y0060300D02*
X0013401Y0060499D01*
X0013253Y0060701D01*
X0013110Y0060906D01*
X0012972Y0061115D01*
X0012839Y0061327D01*
X0012711Y0061542D01*
X0012589Y0061760D01*
X0012471Y0061981D01*
X0012359Y0062205D01*
X0012252Y0062431D01*
X0012151Y0062660D01*
X0012055Y0062891D01*
X0011964Y0063125D01*
X0011879Y0063360D01*
X0011800Y0063598D01*
X0011727Y0063837D01*
X0011659Y0064078D01*
X0011597Y0064320D01*
X0011541Y0064564D01*
X0011490Y0064810D01*
X0011446Y0065056D01*
X0011407Y0065303D01*
X0011375Y0065551D01*
X0011348Y0065800D01*
X0007797Y0059458D02*
X0010799Y0056456D01*
X0011550Y0056456D01*
X0011550Y0054104D02*
X0007046Y0054104D01*
X0009298Y0051852D01*
X0009298Y0054855D01*
X0007046Y0056456D02*
X0007046Y0059458D01*
X0007797Y0059458D01*
X0007046Y0050251D02*
X0007046Y0047248D01*
X0009298Y0047248D01*
X0008547Y0048749D01*
X0008547Y0049500D01*
X0009298Y0050251D01*
X0010799Y0050251D01*
X0011550Y0049500D01*
X0011550Y0047999D01*
X0010799Y0047248D01*
X0010799Y0045647D02*
X0011550Y0044896D01*
X0011550Y0043395D01*
X0010799Y0042644D01*
X0007797Y0042644D01*
X0007046Y0043395D01*
X0007046Y0044896D01*
X0007797Y0045647D01*
X0007797Y0041043D02*
X0008547Y0041043D01*
X0009298Y0040292D01*
X0009298Y0038040D01*
X0007046Y0038040D02*
X0007046Y0040292D01*
X0007797Y0041043D01*
X0009298Y0040292D02*
X0010049Y0041043D01*
X0010799Y0041043D01*
X0011550Y0040292D01*
X0011550Y0038040D01*
X0007046Y0038040D01*
X0030046Y0060300D02*
X0030201Y0060502D01*
X0030351Y0060707D01*
X0030497Y0060916D01*
X0030637Y0061129D01*
X0030771Y0061345D01*
X0030901Y0061564D01*
X0031025Y0061786D01*
X0031144Y0062011D01*
X0031257Y0062239D01*
X0031365Y0062469D01*
X0031467Y0062702D01*
X0031564Y0062938D01*
X0031655Y0063176D01*
X0031740Y0063415D01*
X0031819Y0063657D01*
X0031892Y0063901D01*
X0031959Y0064146D01*
X0032020Y0064393D01*
X0032076Y0064642D01*
X0032125Y0064892D01*
X0032168Y0065142D01*
X0032205Y0065394D01*
X0032236Y0065647D01*
X0032261Y0065900D01*
X0032280Y0066154D01*
X0032293Y0066408D01*
X0032299Y0066662D01*
X0032299Y0066917D01*
X0032293Y0067171D01*
X0032281Y0067426D01*
X0032263Y0067679D01*
X0032239Y0067933D01*
X0032208Y0068185D01*
X0032172Y0068437D01*
X0032129Y0068688D01*
X0032080Y0068938D01*
X0032025Y0069186D01*
X0031964Y0069433D01*
X0031898Y0069679D01*
X0031825Y0069923D01*
X0031746Y0070165D01*
X0031662Y0070405D01*
X0031571Y0070643D01*
X0031475Y0070879D01*
X0031374Y0071112D01*
X0031266Y0071343D01*
X0031154Y0071571D01*
X0031035Y0071796D01*
X0030911Y0072018D01*
X0030782Y0072238D01*
X0030648Y0072454D01*
X0030508Y0072667D01*
X0030363Y0072876D01*
X0030214Y0073082D01*
X0030059Y0073284D01*
X0029899Y0073482D01*
X0029735Y0073676D01*
X0029566Y0073867D01*
X0029393Y0074053D01*
X0029215Y0074235D01*
X0029032Y0074412D01*
X0028846Y0074585D01*
X0028655Y0074754D01*
X0028460Y0074918D01*
X0028261Y0075077D01*
X0028059Y0075231D01*
X0027853Y0075380D01*
X0027643Y0075524D01*
X0027430Y0075663D01*
X0027213Y0075797D01*
X0026994Y0075926D01*
X0026771Y0076049D01*
X0026545Y0076166D01*
X0026317Y0076279D01*
X0026086Y0076385D01*
X0025852Y0076487D01*
X0025616Y0076582D01*
X0025378Y0076671D01*
X0025138Y0076755D01*
X0024896Y0076833D01*
X0043546Y0068510D02*
X0043546Y0067008D01*
X0044297Y0066258D01*
X0045047Y0066258D01*
X0045798Y0067008D01*
X0045798Y0068510D01*
X0046549Y0069260D01*
X0047299Y0069260D01*
X0048050Y0068510D01*
X0048050Y0067008D01*
X0047299Y0066258D01*
X0046549Y0066258D01*
X0045798Y0067008D01*
X0045798Y0068510D02*
X0045047Y0069260D01*
X0044297Y0069260D01*
X0043546Y0068510D01*
X0044297Y0064656D02*
X0043546Y0063906D01*
X0043546Y0062405D01*
X0044297Y0061654D01*
X0044297Y0060053D02*
X0043546Y0060053D01*
X0043546Y0057050D01*
X0043546Y0054698D02*
X0045798Y0052446D01*
X0045798Y0055449D01*
X0047299Y0057050D02*
X0048050Y0057050D01*
X0047299Y0057050D02*
X0044297Y0060053D01*
X0048050Y0061654D02*
X0045047Y0064656D01*
X0044297Y0064656D01*
X0048050Y0064656D02*
X0048050Y0061654D01*
X0048050Y0054698D02*
X0043546Y0054698D01*
X0043546Y0050845D02*
X0048050Y0050845D01*
X0043546Y0047842D01*
X0048050Y0047842D01*
X0048050Y0046241D02*
X0048050Y0043238D01*
X0048050Y0044739D02*
X0043546Y0044739D01*
X0045047Y0043238D01*
X0069900Y0044300D02*
X0132800Y0044300D01*
X0132900Y0044300D02*
X0132900Y0116400D01*
X0132800Y0116400D01*
X0132902Y0116371D02*
X0069910Y0116371D01*
X0069910Y0139206D01*
X0132902Y0139206D01*
X0132902Y0116371D01*
X0151800Y0129300D02*
X0151797Y0129542D01*
X0151788Y0129783D01*
X0151774Y0130024D01*
X0151753Y0130265D01*
X0151727Y0130505D01*
X0151695Y0130745D01*
X0151657Y0130984D01*
X0151614Y0131221D01*
X0151564Y0131458D01*
X0151509Y0131693D01*
X0151449Y0131927D01*
X0151382Y0132159D01*
X0151311Y0132390D01*
X0151233Y0132619D01*
X0151150Y0132846D01*
X0151062Y0133071D01*
X0150968Y0133294D01*
X0150869Y0133514D01*
X0150764Y0133732D01*
X0150655Y0133947D01*
X0150540Y0134160D01*
X0150420Y0134370D01*
X0150295Y0134576D01*
X0150165Y0134780D01*
X0150030Y0134981D01*
X0149890Y0135178D01*
X0149746Y0135372D01*
X0149597Y0135562D01*
X0149443Y0135748D01*
X0149285Y0135931D01*
X0149123Y0136110D01*
X0148956Y0136285D01*
X0148785Y0136456D01*
X0148610Y0136623D01*
X0148431Y0136785D01*
X0148248Y0136943D01*
X0148062Y0137097D01*
X0147872Y0137246D01*
X0147678Y0137390D01*
X0147481Y0137530D01*
X0147280Y0137665D01*
X0147076Y0137795D01*
X0146870Y0137920D01*
X0146660Y0138040D01*
X0146447Y0138155D01*
X0146232Y0138264D01*
X0146014Y0138369D01*
X0145794Y0138468D01*
X0145571Y0138562D01*
X0145346Y0138650D01*
X0145119Y0138733D01*
X0144890Y0138811D01*
X0144659Y0138882D01*
X0144427Y0138949D01*
X0144193Y0139009D01*
X0143958Y0139064D01*
X0143721Y0139114D01*
X0143484Y0139157D01*
X0143245Y0139195D01*
X0143005Y0139227D01*
X0142765Y0139253D01*
X0142524Y0139274D01*
X0142283Y0139288D01*
X0142042Y0139297D01*
X0141800Y0139300D01*
X0061800Y0139300D01*
X0061558Y0139297D01*
X0061317Y0139288D01*
X0061076Y0139274D01*
X0060835Y0139253D01*
X0060595Y0139227D01*
X0060355Y0139195D01*
X0060116Y0139157D01*
X0059879Y0139114D01*
X0059642Y0139064D01*
X0059407Y0139009D01*
X0059173Y0138949D01*
X0058941Y0138882D01*
X0058710Y0138811D01*
X0058481Y0138733D01*
X0058254Y0138650D01*
X0058029Y0138562D01*
X0057806Y0138468D01*
X0057586Y0138369D01*
X0057368Y0138264D01*
X0057153Y0138155D01*
X0056940Y0138040D01*
X0056730Y0137920D01*
X0056524Y0137795D01*
X0056320Y0137665D01*
X0056119Y0137530D01*
X0055922Y0137390D01*
X0055728Y0137246D01*
X0055538Y0137097D01*
X0055352Y0136943D01*
X0055169Y0136785D01*
X0054990Y0136623D01*
X0054815Y0136456D01*
X0054644Y0136285D01*
X0054477Y0136110D01*
X0054315Y0135931D01*
X0054157Y0135748D01*
X0054003Y0135562D01*
X0053854Y0135372D01*
X0053710Y0135178D01*
X0053570Y0134981D01*
X0053435Y0134780D01*
X0053305Y0134576D01*
X0053180Y0134370D01*
X0053060Y0134160D01*
X0052945Y0133947D01*
X0052836Y0133732D01*
X0052731Y0133514D01*
X0052632Y0133294D01*
X0052538Y0133071D01*
X0052450Y0132846D01*
X0052367Y0132619D01*
X0052289Y0132390D01*
X0052218Y0132159D01*
X0052151Y0131927D01*
X0052091Y0131693D01*
X0052036Y0131458D01*
X0051986Y0131221D01*
X0051943Y0130984D01*
X0051905Y0130745D01*
X0051873Y0130505D01*
X0051847Y0130265D01*
X0051826Y0130024D01*
X0051812Y0129783D01*
X0051803Y0129542D01*
X0051800Y0129300D01*
X0051800Y0004300D01*
X0151800Y0004300D01*
X0151800Y0129300D01*
X0164546Y0113371D02*
X0165297Y0113371D01*
X0168299Y0110368D01*
X0169050Y0110368D01*
X0169050Y0108784D02*
X0167549Y0106532D01*
X0166047Y0108784D01*
X0164546Y0110368D02*
X0164546Y0113371D01*
X0164546Y0106532D02*
X0169050Y0106532D01*
X0169050Y0104180D02*
X0164546Y0104180D01*
X0166798Y0101928D01*
X0166798Y0104930D01*
X0182046Y0100302D02*
X0184298Y0098050D01*
X0184298Y0101053D01*
X0186550Y0100302D02*
X0182046Y0100302D01*
X0184298Y0136442D02*
X0184298Y0139445D01*
X0185799Y0141046D02*
X0186550Y0141046D01*
X0185799Y0141046D02*
X0182797Y0144049D01*
X0182046Y0144049D01*
X0182046Y0141046D01*
X0182046Y0138694D02*
X0184298Y0136442D01*
X0186550Y0138694D02*
X0182046Y0138694D01*
X0182797Y0145650D02*
X0182046Y0146401D01*
X0182046Y0147902D01*
X0182797Y0148653D01*
X0185799Y0145650D01*
X0186550Y0146401D01*
X0186550Y0147902D01*
X0185799Y0148653D01*
X0182797Y0148653D01*
X0182046Y0150254D02*
X0182046Y0152506D01*
X0182797Y0153256D01*
X0184298Y0153256D01*
X0185049Y0152506D01*
X0185049Y0150254D01*
X0186550Y0150254D02*
X0182046Y0150254D01*
X0185049Y0151755D02*
X0186550Y0153256D01*
X0185799Y0145650D02*
X0182797Y0145650D01*
X0159449Y0160803D02*
X0156446Y0157801D01*
X0156446Y0157050D01*
X0154845Y0157050D02*
X0151842Y0157050D01*
X0154845Y0160053D01*
X0154845Y0160803D01*
X0154094Y0161554D01*
X0152593Y0161554D01*
X0151842Y0160803D01*
X0150241Y0160803D02*
X0150241Y0160053D01*
X0149490Y0159302D01*
X0147989Y0159302D01*
X0147238Y0160053D01*
X0147238Y0160803D01*
X0147989Y0161554D01*
X0149490Y0161554D01*
X0150241Y0160803D01*
X0149490Y0159302D02*
X0150241Y0158551D01*
X0150241Y0157801D01*
X0149490Y0157050D01*
X0147989Y0157050D01*
X0147238Y0157801D01*
X0147238Y0158551D01*
X0147989Y0159302D01*
X0145637Y0160803D02*
X0144886Y0161554D01*
X0143385Y0161554D01*
X0142634Y0160803D01*
X0142634Y0157801D01*
X0143385Y0157050D01*
X0144886Y0157050D01*
X0145637Y0157801D01*
X0141033Y0159302D02*
X0141033Y0160803D01*
X0140282Y0161554D01*
X0138030Y0161554D01*
X0138030Y0157050D01*
X0138030Y0158551D02*
X0140282Y0158551D01*
X0141033Y0159302D01*
X0156446Y0161554D02*
X0159449Y0161554D01*
X0159449Y0160803D01*
X0158684Y0204050D02*
X0159001Y0204367D01*
X0159001Y0205952D01*
X0158684Y0205952D02*
X0159318Y0205952D01*
X0160260Y0205635D02*
X0160577Y0205952D01*
X0161211Y0205952D01*
X0161528Y0205635D01*
X0161528Y0205318D01*
X0160260Y0204050D01*
X0161528Y0204050D01*
X0158684Y0204050D02*
X0158367Y0204050D01*
X0158050Y0204367D01*
X0069900Y0116400D02*
X0069900Y0044300D01*
X0164546Y0056380D02*
X0166798Y0054128D01*
X0166798Y0057130D01*
X0167549Y0058732D02*
X0166047Y0060984D01*
X0164546Y0062568D02*
X0164546Y0065571D01*
X0165297Y0065571D01*
X0168299Y0062568D01*
X0169050Y0062568D01*
X0169050Y0060984D02*
X0167549Y0058732D01*
X0169050Y0058732D02*
X0164546Y0058732D01*
X0164546Y0056380D02*
X0169050Y0056380D01*
X0182046Y0054051D02*
X0186550Y0054051D01*
X0186550Y0052550D02*
X0186550Y0055553D01*
X0183547Y0052550D02*
X0182046Y0054051D01*
X0063028Y0204550D02*
X0061760Y0204550D01*
X0062394Y0204550D02*
X0062394Y0206452D01*
X0061760Y0205818D01*
X0060818Y0206452D02*
X0060184Y0206452D01*
X0060501Y0206452D02*
X0060501Y0204867D01*
X0060184Y0204550D01*
X0059867Y0204550D01*
X0059550Y0204867D01*
D13*
X0059112Y0214302D02*
X0055709Y0214302D01*
X0045391Y0214302D02*
X0041988Y0214302D01*
X0043689Y0212601D02*
X0043689Y0216004D01*
D14*
X0033133Y0194573D02*
X0030464Y0194573D01*
X0033133Y0191904D01*
X0033800Y0192571D01*
X0033800Y0193906D01*
X0033133Y0194573D01*
X0033133Y0191904D02*
X0030464Y0191904D01*
X0029797Y0192571D01*
X0029797Y0193906D01*
X0030464Y0194573D01*
X0030464Y0189969D02*
X0029797Y0189302D01*
X0029797Y0187967D01*
X0030464Y0187300D01*
X0031131Y0187300D01*
X0031798Y0187967D01*
X0031798Y0189302D01*
X0032466Y0189969D01*
X0033133Y0189969D01*
X0033800Y0189302D01*
X0033800Y0187967D01*
X0033133Y0187300D01*
X0166797Y0187800D02*
X0170800Y0190469D01*
X0166797Y0190469D01*
X0166797Y0192404D02*
X0166797Y0194406D01*
X0167464Y0195073D01*
X0168798Y0195073D01*
X0169466Y0194406D01*
X0169466Y0192404D01*
X0170800Y0192404D02*
X0166797Y0192404D01*
X0166797Y0197008D02*
X0170800Y0199677D01*
X0166797Y0199677D01*
X0166797Y0197008D02*
X0170800Y0197008D01*
X0170800Y0187800D02*
X0166797Y0187800D01*
D15*
X0166800Y0170800D02*
X0166800Y0163300D01*
X0166674Y0163298D01*
X0166549Y0163292D01*
X0166424Y0163282D01*
X0166299Y0163268D01*
X0166174Y0163251D01*
X0166050Y0163229D01*
X0165927Y0163204D01*
X0165805Y0163174D01*
X0165684Y0163141D01*
X0165564Y0163104D01*
X0165445Y0163064D01*
X0165328Y0163019D01*
X0165211Y0162971D01*
X0165097Y0162919D01*
X0164984Y0162864D01*
X0164873Y0162805D01*
X0164764Y0162743D01*
X0164657Y0162677D01*
X0164552Y0162608D01*
X0164449Y0162536D01*
X0164348Y0162461D01*
X0164250Y0162382D01*
X0164155Y0162300D01*
X0164062Y0162216D01*
X0163972Y0162128D01*
X0163884Y0162038D01*
X0163800Y0161945D01*
X0163718Y0161850D01*
X0163639Y0161752D01*
X0163564Y0161651D01*
X0163492Y0161548D01*
X0163423Y0161443D01*
X0163357Y0161336D01*
X0163295Y0161227D01*
X0163236Y0161116D01*
X0163181Y0161003D01*
X0163129Y0160889D01*
X0163081Y0160772D01*
X0163036Y0160655D01*
X0162996Y0160536D01*
X0162959Y0160416D01*
X0162926Y0160295D01*
X0162896Y0160173D01*
X0162871Y0160050D01*
X0162849Y0159926D01*
X0162832Y0159801D01*
X0162818Y0159676D01*
X0162808Y0159551D01*
X0162802Y0159426D01*
X0162800Y0159300D01*
X0162802Y0159174D01*
X0162808Y0159049D01*
X0162818Y0158924D01*
X0162832Y0158799D01*
X0162849Y0158674D01*
X0162871Y0158550D01*
X0162896Y0158427D01*
X0162926Y0158305D01*
X0162959Y0158184D01*
X0162996Y0158064D01*
X0163036Y0157945D01*
X0163081Y0157828D01*
X0163129Y0157711D01*
X0163181Y0157597D01*
X0163236Y0157484D01*
X0163295Y0157373D01*
X0163357Y0157264D01*
X0163423Y0157157D01*
X0163492Y0157052D01*
X0163564Y0156949D01*
X0163639Y0156848D01*
X0163718Y0156750D01*
X0163800Y0156655D01*
X0163884Y0156562D01*
X0163972Y0156472D01*
X0164062Y0156384D01*
X0164155Y0156300D01*
X0164250Y0156218D01*
X0164348Y0156139D01*
X0164449Y0156064D01*
X0164552Y0155992D01*
X0164657Y0155923D01*
X0164764Y0155857D01*
X0164873Y0155795D01*
X0164984Y0155736D01*
X0165097Y0155681D01*
X0165211Y0155629D01*
X0165328Y0155581D01*
X0165445Y0155536D01*
X0165564Y0155496D01*
X0165684Y0155459D01*
X0165805Y0155426D01*
X0165927Y0155396D01*
X0166050Y0155371D01*
X0166174Y0155349D01*
X0166299Y0155332D01*
X0166424Y0155318D01*
X0166549Y0155308D01*
X0166674Y0155302D01*
X0166800Y0155300D01*
X0166800Y0147800D01*
X0126800Y0147800D01*
X0126800Y0170800D01*
X0166800Y0170800D01*
X0179800Y0155800D02*
X0179800Y0154300D01*
X0180300Y0153800D01*
X0180300Y0134800D01*
X0179800Y0134300D01*
X0179800Y0132800D01*
X0179802Y0132740D01*
X0179807Y0132679D01*
X0179816Y0132620D01*
X0179829Y0132561D01*
X0179845Y0132502D01*
X0179865Y0132445D01*
X0179888Y0132390D01*
X0179915Y0132335D01*
X0179944Y0132283D01*
X0179977Y0132232D01*
X0180013Y0132183D01*
X0180051Y0132137D01*
X0180093Y0132093D01*
X0180137Y0132051D01*
X0180183Y0132013D01*
X0180232Y0131977D01*
X0180283Y0131944D01*
X0180335Y0131915D01*
X0180390Y0131888D01*
X0180445Y0131865D01*
X0180502Y0131845D01*
X0180561Y0131829D01*
X0180620Y0131816D01*
X0180679Y0131807D01*
X0180740Y0131802D01*
X0180800Y0131800D01*
X0187800Y0131800D01*
X0187860Y0131802D01*
X0187921Y0131807D01*
X0187980Y0131816D01*
X0188039Y0131829D01*
X0188098Y0131845D01*
X0188155Y0131865D01*
X0188210Y0131888D01*
X0188265Y0131915D01*
X0188317Y0131944D01*
X0188368Y0131977D01*
X0188417Y0132013D01*
X0188463Y0132051D01*
X0188507Y0132093D01*
X0188549Y0132137D01*
X0188587Y0132183D01*
X0188623Y0132232D01*
X0188656Y0132283D01*
X0188685Y0132335D01*
X0188712Y0132390D01*
X0188735Y0132445D01*
X0188755Y0132502D01*
X0188771Y0132561D01*
X0188784Y0132620D01*
X0188793Y0132679D01*
X0188798Y0132740D01*
X0188800Y0132800D01*
X0188800Y0134300D01*
X0188300Y0134800D01*
X0188300Y0153800D01*
X0188800Y0154300D01*
X0188800Y0155800D01*
X0188798Y0155860D01*
X0188793Y0155921D01*
X0188784Y0155980D01*
X0188771Y0156039D01*
X0188755Y0156098D01*
X0188735Y0156155D01*
X0188712Y0156210D01*
X0188685Y0156265D01*
X0188656Y0156317D01*
X0188623Y0156368D01*
X0188587Y0156417D01*
X0188549Y0156463D01*
X0188507Y0156507D01*
X0188463Y0156549D01*
X0188417Y0156587D01*
X0188368Y0156623D01*
X0188317Y0156656D01*
X0188265Y0156685D01*
X0188210Y0156712D01*
X0188155Y0156735D01*
X0188098Y0156755D01*
X0188039Y0156771D01*
X0187980Y0156784D01*
X0187921Y0156793D01*
X0187860Y0156798D01*
X0187800Y0156800D01*
X0180800Y0156800D01*
X0180740Y0156798D01*
X0180679Y0156793D01*
X0180620Y0156784D01*
X0180561Y0156771D01*
X0180502Y0156755D01*
X0180445Y0156735D01*
X0180390Y0156712D01*
X0180335Y0156685D01*
X0180283Y0156656D01*
X0180232Y0156623D01*
X0180183Y0156587D01*
X0180137Y0156549D01*
X0180093Y0156507D01*
X0180051Y0156463D01*
X0180013Y0156417D01*
X0179977Y0156368D01*
X0179944Y0156317D01*
X0179915Y0156265D01*
X0179888Y0156210D01*
X0179865Y0156155D01*
X0179845Y0156098D01*
X0179829Y0156039D01*
X0179816Y0155980D01*
X0179807Y0155921D01*
X0179802Y0155860D01*
X0179800Y0155800D01*
X0170300Y0119300D02*
X0163300Y0119300D01*
X0163240Y0119298D01*
X0163179Y0119293D01*
X0163120Y0119284D01*
X0163061Y0119271D01*
X0163002Y0119255D01*
X0162945Y0119235D01*
X0162890Y0119212D01*
X0162835Y0119185D01*
X0162783Y0119156D01*
X0162732Y0119123D01*
X0162683Y0119087D01*
X0162637Y0119049D01*
X0162593Y0119007D01*
X0162551Y0118963D01*
X0162513Y0118917D01*
X0162477Y0118868D01*
X0162444Y0118817D01*
X0162415Y0118765D01*
X0162388Y0118710D01*
X0162365Y0118655D01*
X0162345Y0118598D01*
X0162329Y0118539D01*
X0162316Y0118480D01*
X0162307Y0118421D01*
X0162302Y0118360D01*
X0162300Y0118300D01*
X0162300Y0116800D01*
X0162800Y0116300D01*
X0162800Y0097300D01*
X0162300Y0096800D01*
X0162300Y0095300D01*
X0162302Y0095240D01*
X0162307Y0095179D01*
X0162316Y0095120D01*
X0162329Y0095061D01*
X0162345Y0095002D01*
X0162365Y0094945D01*
X0162388Y0094890D01*
X0162415Y0094835D01*
X0162444Y0094783D01*
X0162477Y0094732D01*
X0162513Y0094683D01*
X0162551Y0094637D01*
X0162593Y0094593D01*
X0162637Y0094551D01*
X0162683Y0094513D01*
X0162732Y0094477D01*
X0162783Y0094444D01*
X0162835Y0094415D01*
X0162890Y0094388D01*
X0162945Y0094365D01*
X0163002Y0094345D01*
X0163061Y0094329D01*
X0163120Y0094316D01*
X0163179Y0094307D01*
X0163240Y0094302D01*
X0163300Y0094300D01*
X0170300Y0094300D01*
X0170360Y0094302D01*
X0170421Y0094307D01*
X0170480Y0094316D01*
X0170539Y0094329D01*
X0170598Y0094345D01*
X0170655Y0094365D01*
X0170710Y0094388D01*
X0170765Y0094415D01*
X0170817Y0094444D01*
X0170868Y0094477D01*
X0170917Y0094513D01*
X0170963Y0094551D01*
X0171007Y0094593D01*
X0171049Y0094637D01*
X0171087Y0094683D01*
X0171123Y0094732D01*
X0171156Y0094783D01*
X0171185Y0094835D01*
X0171212Y0094890D01*
X0171235Y0094945D01*
X0171255Y0095002D01*
X0171271Y0095061D01*
X0171284Y0095120D01*
X0171293Y0095179D01*
X0171298Y0095240D01*
X0171300Y0095300D01*
X0171300Y0096800D01*
X0170800Y0097300D01*
X0170800Y0116300D01*
X0171300Y0116800D01*
X0171300Y0118300D01*
X0171298Y0118360D01*
X0171293Y0118421D01*
X0171284Y0118480D01*
X0171271Y0118539D01*
X0171255Y0118598D01*
X0171235Y0118655D01*
X0171212Y0118710D01*
X0171185Y0118765D01*
X0171156Y0118817D01*
X0171123Y0118868D01*
X0171087Y0118917D01*
X0171049Y0118963D01*
X0171007Y0119007D01*
X0170963Y0119049D01*
X0170917Y0119087D01*
X0170868Y0119123D01*
X0170817Y0119156D01*
X0170765Y0119185D01*
X0170710Y0119212D01*
X0170655Y0119235D01*
X0170598Y0119255D01*
X0170539Y0119271D01*
X0170480Y0119284D01*
X0170421Y0119293D01*
X0170360Y0119298D01*
X0170300Y0119300D01*
X0187629Y0108639D02*
X0189855Y0108639D01*
X0190969Y0107526D01*
X0189855Y0106413D01*
X0187629Y0106413D01*
X0188185Y0105014D02*
X0187629Y0104457D01*
X0187629Y0103344D01*
X0188185Y0102787D01*
X0188185Y0105014D02*
X0188742Y0105014D01*
X0190969Y0102787D01*
X0190969Y0105014D01*
X0190969Y0101389D02*
X0190969Y0099162D01*
X0190969Y0100276D02*
X0187629Y0100276D01*
X0188742Y0099162D01*
X0186800Y0096800D02*
X0189300Y0094300D01*
X0189300Y0089300D01*
X0186800Y0086800D01*
X0189300Y0084300D01*
X0189300Y0079300D01*
X0186800Y0076800D01*
X0189300Y0074300D01*
X0189300Y0069300D01*
X0186800Y0066800D01*
X0189300Y0064300D01*
X0189300Y0059300D01*
X0186800Y0056800D01*
X0181800Y0056800D01*
X0179300Y0059300D01*
X0179300Y0064300D01*
X0181800Y0066800D01*
X0179300Y0069300D01*
X0179300Y0074300D01*
X0181800Y0076800D01*
X0179300Y0079300D01*
X0179300Y0084300D01*
X0181800Y0086800D01*
X0179300Y0089300D01*
X0179300Y0094300D01*
X0181800Y0096800D01*
X0186800Y0096800D01*
X0170300Y0071800D02*
X0163300Y0071800D01*
X0163240Y0071798D01*
X0163179Y0071793D01*
X0163120Y0071784D01*
X0163061Y0071771D01*
X0163002Y0071755D01*
X0162945Y0071735D01*
X0162890Y0071712D01*
X0162835Y0071685D01*
X0162783Y0071656D01*
X0162732Y0071623D01*
X0162683Y0071587D01*
X0162637Y0071549D01*
X0162593Y0071507D01*
X0162551Y0071463D01*
X0162513Y0071417D01*
X0162477Y0071368D01*
X0162444Y0071317D01*
X0162415Y0071265D01*
X0162388Y0071210D01*
X0162365Y0071155D01*
X0162345Y0071098D01*
X0162329Y0071039D01*
X0162316Y0070980D01*
X0162307Y0070921D01*
X0162302Y0070860D01*
X0162300Y0070800D01*
X0162300Y0069300D01*
X0162800Y0068800D01*
X0162800Y0049800D01*
X0162300Y0049300D01*
X0162300Y0047800D01*
X0162302Y0047740D01*
X0162307Y0047679D01*
X0162316Y0047620D01*
X0162329Y0047561D01*
X0162345Y0047502D01*
X0162365Y0047445D01*
X0162388Y0047390D01*
X0162415Y0047335D01*
X0162444Y0047283D01*
X0162477Y0047232D01*
X0162513Y0047183D01*
X0162551Y0047137D01*
X0162593Y0047093D01*
X0162637Y0047051D01*
X0162683Y0047013D01*
X0162732Y0046977D01*
X0162783Y0046944D01*
X0162835Y0046915D01*
X0162890Y0046888D01*
X0162945Y0046865D01*
X0163002Y0046845D01*
X0163061Y0046829D01*
X0163120Y0046816D01*
X0163179Y0046807D01*
X0163240Y0046802D01*
X0163300Y0046800D01*
X0170300Y0046800D01*
X0170360Y0046802D01*
X0170421Y0046807D01*
X0170480Y0046816D01*
X0170539Y0046829D01*
X0170598Y0046845D01*
X0170655Y0046865D01*
X0170710Y0046888D01*
X0170765Y0046915D01*
X0170817Y0046944D01*
X0170868Y0046977D01*
X0170917Y0047013D01*
X0170963Y0047051D01*
X0171007Y0047093D01*
X0171049Y0047137D01*
X0171087Y0047183D01*
X0171123Y0047232D01*
X0171156Y0047283D01*
X0171185Y0047335D01*
X0171212Y0047390D01*
X0171235Y0047445D01*
X0171255Y0047502D01*
X0171271Y0047561D01*
X0171284Y0047620D01*
X0171293Y0047679D01*
X0171298Y0047740D01*
X0171300Y0047800D01*
X0171300Y0049300D01*
X0170800Y0049800D01*
X0170800Y0068800D01*
X0171300Y0069300D01*
X0171300Y0070800D01*
X0171298Y0070860D01*
X0171293Y0070921D01*
X0171284Y0070980D01*
X0171271Y0071039D01*
X0171255Y0071098D01*
X0171235Y0071155D01*
X0171212Y0071210D01*
X0171185Y0071265D01*
X0171156Y0071317D01*
X0171123Y0071368D01*
X0171087Y0071417D01*
X0171049Y0071463D01*
X0171007Y0071507D01*
X0170963Y0071549D01*
X0170917Y0071587D01*
X0170868Y0071623D01*
X0170817Y0071656D01*
X0170765Y0071685D01*
X0170710Y0071712D01*
X0170655Y0071735D01*
X0170598Y0071755D01*
X0170539Y0071771D01*
X0170480Y0071784D01*
X0170421Y0071793D01*
X0170360Y0071798D01*
X0170300Y0071800D01*
X0187629Y0051827D02*
X0189855Y0051827D01*
X0190969Y0050713D01*
X0189855Y0049600D01*
X0187629Y0049600D01*
X0187629Y0048201D02*
X0187629Y0045975D01*
X0189299Y0045975D01*
X0188742Y0047088D01*
X0188742Y0047645D01*
X0189299Y0048201D01*
X0190412Y0048201D01*
X0190969Y0047645D01*
X0190969Y0046531D01*
X0190412Y0045975D01*
X0165465Y0021485D02*
X0165469Y0021816D01*
X0165481Y0022147D01*
X0165502Y0022478D01*
X0165530Y0022808D01*
X0165567Y0023138D01*
X0165611Y0023466D01*
X0165664Y0023793D01*
X0165724Y0024119D01*
X0165793Y0024443D01*
X0165870Y0024765D01*
X0165954Y0025086D01*
X0166046Y0025404D01*
X0166146Y0025720D01*
X0166254Y0026033D01*
X0166370Y0026344D01*
X0166493Y0026651D01*
X0166623Y0026956D01*
X0166761Y0027257D01*
X0166906Y0027555D01*
X0167059Y0027849D01*
X0167219Y0028139D01*
X0167386Y0028425D01*
X0167559Y0028707D01*
X0167740Y0028985D01*
X0167928Y0029258D01*
X0168122Y0029527D01*
X0168322Y0029791D01*
X0168529Y0030049D01*
X0168743Y0030303D01*
X0168962Y0030551D01*
X0169188Y0030794D01*
X0169419Y0031031D01*
X0169656Y0031262D01*
X0169899Y0031488D01*
X0170147Y0031707D01*
X0170401Y0031921D01*
X0170659Y0032128D01*
X0170923Y0032328D01*
X0171192Y0032522D01*
X0171465Y0032710D01*
X0171743Y0032891D01*
X0172025Y0033064D01*
X0172311Y0033231D01*
X0172601Y0033391D01*
X0172895Y0033544D01*
X0173193Y0033689D01*
X0173494Y0033827D01*
X0173799Y0033957D01*
X0174106Y0034080D01*
X0174417Y0034196D01*
X0174730Y0034304D01*
X0175046Y0034404D01*
X0175364Y0034496D01*
X0175685Y0034580D01*
X0176007Y0034657D01*
X0176331Y0034726D01*
X0176657Y0034786D01*
X0176984Y0034839D01*
X0177312Y0034883D01*
X0177642Y0034920D01*
X0177972Y0034948D01*
X0178303Y0034969D01*
X0178634Y0034981D01*
X0178965Y0034985D01*
X0179296Y0034981D01*
X0179627Y0034969D01*
X0179958Y0034948D01*
X0180288Y0034920D01*
X0180618Y0034883D01*
X0180946Y0034839D01*
X0181273Y0034786D01*
X0181599Y0034726D01*
X0181923Y0034657D01*
X0182245Y0034580D01*
X0182566Y0034496D01*
X0182884Y0034404D01*
X0183200Y0034304D01*
X0183513Y0034196D01*
X0183824Y0034080D01*
X0184131Y0033957D01*
X0184436Y0033827D01*
X0184737Y0033689D01*
X0185035Y0033544D01*
X0185329Y0033391D01*
X0185619Y0033231D01*
X0185905Y0033064D01*
X0186187Y0032891D01*
X0186465Y0032710D01*
X0186738Y0032522D01*
X0187007Y0032328D01*
X0187271Y0032128D01*
X0187529Y0031921D01*
X0187783Y0031707D01*
X0188031Y0031488D01*
X0188274Y0031262D01*
X0188511Y0031031D01*
X0188742Y0030794D01*
X0188968Y0030551D01*
X0189187Y0030303D01*
X0189401Y0030049D01*
X0189608Y0029791D01*
X0189808Y0029527D01*
X0190002Y0029258D01*
X0190190Y0028985D01*
X0190371Y0028707D01*
X0190544Y0028425D01*
X0190711Y0028139D01*
X0190871Y0027849D01*
X0191024Y0027555D01*
X0191169Y0027257D01*
X0191307Y0026956D01*
X0191437Y0026651D01*
X0191560Y0026344D01*
X0191676Y0026033D01*
X0191784Y0025720D01*
X0191884Y0025404D01*
X0191976Y0025086D01*
X0192060Y0024765D01*
X0192137Y0024443D01*
X0192206Y0024119D01*
X0192266Y0023793D01*
X0192319Y0023466D01*
X0192363Y0023138D01*
X0192400Y0022808D01*
X0192428Y0022478D01*
X0192449Y0022147D01*
X0192461Y0021816D01*
X0192465Y0021485D01*
X0192461Y0021154D01*
X0192449Y0020823D01*
X0192428Y0020492D01*
X0192400Y0020162D01*
X0192363Y0019832D01*
X0192319Y0019504D01*
X0192266Y0019177D01*
X0192206Y0018851D01*
X0192137Y0018527D01*
X0192060Y0018205D01*
X0191976Y0017884D01*
X0191884Y0017566D01*
X0191784Y0017250D01*
X0191676Y0016937D01*
X0191560Y0016626D01*
X0191437Y0016319D01*
X0191307Y0016014D01*
X0191169Y0015713D01*
X0191024Y0015415D01*
X0190871Y0015121D01*
X0190711Y0014831D01*
X0190544Y0014545D01*
X0190371Y0014263D01*
X0190190Y0013985D01*
X0190002Y0013712D01*
X0189808Y0013443D01*
X0189608Y0013179D01*
X0189401Y0012921D01*
X0189187Y0012667D01*
X0188968Y0012419D01*
X0188742Y0012176D01*
X0188511Y0011939D01*
X0188274Y0011708D01*
X0188031Y0011482D01*
X0187783Y0011263D01*
X0187529Y0011049D01*
X0187271Y0010842D01*
X0187007Y0010642D01*
X0186738Y0010448D01*
X0186465Y0010260D01*
X0186187Y0010079D01*
X0185905Y0009906D01*
X0185619Y0009739D01*
X0185329Y0009579D01*
X0185035Y0009426D01*
X0184737Y0009281D01*
X0184436Y0009143D01*
X0184131Y0009013D01*
X0183824Y0008890D01*
X0183513Y0008774D01*
X0183200Y0008666D01*
X0182884Y0008566D01*
X0182566Y0008474D01*
X0182245Y0008390D01*
X0181923Y0008313D01*
X0181599Y0008244D01*
X0181273Y0008184D01*
X0180946Y0008131D01*
X0180618Y0008087D01*
X0180288Y0008050D01*
X0179958Y0008022D01*
X0179627Y0008001D01*
X0179296Y0007989D01*
X0178965Y0007985D01*
X0178634Y0007989D01*
X0178303Y0008001D01*
X0177972Y0008022D01*
X0177642Y0008050D01*
X0177312Y0008087D01*
X0176984Y0008131D01*
X0176657Y0008184D01*
X0176331Y0008244D01*
X0176007Y0008313D01*
X0175685Y0008390D01*
X0175364Y0008474D01*
X0175046Y0008566D01*
X0174730Y0008666D01*
X0174417Y0008774D01*
X0174106Y0008890D01*
X0173799Y0009013D01*
X0173494Y0009143D01*
X0173193Y0009281D01*
X0172895Y0009426D01*
X0172601Y0009579D01*
X0172311Y0009739D01*
X0172025Y0009906D01*
X0171743Y0010079D01*
X0171465Y0010260D01*
X0171192Y0010448D01*
X0170923Y0010642D01*
X0170659Y0010842D01*
X0170401Y0011049D01*
X0170147Y0011263D01*
X0169899Y0011482D01*
X0169656Y0011708D01*
X0169419Y0011939D01*
X0169188Y0012176D01*
X0168962Y0012419D01*
X0168743Y0012667D01*
X0168529Y0012921D01*
X0168322Y0013179D01*
X0168122Y0013443D01*
X0167928Y0013712D01*
X0167740Y0013985D01*
X0167559Y0014263D01*
X0167386Y0014545D01*
X0167219Y0014831D01*
X0167059Y0015121D01*
X0166906Y0015415D01*
X0166761Y0015713D01*
X0166623Y0016014D01*
X0166493Y0016319D01*
X0166370Y0016626D01*
X0166254Y0016937D01*
X0166146Y0017250D01*
X0166046Y0017566D01*
X0165954Y0017884D01*
X0165870Y0018205D01*
X0165793Y0018527D01*
X0165724Y0018851D01*
X0165664Y0019177D01*
X0165611Y0019504D01*
X0165567Y0019832D01*
X0165530Y0020162D01*
X0165502Y0020492D01*
X0165481Y0020823D01*
X0165469Y0021154D01*
X0165465Y0021485D01*
X0041800Y0046300D02*
X0041800Y0062300D01*
X0031800Y0062300D01*
X0031800Y0046300D01*
X0041800Y0046300D01*
X0039300Y0050300D02*
X0036800Y0054300D01*
X0039300Y0054300D01*
X0039300Y0053300D01*
X0036800Y0054300D02*
X0034300Y0054300D01*
X0036800Y0054300D02*
X0034300Y0050300D01*
X0039300Y0050300D01*
X0036800Y0048300D02*
X0036800Y0054300D01*
X0036800Y0056800D01*
X0033300Y0094300D02*
X0040300Y0094300D01*
X0040360Y0094302D01*
X0040421Y0094307D01*
X0040480Y0094316D01*
X0040539Y0094329D01*
X0040598Y0094345D01*
X0040655Y0094365D01*
X0040710Y0094388D01*
X0040765Y0094415D01*
X0040817Y0094444D01*
X0040868Y0094477D01*
X0040917Y0094513D01*
X0040963Y0094551D01*
X0041007Y0094593D01*
X0041049Y0094637D01*
X0041087Y0094683D01*
X0041123Y0094732D01*
X0041156Y0094783D01*
X0041185Y0094835D01*
X0041212Y0094890D01*
X0041235Y0094945D01*
X0041255Y0095002D01*
X0041271Y0095061D01*
X0041284Y0095120D01*
X0041293Y0095179D01*
X0041298Y0095240D01*
X0041300Y0095300D01*
X0041300Y0096800D01*
X0040800Y0097300D01*
X0040800Y0116300D01*
X0041300Y0116800D01*
X0041300Y0118300D01*
X0041298Y0118360D01*
X0041293Y0118421D01*
X0041284Y0118480D01*
X0041271Y0118539D01*
X0041255Y0118598D01*
X0041235Y0118655D01*
X0041212Y0118710D01*
X0041185Y0118765D01*
X0041156Y0118817D01*
X0041123Y0118868D01*
X0041087Y0118917D01*
X0041049Y0118963D01*
X0041007Y0119007D01*
X0040963Y0119049D01*
X0040917Y0119087D01*
X0040868Y0119123D01*
X0040817Y0119156D01*
X0040765Y0119185D01*
X0040710Y0119212D01*
X0040655Y0119235D01*
X0040598Y0119255D01*
X0040539Y0119271D01*
X0040480Y0119284D01*
X0040421Y0119293D01*
X0040360Y0119298D01*
X0040300Y0119300D01*
X0033300Y0119300D01*
X0033240Y0119298D01*
X0033179Y0119293D01*
X0033120Y0119284D01*
X0033061Y0119271D01*
X0033002Y0119255D01*
X0032945Y0119235D01*
X0032890Y0119212D01*
X0032835Y0119185D01*
X0032783Y0119156D01*
X0032732Y0119123D01*
X0032683Y0119087D01*
X0032637Y0119049D01*
X0032593Y0119007D01*
X0032551Y0118963D01*
X0032513Y0118917D01*
X0032477Y0118868D01*
X0032444Y0118817D01*
X0032415Y0118765D01*
X0032388Y0118710D01*
X0032365Y0118655D01*
X0032345Y0118598D01*
X0032329Y0118539D01*
X0032316Y0118480D01*
X0032307Y0118421D01*
X0032302Y0118360D01*
X0032300Y0118300D01*
X0032300Y0116800D01*
X0032800Y0116300D01*
X0032800Y0097300D01*
X0032300Y0096800D01*
X0032300Y0095300D01*
X0032302Y0095240D01*
X0032307Y0095179D01*
X0032316Y0095120D01*
X0032329Y0095061D01*
X0032345Y0095002D01*
X0032365Y0094945D01*
X0032388Y0094890D01*
X0032415Y0094835D01*
X0032444Y0094783D01*
X0032477Y0094732D01*
X0032513Y0094683D01*
X0032551Y0094637D01*
X0032593Y0094593D01*
X0032637Y0094551D01*
X0032683Y0094513D01*
X0032732Y0094477D01*
X0032783Y0094444D01*
X0032835Y0094415D01*
X0032890Y0094388D01*
X0032945Y0094365D01*
X0033002Y0094345D01*
X0033061Y0094329D01*
X0033120Y0094316D01*
X0033179Y0094307D01*
X0033240Y0094302D01*
X0033300Y0094300D01*
X0018800Y0095300D02*
X0018800Y0096800D01*
X0018300Y0097300D01*
X0018300Y0116300D01*
X0018800Y0116800D01*
X0018800Y0118300D01*
X0018798Y0118360D01*
X0018793Y0118421D01*
X0018784Y0118480D01*
X0018771Y0118539D01*
X0018755Y0118598D01*
X0018735Y0118655D01*
X0018712Y0118710D01*
X0018685Y0118765D01*
X0018656Y0118817D01*
X0018623Y0118868D01*
X0018587Y0118917D01*
X0018549Y0118963D01*
X0018507Y0119007D01*
X0018463Y0119049D01*
X0018417Y0119087D01*
X0018368Y0119123D01*
X0018317Y0119156D01*
X0018265Y0119185D01*
X0018210Y0119212D01*
X0018155Y0119235D01*
X0018098Y0119255D01*
X0018039Y0119271D01*
X0017980Y0119284D01*
X0017921Y0119293D01*
X0017860Y0119298D01*
X0017800Y0119300D01*
X0010800Y0119300D01*
X0010740Y0119298D01*
X0010679Y0119293D01*
X0010620Y0119284D01*
X0010561Y0119271D01*
X0010502Y0119255D01*
X0010445Y0119235D01*
X0010390Y0119212D01*
X0010335Y0119185D01*
X0010283Y0119156D01*
X0010232Y0119123D01*
X0010183Y0119087D01*
X0010137Y0119049D01*
X0010093Y0119007D01*
X0010051Y0118963D01*
X0010013Y0118917D01*
X0009977Y0118868D01*
X0009944Y0118817D01*
X0009915Y0118765D01*
X0009888Y0118710D01*
X0009865Y0118655D01*
X0009845Y0118598D01*
X0009829Y0118539D01*
X0009816Y0118480D01*
X0009807Y0118421D01*
X0009802Y0118360D01*
X0009800Y0118300D01*
X0009800Y0116800D01*
X0010300Y0116300D01*
X0010300Y0097300D01*
X0009800Y0096800D01*
X0009800Y0095300D01*
X0009802Y0095240D01*
X0009807Y0095179D01*
X0009816Y0095120D01*
X0009829Y0095061D01*
X0009845Y0095002D01*
X0009865Y0094945D01*
X0009888Y0094890D01*
X0009915Y0094835D01*
X0009944Y0094783D01*
X0009977Y0094732D01*
X0010013Y0094683D01*
X0010051Y0094637D01*
X0010093Y0094593D01*
X0010137Y0094551D01*
X0010183Y0094513D01*
X0010232Y0094477D01*
X0010283Y0094444D01*
X0010335Y0094415D01*
X0010390Y0094388D01*
X0010445Y0094365D01*
X0010502Y0094345D01*
X0010561Y0094329D01*
X0010620Y0094316D01*
X0010679Y0094307D01*
X0010740Y0094302D01*
X0010800Y0094300D01*
X0017800Y0094300D01*
X0017860Y0094302D01*
X0017921Y0094307D01*
X0017980Y0094316D01*
X0018039Y0094329D01*
X0018098Y0094345D01*
X0018155Y0094365D01*
X0018210Y0094388D01*
X0018265Y0094415D01*
X0018317Y0094444D01*
X0018368Y0094477D01*
X0018417Y0094513D01*
X0018463Y0094551D01*
X0018507Y0094593D01*
X0018549Y0094637D01*
X0018587Y0094683D01*
X0018623Y0094732D01*
X0018656Y0094783D01*
X0018685Y0094835D01*
X0018712Y0094890D01*
X0018735Y0094945D01*
X0018755Y0095002D01*
X0018771Y0095061D01*
X0018784Y0095120D01*
X0018793Y0095179D01*
X0018798Y0095240D01*
X0018800Y0095300D01*
X0017800Y0146800D02*
X0010800Y0146800D01*
X0010740Y0146802D01*
X0010679Y0146807D01*
X0010620Y0146816D01*
X0010561Y0146829D01*
X0010502Y0146845D01*
X0010445Y0146865D01*
X0010390Y0146888D01*
X0010335Y0146915D01*
X0010283Y0146944D01*
X0010232Y0146977D01*
X0010183Y0147013D01*
X0010137Y0147051D01*
X0010093Y0147093D01*
X0010051Y0147137D01*
X0010013Y0147183D01*
X0009977Y0147232D01*
X0009944Y0147283D01*
X0009915Y0147335D01*
X0009888Y0147390D01*
X0009865Y0147445D01*
X0009845Y0147502D01*
X0009829Y0147561D01*
X0009816Y0147620D01*
X0009807Y0147679D01*
X0009802Y0147740D01*
X0009800Y0147800D01*
X0009800Y0149300D01*
X0010300Y0149800D01*
X0010300Y0168800D01*
X0009800Y0169300D01*
X0009800Y0170800D01*
X0009802Y0170860D01*
X0009807Y0170921D01*
X0009816Y0170980D01*
X0009829Y0171039D01*
X0009845Y0171098D01*
X0009865Y0171155D01*
X0009888Y0171210D01*
X0009915Y0171265D01*
X0009944Y0171317D01*
X0009977Y0171368D01*
X0010013Y0171417D01*
X0010051Y0171463D01*
X0010093Y0171507D01*
X0010137Y0171549D01*
X0010183Y0171587D01*
X0010232Y0171623D01*
X0010283Y0171656D01*
X0010335Y0171685D01*
X0010390Y0171712D01*
X0010445Y0171735D01*
X0010502Y0171755D01*
X0010561Y0171771D01*
X0010620Y0171784D01*
X0010679Y0171793D01*
X0010740Y0171798D01*
X0010800Y0171800D01*
X0017800Y0171800D01*
X0017860Y0171798D01*
X0017921Y0171793D01*
X0017980Y0171784D01*
X0018039Y0171771D01*
X0018098Y0171755D01*
X0018155Y0171735D01*
X0018210Y0171712D01*
X0018265Y0171685D01*
X0018317Y0171656D01*
X0018368Y0171623D01*
X0018417Y0171587D01*
X0018463Y0171549D01*
X0018507Y0171507D01*
X0018549Y0171463D01*
X0018587Y0171417D01*
X0018623Y0171368D01*
X0018656Y0171317D01*
X0018685Y0171265D01*
X0018712Y0171210D01*
X0018735Y0171155D01*
X0018755Y0171098D01*
X0018771Y0171039D01*
X0018784Y0170980D01*
X0018793Y0170921D01*
X0018798Y0170860D01*
X0018800Y0170800D01*
X0018800Y0169300D01*
X0018300Y0168800D01*
X0018300Y0149800D01*
X0018800Y0149300D01*
X0018800Y0147800D01*
X0018798Y0147740D01*
X0018793Y0147679D01*
X0018784Y0147620D01*
X0018771Y0147561D01*
X0018755Y0147502D01*
X0018735Y0147445D01*
X0018712Y0147390D01*
X0018685Y0147335D01*
X0018656Y0147283D01*
X0018623Y0147232D01*
X0018587Y0147183D01*
X0018549Y0147137D01*
X0018507Y0147093D01*
X0018463Y0147051D01*
X0018417Y0147013D01*
X0018368Y0146977D01*
X0018317Y0146944D01*
X0018265Y0146915D01*
X0018210Y0146888D01*
X0018155Y0146865D01*
X0018098Y0146845D01*
X0018039Y0146829D01*
X0017980Y0146816D01*
X0017921Y0146807D01*
X0017860Y0146802D01*
X0017800Y0146800D01*
X0032300Y0147800D02*
X0032300Y0149300D01*
X0032800Y0149800D01*
X0032800Y0168800D01*
X0032300Y0169300D01*
X0032300Y0170800D01*
X0032302Y0170860D01*
X0032307Y0170921D01*
X0032316Y0170980D01*
X0032329Y0171039D01*
X0032345Y0171098D01*
X0032365Y0171155D01*
X0032388Y0171210D01*
X0032415Y0171265D01*
X0032444Y0171317D01*
X0032477Y0171368D01*
X0032513Y0171417D01*
X0032551Y0171463D01*
X0032593Y0171507D01*
X0032637Y0171549D01*
X0032683Y0171587D01*
X0032732Y0171623D01*
X0032783Y0171656D01*
X0032835Y0171685D01*
X0032890Y0171712D01*
X0032945Y0171735D01*
X0033002Y0171755D01*
X0033061Y0171771D01*
X0033120Y0171784D01*
X0033179Y0171793D01*
X0033240Y0171798D01*
X0033300Y0171800D01*
X0040300Y0171800D01*
X0040360Y0171798D01*
X0040421Y0171793D01*
X0040480Y0171784D01*
X0040539Y0171771D01*
X0040598Y0171755D01*
X0040655Y0171735D01*
X0040710Y0171712D01*
X0040765Y0171685D01*
X0040817Y0171656D01*
X0040868Y0171623D01*
X0040917Y0171587D01*
X0040963Y0171549D01*
X0041007Y0171507D01*
X0041049Y0171463D01*
X0041087Y0171417D01*
X0041123Y0171368D01*
X0041156Y0171317D01*
X0041185Y0171265D01*
X0041212Y0171210D01*
X0041235Y0171155D01*
X0041255Y0171098D01*
X0041271Y0171039D01*
X0041284Y0170980D01*
X0041293Y0170921D01*
X0041298Y0170860D01*
X0041300Y0170800D01*
X0041300Y0169300D01*
X0040800Y0168800D01*
X0040800Y0149800D01*
X0041300Y0149300D01*
X0041300Y0147800D01*
X0041298Y0147740D01*
X0041293Y0147679D01*
X0041284Y0147620D01*
X0041271Y0147561D01*
X0041255Y0147502D01*
X0041235Y0147445D01*
X0041212Y0147390D01*
X0041185Y0147335D01*
X0041156Y0147283D01*
X0041123Y0147232D01*
X0041087Y0147183D01*
X0041049Y0147137D01*
X0041007Y0147093D01*
X0040963Y0147051D01*
X0040917Y0147013D01*
X0040868Y0146977D01*
X0040817Y0146944D01*
X0040765Y0146915D01*
X0040710Y0146888D01*
X0040655Y0146865D01*
X0040598Y0146845D01*
X0040539Y0146829D01*
X0040480Y0146816D01*
X0040421Y0146807D01*
X0040360Y0146802D01*
X0040300Y0146800D01*
X0033300Y0146800D01*
X0033240Y0146802D01*
X0033179Y0146807D01*
X0033120Y0146816D01*
X0033061Y0146829D01*
X0033002Y0146845D01*
X0032945Y0146865D01*
X0032890Y0146888D01*
X0032835Y0146915D01*
X0032783Y0146944D01*
X0032732Y0146977D01*
X0032683Y0147013D01*
X0032637Y0147051D01*
X0032593Y0147093D01*
X0032551Y0147137D01*
X0032513Y0147183D01*
X0032477Y0147232D01*
X0032444Y0147283D01*
X0032415Y0147335D01*
X0032388Y0147390D01*
X0032365Y0147445D01*
X0032345Y0147502D01*
X0032329Y0147561D01*
X0032316Y0147620D01*
X0032307Y0147679D01*
X0032302Y0147740D01*
X0032300Y0147800D01*
X0088540Y0187600D02*
X0088540Y0194005D01*
X0091742Y0194005D01*
X0092810Y0192938D01*
X0092810Y0190803D01*
X0091742Y0189735D01*
X0088540Y0189735D01*
X0094985Y0187600D02*
X0099256Y0187600D01*
X0097120Y0187600D02*
X0097120Y0194005D01*
X0094985Y0191870D01*
X0126575Y0213167D02*
X0127142Y0212600D01*
X0128277Y0212600D01*
X0128844Y0213167D01*
X0128844Y0214301D01*
X0127710Y0214301D01*
X0126575Y0213167D02*
X0126575Y0215436D01*
X0127142Y0216003D01*
X0128277Y0216003D01*
X0128844Y0215436D01*
X0130258Y0216003D02*
X0130258Y0212600D01*
X0132527Y0212600D02*
X0130258Y0216003D01*
X0132527Y0216003D02*
X0132527Y0212600D01*
X0133942Y0212600D02*
X0133942Y0216003D01*
X0135643Y0216003D01*
X0136210Y0215436D01*
X0136210Y0213167D01*
X0135643Y0212600D01*
X0133942Y0212600D01*
X0139689Y0213167D02*
X0140256Y0212600D01*
X0141391Y0212600D01*
X0141958Y0213167D01*
X0141958Y0213734D01*
X0141391Y0214301D01*
X0140256Y0214301D01*
X0139689Y0214869D01*
X0139689Y0215436D01*
X0140256Y0216003D01*
X0141391Y0216003D01*
X0141958Y0215436D01*
X0143372Y0216003D02*
X0144507Y0216003D01*
X0143939Y0216003D02*
X0143939Y0212600D01*
X0143372Y0212600D02*
X0144507Y0212600D01*
X0145828Y0213167D02*
X0145828Y0215436D01*
X0146395Y0216003D01*
X0147529Y0216003D01*
X0148096Y0215436D01*
X0148096Y0214301D02*
X0146962Y0214301D01*
X0148096Y0214301D02*
X0148096Y0213167D01*
X0147529Y0212600D01*
X0146395Y0212600D01*
X0145828Y0213167D01*
X0151575Y0212600D02*
X0153844Y0212600D01*
X0152710Y0212600D02*
X0152710Y0216003D01*
X0151575Y0214869D01*
X0155258Y0215436D02*
X0155826Y0216003D01*
X0156960Y0216003D01*
X0157527Y0215436D01*
X0157527Y0214869D01*
X0155258Y0212600D01*
X0157527Y0212600D01*
X0158942Y0213734D02*
X0158942Y0216003D01*
X0161210Y0216003D02*
X0161210Y0213734D01*
X0160076Y0212600D01*
X0158942Y0213734D01*
X0165465Y0218335D02*
X0165469Y0218666D01*
X0165481Y0218997D01*
X0165502Y0219328D01*
X0165530Y0219658D01*
X0165567Y0219988D01*
X0165611Y0220316D01*
X0165664Y0220643D01*
X0165724Y0220969D01*
X0165793Y0221293D01*
X0165870Y0221615D01*
X0165954Y0221936D01*
X0166046Y0222254D01*
X0166146Y0222570D01*
X0166254Y0222883D01*
X0166370Y0223194D01*
X0166493Y0223501D01*
X0166623Y0223806D01*
X0166761Y0224107D01*
X0166906Y0224405D01*
X0167059Y0224699D01*
X0167219Y0224989D01*
X0167386Y0225275D01*
X0167559Y0225557D01*
X0167740Y0225835D01*
X0167928Y0226108D01*
X0168122Y0226377D01*
X0168322Y0226641D01*
X0168529Y0226899D01*
X0168743Y0227153D01*
X0168962Y0227401D01*
X0169188Y0227644D01*
X0169419Y0227881D01*
X0169656Y0228112D01*
X0169899Y0228338D01*
X0170147Y0228557D01*
X0170401Y0228771D01*
X0170659Y0228978D01*
X0170923Y0229178D01*
X0171192Y0229372D01*
X0171465Y0229560D01*
X0171743Y0229741D01*
X0172025Y0229914D01*
X0172311Y0230081D01*
X0172601Y0230241D01*
X0172895Y0230394D01*
X0173193Y0230539D01*
X0173494Y0230677D01*
X0173799Y0230807D01*
X0174106Y0230930D01*
X0174417Y0231046D01*
X0174730Y0231154D01*
X0175046Y0231254D01*
X0175364Y0231346D01*
X0175685Y0231430D01*
X0176007Y0231507D01*
X0176331Y0231576D01*
X0176657Y0231636D01*
X0176984Y0231689D01*
X0177312Y0231733D01*
X0177642Y0231770D01*
X0177972Y0231798D01*
X0178303Y0231819D01*
X0178634Y0231831D01*
X0178965Y0231835D01*
X0179296Y0231831D01*
X0179627Y0231819D01*
X0179958Y0231798D01*
X0180288Y0231770D01*
X0180618Y0231733D01*
X0180946Y0231689D01*
X0181273Y0231636D01*
X0181599Y0231576D01*
X0181923Y0231507D01*
X0182245Y0231430D01*
X0182566Y0231346D01*
X0182884Y0231254D01*
X0183200Y0231154D01*
X0183513Y0231046D01*
X0183824Y0230930D01*
X0184131Y0230807D01*
X0184436Y0230677D01*
X0184737Y0230539D01*
X0185035Y0230394D01*
X0185329Y0230241D01*
X0185619Y0230081D01*
X0185905Y0229914D01*
X0186187Y0229741D01*
X0186465Y0229560D01*
X0186738Y0229372D01*
X0187007Y0229178D01*
X0187271Y0228978D01*
X0187529Y0228771D01*
X0187783Y0228557D01*
X0188031Y0228338D01*
X0188274Y0228112D01*
X0188511Y0227881D01*
X0188742Y0227644D01*
X0188968Y0227401D01*
X0189187Y0227153D01*
X0189401Y0226899D01*
X0189608Y0226641D01*
X0189808Y0226377D01*
X0190002Y0226108D01*
X0190190Y0225835D01*
X0190371Y0225557D01*
X0190544Y0225275D01*
X0190711Y0224989D01*
X0190871Y0224699D01*
X0191024Y0224405D01*
X0191169Y0224107D01*
X0191307Y0223806D01*
X0191437Y0223501D01*
X0191560Y0223194D01*
X0191676Y0222883D01*
X0191784Y0222570D01*
X0191884Y0222254D01*
X0191976Y0221936D01*
X0192060Y0221615D01*
X0192137Y0221293D01*
X0192206Y0220969D01*
X0192266Y0220643D01*
X0192319Y0220316D01*
X0192363Y0219988D01*
X0192400Y0219658D01*
X0192428Y0219328D01*
X0192449Y0218997D01*
X0192461Y0218666D01*
X0192465Y0218335D01*
X0192461Y0218004D01*
X0192449Y0217673D01*
X0192428Y0217342D01*
X0192400Y0217012D01*
X0192363Y0216682D01*
X0192319Y0216354D01*
X0192266Y0216027D01*
X0192206Y0215701D01*
X0192137Y0215377D01*
X0192060Y0215055D01*
X0191976Y0214734D01*
X0191884Y0214416D01*
X0191784Y0214100D01*
X0191676Y0213787D01*
X0191560Y0213476D01*
X0191437Y0213169D01*
X0191307Y0212864D01*
X0191169Y0212563D01*
X0191024Y0212265D01*
X0190871Y0211971D01*
X0190711Y0211681D01*
X0190544Y0211395D01*
X0190371Y0211113D01*
X0190190Y0210835D01*
X0190002Y0210562D01*
X0189808Y0210293D01*
X0189608Y0210029D01*
X0189401Y0209771D01*
X0189187Y0209517D01*
X0188968Y0209269D01*
X0188742Y0209026D01*
X0188511Y0208789D01*
X0188274Y0208558D01*
X0188031Y0208332D01*
X0187783Y0208113D01*
X0187529Y0207899D01*
X0187271Y0207692D01*
X0187007Y0207492D01*
X0186738Y0207298D01*
X0186465Y0207110D01*
X0186187Y0206929D01*
X0185905Y0206756D01*
X0185619Y0206589D01*
X0185329Y0206429D01*
X0185035Y0206276D01*
X0184737Y0206131D01*
X0184436Y0205993D01*
X0184131Y0205863D01*
X0183824Y0205740D01*
X0183513Y0205624D01*
X0183200Y0205516D01*
X0182884Y0205416D01*
X0182566Y0205324D01*
X0182245Y0205240D01*
X0181923Y0205163D01*
X0181599Y0205094D01*
X0181273Y0205034D01*
X0180946Y0204981D01*
X0180618Y0204937D01*
X0180288Y0204900D01*
X0179958Y0204872D01*
X0179627Y0204851D01*
X0179296Y0204839D01*
X0178965Y0204835D01*
X0178634Y0204839D01*
X0178303Y0204851D01*
X0177972Y0204872D01*
X0177642Y0204900D01*
X0177312Y0204937D01*
X0176984Y0204981D01*
X0176657Y0205034D01*
X0176331Y0205094D01*
X0176007Y0205163D01*
X0175685Y0205240D01*
X0175364Y0205324D01*
X0175046Y0205416D01*
X0174730Y0205516D01*
X0174417Y0205624D01*
X0174106Y0205740D01*
X0173799Y0205863D01*
X0173494Y0205993D01*
X0173193Y0206131D01*
X0172895Y0206276D01*
X0172601Y0206429D01*
X0172311Y0206589D01*
X0172025Y0206756D01*
X0171743Y0206929D01*
X0171465Y0207110D01*
X0171192Y0207298D01*
X0170923Y0207492D01*
X0170659Y0207692D01*
X0170401Y0207899D01*
X0170147Y0208113D01*
X0169899Y0208332D01*
X0169656Y0208558D01*
X0169419Y0208789D01*
X0169188Y0209026D01*
X0168962Y0209269D01*
X0168743Y0209517D01*
X0168529Y0209771D01*
X0168322Y0210029D01*
X0168122Y0210293D01*
X0167928Y0210562D01*
X0167740Y0210835D01*
X0167559Y0211113D01*
X0167386Y0211395D01*
X0167219Y0211681D01*
X0167059Y0211971D01*
X0166906Y0212265D01*
X0166761Y0212563D01*
X0166623Y0212864D01*
X0166493Y0213169D01*
X0166370Y0213476D01*
X0166254Y0213787D01*
X0166146Y0214100D01*
X0166046Y0214416D01*
X0165954Y0214734D01*
X0165870Y0215055D01*
X0165793Y0215377D01*
X0165724Y0215701D01*
X0165664Y0216027D01*
X0165611Y0216354D01*
X0165567Y0216682D01*
X0165530Y0217012D01*
X0165502Y0217342D01*
X0165481Y0217673D01*
X0165469Y0218004D01*
X0165465Y0218335D01*
X0007985Y0218335D02*
X0007989Y0218666D01*
X0008001Y0218997D01*
X0008022Y0219328D01*
X0008050Y0219658D01*
X0008087Y0219988D01*
X0008131Y0220316D01*
X0008184Y0220643D01*
X0008244Y0220969D01*
X0008313Y0221293D01*
X0008390Y0221615D01*
X0008474Y0221936D01*
X0008566Y0222254D01*
X0008666Y0222570D01*
X0008774Y0222883D01*
X0008890Y0223194D01*
X0009013Y0223501D01*
X0009143Y0223806D01*
X0009281Y0224107D01*
X0009426Y0224405D01*
X0009579Y0224699D01*
X0009739Y0224989D01*
X0009906Y0225275D01*
X0010079Y0225557D01*
X0010260Y0225835D01*
X0010448Y0226108D01*
X0010642Y0226377D01*
X0010842Y0226641D01*
X0011049Y0226899D01*
X0011263Y0227153D01*
X0011482Y0227401D01*
X0011708Y0227644D01*
X0011939Y0227881D01*
X0012176Y0228112D01*
X0012419Y0228338D01*
X0012667Y0228557D01*
X0012921Y0228771D01*
X0013179Y0228978D01*
X0013443Y0229178D01*
X0013712Y0229372D01*
X0013985Y0229560D01*
X0014263Y0229741D01*
X0014545Y0229914D01*
X0014831Y0230081D01*
X0015121Y0230241D01*
X0015415Y0230394D01*
X0015713Y0230539D01*
X0016014Y0230677D01*
X0016319Y0230807D01*
X0016626Y0230930D01*
X0016937Y0231046D01*
X0017250Y0231154D01*
X0017566Y0231254D01*
X0017884Y0231346D01*
X0018205Y0231430D01*
X0018527Y0231507D01*
X0018851Y0231576D01*
X0019177Y0231636D01*
X0019504Y0231689D01*
X0019832Y0231733D01*
X0020162Y0231770D01*
X0020492Y0231798D01*
X0020823Y0231819D01*
X0021154Y0231831D01*
X0021485Y0231835D01*
X0021816Y0231831D01*
X0022147Y0231819D01*
X0022478Y0231798D01*
X0022808Y0231770D01*
X0023138Y0231733D01*
X0023466Y0231689D01*
X0023793Y0231636D01*
X0024119Y0231576D01*
X0024443Y0231507D01*
X0024765Y0231430D01*
X0025086Y0231346D01*
X0025404Y0231254D01*
X0025720Y0231154D01*
X0026033Y0231046D01*
X0026344Y0230930D01*
X0026651Y0230807D01*
X0026956Y0230677D01*
X0027257Y0230539D01*
X0027555Y0230394D01*
X0027849Y0230241D01*
X0028139Y0230081D01*
X0028425Y0229914D01*
X0028707Y0229741D01*
X0028985Y0229560D01*
X0029258Y0229372D01*
X0029527Y0229178D01*
X0029791Y0228978D01*
X0030049Y0228771D01*
X0030303Y0228557D01*
X0030551Y0228338D01*
X0030794Y0228112D01*
X0031031Y0227881D01*
X0031262Y0227644D01*
X0031488Y0227401D01*
X0031707Y0227153D01*
X0031921Y0226899D01*
X0032128Y0226641D01*
X0032328Y0226377D01*
X0032522Y0226108D01*
X0032710Y0225835D01*
X0032891Y0225557D01*
X0033064Y0225275D01*
X0033231Y0224989D01*
X0033391Y0224699D01*
X0033544Y0224405D01*
X0033689Y0224107D01*
X0033827Y0223806D01*
X0033957Y0223501D01*
X0034080Y0223194D01*
X0034196Y0222883D01*
X0034304Y0222570D01*
X0034404Y0222254D01*
X0034496Y0221936D01*
X0034580Y0221615D01*
X0034657Y0221293D01*
X0034726Y0220969D01*
X0034786Y0220643D01*
X0034839Y0220316D01*
X0034883Y0219988D01*
X0034920Y0219658D01*
X0034948Y0219328D01*
X0034969Y0218997D01*
X0034981Y0218666D01*
X0034985Y0218335D01*
X0034981Y0218004D01*
X0034969Y0217673D01*
X0034948Y0217342D01*
X0034920Y0217012D01*
X0034883Y0216682D01*
X0034839Y0216354D01*
X0034786Y0216027D01*
X0034726Y0215701D01*
X0034657Y0215377D01*
X0034580Y0215055D01*
X0034496Y0214734D01*
X0034404Y0214416D01*
X0034304Y0214100D01*
X0034196Y0213787D01*
X0034080Y0213476D01*
X0033957Y0213169D01*
X0033827Y0212864D01*
X0033689Y0212563D01*
X0033544Y0212265D01*
X0033391Y0211971D01*
X0033231Y0211681D01*
X0033064Y0211395D01*
X0032891Y0211113D01*
X0032710Y0210835D01*
X0032522Y0210562D01*
X0032328Y0210293D01*
X0032128Y0210029D01*
X0031921Y0209771D01*
X0031707Y0209517D01*
X0031488Y0209269D01*
X0031262Y0209026D01*
X0031031Y0208789D01*
X0030794Y0208558D01*
X0030551Y0208332D01*
X0030303Y0208113D01*
X0030049Y0207899D01*
X0029791Y0207692D01*
X0029527Y0207492D01*
X0029258Y0207298D01*
X0028985Y0207110D01*
X0028707Y0206929D01*
X0028425Y0206756D01*
X0028139Y0206589D01*
X0027849Y0206429D01*
X0027555Y0206276D01*
X0027257Y0206131D01*
X0026956Y0205993D01*
X0026651Y0205863D01*
X0026344Y0205740D01*
X0026033Y0205624D01*
X0025720Y0205516D01*
X0025404Y0205416D01*
X0025086Y0205324D01*
X0024765Y0205240D01*
X0024443Y0205163D01*
X0024119Y0205094D01*
X0023793Y0205034D01*
X0023466Y0204981D01*
X0023138Y0204937D01*
X0022808Y0204900D01*
X0022478Y0204872D01*
X0022147Y0204851D01*
X0021816Y0204839D01*
X0021485Y0204835D01*
X0021154Y0204839D01*
X0020823Y0204851D01*
X0020492Y0204872D01*
X0020162Y0204900D01*
X0019832Y0204937D01*
X0019504Y0204981D01*
X0019177Y0205034D01*
X0018851Y0205094D01*
X0018527Y0205163D01*
X0018205Y0205240D01*
X0017884Y0205324D01*
X0017566Y0205416D01*
X0017250Y0205516D01*
X0016937Y0205624D01*
X0016626Y0205740D01*
X0016319Y0205863D01*
X0016014Y0205993D01*
X0015713Y0206131D01*
X0015415Y0206276D01*
X0015121Y0206429D01*
X0014831Y0206589D01*
X0014545Y0206756D01*
X0014263Y0206929D01*
X0013985Y0207110D01*
X0013712Y0207298D01*
X0013443Y0207492D01*
X0013179Y0207692D01*
X0012921Y0207899D01*
X0012667Y0208113D01*
X0012419Y0208332D01*
X0012176Y0208558D01*
X0011939Y0208789D01*
X0011708Y0209026D01*
X0011482Y0209269D01*
X0011263Y0209517D01*
X0011049Y0209771D01*
X0010842Y0210029D01*
X0010642Y0210293D01*
X0010448Y0210562D01*
X0010260Y0210835D01*
X0010079Y0211113D01*
X0009906Y0211395D01*
X0009739Y0211681D01*
X0009579Y0211971D01*
X0009426Y0212265D01*
X0009281Y0212563D01*
X0009143Y0212864D01*
X0009013Y0213169D01*
X0008890Y0213476D01*
X0008774Y0213787D01*
X0008666Y0214100D01*
X0008566Y0214416D01*
X0008474Y0214734D01*
X0008390Y0215055D01*
X0008313Y0215377D01*
X0008244Y0215701D01*
X0008184Y0216027D01*
X0008131Y0216354D01*
X0008087Y0216682D01*
X0008050Y0217012D01*
X0008022Y0217342D01*
X0008001Y0217673D01*
X0007989Y0218004D01*
X0007985Y0218335D01*
X0007985Y0021485D02*
X0007989Y0021816D01*
X0008001Y0022147D01*
X0008022Y0022478D01*
X0008050Y0022808D01*
X0008087Y0023138D01*
X0008131Y0023466D01*
X0008184Y0023793D01*
X0008244Y0024119D01*
X0008313Y0024443D01*
X0008390Y0024765D01*
X0008474Y0025086D01*
X0008566Y0025404D01*
X0008666Y0025720D01*
X0008774Y0026033D01*
X0008890Y0026344D01*
X0009013Y0026651D01*
X0009143Y0026956D01*
X0009281Y0027257D01*
X0009426Y0027555D01*
X0009579Y0027849D01*
X0009739Y0028139D01*
X0009906Y0028425D01*
X0010079Y0028707D01*
X0010260Y0028985D01*
X0010448Y0029258D01*
X0010642Y0029527D01*
X0010842Y0029791D01*
X0011049Y0030049D01*
X0011263Y0030303D01*
X0011482Y0030551D01*
X0011708Y0030794D01*
X0011939Y0031031D01*
X0012176Y0031262D01*
X0012419Y0031488D01*
X0012667Y0031707D01*
X0012921Y0031921D01*
X0013179Y0032128D01*
X0013443Y0032328D01*
X0013712Y0032522D01*
X0013985Y0032710D01*
X0014263Y0032891D01*
X0014545Y0033064D01*
X0014831Y0033231D01*
X0015121Y0033391D01*
X0015415Y0033544D01*
X0015713Y0033689D01*
X0016014Y0033827D01*
X0016319Y0033957D01*
X0016626Y0034080D01*
X0016937Y0034196D01*
X0017250Y0034304D01*
X0017566Y0034404D01*
X0017884Y0034496D01*
X0018205Y0034580D01*
X0018527Y0034657D01*
X0018851Y0034726D01*
X0019177Y0034786D01*
X0019504Y0034839D01*
X0019832Y0034883D01*
X0020162Y0034920D01*
X0020492Y0034948D01*
X0020823Y0034969D01*
X0021154Y0034981D01*
X0021485Y0034985D01*
X0021816Y0034981D01*
X0022147Y0034969D01*
X0022478Y0034948D01*
X0022808Y0034920D01*
X0023138Y0034883D01*
X0023466Y0034839D01*
X0023793Y0034786D01*
X0024119Y0034726D01*
X0024443Y0034657D01*
X0024765Y0034580D01*
X0025086Y0034496D01*
X0025404Y0034404D01*
X0025720Y0034304D01*
X0026033Y0034196D01*
X0026344Y0034080D01*
X0026651Y0033957D01*
X0026956Y0033827D01*
X0027257Y0033689D01*
X0027555Y0033544D01*
X0027849Y0033391D01*
X0028139Y0033231D01*
X0028425Y0033064D01*
X0028707Y0032891D01*
X0028985Y0032710D01*
X0029258Y0032522D01*
X0029527Y0032328D01*
X0029791Y0032128D01*
X0030049Y0031921D01*
X0030303Y0031707D01*
X0030551Y0031488D01*
X0030794Y0031262D01*
X0031031Y0031031D01*
X0031262Y0030794D01*
X0031488Y0030551D01*
X0031707Y0030303D01*
X0031921Y0030049D01*
X0032128Y0029791D01*
X0032328Y0029527D01*
X0032522Y0029258D01*
X0032710Y0028985D01*
X0032891Y0028707D01*
X0033064Y0028425D01*
X0033231Y0028139D01*
X0033391Y0027849D01*
X0033544Y0027555D01*
X0033689Y0027257D01*
X0033827Y0026956D01*
X0033957Y0026651D01*
X0034080Y0026344D01*
X0034196Y0026033D01*
X0034304Y0025720D01*
X0034404Y0025404D01*
X0034496Y0025086D01*
X0034580Y0024765D01*
X0034657Y0024443D01*
X0034726Y0024119D01*
X0034786Y0023793D01*
X0034839Y0023466D01*
X0034883Y0023138D01*
X0034920Y0022808D01*
X0034948Y0022478D01*
X0034969Y0022147D01*
X0034981Y0021816D01*
X0034985Y0021485D01*
X0034981Y0021154D01*
X0034969Y0020823D01*
X0034948Y0020492D01*
X0034920Y0020162D01*
X0034883Y0019832D01*
X0034839Y0019504D01*
X0034786Y0019177D01*
X0034726Y0018851D01*
X0034657Y0018527D01*
X0034580Y0018205D01*
X0034496Y0017884D01*
X0034404Y0017566D01*
X0034304Y0017250D01*
X0034196Y0016937D01*
X0034080Y0016626D01*
X0033957Y0016319D01*
X0033827Y0016014D01*
X0033689Y0015713D01*
X0033544Y0015415D01*
X0033391Y0015121D01*
X0033231Y0014831D01*
X0033064Y0014545D01*
X0032891Y0014263D01*
X0032710Y0013985D01*
X0032522Y0013712D01*
X0032328Y0013443D01*
X0032128Y0013179D01*
X0031921Y0012921D01*
X0031707Y0012667D01*
X0031488Y0012419D01*
X0031262Y0012176D01*
X0031031Y0011939D01*
X0030794Y0011708D01*
X0030551Y0011482D01*
X0030303Y0011263D01*
X0030049Y0011049D01*
X0029791Y0010842D01*
X0029527Y0010642D01*
X0029258Y0010448D01*
X0028985Y0010260D01*
X0028707Y0010079D01*
X0028425Y0009906D01*
X0028139Y0009739D01*
X0027849Y0009579D01*
X0027555Y0009426D01*
X0027257Y0009281D01*
X0026956Y0009143D01*
X0026651Y0009013D01*
X0026344Y0008890D01*
X0026033Y0008774D01*
X0025720Y0008666D01*
X0025404Y0008566D01*
X0025086Y0008474D01*
X0024765Y0008390D01*
X0024443Y0008313D01*
X0024119Y0008244D01*
X0023793Y0008184D01*
X0023466Y0008131D01*
X0023138Y0008087D01*
X0022808Y0008050D01*
X0022478Y0008022D01*
X0022147Y0008001D01*
X0021816Y0007989D01*
X0021485Y0007985D01*
X0021154Y0007989D01*
X0020823Y0008001D01*
X0020492Y0008022D01*
X0020162Y0008050D01*
X0019832Y0008087D01*
X0019504Y0008131D01*
X0019177Y0008184D01*
X0018851Y0008244D01*
X0018527Y0008313D01*
X0018205Y0008390D01*
X0017884Y0008474D01*
X0017566Y0008566D01*
X0017250Y0008666D01*
X0016937Y0008774D01*
X0016626Y0008890D01*
X0016319Y0009013D01*
X0016014Y0009143D01*
X0015713Y0009281D01*
X0015415Y0009426D01*
X0015121Y0009579D01*
X0014831Y0009739D01*
X0014545Y0009906D01*
X0014263Y0010079D01*
X0013985Y0010260D01*
X0013712Y0010448D01*
X0013443Y0010642D01*
X0013179Y0010842D01*
X0012921Y0011049D01*
X0012667Y0011263D01*
X0012419Y0011482D01*
X0012176Y0011708D01*
X0011939Y0011939D01*
X0011708Y0012176D01*
X0011482Y0012419D01*
X0011263Y0012667D01*
X0011049Y0012921D01*
X0010842Y0013179D01*
X0010642Y0013443D01*
X0010448Y0013712D01*
X0010260Y0013985D01*
X0010079Y0014263D01*
X0009906Y0014545D01*
X0009739Y0014831D01*
X0009579Y0015121D01*
X0009426Y0015415D01*
X0009281Y0015713D01*
X0009143Y0016014D01*
X0009013Y0016319D01*
X0008890Y0016626D01*
X0008774Y0016937D01*
X0008666Y0017250D01*
X0008566Y0017566D01*
X0008474Y0017884D01*
X0008390Y0018205D01*
X0008313Y0018527D01*
X0008244Y0018851D01*
X0008184Y0019177D01*
X0008131Y0019504D01*
X0008087Y0019832D01*
X0008050Y0020162D01*
X0008022Y0020492D01*
X0008001Y0020823D01*
X0007989Y0021154D01*
X0007985Y0021485D01*
D16*
X0014300Y0092600D03*
X0036800Y0092600D03*
X0036800Y0121000D03*
X0036800Y0145100D03*
X0014300Y0145100D03*
X0014300Y0121000D03*
X0014300Y0173500D03*
X0036800Y0173500D03*
X0166800Y0121000D03*
X0184300Y0130100D03*
X0184300Y0158500D03*
X0166800Y0092600D03*
X0166800Y0073500D03*
X0166800Y0045100D03*
D17*
X0174028Y0056375D02*
X0174028Y0058145D01*
X0174618Y0058735D01*
X0175798Y0058735D01*
X0176388Y0058145D01*
X0176388Y0056375D01*
X0176388Y0057555D02*
X0177569Y0058735D01*
X0176979Y0060000D02*
X0177569Y0060590D01*
X0177569Y0061770D01*
X0176979Y0062360D01*
X0175798Y0062360D01*
X0175208Y0061770D01*
X0175208Y0061180D01*
X0175798Y0060000D01*
X0174028Y0060000D01*
X0174028Y0062360D01*
X0174028Y0056375D02*
X0177569Y0056375D01*
X0191954Y0067524D02*
X0192478Y0067000D01*
X0193003Y0067000D01*
X0193527Y0067524D01*
X0193527Y0068573D01*
X0194051Y0069097D01*
X0194576Y0069097D01*
X0195100Y0068573D01*
X0195100Y0067524D01*
X0194576Y0067000D01*
X0191954Y0067524D02*
X0191954Y0068573D01*
X0192478Y0069097D01*
X0191954Y0070263D02*
X0191954Y0072360D01*
X0191954Y0071311D02*
X0195100Y0071311D01*
X0195100Y0073525D02*
X0195100Y0075623D01*
X0195100Y0076788D02*
X0191954Y0076788D01*
X0191954Y0078361D01*
X0192478Y0078885D01*
X0193527Y0078885D01*
X0194051Y0078361D01*
X0194051Y0076788D01*
X0193527Y0074574D02*
X0193527Y0073525D01*
X0191954Y0073525D02*
X0191954Y0075623D01*
X0191954Y0073525D02*
X0195100Y0073525D01*
X0194576Y0080050D02*
X0191954Y0080050D01*
X0191954Y0082148D02*
X0194576Y0082148D01*
X0195100Y0081623D01*
X0195100Y0080575D01*
X0194576Y0080050D01*
X0195100Y0083313D02*
X0191954Y0083313D01*
X0191954Y0084886D01*
X0192478Y0085410D01*
X0193527Y0085410D01*
X0194051Y0084886D01*
X0194051Y0083313D01*
X0177069Y0105375D02*
X0173528Y0105375D01*
X0173528Y0107145D01*
X0174118Y0107735D01*
X0175298Y0107735D01*
X0175888Y0107145D01*
X0175888Y0105375D01*
X0175888Y0106555D02*
X0177069Y0107735D01*
X0176479Y0109000D02*
X0177069Y0109590D01*
X0177069Y0110770D01*
X0176479Y0111360D01*
X0175888Y0111360D01*
X0175298Y0110770D01*
X0175298Y0110180D01*
X0175298Y0110770D02*
X0174708Y0111360D01*
X0174118Y0111360D01*
X0173528Y0110770D01*
X0173528Y0109590D01*
X0174118Y0109000D01*
X0189028Y0141375D02*
X0189028Y0143145D01*
X0189618Y0143735D01*
X0190798Y0143735D01*
X0191388Y0143145D01*
X0191388Y0141375D01*
X0191388Y0142555D02*
X0192569Y0143735D01*
X0190798Y0145000D02*
X0190798Y0147360D01*
X0189028Y0146770D02*
X0192569Y0146770D01*
X0190798Y0145000D02*
X0189028Y0146770D01*
X0189028Y0141375D02*
X0192569Y0141375D01*
X0172069Y0156152D02*
X0171479Y0155562D01*
X0169118Y0155562D01*
X0168528Y0156152D01*
X0168528Y0157332D01*
X0169118Y0157922D01*
X0171479Y0157922D01*
X0172069Y0157332D01*
X0172069Y0156152D01*
X0172069Y0159187D02*
X0168528Y0159187D01*
X0170298Y0159777D02*
X0172069Y0161547D01*
X0172069Y0162813D02*
X0172069Y0165173D01*
X0172069Y0163993D02*
X0168528Y0163993D01*
X0169708Y0162813D01*
X0168528Y0161547D02*
X0170888Y0159187D01*
X0126095Y0126837D02*
X0126095Y0125102D01*
X0125228Y0124235D01*
X0122626Y0124235D01*
X0124360Y0124235D02*
X0126095Y0122500D01*
X0122626Y0122500D02*
X0122626Y0127704D01*
X0125228Y0127704D01*
X0126095Y0126837D01*
X0120939Y0125970D02*
X0120939Y0122500D01*
X0120939Y0125102D02*
X0117469Y0125102D01*
X0117469Y0125970D02*
X0117469Y0122500D01*
X0115782Y0122500D02*
X0112313Y0122500D01*
X0112313Y0127704D01*
X0115782Y0127704D01*
X0117469Y0125970D02*
X0119204Y0127704D01*
X0120939Y0125970D01*
X0118361Y0130900D02*
X0118361Y0134370D01*
X0116626Y0136104D01*
X0114891Y0134370D01*
X0114891Y0130900D01*
X0113204Y0130900D02*
X0113204Y0136104D01*
X0114891Y0133502D02*
X0118361Y0133502D01*
X0113204Y0130900D02*
X0109735Y0136104D01*
X0109735Y0130900D01*
X0108048Y0130900D02*
X0108048Y0136104D01*
X0104578Y0136104D02*
X0104578Y0130900D01*
X0102891Y0130900D02*
X0099422Y0130900D01*
X0099422Y0136104D01*
X0102891Y0136104D01*
X0104578Y0136104D02*
X0108048Y0130900D01*
X0107156Y0127704D02*
X0107156Y0122500D01*
X0110626Y0122500D01*
X0112313Y0125102D02*
X0114048Y0125102D01*
X0105470Y0123367D02*
X0104602Y0122500D01*
X0102867Y0122500D01*
X0102000Y0123367D01*
X0102000Y0126837D01*
X0102867Y0127704D01*
X0104602Y0127704D01*
X0105470Y0126837D01*
X0101157Y0133502D02*
X0099422Y0133502D01*
X0097735Y0136104D02*
X0094265Y0136104D01*
X0092579Y0136104D02*
X0092579Y0130900D01*
X0089109Y0136104D01*
X0089109Y0130900D01*
X0087422Y0130900D02*
X0087422Y0134370D01*
X0085687Y0136104D01*
X0083953Y0134370D01*
X0083953Y0130900D01*
X0083953Y0133502D02*
X0087422Y0133502D01*
X0086531Y0127704D02*
X0086531Y0122500D01*
X0090000Y0122500D01*
X0091687Y0122500D02*
X0091687Y0127704D01*
X0094289Y0127704D01*
X0095157Y0126837D01*
X0095157Y0125102D01*
X0094289Y0124235D01*
X0091687Y0124235D01*
X0088266Y0125102D02*
X0086531Y0125102D01*
X0084844Y0122500D02*
X0081374Y0122500D01*
X0081374Y0127704D01*
X0084844Y0127704D01*
X0086531Y0127704D02*
X0090000Y0127704D01*
X0096000Y0130900D02*
X0096000Y0136104D01*
X0083109Y0125102D02*
X0081374Y0125102D01*
X0079688Y0122500D02*
X0077085Y0125102D01*
X0076218Y0124235D02*
X0079688Y0127704D01*
X0076218Y0127704D02*
X0076218Y0122500D01*
X0047069Y0106500D02*
X0046479Y0106500D01*
X0044118Y0108860D01*
X0043528Y0108860D01*
X0043528Y0106500D01*
X0044118Y0105235D02*
X0043528Y0104645D01*
X0043528Y0102875D01*
X0047069Y0102875D01*
X0045888Y0102875D02*
X0045888Y0104645D01*
X0045298Y0105235D01*
X0044118Y0105235D01*
X0045888Y0104055D02*
X0047069Y0105235D01*
X0025069Y0106235D02*
X0023888Y0105055D01*
X0023888Y0105645D02*
X0023888Y0103875D01*
X0025069Y0103875D02*
X0021528Y0103875D01*
X0021528Y0105645D01*
X0022118Y0106235D01*
X0023298Y0106235D01*
X0023888Y0105645D01*
X0022708Y0107500D02*
X0021528Y0108680D01*
X0025069Y0108680D01*
X0025069Y0107500D02*
X0025069Y0109860D01*
X0024569Y0155375D02*
X0021028Y0155375D01*
X0021028Y0157145D01*
X0021618Y0157735D01*
X0022798Y0157735D01*
X0023388Y0157145D01*
X0023388Y0155375D01*
X0023388Y0156555D02*
X0024569Y0157735D01*
X0023979Y0159000D02*
X0022798Y0159000D01*
X0022798Y0160770D01*
X0023388Y0161360D01*
X0023979Y0161360D01*
X0024569Y0160770D01*
X0024569Y0159590D01*
X0023979Y0159000D01*
X0022798Y0159000D02*
X0021618Y0160180D01*
X0021028Y0161360D01*
X0044028Y0161770D02*
X0044028Y0160590D01*
X0044618Y0160000D01*
X0044618Y0158735D02*
X0045798Y0158735D01*
X0046388Y0158145D01*
X0046388Y0156375D01*
X0046388Y0157555D02*
X0047569Y0158735D01*
X0047569Y0160000D02*
X0045208Y0162360D01*
X0044618Y0162360D01*
X0044028Y0161770D01*
X0044618Y0158735D02*
X0044028Y0158145D01*
X0044028Y0156375D01*
X0047569Y0156375D01*
X0047569Y0160000D02*
X0047569Y0162360D01*
X0087000Y0068104D02*
X0087000Y0062900D01*
X0088735Y0064635D01*
X0090470Y0062900D01*
X0090470Y0068104D01*
X0093024Y0066370D02*
X0092156Y0065502D01*
X0092156Y0063767D01*
X0093024Y0062900D01*
X0094759Y0062900D01*
X0095626Y0064635D02*
X0092156Y0064635D01*
X0093024Y0066370D02*
X0094759Y0066370D01*
X0095626Y0065502D01*
X0095626Y0064635D01*
X0097313Y0062900D02*
X0097313Y0068104D01*
X0099048Y0066370D01*
X0100782Y0068104D01*
X0100782Y0062900D01*
X0102469Y0063767D02*
X0103337Y0062900D01*
X0105071Y0062900D01*
X0105939Y0063767D01*
X0105939Y0065502D01*
X0105071Y0066370D01*
X0103337Y0066370D01*
X0102469Y0065502D01*
X0102469Y0063767D01*
X0107626Y0062900D02*
X0110228Y0062900D01*
X0111095Y0063767D01*
X0110228Y0064635D01*
X0108493Y0064635D01*
X0107626Y0065502D01*
X0108493Y0066370D01*
X0111095Y0066370D01*
X0112782Y0063767D02*
X0113649Y0063767D01*
X0113649Y0062900D01*
X0112782Y0062900D01*
X0112782Y0063767D01*
X0115360Y0063767D02*
X0116228Y0062900D01*
X0118830Y0062900D01*
X0120517Y0063767D02*
X0121384Y0062900D01*
X0123986Y0062900D01*
X0123986Y0066370D02*
X0121384Y0066370D01*
X0120517Y0065502D01*
X0120517Y0063767D01*
X0118830Y0066370D02*
X0116228Y0066370D01*
X0115360Y0065502D01*
X0115360Y0063767D01*
X0117087Y0060572D02*
X0117087Y0059704D01*
X0117087Y0057970D02*
X0117087Y0054500D01*
X0116220Y0054500D02*
X0117954Y0054500D01*
X0117087Y0057970D02*
X0116220Y0057970D01*
X0114533Y0057102D02*
X0114533Y0054500D01*
X0114533Y0057102D02*
X0113665Y0057970D01*
X0111063Y0057970D01*
X0111063Y0054500D01*
X0109360Y0054500D02*
X0107626Y0054500D01*
X0108493Y0054500D02*
X0108493Y0057970D01*
X0107626Y0057970D01*
X0105939Y0057102D02*
X0105939Y0054500D01*
X0104204Y0054500D02*
X0104204Y0057102D01*
X0105071Y0057970D01*
X0105939Y0057102D01*
X0104204Y0057102D02*
X0103337Y0057970D01*
X0102469Y0057970D01*
X0102469Y0054500D01*
X0095626Y0054500D02*
X0092156Y0054500D01*
X0093891Y0054500D02*
X0093891Y0059704D01*
X0092156Y0057970D01*
X0090470Y0058837D02*
X0090470Y0055367D01*
X0089602Y0054500D01*
X0087000Y0054500D01*
X0087000Y0059704D01*
X0089602Y0059704D01*
X0090470Y0058837D01*
X0108493Y0059704D02*
X0108493Y0060572D01*
X0109289Y0034704D02*
X0107555Y0034704D01*
X0106687Y0033837D01*
X0106687Y0032970D01*
X0107555Y0032102D01*
X0109289Y0032102D01*
X0110157Y0031235D01*
X0110157Y0030367D01*
X0109289Y0029500D01*
X0107555Y0029500D01*
X0106687Y0030367D01*
X0105000Y0030367D02*
X0105000Y0033837D01*
X0104133Y0034704D01*
X0102398Y0034704D01*
X0101531Y0033837D01*
X0101531Y0030367D01*
X0102398Y0029500D01*
X0104133Y0029500D01*
X0105000Y0030367D01*
X0099844Y0029500D02*
X0099844Y0034704D01*
X0098109Y0032970D01*
X0096374Y0034704D01*
X0096374Y0029500D01*
X0094688Y0029500D02*
X0091218Y0029500D01*
X0091218Y0034704D01*
X0094688Y0034704D01*
X0092953Y0032102D02*
X0091218Y0032102D01*
X0089531Y0029500D02*
X0089531Y0034704D01*
X0087796Y0031235D02*
X0089531Y0029500D01*
X0087796Y0031235D02*
X0086062Y0029500D01*
X0086062Y0034704D01*
X0109289Y0034704D02*
X0110157Y0033837D01*
X0111844Y0032970D02*
X0113578Y0034704D01*
X0113578Y0029500D01*
X0111844Y0029500D02*
X0115313Y0029500D01*
X0030069Y0050875D02*
X0030069Y0052645D01*
X0029479Y0053235D01*
X0027118Y0053235D01*
X0026528Y0052645D01*
X0026528Y0050875D01*
X0030069Y0050875D01*
X0030069Y0054500D02*
X0030069Y0056860D01*
X0030069Y0055680D02*
X0026528Y0055680D01*
X0027708Y0054500D01*
X0018569Y0051860D02*
X0018569Y0049500D01*
X0018569Y0050680D02*
X0015028Y0050680D01*
X0016208Y0049500D01*
X0015028Y0048235D02*
X0015028Y0045875D01*
X0015028Y0047055D02*
X0018569Y0047055D01*
D18*
X0058645Y0022327D02*
X0058645Y0020025D01*
X0058645Y0020792D02*
X0059796Y0020792D01*
X0060180Y0021176D01*
X0060180Y0021943D01*
X0059796Y0022327D01*
X0058645Y0022327D01*
X0059412Y0020792D02*
X0060180Y0020025D01*
X0060947Y0020025D02*
X0062482Y0020025D01*
X0063249Y0020409D02*
X0063633Y0020025D01*
X0064400Y0020025D01*
X0064784Y0020409D01*
X0064784Y0020792D01*
X0064400Y0021176D01*
X0063633Y0021176D01*
X0063249Y0021560D01*
X0063249Y0021943D01*
X0063633Y0022327D01*
X0064400Y0022327D01*
X0064784Y0021943D01*
X0065551Y0022327D02*
X0065551Y0020025D01*
X0067086Y0020025D01*
X0066318Y0021176D02*
X0065551Y0021176D01*
X0065551Y0022327D02*
X0067086Y0022327D01*
X0067853Y0022327D02*
X0069388Y0022327D01*
X0068620Y0022327D02*
X0068620Y0020025D01*
X0068620Y0018577D02*
X0068620Y0016275D01*
X0067853Y0016659D02*
X0067469Y0016275D01*
X0066702Y0016275D01*
X0066318Y0016659D01*
X0066318Y0018193D01*
X0066702Y0018577D01*
X0067469Y0018577D01*
X0067853Y0018193D01*
X0068620Y0017426D02*
X0070155Y0017426D01*
X0070155Y0018577D02*
X0070155Y0016275D01*
X0065551Y0018577D02*
X0064016Y0018577D01*
X0063249Y0018577D02*
X0062482Y0018577D01*
X0062865Y0018577D02*
X0062865Y0016275D01*
X0062482Y0016275D02*
X0063249Y0016275D01*
X0064784Y0016275D02*
X0064784Y0018577D01*
X0061714Y0018577D02*
X0061714Y0016275D01*
X0060947Y0017042D01*
X0060180Y0016275D01*
X0060180Y0018577D01*
X0059412Y0018193D02*
X0059029Y0018577D01*
X0058261Y0018577D01*
X0057878Y0018193D01*
X0057878Y0017810D01*
X0058261Y0017426D01*
X0059029Y0017426D01*
X0059412Y0017042D01*
X0059412Y0016659D01*
X0059029Y0016275D01*
X0058261Y0016275D01*
X0057878Y0016659D01*
X0060947Y0020025D02*
X0060947Y0022327D01*
X0062482Y0022327D01*
X0061714Y0021176D02*
X0060947Y0021176D01*
X0062367Y0037900D02*
X0061900Y0038367D01*
X0062367Y0037900D02*
X0063301Y0037900D01*
X0063768Y0038367D01*
X0063768Y0038834D01*
X0063301Y0039301D01*
X0062834Y0039301D01*
X0063301Y0039301D02*
X0063768Y0039768D01*
X0063768Y0040235D01*
X0063301Y0040702D01*
X0062367Y0040702D01*
X0061900Y0040235D01*
X0064662Y0040702D02*
X0064662Y0038834D01*
X0065596Y0037900D01*
X0066531Y0038834D01*
X0066531Y0040702D01*
X0067425Y0040235D02*
X0067892Y0040702D01*
X0068826Y0040702D01*
X0069293Y0040235D01*
X0069293Y0039768D01*
X0068826Y0039301D01*
X0069293Y0038834D01*
X0069293Y0038367D01*
X0068826Y0037900D01*
X0067892Y0037900D01*
X0067425Y0038367D01*
X0068359Y0039301D02*
X0068826Y0039301D01*
X0066064Y0047900D02*
X0065129Y0047900D01*
X0064662Y0048367D01*
X0064662Y0048834D01*
X0065129Y0049301D01*
X0066064Y0049301D01*
X0066531Y0048834D01*
X0066531Y0048367D01*
X0066064Y0047900D01*
X0066064Y0049301D02*
X0066531Y0049768D01*
X0066531Y0050235D01*
X0066064Y0050702D01*
X0065129Y0050702D01*
X0064662Y0050235D01*
X0064662Y0049768D01*
X0065129Y0049301D01*
X0063768Y0048367D02*
X0063768Y0050235D01*
X0063301Y0050702D01*
X0061900Y0050702D01*
X0061900Y0047900D01*
X0063301Y0047900D01*
X0063768Y0048367D01*
X0063301Y0057900D02*
X0063768Y0058367D01*
X0063768Y0060235D01*
X0063301Y0060702D01*
X0061900Y0060702D01*
X0061900Y0057900D01*
X0063301Y0057900D01*
X0064662Y0057900D02*
X0064662Y0058367D01*
X0066531Y0060235D01*
X0066531Y0060702D01*
X0064662Y0060702D01*
X0065129Y0067900D02*
X0066064Y0067900D01*
X0066531Y0068367D01*
X0066531Y0068834D01*
X0066064Y0069301D01*
X0064662Y0069301D01*
X0064662Y0068367D01*
X0065129Y0067900D01*
X0063768Y0068367D02*
X0063768Y0070235D01*
X0063301Y0070702D01*
X0061900Y0070702D01*
X0061900Y0067900D01*
X0063301Y0067900D01*
X0063768Y0068367D01*
X0064662Y0069301D02*
X0065596Y0070235D01*
X0066531Y0070702D01*
X0066064Y0077900D02*
X0065129Y0077900D01*
X0064662Y0078367D01*
X0063768Y0078367D02*
X0063768Y0080235D01*
X0063301Y0080702D01*
X0061900Y0080702D01*
X0061900Y0077900D01*
X0063301Y0077900D01*
X0063768Y0078367D01*
X0064662Y0079301D02*
X0065596Y0079768D01*
X0066064Y0079768D01*
X0066531Y0079301D01*
X0066531Y0078367D01*
X0066064Y0077900D01*
X0064662Y0079301D02*
X0064662Y0080702D01*
X0066531Y0080702D01*
X0066064Y0087900D02*
X0065129Y0087900D01*
X0064662Y0088367D01*
X0066531Y0090235D01*
X0066531Y0088367D01*
X0066064Y0087900D01*
X0064662Y0088367D02*
X0064662Y0090235D01*
X0065129Y0090702D01*
X0066064Y0090702D01*
X0066531Y0090235D01*
X0063768Y0090235D02*
X0063768Y0088367D01*
X0063301Y0087900D01*
X0061900Y0087900D01*
X0061900Y0090702D01*
X0063301Y0090702D01*
X0063768Y0090235D01*
X0063768Y0097900D02*
X0063768Y0099768D01*
X0062834Y0100702D01*
X0061900Y0099768D01*
X0061900Y0097900D01*
X0061900Y0099301D02*
X0063768Y0099301D01*
X0064662Y0098367D02*
X0064662Y0100235D01*
X0065129Y0100702D01*
X0066064Y0100702D01*
X0066531Y0100235D01*
X0064662Y0098367D01*
X0065129Y0097900D01*
X0066064Y0097900D01*
X0066531Y0098367D01*
X0066531Y0100235D01*
X0066064Y0107900D02*
X0065129Y0107900D01*
X0064662Y0108367D01*
X0063768Y0107900D02*
X0062834Y0108834D01*
X0063301Y0108834D02*
X0061900Y0108834D01*
X0061900Y0107900D02*
X0061900Y0110702D01*
X0063301Y0110702D01*
X0063768Y0110235D01*
X0063768Y0109301D01*
X0063301Y0108834D01*
X0064662Y0109768D02*
X0065129Y0109301D01*
X0066064Y0109301D01*
X0066531Y0108834D01*
X0066531Y0108367D01*
X0066064Y0107900D01*
X0068359Y0107900D02*
X0068359Y0110702D01*
X0067425Y0110702D02*
X0069293Y0110702D01*
X0066531Y0110235D02*
X0066064Y0110702D01*
X0065129Y0110702D01*
X0064662Y0110235D01*
X0064662Y0109768D01*
X0133613Y0050235D02*
X0133613Y0048367D01*
X0134080Y0047900D01*
X0135014Y0047900D01*
X0135481Y0048367D01*
X0135481Y0049301D01*
X0134547Y0049301D01*
X0133613Y0050235D02*
X0134080Y0050702D01*
X0135014Y0050702D01*
X0135481Y0050235D01*
X0136375Y0050702D02*
X0138244Y0047900D01*
X0138244Y0050702D01*
X0139138Y0050702D02*
X0139138Y0047900D01*
X0140539Y0047900D01*
X0141006Y0048367D01*
X0141006Y0050235D01*
X0140539Y0050702D01*
X0139138Y0050702D01*
X0136375Y0050702D02*
X0136375Y0047900D01*
X0136375Y0040702D02*
X0136375Y0039301D01*
X0137309Y0039768D01*
X0137776Y0039768D01*
X0138244Y0039301D01*
X0138244Y0038367D01*
X0137776Y0037900D01*
X0136842Y0037900D01*
X0136375Y0038367D01*
X0136375Y0040702D02*
X0138244Y0040702D01*
X0139138Y0040702D02*
X0139138Y0038834D01*
X0140072Y0037900D01*
X0141006Y0038834D01*
X0141006Y0040702D01*
X0140539Y0057900D02*
X0140539Y0060702D01*
X0139138Y0059301D01*
X0141006Y0059301D01*
X0138244Y0058367D02*
X0138244Y0060235D01*
X0137776Y0060702D01*
X0136375Y0060702D01*
X0136375Y0057900D01*
X0137776Y0057900D01*
X0138244Y0058367D01*
X0137776Y0067900D02*
X0136375Y0067900D01*
X0136375Y0070702D01*
X0137776Y0070702D01*
X0138244Y0070235D01*
X0138244Y0068367D01*
X0137776Y0067900D01*
X0139138Y0068367D02*
X0139605Y0067900D01*
X0140539Y0067900D01*
X0141006Y0068367D01*
X0141006Y0068834D01*
X0140539Y0069301D01*
X0140072Y0069301D01*
X0140539Y0069301D02*
X0141006Y0069768D01*
X0141006Y0070235D01*
X0140539Y0070702D01*
X0139605Y0070702D01*
X0139138Y0070235D01*
X0139138Y0077900D02*
X0141006Y0079768D01*
X0141006Y0080235D01*
X0140539Y0080702D01*
X0139605Y0080702D01*
X0139138Y0080235D01*
X0138244Y0080235D02*
X0137776Y0080702D01*
X0136375Y0080702D01*
X0136375Y0077900D01*
X0137776Y0077900D01*
X0138244Y0078367D01*
X0138244Y0080235D01*
X0139138Y0077900D02*
X0141006Y0077900D01*
X0141006Y0087900D02*
X0139138Y0087900D01*
X0140072Y0087900D02*
X0140072Y0090702D01*
X0139138Y0089768D01*
X0138244Y0090235D02*
X0138244Y0088367D01*
X0137776Y0087900D01*
X0136375Y0087900D01*
X0136375Y0090702D01*
X0137776Y0090702D01*
X0138244Y0090235D01*
X0138244Y0097900D02*
X0137309Y0098834D01*
X0137776Y0098834D02*
X0136375Y0098834D01*
X0136375Y0097900D02*
X0136375Y0100702D01*
X0137776Y0100702D01*
X0138244Y0100235D01*
X0138244Y0099301D01*
X0137776Y0098834D01*
X0139138Y0097900D02*
X0141006Y0100702D01*
X0139138Y0100702D02*
X0141006Y0097900D01*
X0141006Y0107900D02*
X0139138Y0110702D01*
X0138244Y0110702D02*
X0136375Y0110702D01*
X0137309Y0110702D02*
X0137309Y0107900D01*
X0139138Y0107900D02*
X0141006Y0110702D01*
D19*
X0105643Y0019153D02*
X0103792Y0019153D01*
X0103792Y0015450D01*
X0105643Y0015450D01*
X0106260Y0016067D01*
X0106260Y0016684D01*
X0105643Y0017302D01*
X0103792Y0017302D01*
X0102577Y0016684D02*
X0102577Y0016067D01*
X0101960Y0015450D01*
X0100726Y0015450D01*
X0100108Y0016067D01*
X0098894Y0016067D02*
X0098894Y0019153D01*
X0100108Y0018536D02*
X0100108Y0017919D01*
X0100726Y0017302D01*
X0101960Y0017302D01*
X0102577Y0016684D01*
X0102577Y0018536D02*
X0101960Y0019153D01*
X0100726Y0019153D01*
X0100108Y0018536D01*
X0098894Y0016067D02*
X0098277Y0015450D01*
X0097042Y0015450D01*
X0096425Y0016067D01*
X0096425Y0019153D01*
X0095825Y0013153D02*
X0094590Y0011919D01*
X0093356Y0013153D01*
X0093356Y0009450D01*
X0095825Y0009450D02*
X0095825Y0013153D01*
X0097039Y0013153D02*
X0098274Y0013153D01*
X0097656Y0013153D02*
X0097656Y0009450D01*
X0097039Y0009450D02*
X0098274Y0009450D01*
X0099495Y0010067D02*
X0099495Y0012536D01*
X0100112Y0013153D01*
X0101346Y0013153D01*
X0101963Y0012536D01*
X0103178Y0013153D02*
X0105029Y0013153D01*
X0105646Y0012536D01*
X0105646Y0011302D01*
X0105029Y0010684D01*
X0103178Y0010684D01*
X0103178Y0009450D02*
X0103178Y0013153D01*
X0104412Y0010684D02*
X0105646Y0009450D01*
X0106861Y0010067D02*
X0107478Y0009450D01*
X0108712Y0009450D01*
X0109330Y0010067D01*
X0109330Y0012536D01*
X0108712Y0013153D01*
X0107478Y0013153D01*
X0106861Y0012536D01*
X0106861Y0010067D01*
X0101963Y0010067D02*
X0101346Y0009450D01*
X0100112Y0009450D01*
X0099495Y0010067D01*
X0105643Y0017302D02*
X0106260Y0017919D01*
X0106260Y0018536D01*
X0105643Y0019153D01*
D20*
X0124381Y0216505D02*
X0062881Y0216505D01*
D21*
X0064448Y0213940D03*
X0122814Y0213940D03*
D22*
X0036800Y0059800D03*
D23*
X0036800Y0066050D03*
X0036800Y0042550D03*
M02*
