%
M48
M72
T01C0.01200
T02C0.03200
T03C0.03543
T04C0.04000
T05C0.04400
T06C0.04724
T07C0.07480
T08C0.11811
T09C0.12800
%
T01
X106131Y119910
T02
X14300Y179300
X36800Y179300
X36800Y139300
X36800Y126800
X14300Y126800
X14300Y139300
X14300Y86800
X21800Y74300
X16800Y66800
X26800Y66800
X36800Y86800
X131800Y144300
X141800Y144300
X151800Y144300
X161800Y144300
X166800Y126800
X184300Y124300
X166800Y86800
X166800Y79300
X166800Y39300
X184300Y164300
X161800Y174300
X151800Y174300
X141800Y174300
X131800Y174300
T03
X81131Y159300
X86131Y149300
X91131Y159300
X96131Y149300
X101131Y159300
X106131Y149300
T04
X56800Y39300
X56800Y49300
X56800Y59300
X56800Y69300
X56800Y79300
X56800Y89300
X56800Y99300
X56800Y109300
X146800Y109300
X146800Y99300
X146800Y89300
X146800Y79300
X146800Y69300
X146800Y59300
X146800Y49300
X146800Y39300
X184300Y61800
X184300Y71800
X184300Y81800
X184300Y91800
T05
X36800Y74300
X36800Y34300
T06
X58080Y196800
X44300Y196800
X129300Y196800
X143080Y196800
X156859Y196800
T07
X66131Y149800
X66131Y205300
X121131Y205300
X121131Y149800
T08
X21485Y21485
X21485Y218335
X178965Y218335
X178965Y21485
T09
X73631Y184300
X113631Y184300
M30
