G75*
%MOIN*%
%OFA0B0*%
%FSLAX25Y25*%
%IPPOS*%
%LPD*%
%AMOC8*
5,1,8,0,0,1.08239X$1,22.5*
%
%ADD10C,0.00000*%
%ADD11C,0.00800*%
%ADD12C,0.00400*%
%ADD13C,0.01200*%
%ADD14C,0.00600*%
%ADD15R,0.02400X0.03400*%
%ADD16C,0.00500*%
%ADD17C,0.00200*%
%ADD18C,0.00300*%
%ADD19C,0.00039*%
%ADD20R,0.03642X0.05091*%
%ADD21R,0.02000X0.10000*%
%ADD22R,0.07500X0.03000*%
%ADD23R,0.03400X0.02400*%
D10*
X0001800Y0001800D02*
X0001800Y0234261D01*
X0195501Y0234261D01*
X0195501Y0001800D01*
X0001800Y0001800D01*
X0015579Y0021485D02*
X0015581Y0021638D01*
X0015587Y0021792D01*
X0015597Y0021945D01*
X0015611Y0022097D01*
X0015629Y0022250D01*
X0015651Y0022401D01*
X0015676Y0022552D01*
X0015706Y0022703D01*
X0015740Y0022853D01*
X0015777Y0023001D01*
X0015818Y0023149D01*
X0015863Y0023295D01*
X0015912Y0023441D01*
X0015965Y0023585D01*
X0016021Y0023727D01*
X0016081Y0023868D01*
X0016145Y0024008D01*
X0016212Y0024146D01*
X0016283Y0024282D01*
X0016358Y0024416D01*
X0016435Y0024548D01*
X0016517Y0024678D01*
X0016601Y0024806D01*
X0016689Y0024932D01*
X0016780Y0025055D01*
X0016874Y0025176D01*
X0016972Y0025294D01*
X0017072Y0025410D01*
X0017176Y0025523D01*
X0017282Y0025634D01*
X0017391Y0025742D01*
X0017503Y0025847D01*
X0017617Y0025948D01*
X0017735Y0026047D01*
X0017854Y0026143D01*
X0017976Y0026236D01*
X0018101Y0026325D01*
X0018228Y0026412D01*
X0018357Y0026494D01*
X0018488Y0026574D01*
X0018621Y0026650D01*
X0018756Y0026723D01*
X0018893Y0026792D01*
X0019032Y0026857D01*
X0019172Y0026919D01*
X0019314Y0026977D01*
X0019457Y0027032D01*
X0019602Y0027083D01*
X0019748Y0027130D01*
X0019895Y0027173D01*
X0020043Y0027212D01*
X0020192Y0027248D01*
X0020342Y0027279D01*
X0020493Y0027307D01*
X0020644Y0027331D01*
X0020797Y0027351D01*
X0020949Y0027367D01*
X0021102Y0027379D01*
X0021255Y0027387D01*
X0021408Y0027391D01*
X0021562Y0027391D01*
X0021715Y0027387D01*
X0021868Y0027379D01*
X0022021Y0027367D01*
X0022173Y0027351D01*
X0022326Y0027331D01*
X0022477Y0027307D01*
X0022628Y0027279D01*
X0022778Y0027248D01*
X0022927Y0027212D01*
X0023075Y0027173D01*
X0023222Y0027130D01*
X0023368Y0027083D01*
X0023513Y0027032D01*
X0023656Y0026977D01*
X0023798Y0026919D01*
X0023938Y0026857D01*
X0024077Y0026792D01*
X0024214Y0026723D01*
X0024349Y0026650D01*
X0024482Y0026574D01*
X0024613Y0026494D01*
X0024742Y0026412D01*
X0024869Y0026325D01*
X0024994Y0026236D01*
X0025116Y0026143D01*
X0025235Y0026047D01*
X0025353Y0025948D01*
X0025467Y0025847D01*
X0025579Y0025742D01*
X0025688Y0025634D01*
X0025794Y0025523D01*
X0025898Y0025410D01*
X0025998Y0025294D01*
X0026096Y0025176D01*
X0026190Y0025055D01*
X0026281Y0024932D01*
X0026369Y0024806D01*
X0026453Y0024678D01*
X0026535Y0024548D01*
X0026612Y0024416D01*
X0026687Y0024282D01*
X0026758Y0024146D01*
X0026825Y0024008D01*
X0026889Y0023868D01*
X0026949Y0023727D01*
X0027005Y0023585D01*
X0027058Y0023441D01*
X0027107Y0023295D01*
X0027152Y0023149D01*
X0027193Y0023001D01*
X0027230Y0022853D01*
X0027264Y0022703D01*
X0027294Y0022552D01*
X0027319Y0022401D01*
X0027341Y0022250D01*
X0027359Y0022097D01*
X0027373Y0021945D01*
X0027383Y0021792D01*
X0027389Y0021638D01*
X0027391Y0021485D01*
X0027389Y0021332D01*
X0027383Y0021178D01*
X0027373Y0021025D01*
X0027359Y0020873D01*
X0027341Y0020720D01*
X0027319Y0020569D01*
X0027294Y0020418D01*
X0027264Y0020267D01*
X0027230Y0020117D01*
X0027193Y0019969D01*
X0027152Y0019821D01*
X0027107Y0019675D01*
X0027058Y0019529D01*
X0027005Y0019385D01*
X0026949Y0019243D01*
X0026889Y0019102D01*
X0026825Y0018962D01*
X0026758Y0018824D01*
X0026687Y0018688D01*
X0026612Y0018554D01*
X0026535Y0018422D01*
X0026453Y0018292D01*
X0026369Y0018164D01*
X0026281Y0018038D01*
X0026190Y0017915D01*
X0026096Y0017794D01*
X0025998Y0017676D01*
X0025898Y0017560D01*
X0025794Y0017447D01*
X0025688Y0017336D01*
X0025579Y0017228D01*
X0025467Y0017123D01*
X0025353Y0017022D01*
X0025235Y0016923D01*
X0025116Y0016827D01*
X0024994Y0016734D01*
X0024869Y0016645D01*
X0024742Y0016558D01*
X0024613Y0016476D01*
X0024482Y0016396D01*
X0024349Y0016320D01*
X0024214Y0016247D01*
X0024077Y0016178D01*
X0023938Y0016113D01*
X0023798Y0016051D01*
X0023656Y0015993D01*
X0023513Y0015938D01*
X0023368Y0015887D01*
X0023222Y0015840D01*
X0023075Y0015797D01*
X0022927Y0015758D01*
X0022778Y0015722D01*
X0022628Y0015691D01*
X0022477Y0015663D01*
X0022326Y0015639D01*
X0022173Y0015619D01*
X0022021Y0015603D01*
X0021868Y0015591D01*
X0021715Y0015583D01*
X0021562Y0015579D01*
X0021408Y0015579D01*
X0021255Y0015583D01*
X0021102Y0015591D01*
X0020949Y0015603D01*
X0020797Y0015619D01*
X0020644Y0015639D01*
X0020493Y0015663D01*
X0020342Y0015691D01*
X0020192Y0015722D01*
X0020043Y0015758D01*
X0019895Y0015797D01*
X0019748Y0015840D01*
X0019602Y0015887D01*
X0019457Y0015938D01*
X0019314Y0015993D01*
X0019172Y0016051D01*
X0019032Y0016113D01*
X0018893Y0016178D01*
X0018756Y0016247D01*
X0018621Y0016320D01*
X0018488Y0016396D01*
X0018357Y0016476D01*
X0018228Y0016558D01*
X0018101Y0016645D01*
X0017976Y0016734D01*
X0017854Y0016827D01*
X0017735Y0016923D01*
X0017617Y0017022D01*
X0017503Y0017123D01*
X0017391Y0017228D01*
X0017282Y0017336D01*
X0017176Y0017447D01*
X0017072Y0017560D01*
X0016972Y0017676D01*
X0016874Y0017794D01*
X0016780Y0017915D01*
X0016689Y0018038D01*
X0016601Y0018164D01*
X0016517Y0018292D01*
X0016435Y0018422D01*
X0016358Y0018554D01*
X0016283Y0018688D01*
X0016212Y0018824D01*
X0016145Y0018962D01*
X0016081Y0019102D01*
X0016021Y0019243D01*
X0015965Y0019385D01*
X0015912Y0019529D01*
X0015863Y0019675D01*
X0015818Y0019821D01*
X0015777Y0019969D01*
X0015740Y0020117D01*
X0015706Y0020267D01*
X0015676Y0020418D01*
X0015651Y0020569D01*
X0015629Y0020720D01*
X0015611Y0020873D01*
X0015597Y0021025D01*
X0015587Y0021178D01*
X0015581Y0021332D01*
X0015579Y0021485D01*
X0072231Y0204300D02*
X0072233Y0204460D01*
X0072239Y0204619D01*
X0072249Y0204778D01*
X0072263Y0204937D01*
X0072281Y0205096D01*
X0072302Y0205254D01*
X0072328Y0205411D01*
X0072358Y0205568D01*
X0072391Y0205724D01*
X0072429Y0205879D01*
X0072470Y0206033D01*
X0072515Y0206186D01*
X0072564Y0206338D01*
X0072617Y0206489D01*
X0072673Y0206638D01*
X0072734Y0206786D01*
X0072797Y0206932D01*
X0072865Y0207077D01*
X0072936Y0207220D01*
X0073010Y0207361D01*
X0073088Y0207500D01*
X0073170Y0207637D01*
X0073255Y0207772D01*
X0073343Y0207905D01*
X0073435Y0208036D01*
X0073529Y0208164D01*
X0073627Y0208290D01*
X0073728Y0208414D01*
X0073832Y0208535D01*
X0073939Y0208653D01*
X0074049Y0208769D01*
X0074162Y0208882D01*
X0074278Y0208992D01*
X0074396Y0209099D01*
X0074517Y0209203D01*
X0074641Y0209304D01*
X0074767Y0209402D01*
X0074895Y0209496D01*
X0075026Y0209588D01*
X0075159Y0209676D01*
X0075294Y0209761D01*
X0075431Y0209843D01*
X0075570Y0209921D01*
X0075711Y0209995D01*
X0075854Y0210066D01*
X0075999Y0210134D01*
X0076145Y0210197D01*
X0076293Y0210258D01*
X0076442Y0210314D01*
X0076593Y0210367D01*
X0076745Y0210416D01*
X0076898Y0210461D01*
X0077052Y0210502D01*
X0077207Y0210540D01*
X0077363Y0210573D01*
X0077520Y0210603D01*
X0077677Y0210629D01*
X0077835Y0210650D01*
X0077994Y0210668D01*
X0078153Y0210682D01*
X0078312Y0210692D01*
X0078471Y0210698D01*
X0078631Y0210700D01*
X0078791Y0210698D01*
X0078950Y0210692D01*
X0079109Y0210682D01*
X0079268Y0210668D01*
X0079427Y0210650D01*
X0079585Y0210629D01*
X0079742Y0210603D01*
X0079899Y0210573D01*
X0080055Y0210540D01*
X0080210Y0210502D01*
X0080364Y0210461D01*
X0080517Y0210416D01*
X0080669Y0210367D01*
X0080820Y0210314D01*
X0080969Y0210258D01*
X0081117Y0210197D01*
X0081263Y0210134D01*
X0081408Y0210066D01*
X0081551Y0209995D01*
X0081692Y0209921D01*
X0081831Y0209843D01*
X0081968Y0209761D01*
X0082103Y0209676D01*
X0082236Y0209588D01*
X0082367Y0209496D01*
X0082495Y0209402D01*
X0082621Y0209304D01*
X0082745Y0209203D01*
X0082866Y0209099D01*
X0082984Y0208992D01*
X0083100Y0208882D01*
X0083213Y0208769D01*
X0083323Y0208653D01*
X0083430Y0208535D01*
X0083534Y0208414D01*
X0083635Y0208290D01*
X0083733Y0208164D01*
X0083827Y0208036D01*
X0083919Y0207905D01*
X0084007Y0207772D01*
X0084092Y0207637D01*
X0084174Y0207500D01*
X0084252Y0207361D01*
X0084326Y0207220D01*
X0084397Y0207077D01*
X0084465Y0206932D01*
X0084528Y0206786D01*
X0084589Y0206638D01*
X0084645Y0206489D01*
X0084698Y0206338D01*
X0084747Y0206186D01*
X0084792Y0206033D01*
X0084833Y0205879D01*
X0084871Y0205724D01*
X0084904Y0205568D01*
X0084934Y0205411D01*
X0084960Y0205254D01*
X0084981Y0205096D01*
X0084999Y0204937D01*
X0085013Y0204778D01*
X0085023Y0204619D01*
X0085029Y0204460D01*
X0085031Y0204300D01*
X0085029Y0204140D01*
X0085023Y0203981D01*
X0085013Y0203822D01*
X0084999Y0203663D01*
X0084981Y0203504D01*
X0084960Y0203346D01*
X0084934Y0203189D01*
X0084904Y0203032D01*
X0084871Y0202876D01*
X0084833Y0202721D01*
X0084792Y0202567D01*
X0084747Y0202414D01*
X0084698Y0202262D01*
X0084645Y0202111D01*
X0084589Y0201962D01*
X0084528Y0201814D01*
X0084465Y0201668D01*
X0084397Y0201523D01*
X0084326Y0201380D01*
X0084252Y0201239D01*
X0084174Y0201100D01*
X0084092Y0200963D01*
X0084007Y0200828D01*
X0083919Y0200695D01*
X0083827Y0200564D01*
X0083733Y0200436D01*
X0083635Y0200310D01*
X0083534Y0200186D01*
X0083430Y0200065D01*
X0083323Y0199947D01*
X0083213Y0199831D01*
X0083100Y0199718D01*
X0082984Y0199608D01*
X0082866Y0199501D01*
X0082745Y0199397D01*
X0082621Y0199296D01*
X0082495Y0199198D01*
X0082367Y0199104D01*
X0082236Y0199012D01*
X0082103Y0198924D01*
X0081968Y0198839D01*
X0081831Y0198757D01*
X0081692Y0198679D01*
X0081551Y0198605D01*
X0081408Y0198534D01*
X0081263Y0198466D01*
X0081117Y0198403D01*
X0080969Y0198342D01*
X0080820Y0198286D01*
X0080669Y0198233D01*
X0080517Y0198184D01*
X0080364Y0198139D01*
X0080210Y0198098D01*
X0080055Y0198060D01*
X0079899Y0198027D01*
X0079742Y0197997D01*
X0079585Y0197971D01*
X0079427Y0197950D01*
X0079268Y0197932D01*
X0079109Y0197918D01*
X0078950Y0197908D01*
X0078791Y0197902D01*
X0078631Y0197900D01*
X0078471Y0197902D01*
X0078312Y0197908D01*
X0078153Y0197918D01*
X0077994Y0197932D01*
X0077835Y0197950D01*
X0077677Y0197971D01*
X0077520Y0197997D01*
X0077363Y0198027D01*
X0077207Y0198060D01*
X0077052Y0198098D01*
X0076898Y0198139D01*
X0076745Y0198184D01*
X0076593Y0198233D01*
X0076442Y0198286D01*
X0076293Y0198342D01*
X0076145Y0198403D01*
X0075999Y0198466D01*
X0075854Y0198534D01*
X0075711Y0198605D01*
X0075570Y0198679D01*
X0075431Y0198757D01*
X0075294Y0198839D01*
X0075159Y0198924D01*
X0075026Y0199012D01*
X0074895Y0199104D01*
X0074767Y0199198D01*
X0074641Y0199296D01*
X0074517Y0199397D01*
X0074396Y0199501D01*
X0074278Y0199608D01*
X0074162Y0199718D01*
X0074049Y0199831D01*
X0073939Y0199947D01*
X0073832Y0200065D01*
X0073728Y0200186D01*
X0073627Y0200310D01*
X0073529Y0200436D01*
X0073435Y0200564D01*
X0073343Y0200695D01*
X0073255Y0200828D01*
X0073170Y0200963D01*
X0073088Y0201100D01*
X0073010Y0201239D01*
X0072936Y0201380D01*
X0072865Y0201523D01*
X0072797Y0201668D01*
X0072734Y0201814D01*
X0072673Y0201962D01*
X0072617Y0202111D01*
X0072564Y0202262D01*
X0072515Y0202414D01*
X0072470Y0202567D01*
X0072429Y0202721D01*
X0072391Y0202876D01*
X0072358Y0203032D01*
X0072328Y0203189D01*
X0072302Y0203346D01*
X0072281Y0203504D01*
X0072263Y0203663D01*
X0072249Y0203822D01*
X0072239Y0203981D01*
X0072233Y0204140D01*
X0072231Y0204300D01*
X0112231Y0204300D02*
X0112233Y0204460D01*
X0112239Y0204619D01*
X0112249Y0204778D01*
X0112263Y0204937D01*
X0112281Y0205096D01*
X0112302Y0205254D01*
X0112328Y0205411D01*
X0112358Y0205568D01*
X0112391Y0205724D01*
X0112429Y0205879D01*
X0112470Y0206033D01*
X0112515Y0206186D01*
X0112564Y0206338D01*
X0112617Y0206489D01*
X0112673Y0206638D01*
X0112734Y0206786D01*
X0112797Y0206932D01*
X0112865Y0207077D01*
X0112936Y0207220D01*
X0113010Y0207361D01*
X0113088Y0207500D01*
X0113170Y0207637D01*
X0113255Y0207772D01*
X0113343Y0207905D01*
X0113435Y0208036D01*
X0113529Y0208164D01*
X0113627Y0208290D01*
X0113728Y0208414D01*
X0113832Y0208535D01*
X0113939Y0208653D01*
X0114049Y0208769D01*
X0114162Y0208882D01*
X0114278Y0208992D01*
X0114396Y0209099D01*
X0114517Y0209203D01*
X0114641Y0209304D01*
X0114767Y0209402D01*
X0114895Y0209496D01*
X0115026Y0209588D01*
X0115159Y0209676D01*
X0115294Y0209761D01*
X0115431Y0209843D01*
X0115570Y0209921D01*
X0115711Y0209995D01*
X0115854Y0210066D01*
X0115999Y0210134D01*
X0116145Y0210197D01*
X0116293Y0210258D01*
X0116442Y0210314D01*
X0116593Y0210367D01*
X0116745Y0210416D01*
X0116898Y0210461D01*
X0117052Y0210502D01*
X0117207Y0210540D01*
X0117363Y0210573D01*
X0117520Y0210603D01*
X0117677Y0210629D01*
X0117835Y0210650D01*
X0117994Y0210668D01*
X0118153Y0210682D01*
X0118312Y0210692D01*
X0118471Y0210698D01*
X0118631Y0210700D01*
X0118791Y0210698D01*
X0118950Y0210692D01*
X0119109Y0210682D01*
X0119268Y0210668D01*
X0119427Y0210650D01*
X0119585Y0210629D01*
X0119742Y0210603D01*
X0119899Y0210573D01*
X0120055Y0210540D01*
X0120210Y0210502D01*
X0120364Y0210461D01*
X0120517Y0210416D01*
X0120669Y0210367D01*
X0120820Y0210314D01*
X0120969Y0210258D01*
X0121117Y0210197D01*
X0121263Y0210134D01*
X0121408Y0210066D01*
X0121551Y0209995D01*
X0121692Y0209921D01*
X0121831Y0209843D01*
X0121968Y0209761D01*
X0122103Y0209676D01*
X0122236Y0209588D01*
X0122367Y0209496D01*
X0122495Y0209402D01*
X0122621Y0209304D01*
X0122745Y0209203D01*
X0122866Y0209099D01*
X0122984Y0208992D01*
X0123100Y0208882D01*
X0123213Y0208769D01*
X0123323Y0208653D01*
X0123430Y0208535D01*
X0123534Y0208414D01*
X0123635Y0208290D01*
X0123733Y0208164D01*
X0123827Y0208036D01*
X0123919Y0207905D01*
X0124007Y0207772D01*
X0124092Y0207637D01*
X0124174Y0207500D01*
X0124252Y0207361D01*
X0124326Y0207220D01*
X0124397Y0207077D01*
X0124465Y0206932D01*
X0124528Y0206786D01*
X0124589Y0206638D01*
X0124645Y0206489D01*
X0124698Y0206338D01*
X0124747Y0206186D01*
X0124792Y0206033D01*
X0124833Y0205879D01*
X0124871Y0205724D01*
X0124904Y0205568D01*
X0124934Y0205411D01*
X0124960Y0205254D01*
X0124981Y0205096D01*
X0124999Y0204937D01*
X0125013Y0204778D01*
X0125023Y0204619D01*
X0125029Y0204460D01*
X0125031Y0204300D01*
X0125029Y0204140D01*
X0125023Y0203981D01*
X0125013Y0203822D01*
X0124999Y0203663D01*
X0124981Y0203504D01*
X0124960Y0203346D01*
X0124934Y0203189D01*
X0124904Y0203032D01*
X0124871Y0202876D01*
X0124833Y0202721D01*
X0124792Y0202567D01*
X0124747Y0202414D01*
X0124698Y0202262D01*
X0124645Y0202111D01*
X0124589Y0201962D01*
X0124528Y0201814D01*
X0124465Y0201668D01*
X0124397Y0201523D01*
X0124326Y0201380D01*
X0124252Y0201239D01*
X0124174Y0201100D01*
X0124092Y0200963D01*
X0124007Y0200828D01*
X0123919Y0200695D01*
X0123827Y0200564D01*
X0123733Y0200436D01*
X0123635Y0200310D01*
X0123534Y0200186D01*
X0123430Y0200065D01*
X0123323Y0199947D01*
X0123213Y0199831D01*
X0123100Y0199718D01*
X0122984Y0199608D01*
X0122866Y0199501D01*
X0122745Y0199397D01*
X0122621Y0199296D01*
X0122495Y0199198D01*
X0122367Y0199104D01*
X0122236Y0199012D01*
X0122103Y0198924D01*
X0121968Y0198839D01*
X0121831Y0198757D01*
X0121692Y0198679D01*
X0121551Y0198605D01*
X0121408Y0198534D01*
X0121263Y0198466D01*
X0121117Y0198403D01*
X0120969Y0198342D01*
X0120820Y0198286D01*
X0120669Y0198233D01*
X0120517Y0198184D01*
X0120364Y0198139D01*
X0120210Y0198098D01*
X0120055Y0198060D01*
X0119899Y0198027D01*
X0119742Y0197997D01*
X0119585Y0197971D01*
X0119427Y0197950D01*
X0119268Y0197932D01*
X0119109Y0197918D01*
X0118950Y0197908D01*
X0118791Y0197902D01*
X0118631Y0197900D01*
X0118471Y0197902D01*
X0118312Y0197908D01*
X0118153Y0197918D01*
X0117994Y0197932D01*
X0117835Y0197950D01*
X0117677Y0197971D01*
X0117520Y0197997D01*
X0117363Y0198027D01*
X0117207Y0198060D01*
X0117052Y0198098D01*
X0116898Y0198139D01*
X0116745Y0198184D01*
X0116593Y0198233D01*
X0116442Y0198286D01*
X0116293Y0198342D01*
X0116145Y0198403D01*
X0115999Y0198466D01*
X0115854Y0198534D01*
X0115711Y0198605D01*
X0115570Y0198679D01*
X0115431Y0198757D01*
X0115294Y0198839D01*
X0115159Y0198924D01*
X0115026Y0199012D01*
X0114895Y0199104D01*
X0114767Y0199198D01*
X0114641Y0199296D01*
X0114517Y0199397D01*
X0114396Y0199501D01*
X0114278Y0199608D01*
X0114162Y0199718D01*
X0114049Y0199831D01*
X0113939Y0199947D01*
X0113832Y0200065D01*
X0113728Y0200186D01*
X0113627Y0200310D01*
X0113529Y0200436D01*
X0113435Y0200564D01*
X0113343Y0200695D01*
X0113255Y0200828D01*
X0113170Y0200963D01*
X0113088Y0201100D01*
X0113010Y0201239D01*
X0112936Y0201380D01*
X0112865Y0201523D01*
X0112797Y0201668D01*
X0112734Y0201814D01*
X0112673Y0201962D01*
X0112617Y0202111D01*
X0112564Y0202262D01*
X0112515Y0202414D01*
X0112470Y0202567D01*
X0112429Y0202721D01*
X0112391Y0202876D01*
X0112358Y0203032D01*
X0112328Y0203189D01*
X0112302Y0203346D01*
X0112281Y0203504D01*
X0112263Y0203663D01*
X0112249Y0203822D01*
X0112239Y0203981D01*
X0112233Y0204140D01*
X0112231Y0204300D01*
X0173059Y0218335D02*
X0173061Y0218488D01*
X0173067Y0218642D01*
X0173077Y0218795D01*
X0173091Y0218947D01*
X0173109Y0219100D01*
X0173131Y0219251D01*
X0173156Y0219402D01*
X0173186Y0219553D01*
X0173220Y0219703D01*
X0173257Y0219851D01*
X0173298Y0219999D01*
X0173343Y0220145D01*
X0173392Y0220291D01*
X0173445Y0220435D01*
X0173501Y0220577D01*
X0173561Y0220718D01*
X0173625Y0220858D01*
X0173692Y0220996D01*
X0173763Y0221132D01*
X0173838Y0221266D01*
X0173915Y0221398D01*
X0173997Y0221528D01*
X0174081Y0221656D01*
X0174169Y0221782D01*
X0174260Y0221905D01*
X0174354Y0222026D01*
X0174452Y0222144D01*
X0174552Y0222260D01*
X0174656Y0222373D01*
X0174762Y0222484D01*
X0174871Y0222592D01*
X0174983Y0222697D01*
X0175097Y0222798D01*
X0175215Y0222897D01*
X0175334Y0222993D01*
X0175456Y0223086D01*
X0175581Y0223175D01*
X0175708Y0223262D01*
X0175837Y0223344D01*
X0175968Y0223424D01*
X0176101Y0223500D01*
X0176236Y0223573D01*
X0176373Y0223642D01*
X0176512Y0223707D01*
X0176652Y0223769D01*
X0176794Y0223827D01*
X0176937Y0223882D01*
X0177082Y0223933D01*
X0177228Y0223980D01*
X0177375Y0224023D01*
X0177523Y0224062D01*
X0177672Y0224098D01*
X0177822Y0224129D01*
X0177973Y0224157D01*
X0178124Y0224181D01*
X0178277Y0224201D01*
X0178429Y0224217D01*
X0178582Y0224229D01*
X0178735Y0224237D01*
X0178888Y0224241D01*
X0179042Y0224241D01*
X0179195Y0224237D01*
X0179348Y0224229D01*
X0179501Y0224217D01*
X0179653Y0224201D01*
X0179806Y0224181D01*
X0179957Y0224157D01*
X0180108Y0224129D01*
X0180258Y0224098D01*
X0180407Y0224062D01*
X0180555Y0224023D01*
X0180702Y0223980D01*
X0180848Y0223933D01*
X0180993Y0223882D01*
X0181136Y0223827D01*
X0181278Y0223769D01*
X0181418Y0223707D01*
X0181557Y0223642D01*
X0181694Y0223573D01*
X0181829Y0223500D01*
X0181962Y0223424D01*
X0182093Y0223344D01*
X0182222Y0223262D01*
X0182349Y0223175D01*
X0182474Y0223086D01*
X0182596Y0222993D01*
X0182715Y0222897D01*
X0182833Y0222798D01*
X0182947Y0222697D01*
X0183059Y0222592D01*
X0183168Y0222484D01*
X0183274Y0222373D01*
X0183378Y0222260D01*
X0183478Y0222144D01*
X0183576Y0222026D01*
X0183670Y0221905D01*
X0183761Y0221782D01*
X0183849Y0221656D01*
X0183933Y0221528D01*
X0184015Y0221398D01*
X0184092Y0221266D01*
X0184167Y0221132D01*
X0184238Y0220996D01*
X0184305Y0220858D01*
X0184369Y0220718D01*
X0184429Y0220577D01*
X0184485Y0220435D01*
X0184538Y0220291D01*
X0184587Y0220145D01*
X0184632Y0219999D01*
X0184673Y0219851D01*
X0184710Y0219703D01*
X0184744Y0219553D01*
X0184774Y0219402D01*
X0184799Y0219251D01*
X0184821Y0219100D01*
X0184839Y0218947D01*
X0184853Y0218795D01*
X0184863Y0218642D01*
X0184869Y0218488D01*
X0184871Y0218335D01*
X0184869Y0218182D01*
X0184863Y0218028D01*
X0184853Y0217875D01*
X0184839Y0217723D01*
X0184821Y0217570D01*
X0184799Y0217419D01*
X0184774Y0217268D01*
X0184744Y0217117D01*
X0184710Y0216967D01*
X0184673Y0216819D01*
X0184632Y0216671D01*
X0184587Y0216525D01*
X0184538Y0216379D01*
X0184485Y0216235D01*
X0184429Y0216093D01*
X0184369Y0215952D01*
X0184305Y0215812D01*
X0184238Y0215674D01*
X0184167Y0215538D01*
X0184092Y0215404D01*
X0184015Y0215272D01*
X0183933Y0215142D01*
X0183849Y0215014D01*
X0183761Y0214888D01*
X0183670Y0214765D01*
X0183576Y0214644D01*
X0183478Y0214526D01*
X0183378Y0214410D01*
X0183274Y0214297D01*
X0183168Y0214186D01*
X0183059Y0214078D01*
X0182947Y0213973D01*
X0182833Y0213872D01*
X0182715Y0213773D01*
X0182596Y0213677D01*
X0182474Y0213584D01*
X0182349Y0213495D01*
X0182222Y0213408D01*
X0182093Y0213326D01*
X0181962Y0213246D01*
X0181829Y0213170D01*
X0181694Y0213097D01*
X0181557Y0213028D01*
X0181418Y0212963D01*
X0181278Y0212901D01*
X0181136Y0212843D01*
X0180993Y0212788D01*
X0180848Y0212737D01*
X0180702Y0212690D01*
X0180555Y0212647D01*
X0180407Y0212608D01*
X0180258Y0212572D01*
X0180108Y0212541D01*
X0179957Y0212513D01*
X0179806Y0212489D01*
X0179653Y0212469D01*
X0179501Y0212453D01*
X0179348Y0212441D01*
X0179195Y0212433D01*
X0179042Y0212429D01*
X0178888Y0212429D01*
X0178735Y0212433D01*
X0178582Y0212441D01*
X0178429Y0212453D01*
X0178277Y0212469D01*
X0178124Y0212489D01*
X0177973Y0212513D01*
X0177822Y0212541D01*
X0177672Y0212572D01*
X0177523Y0212608D01*
X0177375Y0212647D01*
X0177228Y0212690D01*
X0177082Y0212737D01*
X0176937Y0212788D01*
X0176794Y0212843D01*
X0176652Y0212901D01*
X0176512Y0212963D01*
X0176373Y0213028D01*
X0176236Y0213097D01*
X0176101Y0213170D01*
X0175968Y0213246D01*
X0175837Y0213326D01*
X0175708Y0213408D01*
X0175581Y0213495D01*
X0175456Y0213584D01*
X0175334Y0213677D01*
X0175215Y0213773D01*
X0175097Y0213872D01*
X0174983Y0213973D01*
X0174871Y0214078D01*
X0174762Y0214186D01*
X0174656Y0214297D01*
X0174552Y0214410D01*
X0174452Y0214526D01*
X0174354Y0214644D01*
X0174260Y0214765D01*
X0174169Y0214888D01*
X0174081Y0215014D01*
X0173997Y0215142D01*
X0173915Y0215272D01*
X0173838Y0215404D01*
X0173763Y0215538D01*
X0173692Y0215674D01*
X0173625Y0215812D01*
X0173561Y0215952D01*
X0173501Y0216093D01*
X0173445Y0216235D01*
X0173392Y0216379D01*
X0173343Y0216525D01*
X0173298Y0216671D01*
X0173257Y0216819D01*
X0173220Y0216967D01*
X0173186Y0217117D01*
X0173156Y0217268D01*
X0173131Y0217419D01*
X0173109Y0217570D01*
X0173091Y0217723D01*
X0173077Y0217875D01*
X0173067Y0218028D01*
X0173061Y0218182D01*
X0173059Y0218335D01*
X0015579Y0218335D02*
X0015581Y0218488D01*
X0015587Y0218642D01*
X0015597Y0218795D01*
X0015611Y0218947D01*
X0015629Y0219100D01*
X0015651Y0219251D01*
X0015676Y0219402D01*
X0015706Y0219553D01*
X0015740Y0219703D01*
X0015777Y0219851D01*
X0015818Y0219999D01*
X0015863Y0220145D01*
X0015912Y0220291D01*
X0015965Y0220435D01*
X0016021Y0220577D01*
X0016081Y0220718D01*
X0016145Y0220858D01*
X0016212Y0220996D01*
X0016283Y0221132D01*
X0016358Y0221266D01*
X0016435Y0221398D01*
X0016517Y0221528D01*
X0016601Y0221656D01*
X0016689Y0221782D01*
X0016780Y0221905D01*
X0016874Y0222026D01*
X0016972Y0222144D01*
X0017072Y0222260D01*
X0017176Y0222373D01*
X0017282Y0222484D01*
X0017391Y0222592D01*
X0017503Y0222697D01*
X0017617Y0222798D01*
X0017735Y0222897D01*
X0017854Y0222993D01*
X0017976Y0223086D01*
X0018101Y0223175D01*
X0018228Y0223262D01*
X0018357Y0223344D01*
X0018488Y0223424D01*
X0018621Y0223500D01*
X0018756Y0223573D01*
X0018893Y0223642D01*
X0019032Y0223707D01*
X0019172Y0223769D01*
X0019314Y0223827D01*
X0019457Y0223882D01*
X0019602Y0223933D01*
X0019748Y0223980D01*
X0019895Y0224023D01*
X0020043Y0224062D01*
X0020192Y0224098D01*
X0020342Y0224129D01*
X0020493Y0224157D01*
X0020644Y0224181D01*
X0020797Y0224201D01*
X0020949Y0224217D01*
X0021102Y0224229D01*
X0021255Y0224237D01*
X0021408Y0224241D01*
X0021562Y0224241D01*
X0021715Y0224237D01*
X0021868Y0224229D01*
X0022021Y0224217D01*
X0022173Y0224201D01*
X0022326Y0224181D01*
X0022477Y0224157D01*
X0022628Y0224129D01*
X0022778Y0224098D01*
X0022927Y0224062D01*
X0023075Y0224023D01*
X0023222Y0223980D01*
X0023368Y0223933D01*
X0023513Y0223882D01*
X0023656Y0223827D01*
X0023798Y0223769D01*
X0023938Y0223707D01*
X0024077Y0223642D01*
X0024214Y0223573D01*
X0024349Y0223500D01*
X0024482Y0223424D01*
X0024613Y0223344D01*
X0024742Y0223262D01*
X0024869Y0223175D01*
X0024994Y0223086D01*
X0025116Y0222993D01*
X0025235Y0222897D01*
X0025353Y0222798D01*
X0025467Y0222697D01*
X0025579Y0222592D01*
X0025688Y0222484D01*
X0025794Y0222373D01*
X0025898Y0222260D01*
X0025998Y0222144D01*
X0026096Y0222026D01*
X0026190Y0221905D01*
X0026281Y0221782D01*
X0026369Y0221656D01*
X0026453Y0221528D01*
X0026535Y0221398D01*
X0026612Y0221266D01*
X0026687Y0221132D01*
X0026758Y0220996D01*
X0026825Y0220858D01*
X0026889Y0220718D01*
X0026949Y0220577D01*
X0027005Y0220435D01*
X0027058Y0220291D01*
X0027107Y0220145D01*
X0027152Y0219999D01*
X0027193Y0219851D01*
X0027230Y0219703D01*
X0027264Y0219553D01*
X0027294Y0219402D01*
X0027319Y0219251D01*
X0027341Y0219100D01*
X0027359Y0218947D01*
X0027373Y0218795D01*
X0027383Y0218642D01*
X0027389Y0218488D01*
X0027391Y0218335D01*
X0027389Y0218182D01*
X0027383Y0218028D01*
X0027373Y0217875D01*
X0027359Y0217723D01*
X0027341Y0217570D01*
X0027319Y0217419D01*
X0027294Y0217268D01*
X0027264Y0217117D01*
X0027230Y0216967D01*
X0027193Y0216819D01*
X0027152Y0216671D01*
X0027107Y0216525D01*
X0027058Y0216379D01*
X0027005Y0216235D01*
X0026949Y0216093D01*
X0026889Y0215952D01*
X0026825Y0215812D01*
X0026758Y0215674D01*
X0026687Y0215538D01*
X0026612Y0215404D01*
X0026535Y0215272D01*
X0026453Y0215142D01*
X0026369Y0215014D01*
X0026281Y0214888D01*
X0026190Y0214765D01*
X0026096Y0214644D01*
X0025998Y0214526D01*
X0025898Y0214410D01*
X0025794Y0214297D01*
X0025688Y0214186D01*
X0025579Y0214078D01*
X0025467Y0213973D01*
X0025353Y0213872D01*
X0025235Y0213773D01*
X0025116Y0213677D01*
X0024994Y0213584D01*
X0024869Y0213495D01*
X0024742Y0213408D01*
X0024613Y0213326D01*
X0024482Y0213246D01*
X0024349Y0213170D01*
X0024214Y0213097D01*
X0024077Y0213028D01*
X0023938Y0212963D01*
X0023798Y0212901D01*
X0023656Y0212843D01*
X0023513Y0212788D01*
X0023368Y0212737D01*
X0023222Y0212690D01*
X0023075Y0212647D01*
X0022927Y0212608D01*
X0022778Y0212572D01*
X0022628Y0212541D01*
X0022477Y0212513D01*
X0022326Y0212489D01*
X0022173Y0212469D01*
X0022021Y0212453D01*
X0021868Y0212441D01*
X0021715Y0212433D01*
X0021562Y0212429D01*
X0021408Y0212429D01*
X0021255Y0212433D01*
X0021102Y0212441D01*
X0020949Y0212453D01*
X0020797Y0212469D01*
X0020644Y0212489D01*
X0020493Y0212513D01*
X0020342Y0212541D01*
X0020192Y0212572D01*
X0020043Y0212608D01*
X0019895Y0212647D01*
X0019748Y0212690D01*
X0019602Y0212737D01*
X0019457Y0212788D01*
X0019314Y0212843D01*
X0019172Y0212901D01*
X0019032Y0212963D01*
X0018893Y0213028D01*
X0018756Y0213097D01*
X0018621Y0213170D01*
X0018488Y0213246D01*
X0018357Y0213326D01*
X0018228Y0213408D01*
X0018101Y0213495D01*
X0017976Y0213584D01*
X0017854Y0213677D01*
X0017735Y0213773D01*
X0017617Y0213872D01*
X0017503Y0213973D01*
X0017391Y0214078D01*
X0017282Y0214186D01*
X0017176Y0214297D01*
X0017072Y0214410D01*
X0016972Y0214526D01*
X0016874Y0214644D01*
X0016780Y0214765D01*
X0016689Y0214888D01*
X0016601Y0215014D01*
X0016517Y0215142D01*
X0016435Y0215272D01*
X0016358Y0215404D01*
X0016283Y0215538D01*
X0016212Y0215674D01*
X0016145Y0215812D01*
X0016081Y0215952D01*
X0016021Y0216093D01*
X0015965Y0216235D01*
X0015912Y0216379D01*
X0015863Y0216525D01*
X0015818Y0216671D01*
X0015777Y0216819D01*
X0015740Y0216967D01*
X0015706Y0217117D01*
X0015676Y0217268D01*
X0015651Y0217419D01*
X0015629Y0217570D01*
X0015611Y0217723D01*
X0015597Y0217875D01*
X0015587Y0218028D01*
X0015581Y0218182D01*
X0015579Y0218335D01*
X0173059Y0021485D02*
X0173061Y0021638D01*
X0173067Y0021792D01*
X0173077Y0021945D01*
X0173091Y0022097D01*
X0173109Y0022250D01*
X0173131Y0022401D01*
X0173156Y0022552D01*
X0173186Y0022703D01*
X0173220Y0022853D01*
X0173257Y0023001D01*
X0173298Y0023149D01*
X0173343Y0023295D01*
X0173392Y0023441D01*
X0173445Y0023585D01*
X0173501Y0023727D01*
X0173561Y0023868D01*
X0173625Y0024008D01*
X0173692Y0024146D01*
X0173763Y0024282D01*
X0173838Y0024416D01*
X0173915Y0024548D01*
X0173997Y0024678D01*
X0174081Y0024806D01*
X0174169Y0024932D01*
X0174260Y0025055D01*
X0174354Y0025176D01*
X0174452Y0025294D01*
X0174552Y0025410D01*
X0174656Y0025523D01*
X0174762Y0025634D01*
X0174871Y0025742D01*
X0174983Y0025847D01*
X0175097Y0025948D01*
X0175215Y0026047D01*
X0175334Y0026143D01*
X0175456Y0026236D01*
X0175581Y0026325D01*
X0175708Y0026412D01*
X0175837Y0026494D01*
X0175968Y0026574D01*
X0176101Y0026650D01*
X0176236Y0026723D01*
X0176373Y0026792D01*
X0176512Y0026857D01*
X0176652Y0026919D01*
X0176794Y0026977D01*
X0176937Y0027032D01*
X0177082Y0027083D01*
X0177228Y0027130D01*
X0177375Y0027173D01*
X0177523Y0027212D01*
X0177672Y0027248D01*
X0177822Y0027279D01*
X0177973Y0027307D01*
X0178124Y0027331D01*
X0178277Y0027351D01*
X0178429Y0027367D01*
X0178582Y0027379D01*
X0178735Y0027387D01*
X0178888Y0027391D01*
X0179042Y0027391D01*
X0179195Y0027387D01*
X0179348Y0027379D01*
X0179501Y0027367D01*
X0179653Y0027351D01*
X0179806Y0027331D01*
X0179957Y0027307D01*
X0180108Y0027279D01*
X0180258Y0027248D01*
X0180407Y0027212D01*
X0180555Y0027173D01*
X0180702Y0027130D01*
X0180848Y0027083D01*
X0180993Y0027032D01*
X0181136Y0026977D01*
X0181278Y0026919D01*
X0181418Y0026857D01*
X0181557Y0026792D01*
X0181694Y0026723D01*
X0181829Y0026650D01*
X0181962Y0026574D01*
X0182093Y0026494D01*
X0182222Y0026412D01*
X0182349Y0026325D01*
X0182474Y0026236D01*
X0182596Y0026143D01*
X0182715Y0026047D01*
X0182833Y0025948D01*
X0182947Y0025847D01*
X0183059Y0025742D01*
X0183168Y0025634D01*
X0183274Y0025523D01*
X0183378Y0025410D01*
X0183478Y0025294D01*
X0183576Y0025176D01*
X0183670Y0025055D01*
X0183761Y0024932D01*
X0183849Y0024806D01*
X0183933Y0024678D01*
X0184015Y0024548D01*
X0184092Y0024416D01*
X0184167Y0024282D01*
X0184238Y0024146D01*
X0184305Y0024008D01*
X0184369Y0023868D01*
X0184429Y0023727D01*
X0184485Y0023585D01*
X0184538Y0023441D01*
X0184587Y0023295D01*
X0184632Y0023149D01*
X0184673Y0023001D01*
X0184710Y0022853D01*
X0184744Y0022703D01*
X0184774Y0022552D01*
X0184799Y0022401D01*
X0184821Y0022250D01*
X0184839Y0022097D01*
X0184853Y0021945D01*
X0184863Y0021792D01*
X0184869Y0021638D01*
X0184871Y0021485D01*
X0184869Y0021332D01*
X0184863Y0021178D01*
X0184853Y0021025D01*
X0184839Y0020873D01*
X0184821Y0020720D01*
X0184799Y0020569D01*
X0184774Y0020418D01*
X0184744Y0020267D01*
X0184710Y0020117D01*
X0184673Y0019969D01*
X0184632Y0019821D01*
X0184587Y0019675D01*
X0184538Y0019529D01*
X0184485Y0019385D01*
X0184429Y0019243D01*
X0184369Y0019102D01*
X0184305Y0018962D01*
X0184238Y0018824D01*
X0184167Y0018688D01*
X0184092Y0018554D01*
X0184015Y0018422D01*
X0183933Y0018292D01*
X0183849Y0018164D01*
X0183761Y0018038D01*
X0183670Y0017915D01*
X0183576Y0017794D01*
X0183478Y0017676D01*
X0183378Y0017560D01*
X0183274Y0017447D01*
X0183168Y0017336D01*
X0183059Y0017228D01*
X0182947Y0017123D01*
X0182833Y0017022D01*
X0182715Y0016923D01*
X0182596Y0016827D01*
X0182474Y0016734D01*
X0182349Y0016645D01*
X0182222Y0016558D01*
X0182093Y0016476D01*
X0181962Y0016396D01*
X0181829Y0016320D01*
X0181694Y0016247D01*
X0181557Y0016178D01*
X0181418Y0016113D01*
X0181278Y0016051D01*
X0181136Y0015993D01*
X0180993Y0015938D01*
X0180848Y0015887D01*
X0180702Y0015840D01*
X0180555Y0015797D01*
X0180407Y0015758D01*
X0180258Y0015722D01*
X0180108Y0015691D01*
X0179957Y0015663D01*
X0179806Y0015639D01*
X0179653Y0015619D01*
X0179501Y0015603D01*
X0179348Y0015591D01*
X0179195Y0015583D01*
X0179042Y0015579D01*
X0178888Y0015579D01*
X0178735Y0015583D01*
X0178582Y0015591D01*
X0178429Y0015603D01*
X0178277Y0015619D01*
X0178124Y0015639D01*
X0177973Y0015663D01*
X0177822Y0015691D01*
X0177672Y0015722D01*
X0177523Y0015758D01*
X0177375Y0015797D01*
X0177228Y0015840D01*
X0177082Y0015887D01*
X0176937Y0015938D01*
X0176794Y0015993D01*
X0176652Y0016051D01*
X0176512Y0016113D01*
X0176373Y0016178D01*
X0176236Y0016247D01*
X0176101Y0016320D01*
X0175968Y0016396D01*
X0175837Y0016476D01*
X0175708Y0016558D01*
X0175581Y0016645D01*
X0175456Y0016734D01*
X0175334Y0016827D01*
X0175215Y0016923D01*
X0175097Y0017022D01*
X0174983Y0017123D01*
X0174871Y0017228D01*
X0174762Y0017336D01*
X0174656Y0017447D01*
X0174552Y0017560D01*
X0174452Y0017676D01*
X0174354Y0017794D01*
X0174260Y0017915D01*
X0174169Y0018038D01*
X0174081Y0018164D01*
X0173997Y0018292D01*
X0173915Y0018422D01*
X0173838Y0018554D01*
X0173763Y0018688D01*
X0173692Y0018824D01*
X0173625Y0018962D01*
X0173561Y0019102D01*
X0173501Y0019243D01*
X0173445Y0019385D01*
X0173392Y0019529D01*
X0173343Y0019675D01*
X0173298Y0019821D01*
X0173257Y0019969D01*
X0173220Y0020117D01*
X0173186Y0020267D01*
X0173156Y0020418D01*
X0173131Y0020569D01*
X0173109Y0020720D01*
X0173091Y0020873D01*
X0173077Y0021025D01*
X0173067Y0021178D01*
X0173061Y0021332D01*
X0173059Y0021485D01*
D11*
X0172666Y0021485D02*
X0172668Y0021643D01*
X0172674Y0021801D01*
X0172684Y0021959D01*
X0172698Y0022117D01*
X0172716Y0022274D01*
X0172737Y0022431D01*
X0172763Y0022587D01*
X0172793Y0022743D01*
X0172826Y0022898D01*
X0172864Y0023051D01*
X0172905Y0023204D01*
X0172950Y0023356D01*
X0172999Y0023507D01*
X0173052Y0023656D01*
X0173108Y0023804D01*
X0173168Y0023950D01*
X0173232Y0024095D01*
X0173300Y0024238D01*
X0173371Y0024380D01*
X0173445Y0024520D01*
X0173523Y0024657D01*
X0173605Y0024793D01*
X0173689Y0024927D01*
X0173778Y0025058D01*
X0173869Y0025187D01*
X0173964Y0025314D01*
X0174061Y0025439D01*
X0174162Y0025561D01*
X0174266Y0025680D01*
X0174373Y0025797D01*
X0174483Y0025911D01*
X0174596Y0026022D01*
X0174711Y0026131D01*
X0174829Y0026236D01*
X0174950Y0026338D01*
X0175073Y0026438D01*
X0175199Y0026534D01*
X0175327Y0026627D01*
X0175457Y0026717D01*
X0175590Y0026803D01*
X0175725Y0026887D01*
X0175861Y0026966D01*
X0176000Y0027043D01*
X0176141Y0027115D01*
X0176283Y0027185D01*
X0176427Y0027250D01*
X0176573Y0027312D01*
X0176720Y0027370D01*
X0176869Y0027425D01*
X0177019Y0027476D01*
X0177170Y0027523D01*
X0177322Y0027566D01*
X0177475Y0027605D01*
X0177630Y0027641D01*
X0177785Y0027672D01*
X0177941Y0027700D01*
X0178097Y0027724D01*
X0178254Y0027744D01*
X0178412Y0027760D01*
X0178569Y0027772D01*
X0178728Y0027780D01*
X0178886Y0027784D01*
X0179044Y0027784D01*
X0179202Y0027780D01*
X0179361Y0027772D01*
X0179518Y0027760D01*
X0179676Y0027744D01*
X0179833Y0027724D01*
X0179989Y0027700D01*
X0180145Y0027672D01*
X0180300Y0027641D01*
X0180455Y0027605D01*
X0180608Y0027566D01*
X0180760Y0027523D01*
X0180911Y0027476D01*
X0181061Y0027425D01*
X0181210Y0027370D01*
X0181357Y0027312D01*
X0181503Y0027250D01*
X0181647Y0027185D01*
X0181789Y0027115D01*
X0181930Y0027043D01*
X0182069Y0026966D01*
X0182205Y0026887D01*
X0182340Y0026803D01*
X0182473Y0026717D01*
X0182603Y0026627D01*
X0182731Y0026534D01*
X0182857Y0026438D01*
X0182980Y0026338D01*
X0183101Y0026236D01*
X0183219Y0026131D01*
X0183334Y0026022D01*
X0183447Y0025911D01*
X0183557Y0025797D01*
X0183664Y0025680D01*
X0183768Y0025561D01*
X0183869Y0025439D01*
X0183966Y0025314D01*
X0184061Y0025187D01*
X0184152Y0025058D01*
X0184241Y0024927D01*
X0184325Y0024793D01*
X0184407Y0024657D01*
X0184485Y0024520D01*
X0184559Y0024380D01*
X0184630Y0024238D01*
X0184698Y0024095D01*
X0184762Y0023950D01*
X0184822Y0023804D01*
X0184878Y0023656D01*
X0184931Y0023507D01*
X0184980Y0023356D01*
X0185025Y0023204D01*
X0185066Y0023051D01*
X0185104Y0022898D01*
X0185137Y0022743D01*
X0185167Y0022587D01*
X0185193Y0022431D01*
X0185214Y0022274D01*
X0185232Y0022117D01*
X0185246Y0021959D01*
X0185256Y0021801D01*
X0185262Y0021643D01*
X0185264Y0021485D01*
X0185262Y0021327D01*
X0185256Y0021169D01*
X0185246Y0021011D01*
X0185232Y0020853D01*
X0185214Y0020696D01*
X0185193Y0020539D01*
X0185167Y0020383D01*
X0185137Y0020227D01*
X0185104Y0020072D01*
X0185066Y0019919D01*
X0185025Y0019766D01*
X0184980Y0019614D01*
X0184931Y0019463D01*
X0184878Y0019314D01*
X0184822Y0019166D01*
X0184762Y0019020D01*
X0184698Y0018875D01*
X0184630Y0018732D01*
X0184559Y0018590D01*
X0184485Y0018450D01*
X0184407Y0018313D01*
X0184325Y0018177D01*
X0184241Y0018043D01*
X0184152Y0017912D01*
X0184061Y0017783D01*
X0183966Y0017656D01*
X0183869Y0017531D01*
X0183768Y0017409D01*
X0183664Y0017290D01*
X0183557Y0017173D01*
X0183447Y0017059D01*
X0183334Y0016948D01*
X0183219Y0016839D01*
X0183101Y0016734D01*
X0182980Y0016632D01*
X0182857Y0016532D01*
X0182731Y0016436D01*
X0182603Y0016343D01*
X0182473Y0016253D01*
X0182340Y0016167D01*
X0182205Y0016083D01*
X0182069Y0016004D01*
X0181930Y0015927D01*
X0181789Y0015855D01*
X0181647Y0015785D01*
X0181503Y0015720D01*
X0181357Y0015658D01*
X0181210Y0015600D01*
X0181061Y0015545D01*
X0180911Y0015494D01*
X0180760Y0015447D01*
X0180608Y0015404D01*
X0180455Y0015365D01*
X0180300Y0015329D01*
X0180145Y0015298D01*
X0179989Y0015270D01*
X0179833Y0015246D01*
X0179676Y0015226D01*
X0179518Y0015210D01*
X0179361Y0015198D01*
X0179202Y0015190D01*
X0179044Y0015186D01*
X0178886Y0015186D01*
X0178728Y0015190D01*
X0178569Y0015198D01*
X0178412Y0015210D01*
X0178254Y0015226D01*
X0178097Y0015246D01*
X0177941Y0015270D01*
X0177785Y0015298D01*
X0177630Y0015329D01*
X0177475Y0015365D01*
X0177322Y0015404D01*
X0177170Y0015447D01*
X0177019Y0015494D01*
X0176869Y0015545D01*
X0176720Y0015600D01*
X0176573Y0015658D01*
X0176427Y0015720D01*
X0176283Y0015785D01*
X0176141Y0015855D01*
X0176000Y0015927D01*
X0175861Y0016004D01*
X0175725Y0016083D01*
X0175590Y0016167D01*
X0175457Y0016253D01*
X0175327Y0016343D01*
X0175199Y0016436D01*
X0175073Y0016532D01*
X0174950Y0016632D01*
X0174829Y0016734D01*
X0174711Y0016839D01*
X0174596Y0016948D01*
X0174483Y0017059D01*
X0174373Y0017173D01*
X0174266Y0017290D01*
X0174162Y0017409D01*
X0174061Y0017531D01*
X0173964Y0017656D01*
X0173869Y0017783D01*
X0173778Y0017912D01*
X0173689Y0018043D01*
X0173605Y0018177D01*
X0173523Y0018313D01*
X0173445Y0018450D01*
X0173371Y0018590D01*
X0173300Y0018732D01*
X0173232Y0018875D01*
X0173168Y0019020D01*
X0173108Y0019166D01*
X0173052Y0019314D01*
X0172999Y0019463D01*
X0172950Y0019614D01*
X0172905Y0019766D01*
X0172864Y0019919D01*
X0172826Y0020072D01*
X0172793Y0020227D01*
X0172763Y0020383D01*
X0172737Y0020539D01*
X0172716Y0020696D01*
X0172698Y0020853D01*
X0172684Y0021011D01*
X0172674Y0021169D01*
X0172668Y0021327D01*
X0172666Y0021485D01*
X0116800Y0024300D02*
X0116800Y0004300D01*
X0086800Y0004300D01*
X0086800Y0024300D01*
X0116800Y0024300D01*
X0071800Y0029300D02*
X0071800Y0009300D01*
X0056800Y0009300D01*
X0056800Y0029300D01*
X0071800Y0029300D01*
X0015186Y0021485D02*
X0015188Y0021643D01*
X0015194Y0021801D01*
X0015204Y0021959D01*
X0015218Y0022117D01*
X0015236Y0022274D01*
X0015257Y0022431D01*
X0015283Y0022587D01*
X0015313Y0022743D01*
X0015346Y0022898D01*
X0015384Y0023051D01*
X0015425Y0023204D01*
X0015470Y0023356D01*
X0015519Y0023507D01*
X0015572Y0023656D01*
X0015628Y0023804D01*
X0015688Y0023950D01*
X0015752Y0024095D01*
X0015820Y0024238D01*
X0015891Y0024380D01*
X0015965Y0024520D01*
X0016043Y0024657D01*
X0016125Y0024793D01*
X0016209Y0024927D01*
X0016298Y0025058D01*
X0016389Y0025187D01*
X0016484Y0025314D01*
X0016581Y0025439D01*
X0016682Y0025561D01*
X0016786Y0025680D01*
X0016893Y0025797D01*
X0017003Y0025911D01*
X0017116Y0026022D01*
X0017231Y0026131D01*
X0017349Y0026236D01*
X0017470Y0026338D01*
X0017593Y0026438D01*
X0017719Y0026534D01*
X0017847Y0026627D01*
X0017977Y0026717D01*
X0018110Y0026803D01*
X0018245Y0026887D01*
X0018381Y0026966D01*
X0018520Y0027043D01*
X0018661Y0027115D01*
X0018803Y0027185D01*
X0018947Y0027250D01*
X0019093Y0027312D01*
X0019240Y0027370D01*
X0019389Y0027425D01*
X0019539Y0027476D01*
X0019690Y0027523D01*
X0019842Y0027566D01*
X0019995Y0027605D01*
X0020150Y0027641D01*
X0020305Y0027672D01*
X0020461Y0027700D01*
X0020617Y0027724D01*
X0020774Y0027744D01*
X0020932Y0027760D01*
X0021089Y0027772D01*
X0021248Y0027780D01*
X0021406Y0027784D01*
X0021564Y0027784D01*
X0021722Y0027780D01*
X0021881Y0027772D01*
X0022038Y0027760D01*
X0022196Y0027744D01*
X0022353Y0027724D01*
X0022509Y0027700D01*
X0022665Y0027672D01*
X0022820Y0027641D01*
X0022975Y0027605D01*
X0023128Y0027566D01*
X0023280Y0027523D01*
X0023431Y0027476D01*
X0023581Y0027425D01*
X0023730Y0027370D01*
X0023877Y0027312D01*
X0024023Y0027250D01*
X0024167Y0027185D01*
X0024309Y0027115D01*
X0024450Y0027043D01*
X0024589Y0026966D01*
X0024725Y0026887D01*
X0024860Y0026803D01*
X0024993Y0026717D01*
X0025123Y0026627D01*
X0025251Y0026534D01*
X0025377Y0026438D01*
X0025500Y0026338D01*
X0025621Y0026236D01*
X0025739Y0026131D01*
X0025854Y0026022D01*
X0025967Y0025911D01*
X0026077Y0025797D01*
X0026184Y0025680D01*
X0026288Y0025561D01*
X0026389Y0025439D01*
X0026486Y0025314D01*
X0026581Y0025187D01*
X0026672Y0025058D01*
X0026761Y0024927D01*
X0026845Y0024793D01*
X0026927Y0024657D01*
X0027005Y0024520D01*
X0027079Y0024380D01*
X0027150Y0024238D01*
X0027218Y0024095D01*
X0027282Y0023950D01*
X0027342Y0023804D01*
X0027398Y0023656D01*
X0027451Y0023507D01*
X0027500Y0023356D01*
X0027545Y0023204D01*
X0027586Y0023051D01*
X0027624Y0022898D01*
X0027657Y0022743D01*
X0027687Y0022587D01*
X0027713Y0022431D01*
X0027734Y0022274D01*
X0027752Y0022117D01*
X0027766Y0021959D01*
X0027776Y0021801D01*
X0027782Y0021643D01*
X0027784Y0021485D01*
X0027782Y0021327D01*
X0027776Y0021169D01*
X0027766Y0021011D01*
X0027752Y0020853D01*
X0027734Y0020696D01*
X0027713Y0020539D01*
X0027687Y0020383D01*
X0027657Y0020227D01*
X0027624Y0020072D01*
X0027586Y0019919D01*
X0027545Y0019766D01*
X0027500Y0019614D01*
X0027451Y0019463D01*
X0027398Y0019314D01*
X0027342Y0019166D01*
X0027282Y0019020D01*
X0027218Y0018875D01*
X0027150Y0018732D01*
X0027079Y0018590D01*
X0027005Y0018450D01*
X0026927Y0018313D01*
X0026845Y0018177D01*
X0026761Y0018043D01*
X0026672Y0017912D01*
X0026581Y0017783D01*
X0026486Y0017656D01*
X0026389Y0017531D01*
X0026288Y0017409D01*
X0026184Y0017290D01*
X0026077Y0017173D01*
X0025967Y0017059D01*
X0025854Y0016948D01*
X0025739Y0016839D01*
X0025621Y0016734D01*
X0025500Y0016632D01*
X0025377Y0016532D01*
X0025251Y0016436D01*
X0025123Y0016343D01*
X0024993Y0016253D01*
X0024860Y0016167D01*
X0024725Y0016083D01*
X0024589Y0016004D01*
X0024450Y0015927D01*
X0024309Y0015855D01*
X0024167Y0015785D01*
X0024023Y0015720D01*
X0023877Y0015658D01*
X0023730Y0015600D01*
X0023581Y0015545D01*
X0023431Y0015494D01*
X0023280Y0015447D01*
X0023128Y0015404D01*
X0022975Y0015365D01*
X0022820Y0015329D01*
X0022665Y0015298D01*
X0022509Y0015270D01*
X0022353Y0015246D01*
X0022196Y0015226D01*
X0022038Y0015210D01*
X0021881Y0015198D01*
X0021722Y0015190D01*
X0021564Y0015186D01*
X0021406Y0015186D01*
X0021248Y0015190D01*
X0021089Y0015198D01*
X0020932Y0015210D01*
X0020774Y0015226D01*
X0020617Y0015246D01*
X0020461Y0015270D01*
X0020305Y0015298D01*
X0020150Y0015329D01*
X0019995Y0015365D01*
X0019842Y0015404D01*
X0019690Y0015447D01*
X0019539Y0015494D01*
X0019389Y0015545D01*
X0019240Y0015600D01*
X0019093Y0015658D01*
X0018947Y0015720D01*
X0018803Y0015785D01*
X0018661Y0015855D01*
X0018520Y0015927D01*
X0018381Y0016004D01*
X0018245Y0016083D01*
X0018110Y0016167D01*
X0017977Y0016253D01*
X0017847Y0016343D01*
X0017719Y0016436D01*
X0017593Y0016532D01*
X0017470Y0016632D01*
X0017349Y0016734D01*
X0017231Y0016839D01*
X0017116Y0016948D01*
X0017003Y0017059D01*
X0016893Y0017173D01*
X0016786Y0017290D01*
X0016682Y0017409D01*
X0016581Y0017531D01*
X0016484Y0017656D01*
X0016389Y0017783D01*
X0016298Y0017912D01*
X0016209Y0018043D01*
X0016125Y0018177D01*
X0016043Y0018313D01*
X0015965Y0018450D01*
X0015891Y0018590D01*
X0015820Y0018732D01*
X0015752Y0018875D01*
X0015688Y0019020D01*
X0015628Y0019166D01*
X0015572Y0019314D01*
X0015519Y0019463D01*
X0015470Y0019614D01*
X0015425Y0019766D01*
X0015384Y0019919D01*
X0015346Y0020072D01*
X0015313Y0020227D01*
X0015283Y0020383D01*
X0015257Y0020539D01*
X0015236Y0020696D01*
X0015218Y0020853D01*
X0015204Y0021011D01*
X0015194Y0021169D01*
X0015188Y0021327D01*
X0015186Y0021485D01*
X0005776Y0161131D02*
X0002627Y0161131D01*
X0002627Y0188690D01*
X0005776Y0188690D01*
X0005776Y0161131D01*
X0030186Y0161131D01*
X0030186Y0188690D01*
X0005776Y0188690D01*
X0015186Y0218335D02*
X0015188Y0218493D01*
X0015194Y0218651D01*
X0015204Y0218809D01*
X0015218Y0218967D01*
X0015236Y0219124D01*
X0015257Y0219281D01*
X0015283Y0219437D01*
X0015313Y0219593D01*
X0015346Y0219748D01*
X0015384Y0219901D01*
X0015425Y0220054D01*
X0015470Y0220206D01*
X0015519Y0220357D01*
X0015572Y0220506D01*
X0015628Y0220654D01*
X0015688Y0220800D01*
X0015752Y0220945D01*
X0015820Y0221088D01*
X0015891Y0221230D01*
X0015965Y0221370D01*
X0016043Y0221507D01*
X0016125Y0221643D01*
X0016209Y0221777D01*
X0016298Y0221908D01*
X0016389Y0222037D01*
X0016484Y0222164D01*
X0016581Y0222289D01*
X0016682Y0222411D01*
X0016786Y0222530D01*
X0016893Y0222647D01*
X0017003Y0222761D01*
X0017116Y0222872D01*
X0017231Y0222981D01*
X0017349Y0223086D01*
X0017470Y0223188D01*
X0017593Y0223288D01*
X0017719Y0223384D01*
X0017847Y0223477D01*
X0017977Y0223567D01*
X0018110Y0223653D01*
X0018245Y0223737D01*
X0018381Y0223816D01*
X0018520Y0223893D01*
X0018661Y0223965D01*
X0018803Y0224035D01*
X0018947Y0224100D01*
X0019093Y0224162D01*
X0019240Y0224220D01*
X0019389Y0224275D01*
X0019539Y0224326D01*
X0019690Y0224373D01*
X0019842Y0224416D01*
X0019995Y0224455D01*
X0020150Y0224491D01*
X0020305Y0224522D01*
X0020461Y0224550D01*
X0020617Y0224574D01*
X0020774Y0224594D01*
X0020932Y0224610D01*
X0021089Y0224622D01*
X0021248Y0224630D01*
X0021406Y0224634D01*
X0021564Y0224634D01*
X0021722Y0224630D01*
X0021881Y0224622D01*
X0022038Y0224610D01*
X0022196Y0224594D01*
X0022353Y0224574D01*
X0022509Y0224550D01*
X0022665Y0224522D01*
X0022820Y0224491D01*
X0022975Y0224455D01*
X0023128Y0224416D01*
X0023280Y0224373D01*
X0023431Y0224326D01*
X0023581Y0224275D01*
X0023730Y0224220D01*
X0023877Y0224162D01*
X0024023Y0224100D01*
X0024167Y0224035D01*
X0024309Y0223965D01*
X0024450Y0223893D01*
X0024589Y0223816D01*
X0024725Y0223737D01*
X0024860Y0223653D01*
X0024993Y0223567D01*
X0025123Y0223477D01*
X0025251Y0223384D01*
X0025377Y0223288D01*
X0025500Y0223188D01*
X0025621Y0223086D01*
X0025739Y0222981D01*
X0025854Y0222872D01*
X0025967Y0222761D01*
X0026077Y0222647D01*
X0026184Y0222530D01*
X0026288Y0222411D01*
X0026389Y0222289D01*
X0026486Y0222164D01*
X0026581Y0222037D01*
X0026672Y0221908D01*
X0026761Y0221777D01*
X0026845Y0221643D01*
X0026927Y0221507D01*
X0027005Y0221370D01*
X0027079Y0221230D01*
X0027150Y0221088D01*
X0027218Y0220945D01*
X0027282Y0220800D01*
X0027342Y0220654D01*
X0027398Y0220506D01*
X0027451Y0220357D01*
X0027500Y0220206D01*
X0027545Y0220054D01*
X0027586Y0219901D01*
X0027624Y0219748D01*
X0027657Y0219593D01*
X0027687Y0219437D01*
X0027713Y0219281D01*
X0027734Y0219124D01*
X0027752Y0218967D01*
X0027766Y0218809D01*
X0027776Y0218651D01*
X0027782Y0218493D01*
X0027784Y0218335D01*
X0027782Y0218177D01*
X0027776Y0218019D01*
X0027766Y0217861D01*
X0027752Y0217703D01*
X0027734Y0217546D01*
X0027713Y0217389D01*
X0027687Y0217233D01*
X0027657Y0217077D01*
X0027624Y0216922D01*
X0027586Y0216769D01*
X0027545Y0216616D01*
X0027500Y0216464D01*
X0027451Y0216313D01*
X0027398Y0216164D01*
X0027342Y0216016D01*
X0027282Y0215870D01*
X0027218Y0215725D01*
X0027150Y0215582D01*
X0027079Y0215440D01*
X0027005Y0215300D01*
X0026927Y0215163D01*
X0026845Y0215027D01*
X0026761Y0214893D01*
X0026672Y0214762D01*
X0026581Y0214633D01*
X0026486Y0214506D01*
X0026389Y0214381D01*
X0026288Y0214259D01*
X0026184Y0214140D01*
X0026077Y0214023D01*
X0025967Y0213909D01*
X0025854Y0213798D01*
X0025739Y0213689D01*
X0025621Y0213584D01*
X0025500Y0213482D01*
X0025377Y0213382D01*
X0025251Y0213286D01*
X0025123Y0213193D01*
X0024993Y0213103D01*
X0024860Y0213017D01*
X0024725Y0212933D01*
X0024589Y0212854D01*
X0024450Y0212777D01*
X0024309Y0212705D01*
X0024167Y0212635D01*
X0024023Y0212570D01*
X0023877Y0212508D01*
X0023730Y0212450D01*
X0023581Y0212395D01*
X0023431Y0212344D01*
X0023280Y0212297D01*
X0023128Y0212254D01*
X0022975Y0212215D01*
X0022820Y0212179D01*
X0022665Y0212148D01*
X0022509Y0212120D01*
X0022353Y0212096D01*
X0022196Y0212076D01*
X0022038Y0212060D01*
X0021881Y0212048D01*
X0021722Y0212040D01*
X0021564Y0212036D01*
X0021406Y0212036D01*
X0021248Y0212040D01*
X0021089Y0212048D01*
X0020932Y0212060D01*
X0020774Y0212076D01*
X0020617Y0212096D01*
X0020461Y0212120D01*
X0020305Y0212148D01*
X0020150Y0212179D01*
X0019995Y0212215D01*
X0019842Y0212254D01*
X0019690Y0212297D01*
X0019539Y0212344D01*
X0019389Y0212395D01*
X0019240Y0212450D01*
X0019093Y0212508D01*
X0018947Y0212570D01*
X0018803Y0212635D01*
X0018661Y0212705D01*
X0018520Y0212777D01*
X0018381Y0212854D01*
X0018245Y0212933D01*
X0018110Y0213017D01*
X0017977Y0213103D01*
X0017847Y0213193D01*
X0017719Y0213286D01*
X0017593Y0213382D01*
X0017470Y0213482D01*
X0017349Y0213584D01*
X0017231Y0213689D01*
X0017116Y0213798D01*
X0017003Y0213909D01*
X0016893Y0214023D01*
X0016786Y0214140D01*
X0016682Y0214259D01*
X0016581Y0214381D01*
X0016484Y0214506D01*
X0016389Y0214633D01*
X0016298Y0214762D01*
X0016209Y0214893D01*
X0016125Y0215027D01*
X0016043Y0215163D01*
X0015965Y0215300D01*
X0015891Y0215440D01*
X0015820Y0215582D01*
X0015752Y0215725D01*
X0015688Y0215870D01*
X0015628Y0216016D01*
X0015572Y0216164D01*
X0015519Y0216313D01*
X0015470Y0216464D01*
X0015425Y0216616D01*
X0015384Y0216769D01*
X0015346Y0216922D01*
X0015313Y0217077D01*
X0015283Y0217233D01*
X0015257Y0217389D01*
X0015236Y0217546D01*
X0015218Y0217703D01*
X0015204Y0217861D01*
X0015194Y0218019D01*
X0015188Y0218177D01*
X0015186Y0218335D01*
X0071556Y0217438D02*
X0071556Y0176706D01*
X0071556Y0161706D02*
X0125706Y0161706D01*
X0125706Y0176706D02*
X0125706Y0217438D01*
X0125706Y0231706D02*
X0125706Y0244938D01*
X0071556Y0244938D01*
X0071556Y0231706D01*
X0168414Y0191249D02*
X0168414Y0149910D01*
X0192824Y0149910D01*
X0192824Y0191249D01*
X0195973Y0191249D01*
X0195973Y0149910D01*
X0192824Y0149910D01*
X0192824Y0191249D02*
X0168414Y0191249D01*
X0172666Y0218335D02*
X0172668Y0218493D01*
X0172674Y0218651D01*
X0172684Y0218809D01*
X0172698Y0218967D01*
X0172716Y0219124D01*
X0172737Y0219281D01*
X0172763Y0219437D01*
X0172793Y0219593D01*
X0172826Y0219748D01*
X0172864Y0219901D01*
X0172905Y0220054D01*
X0172950Y0220206D01*
X0172999Y0220357D01*
X0173052Y0220506D01*
X0173108Y0220654D01*
X0173168Y0220800D01*
X0173232Y0220945D01*
X0173300Y0221088D01*
X0173371Y0221230D01*
X0173445Y0221370D01*
X0173523Y0221507D01*
X0173605Y0221643D01*
X0173689Y0221777D01*
X0173778Y0221908D01*
X0173869Y0222037D01*
X0173964Y0222164D01*
X0174061Y0222289D01*
X0174162Y0222411D01*
X0174266Y0222530D01*
X0174373Y0222647D01*
X0174483Y0222761D01*
X0174596Y0222872D01*
X0174711Y0222981D01*
X0174829Y0223086D01*
X0174950Y0223188D01*
X0175073Y0223288D01*
X0175199Y0223384D01*
X0175327Y0223477D01*
X0175457Y0223567D01*
X0175590Y0223653D01*
X0175725Y0223737D01*
X0175861Y0223816D01*
X0176000Y0223893D01*
X0176141Y0223965D01*
X0176283Y0224035D01*
X0176427Y0224100D01*
X0176573Y0224162D01*
X0176720Y0224220D01*
X0176869Y0224275D01*
X0177019Y0224326D01*
X0177170Y0224373D01*
X0177322Y0224416D01*
X0177475Y0224455D01*
X0177630Y0224491D01*
X0177785Y0224522D01*
X0177941Y0224550D01*
X0178097Y0224574D01*
X0178254Y0224594D01*
X0178412Y0224610D01*
X0178569Y0224622D01*
X0178728Y0224630D01*
X0178886Y0224634D01*
X0179044Y0224634D01*
X0179202Y0224630D01*
X0179361Y0224622D01*
X0179518Y0224610D01*
X0179676Y0224594D01*
X0179833Y0224574D01*
X0179989Y0224550D01*
X0180145Y0224522D01*
X0180300Y0224491D01*
X0180455Y0224455D01*
X0180608Y0224416D01*
X0180760Y0224373D01*
X0180911Y0224326D01*
X0181061Y0224275D01*
X0181210Y0224220D01*
X0181357Y0224162D01*
X0181503Y0224100D01*
X0181647Y0224035D01*
X0181789Y0223965D01*
X0181930Y0223893D01*
X0182069Y0223816D01*
X0182205Y0223737D01*
X0182340Y0223653D01*
X0182473Y0223567D01*
X0182603Y0223477D01*
X0182731Y0223384D01*
X0182857Y0223288D01*
X0182980Y0223188D01*
X0183101Y0223086D01*
X0183219Y0222981D01*
X0183334Y0222872D01*
X0183447Y0222761D01*
X0183557Y0222647D01*
X0183664Y0222530D01*
X0183768Y0222411D01*
X0183869Y0222289D01*
X0183966Y0222164D01*
X0184061Y0222037D01*
X0184152Y0221908D01*
X0184241Y0221777D01*
X0184325Y0221643D01*
X0184407Y0221507D01*
X0184485Y0221370D01*
X0184559Y0221230D01*
X0184630Y0221088D01*
X0184698Y0220945D01*
X0184762Y0220800D01*
X0184822Y0220654D01*
X0184878Y0220506D01*
X0184931Y0220357D01*
X0184980Y0220206D01*
X0185025Y0220054D01*
X0185066Y0219901D01*
X0185104Y0219748D01*
X0185137Y0219593D01*
X0185167Y0219437D01*
X0185193Y0219281D01*
X0185214Y0219124D01*
X0185232Y0218967D01*
X0185246Y0218809D01*
X0185256Y0218651D01*
X0185262Y0218493D01*
X0185264Y0218335D01*
X0185262Y0218177D01*
X0185256Y0218019D01*
X0185246Y0217861D01*
X0185232Y0217703D01*
X0185214Y0217546D01*
X0185193Y0217389D01*
X0185167Y0217233D01*
X0185137Y0217077D01*
X0185104Y0216922D01*
X0185066Y0216769D01*
X0185025Y0216616D01*
X0184980Y0216464D01*
X0184931Y0216313D01*
X0184878Y0216164D01*
X0184822Y0216016D01*
X0184762Y0215870D01*
X0184698Y0215725D01*
X0184630Y0215582D01*
X0184559Y0215440D01*
X0184485Y0215300D01*
X0184407Y0215163D01*
X0184325Y0215027D01*
X0184241Y0214893D01*
X0184152Y0214762D01*
X0184061Y0214633D01*
X0183966Y0214506D01*
X0183869Y0214381D01*
X0183768Y0214259D01*
X0183664Y0214140D01*
X0183557Y0214023D01*
X0183447Y0213909D01*
X0183334Y0213798D01*
X0183219Y0213689D01*
X0183101Y0213584D01*
X0182980Y0213482D01*
X0182857Y0213382D01*
X0182731Y0213286D01*
X0182603Y0213193D01*
X0182473Y0213103D01*
X0182340Y0213017D01*
X0182205Y0212933D01*
X0182069Y0212854D01*
X0181930Y0212777D01*
X0181789Y0212705D01*
X0181647Y0212635D01*
X0181503Y0212570D01*
X0181357Y0212508D01*
X0181210Y0212450D01*
X0181061Y0212395D01*
X0180911Y0212344D01*
X0180760Y0212297D01*
X0180608Y0212254D01*
X0180455Y0212215D01*
X0180300Y0212179D01*
X0180145Y0212148D01*
X0179989Y0212120D01*
X0179833Y0212096D01*
X0179676Y0212076D01*
X0179518Y0212060D01*
X0179361Y0212048D01*
X0179202Y0212040D01*
X0179044Y0212036D01*
X0178886Y0212036D01*
X0178728Y0212040D01*
X0178569Y0212048D01*
X0178412Y0212060D01*
X0178254Y0212076D01*
X0178097Y0212096D01*
X0177941Y0212120D01*
X0177785Y0212148D01*
X0177630Y0212179D01*
X0177475Y0212215D01*
X0177322Y0212254D01*
X0177170Y0212297D01*
X0177019Y0212344D01*
X0176869Y0212395D01*
X0176720Y0212450D01*
X0176573Y0212508D01*
X0176427Y0212570D01*
X0176283Y0212635D01*
X0176141Y0212705D01*
X0176000Y0212777D01*
X0175861Y0212854D01*
X0175725Y0212933D01*
X0175590Y0213017D01*
X0175457Y0213103D01*
X0175327Y0213193D01*
X0175199Y0213286D01*
X0175073Y0213382D01*
X0174950Y0213482D01*
X0174829Y0213584D01*
X0174711Y0213689D01*
X0174596Y0213798D01*
X0174483Y0213909D01*
X0174373Y0214023D01*
X0174266Y0214140D01*
X0174162Y0214259D01*
X0174061Y0214381D01*
X0173964Y0214506D01*
X0173869Y0214633D01*
X0173778Y0214762D01*
X0173689Y0214893D01*
X0173605Y0215027D01*
X0173523Y0215163D01*
X0173445Y0215300D01*
X0173371Y0215440D01*
X0173300Y0215582D01*
X0173232Y0215725D01*
X0173168Y0215870D01*
X0173108Y0216016D01*
X0173052Y0216164D01*
X0172999Y0216313D01*
X0172950Y0216464D01*
X0172905Y0216616D01*
X0172864Y0216769D01*
X0172826Y0216922D01*
X0172793Y0217077D01*
X0172763Y0217233D01*
X0172737Y0217389D01*
X0172716Y0217546D01*
X0172698Y0217703D01*
X0172684Y0217861D01*
X0172674Y0218019D01*
X0172668Y0218177D01*
X0172666Y0218335D01*
D12*
X0173680Y0146540D02*
X0174860Y0146540D01*
X0174270Y0146540D02*
X0174270Y0143590D01*
X0173680Y0143000D01*
X0173090Y0143000D01*
X0172500Y0143590D01*
X0176125Y0143000D02*
X0178485Y0145360D01*
X0178485Y0145950D01*
X0177895Y0146540D01*
X0176715Y0146540D01*
X0176125Y0145950D01*
X0176125Y0143000D02*
X0178485Y0143000D01*
X0177860Y0110540D02*
X0176680Y0110540D01*
X0177270Y0110540D02*
X0177270Y0107590D01*
X0176680Y0107000D01*
X0176090Y0107000D01*
X0175500Y0107590D01*
X0179125Y0107590D02*
X0179715Y0107000D01*
X0180895Y0107000D01*
X0181485Y0107590D01*
X0181485Y0108180D01*
X0180895Y0108770D01*
X0180305Y0108770D01*
X0180895Y0108770D02*
X0181485Y0109360D01*
X0181485Y0109950D01*
X0180895Y0110540D01*
X0179715Y0110540D01*
X0179125Y0109950D01*
X0126095Y0122500D02*
X0124360Y0124235D01*
X0125228Y0124235D02*
X0122626Y0124235D01*
X0122626Y0122500D02*
X0122626Y0127704D01*
X0125228Y0127704D01*
X0126095Y0126837D01*
X0126095Y0125102D01*
X0125228Y0124235D01*
X0120939Y0125102D02*
X0117469Y0125102D01*
X0117469Y0125970D02*
X0117469Y0122500D01*
X0115782Y0122500D02*
X0112313Y0122500D01*
X0112313Y0127704D01*
X0115782Y0127704D01*
X0117469Y0125970D02*
X0119204Y0127704D01*
X0120939Y0125970D01*
X0120939Y0122500D01*
X0114048Y0125102D02*
X0112313Y0125102D01*
X0110626Y0122500D02*
X0107156Y0122500D01*
X0107156Y0127704D01*
X0105470Y0126837D02*
X0104602Y0127704D01*
X0102867Y0127704D01*
X0102000Y0126837D01*
X0102000Y0123367D01*
X0102867Y0122500D01*
X0104602Y0122500D01*
X0105470Y0123367D01*
X0104578Y0130900D02*
X0104578Y0136104D01*
X0108048Y0130900D01*
X0108048Y0136104D01*
X0109735Y0136104D02*
X0113204Y0130900D01*
X0113204Y0136104D01*
X0114891Y0134370D02*
X0116626Y0136104D01*
X0118361Y0134370D01*
X0118361Y0130900D01*
X0118361Y0133502D02*
X0114891Y0133502D01*
X0114891Y0134370D02*
X0114891Y0130900D01*
X0109735Y0130900D02*
X0109735Y0136104D01*
X0102891Y0136104D02*
X0099422Y0136104D01*
X0099422Y0130900D01*
X0102891Y0130900D01*
X0101157Y0133502D02*
X0099422Y0133502D01*
X0097735Y0136104D02*
X0094265Y0136104D01*
X0092579Y0136104D02*
X0092579Y0130900D01*
X0089109Y0136104D01*
X0089109Y0130900D01*
X0087422Y0130900D02*
X0087422Y0134370D01*
X0085687Y0136104D01*
X0083953Y0134370D01*
X0083953Y0130900D01*
X0083953Y0133502D02*
X0087422Y0133502D01*
X0086531Y0127704D02*
X0086531Y0122500D01*
X0090000Y0122500D01*
X0091687Y0122500D02*
X0091687Y0127704D01*
X0094289Y0127704D01*
X0095157Y0126837D01*
X0095157Y0125102D01*
X0094289Y0124235D01*
X0091687Y0124235D01*
X0090000Y0127704D02*
X0086531Y0127704D01*
X0084844Y0127704D02*
X0081374Y0127704D01*
X0081374Y0122500D01*
X0084844Y0122500D01*
X0086531Y0125102D02*
X0088266Y0125102D01*
X0083109Y0125102D02*
X0081374Y0125102D01*
X0079688Y0122500D02*
X0077085Y0125102D01*
X0076218Y0124235D02*
X0079688Y0127704D01*
X0076218Y0127704D02*
X0076218Y0122500D01*
X0096000Y0130900D02*
X0096000Y0136104D01*
X0098528Y0083860D02*
X0099118Y0082680D01*
X0100298Y0081500D01*
X0100298Y0083270D01*
X0100888Y0083860D01*
X0101479Y0083860D01*
X0102069Y0083270D01*
X0102069Y0082090D01*
X0101479Y0081500D01*
X0100298Y0081500D01*
X0100298Y0080235D02*
X0099118Y0080235D01*
X0098528Y0079645D01*
X0098528Y0077875D01*
X0102069Y0077875D01*
X0100888Y0077875D02*
X0100888Y0079645D01*
X0100298Y0080235D01*
X0100888Y0079055D02*
X0102069Y0080235D01*
X0101528Y0074860D02*
X0101528Y0072500D01*
X0103298Y0072500D01*
X0102708Y0073680D01*
X0102708Y0074270D01*
X0103298Y0074860D01*
X0104479Y0074860D01*
X0105069Y0074270D01*
X0105069Y0073090D01*
X0104479Y0072500D01*
X0105069Y0071235D02*
X0103888Y0070055D01*
X0103888Y0070645D02*
X0103888Y0068875D01*
X0105069Y0068875D02*
X0101528Y0068875D01*
X0101528Y0070645D01*
X0102118Y0071235D01*
X0103298Y0071235D01*
X0103888Y0070645D01*
X0100782Y0068104D02*
X0100782Y0062900D01*
X0102469Y0063767D02*
X0102469Y0065502D01*
X0103337Y0066370D01*
X0105071Y0066370D01*
X0105939Y0065502D01*
X0105939Y0063767D01*
X0105071Y0062900D01*
X0103337Y0062900D01*
X0102469Y0063767D01*
X0099048Y0066370D02*
X0100782Y0068104D01*
X0099048Y0066370D02*
X0097313Y0068104D01*
X0097313Y0062900D01*
X0095626Y0064635D02*
X0092156Y0064635D01*
X0092156Y0065502D02*
X0093024Y0066370D01*
X0094759Y0066370D01*
X0095626Y0065502D01*
X0095626Y0064635D01*
X0094759Y0062900D02*
X0093024Y0062900D01*
X0092156Y0063767D01*
X0092156Y0065502D01*
X0090470Y0062900D02*
X0090470Y0068104D01*
X0088735Y0064635D02*
X0090470Y0062900D01*
X0088735Y0064635D02*
X0087000Y0062900D01*
X0087000Y0068104D01*
X0084569Y0067875D02*
X0081028Y0067875D01*
X0081028Y0069645D01*
X0081618Y0070235D01*
X0082798Y0070235D01*
X0083388Y0069645D01*
X0083388Y0067875D01*
X0083388Y0069055D02*
X0084569Y0070235D01*
X0084569Y0071500D02*
X0083979Y0071500D01*
X0081618Y0073860D01*
X0081028Y0073860D01*
X0081028Y0071500D01*
X0080069Y0078875D02*
X0076528Y0078875D01*
X0076528Y0080645D01*
X0077118Y0081235D01*
X0078298Y0081235D01*
X0078888Y0080645D01*
X0078888Y0078875D01*
X0078888Y0080055D02*
X0080069Y0081235D01*
X0080069Y0082500D02*
X0080069Y0084860D01*
X0080069Y0083680D02*
X0076528Y0083680D01*
X0077708Y0082500D01*
X0078180Y0062572D02*
X0078180Y0059031D01*
X0077000Y0059031D02*
X0079360Y0059031D01*
X0077000Y0061392D02*
X0078180Y0062572D01*
X0075735Y0061982D02*
X0075735Y0059621D01*
X0075145Y0059031D01*
X0073375Y0059031D01*
X0073375Y0062572D01*
X0075145Y0062572D01*
X0075735Y0061982D01*
X0087000Y0059704D02*
X0087000Y0054500D01*
X0089602Y0054500D01*
X0090470Y0055367D01*
X0090470Y0058837D01*
X0089602Y0059704D01*
X0087000Y0059704D01*
X0092156Y0057970D02*
X0093891Y0059704D01*
X0093891Y0054500D01*
X0092156Y0054500D02*
X0095626Y0054500D01*
X0094750Y0050072D02*
X0097110Y0046531D01*
X0097110Y0050072D01*
X0098375Y0048302D02*
X0100735Y0048302D01*
X0102000Y0047121D02*
X0102000Y0046531D01*
X0102000Y0047121D02*
X0104360Y0049482D01*
X0104360Y0050072D01*
X0102000Y0050072D01*
X0100145Y0050072D02*
X0098375Y0048302D01*
X0100145Y0046531D02*
X0100145Y0050072D01*
X0102469Y0054500D02*
X0102469Y0057970D01*
X0103337Y0057970D01*
X0104204Y0057102D01*
X0105071Y0057970D01*
X0105939Y0057102D01*
X0105939Y0054500D01*
X0107626Y0054500D02*
X0109360Y0054500D01*
X0108493Y0054500D02*
X0108493Y0057970D01*
X0107626Y0057970D01*
X0108493Y0059704D02*
X0108493Y0060572D01*
X0107626Y0062900D02*
X0110228Y0062900D01*
X0111095Y0063767D01*
X0110228Y0064635D01*
X0108493Y0064635D01*
X0107626Y0065502D01*
X0108493Y0066370D01*
X0111095Y0066370D01*
X0112782Y0063767D02*
X0113649Y0063767D01*
X0113649Y0062900D01*
X0112782Y0062900D01*
X0112782Y0063767D01*
X0115360Y0063767D02*
X0116228Y0062900D01*
X0118830Y0062900D01*
X0120517Y0063767D02*
X0120517Y0065502D01*
X0121384Y0066370D01*
X0123986Y0066370D01*
X0122569Y0068875D02*
X0119028Y0068875D01*
X0119028Y0070645D01*
X0119618Y0071235D01*
X0120798Y0071235D01*
X0121388Y0070645D01*
X0121388Y0068875D01*
X0121388Y0070055D02*
X0122569Y0071235D01*
X0122569Y0072500D02*
X0120208Y0074860D01*
X0119618Y0074860D01*
X0119028Y0074270D01*
X0119028Y0073090D01*
X0119618Y0072500D01*
X0122569Y0072500D02*
X0122569Y0074860D01*
X0120069Y0078875D02*
X0116528Y0078875D01*
X0116528Y0080645D01*
X0117118Y0081235D01*
X0118298Y0081235D01*
X0118888Y0080645D01*
X0118888Y0078875D01*
X0118888Y0080055D02*
X0120069Y0081235D01*
X0119479Y0082500D02*
X0120069Y0083090D01*
X0120069Y0084270D01*
X0119479Y0084860D01*
X0118888Y0084860D01*
X0118298Y0084270D01*
X0118298Y0083680D01*
X0118298Y0084270D02*
X0117708Y0084860D01*
X0117118Y0084860D01*
X0116528Y0084270D01*
X0116528Y0083090D01*
X0117118Y0082500D01*
X0116228Y0066370D02*
X0115360Y0065502D01*
X0115360Y0063767D01*
X0116228Y0066370D02*
X0118830Y0066370D01*
X0120517Y0063767D02*
X0121384Y0062900D01*
X0123986Y0062900D01*
X0117954Y0054500D02*
X0116220Y0054500D01*
X0117087Y0054500D02*
X0117087Y0057970D01*
X0116220Y0057970D01*
X0114533Y0057102D02*
X0114533Y0054500D01*
X0114533Y0057102D02*
X0113665Y0057970D01*
X0111063Y0057970D01*
X0111063Y0054500D01*
X0111020Y0050072D02*
X0111610Y0049482D01*
X0111610Y0048892D01*
X0111020Y0048302D01*
X0109840Y0048302D01*
X0109250Y0048892D01*
X0109250Y0049482D01*
X0109840Y0050072D01*
X0111020Y0050072D01*
X0111020Y0048302D02*
X0111610Y0047712D01*
X0111610Y0047121D01*
X0111020Y0046531D01*
X0109840Y0046531D01*
X0109250Y0047121D01*
X0109250Y0047712D01*
X0109840Y0048302D01*
X0107985Y0048892D02*
X0107985Y0049482D01*
X0107395Y0050072D01*
X0106215Y0050072D01*
X0105625Y0049482D01*
X0107985Y0048892D02*
X0105625Y0046531D01*
X0107985Y0046531D01*
X0104204Y0054500D02*
X0104204Y0057102D01*
X0094750Y0050072D02*
X0094750Y0046531D01*
X0093485Y0046531D02*
X0091125Y0046531D01*
X0092305Y0046531D02*
X0092305Y0050072D01*
X0091125Y0048892D01*
X0091218Y0034704D02*
X0091218Y0029500D01*
X0094688Y0029500D01*
X0096374Y0029500D02*
X0096374Y0034704D01*
X0098109Y0032970D01*
X0099844Y0034704D01*
X0099844Y0029500D01*
X0101531Y0030367D02*
X0102398Y0029500D01*
X0104133Y0029500D01*
X0105000Y0030367D01*
X0105000Y0033837D01*
X0104133Y0034704D01*
X0102398Y0034704D01*
X0101531Y0033837D01*
X0101531Y0030367D01*
X0106687Y0030367D02*
X0107555Y0029500D01*
X0109289Y0029500D01*
X0110157Y0030367D01*
X0110157Y0031235D01*
X0109289Y0032102D01*
X0107555Y0032102D01*
X0106687Y0032970D01*
X0106687Y0033837D01*
X0107555Y0034704D01*
X0109289Y0034704D01*
X0110157Y0033837D01*
X0111844Y0032970D02*
X0113578Y0034704D01*
X0113578Y0029500D01*
X0111844Y0029500D02*
X0115313Y0029500D01*
X0126375Y0031031D02*
X0126375Y0034572D01*
X0128145Y0034572D01*
X0128735Y0033982D01*
X0128735Y0032802D01*
X0128145Y0032212D01*
X0126375Y0032212D01*
X0127555Y0032212D02*
X0128735Y0031031D01*
X0130000Y0032802D02*
X0132360Y0032802D01*
X0131770Y0034572D02*
X0131770Y0031031D01*
X0130000Y0032802D02*
X0131770Y0034572D01*
X0117087Y0059704D02*
X0117087Y0060572D01*
X0094688Y0034704D02*
X0091218Y0034704D01*
X0089531Y0034704D02*
X0089531Y0029500D01*
X0087796Y0031235D01*
X0086062Y0029500D01*
X0086062Y0034704D01*
X0091218Y0032102D02*
X0092953Y0032102D01*
X0041860Y0075031D02*
X0039500Y0075031D01*
X0040680Y0075031D02*
X0040680Y0078572D01*
X0039500Y0077392D01*
X0038235Y0078572D02*
X0035875Y0078572D01*
X0037055Y0078572D02*
X0037055Y0075031D01*
X0015485Y0154500D02*
X0013125Y0154500D01*
X0014305Y0154500D02*
X0014305Y0158040D01*
X0013125Y0156860D01*
X0011860Y0158040D02*
X0010680Y0158040D01*
X0011270Y0158040D02*
X0011270Y0155090D01*
X0010680Y0154500D01*
X0010090Y0154500D01*
X0009500Y0155090D01*
D13*
X0037071Y0181001D02*
X0041524Y0181001D01*
X0039297Y0178775D02*
X0039297Y0183228D01*
X0039303Y0170728D02*
X0039303Y0166275D01*
X0155957Y0169888D02*
X0155957Y0172115D01*
X0157071Y0173228D01*
X0161524Y0173228D01*
X0162637Y0172115D01*
X0162637Y0169888D01*
X0161524Y0168775D01*
X0157071Y0168775D01*
X0155957Y0169888D01*
X0160410Y0171001D02*
X0162637Y0173228D01*
X0162637Y0186275D02*
X0155957Y0186275D01*
X0162637Y0186275D02*
X0162637Y0190728D01*
X0160410Y0155728D02*
X0155957Y0155728D01*
X0155957Y0151275D02*
X0160410Y0151275D01*
X0162637Y0153501D01*
X0160410Y0155728D01*
D14*
X0176172Y0193647D02*
X0177942Y0193647D01*
X0178827Y0194532D01*
X0178827Y0198072D01*
X0177942Y0198957D01*
X0176172Y0198957D01*
X0175287Y0198072D01*
X0175287Y0194532D01*
X0176172Y0193647D01*
X0180725Y0193647D02*
X0180725Y0198957D01*
X0183380Y0198957D01*
X0184265Y0198072D01*
X0184265Y0196302D01*
X0183380Y0195417D01*
X0180725Y0195417D01*
X0186162Y0198957D02*
X0189702Y0198957D01*
X0187932Y0198957D02*
X0187932Y0193647D01*
X0165465Y0218335D02*
X0165469Y0218666D01*
X0165481Y0218997D01*
X0165502Y0219328D01*
X0165530Y0219658D01*
X0165567Y0219988D01*
X0165611Y0220316D01*
X0165664Y0220643D01*
X0165724Y0220969D01*
X0165793Y0221293D01*
X0165870Y0221615D01*
X0165954Y0221936D01*
X0166046Y0222254D01*
X0166146Y0222570D01*
X0166254Y0222883D01*
X0166370Y0223194D01*
X0166493Y0223501D01*
X0166623Y0223806D01*
X0166761Y0224107D01*
X0166906Y0224405D01*
X0167059Y0224699D01*
X0167219Y0224989D01*
X0167386Y0225275D01*
X0167559Y0225557D01*
X0167740Y0225835D01*
X0167928Y0226108D01*
X0168122Y0226377D01*
X0168322Y0226641D01*
X0168529Y0226899D01*
X0168743Y0227153D01*
X0168962Y0227401D01*
X0169188Y0227644D01*
X0169419Y0227881D01*
X0169656Y0228112D01*
X0169899Y0228338D01*
X0170147Y0228557D01*
X0170401Y0228771D01*
X0170659Y0228978D01*
X0170923Y0229178D01*
X0171192Y0229372D01*
X0171465Y0229560D01*
X0171743Y0229741D01*
X0172025Y0229914D01*
X0172311Y0230081D01*
X0172601Y0230241D01*
X0172895Y0230394D01*
X0173193Y0230539D01*
X0173494Y0230677D01*
X0173799Y0230807D01*
X0174106Y0230930D01*
X0174417Y0231046D01*
X0174730Y0231154D01*
X0175046Y0231254D01*
X0175364Y0231346D01*
X0175685Y0231430D01*
X0176007Y0231507D01*
X0176331Y0231576D01*
X0176657Y0231636D01*
X0176984Y0231689D01*
X0177312Y0231733D01*
X0177642Y0231770D01*
X0177972Y0231798D01*
X0178303Y0231819D01*
X0178634Y0231831D01*
X0178965Y0231835D01*
X0179296Y0231831D01*
X0179627Y0231819D01*
X0179958Y0231798D01*
X0180288Y0231770D01*
X0180618Y0231733D01*
X0180946Y0231689D01*
X0181273Y0231636D01*
X0181599Y0231576D01*
X0181923Y0231507D01*
X0182245Y0231430D01*
X0182566Y0231346D01*
X0182884Y0231254D01*
X0183200Y0231154D01*
X0183513Y0231046D01*
X0183824Y0230930D01*
X0184131Y0230807D01*
X0184436Y0230677D01*
X0184737Y0230539D01*
X0185035Y0230394D01*
X0185329Y0230241D01*
X0185619Y0230081D01*
X0185905Y0229914D01*
X0186187Y0229741D01*
X0186465Y0229560D01*
X0186738Y0229372D01*
X0187007Y0229178D01*
X0187271Y0228978D01*
X0187529Y0228771D01*
X0187783Y0228557D01*
X0188031Y0228338D01*
X0188274Y0228112D01*
X0188511Y0227881D01*
X0188742Y0227644D01*
X0188968Y0227401D01*
X0189187Y0227153D01*
X0189401Y0226899D01*
X0189608Y0226641D01*
X0189808Y0226377D01*
X0190002Y0226108D01*
X0190190Y0225835D01*
X0190371Y0225557D01*
X0190544Y0225275D01*
X0190711Y0224989D01*
X0190871Y0224699D01*
X0191024Y0224405D01*
X0191169Y0224107D01*
X0191307Y0223806D01*
X0191437Y0223501D01*
X0191560Y0223194D01*
X0191676Y0222883D01*
X0191784Y0222570D01*
X0191884Y0222254D01*
X0191976Y0221936D01*
X0192060Y0221615D01*
X0192137Y0221293D01*
X0192206Y0220969D01*
X0192266Y0220643D01*
X0192319Y0220316D01*
X0192363Y0219988D01*
X0192400Y0219658D01*
X0192428Y0219328D01*
X0192449Y0218997D01*
X0192461Y0218666D01*
X0192465Y0218335D01*
X0192461Y0218004D01*
X0192449Y0217673D01*
X0192428Y0217342D01*
X0192400Y0217012D01*
X0192363Y0216682D01*
X0192319Y0216354D01*
X0192266Y0216027D01*
X0192206Y0215701D01*
X0192137Y0215377D01*
X0192060Y0215055D01*
X0191976Y0214734D01*
X0191884Y0214416D01*
X0191784Y0214100D01*
X0191676Y0213787D01*
X0191560Y0213476D01*
X0191437Y0213169D01*
X0191307Y0212864D01*
X0191169Y0212563D01*
X0191024Y0212265D01*
X0190871Y0211971D01*
X0190711Y0211681D01*
X0190544Y0211395D01*
X0190371Y0211113D01*
X0190190Y0210835D01*
X0190002Y0210562D01*
X0189808Y0210293D01*
X0189608Y0210029D01*
X0189401Y0209771D01*
X0189187Y0209517D01*
X0188968Y0209269D01*
X0188742Y0209026D01*
X0188511Y0208789D01*
X0188274Y0208558D01*
X0188031Y0208332D01*
X0187783Y0208113D01*
X0187529Y0207899D01*
X0187271Y0207692D01*
X0187007Y0207492D01*
X0186738Y0207298D01*
X0186465Y0207110D01*
X0186187Y0206929D01*
X0185905Y0206756D01*
X0185619Y0206589D01*
X0185329Y0206429D01*
X0185035Y0206276D01*
X0184737Y0206131D01*
X0184436Y0205993D01*
X0184131Y0205863D01*
X0183824Y0205740D01*
X0183513Y0205624D01*
X0183200Y0205516D01*
X0182884Y0205416D01*
X0182566Y0205324D01*
X0182245Y0205240D01*
X0181923Y0205163D01*
X0181599Y0205094D01*
X0181273Y0205034D01*
X0180946Y0204981D01*
X0180618Y0204937D01*
X0180288Y0204900D01*
X0179958Y0204872D01*
X0179627Y0204851D01*
X0179296Y0204839D01*
X0178965Y0204835D01*
X0178634Y0204839D01*
X0178303Y0204851D01*
X0177972Y0204872D01*
X0177642Y0204900D01*
X0177312Y0204937D01*
X0176984Y0204981D01*
X0176657Y0205034D01*
X0176331Y0205094D01*
X0176007Y0205163D01*
X0175685Y0205240D01*
X0175364Y0205324D01*
X0175046Y0205416D01*
X0174730Y0205516D01*
X0174417Y0205624D01*
X0174106Y0205740D01*
X0173799Y0205863D01*
X0173494Y0205993D01*
X0173193Y0206131D01*
X0172895Y0206276D01*
X0172601Y0206429D01*
X0172311Y0206589D01*
X0172025Y0206756D01*
X0171743Y0206929D01*
X0171465Y0207110D01*
X0171192Y0207298D01*
X0170923Y0207492D01*
X0170659Y0207692D01*
X0170401Y0207899D01*
X0170147Y0208113D01*
X0169899Y0208332D01*
X0169656Y0208558D01*
X0169419Y0208789D01*
X0169188Y0209026D01*
X0168962Y0209269D01*
X0168743Y0209517D01*
X0168529Y0209771D01*
X0168322Y0210029D01*
X0168122Y0210293D01*
X0167928Y0210562D01*
X0167740Y0210835D01*
X0167559Y0211113D01*
X0167386Y0211395D01*
X0167219Y0211681D01*
X0167059Y0211971D01*
X0166906Y0212265D01*
X0166761Y0212563D01*
X0166623Y0212864D01*
X0166493Y0213169D01*
X0166370Y0213476D01*
X0166254Y0213787D01*
X0166146Y0214100D01*
X0166046Y0214416D01*
X0165954Y0214734D01*
X0165870Y0215055D01*
X0165793Y0215377D01*
X0165724Y0215701D01*
X0165664Y0216027D01*
X0165611Y0216354D01*
X0165567Y0216682D01*
X0165530Y0217012D01*
X0165502Y0217342D01*
X0165481Y0217673D01*
X0165469Y0218004D01*
X0165465Y0218335D01*
X0104256Y0207600D02*
X0099985Y0207600D01*
X0102120Y0207600D02*
X0102120Y0214005D01*
X0099985Y0211870D01*
X0097810Y0210803D02*
X0096742Y0209735D01*
X0093540Y0209735D01*
X0093540Y0207600D02*
X0093540Y0214005D01*
X0096742Y0214005D01*
X0097810Y0212938D01*
X0097810Y0210803D01*
X0036800Y0133300D02*
X0036800Y0125800D01*
X0036674Y0125798D01*
X0036549Y0125792D01*
X0036424Y0125782D01*
X0036299Y0125768D01*
X0036174Y0125751D01*
X0036050Y0125729D01*
X0035927Y0125704D01*
X0035805Y0125674D01*
X0035684Y0125641D01*
X0035564Y0125604D01*
X0035445Y0125564D01*
X0035328Y0125519D01*
X0035211Y0125471D01*
X0035097Y0125419D01*
X0034984Y0125364D01*
X0034873Y0125305D01*
X0034764Y0125243D01*
X0034657Y0125177D01*
X0034552Y0125108D01*
X0034449Y0125036D01*
X0034348Y0124961D01*
X0034250Y0124882D01*
X0034155Y0124800D01*
X0034062Y0124716D01*
X0033972Y0124628D01*
X0033884Y0124538D01*
X0033800Y0124445D01*
X0033718Y0124350D01*
X0033639Y0124252D01*
X0033564Y0124151D01*
X0033492Y0124048D01*
X0033423Y0123943D01*
X0033357Y0123836D01*
X0033295Y0123727D01*
X0033236Y0123616D01*
X0033181Y0123503D01*
X0033129Y0123389D01*
X0033081Y0123272D01*
X0033036Y0123155D01*
X0032996Y0123036D01*
X0032959Y0122916D01*
X0032926Y0122795D01*
X0032896Y0122673D01*
X0032871Y0122550D01*
X0032849Y0122426D01*
X0032832Y0122301D01*
X0032818Y0122176D01*
X0032808Y0122051D01*
X0032802Y0121926D01*
X0032800Y0121800D01*
X0032802Y0121674D01*
X0032808Y0121549D01*
X0032818Y0121424D01*
X0032832Y0121299D01*
X0032849Y0121174D01*
X0032871Y0121050D01*
X0032896Y0120927D01*
X0032926Y0120805D01*
X0032959Y0120684D01*
X0032996Y0120564D01*
X0033036Y0120445D01*
X0033081Y0120328D01*
X0033129Y0120211D01*
X0033181Y0120097D01*
X0033236Y0119984D01*
X0033295Y0119873D01*
X0033357Y0119764D01*
X0033423Y0119657D01*
X0033492Y0119552D01*
X0033564Y0119449D01*
X0033639Y0119348D01*
X0033718Y0119250D01*
X0033800Y0119155D01*
X0033884Y0119062D01*
X0033972Y0118972D01*
X0034062Y0118884D01*
X0034155Y0118800D01*
X0034250Y0118718D01*
X0034348Y0118639D01*
X0034449Y0118564D01*
X0034552Y0118492D01*
X0034657Y0118423D01*
X0034764Y0118357D01*
X0034873Y0118295D01*
X0034984Y0118236D01*
X0035097Y0118181D01*
X0035211Y0118129D01*
X0035328Y0118081D01*
X0035445Y0118036D01*
X0035564Y0117996D01*
X0035684Y0117959D01*
X0035805Y0117926D01*
X0035927Y0117896D01*
X0036050Y0117871D01*
X0036174Y0117849D01*
X0036299Y0117832D01*
X0036424Y0117818D01*
X0036549Y0117808D01*
X0036674Y0117802D01*
X0036800Y0117800D01*
X0036800Y0110300D01*
X0016800Y0110300D01*
X0016800Y0133300D01*
X0036800Y0133300D01*
X0074800Y0123300D02*
X0074800Y0121800D01*
X0075300Y0121300D01*
X0075300Y0102300D01*
X0074800Y0101800D01*
X0074800Y0100300D01*
X0074802Y0100240D01*
X0074807Y0100179D01*
X0074816Y0100120D01*
X0074829Y0100061D01*
X0074845Y0100002D01*
X0074865Y0099945D01*
X0074888Y0099890D01*
X0074915Y0099835D01*
X0074944Y0099783D01*
X0074977Y0099732D01*
X0075013Y0099683D01*
X0075051Y0099637D01*
X0075093Y0099593D01*
X0075137Y0099551D01*
X0075183Y0099513D01*
X0075232Y0099477D01*
X0075283Y0099444D01*
X0075335Y0099415D01*
X0075390Y0099388D01*
X0075445Y0099365D01*
X0075502Y0099345D01*
X0075561Y0099329D01*
X0075620Y0099316D01*
X0075679Y0099307D01*
X0075740Y0099302D01*
X0075800Y0099300D01*
X0082800Y0099300D01*
X0082860Y0099302D01*
X0082921Y0099307D01*
X0082980Y0099316D01*
X0083039Y0099329D01*
X0083098Y0099345D01*
X0083155Y0099365D01*
X0083210Y0099388D01*
X0083265Y0099415D01*
X0083317Y0099444D01*
X0083368Y0099477D01*
X0083417Y0099513D01*
X0083463Y0099551D01*
X0083507Y0099593D01*
X0083549Y0099637D01*
X0083587Y0099683D01*
X0083623Y0099732D01*
X0083656Y0099783D01*
X0083685Y0099835D01*
X0083712Y0099890D01*
X0083735Y0099945D01*
X0083755Y0100002D01*
X0083771Y0100061D01*
X0083784Y0100120D01*
X0083793Y0100179D01*
X0083798Y0100240D01*
X0083800Y0100300D01*
X0083800Y0101800D01*
X0083300Y0102300D01*
X0083300Y0121300D01*
X0083800Y0121800D01*
X0083800Y0123300D01*
X0083798Y0123360D01*
X0083793Y0123421D01*
X0083784Y0123480D01*
X0083771Y0123539D01*
X0083755Y0123598D01*
X0083735Y0123655D01*
X0083712Y0123710D01*
X0083685Y0123765D01*
X0083656Y0123817D01*
X0083623Y0123868D01*
X0083587Y0123917D01*
X0083549Y0123963D01*
X0083507Y0124007D01*
X0083463Y0124049D01*
X0083417Y0124087D01*
X0083368Y0124123D01*
X0083317Y0124156D01*
X0083265Y0124185D01*
X0083210Y0124212D01*
X0083155Y0124235D01*
X0083098Y0124255D01*
X0083039Y0124271D01*
X0082980Y0124284D01*
X0082921Y0124293D01*
X0082860Y0124298D01*
X0082800Y0124300D01*
X0075800Y0124300D01*
X0075740Y0124298D01*
X0075679Y0124293D01*
X0075620Y0124284D01*
X0075561Y0124271D01*
X0075502Y0124255D01*
X0075445Y0124235D01*
X0075390Y0124212D01*
X0075335Y0124185D01*
X0075283Y0124156D01*
X0075232Y0124123D01*
X0075183Y0124087D01*
X0075137Y0124049D01*
X0075093Y0124007D01*
X0075051Y0123963D01*
X0075013Y0123917D01*
X0074977Y0123868D01*
X0074944Y0123817D01*
X0074915Y0123765D01*
X0074888Y0123710D01*
X0074865Y0123655D01*
X0074845Y0123598D01*
X0074829Y0123539D01*
X0074816Y0123480D01*
X0074807Y0123421D01*
X0074802Y0123360D01*
X0074800Y0123300D01*
X0085800Y0109300D02*
X0092800Y0109300D01*
X0092860Y0109298D01*
X0092921Y0109293D01*
X0092980Y0109284D01*
X0093039Y0109271D01*
X0093098Y0109255D01*
X0093155Y0109235D01*
X0093210Y0109212D01*
X0093265Y0109185D01*
X0093317Y0109156D01*
X0093368Y0109123D01*
X0093417Y0109087D01*
X0093463Y0109049D01*
X0093507Y0109007D01*
X0093549Y0108963D01*
X0093587Y0108917D01*
X0093623Y0108868D01*
X0093656Y0108817D01*
X0093685Y0108765D01*
X0093712Y0108710D01*
X0093735Y0108655D01*
X0093755Y0108598D01*
X0093771Y0108539D01*
X0093784Y0108480D01*
X0093793Y0108421D01*
X0093798Y0108360D01*
X0093800Y0108300D01*
X0093800Y0106800D01*
X0093300Y0106300D01*
X0093300Y0087300D01*
X0093800Y0086800D01*
X0093800Y0085300D01*
X0093798Y0085240D01*
X0093793Y0085179D01*
X0093784Y0085120D01*
X0093771Y0085061D01*
X0093755Y0085002D01*
X0093735Y0084945D01*
X0093712Y0084890D01*
X0093685Y0084835D01*
X0093656Y0084783D01*
X0093623Y0084732D01*
X0093587Y0084683D01*
X0093549Y0084637D01*
X0093507Y0084593D01*
X0093463Y0084551D01*
X0093417Y0084513D01*
X0093368Y0084477D01*
X0093317Y0084444D01*
X0093265Y0084415D01*
X0093210Y0084388D01*
X0093155Y0084365D01*
X0093098Y0084345D01*
X0093039Y0084329D01*
X0092980Y0084316D01*
X0092921Y0084307D01*
X0092860Y0084302D01*
X0092800Y0084300D01*
X0085800Y0084300D01*
X0085740Y0084302D01*
X0085679Y0084307D01*
X0085620Y0084316D01*
X0085561Y0084329D01*
X0085502Y0084345D01*
X0085445Y0084365D01*
X0085390Y0084388D01*
X0085335Y0084415D01*
X0085283Y0084444D01*
X0085232Y0084477D01*
X0085183Y0084513D01*
X0085137Y0084551D01*
X0085093Y0084593D01*
X0085051Y0084637D01*
X0085013Y0084683D01*
X0084977Y0084732D01*
X0084944Y0084783D01*
X0084915Y0084835D01*
X0084888Y0084890D01*
X0084865Y0084945D01*
X0084845Y0085002D01*
X0084829Y0085061D01*
X0084816Y0085120D01*
X0084807Y0085179D01*
X0084802Y0085240D01*
X0084800Y0085300D01*
X0084800Y0086800D01*
X0085300Y0087300D01*
X0085300Y0106300D01*
X0084800Y0106800D01*
X0084800Y0108300D01*
X0084802Y0108360D01*
X0084807Y0108421D01*
X0084816Y0108480D01*
X0084829Y0108539D01*
X0084845Y0108598D01*
X0084865Y0108655D01*
X0084888Y0108710D01*
X0084915Y0108765D01*
X0084944Y0108817D01*
X0084977Y0108868D01*
X0085013Y0108917D01*
X0085051Y0108963D01*
X0085093Y0109007D01*
X0085137Y0109049D01*
X0085183Y0109087D01*
X0085232Y0109123D01*
X0085283Y0109156D01*
X0085335Y0109185D01*
X0085390Y0109212D01*
X0085445Y0109235D01*
X0085502Y0109255D01*
X0085561Y0109271D01*
X0085620Y0109284D01*
X0085679Y0109293D01*
X0085740Y0109298D01*
X0085800Y0109300D01*
X0094800Y0101800D02*
X0094800Y0100300D01*
X0094802Y0100240D01*
X0094807Y0100179D01*
X0094816Y0100120D01*
X0094829Y0100061D01*
X0094845Y0100002D01*
X0094865Y0099945D01*
X0094888Y0099890D01*
X0094915Y0099835D01*
X0094944Y0099783D01*
X0094977Y0099732D01*
X0095013Y0099683D01*
X0095051Y0099637D01*
X0095093Y0099593D01*
X0095137Y0099551D01*
X0095183Y0099513D01*
X0095232Y0099477D01*
X0095283Y0099444D01*
X0095335Y0099415D01*
X0095390Y0099388D01*
X0095445Y0099365D01*
X0095502Y0099345D01*
X0095561Y0099329D01*
X0095620Y0099316D01*
X0095679Y0099307D01*
X0095740Y0099302D01*
X0095800Y0099300D01*
X0102800Y0099300D01*
X0102860Y0099302D01*
X0102921Y0099307D01*
X0102980Y0099316D01*
X0103039Y0099329D01*
X0103098Y0099345D01*
X0103155Y0099365D01*
X0103210Y0099388D01*
X0103265Y0099415D01*
X0103317Y0099444D01*
X0103368Y0099477D01*
X0103417Y0099513D01*
X0103463Y0099551D01*
X0103507Y0099593D01*
X0103549Y0099637D01*
X0103587Y0099683D01*
X0103623Y0099732D01*
X0103656Y0099783D01*
X0103685Y0099835D01*
X0103712Y0099890D01*
X0103735Y0099945D01*
X0103755Y0100002D01*
X0103771Y0100061D01*
X0103784Y0100120D01*
X0103793Y0100179D01*
X0103798Y0100240D01*
X0103800Y0100300D01*
X0103800Y0101800D01*
X0103300Y0102300D01*
X0103300Y0121300D01*
X0103800Y0121800D01*
X0103800Y0123300D01*
X0103798Y0123360D01*
X0103793Y0123421D01*
X0103784Y0123480D01*
X0103771Y0123539D01*
X0103755Y0123598D01*
X0103735Y0123655D01*
X0103712Y0123710D01*
X0103685Y0123765D01*
X0103656Y0123817D01*
X0103623Y0123868D01*
X0103587Y0123917D01*
X0103549Y0123963D01*
X0103507Y0124007D01*
X0103463Y0124049D01*
X0103417Y0124087D01*
X0103368Y0124123D01*
X0103317Y0124156D01*
X0103265Y0124185D01*
X0103210Y0124212D01*
X0103155Y0124235D01*
X0103098Y0124255D01*
X0103039Y0124271D01*
X0102980Y0124284D01*
X0102921Y0124293D01*
X0102860Y0124298D01*
X0102800Y0124300D01*
X0095800Y0124300D01*
X0095740Y0124298D01*
X0095679Y0124293D01*
X0095620Y0124284D01*
X0095561Y0124271D01*
X0095502Y0124255D01*
X0095445Y0124235D01*
X0095390Y0124212D01*
X0095335Y0124185D01*
X0095283Y0124156D01*
X0095232Y0124123D01*
X0095183Y0124087D01*
X0095137Y0124049D01*
X0095093Y0124007D01*
X0095051Y0123963D01*
X0095013Y0123917D01*
X0094977Y0123868D01*
X0094944Y0123817D01*
X0094915Y0123765D01*
X0094888Y0123710D01*
X0094865Y0123655D01*
X0094845Y0123598D01*
X0094829Y0123539D01*
X0094816Y0123480D01*
X0094807Y0123421D01*
X0094802Y0123360D01*
X0094800Y0123300D01*
X0094800Y0121800D01*
X0095300Y0121300D01*
X0095300Y0102300D01*
X0094800Y0101800D01*
X0104800Y0106800D02*
X0104800Y0108300D01*
X0104802Y0108360D01*
X0104807Y0108421D01*
X0104816Y0108480D01*
X0104829Y0108539D01*
X0104845Y0108598D01*
X0104865Y0108655D01*
X0104888Y0108710D01*
X0104915Y0108765D01*
X0104944Y0108817D01*
X0104977Y0108868D01*
X0105013Y0108917D01*
X0105051Y0108963D01*
X0105093Y0109007D01*
X0105137Y0109049D01*
X0105183Y0109087D01*
X0105232Y0109123D01*
X0105283Y0109156D01*
X0105335Y0109185D01*
X0105390Y0109212D01*
X0105445Y0109235D01*
X0105502Y0109255D01*
X0105561Y0109271D01*
X0105620Y0109284D01*
X0105679Y0109293D01*
X0105740Y0109298D01*
X0105800Y0109300D01*
X0112800Y0109300D01*
X0112860Y0109298D01*
X0112921Y0109293D01*
X0112980Y0109284D01*
X0113039Y0109271D01*
X0113098Y0109255D01*
X0113155Y0109235D01*
X0113210Y0109212D01*
X0113265Y0109185D01*
X0113317Y0109156D01*
X0113368Y0109123D01*
X0113417Y0109087D01*
X0113463Y0109049D01*
X0113507Y0109007D01*
X0113549Y0108963D01*
X0113587Y0108917D01*
X0113623Y0108868D01*
X0113656Y0108817D01*
X0113685Y0108765D01*
X0113712Y0108710D01*
X0113735Y0108655D01*
X0113755Y0108598D01*
X0113771Y0108539D01*
X0113784Y0108480D01*
X0113793Y0108421D01*
X0113798Y0108360D01*
X0113800Y0108300D01*
X0113800Y0106800D01*
X0113300Y0106300D01*
X0113300Y0087300D01*
X0113800Y0086800D01*
X0113800Y0085300D01*
X0113798Y0085240D01*
X0113793Y0085179D01*
X0113784Y0085120D01*
X0113771Y0085061D01*
X0113755Y0085002D01*
X0113735Y0084945D01*
X0113712Y0084890D01*
X0113685Y0084835D01*
X0113656Y0084783D01*
X0113623Y0084732D01*
X0113587Y0084683D01*
X0113549Y0084637D01*
X0113507Y0084593D01*
X0113463Y0084551D01*
X0113417Y0084513D01*
X0113368Y0084477D01*
X0113317Y0084444D01*
X0113265Y0084415D01*
X0113210Y0084388D01*
X0113155Y0084365D01*
X0113098Y0084345D01*
X0113039Y0084329D01*
X0112980Y0084316D01*
X0112921Y0084307D01*
X0112860Y0084302D01*
X0112800Y0084300D01*
X0105800Y0084300D01*
X0105740Y0084302D01*
X0105679Y0084307D01*
X0105620Y0084316D01*
X0105561Y0084329D01*
X0105502Y0084345D01*
X0105445Y0084365D01*
X0105390Y0084388D01*
X0105335Y0084415D01*
X0105283Y0084444D01*
X0105232Y0084477D01*
X0105183Y0084513D01*
X0105137Y0084551D01*
X0105093Y0084593D01*
X0105051Y0084637D01*
X0105013Y0084683D01*
X0104977Y0084732D01*
X0104944Y0084783D01*
X0104915Y0084835D01*
X0104888Y0084890D01*
X0104865Y0084945D01*
X0104845Y0085002D01*
X0104829Y0085061D01*
X0104816Y0085120D01*
X0104807Y0085179D01*
X0104802Y0085240D01*
X0104800Y0085300D01*
X0104800Y0086800D01*
X0105300Y0087300D01*
X0105300Y0106300D01*
X0104800Y0106800D01*
X0114800Y0101800D02*
X0114800Y0100300D01*
X0114802Y0100240D01*
X0114807Y0100179D01*
X0114816Y0100120D01*
X0114829Y0100061D01*
X0114845Y0100002D01*
X0114865Y0099945D01*
X0114888Y0099890D01*
X0114915Y0099835D01*
X0114944Y0099783D01*
X0114977Y0099732D01*
X0115013Y0099683D01*
X0115051Y0099637D01*
X0115093Y0099593D01*
X0115137Y0099551D01*
X0115183Y0099513D01*
X0115232Y0099477D01*
X0115283Y0099444D01*
X0115335Y0099415D01*
X0115390Y0099388D01*
X0115445Y0099365D01*
X0115502Y0099345D01*
X0115561Y0099329D01*
X0115620Y0099316D01*
X0115679Y0099307D01*
X0115740Y0099302D01*
X0115800Y0099300D01*
X0122800Y0099300D01*
X0122860Y0099302D01*
X0122921Y0099307D01*
X0122980Y0099316D01*
X0123039Y0099329D01*
X0123098Y0099345D01*
X0123155Y0099365D01*
X0123210Y0099388D01*
X0123265Y0099415D01*
X0123317Y0099444D01*
X0123368Y0099477D01*
X0123417Y0099513D01*
X0123463Y0099551D01*
X0123507Y0099593D01*
X0123549Y0099637D01*
X0123587Y0099683D01*
X0123623Y0099732D01*
X0123656Y0099783D01*
X0123685Y0099835D01*
X0123712Y0099890D01*
X0123735Y0099945D01*
X0123755Y0100002D01*
X0123771Y0100061D01*
X0123784Y0100120D01*
X0123793Y0100179D01*
X0123798Y0100240D01*
X0123800Y0100300D01*
X0123800Y0101800D01*
X0123300Y0102300D01*
X0123300Y0121300D01*
X0123800Y0121800D01*
X0123800Y0123300D01*
X0123798Y0123360D01*
X0123793Y0123421D01*
X0123784Y0123480D01*
X0123771Y0123539D01*
X0123755Y0123598D01*
X0123735Y0123655D01*
X0123712Y0123710D01*
X0123685Y0123765D01*
X0123656Y0123817D01*
X0123623Y0123868D01*
X0123587Y0123917D01*
X0123549Y0123963D01*
X0123507Y0124007D01*
X0123463Y0124049D01*
X0123417Y0124087D01*
X0123368Y0124123D01*
X0123317Y0124156D01*
X0123265Y0124185D01*
X0123210Y0124212D01*
X0123155Y0124235D01*
X0123098Y0124255D01*
X0123039Y0124271D01*
X0122980Y0124284D01*
X0122921Y0124293D01*
X0122860Y0124298D01*
X0122800Y0124300D01*
X0115800Y0124300D01*
X0115740Y0124298D01*
X0115679Y0124293D01*
X0115620Y0124284D01*
X0115561Y0124271D01*
X0115502Y0124255D01*
X0115445Y0124235D01*
X0115390Y0124212D01*
X0115335Y0124185D01*
X0115283Y0124156D01*
X0115232Y0124123D01*
X0115183Y0124087D01*
X0115137Y0124049D01*
X0115093Y0124007D01*
X0115051Y0123963D01*
X0115013Y0123917D01*
X0114977Y0123868D01*
X0114944Y0123817D01*
X0114915Y0123765D01*
X0114888Y0123710D01*
X0114865Y0123655D01*
X0114845Y0123598D01*
X0114829Y0123539D01*
X0114816Y0123480D01*
X0114807Y0123421D01*
X0114802Y0123360D01*
X0114800Y0123300D01*
X0114800Y0121800D01*
X0115300Y0121300D01*
X0115300Y0102300D01*
X0114800Y0101800D01*
X0124800Y0106800D02*
X0124800Y0108300D01*
X0124802Y0108360D01*
X0124807Y0108421D01*
X0124816Y0108480D01*
X0124829Y0108539D01*
X0124845Y0108598D01*
X0124865Y0108655D01*
X0124888Y0108710D01*
X0124915Y0108765D01*
X0124944Y0108817D01*
X0124977Y0108868D01*
X0125013Y0108917D01*
X0125051Y0108963D01*
X0125093Y0109007D01*
X0125137Y0109049D01*
X0125183Y0109087D01*
X0125232Y0109123D01*
X0125283Y0109156D01*
X0125335Y0109185D01*
X0125390Y0109212D01*
X0125445Y0109235D01*
X0125502Y0109255D01*
X0125561Y0109271D01*
X0125620Y0109284D01*
X0125679Y0109293D01*
X0125740Y0109298D01*
X0125800Y0109300D01*
X0132800Y0109300D01*
X0132860Y0109298D01*
X0132921Y0109293D01*
X0132980Y0109284D01*
X0133039Y0109271D01*
X0133098Y0109255D01*
X0133155Y0109235D01*
X0133210Y0109212D01*
X0133265Y0109185D01*
X0133317Y0109156D01*
X0133368Y0109123D01*
X0133417Y0109087D01*
X0133463Y0109049D01*
X0133507Y0109007D01*
X0133549Y0108963D01*
X0133587Y0108917D01*
X0133623Y0108868D01*
X0133656Y0108817D01*
X0133685Y0108765D01*
X0133712Y0108710D01*
X0133735Y0108655D01*
X0133755Y0108598D01*
X0133771Y0108539D01*
X0133784Y0108480D01*
X0133793Y0108421D01*
X0133798Y0108360D01*
X0133800Y0108300D01*
X0133800Y0106800D01*
X0133300Y0106300D01*
X0133300Y0087300D01*
X0133800Y0086800D01*
X0133800Y0085300D01*
X0133798Y0085240D01*
X0133793Y0085179D01*
X0133784Y0085120D01*
X0133771Y0085061D01*
X0133755Y0085002D01*
X0133735Y0084945D01*
X0133712Y0084890D01*
X0133685Y0084835D01*
X0133656Y0084783D01*
X0133623Y0084732D01*
X0133587Y0084683D01*
X0133549Y0084637D01*
X0133507Y0084593D01*
X0133463Y0084551D01*
X0133417Y0084513D01*
X0133368Y0084477D01*
X0133317Y0084444D01*
X0133265Y0084415D01*
X0133210Y0084388D01*
X0133155Y0084365D01*
X0133098Y0084345D01*
X0133039Y0084329D01*
X0132980Y0084316D01*
X0132921Y0084307D01*
X0132860Y0084302D01*
X0132800Y0084300D01*
X0125800Y0084300D01*
X0125740Y0084302D01*
X0125679Y0084307D01*
X0125620Y0084316D01*
X0125561Y0084329D01*
X0125502Y0084345D01*
X0125445Y0084365D01*
X0125390Y0084388D01*
X0125335Y0084415D01*
X0125283Y0084444D01*
X0125232Y0084477D01*
X0125183Y0084513D01*
X0125137Y0084551D01*
X0125093Y0084593D01*
X0125051Y0084637D01*
X0125013Y0084683D01*
X0124977Y0084732D01*
X0124944Y0084783D01*
X0124915Y0084835D01*
X0124888Y0084890D01*
X0124865Y0084945D01*
X0124845Y0085002D01*
X0124829Y0085061D01*
X0124816Y0085120D01*
X0124807Y0085179D01*
X0124802Y0085240D01*
X0124800Y0085300D01*
X0124800Y0086800D01*
X0125300Y0087300D01*
X0125300Y0106300D01*
X0124800Y0106800D01*
X0109800Y0059300D02*
X0093800Y0059300D01*
X0093800Y0049300D01*
X0109800Y0049300D01*
X0109800Y0059300D01*
X0105800Y0056800D02*
X0101800Y0054300D01*
X0101800Y0056800D01*
X0102800Y0056800D01*
X0101800Y0054300D02*
X0099300Y0054300D01*
X0101800Y0054300D02*
X0101800Y0051800D01*
X0101800Y0054300D02*
X0107800Y0054300D01*
X0105800Y0051800D02*
X0101800Y0054300D01*
X0105800Y0056800D02*
X0105800Y0051800D01*
X0111800Y0043800D02*
X0113300Y0043800D01*
X0113360Y0043798D01*
X0113421Y0043793D01*
X0113480Y0043784D01*
X0113539Y0043771D01*
X0113598Y0043755D01*
X0113655Y0043735D01*
X0113710Y0043712D01*
X0113765Y0043685D01*
X0113817Y0043656D01*
X0113868Y0043623D01*
X0113917Y0043587D01*
X0113963Y0043549D01*
X0114007Y0043507D01*
X0114049Y0043463D01*
X0114087Y0043417D01*
X0114123Y0043368D01*
X0114156Y0043317D01*
X0114185Y0043265D01*
X0114212Y0043210D01*
X0114235Y0043155D01*
X0114255Y0043098D01*
X0114271Y0043039D01*
X0114284Y0042980D01*
X0114293Y0042921D01*
X0114298Y0042860D01*
X0114300Y0042800D01*
X0114300Y0035800D01*
X0114298Y0035740D01*
X0114293Y0035679D01*
X0114284Y0035620D01*
X0114271Y0035561D01*
X0114255Y0035502D01*
X0114235Y0035445D01*
X0114212Y0035390D01*
X0114185Y0035335D01*
X0114156Y0035283D01*
X0114123Y0035232D01*
X0114087Y0035183D01*
X0114049Y0035137D01*
X0114007Y0035093D01*
X0113963Y0035051D01*
X0113917Y0035013D01*
X0113868Y0034977D01*
X0113817Y0034944D01*
X0113765Y0034915D01*
X0113710Y0034888D01*
X0113655Y0034865D01*
X0113598Y0034845D01*
X0113539Y0034829D01*
X0113480Y0034816D01*
X0113421Y0034807D01*
X0113360Y0034802D01*
X0113300Y0034800D01*
X0111800Y0034800D01*
X0111300Y0035300D01*
X0092300Y0035300D01*
X0091800Y0034800D01*
X0090300Y0034800D01*
X0090240Y0034802D01*
X0090179Y0034807D01*
X0090120Y0034816D01*
X0090061Y0034829D01*
X0090002Y0034845D01*
X0089945Y0034865D01*
X0089890Y0034888D01*
X0089835Y0034915D01*
X0089783Y0034944D01*
X0089732Y0034977D01*
X0089683Y0035013D01*
X0089637Y0035051D01*
X0089593Y0035093D01*
X0089551Y0035137D01*
X0089513Y0035183D01*
X0089477Y0035232D01*
X0089444Y0035283D01*
X0089415Y0035335D01*
X0089388Y0035390D01*
X0089365Y0035445D01*
X0089345Y0035502D01*
X0089329Y0035561D01*
X0089316Y0035620D01*
X0089307Y0035679D01*
X0089302Y0035740D01*
X0089300Y0035800D01*
X0089300Y0042800D01*
X0089302Y0042860D01*
X0089307Y0042921D01*
X0089316Y0042980D01*
X0089329Y0043039D01*
X0089345Y0043098D01*
X0089365Y0043155D01*
X0089388Y0043210D01*
X0089415Y0043265D01*
X0089444Y0043317D01*
X0089477Y0043368D01*
X0089513Y0043417D01*
X0089551Y0043463D01*
X0089593Y0043507D01*
X0089637Y0043549D01*
X0089683Y0043587D01*
X0089732Y0043623D01*
X0089783Y0043656D01*
X0089835Y0043685D01*
X0089890Y0043712D01*
X0089945Y0043735D01*
X0090002Y0043755D01*
X0090061Y0043771D01*
X0090120Y0043784D01*
X0090179Y0043793D01*
X0090240Y0043798D01*
X0090300Y0043800D01*
X0091800Y0043800D01*
X0092300Y0043300D01*
X0111300Y0043300D01*
X0111800Y0043800D01*
X0171800Y0074300D02*
X0174300Y0071800D01*
X0179300Y0071800D01*
X0181800Y0074300D01*
X0181800Y0079300D01*
X0179300Y0081800D01*
X0181800Y0084300D01*
X0181800Y0089300D01*
X0179300Y0091800D01*
X0181800Y0094300D01*
X0181800Y0099300D01*
X0179300Y0101800D01*
X0174300Y0101800D01*
X0171800Y0099300D01*
X0171800Y0094300D01*
X0174300Y0091800D01*
X0171800Y0089300D01*
X0171800Y0084300D01*
X0174300Y0081800D01*
X0171800Y0079300D01*
X0171800Y0074300D01*
X0186643Y0071608D02*
X0186643Y0068068D01*
X0187528Y0066170D02*
X0186643Y0065285D01*
X0186643Y0062630D01*
X0191953Y0062630D01*
X0191953Y0065285D01*
X0191068Y0066170D01*
X0187528Y0066170D01*
X0191068Y0068068D02*
X0191953Y0068068D01*
X0191068Y0068068D02*
X0187528Y0071608D01*
X0186643Y0071608D01*
X0187528Y0078943D02*
X0186643Y0079828D01*
X0186643Y0081598D01*
X0187528Y0082483D01*
X0189298Y0081598D02*
X0189298Y0079828D01*
X0188413Y0078943D01*
X0187528Y0078943D01*
X0189298Y0081598D02*
X0190183Y0082483D01*
X0191068Y0082483D01*
X0191953Y0081598D01*
X0191953Y0079828D01*
X0191068Y0078943D01*
X0191953Y0084381D02*
X0191953Y0087921D01*
X0191953Y0089819D02*
X0191953Y0093359D01*
X0191953Y0089819D02*
X0186643Y0089819D01*
X0186643Y0087921D02*
X0186643Y0084381D01*
X0191953Y0084381D01*
X0189298Y0084381D02*
X0189298Y0086151D01*
X0190183Y0100694D02*
X0190183Y0103349D01*
X0189298Y0104234D01*
X0187528Y0104234D01*
X0186643Y0103349D01*
X0186643Y0100694D01*
X0191953Y0100694D01*
X0190183Y0102464D02*
X0191953Y0104234D01*
X0191953Y0106132D02*
X0186643Y0109672D01*
X0186643Y0106132D02*
X0191953Y0109672D01*
X0165465Y0021485D02*
X0165469Y0021816D01*
X0165481Y0022147D01*
X0165502Y0022478D01*
X0165530Y0022808D01*
X0165567Y0023138D01*
X0165611Y0023466D01*
X0165664Y0023793D01*
X0165724Y0024119D01*
X0165793Y0024443D01*
X0165870Y0024765D01*
X0165954Y0025086D01*
X0166046Y0025404D01*
X0166146Y0025720D01*
X0166254Y0026033D01*
X0166370Y0026344D01*
X0166493Y0026651D01*
X0166623Y0026956D01*
X0166761Y0027257D01*
X0166906Y0027555D01*
X0167059Y0027849D01*
X0167219Y0028139D01*
X0167386Y0028425D01*
X0167559Y0028707D01*
X0167740Y0028985D01*
X0167928Y0029258D01*
X0168122Y0029527D01*
X0168322Y0029791D01*
X0168529Y0030049D01*
X0168743Y0030303D01*
X0168962Y0030551D01*
X0169188Y0030794D01*
X0169419Y0031031D01*
X0169656Y0031262D01*
X0169899Y0031488D01*
X0170147Y0031707D01*
X0170401Y0031921D01*
X0170659Y0032128D01*
X0170923Y0032328D01*
X0171192Y0032522D01*
X0171465Y0032710D01*
X0171743Y0032891D01*
X0172025Y0033064D01*
X0172311Y0033231D01*
X0172601Y0033391D01*
X0172895Y0033544D01*
X0173193Y0033689D01*
X0173494Y0033827D01*
X0173799Y0033957D01*
X0174106Y0034080D01*
X0174417Y0034196D01*
X0174730Y0034304D01*
X0175046Y0034404D01*
X0175364Y0034496D01*
X0175685Y0034580D01*
X0176007Y0034657D01*
X0176331Y0034726D01*
X0176657Y0034786D01*
X0176984Y0034839D01*
X0177312Y0034883D01*
X0177642Y0034920D01*
X0177972Y0034948D01*
X0178303Y0034969D01*
X0178634Y0034981D01*
X0178965Y0034985D01*
X0179296Y0034981D01*
X0179627Y0034969D01*
X0179958Y0034948D01*
X0180288Y0034920D01*
X0180618Y0034883D01*
X0180946Y0034839D01*
X0181273Y0034786D01*
X0181599Y0034726D01*
X0181923Y0034657D01*
X0182245Y0034580D01*
X0182566Y0034496D01*
X0182884Y0034404D01*
X0183200Y0034304D01*
X0183513Y0034196D01*
X0183824Y0034080D01*
X0184131Y0033957D01*
X0184436Y0033827D01*
X0184737Y0033689D01*
X0185035Y0033544D01*
X0185329Y0033391D01*
X0185619Y0033231D01*
X0185905Y0033064D01*
X0186187Y0032891D01*
X0186465Y0032710D01*
X0186738Y0032522D01*
X0187007Y0032328D01*
X0187271Y0032128D01*
X0187529Y0031921D01*
X0187783Y0031707D01*
X0188031Y0031488D01*
X0188274Y0031262D01*
X0188511Y0031031D01*
X0188742Y0030794D01*
X0188968Y0030551D01*
X0189187Y0030303D01*
X0189401Y0030049D01*
X0189608Y0029791D01*
X0189808Y0029527D01*
X0190002Y0029258D01*
X0190190Y0028985D01*
X0190371Y0028707D01*
X0190544Y0028425D01*
X0190711Y0028139D01*
X0190871Y0027849D01*
X0191024Y0027555D01*
X0191169Y0027257D01*
X0191307Y0026956D01*
X0191437Y0026651D01*
X0191560Y0026344D01*
X0191676Y0026033D01*
X0191784Y0025720D01*
X0191884Y0025404D01*
X0191976Y0025086D01*
X0192060Y0024765D01*
X0192137Y0024443D01*
X0192206Y0024119D01*
X0192266Y0023793D01*
X0192319Y0023466D01*
X0192363Y0023138D01*
X0192400Y0022808D01*
X0192428Y0022478D01*
X0192449Y0022147D01*
X0192461Y0021816D01*
X0192465Y0021485D01*
X0192461Y0021154D01*
X0192449Y0020823D01*
X0192428Y0020492D01*
X0192400Y0020162D01*
X0192363Y0019832D01*
X0192319Y0019504D01*
X0192266Y0019177D01*
X0192206Y0018851D01*
X0192137Y0018527D01*
X0192060Y0018205D01*
X0191976Y0017884D01*
X0191884Y0017566D01*
X0191784Y0017250D01*
X0191676Y0016937D01*
X0191560Y0016626D01*
X0191437Y0016319D01*
X0191307Y0016014D01*
X0191169Y0015713D01*
X0191024Y0015415D01*
X0190871Y0015121D01*
X0190711Y0014831D01*
X0190544Y0014545D01*
X0190371Y0014263D01*
X0190190Y0013985D01*
X0190002Y0013712D01*
X0189808Y0013443D01*
X0189608Y0013179D01*
X0189401Y0012921D01*
X0189187Y0012667D01*
X0188968Y0012419D01*
X0188742Y0012176D01*
X0188511Y0011939D01*
X0188274Y0011708D01*
X0188031Y0011482D01*
X0187783Y0011263D01*
X0187529Y0011049D01*
X0187271Y0010842D01*
X0187007Y0010642D01*
X0186738Y0010448D01*
X0186465Y0010260D01*
X0186187Y0010079D01*
X0185905Y0009906D01*
X0185619Y0009739D01*
X0185329Y0009579D01*
X0185035Y0009426D01*
X0184737Y0009281D01*
X0184436Y0009143D01*
X0184131Y0009013D01*
X0183824Y0008890D01*
X0183513Y0008774D01*
X0183200Y0008666D01*
X0182884Y0008566D01*
X0182566Y0008474D01*
X0182245Y0008390D01*
X0181923Y0008313D01*
X0181599Y0008244D01*
X0181273Y0008184D01*
X0180946Y0008131D01*
X0180618Y0008087D01*
X0180288Y0008050D01*
X0179958Y0008022D01*
X0179627Y0008001D01*
X0179296Y0007989D01*
X0178965Y0007985D01*
X0178634Y0007989D01*
X0178303Y0008001D01*
X0177972Y0008022D01*
X0177642Y0008050D01*
X0177312Y0008087D01*
X0176984Y0008131D01*
X0176657Y0008184D01*
X0176331Y0008244D01*
X0176007Y0008313D01*
X0175685Y0008390D01*
X0175364Y0008474D01*
X0175046Y0008566D01*
X0174730Y0008666D01*
X0174417Y0008774D01*
X0174106Y0008890D01*
X0173799Y0009013D01*
X0173494Y0009143D01*
X0173193Y0009281D01*
X0172895Y0009426D01*
X0172601Y0009579D01*
X0172311Y0009739D01*
X0172025Y0009906D01*
X0171743Y0010079D01*
X0171465Y0010260D01*
X0171192Y0010448D01*
X0170923Y0010642D01*
X0170659Y0010842D01*
X0170401Y0011049D01*
X0170147Y0011263D01*
X0169899Y0011482D01*
X0169656Y0011708D01*
X0169419Y0011939D01*
X0169188Y0012176D01*
X0168962Y0012419D01*
X0168743Y0012667D01*
X0168529Y0012921D01*
X0168322Y0013179D01*
X0168122Y0013443D01*
X0167928Y0013712D01*
X0167740Y0013985D01*
X0167559Y0014263D01*
X0167386Y0014545D01*
X0167219Y0014831D01*
X0167059Y0015121D01*
X0166906Y0015415D01*
X0166761Y0015713D01*
X0166623Y0016014D01*
X0166493Y0016319D01*
X0166370Y0016626D01*
X0166254Y0016937D01*
X0166146Y0017250D01*
X0166046Y0017566D01*
X0165954Y0017884D01*
X0165870Y0018205D01*
X0165793Y0018527D01*
X0165724Y0018851D01*
X0165664Y0019177D01*
X0165611Y0019504D01*
X0165567Y0019832D01*
X0165530Y0020162D01*
X0165502Y0020492D01*
X0165481Y0020823D01*
X0165469Y0021154D01*
X0165465Y0021485D01*
X0007985Y0021485D02*
X0007989Y0021816D01*
X0008001Y0022147D01*
X0008022Y0022478D01*
X0008050Y0022808D01*
X0008087Y0023138D01*
X0008131Y0023466D01*
X0008184Y0023793D01*
X0008244Y0024119D01*
X0008313Y0024443D01*
X0008390Y0024765D01*
X0008474Y0025086D01*
X0008566Y0025404D01*
X0008666Y0025720D01*
X0008774Y0026033D01*
X0008890Y0026344D01*
X0009013Y0026651D01*
X0009143Y0026956D01*
X0009281Y0027257D01*
X0009426Y0027555D01*
X0009579Y0027849D01*
X0009739Y0028139D01*
X0009906Y0028425D01*
X0010079Y0028707D01*
X0010260Y0028985D01*
X0010448Y0029258D01*
X0010642Y0029527D01*
X0010842Y0029791D01*
X0011049Y0030049D01*
X0011263Y0030303D01*
X0011482Y0030551D01*
X0011708Y0030794D01*
X0011939Y0031031D01*
X0012176Y0031262D01*
X0012419Y0031488D01*
X0012667Y0031707D01*
X0012921Y0031921D01*
X0013179Y0032128D01*
X0013443Y0032328D01*
X0013712Y0032522D01*
X0013985Y0032710D01*
X0014263Y0032891D01*
X0014545Y0033064D01*
X0014831Y0033231D01*
X0015121Y0033391D01*
X0015415Y0033544D01*
X0015713Y0033689D01*
X0016014Y0033827D01*
X0016319Y0033957D01*
X0016626Y0034080D01*
X0016937Y0034196D01*
X0017250Y0034304D01*
X0017566Y0034404D01*
X0017884Y0034496D01*
X0018205Y0034580D01*
X0018527Y0034657D01*
X0018851Y0034726D01*
X0019177Y0034786D01*
X0019504Y0034839D01*
X0019832Y0034883D01*
X0020162Y0034920D01*
X0020492Y0034948D01*
X0020823Y0034969D01*
X0021154Y0034981D01*
X0021485Y0034985D01*
X0021816Y0034981D01*
X0022147Y0034969D01*
X0022478Y0034948D01*
X0022808Y0034920D01*
X0023138Y0034883D01*
X0023466Y0034839D01*
X0023793Y0034786D01*
X0024119Y0034726D01*
X0024443Y0034657D01*
X0024765Y0034580D01*
X0025086Y0034496D01*
X0025404Y0034404D01*
X0025720Y0034304D01*
X0026033Y0034196D01*
X0026344Y0034080D01*
X0026651Y0033957D01*
X0026956Y0033827D01*
X0027257Y0033689D01*
X0027555Y0033544D01*
X0027849Y0033391D01*
X0028139Y0033231D01*
X0028425Y0033064D01*
X0028707Y0032891D01*
X0028985Y0032710D01*
X0029258Y0032522D01*
X0029527Y0032328D01*
X0029791Y0032128D01*
X0030049Y0031921D01*
X0030303Y0031707D01*
X0030551Y0031488D01*
X0030794Y0031262D01*
X0031031Y0031031D01*
X0031262Y0030794D01*
X0031488Y0030551D01*
X0031707Y0030303D01*
X0031921Y0030049D01*
X0032128Y0029791D01*
X0032328Y0029527D01*
X0032522Y0029258D01*
X0032710Y0028985D01*
X0032891Y0028707D01*
X0033064Y0028425D01*
X0033231Y0028139D01*
X0033391Y0027849D01*
X0033544Y0027555D01*
X0033689Y0027257D01*
X0033827Y0026956D01*
X0033957Y0026651D01*
X0034080Y0026344D01*
X0034196Y0026033D01*
X0034304Y0025720D01*
X0034404Y0025404D01*
X0034496Y0025086D01*
X0034580Y0024765D01*
X0034657Y0024443D01*
X0034726Y0024119D01*
X0034786Y0023793D01*
X0034839Y0023466D01*
X0034883Y0023138D01*
X0034920Y0022808D01*
X0034948Y0022478D01*
X0034969Y0022147D01*
X0034981Y0021816D01*
X0034985Y0021485D01*
X0034981Y0021154D01*
X0034969Y0020823D01*
X0034948Y0020492D01*
X0034920Y0020162D01*
X0034883Y0019832D01*
X0034839Y0019504D01*
X0034786Y0019177D01*
X0034726Y0018851D01*
X0034657Y0018527D01*
X0034580Y0018205D01*
X0034496Y0017884D01*
X0034404Y0017566D01*
X0034304Y0017250D01*
X0034196Y0016937D01*
X0034080Y0016626D01*
X0033957Y0016319D01*
X0033827Y0016014D01*
X0033689Y0015713D01*
X0033544Y0015415D01*
X0033391Y0015121D01*
X0033231Y0014831D01*
X0033064Y0014545D01*
X0032891Y0014263D01*
X0032710Y0013985D01*
X0032522Y0013712D01*
X0032328Y0013443D01*
X0032128Y0013179D01*
X0031921Y0012921D01*
X0031707Y0012667D01*
X0031488Y0012419D01*
X0031262Y0012176D01*
X0031031Y0011939D01*
X0030794Y0011708D01*
X0030551Y0011482D01*
X0030303Y0011263D01*
X0030049Y0011049D01*
X0029791Y0010842D01*
X0029527Y0010642D01*
X0029258Y0010448D01*
X0028985Y0010260D01*
X0028707Y0010079D01*
X0028425Y0009906D01*
X0028139Y0009739D01*
X0027849Y0009579D01*
X0027555Y0009426D01*
X0027257Y0009281D01*
X0026956Y0009143D01*
X0026651Y0009013D01*
X0026344Y0008890D01*
X0026033Y0008774D01*
X0025720Y0008666D01*
X0025404Y0008566D01*
X0025086Y0008474D01*
X0024765Y0008390D01*
X0024443Y0008313D01*
X0024119Y0008244D01*
X0023793Y0008184D01*
X0023466Y0008131D01*
X0023138Y0008087D01*
X0022808Y0008050D01*
X0022478Y0008022D01*
X0022147Y0008001D01*
X0021816Y0007989D01*
X0021485Y0007985D01*
X0021154Y0007989D01*
X0020823Y0008001D01*
X0020492Y0008022D01*
X0020162Y0008050D01*
X0019832Y0008087D01*
X0019504Y0008131D01*
X0019177Y0008184D01*
X0018851Y0008244D01*
X0018527Y0008313D01*
X0018205Y0008390D01*
X0017884Y0008474D01*
X0017566Y0008566D01*
X0017250Y0008666D01*
X0016937Y0008774D01*
X0016626Y0008890D01*
X0016319Y0009013D01*
X0016014Y0009143D01*
X0015713Y0009281D01*
X0015415Y0009426D01*
X0015121Y0009579D01*
X0014831Y0009739D01*
X0014545Y0009906D01*
X0014263Y0010079D01*
X0013985Y0010260D01*
X0013712Y0010448D01*
X0013443Y0010642D01*
X0013179Y0010842D01*
X0012921Y0011049D01*
X0012667Y0011263D01*
X0012419Y0011482D01*
X0012176Y0011708D01*
X0011939Y0011939D01*
X0011708Y0012176D01*
X0011482Y0012419D01*
X0011263Y0012667D01*
X0011049Y0012921D01*
X0010842Y0013179D01*
X0010642Y0013443D01*
X0010448Y0013712D01*
X0010260Y0013985D01*
X0010079Y0014263D01*
X0009906Y0014545D01*
X0009739Y0014831D01*
X0009579Y0015121D01*
X0009426Y0015415D01*
X0009281Y0015713D01*
X0009143Y0016014D01*
X0009013Y0016319D01*
X0008890Y0016626D01*
X0008774Y0016937D01*
X0008666Y0017250D01*
X0008566Y0017566D01*
X0008474Y0017884D01*
X0008390Y0018205D01*
X0008313Y0018527D01*
X0008244Y0018851D01*
X0008184Y0019177D01*
X0008131Y0019504D01*
X0008087Y0019832D01*
X0008050Y0020162D01*
X0008022Y0020492D01*
X0008001Y0020823D01*
X0007989Y0021154D01*
X0007985Y0021485D01*
X0007985Y0192100D02*
X0007100Y0192985D01*
X0007985Y0192100D02*
X0009755Y0192100D01*
X0010640Y0192985D01*
X0010640Y0193870D01*
X0009755Y0194755D01*
X0007985Y0194755D01*
X0007100Y0195640D01*
X0007100Y0196525D01*
X0007985Y0197410D01*
X0009755Y0197410D01*
X0010640Y0196525D01*
X0012538Y0196525D02*
X0012538Y0192985D01*
X0016078Y0196525D01*
X0016078Y0192985D01*
X0015193Y0192100D01*
X0013423Y0192100D01*
X0012538Y0192985D01*
X0012538Y0196525D02*
X0013423Y0197410D01*
X0015193Y0197410D01*
X0016078Y0196525D01*
X0007985Y0218335D02*
X0007989Y0218666D01*
X0008001Y0218997D01*
X0008022Y0219328D01*
X0008050Y0219658D01*
X0008087Y0219988D01*
X0008131Y0220316D01*
X0008184Y0220643D01*
X0008244Y0220969D01*
X0008313Y0221293D01*
X0008390Y0221615D01*
X0008474Y0221936D01*
X0008566Y0222254D01*
X0008666Y0222570D01*
X0008774Y0222883D01*
X0008890Y0223194D01*
X0009013Y0223501D01*
X0009143Y0223806D01*
X0009281Y0224107D01*
X0009426Y0224405D01*
X0009579Y0224699D01*
X0009739Y0224989D01*
X0009906Y0225275D01*
X0010079Y0225557D01*
X0010260Y0225835D01*
X0010448Y0226108D01*
X0010642Y0226377D01*
X0010842Y0226641D01*
X0011049Y0226899D01*
X0011263Y0227153D01*
X0011482Y0227401D01*
X0011708Y0227644D01*
X0011939Y0227881D01*
X0012176Y0228112D01*
X0012419Y0228338D01*
X0012667Y0228557D01*
X0012921Y0228771D01*
X0013179Y0228978D01*
X0013443Y0229178D01*
X0013712Y0229372D01*
X0013985Y0229560D01*
X0014263Y0229741D01*
X0014545Y0229914D01*
X0014831Y0230081D01*
X0015121Y0230241D01*
X0015415Y0230394D01*
X0015713Y0230539D01*
X0016014Y0230677D01*
X0016319Y0230807D01*
X0016626Y0230930D01*
X0016937Y0231046D01*
X0017250Y0231154D01*
X0017566Y0231254D01*
X0017884Y0231346D01*
X0018205Y0231430D01*
X0018527Y0231507D01*
X0018851Y0231576D01*
X0019177Y0231636D01*
X0019504Y0231689D01*
X0019832Y0231733D01*
X0020162Y0231770D01*
X0020492Y0231798D01*
X0020823Y0231819D01*
X0021154Y0231831D01*
X0021485Y0231835D01*
X0021816Y0231831D01*
X0022147Y0231819D01*
X0022478Y0231798D01*
X0022808Y0231770D01*
X0023138Y0231733D01*
X0023466Y0231689D01*
X0023793Y0231636D01*
X0024119Y0231576D01*
X0024443Y0231507D01*
X0024765Y0231430D01*
X0025086Y0231346D01*
X0025404Y0231254D01*
X0025720Y0231154D01*
X0026033Y0231046D01*
X0026344Y0230930D01*
X0026651Y0230807D01*
X0026956Y0230677D01*
X0027257Y0230539D01*
X0027555Y0230394D01*
X0027849Y0230241D01*
X0028139Y0230081D01*
X0028425Y0229914D01*
X0028707Y0229741D01*
X0028985Y0229560D01*
X0029258Y0229372D01*
X0029527Y0229178D01*
X0029791Y0228978D01*
X0030049Y0228771D01*
X0030303Y0228557D01*
X0030551Y0228338D01*
X0030794Y0228112D01*
X0031031Y0227881D01*
X0031262Y0227644D01*
X0031488Y0227401D01*
X0031707Y0227153D01*
X0031921Y0226899D01*
X0032128Y0226641D01*
X0032328Y0226377D01*
X0032522Y0226108D01*
X0032710Y0225835D01*
X0032891Y0225557D01*
X0033064Y0225275D01*
X0033231Y0224989D01*
X0033391Y0224699D01*
X0033544Y0224405D01*
X0033689Y0224107D01*
X0033827Y0223806D01*
X0033957Y0223501D01*
X0034080Y0223194D01*
X0034196Y0222883D01*
X0034304Y0222570D01*
X0034404Y0222254D01*
X0034496Y0221936D01*
X0034580Y0221615D01*
X0034657Y0221293D01*
X0034726Y0220969D01*
X0034786Y0220643D01*
X0034839Y0220316D01*
X0034883Y0219988D01*
X0034920Y0219658D01*
X0034948Y0219328D01*
X0034969Y0218997D01*
X0034981Y0218666D01*
X0034985Y0218335D01*
X0034981Y0218004D01*
X0034969Y0217673D01*
X0034948Y0217342D01*
X0034920Y0217012D01*
X0034883Y0216682D01*
X0034839Y0216354D01*
X0034786Y0216027D01*
X0034726Y0215701D01*
X0034657Y0215377D01*
X0034580Y0215055D01*
X0034496Y0214734D01*
X0034404Y0214416D01*
X0034304Y0214100D01*
X0034196Y0213787D01*
X0034080Y0213476D01*
X0033957Y0213169D01*
X0033827Y0212864D01*
X0033689Y0212563D01*
X0033544Y0212265D01*
X0033391Y0211971D01*
X0033231Y0211681D01*
X0033064Y0211395D01*
X0032891Y0211113D01*
X0032710Y0210835D01*
X0032522Y0210562D01*
X0032328Y0210293D01*
X0032128Y0210029D01*
X0031921Y0209771D01*
X0031707Y0209517D01*
X0031488Y0209269D01*
X0031262Y0209026D01*
X0031031Y0208789D01*
X0030794Y0208558D01*
X0030551Y0208332D01*
X0030303Y0208113D01*
X0030049Y0207899D01*
X0029791Y0207692D01*
X0029527Y0207492D01*
X0029258Y0207298D01*
X0028985Y0207110D01*
X0028707Y0206929D01*
X0028425Y0206756D01*
X0028139Y0206589D01*
X0027849Y0206429D01*
X0027555Y0206276D01*
X0027257Y0206131D01*
X0026956Y0205993D01*
X0026651Y0205863D01*
X0026344Y0205740D01*
X0026033Y0205624D01*
X0025720Y0205516D01*
X0025404Y0205416D01*
X0025086Y0205324D01*
X0024765Y0205240D01*
X0024443Y0205163D01*
X0024119Y0205094D01*
X0023793Y0205034D01*
X0023466Y0204981D01*
X0023138Y0204937D01*
X0022808Y0204900D01*
X0022478Y0204872D01*
X0022147Y0204851D01*
X0021816Y0204839D01*
X0021485Y0204835D01*
X0021154Y0204839D01*
X0020823Y0204851D01*
X0020492Y0204872D01*
X0020162Y0204900D01*
X0019832Y0204937D01*
X0019504Y0204981D01*
X0019177Y0205034D01*
X0018851Y0205094D01*
X0018527Y0205163D01*
X0018205Y0205240D01*
X0017884Y0205324D01*
X0017566Y0205416D01*
X0017250Y0205516D01*
X0016937Y0205624D01*
X0016626Y0205740D01*
X0016319Y0205863D01*
X0016014Y0205993D01*
X0015713Y0206131D01*
X0015415Y0206276D01*
X0015121Y0206429D01*
X0014831Y0206589D01*
X0014545Y0206756D01*
X0014263Y0206929D01*
X0013985Y0207110D01*
X0013712Y0207298D01*
X0013443Y0207492D01*
X0013179Y0207692D01*
X0012921Y0207899D01*
X0012667Y0208113D01*
X0012419Y0208332D01*
X0012176Y0208558D01*
X0011939Y0208789D01*
X0011708Y0209026D01*
X0011482Y0209269D01*
X0011263Y0209517D01*
X0011049Y0209771D01*
X0010842Y0210029D01*
X0010642Y0210293D01*
X0010448Y0210562D01*
X0010260Y0210835D01*
X0010079Y0211113D01*
X0009906Y0211395D01*
X0009739Y0211681D01*
X0009579Y0211971D01*
X0009426Y0212265D01*
X0009281Y0212563D01*
X0009143Y0212864D01*
X0009013Y0213169D01*
X0008890Y0213476D01*
X0008774Y0213787D01*
X0008666Y0214100D01*
X0008566Y0214416D01*
X0008474Y0214734D01*
X0008390Y0215055D01*
X0008313Y0215377D01*
X0008244Y0215701D01*
X0008184Y0216027D01*
X0008131Y0216354D01*
X0008087Y0216682D01*
X0008050Y0217012D01*
X0008022Y0217342D01*
X0008001Y0217673D01*
X0007989Y0218004D01*
X0007985Y0218335D01*
D15*
X0079300Y0126000D03*
X0089300Y0111000D03*
X0079300Y0097600D03*
X0089300Y0082600D03*
X0099300Y0097600D03*
X0109300Y0111000D03*
X0119300Y0097600D03*
X0129300Y0111000D03*
X0119300Y0126000D03*
X0099300Y0126000D03*
X0109300Y0082600D03*
X0129300Y0082600D03*
D16*
X0127797Y0088942D02*
X0127046Y0089693D01*
X0127046Y0091194D01*
X0127797Y0091945D01*
X0128547Y0091945D01*
X0131550Y0088942D01*
X0131550Y0091945D01*
X0131550Y0093546D02*
X0128547Y0096549D01*
X0127797Y0096549D01*
X0127046Y0095798D01*
X0127046Y0094297D01*
X0127797Y0093546D01*
X0131550Y0093546D02*
X0131550Y0096549D01*
X0130799Y0098150D02*
X0131550Y0098901D01*
X0131550Y0100402D01*
X0130799Y0101153D01*
X0127797Y0101153D01*
X0130799Y0098150D01*
X0127797Y0098150D01*
X0127046Y0098901D01*
X0127046Y0100402D01*
X0127797Y0101153D01*
X0127046Y0102754D02*
X0127046Y0105006D01*
X0127797Y0105756D01*
X0129298Y0105756D01*
X0130049Y0105006D01*
X0130049Y0102754D01*
X0131550Y0102754D02*
X0127046Y0102754D01*
X0130049Y0104255D02*
X0131550Y0105756D01*
X0121550Y0106153D02*
X0121550Y0103150D01*
X0118547Y0106153D01*
X0117797Y0106153D01*
X0117046Y0105402D01*
X0117046Y0103901D01*
X0117797Y0103150D01*
X0117797Y0107754D02*
X0117046Y0108505D01*
X0117046Y0110006D01*
X0117797Y0110756D01*
X0118547Y0110756D01*
X0121550Y0107754D01*
X0121550Y0110756D01*
X0120799Y0112358D02*
X0117797Y0115360D01*
X0120799Y0115360D01*
X0121550Y0114610D01*
X0121550Y0113108D01*
X0120799Y0112358D01*
X0117797Y0112358D01*
X0117046Y0113108D01*
X0117046Y0114610D01*
X0117797Y0115360D01*
X0117046Y0116962D02*
X0117046Y0119214D01*
X0117797Y0119964D01*
X0119298Y0119964D01*
X0120049Y0119214D01*
X0120049Y0116962D01*
X0121550Y0116962D02*
X0117046Y0116962D01*
X0120049Y0118463D02*
X0121550Y0119964D01*
X0132800Y0116400D02*
X0132900Y0116400D01*
X0132900Y0044300D01*
X0132800Y0044300D02*
X0069900Y0044300D01*
X0069900Y0116400D01*
X0069910Y0116371D02*
X0132902Y0116371D01*
X0132902Y0139206D01*
X0069910Y0139206D01*
X0069910Y0116371D01*
X0077046Y0115068D02*
X0077046Y0118071D01*
X0077797Y0118071D01*
X0080799Y0115068D01*
X0081550Y0115068D01*
X0081550Y0113484D02*
X0080049Y0111232D01*
X0078547Y0113484D01*
X0077046Y0111232D02*
X0081550Y0111232D01*
X0081550Y0108880D02*
X0077046Y0108880D01*
X0079298Y0106628D01*
X0079298Y0109630D01*
X0087046Y0098834D02*
X0091550Y0098834D01*
X0090049Y0098834D02*
X0091550Y0101086D01*
X0090049Y0098834D02*
X0088547Y0101086D01*
X0091550Y0097232D02*
X0091550Y0094230D01*
X0091550Y0095731D02*
X0087046Y0095731D01*
X0088547Y0094230D01*
X0098547Y0109230D02*
X0097046Y0110731D01*
X0101550Y0110731D01*
X0101550Y0109230D02*
X0101550Y0112232D01*
X0101550Y0113834D02*
X0097046Y0113834D01*
X0098547Y0116086D02*
X0100049Y0113834D01*
X0101550Y0116086D01*
X0107046Y0103071D02*
X0107797Y0103071D01*
X0110799Y0100068D01*
X0111550Y0100068D01*
X0111550Y0098484D02*
X0110049Y0096232D01*
X0108547Y0098484D01*
X0107046Y0100068D02*
X0107046Y0103071D01*
X0107046Y0096232D02*
X0111550Y0096232D01*
X0111550Y0093880D02*
X0107046Y0093880D01*
X0109298Y0091628D01*
X0109298Y0094630D01*
X0151800Y0129300D02*
X0151797Y0129542D01*
X0151788Y0129783D01*
X0151774Y0130024D01*
X0151753Y0130265D01*
X0151727Y0130505D01*
X0151695Y0130745D01*
X0151657Y0130984D01*
X0151614Y0131221D01*
X0151564Y0131458D01*
X0151509Y0131693D01*
X0151449Y0131927D01*
X0151382Y0132159D01*
X0151311Y0132390D01*
X0151233Y0132619D01*
X0151150Y0132846D01*
X0151062Y0133071D01*
X0150968Y0133294D01*
X0150869Y0133514D01*
X0150764Y0133732D01*
X0150655Y0133947D01*
X0150540Y0134160D01*
X0150420Y0134370D01*
X0150295Y0134576D01*
X0150165Y0134780D01*
X0150030Y0134981D01*
X0149890Y0135178D01*
X0149746Y0135372D01*
X0149597Y0135562D01*
X0149443Y0135748D01*
X0149285Y0135931D01*
X0149123Y0136110D01*
X0148956Y0136285D01*
X0148785Y0136456D01*
X0148610Y0136623D01*
X0148431Y0136785D01*
X0148248Y0136943D01*
X0148062Y0137097D01*
X0147872Y0137246D01*
X0147678Y0137390D01*
X0147481Y0137530D01*
X0147280Y0137665D01*
X0147076Y0137795D01*
X0146870Y0137920D01*
X0146660Y0138040D01*
X0146447Y0138155D01*
X0146232Y0138264D01*
X0146014Y0138369D01*
X0145794Y0138468D01*
X0145571Y0138562D01*
X0145346Y0138650D01*
X0145119Y0138733D01*
X0144890Y0138811D01*
X0144659Y0138882D01*
X0144427Y0138949D01*
X0144193Y0139009D01*
X0143958Y0139064D01*
X0143721Y0139114D01*
X0143484Y0139157D01*
X0143245Y0139195D01*
X0143005Y0139227D01*
X0142765Y0139253D01*
X0142524Y0139274D01*
X0142283Y0139288D01*
X0142042Y0139297D01*
X0141800Y0139300D01*
X0061800Y0139300D01*
X0061558Y0139297D01*
X0061317Y0139288D01*
X0061076Y0139274D01*
X0060835Y0139253D01*
X0060595Y0139227D01*
X0060355Y0139195D01*
X0060116Y0139157D01*
X0059879Y0139114D01*
X0059642Y0139064D01*
X0059407Y0139009D01*
X0059173Y0138949D01*
X0058941Y0138882D01*
X0058710Y0138811D01*
X0058481Y0138733D01*
X0058254Y0138650D01*
X0058029Y0138562D01*
X0057806Y0138468D01*
X0057586Y0138369D01*
X0057368Y0138264D01*
X0057153Y0138155D01*
X0056940Y0138040D01*
X0056730Y0137920D01*
X0056524Y0137795D01*
X0056320Y0137665D01*
X0056119Y0137530D01*
X0055922Y0137390D01*
X0055728Y0137246D01*
X0055538Y0137097D01*
X0055352Y0136943D01*
X0055169Y0136785D01*
X0054990Y0136623D01*
X0054815Y0136456D01*
X0054644Y0136285D01*
X0054477Y0136110D01*
X0054315Y0135931D01*
X0054157Y0135748D01*
X0054003Y0135562D01*
X0053854Y0135372D01*
X0053710Y0135178D01*
X0053570Y0134981D01*
X0053435Y0134780D01*
X0053305Y0134576D01*
X0053180Y0134370D01*
X0053060Y0134160D01*
X0052945Y0133947D01*
X0052836Y0133732D01*
X0052731Y0133514D01*
X0052632Y0133294D01*
X0052538Y0133071D01*
X0052450Y0132846D01*
X0052367Y0132619D01*
X0052289Y0132390D01*
X0052218Y0132159D01*
X0052151Y0131927D01*
X0052091Y0131693D01*
X0052036Y0131458D01*
X0051986Y0131221D01*
X0051943Y0130984D01*
X0051905Y0130745D01*
X0051873Y0130505D01*
X0051847Y0130265D01*
X0051826Y0130024D01*
X0051812Y0129783D01*
X0051803Y0129542D01*
X0051800Y0129300D01*
X0051800Y0004300D01*
X0151800Y0004300D01*
X0151800Y0129300D01*
X0179050Y0070053D02*
X0179050Y0067050D01*
X0179050Y0068551D02*
X0174546Y0068551D01*
X0176047Y0067050D01*
X0104593Y0041554D02*
X0104593Y0040803D01*
X0101591Y0037801D01*
X0101591Y0037050D01*
X0100006Y0037050D02*
X0097754Y0038551D01*
X0100006Y0040053D01*
X0101591Y0041554D02*
X0104593Y0041554D01*
X0097754Y0041554D02*
X0097754Y0037050D01*
X0095402Y0037050D02*
X0095402Y0041554D01*
X0093150Y0039302D01*
X0096153Y0039302D01*
X0039458Y0060803D02*
X0036456Y0057801D01*
X0036456Y0057050D01*
X0034104Y0057050D02*
X0034104Y0061554D01*
X0031852Y0059302D01*
X0034854Y0059302D01*
X0036456Y0061554D02*
X0039458Y0061554D01*
X0039458Y0060803D01*
X0033300Y0068554D02*
X0033300Y0085046D01*
X0027800Y0085673D02*
X0027800Y0087252D01*
X0027800Y0077927D02*
X0027800Y0075673D01*
X0033300Y0068554D02*
X0033101Y0068401D01*
X0032899Y0068253D01*
X0032694Y0068110D01*
X0032485Y0067972D01*
X0032273Y0067839D01*
X0032058Y0067711D01*
X0031840Y0067589D01*
X0031619Y0067471D01*
X0031395Y0067359D01*
X0031169Y0067252D01*
X0030940Y0067151D01*
X0030709Y0067055D01*
X0030475Y0066964D01*
X0030240Y0066879D01*
X0030002Y0066800D01*
X0029763Y0066727D01*
X0029522Y0066659D01*
X0029280Y0066597D01*
X0029036Y0066541D01*
X0028790Y0066490D01*
X0028544Y0066446D01*
X0028297Y0066407D01*
X0028049Y0066375D01*
X0027800Y0066348D01*
X0027800Y0067927D01*
X0027248Y0061554D02*
X0027248Y0059302D01*
X0028749Y0060053D01*
X0029500Y0060053D01*
X0030251Y0059302D01*
X0030251Y0057801D01*
X0029500Y0057050D01*
X0027999Y0057050D01*
X0027248Y0057801D01*
X0025647Y0057801D02*
X0024896Y0057050D01*
X0023395Y0057050D01*
X0022644Y0057801D01*
X0022644Y0060803D01*
X0023395Y0061554D01*
X0024896Y0061554D01*
X0025647Y0060803D01*
X0027248Y0061554D02*
X0030251Y0061554D01*
X0021043Y0060803D02*
X0021043Y0060053D01*
X0020292Y0059302D01*
X0018040Y0059302D01*
X0018040Y0061554D02*
X0020292Y0061554D01*
X0021043Y0060803D01*
X0020292Y0059302D02*
X0021043Y0058551D01*
X0021043Y0057801D01*
X0020292Y0057050D01*
X0018040Y0057050D01*
X0018040Y0061554D01*
X0027800Y0066348D02*
X0027545Y0066326D01*
X0027289Y0066311D01*
X0027033Y0066303D01*
X0026776Y0066300D01*
X0026520Y0066304D01*
X0026264Y0066314D01*
X0026008Y0066330D01*
X0025753Y0066352D01*
X0025498Y0066381D01*
X0025244Y0066416D01*
X0024991Y0066457D01*
X0024739Y0066504D01*
X0024489Y0066558D01*
X0024240Y0066617D01*
X0023992Y0066683D01*
X0023746Y0066754D01*
X0023501Y0066832D01*
X0023259Y0066915D01*
X0023019Y0067004D01*
X0022781Y0067100D01*
X0022545Y0067201D01*
X0022312Y0067307D01*
X0022082Y0067420D01*
X0021854Y0067538D01*
X0021630Y0067661D01*
X0021408Y0067790D01*
X0021190Y0067924D01*
X0020975Y0068064D01*
X0020764Y0068209D01*
X0020556Y0068359D01*
X0020352Y0068513D01*
X0020151Y0068673D01*
X0019955Y0068838D01*
X0019763Y0069007D01*
X0019574Y0069182D01*
X0019391Y0069360D01*
X0019211Y0069543D01*
X0019036Y0069731D01*
X0018866Y0069922D01*
X0018701Y0070118D01*
X0018540Y0070318D01*
X0018384Y0070521D01*
X0018234Y0070728D01*
X0018088Y0070939D01*
X0017947Y0071154D01*
X0017812Y0071371D01*
X0017682Y0071592D01*
X0017558Y0071816D01*
X0017439Y0072043D01*
X0017326Y0072273D01*
X0017218Y0072506D01*
X0017116Y0072741D01*
X0017020Y0072979D01*
X0016930Y0073218D01*
X0016845Y0073460D01*
X0016767Y0073704D01*
X0016767Y0079896D02*
X0016845Y0080138D01*
X0016929Y0080378D01*
X0017018Y0080616D01*
X0017113Y0080852D01*
X0017215Y0081086D01*
X0017321Y0081317D01*
X0017434Y0081545D01*
X0017551Y0081771D01*
X0017674Y0081994D01*
X0017803Y0082213D01*
X0017937Y0082430D01*
X0018076Y0082643D01*
X0018220Y0082853D01*
X0018369Y0083059D01*
X0018523Y0083261D01*
X0018682Y0083460D01*
X0018846Y0083655D01*
X0019015Y0083846D01*
X0019188Y0084032D01*
X0019365Y0084215D01*
X0019547Y0084393D01*
X0019733Y0084566D01*
X0019924Y0084735D01*
X0020118Y0084899D01*
X0020316Y0085059D01*
X0020518Y0085214D01*
X0020724Y0085363D01*
X0020933Y0085508D01*
X0021146Y0085648D01*
X0021362Y0085782D01*
X0021582Y0085911D01*
X0021804Y0086035D01*
X0022029Y0086154D01*
X0022257Y0086266D01*
X0022488Y0086374D01*
X0022721Y0086475D01*
X0022957Y0086571D01*
X0023195Y0086662D01*
X0023435Y0086746D01*
X0023677Y0086825D01*
X0023921Y0086898D01*
X0024167Y0086964D01*
X0024414Y0087025D01*
X0024662Y0087080D01*
X0024912Y0087129D01*
X0025163Y0087172D01*
X0025415Y0087208D01*
X0025667Y0087239D01*
X0025921Y0087263D01*
X0026174Y0087281D01*
X0026429Y0087293D01*
X0026683Y0087299D01*
X0026938Y0087299D01*
X0027192Y0087293D01*
X0027446Y0087280D01*
X0027700Y0087261D01*
X0027953Y0087236D01*
X0028206Y0087205D01*
X0028458Y0087168D01*
X0028708Y0087125D01*
X0028958Y0087076D01*
X0029207Y0087020D01*
X0029454Y0086959D01*
X0029699Y0086892D01*
X0029943Y0086819D01*
X0030185Y0086740D01*
X0030424Y0086655D01*
X0030662Y0086564D01*
X0030898Y0086467D01*
X0031131Y0086365D01*
X0031361Y0086257D01*
X0031589Y0086144D01*
X0031814Y0086025D01*
X0032036Y0085901D01*
X0032255Y0085771D01*
X0032471Y0085637D01*
X0032684Y0085497D01*
X0032893Y0085351D01*
X0033098Y0085201D01*
X0033300Y0085046D01*
X0015050Y0110530D02*
X0010546Y0110530D01*
X0010546Y0112782D01*
X0011297Y0113533D01*
X0012798Y0113533D01*
X0013549Y0112782D01*
X0013549Y0110530D01*
X0014299Y0115134D02*
X0011297Y0115134D01*
X0010546Y0115885D01*
X0010546Y0117386D01*
X0011297Y0118137D01*
X0011297Y0119738D02*
X0012047Y0119738D01*
X0012798Y0120489D01*
X0012798Y0121990D01*
X0013549Y0122741D01*
X0014299Y0122741D01*
X0015050Y0121990D01*
X0015050Y0120489D01*
X0014299Y0119738D01*
X0013549Y0119738D01*
X0012798Y0120489D01*
X0012798Y0121990D02*
X0012047Y0122741D01*
X0011297Y0122741D01*
X0010546Y0121990D01*
X0010546Y0120489D01*
X0011297Y0119738D01*
X0014299Y0118137D02*
X0015050Y0117386D01*
X0015050Y0115885D01*
X0014299Y0115134D01*
X0015050Y0124342D02*
X0015050Y0127345D01*
X0015050Y0125843D02*
X0010546Y0125843D01*
X0012047Y0124342D01*
X0010546Y0128946D02*
X0010546Y0131949D01*
X0011297Y0131949D01*
X0014299Y0128946D01*
X0015050Y0128946D01*
X0038546Y0129447D02*
X0043050Y0129447D01*
X0043050Y0127946D02*
X0043050Y0130949D01*
X0040047Y0127946D02*
X0038546Y0129447D01*
X0038546Y0126345D02*
X0041549Y0123342D01*
X0040798Y0124093D02*
X0043050Y0126345D01*
X0043050Y0123342D02*
X0038546Y0123342D01*
X0039297Y0121741D02*
X0038546Y0120990D01*
X0038546Y0119489D01*
X0039297Y0118738D01*
X0042299Y0118738D01*
X0043050Y0119489D01*
X0043050Y0120990D01*
X0042299Y0121741D01*
X0039297Y0121741D01*
D17*
X0061900Y0110702D02*
X0061900Y0107900D01*
X0061900Y0108834D02*
X0063301Y0108834D01*
X0063768Y0109301D01*
X0063768Y0110235D01*
X0063301Y0110702D01*
X0061900Y0110702D01*
X0062834Y0108834D02*
X0063768Y0107900D01*
X0064662Y0108367D02*
X0065129Y0107900D01*
X0066064Y0107900D01*
X0066531Y0108367D01*
X0066531Y0108834D01*
X0066064Y0109301D01*
X0065129Y0109301D01*
X0064662Y0109768D01*
X0064662Y0110235D01*
X0065129Y0110702D01*
X0066064Y0110702D01*
X0066531Y0110235D01*
X0067425Y0110702D02*
X0069293Y0110702D01*
X0068359Y0110702D02*
X0068359Y0107900D01*
X0066064Y0100702D02*
X0065129Y0100702D01*
X0064662Y0100235D01*
X0064662Y0098367D01*
X0066531Y0100235D01*
X0066531Y0098367D01*
X0066064Y0097900D01*
X0065129Y0097900D01*
X0064662Y0098367D01*
X0063768Y0097900D02*
X0063768Y0099768D01*
X0062834Y0100702D01*
X0061900Y0099768D01*
X0061900Y0097900D01*
X0061900Y0099301D02*
X0063768Y0099301D01*
X0066064Y0100702D02*
X0066531Y0100235D01*
X0066064Y0090702D02*
X0065129Y0090702D01*
X0064662Y0090235D01*
X0064662Y0088367D01*
X0066531Y0090235D01*
X0066531Y0088367D01*
X0066064Y0087900D01*
X0065129Y0087900D01*
X0064662Y0088367D01*
X0063768Y0088367D02*
X0063768Y0090235D01*
X0063301Y0090702D01*
X0061900Y0090702D01*
X0061900Y0087900D01*
X0063301Y0087900D01*
X0063768Y0088367D01*
X0066064Y0090702D02*
X0066531Y0090235D01*
X0066531Y0080702D02*
X0064662Y0080702D01*
X0064662Y0079301D01*
X0065596Y0079768D01*
X0066064Y0079768D01*
X0066531Y0079301D01*
X0066531Y0078367D01*
X0066064Y0077900D01*
X0065129Y0077900D01*
X0064662Y0078367D01*
X0063768Y0078367D02*
X0063768Y0080235D01*
X0063301Y0080702D01*
X0061900Y0080702D01*
X0061900Y0077900D01*
X0063301Y0077900D01*
X0063768Y0078367D01*
X0063301Y0070702D02*
X0061900Y0070702D01*
X0061900Y0067900D01*
X0063301Y0067900D01*
X0063768Y0068367D01*
X0063768Y0070235D01*
X0063301Y0070702D01*
X0064662Y0069301D02*
X0064662Y0068367D01*
X0065129Y0067900D01*
X0066064Y0067900D01*
X0066531Y0068367D01*
X0066531Y0068834D01*
X0066064Y0069301D01*
X0064662Y0069301D01*
X0065596Y0070235D01*
X0066531Y0070702D01*
X0066531Y0060702D02*
X0064662Y0060702D01*
X0063768Y0060235D02*
X0063301Y0060702D01*
X0061900Y0060702D01*
X0061900Y0057900D01*
X0063301Y0057900D01*
X0063768Y0058367D01*
X0063768Y0060235D01*
X0064662Y0058367D02*
X0064662Y0057900D01*
X0064662Y0058367D02*
X0066531Y0060235D01*
X0066531Y0060702D01*
X0066064Y0050702D02*
X0065129Y0050702D01*
X0064662Y0050235D01*
X0064662Y0049768D01*
X0065129Y0049301D01*
X0066064Y0049301D01*
X0066531Y0048834D01*
X0066531Y0048367D01*
X0066064Y0047900D01*
X0065129Y0047900D01*
X0064662Y0048367D01*
X0064662Y0048834D01*
X0065129Y0049301D01*
X0066064Y0049301D02*
X0066531Y0049768D01*
X0066531Y0050235D01*
X0066064Y0050702D01*
X0063768Y0050235D02*
X0063768Y0048367D01*
X0063301Y0047900D01*
X0061900Y0047900D01*
X0061900Y0050702D01*
X0063301Y0050702D01*
X0063768Y0050235D01*
X0063301Y0040702D02*
X0063768Y0040235D01*
X0063768Y0039768D01*
X0063301Y0039301D01*
X0063768Y0038834D01*
X0063768Y0038367D01*
X0063301Y0037900D01*
X0062367Y0037900D01*
X0061900Y0038367D01*
X0062834Y0039301D02*
X0063301Y0039301D01*
X0063301Y0040702D02*
X0062367Y0040702D01*
X0061900Y0040235D01*
X0064662Y0040702D02*
X0064662Y0038834D01*
X0065596Y0037900D01*
X0066531Y0038834D01*
X0066531Y0040702D01*
X0067425Y0040235D02*
X0067892Y0040702D01*
X0068826Y0040702D01*
X0069293Y0040235D01*
X0069293Y0039768D01*
X0068826Y0039301D01*
X0069293Y0038834D01*
X0069293Y0038367D01*
X0068826Y0037900D01*
X0067892Y0037900D01*
X0067425Y0038367D01*
X0068359Y0039301D02*
X0068826Y0039301D01*
X0068620Y0022327D02*
X0068620Y0020025D01*
X0068620Y0018577D02*
X0068620Y0016275D01*
X0067853Y0016659D02*
X0067469Y0016275D01*
X0066702Y0016275D01*
X0066318Y0016659D01*
X0066318Y0018193D01*
X0066702Y0018577D01*
X0067469Y0018577D01*
X0067853Y0018193D01*
X0068620Y0017426D02*
X0070155Y0017426D01*
X0070155Y0018577D02*
X0070155Y0016275D01*
X0067086Y0020025D02*
X0065551Y0020025D01*
X0065551Y0022327D01*
X0067086Y0022327D01*
X0067853Y0022327D02*
X0069388Y0022327D01*
X0066318Y0021176D02*
X0065551Y0021176D01*
X0064784Y0020792D02*
X0064784Y0020409D01*
X0064400Y0020025D01*
X0063633Y0020025D01*
X0063249Y0020409D01*
X0063633Y0021176D02*
X0063249Y0021560D01*
X0063249Y0021943D01*
X0063633Y0022327D01*
X0064400Y0022327D01*
X0064784Y0021943D01*
X0064400Y0021176D02*
X0064784Y0020792D01*
X0064400Y0021176D02*
X0063633Y0021176D01*
X0062482Y0022327D02*
X0060947Y0022327D01*
X0060947Y0020025D01*
X0062482Y0020025D01*
X0061714Y0021176D02*
X0060947Y0021176D01*
X0060180Y0021176D02*
X0059796Y0020792D01*
X0058645Y0020792D01*
X0058645Y0020025D02*
X0058645Y0022327D01*
X0059796Y0022327D01*
X0060180Y0021943D01*
X0060180Y0021176D01*
X0059412Y0020792D02*
X0060180Y0020025D01*
X0060180Y0018577D02*
X0060180Y0016275D01*
X0060947Y0017042D01*
X0061714Y0016275D01*
X0061714Y0018577D01*
X0062482Y0018577D02*
X0063249Y0018577D01*
X0062865Y0018577D02*
X0062865Y0016275D01*
X0062482Y0016275D02*
X0063249Y0016275D01*
X0064784Y0016275D02*
X0064784Y0018577D01*
X0065551Y0018577D02*
X0064016Y0018577D01*
X0059412Y0018193D02*
X0059029Y0018577D01*
X0058261Y0018577D01*
X0057878Y0018193D01*
X0057878Y0017810D01*
X0058261Y0017426D01*
X0059029Y0017426D01*
X0059412Y0017042D01*
X0059412Y0016659D01*
X0059029Y0016275D01*
X0058261Y0016275D01*
X0057878Y0016659D01*
X0133613Y0048367D02*
X0134080Y0047900D01*
X0135014Y0047900D01*
X0135481Y0048367D01*
X0135481Y0049301D01*
X0134547Y0049301D01*
X0133613Y0050235D02*
X0133613Y0048367D01*
X0133613Y0050235D02*
X0134080Y0050702D01*
X0135014Y0050702D01*
X0135481Y0050235D01*
X0136375Y0050702D02*
X0138244Y0047900D01*
X0138244Y0050702D01*
X0139138Y0050702D02*
X0139138Y0047900D01*
X0140539Y0047900D01*
X0141006Y0048367D01*
X0141006Y0050235D01*
X0140539Y0050702D01*
X0139138Y0050702D01*
X0136375Y0050702D02*
X0136375Y0047900D01*
X0136375Y0040702D02*
X0136375Y0039301D01*
X0137309Y0039768D01*
X0137776Y0039768D01*
X0138244Y0039301D01*
X0138244Y0038367D01*
X0137776Y0037900D01*
X0136842Y0037900D01*
X0136375Y0038367D01*
X0136375Y0040702D02*
X0138244Y0040702D01*
X0139138Y0040702D02*
X0139138Y0038834D01*
X0140072Y0037900D01*
X0141006Y0038834D01*
X0141006Y0040702D01*
X0140539Y0057900D02*
X0140539Y0060702D01*
X0139138Y0059301D01*
X0141006Y0059301D01*
X0138244Y0058367D02*
X0138244Y0060235D01*
X0137776Y0060702D01*
X0136375Y0060702D01*
X0136375Y0057900D01*
X0137776Y0057900D01*
X0138244Y0058367D01*
X0137776Y0067900D02*
X0136375Y0067900D01*
X0136375Y0070702D01*
X0137776Y0070702D01*
X0138244Y0070235D01*
X0138244Y0068367D01*
X0137776Y0067900D01*
X0139138Y0068367D02*
X0139605Y0067900D01*
X0140539Y0067900D01*
X0141006Y0068367D01*
X0141006Y0068834D01*
X0140539Y0069301D01*
X0140072Y0069301D01*
X0140539Y0069301D02*
X0141006Y0069768D01*
X0141006Y0070235D01*
X0140539Y0070702D01*
X0139605Y0070702D01*
X0139138Y0070235D01*
X0139138Y0077900D02*
X0141006Y0079768D01*
X0141006Y0080235D01*
X0140539Y0080702D01*
X0139605Y0080702D01*
X0139138Y0080235D01*
X0138244Y0080235D02*
X0138244Y0078367D01*
X0137776Y0077900D01*
X0136375Y0077900D01*
X0136375Y0080702D01*
X0137776Y0080702D01*
X0138244Y0080235D01*
X0139138Y0077900D02*
X0141006Y0077900D01*
X0141006Y0087900D02*
X0139138Y0087900D01*
X0140072Y0087900D02*
X0140072Y0090702D01*
X0139138Y0089768D01*
X0138244Y0090235D02*
X0138244Y0088367D01*
X0137776Y0087900D01*
X0136375Y0087900D01*
X0136375Y0090702D01*
X0137776Y0090702D01*
X0138244Y0090235D01*
X0138244Y0097900D02*
X0137309Y0098834D01*
X0137776Y0098834D02*
X0136375Y0098834D01*
X0136375Y0097900D02*
X0136375Y0100702D01*
X0137776Y0100702D01*
X0138244Y0100235D01*
X0138244Y0099301D01*
X0137776Y0098834D01*
X0139138Y0097900D02*
X0141006Y0100702D01*
X0139138Y0100702D02*
X0141006Y0097900D01*
X0141006Y0107900D02*
X0139138Y0110702D01*
X0138244Y0110702D02*
X0136375Y0110702D01*
X0137309Y0110702D02*
X0137309Y0107900D01*
X0139138Y0107900D02*
X0141006Y0110702D01*
D18*
X0105643Y0019153D02*
X0103792Y0019153D01*
X0103792Y0015450D01*
X0105643Y0015450D01*
X0106260Y0016067D01*
X0106260Y0016684D01*
X0105643Y0017302D01*
X0103792Y0017302D01*
X0102577Y0016684D02*
X0102577Y0016067D01*
X0101960Y0015450D01*
X0100726Y0015450D01*
X0100108Y0016067D01*
X0098894Y0016067D02*
X0098894Y0019153D01*
X0100108Y0018536D02*
X0100108Y0017919D01*
X0100726Y0017302D01*
X0101960Y0017302D01*
X0102577Y0016684D01*
X0102577Y0018536D02*
X0101960Y0019153D01*
X0100726Y0019153D01*
X0100108Y0018536D01*
X0098894Y0016067D02*
X0098277Y0015450D01*
X0097042Y0015450D01*
X0096425Y0016067D01*
X0096425Y0019153D01*
X0095825Y0013153D02*
X0095825Y0009450D01*
X0097039Y0009450D02*
X0098274Y0009450D01*
X0097656Y0009450D02*
X0097656Y0013153D01*
X0097039Y0013153D02*
X0098274Y0013153D01*
X0099495Y0012536D02*
X0099495Y0010067D01*
X0100112Y0009450D01*
X0101346Y0009450D01*
X0101963Y0010067D01*
X0103178Y0009450D02*
X0103178Y0013153D01*
X0105029Y0013153D01*
X0105646Y0012536D01*
X0105646Y0011302D01*
X0105029Y0010684D01*
X0103178Y0010684D01*
X0104412Y0010684D02*
X0105646Y0009450D01*
X0106861Y0010067D02*
X0107478Y0009450D01*
X0108712Y0009450D01*
X0109330Y0010067D01*
X0109330Y0012536D01*
X0108712Y0013153D01*
X0107478Y0013153D01*
X0106861Y0012536D01*
X0106861Y0010067D01*
X0101963Y0012536D02*
X0101346Y0013153D01*
X0100112Y0013153D01*
X0099495Y0012536D01*
X0095825Y0013153D02*
X0094590Y0011919D01*
X0093356Y0013153D01*
X0093356Y0009450D01*
X0105643Y0017302D02*
X0106260Y0017919D01*
X0106260Y0018536D01*
X0105643Y0019153D01*
D19*
X0129381Y0236505D02*
X0067881Y0236505D01*
D20*
X0069448Y0233940D03*
X0127814Y0233940D03*
D21*
X0096300Y0054300D03*
D22*
X0090050Y0054300D03*
X0113550Y0054300D03*
D23*
X0116000Y0039300D03*
X0087600Y0039300D03*
M02*
