G75*
%MOIN*%
%OFA0B0*%
%FSLAX25Y25*%
%IPPOS*%
%LPD*%
%AMOC8*
5,1,8,0,0,1.08239X$1,22.5*
%
%ADD10C,0.00000*%
%ADD11R,0.08000X0.08000*%
%ADD12C,0.08000*%
%ADD13R,0.09500X0.09500*%
%ADD14C,0.09500*%
%ADD15OC8,0.05200*%
%ADD16C,0.07200*%
%ADD17C,0.00039*%
%ADD18C,0.05543*%
%ADD19C,0.11220*%
%ADD20C,0.06600*%
%ADD21C,0.05200*%
%ADD22C,0.06000*%
%ADD23C,0.01600*%
%ADD24C,0.03000*%
%ADD25C,0.04000*%
D10*
X0001800Y0001800D02*
X0001800Y0234261D01*
X0195501Y0234261D01*
X0195501Y0001800D01*
X0001800Y0001800D01*
X0015579Y0021485D02*
X0015581Y0021638D01*
X0015587Y0021792D01*
X0015597Y0021945D01*
X0015611Y0022097D01*
X0015629Y0022250D01*
X0015651Y0022401D01*
X0015676Y0022552D01*
X0015706Y0022703D01*
X0015740Y0022853D01*
X0015777Y0023001D01*
X0015818Y0023149D01*
X0015863Y0023295D01*
X0015912Y0023441D01*
X0015965Y0023585D01*
X0016021Y0023727D01*
X0016081Y0023868D01*
X0016145Y0024008D01*
X0016212Y0024146D01*
X0016283Y0024282D01*
X0016358Y0024416D01*
X0016435Y0024548D01*
X0016517Y0024678D01*
X0016601Y0024806D01*
X0016689Y0024932D01*
X0016780Y0025055D01*
X0016874Y0025176D01*
X0016972Y0025294D01*
X0017072Y0025410D01*
X0017176Y0025523D01*
X0017282Y0025634D01*
X0017391Y0025742D01*
X0017503Y0025847D01*
X0017617Y0025948D01*
X0017735Y0026047D01*
X0017854Y0026143D01*
X0017976Y0026236D01*
X0018101Y0026325D01*
X0018228Y0026412D01*
X0018357Y0026494D01*
X0018488Y0026574D01*
X0018621Y0026650D01*
X0018756Y0026723D01*
X0018893Y0026792D01*
X0019032Y0026857D01*
X0019172Y0026919D01*
X0019314Y0026977D01*
X0019457Y0027032D01*
X0019602Y0027083D01*
X0019748Y0027130D01*
X0019895Y0027173D01*
X0020043Y0027212D01*
X0020192Y0027248D01*
X0020342Y0027279D01*
X0020493Y0027307D01*
X0020644Y0027331D01*
X0020797Y0027351D01*
X0020949Y0027367D01*
X0021102Y0027379D01*
X0021255Y0027387D01*
X0021408Y0027391D01*
X0021562Y0027391D01*
X0021715Y0027387D01*
X0021868Y0027379D01*
X0022021Y0027367D01*
X0022173Y0027351D01*
X0022326Y0027331D01*
X0022477Y0027307D01*
X0022628Y0027279D01*
X0022778Y0027248D01*
X0022927Y0027212D01*
X0023075Y0027173D01*
X0023222Y0027130D01*
X0023368Y0027083D01*
X0023513Y0027032D01*
X0023656Y0026977D01*
X0023798Y0026919D01*
X0023938Y0026857D01*
X0024077Y0026792D01*
X0024214Y0026723D01*
X0024349Y0026650D01*
X0024482Y0026574D01*
X0024613Y0026494D01*
X0024742Y0026412D01*
X0024869Y0026325D01*
X0024994Y0026236D01*
X0025116Y0026143D01*
X0025235Y0026047D01*
X0025353Y0025948D01*
X0025467Y0025847D01*
X0025579Y0025742D01*
X0025688Y0025634D01*
X0025794Y0025523D01*
X0025898Y0025410D01*
X0025998Y0025294D01*
X0026096Y0025176D01*
X0026190Y0025055D01*
X0026281Y0024932D01*
X0026369Y0024806D01*
X0026453Y0024678D01*
X0026535Y0024548D01*
X0026612Y0024416D01*
X0026687Y0024282D01*
X0026758Y0024146D01*
X0026825Y0024008D01*
X0026889Y0023868D01*
X0026949Y0023727D01*
X0027005Y0023585D01*
X0027058Y0023441D01*
X0027107Y0023295D01*
X0027152Y0023149D01*
X0027193Y0023001D01*
X0027230Y0022853D01*
X0027264Y0022703D01*
X0027294Y0022552D01*
X0027319Y0022401D01*
X0027341Y0022250D01*
X0027359Y0022097D01*
X0027373Y0021945D01*
X0027383Y0021792D01*
X0027389Y0021638D01*
X0027391Y0021485D01*
X0027389Y0021332D01*
X0027383Y0021178D01*
X0027373Y0021025D01*
X0027359Y0020873D01*
X0027341Y0020720D01*
X0027319Y0020569D01*
X0027294Y0020418D01*
X0027264Y0020267D01*
X0027230Y0020117D01*
X0027193Y0019969D01*
X0027152Y0019821D01*
X0027107Y0019675D01*
X0027058Y0019529D01*
X0027005Y0019385D01*
X0026949Y0019243D01*
X0026889Y0019102D01*
X0026825Y0018962D01*
X0026758Y0018824D01*
X0026687Y0018688D01*
X0026612Y0018554D01*
X0026535Y0018422D01*
X0026453Y0018292D01*
X0026369Y0018164D01*
X0026281Y0018038D01*
X0026190Y0017915D01*
X0026096Y0017794D01*
X0025998Y0017676D01*
X0025898Y0017560D01*
X0025794Y0017447D01*
X0025688Y0017336D01*
X0025579Y0017228D01*
X0025467Y0017123D01*
X0025353Y0017022D01*
X0025235Y0016923D01*
X0025116Y0016827D01*
X0024994Y0016734D01*
X0024869Y0016645D01*
X0024742Y0016558D01*
X0024613Y0016476D01*
X0024482Y0016396D01*
X0024349Y0016320D01*
X0024214Y0016247D01*
X0024077Y0016178D01*
X0023938Y0016113D01*
X0023798Y0016051D01*
X0023656Y0015993D01*
X0023513Y0015938D01*
X0023368Y0015887D01*
X0023222Y0015840D01*
X0023075Y0015797D01*
X0022927Y0015758D01*
X0022778Y0015722D01*
X0022628Y0015691D01*
X0022477Y0015663D01*
X0022326Y0015639D01*
X0022173Y0015619D01*
X0022021Y0015603D01*
X0021868Y0015591D01*
X0021715Y0015583D01*
X0021562Y0015579D01*
X0021408Y0015579D01*
X0021255Y0015583D01*
X0021102Y0015591D01*
X0020949Y0015603D01*
X0020797Y0015619D01*
X0020644Y0015639D01*
X0020493Y0015663D01*
X0020342Y0015691D01*
X0020192Y0015722D01*
X0020043Y0015758D01*
X0019895Y0015797D01*
X0019748Y0015840D01*
X0019602Y0015887D01*
X0019457Y0015938D01*
X0019314Y0015993D01*
X0019172Y0016051D01*
X0019032Y0016113D01*
X0018893Y0016178D01*
X0018756Y0016247D01*
X0018621Y0016320D01*
X0018488Y0016396D01*
X0018357Y0016476D01*
X0018228Y0016558D01*
X0018101Y0016645D01*
X0017976Y0016734D01*
X0017854Y0016827D01*
X0017735Y0016923D01*
X0017617Y0017022D01*
X0017503Y0017123D01*
X0017391Y0017228D01*
X0017282Y0017336D01*
X0017176Y0017447D01*
X0017072Y0017560D01*
X0016972Y0017676D01*
X0016874Y0017794D01*
X0016780Y0017915D01*
X0016689Y0018038D01*
X0016601Y0018164D01*
X0016517Y0018292D01*
X0016435Y0018422D01*
X0016358Y0018554D01*
X0016283Y0018688D01*
X0016212Y0018824D01*
X0016145Y0018962D01*
X0016081Y0019102D01*
X0016021Y0019243D01*
X0015965Y0019385D01*
X0015912Y0019529D01*
X0015863Y0019675D01*
X0015818Y0019821D01*
X0015777Y0019969D01*
X0015740Y0020117D01*
X0015706Y0020267D01*
X0015676Y0020418D01*
X0015651Y0020569D01*
X0015629Y0020720D01*
X0015611Y0020873D01*
X0015597Y0021025D01*
X0015587Y0021178D01*
X0015581Y0021332D01*
X0015579Y0021485D01*
X0072231Y0204300D02*
X0072233Y0204460D01*
X0072239Y0204619D01*
X0072249Y0204778D01*
X0072263Y0204937D01*
X0072281Y0205096D01*
X0072302Y0205254D01*
X0072328Y0205411D01*
X0072358Y0205568D01*
X0072391Y0205724D01*
X0072429Y0205879D01*
X0072470Y0206033D01*
X0072515Y0206186D01*
X0072564Y0206338D01*
X0072617Y0206489D01*
X0072673Y0206638D01*
X0072734Y0206786D01*
X0072797Y0206932D01*
X0072865Y0207077D01*
X0072936Y0207220D01*
X0073010Y0207361D01*
X0073088Y0207500D01*
X0073170Y0207637D01*
X0073255Y0207772D01*
X0073343Y0207905D01*
X0073435Y0208036D01*
X0073529Y0208164D01*
X0073627Y0208290D01*
X0073728Y0208414D01*
X0073832Y0208535D01*
X0073939Y0208653D01*
X0074049Y0208769D01*
X0074162Y0208882D01*
X0074278Y0208992D01*
X0074396Y0209099D01*
X0074517Y0209203D01*
X0074641Y0209304D01*
X0074767Y0209402D01*
X0074895Y0209496D01*
X0075026Y0209588D01*
X0075159Y0209676D01*
X0075294Y0209761D01*
X0075431Y0209843D01*
X0075570Y0209921D01*
X0075711Y0209995D01*
X0075854Y0210066D01*
X0075999Y0210134D01*
X0076145Y0210197D01*
X0076293Y0210258D01*
X0076442Y0210314D01*
X0076593Y0210367D01*
X0076745Y0210416D01*
X0076898Y0210461D01*
X0077052Y0210502D01*
X0077207Y0210540D01*
X0077363Y0210573D01*
X0077520Y0210603D01*
X0077677Y0210629D01*
X0077835Y0210650D01*
X0077994Y0210668D01*
X0078153Y0210682D01*
X0078312Y0210692D01*
X0078471Y0210698D01*
X0078631Y0210700D01*
X0078791Y0210698D01*
X0078950Y0210692D01*
X0079109Y0210682D01*
X0079268Y0210668D01*
X0079427Y0210650D01*
X0079585Y0210629D01*
X0079742Y0210603D01*
X0079899Y0210573D01*
X0080055Y0210540D01*
X0080210Y0210502D01*
X0080364Y0210461D01*
X0080517Y0210416D01*
X0080669Y0210367D01*
X0080820Y0210314D01*
X0080969Y0210258D01*
X0081117Y0210197D01*
X0081263Y0210134D01*
X0081408Y0210066D01*
X0081551Y0209995D01*
X0081692Y0209921D01*
X0081831Y0209843D01*
X0081968Y0209761D01*
X0082103Y0209676D01*
X0082236Y0209588D01*
X0082367Y0209496D01*
X0082495Y0209402D01*
X0082621Y0209304D01*
X0082745Y0209203D01*
X0082866Y0209099D01*
X0082984Y0208992D01*
X0083100Y0208882D01*
X0083213Y0208769D01*
X0083323Y0208653D01*
X0083430Y0208535D01*
X0083534Y0208414D01*
X0083635Y0208290D01*
X0083733Y0208164D01*
X0083827Y0208036D01*
X0083919Y0207905D01*
X0084007Y0207772D01*
X0084092Y0207637D01*
X0084174Y0207500D01*
X0084252Y0207361D01*
X0084326Y0207220D01*
X0084397Y0207077D01*
X0084465Y0206932D01*
X0084528Y0206786D01*
X0084589Y0206638D01*
X0084645Y0206489D01*
X0084698Y0206338D01*
X0084747Y0206186D01*
X0084792Y0206033D01*
X0084833Y0205879D01*
X0084871Y0205724D01*
X0084904Y0205568D01*
X0084934Y0205411D01*
X0084960Y0205254D01*
X0084981Y0205096D01*
X0084999Y0204937D01*
X0085013Y0204778D01*
X0085023Y0204619D01*
X0085029Y0204460D01*
X0085031Y0204300D01*
X0085029Y0204140D01*
X0085023Y0203981D01*
X0085013Y0203822D01*
X0084999Y0203663D01*
X0084981Y0203504D01*
X0084960Y0203346D01*
X0084934Y0203189D01*
X0084904Y0203032D01*
X0084871Y0202876D01*
X0084833Y0202721D01*
X0084792Y0202567D01*
X0084747Y0202414D01*
X0084698Y0202262D01*
X0084645Y0202111D01*
X0084589Y0201962D01*
X0084528Y0201814D01*
X0084465Y0201668D01*
X0084397Y0201523D01*
X0084326Y0201380D01*
X0084252Y0201239D01*
X0084174Y0201100D01*
X0084092Y0200963D01*
X0084007Y0200828D01*
X0083919Y0200695D01*
X0083827Y0200564D01*
X0083733Y0200436D01*
X0083635Y0200310D01*
X0083534Y0200186D01*
X0083430Y0200065D01*
X0083323Y0199947D01*
X0083213Y0199831D01*
X0083100Y0199718D01*
X0082984Y0199608D01*
X0082866Y0199501D01*
X0082745Y0199397D01*
X0082621Y0199296D01*
X0082495Y0199198D01*
X0082367Y0199104D01*
X0082236Y0199012D01*
X0082103Y0198924D01*
X0081968Y0198839D01*
X0081831Y0198757D01*
X0081692Y0198679D01*
X0081551Y0198605D01*
X0081408Y0198534D01*
X0081263Y0198466D01*
X0081117Y0198403D01*
X0080969Y0198342D01*
X0080820Y0198286D01*
X0080669Y0198233D01*
X0080517Y0198184D01*
X0080364Y0198139D01*
X0080210Y0198098D01*
X0080055Y0198060D01*
X0079899Y0198027D01*
X0079742Y0197997D01*
X0079585Y0197971D01*
X0079427Y0197950D01*
X0079268Y0197932D01*
X0079109Y0197918D01*
X0078950Y0197908D01*
X0078791Y0197902D01*
X0078631Y0197900D01*
X0078471Y0197902D01*
X0078312Y0197908D01*
X0078153Y0197918D01*
X0077994Y0197932D01*
X0077835Y0197950D01*
X0077677Y0197971D01*
X0077520Y0197997D01*
X0077363Y0198027D01*
X0077207Y0198060D01*
X0077052Y0198098D01*
X0076898Y0198139D01*
X0076745Y0198184D01*
X0076593Y0198233D01*
X0076442Y0198286D01*
X0076293Y0198342D01*
X0076145Y0198403D01*
X0075999Y0198466D01*
X0075854Y0198534D01*
X0075711Y0198605D01*
X0075570Y0198679D01*
X0075431Y0198757D01*
X0075294Y0198839D01*
X0075159Y0198924D01*
X0075026Y0199012D01*
X0074895Y0199104D01*
X0074767Y0199198D01*
X0074641Y0199296D01*
X0074517Y0199397D01*
X0074396Y0199501D01*
X0074278Y0199608D01*
X0074162Y0199718D01*
X0074049Y0199831D01*
X0073939Y0199947D01*
X0073832Y0200065D01*
X0073728Y0200186D01*
X0073627Y0200310D01*
X0073529Y0200436D01*
X0073435Y0200564D01*
X0073343Y0200695D01*
X0073255Y0200828D01*
X0073170Y0200963D01*
X0073088Y0201100D01*
X0073010Y0201239D01*
X0072936Y0201380D01*
X0072865Y0201523D01*
X0072797Y0201668D01*
X0072734Y0201814D01*
X0072673Y0201962D01*
X0072617Y0202111D01*
X0072564Y0202262D01*
X0072515Y0202414D01*
X0072470Y0202567D01*
X0072429Y0202721D01*
X0072391Y0202876D01*
X0072358Y0203032D01*
X0072328Y0203189D01*
X0072302Y0203346D01*
X0072281Y0203504D01*
X0072263Y0203663D01*
X0072249Y0203822D01*
X0072239Y0203981D01*
X0072233Y0204140D01*
X0072231Y0204300D01*
X0112231Y0204300D02*
X0112233Y0204460D01*
X0112239Y0204619D01*
X0112249Y0204778D01*
X0112263Y0204937D01*
X0112281Y0205096D01*
X0112302Y0205254D01*
X0112328Y0205411D01*
X0112358Y0205568D01*
X0112391Y0205724D01*
X0112429Y0205879D01*
X0112470Y0206033D01*
X0112515Y0206186D01*
X0112564Y0206338D01*
X0112617Y0206489D01*
X0112673Y0206638D01*
X0112734Y0206786D01*
X0112797Y0206932D01*
X0112865Y0207077D01*
X0112936Y0207220D01*
X0113010Y0207361D01*
X0113088Y0207500D01*
X0113170Y0207637D01*
X0113255Y0207772D01*
X0113343Y0207905D01*
X0113435Y0208036D01*
X0113529Y0208164D01*
X0113627Y0208290D01*
X0113728Y0208414D01*
X0113832Y0208535D01*
X0113939Y0208653D01*
X0114049Y0208769D01*
X0114162Y0208882D01*
X0114278Y0208992D01*
X0114396Y0209099D01*
X0114517Y0209203D01*
X0114641Y0209304D01*
X0114767Y0209402D01*
X0114895Y0209496D01*
X0115026Y0209588D01*
X0115159Y0209676D01*
X0115294Y0209761D01*
X0115431Y0209843D01*
X0115570Y0209921D01*
X0115711Y0209995D01*
X0115854Y0210066D01*
X0115999Y0210134D01*
X0116145Y0210197D01*
X0116293Y0210258D01*
X0116442Y0210314D01*
X0116593Y0210367D01*
X0116745Y0210416D01*
X0116898Y0210461D01*
X0117052Y0210502D01*
X0117207Y0210540D01*
X0117363Y0210573D01*
X0117520Y0210603D01*
X0117677Y0210629D01*
X0117835Y0210650D01*
X0117994Y0210668D01*
X0118153Y0210682D01*
X0118312Y0210692D01*
X0118471Y0210698D01*
X0118631Y0210700D01*
X0118791Y0210698D01*
X0118950Y0210692D01*
X0119109Y0210682D01*
X0119268Y0210668D01*
X0119427Y0210650D01*
X0119585Y0210629D01*
X0119742Y0210603D01*
X0119899Y0210573D01*
X0120055Y0210540D01*
X0120210Y0210502D01*
X0120364Y0210461D01*
X0120517Y0210416D01*
X0120669Y0210367D01*
X0120820Y0210314D01*
X0120969Y0210258D01*
X0121117Y0210197D01*
X0121263Y0210134D01*
X0121408Y0210066D01*
X0121551Y0209995D01*
X0121692Y0209921D01*
X0121831Y0209843D01*
X0121968Y0209761D01*
X0122103Y0209676D01*
X0122236Y0209588D01*
X0122367Y0209496D01*
X0122495Y0209402D01*
X0122621Y0209304D01*
X0122745Y0209203D01*
X0122866Y0209099D01*
X0122984Y0208992D01*
X0123100Y0208882D01*
X0123213Y0208769D01*
X0123323Y0208653D01*
X0123430Y0208535D01*
X0123534Y0208414D01*
X0123635Y0208290D01*
X0123733Y0208164D01*
X0123827Y0208036D01*
X0123919Y0207905D01*
X0124007Y0207772D01*
X0124092Y0207637D01*
X0124174Y0207500D01*
X0124252Y0207361D01*
X0124326Y0207220D01*
X0124397Y0207077D01*
X0124465Y0206932D01*
X0124528Y0206786D01*
X0124589Y0206638D01*
X0124645Y0206489D01*
X0124698Y0206338D01*
X0124747Y0206186D01*
X0124792Y0206033D01*
X0124833Y0205879D01*
X0124871Y0205724D01*
X0124904Y0205568D01*
X0124934Y0205411D01*
X0124960Y0205254D01*
X0124981Y0205096D01*
X0124999Y0204937D01*
X0125013Y0204778D01*
X0125023Y0204619D01*
X0125029Y0204460D01*
X0125031Y0204300D01*
X0125029Y0204140D01*
X0125023Y0203981D01*
X0125013Y0203822D01*
X0124999Y0203663D01*
X0124981Y0203504D01*
X0124960Y0203346D01*
X0124934Y0203189D01*
X0124904Y0203032D01*
X0124871Y0202876D01*
X0124833Y0202721D01*
X0124792Y0202567D01*
X0124747Y0202414D01*
X0124698Y0202262D01*
X0124645Y0202111D01*
X0124589Y0201962D01*
X0124528Y0201814D01*
X0124465Y0201668D01*
X0124397Y0201523D01*
X0124326Y0201380D01*
X0124252Y0201239D01*
X0124174Y0201100D01*
X0124092Y0200963D01*
X0124007Y0200828D01*
X0123919Y0200695D01*
X0123827Y0200564D01*
X0123733Y0200436D01*
X0123635Y0200310D01*
X0123534Y0200186D01*
X0123430Y0200065D01*
X0123323Y0199947D01*
X0123213Y0199831D01*
X0123100Y0199718D01*
X0122984Y0199608D01*
X0122866Y0199501D01*
X0122745Y0199397D01*
X0122621Y0199296D01*
X0122495Y0199198D01*
X0122367Y0199104D01*
X0122236Y0199012D01*
X0122103Y0198924D01*
X0121968Y0198839D01*
X0121831Y0198757D01*
X0121692Y0198679D01*
X0121551Y0198605D01*
X0121408Y0198534D01*
X0121263Y0198466D01*
X0121117Y0198403D01*
X0120969Y0198342D01*
X0120820Y0198286D01*
X0120669Y0198233D01*
X0120517Y0198184D01*
X0120364Y0198139D01*
X0120210Y0198098D01*
X0120055Y0198060D01*
X0119899Y0198027D01*
X0119742Y0197997D01*
X0119585Y0197971D01*
X0119427Y0197950D01*
X0119268Y0197932D01*
X0119109Y0197918D01*
X0118950Y0197908D01*
X0118791Y0197902D01*
X0118631Y0197900D01*
X0118471Y0197902D01*
X0118312Y0197908D01*
X0118153Y0197918D01*
X0117994Y0197932D01*
X0117835Y0197950D01*
X0117677Y0197971D01*
X0117520Y0197997D01*
X0117363Y0198027D01*
X0117207Y0198060D01*
X0117052Y0198098D01*
X0116898Y0198139D01*
X0116745Y0198184D01*
X0116593Y0198233D01*
X0116442Y0198286D01*
X0116293Y0198342D01*
X0116145Y0198403D01*
X0115999Y0198466D01*
X0115854Y0198534D01*
X0115711Y0198605D01*
X0115570Y0198679D01*
X0115431Y0198757D01*
X0115294Y0198839D01*
X0115159Y0198924D01*
X0115026Y0199012D01*
X0114895Y0199104D01*
X0114767Y0199198D01*
X0114641Y0199296D01*
X0114517Y0199397D01*
X0114396Y0199501D01*
X0114278Y0199608D01*
X0114162Y0199718D01*
X0114049Y0199831D01*
X0113939Y0199947D01*
X0113832Y0200065D01*
X0113728Y0200186D01*
X0113627Y0200310D01*
X0113529Y0200436D01*
X0113435Y0200564D01*
X0113343Y0200695D01*
X0113255Y0200828D01*
X0113170Y0200963D01*
X0113088Y0201100D01*
X0113010Y0201239D01*
X0112936Y0201380D01*
X0112865Y0201523D01*
X0112797Y0201668D01*
X0112734Y0201814D01*
X0112673Y0201962D01*
X0112617Y0202111D01*
X0112564Y0202262D01*
X0112515Y0202414D01*
X0112470Y0202567D01*
X0112429Y0202721D01*
X0112391Y0202876D01*
X0112358Y0203032D01*
X0112328Y0203189D01*
X0112302Y0203346D01*
X0112281Y0203504D01*
X0112263Y0203663D01*
X0112249Y0203822D01*
X0112239Y0203981D01*
X0112233Y0204140D01*
X0112231Y0204300D01*
X0173059Y0218335D02*
X0173061Y0218488D01*
X0173067Y0218642D01*
X0173077Y0218795D01*
X0173091Y0218947D01*
X0173109Y0219100D01*
X0173131Y0219251D01*
X0173156Y0219402D01*
X0173186Y0219553D01*
X0173220Y0219703D01*
X0173257Y0219851D01*
X0173298Y0219999D01*
X0173343Y0220145D01*
X0173392Y0220291D01*
X0173445Y0220435D01*
X0173501Y0220577D01*
X0173561Y0220718D01*
X0173625Y0220858D01*
X0173692Y0220996D01*
X0173763Y0221132D01*
X0173838Y0221266D01*
X0173915Y0221398D01*
X0173997Y0221528D01*
X0174081Y0221656D01*
X0174169Y0221782D01*
X0174260Y0221905D01*
X0174354Y0222026D01*
X0174452Y0222144D01*
X0174552Y0222260D01*
X0174656Y0222373D01*
X0174762Y0222484D01*
X0174871Y0222592D01*
X0174983Y0222697D01*
X0175097Y0222798D01*
X0175215Y0222897D01*
X0175334Y0222993D01*
X0175456Y0223086D01*
X0175581Y0223175D01*
X0175708Y0223262D01*
X0175837Y0223344D01*
X0175968Y0223424D01*
X0176101Y0223500D01*
X0176236Y0223573D01*
X0176373Y0223642D01*
X0176512Y0223707D01*
X0176652Y0223769D01*
X0176794Y0223827D01*
X0176937Y0223882D01*
X0177082Y0223933D01*
X0177228Y0223980D01*
X0177375Y0224023D01*
X0177523Y0224062D01*
X0177672Y0224098D01*
X0177822Y0224129D01*
X0177973Y0224157D01*
X0178124Y0224181D01*
X0178277Y0224201D01*
X0178429Y0224217D01*
X0178582Y0224229D01*
X0178735Y0224237D01*
X0178888Y0224241D01*
X0179042Y0224241D01*
X0179195Y0224237D01*
X0179348Y0224229D01*
X0179501Y0224217D01*
X0179653Y0224201D01*
X0179806Y0224181D01*
X0179957Y0224157D01*
X0180108Y0224129D01*
X0180258Y0224098D01*
X0180407Y0224062D01*
X0180555Y0224023D01*
X0180702Y0223980D01*
X0180848Y0223933D01*
X0180993Y0223882D01*
X0181136Y0223827D01*
X0181278Y0223769D01*
X0181418Y0223707D01*
X0181557Y0223642D01*
X0181694Y0223573D01*
X0181829Y0223500D01*
X0181962Y0223424D01*
X0182093Y0223344D01*
X0182222Y0223262D01*
X0182349Y0223175D01*
X0182474Y0223086D01*
X0182596Y0222993D01*
X0182715Y0222897D01*
X0182833Y0222798D01*
X0182947Y0222697D01*
X0183059Y0222592D01*
X0183168Y0222484D01*
X0183274Y0222373D01*
X0183378Y0222260D01*
X0183478Y0222144D01*
X0183576Y0222026D01*
X0183670Y0221905D01*
X0183761Y0221782D01*
X0183849Y0221656D01*
X0183933Y0221528D01*
X0184015Y0221398D01*
X0184092Y0221266D01*
X0184167Y0221132D01*
X0184238Y0220996D01*
X0184305Y0220858D01*
X0184369Y0220718D01*
X0184429Y0220577D01*
X0184485Y0220435D01*
X0184538Y0220291D01*
X0184587Y0220145D01*
X0184632Y0219999D01*
X0184673Y0219851D01*
X0184710Y0219703D01*
X0184744Y0219553D01*
X0184774Y0219402D01*
X0184799Y0219251D01*
X0184821Y0219100D01*
X0184839Y0218947D01*
X0184853Y0218795D01*
X0184863Y0218642D01*
X0184869Y0218488D01*
X0184871Y0218335D01*
X0184869Y0218182D01*
X0184863Y0218028D01*
X0184853Y0217875D01*
X0184839Y0217723D01*
X0184821Y0217570D01*
X0184799Y0217419D01*
X0184774Y0217268D01*
X0184744Y0217117D01*
X0184710Y0216967D01*
X0184673Y0216819D01*
X0184632Y0216671D01*
X0184587Y0216525D01*
X0184538Y0216379D01*
X0184485Y0216235D01*
X0184429Y0216093D01*
X0184369Y0215952D01*
X0184305Y0215812D01*
X0184238Y0215674D01*
X0184167Y0215538D01*
X0184092Y0215404D01*
X0184015Y0215272D01*
X0183933Y0215142D01*
X0183849Y0215014D01*
X0183761Y0214888D01*
X0183670Y0214765D01*
X0183576Y0214644D01*
X0183478Y0214526D01*
X0183378Y0214410D01*
X0183274Y0214297D01*
X0183168Y0214186D01*
X0183059Y0214078D01*
X0182947Y0213973D01*
X0182833Y0213872D01*
X0182715Y0213773D01*
X0182596Y0213677D01*
X0182474Y0213584D01*
X0182349Y0213495D01*
X0182222Y0213408D01*
X0182093Y0213326D01*
X0181962Y0213246D01*
X0181829Y0213170D01*
X0181694Y0213097D01*
X0181557Y0213028D01*
X0181418Y0212963D01*
X0181278Y0212901D01*
X0181136Y0212843D01*
X0180993Y0212788D01*
X0180848Y0212737D01*
X0180702Y0212690D01*
X0180555Y0212647D01*
X0180407Y0212608D01*
X0180258Y0212572D01*
X0180108Y0212541D01*
X0179957Y0212513D01*
X0179806Y0212489D01*
X0179653Y0212469D01*
X0179501Y0212453D01*
X0179348Y0212441D01*
X0179195Y0212433D01*
X0179042Y0212429D01*
X0178888Y0212429D01*
X0178735Y0212433D01*
X0178582Y0212441D01*
X0178429Y0212453D01*
X0178277Y0212469D01*
X0178124Y0212489D01*
X0177973Y0212513D01*
X0177822Y0212541D01*
X0177672Y0212572D01*
X0177523Y0212608D01*
X0177375Y0212647D01*
X0177228Y0212690D01*
X0177082Y0212737D01*
X0176937Y0212788D01*
X0176794Y0212843D01*
X0176652Y0212901D01*
X0176512Y0212963D01*
X0176373Y0213028D01*
X0176236Y0213097D01*
X0176101Y0213170D01*
X0175968Y0213246D01*
X0175837Y0213326D01*
X0175708Y0213408D01*
X0175581Y0213495D01*
X0175456Y0213584D01*
X0175334Y0213677D01*
X0175215Y0213773D01*
X0175097Y0213872D01*
X0174983Y0213973D01*
X0174871Y0214078D01*
X0174762Y0214186D01*
X0174656Y0214297D01*
X0174552Y0214410D01*
X0174452Y0214526D01*
X0174354Y0214644D01*
X0174260Y0214765D01*
X0174169Y0214888D01*
X0174081Y0215014D01*
X0173997Y0215142D01*
X0173915Y0215272D01*
X0173838Y0215404D01*
X0173763Y0215538D01*
X0173692Y0215674D01*
X0173625Y0215812D01*
X0173561Y0215952D01*
X0173501Y0216093D01*
X0173445Y0216235D01*
X0173392Y0216379D01*
X0173343Y0216525D01*
X0173298Y0216671D01*
X0173257Y0216819D01*
X0173220Y0216967D01*
X0173186Y0217117D01*
X0173156Y0217268D01*
X0173131Y0217419D01*
X0173109Y0217570D01*
X0173091Y0217723D01*
X0173077Y0217875D01*
X0173067Y0218028D01*
X0173061Y0218182D01*
X0173059Y0218335D01*
X0015579Y0218335D02*
X0015581Y0218488D01*
X0015587Y0218642D01*
X0015597Y0218795D01*
X0015611Y0218947D01*
X0015629Y0219100D01*
X0015651Y0219251D01*
X0015676Y0219402D01*
X0015706Y0219553D01*
X0015740Y0219703D01*
X0015777Y0219851D01*
X0015818Y0219999D01*
X0015863Y0220145D01*
X0015912Y0220291D01*
X0015965Y0220435D01*
X0016021Y0220577D01*
X0016081Y0220718D01*
X0016145Y0220858D01*
X0016212Y0220996D01*
X0016283Y0221132D01*
X0016358Y0221266D01*
X0016435Y0221398D01*
X0016517Y0221528D01*
X0016601Y0221656D01*
X0016689Y0221782D01*
X0016780Y0221905D01*
X0016874Y0222026D01*
X0016972Y0222144D01*
X0017072Y0222260D01*
X0017176Y0222373D01*
X0017282Y0222484D01*
X0017391Y0222592D01*
X0017503Y0222697D01*
X0017617Y0222798D01*
X0017735Y0222897D01*
X0017854Y0222993D01*
X0017976Y0223086D01*
X0018101Y0223175D01*
X0018228Y0223262D01*
X0018357Y0223344D01*
X0018488Y0223424D01*
X0018621Y0223500D01*
X0018756Y0223573D01*
X0018893Y0223642D01*
X0019032Y0223707D01*
X0019172Y0223769D01*
X0019314Y0223827D01*
X0019457Y0223882D01*
X0019602Y0223933D01*
X0019748Y0223980D01*
X0019895Y0224023D01*
X0020043Y0224062D01*
X0020192Y0224098D01*
X0020342Y0224129D01*
X0020493Y0224157D01*
X0020644Y0224181D01*
X0020797Y0224201D01*
X0020949Y0224217D01*
X0021102Y0224229D01*
X0021255Y0224237D01*
X0021408Y0224241D01*
X0021562Y0224241D01*
X0021715Y0224237D01*
X0021868Y0224229D01*
X0022021Y0224217D01*
X0022173Y0224201D01*
X0022326Y0224181D01*
X0022477Y0224157D01*
X0022628Y0224129D01*
X0022778Y0224098D01*
X0022927Y0224062D01*
X0023075Y0224023D01*
X0023222Y0223980D01*
X0023368Y0223933D01*
X0023513Y0223882D01*
X0023656Y0223827D01*
X0023798Y0223769D01*
X0023938Y0223707D01*
X0024077Y0223642D01*
X0024214Y0223573D01*
X0024349Y0223500D01*
X0024482Y0223424D01*
X0024613Y0223344D01*
X0024742Y0223262D01*
X0024869Y0223175D01*
X0024994Y0223086D01*
X0025116Y0222993D01*
X0025235Y0222897D01*
X0025353Y0222798D01*
X0025467Y0222697D01*
X0025579Y0222592D01*
X0025688Y0222484D01*
X0025794Y0222373D01*
X0025898Y0222260D01*
X0025998Y0222144D01*
X0026096Y0222026D01*
X0026190Y0221905D01*
X0026281Y0221782D01*
X0026369Y0221656D01*
X0026453Y0221528D01*
X0026535Y0221398D01*
X0026612Y0221266D01*
X0026687Y0221132D01*
X0026758Y0220996D01*
X0026825Y0220858D01*
X0026889Y0220718D01*
X0026949Y0220577D01*
X0027005Y0220435D01*
X0027058Y0220291D01*
X0027107Y0220145D01*
X0027152Y0219999D01*
X0027193Y0219851D01*
X0027230Y0219703D01*
X0027264Y0219553D01*
X0027294Y0219402D01*
X0027319Y0219251D01*
X0027341Y0219100D01*
X0027359Y0218947D01*
X0027373Y0218795D01*
X0027383Y0218642D01*
X0027389Y0218488D01*
X0027391Y0218335D01*
X0027389Y0218182D01*
X0027383Y0218028D01*
X0027373Y0217875D01*
X0027359Y0217723D01*
X0027341Y0217570D01*
X0027319Y0217419D01*
X0027294Y0217268D01*
X0027264Y0217117D01*
X0027230Y0216967D01*
X0027193Y0216819D01*
X0027152Y0216671D01*
X0027107Y0216525D01*
X0027058Y0216379D01*
X0027005Y0216235D01*
X0026949Y0216093D01*
X0026889Y0215952D01*
X0026825Y0215812D01*
X0026758Y0215674D01*
X0026687Y0215538D01*
X0026612Y0215404D01*
X0026535Y0215272D01*
X0026453Y0215142D01*
X0026369Y0215014D01*
X0026281Y0214888D01*
X0026190Y0214765D01*
X0026096Y0214644D01*
X0025998Y0214526D01*
X0025898Y0214410D01*
X0025794Y0214297D01*
X0025688Y0214186D01*
X0025579Y0214078D01*
X0025467Y0213973D01*
X0025353Y0213872D01*
X0025235Y0213773D01*
X0025116Y0213677D01*
X0024994Y0213584D01*
X0024869Y0213495D01*
X0024742Y0213408D01*
X0024613Y0213326D01*
X0024482Y0213246D01*
X0024349Y0213170D01*
X0024214Y0213097D01*
X0024077Y0213028D01*
X0023938Y0212963D01*
X0023798Y0212901D01*
X0023656Y0212843D01*
X0023513Y0212788D01*
X0023368Y0212737D01*
X0023222Y0212690D01*
X0023075Y0212647D01*
X0022927Y0212608D01*
X0022778Y0212572D01*
X0022628Y0212541D01*
X0022477Y0212513D01*
X0022326Y0212489D01*
X0022173Y0212469D01*
X0022021Y0212453D01*
X0021868Y0212441D01*
X0021715Y0212433D01*
X0021562Y0212429D01*
X0021408Y0212429D01*
X0021255Y0212433D01*
X0021102Y0212441D01*
X0020949Y0212453D01*
X0020797Y0212469D01*
X0020644Y0212489D01*
X0020493Y0212513D01*
X0020342Y0212541D01*
X0020192Y0212572D01*
X0020043Y0212608D01*
X0019895Y0212647D01*
X0019748Y0212690D01*
X0019602Y0212737D01*
X0019457Y0212788D01*
X0019314Y0212843D01*
X0019172Y0212901D01*
X0019032Y0212963D01*
X0018893Y0213028D01*
X0018756Y0213097D01*
X0018621Y0213170D01*
X0018488Y0213246D01*
X0018357Y0213326D01*
X0018228Y0213408D01*
X0018101Y0213495D01*
X0017976Y0213584D01*
X0017854Y0213677D01*
X0017735Y0213773D01*
X0017617Y0213872D01*
X0017503Y0213973D01*
X0017391Y0214078D01*
X0017282Y0214186D01*
X0017176Y0214297D01*
X0017072Y0214410D01*
X0016972Y0214526D01*
X0016874Y0214644D01*
X0016780Y0214765D01*
X0016689Y0214888D01*
X0016601Y0215014D01*
X0016517Y0215142D01*
X0016435Y0215272D01*
X0016358Y0215404D01*
X0016283Y0215538D01*
X0016212Y0215674D01*
X0016145Y0215812D01*
X0016081Y0215952D01*
X0016021Y0216093D01*
X0015965Y0216235D01*
X0015912Y0216379D01*
X0015863Y0216525D01*
X0015818Y0216671D01*
X0015777Y0216819D01*
X0015740Y0216967D01*
X0015706Y0217117D01*
X0015676Y0217268D01*
X0015651Y0217419D01*
X0015629Y0217570D01*
X0015611Y0217723D01*
X0015597Y0217875D01*
X0015587Y0218028D01*
X0015581Y0218182D01*
X0015579Y0218335D01*
X0173059Y0021485D02*
X0173061Y0021638D01*
X0173067Y0021792D01*
X0173077Y0021945D01*
X0173091Y0022097D01*
X0173109Y0022250D01*
X0173131Y0022401D01*
X0173156Y0022552D01*
X0173186Y0022703D01*
X0173220Y0022853D01*
X0173257Y0023001D01*
X0173298Y0023149D01*
X0173343Y0023295D01*
X0173392Y0023441D01*
X0173445Y0023585D01*
X0173501Y0023727D01*
X0173561Y0023868D01*
X0173625Y0024008D01*
X0173692Y0024146D01*
X0173763Y0024282D01*
X0173838Y0024416D01*
X0173915Y0024548D01*
X0173997Y0024678D01*
X0174081Y0024806D01*
X0174169Y0024932D01*
X0174260Y0025055D01*
X0174354Y0025176D01*
X0174452Y0025294D01*
X0174552Y0025410D01*
X0174656Y0025523D01*
X0174762Y0025634D01*
X0174871Y0025742D01*
X0174983Y0025847D01*
X0175097Y0025948D01*
X0175215Y0026047D01*
X0175334Y0026143D01*
X0175456Y0026236D01*
X0175581Y0026325D01*
X0175708Y0026412D01*
X0175837Y0026494D01*
X0175968Y0026574D01*
X0176101Y0026650D01*
X0176236Y0026723D01*
X0176373Y0026792D01*
X0176512Y0026857D01*
X0176652Y0026919D01*
X0176794Y0026977D01*
X0176937Y0027032D01*
X0177082Y0027083D01*
X0177228Y0027130D01*
X0177375Y0027173D01*
X0177523Y0027212D01*
X0177672Y0027248D01*
X0177822Y0027279D01*
X0177973Y0027307D01*
X0178124Y0027331D01*
X0178277Y0027351D01*
X0178429Y0027367D01*
X0178582Y0027379D01*
X0178735Y0027387D01*
X0178888Y0027391D01*
X0179042Y0027391D01*
X0179195Y0027387D01*
X0179348Y0027379D01*
X0179501Y0027367D01*
X0179653Y0027351D01*
X0179806Y0027331D01*
X0179957Y0027307D01*
X0180108Y0027279D01*
X0180258Y0027248D01*
X0180407Y0027212D01*
X0180555Y0027173D01*
X0180702Y0027130D01*
X0180848Y0027083D01*
X0180993Y0027032D01*
X0181136Y0026977D01*
X0181278Y0026919D01*
X0181418Y0026857D01*
X0181557Y0026792D01*
X0181694Y0026723D01*
X0181829Y0026650D01*
X0181962Y0026574D01*
X0182093Y0026494D01*
X0182222Y0026412D01*
X0182349Y0026325D01*
X0182474Y0026236D01*
X0182596Y0026143D01*
X0182715Y0026047D01*
X0182833Y0025948D01*
X0182947Y0025847D01*
X0183059Y0025742D01*
X0183168Y0025634D01*
X0183274Y0025523D01*
X0183378Y0025410D01*
X0183478Y0025294D01*
X0183576Y0025176D01*
X0183670Y0025055D01*
X0183761Y0024932D01*
X0183849Y0024806D01*
X0183933Y0024678D01*
X0184015Y0024548D01*
X0184092Y0024416D01*
X0184167Y0024282D01*
X0184238Y0024146D01*
X0184305Y0024008D01*
X0184369Y0023868D01*
X0184429Y0023727D01*
X0184485Y0023585D01*
X0184538Y0023441D01*
X0184587Y0023295D01*
X0184632Y0023149D01*
X0184673Y0023001D01*
X0184710Y0022853D01*
X0184744Y0022703D01*
X0184774Y0022552D01*
X0184799Y0022401D01*
X0184821Y0022250D01*
X0184839Y0022097D01*
X0184853Y0021945D01*
X0184863Y0021792D01*
X0184869Y0021638D01*
X0184871Y0021485D01*
X0184869Y0021332D01*
X0184863Y0021178D01*
X0184853Y0021025D01*
X0184839Y0020873D01*
X0184821Y0020720D01*
X0184799Y0020569D01*
X0184774Y0020418D01*
X0184744Y0020267D01*
X0184710Y0020117D01*
X0184673Y0019969D01*
X0184632Y0019821D01*
X0184587Y0019675D01*
X0184538Y0019529D01*
X0184485Y0019385D01*
X0184429Y0019243D01*
X0184369Y0019102D01*
X0184305Y0018962D01*
X0184238Y0018824D01*
X0184167Y0018688D01*
X0184092Y0018554D01*
X0184015Y0018422D01*
X0183933Y0018292D01*
X0183849Y0018164D01*
X0183761Y0018038D01*
X0183670Y0017915D01*
X0183576Y0017794D01*
X0183478Y0017676D01*
X0183378Y0017560D01*
X0183274Y0017447D01*
X0183168Y0017336D01*
X0183059Y0017228D01*
X0182947Y0017123D01*
X0182833Y0017022D01*
X0182715Y0016923D01*
X0182596Y0016827D01*
X0182474Y0016734D01*
X0182349Y0016645D01*
X0182222Y0016558D01*
X0182093Y0016476D01*
X0181962Y0016396D01*
X0181829Y0016320D01*
X0181694Y0016247D01*
X0181557Y0016178D01*
X0181418Y0016113D01*
X0181278Y0016051D01*
X0181136Y0015993D01*
X0180993Y0015938D01*
X0180848Y0015887D01*
X0180702Y0015840D01*
X0180555Y0015797D01*
X0180407Y0015758D01*
X0180258Y0015722D01*
X0180108Y0015691D01*
X0179957Y0015663D01*
X0179806Y0015639D01*
X0179653Y0015619D01*
X0179501Y0015603D01*
X0179348Y0015591D01*
X0179195Y0015583D01*
X0179042Y0015579D01*
X0178888Y0015579D01*
X0178735Y0015583D01*
X0178582Y0015591D01*
X0178429Y0015603D01*
X0178277Y0015619D01*
X0178124Y0015639D01*
X0177973Y0015663D01*
X0177822Y0015691D01*
X0177672Y0015722D01*
X0177523Y0015758D01*
X0177375Y0015797D01*
X0177228Y0015840D01*
X0177082Y0015887D01*
X0176937Y0015938D01*
X0176794Y0015993D01*
X0176652Y0016051D01*
X0176512Y0016113D01*
X0176373Y0016178D01*
X0176236Y0016247D01*
X0176101Y0016320D01*
X0175968Y0016396D01*
X0175837Y0016476D01*
X0175708Y0016558D01*
X0175581Y0016645D01*
X0175456Y0016734D01*
X0175334Y0016827D01*
X0175215Y0016923D01*
X0175097Y0017022D01*
X0174983Y0017123D01*
X0174871Y0017228D01*
X0174762Y0017336D01*
X0174656Y0017447D01*
X0174552Y0017560D01*
X0174452Y0017676D01*
X0174354Y0017794D01*
X0174260Y0017915D01*
X0174169Y0018038D01*
X0174081Y0018164D01*
X0173997Y0018292D01*
X0173915Y0018422D01*
X0173838Y0018554D01*
X0173763Y0018688D01*
X0173692Y0018824D01*
X0173625Y0018962D01*
X0173561Y0019102D01*
X0173501Y0019243D01*
X0173445Y0019385D01*
X0173392Y0019529D01*
X0173343Y0019675D01*
X0173298Y0019821D01*
X0173257Y0019969D01*
X0173220Y0020117D01*
X0173186Y0020267D01*
X0173156Y0020418D01*
X0173131Y0020569D01*
X0173109Y0020720D01*
X0173091Y0020873D01*
X0173077Y0021025D01*
X0173067Y0021178D01*
X0173061Y0021332D01*
X0173059Y0021485D01*
D11*
X0016800Y0181800D03*
D12*
X0016800Y0168020D03*
D13*
X0181800Y0156800D03*
D14*
X0181800Y0170580D03*
X0181800Y0184359D03*
D15*
X0129300Y0116800D03*
X0119300Y0131800D03*
X0109300Y0116800D03*
X0099300Y0131800D03*
X0089300Y0116800D03*
X0079300Y0131800D03*
X0079300Y0091800D03*
X0089300Y0076800D03*
X0099300Y0091800D03*
X0109300Y0076800D03*
X0119300Y0091800D03*
X0129300Y0076800D03*
X0121800Y0039300D03*
X0081800Y0039300D03*
X0026800Y0071800D03*
X0019300Y0076800D03*
X0026800Y0081800D03*
D16*
X0053200Y0079300D02*
X0060400Y0079300D01*
X0060400Y0069300D02*
X0053200Y0069300D01*
X0053200Y0059300D02*
X0060400Y0059300D01*
X0060400Y0049300D02*
X0053200Y0049300D01*
X0053200Y0039300D02*
X0060400Y0039300D01*
X0060400Y0089300D02*
X0053200Y0089300D01*
X0053200Y0099300D02*
X0060400Y0099300D01*
X0060400Y0109300D02*
X0053200Y0109300D01*
X0143200Y0109300D02*
X0150400Y0109300D01*
X0150400Y0099300D02*
X0143200Y0099300D01*
X0143200Y0089300D02*
X0150400Y0089300D01*
X0150400Y0079300D02*
X0143200Y0079300D01*
X0143200Y0069300D02*
X0150400Y0069300D01*
X0150400Y0059300D02*
X0143200Y0059300D01*
X0143200Y0049300D02*
X0150400Y0049300D01*
X0150400Y0039300D02*
X0143200Y0039300D01*
D17*
X0129381Y0236505D02*
X0067881Y0236505D01*
D18*
X0086131Y0179300D03*
X0091131Y0169300D03*
X0096131Y0179300D03*
X0101131Y0169300D03*
X0106131Y0179300D03*
X0111131Y0169300D03*
D19*
X0126131Y0169800D03*
X0126131Y0225300D03*
X0071131Y0225300D03*
X0071131Y0169800D03*
D20*
X0081800Y0054300D03*
X0121800Y0054300D03*
D21*
X0031800Y0101600D02*
X0031800Y0106800D01*
X0021800Y0106800D02*
X0021800Y0101600D01*
X0021800Y0136800D02*
X0021800Y0142000D01*
X0031800Y0142000D02*
X0031800Y0136800D01*
D22*
X0173800Y0096800D02*
X0179800Y0096800D01*
X0179800Y0086800D02*
X0173800Y0086800D01*
X0173800Y0076800D02*
X0179800Y0076800D01*
D23*
X0181840Y0081800D02*
X0182859Y0082222D01*
X0184378Y0083741D01*
X0185200Y0085726D01*
X0185200Y0087874D01*
X0184378Y0089859D01*
X0182859Y0091378D01*
X0181840Y0091800D01*
X0182859Y0092222D01*
X0184378Y0093741D01*
X0185200Y0095726D01*
X0185200Y0097874D01*
X0184378Y0099859D01*
X0182859Y0101378D01*
X0180874Y0102200D01*
X0172726Y0102200D01*
X0170741Y0101378D01*
X0169222Y0099859D01*
X0168400Y0097874D01*
X0168400Y0095726D01*
X0169222Y0093741D01*
X0170741Y0092222D01*
X0171760Y0091800D01*
X0170741Y0091378D01*
X0169222Y0089859D01*
X0168400Y0087874D01*
X0168400Y0085726D01*
X0169222Y0083741D01*
X0170741Y0082222D01*
X0171760Y0081800D01*
X0170741Y0081378D01*
X0169222Y0079859D01*
X0168400Y0077874D01*
X0168400Y0075726D01*
X0169222Y0073741D01*
X0170741Y0072222D01*
X0172726Y0071400D01*
X0180874Y0071400D01*
X0182859Y0072222D01*
X0184378Y0073741D01*
X0185200Y0075726D01*
X0185200Y0077874D01*
X0184378Y0079859D01*
X0182859Y0081378D01*
X0181840Y0081800D01*
X0182019Y0081726D02*
X0193101Y0081726D01*
X0193101Y0083324D02*
X0183961Y0083324D01*
X0184867Y0084923D02*
X0193101Y0084923D01*
X0193101Y0086521D02*
X0185200Y0086521D01*
X0185098Y0088120D02*
X0193101Y0088120D01*
X0193101Y0089718D02*
X0184436Y0089718D01*
X0182920Y0091317D02*
X0193101Y0091317D01*
X0193101Y0092915D02*
X0183552Y0092915D01*
X0184698Y0094514D02*
X0193101Y0094514D01*
X0193101Y0096112D02*
X0185200Y0096112D01*
X0185200Y0097711D02*
X0193101Y0097711D01*
X0193101Y0099309D02*
X0184606Y0099309D01*
X0183329Y0100908D02*
X0193101Y0100908D01*
X0193101Y0102506D02*
X0165149Y0102506D01*
X0165149Y0100908D02*
X0170271Y0100908D01*
X0168994Y0099309D02*
X0165149Y0099309D01*
X0165149Y0097711D02*
X0168400Y0097711D01*
X0168400Y0096112D02*
X0165149Y0096112D01*
X0165149Y0094514D02*
X0168902Y0094514D01*
X0170048Y0092915D02*
X0165149Y0092915D01*
X0165149Y0091317D02*
X0170680Y0091317D01*
X0169164Y0089718D02*
X0165149Y0089718D01*
X0165149Y0088120D02*
X0168502Y0088120D01*
X0168400Y0086521D02*
X0165149Y0086521D01*
X0165149Y0084923D02*
X0168733Y0084923D01*
X0169639Y0083324D02*
X0165149Y0083324D01*
X0165149Y0081726D02*
X0171581Y0081726D01*
X0169490Y0080127D02*
X0165149Y0080127D01*
X0165149Y0078529D02*
X0168671Y0078529D01*
X0168400Y0076930D02*
X0165149Y0076930D01*
X0165149Y0075332D02*
X0168563Y0075332D01*
X0169230Y0073733D02*
X0165149Y0073733D01*
X0165149Y0072134D02*
X0170953Y0072134D01*
X0165149Y0070536D02*
X0193101Y0070536D01*
X0193101Y0072134D02*
X0182647Y0072134D01*
X0184370Y0073733D02*
X0193101Y0073733D01*
X0193101Y0075332D02*
X0185037Y0075332D01*
X0185200Y0076930D02*
X0193101Y0076930D01*
X0193101Y0078529D02*
X0184929Y0078529D01*
X0184110Y0080127D02*
X0193101Y0080127D01*
X0193101Y0068937D02*
X0165149Y0068937D01*
X0165149Y0067339D02*
X0193101Y0067339D01*
X0193101Y0065740D02*
X0165149Y0065740D01*
X0165149Y0064142D02*
X0193101Y0064142D01*
X0193101Y0062543D02*
X0165149Y0062543D01*
X0165149Y0060945D02*
X0193101Y0060945D01*
X0193101Y0059346D02*
X0165149Y0059346D01*
X0165149Y0057748D02*
X0193101Y0057748D01*
X0193101Y0056149D02*
X0165149Y0056149D01*
X0165149Y0054551D02*
X0193101Y0054551D01*
X0193101Y0052952D02*
X0165149Y0052952D01*
X0165149Y0051354D02*
X0193101Y0051354D01*
X0193101Y0049755D02*
X0165149Y0049755D01*
X0165149Y0048157D02*
X0193101Y0048157D01*
X0193101Y0046558D02*
X0165149Y0046558D01*
X0165149Y0044960D02*
X0193101Y0044960D01*
X0193101Y0043361D02*
X0165149Y0043361D01*
X0165149Y0041763D02*
X0193101Y0041763D01*
X0193101Y0040164D02*
X0165149Y0040164D01*
X0165149Y0038566D02*
X0172492Y0038566D01*
X0171322Y0038222D02*
X0171322Y0038222D01*
X0176347Y0039698D01*
X0181584Y0039698D01*
X0186609Y0038222D01*
X0186609Y0038222D01*
X0191015Y0035391D01*
X0191015Y0035391D01*
X0193101Y0032983D01*
X0193101Y0206837D01*
X0191015Y0204430D01*
X0191015Y0204430D01*
X0191015Y0204430D01*
X0186609Y0201598D01*
X0186609Y0201598D01*
X0181584Y0200123D01*
X0176347Y0200123D01*
X0171322Y0201598D01*
X0171322Y0201598D01*
X0166916Y0204430D01*
X0166916Y0204430D01*
X0163486Y0208388D01*
X0163486Y0208388D01*
X0161311Y0213152D01*
X0161311Y0213152D01*
X0160565Y0218335D01*
X0160565Y0218335D01*
X0161311Y0223519D01*
X0161311Y0223519D01*
X0163486Y0228283D01*
X0163486Y0228283D01*
X0166586Y0231861D01*
X0129588Y0231861D01*
X0130256Y0231475D01*
X0131027Y0230883D01*
X0131714Y0230196D01*
X0132305Y0229426D01*
X0132791Y0228584D01*
X0133163Y0227687D01*
X0133414Y0226749D01*
X0133500Y0226100D01*
X0126931Y0226100D01*
X0126931Y0224500D01*
X0133500Y0224500D01*
X0133414Y0223851D01*
X0133163Y0222913D01*
X0132791Y0222016D01*
X0132305Y0221174D01*
X0131714Y0220404D01*
X0131027Y0219717D01*
X0130256Y0219125D01*
X0129415Y0218640D01*
X0128518Y0218268D01*
X0127579Y0218017D01*
X0126931Y0217931D01*
X0126931Y0224500D01*
X0125331Y0224500D01*
X0125331Y0217931D01*
X0124682Y0218017D01*
X0123744Y0218268D01*
X0122846Y0218640D01*
X0122005Y0219125D01*
X0121234Y0219717D01*
X0120547Y0220404D01*
X0119956Y0221174D01*
X0119470Y0222016D01*
X0119099Y0222913D01*
X0118847Y0223851D01*
X0118762Y0224500D01*
X0125331Y0224500D01*
X0125331Y0226100D01*
X0118762Y0226100D01*
X0118847Y0226749D01*
X0119099Y0227687D01*
X0119470Y0228584D01*
X0119956Y0229426D01*
X0120547Y0230196D01*
X0121234Y0230883D01*
X0122005Y0231475D01*
X0122674Y0231861D01*
X0074588Y0231861D01*
X0075256Y0231475D01*
X0076027Y0230883D01*
X0076714Y0230196D01*
X0077305Y0229426D01*
X0077791Y0228584D01*
X0078163Y0227687D01*
X0078414Y0226749D01*
X0078500Y0226100D01*
X0071931Y0226100D01*
X0071931Y0224500D01*
X0078500Y0224500D01*
X0078414Y0223851D01*
X0078163Y0222913D01*
X0077791Y0222016D01*
X0077305Y0221174D01*
X0076714Y0220404D01*
X0076027Y0219717D01*
X0075256Y0219125D01*
X0074415Y0218640D01*
X0073518Y0218268D01*
X0072579Y0218017D01*
X0071931Y0217931D01*
X0071931Y0224500D01*
X0070331Y0224500D01*
X0070331Y0217931D01*
X0069682Y0218017D01*
X0068744Y0218268D01*
X0067846Y0218640D01*
X0067005Y0219125D01*
X0066234Y0219717D01*
X0065547Y0220404D01*
X0064956Y0221174D01*
X0064470Y0222016D01*
X0064099Y0222913D01*
X0063847Y0223851D01*
X0063762Y0224500D01*
X0070331Y0224500D01*
X0070331Y0226100D01*
X0063762Y0226100D01*
X0063847Y0226749D01*
X0064099Y0227687D01*
X0064470Y0228584D01*
X0064956Y0229426D01*
X0065547Y0230196D01*
X0066234Y0230883D01*
X0067005Y0231475D01*
X0067674Y0231861D01*
X0033864Y0231861D01*
X0036964Y0228283D01*
X0036964Y0228283D01*
X0039140Y0223519D01*
X0039140Y0223519D01*
X0039885Y0218335D01*
X0039140Y0213152D01*
X0039140Y0213152D01*
X0036964Y0208388D01*
X0036964Y0208388D01*
X0033534Y0204430D01*
X0033534Y0204430D01*
X0033534Y0204430D01*
X0029129Y0201598D01*
X0029129Y0201598D01*
X0024104Y0200123D01*
X0018866Y0200123D01*
X0013841Y0201598D01*
X0013841Y0201598D01*
X0009436Y0204430D01*
X0009436Y0204430D01*
X0006006Y0208388D01*
X0006006Y0208388D01*
X0004200Y0212342D01*
X0004200Y0027478D01*
X0006006Y0031433D01*
X0006006Y0031433D01*
X0009436Y0035391D01*
X0009436Y0035391D01*
X0013841Y0038222D01*
X0013841Y0038222D01*
X0018866Y0039698D01*
X0024104Y0039698D01*
X0029129Y0038222D01*
X0029129Y0038222D01*
X0033534Y0035391D01*
X0033534Y0035391D01*
X0036964Y0031433D01*
X0036964Y0031433D01*
X0039140Y0026669D01*
X0039140Y0026669D01*
X0039885Y0021485D01*
X0039140Y0016301D01*
X0039140Y0016301D01*
X0036964Y0011537D01*
X0036964Y0011537D01*
X0033534Y0007579D01*
X0033534Y0007579D01*
X0033534Y0007579D01*
X0029129Y0004748D01*
X0027263Y0004200D01*
X0173187Y0004200D01*
X0171322Y0004748D01*
X0171322Y0004748D01*
X0166916Y0007579D01*
X0166916Y0007579D01*
X0163486Y0011537D01*
X0163486Y0011537D01*
X0161311Y0016301D01*
X0161311Y0016301D01*
X0160565Y0021485D01*
X0160565Y0021485D01*
X0161311Y0026669D01*
X0161311Y0026669D01*
X0163486Y0031433D01*
X0163486Y0031433D01*
X0166916Y0035391D01*
X0166916Y0035391D01*
X0166916Y0035391D01*
X0171322Y0038222D01*
X0169369Y0036967D02*
X0165149Y0036967D01*
X0165149Y0035473D02*
X0165149Y0167191D01*
X0175464Y0167191D01*
X0175739Y0166529D01*
X0177750Y0164518D01*
X0179121Y0163950D01*
X0176573Y0163950D01*
X0175691Y0163585D01*
X0175015Y0162909D01*
X0174650Y0162027D01*
X0174650Y0151573D01*
X0175015Y0150691D01*
X0175691Y0150015D01*
X0176573Y0149650D01*
X0187027Y0149650D01*
X0187909Y0150015D01*
X0188585Y0150691D01*
X0188950Y0151573D01*
X0188950Y0162027D01*
X0188585Y0162909D01*
X0187909Y0163585D01*
X0187027Y0163950D01*
X0184479Y0163950D01*
X0185850Y0164518D01*
X0187861Y0166529D01*
X0188950Y0169157D01*
X0188950Y0172002D01*
X0187861Y0174630D01*
X0185850Y0176641D01*
X0183850Y0177469D01*
X0185850Y0178298D01*
X0187861Y0180309D01*
X0188950Y0182937D01*
X0188950Y0185781D01*
X0187861Y0188409D01*
X0185850Y0190421D01*
X0183222Y0191509D01*
X0180378Y0191509D01*
X0177750Y0190421D01*
X0175739Y0188409D01*
X0174650Y0185781D01*
X0174650Y0182937D01*
X0175739Y0180309D01*
X0177750Y0178298D01*
X0179750Y0177469D01*
X0177750Y0176641D01*
X0176100Y0174991D01*
X0160473Y0174991D01*
X0159040Y0174398D01*
X0157943Y0173301D01*
X0157349Y0171867D01*
X0157349Y0037864D01*
X0155558Y0036073D01*
X0156400Y0038107D01*
X0156400Y0040493D01*
X0155487Y0042699D01*
X0153799Y0044387D01*
X0153166Y0044649D01*
X0153230Y0044682D01*
X0153918Y0045181D01*
X0154519Y0045782D01*
X0155018Y0046470D01*
X0155404Y0047227D01*
X0155667Y0048035D01*
X0155800Y0048875D01*
X0155800Y0049100D01*
X0147000Y0049100D01*
X0147000Y0049500D01*
X0155800Y0049500D01*
X0155800Y0049725D01*
X0155667Y0050565D01*
X0155404Y0051373D01*
X0155018Y0052130D01*
X0154519Y0052818D01*
X0153918Y0053419D01*
X0153230Y0053918D01*
X0153166Y0053951D01*
X0153799Y0054213D01*
X0155487Y0055901D01*
X0156400Y0058107D01*
X0156400Y0060493D01*
X0155487Y0062699D01*
X0153885Y0064300D01*
X0155487Y0065901D01*
X0156400Y0068107D01*
X0156400Y0070493D01*
X0155487Y0072699D01*
X0153885Y0074300D01*
X0155487Y0075901D01*
X0156400Y0078107D01*
X0156400Y0080493D01*
X0155487Y0082699D01*
X0153885Y0084300D01*
X0155487Y0085901D01*
X0156400Y0088107D01*
X0156400Y0090493D01*
X0155487Y0092699D01*
X0153885Y0094300D01*
X0155487Y0095901D01*
X0156400Y0098107D01*
X0156400Y0100493D01*
X0155487Y0102699D01*
X0153885Y0104300D01*
X0155487Y0105901D01*
X0156400Y0108107D01*
X0156400Y0110493D01*
X0155487Y0112699D01*
X0153799Y0114387D01*
X0151593Y0115300D01*
X0142007Y0115300D01*
X0139801Y0114387D01*
X0138113Y0112699D01*
X0137200Y0110493D01*
X0137200Y0108107D01*
X0138113Y0105901D01*
X0139715Y0104300D01*
X0138113Y0102699D01*
X0137200Y0100493D01*
X0137200Y0098107D01*
X0138113Y0095901D01*
X0139715Y0094300D01*
X0138113Y0092699D01*
X0137200Y0090493D01*
X0137200Y0088107D01*
X0138113Y0085901D01*
X0139715Y0084300D01*
X0138113Y0082699D01*
X0137200Y0080493D01*
X0137200Y0078107D01*
X0138113Y0075901D01*
X0139715Y0074300D01*
X0138113Y0072699D01*
X0137200Y0070493D01*
X0137200Y0068107D01*
X0138113Y0065901D01*
X0139715Y0064300D01*
X0138113Y0062699D01*
X0137200Y0060493D01*
X0137200Y0058107D01*
X0138113Y0055901D01*
X0139801Y0054213D01*
X0140434Y0053951D01*
X0140370Y0053918D01*
X0139682Y0053419D01*
X0139081Y0052818D01*
X0138582Y0052130D01*
X0138196Y0051373D01*
X0137933Y0050565D01*
X0137800Y0049725D01*
X0137800Y0049500D01*
X0146600Y0049500D01*
X0146600Y0049100D01*
X0137800Y0049100D01*
X0137800Y0048875D01*
X0137933Y0048035D01*
X0138196Y0047227D01*
X0138582Y0046470D01*
X0139081Y0045782D01*
X0139682Y0045181D01*
X0140370Y0044682D01*
X0140434Y0044649D01*
X0139801Y0044387D01*
X0139725Y0044310D01*
X0137105Y0046930D01*
X0137105Y0074526D01*
X0136436Y0076143D01*
X0135198Y0077381D01*
X0134300Y0078278D01*
X0134300Y0078871D01*
X0133168Y0080003D01*
X0133168Y0096179D01*
X0132499Y0097796D01*
X0131261Y0099034D01*
X0123326Y0106969D01*
X0123326Y0115135D01*
X0124300Y0116109D01*
X0124300Y0114729D01*
X0127229Y0111800D01*
X0131371Y0111800D01*
X0134300Y0114729D01*
X0134300Y0118871D01*
X0131371Y0121800D01*
X0129991Y0121800D01*
X0142341Y0134150D01*
X0143011Y0135767D01*
X0143011Y0187715D01*
X0142341Y0189332D01*
X0141103Y0190570D01*
X0139486Y0191239D01*
X0112145Y0191239D01*
X0110528Y0190570D01*
X0109290Y0189332D01*
X0103955Y0183997D01*
X0103201Y0183684D01*
X0101746Y0182230D01*
X0101131Y0180743D01*
X0100515Y0182230D01*
X0099060Y0183684D01*
X0097159Y0184472D01*
X0095102Y0184472D01*
X0093201Y0183684D01*
X0091746Y0182230D01*
X0091131Y0180743D01*
X0090515Y0182230D01*
X0089060Y0183684D01*
X0087159Y0184472D01*
X0085102Y0184472D01*
X0083201Y0183684D01*
X0081746Y0182230D01*
X0080959Y0180329D01*
X0080959Y0178271D01*
X0081746Y0176370D01*
X0083201Y0174916D01*
X0085102Y0174128D01*
X0087159Y0174128D01*
X0089060Y0174916D01*
X0090515Y0176370D01*
X0091131Y0177857D01*
X0091746Y0176370D01*
X0093201Y0174916D01*
X0095102Y0174128D01*
X0097159Y0174128D01*
X0099060Y0174916D01*
X0100515Y0176370D01*
X0101131Y0177857D01*
X0101746Y0176370D01*
X0103201Y0174916D01*
X0105102Y0174128D01*
X0107159Y0174128D01*
X0109060Y0174916D01*
X0110515Y0176370D01*
X0111302Y0178271D01*
X0111302Y0178899D01*
X0114843Y0182439D01*
X0134211Y0182439D01*
X0134211Y0138465D01*
X0116434Y0120688D01*
X0115196Y0119450D01*
X0114526Y0117833D01*
X0114526Y0104271D01*
X0115196Y0102654D01*
X0124369Y0093481D01*
X0124369Y0078940D01*
X0124300Y0078871D01*
X0124300Y0074729D01*
X0127229Y0071800D01*
X0128306Y0071800D01*
X0128306Y0044232D01*
X0128975Y0042615D01*
X0137834Y0033756D01*
X0138331Y0033259D01*
X0126763Y0033259D01*
X0126763Y0037192D01*
X0126800Y0037229D01*
X0126800Y0041371D01*
X0123871Y0044300D01*
X0119729Y0044300D01*
X0116800Y0041371D01*
X0116800Y0037229D01*
X0118963Y0035066D01*
X0118963Y0028583D01*
X0119557Y0027150D01*
X0120654Y0026053D01*
X0122087Y0025459D01*
X0155135Y0025459D01*
X0156568Y0026053D01*
X0157665Y0027150D01*
X0164555Y0034040D01*
X0165149Y0035473D01*
X0165106Y0035369D02*
X0166897Y0035369D01*
X0165512Y0033770D02*
X0164286Y0033770D01*
X0164127Y0032172D02*
X0162687Y0032172D01*
X0163094Y0030573D02*
X0161089Y0030573D01*
X0162364Y0028975D02*
X0159490Y0028975D01*
X0157892Y0027376D02*
X0161634Y0027376D01*
X0161183Y0025778D02*
X0155904Y0025778D01*
X0160723Y0022581D02*
X0039728Y0022581D01*
X0039813Y0020982D02*
X0160638Y0020982D01*
X0160867Y0019384D02*
X0039583Y0019384D01*
X0039353Y0017785D02*
X0161097Y0017785D01*
X0161363Y0016187D02*
X0039087Y0016187D01*
X0038357Y0014588D02*
X0162093Y0014588D01*
X0162823Y0012990D02*
X0037627Y0012990D01*
X0036837Y0011391D02*
X0163613Y0011391D01*
X0164998Y0009793D02*
X0035452Y0009793D01*
X0034067Y0008194D02*
X0166383Y0008194D01*
X0168447Y0006596D02*
X0032004Y0006596D01*
X0029516Y0004997D02*
X0170934Y0004997D01*
X0160953Y0024179D02*
X0039498Y0024179D01*
X0039268Y0025778D02*
X0047499Y0025778D01*
X0046835Y0026053D02*
X0048268Y0025459D01*
X0073442Y0025459D01*
X0074875Y0026053D01*
X0075972Y0027150D01*
X0076566Y0028583D01*
X0076566Y0042507D01*
X0082659Y0048600D01*
X0082934Y0048600D01*
X0085029Y0049468D01*
X0086632Y0051071D01*
X0087500Y0053166D01*
X0087500Y0055434D01*
X0086632Y0057529D01*
X0086409Y0057752D01*
X0086409Y0069082D01*
X0089126Y0071800D01*
X0091371Y0071800D01*
X0094300Y0074729D01*
X0094300Y0078871D01*
X0091371Y0081800D01*
X0089007Y0081800D01*
X0091891Y0084684D01*
X0093129Y0085922D01*
X0093798Y0087539D01*
X0093798Y0091571D01*
X0094300Y0091070D01*
X0094300Y0089729D01*
X0097229Y0086800D01*
X0101371Y0086800D01*
X0104300Y0089729D01*
X0104300Y0090203D01*
X0111576Y0097479D01*
X0112814Y0098717D01*
X0113483Y0100334D01*
X0113483Y0113912D01*
X0114300Y0114729D01*
X0114300Y0118871D01*
X0111371Y0121800D01*
X0107229Y0121800D01*
X0104300Y0118871D01*
X0104300Y0114729D01*
X0104683Y0114345D01*
X0104683Y0103032D01*
X0099733Y0098082D01*
X0094113Y0103702D01*
X0083956Y0113859D01*
X0083956Y0129385D01*
X0084300Y0129729D01*
X0084300Y0133871D01*
X0081371Y0136800D01*
X0077229Y0136800D01*
X0074300Y0133871D01*
X0074300Y0129729D01*
X0075156Y0128873D01*
X0075156Y0111161D01*
X0075826Y0109544D01*
X0084998Y0100371D01*
X0084998Y0090237D01*
X0067952Y0073190D01*
X0067282Y0071573D01*
X0067282Y0050867D01*
X0066400Y0049985D01*
X0066400Y0050493D01*
X0065487Y0052699D01*
X0063885Y0054300D01*
X0065487Y0055901D01*
X0066400Y0058107D01*
X0066400Y0060493D01*
X0065487Y0062699D01*
X0063885Y0064300D01*
X0065487Y0065901D01*
X0066400Y0068107D01*
X0066400Y0070493D01*
X0065487Y0072699D01*
X0063885Y0074300D01*
X0065487Y0075901D01*
X0066400Y0078107D01*
X0066400Y0080493D01*
X0065487Y0082699D01*
X0063885Y0084300D01*
X0065487Y0085901D01*
X0066400Y0088107D01*
X0066400Y0090493D01*
X0065487Y0092699D01*
X0063885Y0094300D01*
X0065487Y0095901D01*
X0066400Y0098107D01*
X0066400Y0100493D01*
X0065487Y0102699D01*
X0063885Y0104300D01*
X0065487Y0105901D01*
X0066400Y0108107D01*
X0066400Y0110493D01*
X0065487Y0112699D01*
X0063799Y0114387D01*
X0061593Y0115300D01*
X0052007Y0115300D01*
X0049801Y0114387D01*
X0048113Y0112699D01*
X0047200Y0110493D01*
X0047200Y0108107D01*
X0048113Y0105901D01*
X0049715Y0104300D01*
X0048113Y0102699D01*
X0047200Y0100493D01*
X0047200Y0098107D01*
X0048113Y0095901D01*
X0049715Y0094300D01*
X0048113Y0092699D01*
X0047200Y0090493D01*
X0047200Y0089868D01*
X0047039Y0090030D01*
X0047039Y0096080D01*
X0046445Y0097513D01*
X0045348Y0098610D01*
X0036800Y0107158D01*
X0036800Y0107795D01*
X0036039Y0109632D01*
X0034632Y0111039D01*
X0032795Y0111800D01*
X0030805Y0111800D01*
X0028968Y0111039D01*
X0027561Y0109632D01*
X0026800Y0107795D01*
X0026800Y0100605D01*
X0027561Y0098768D01*
X0028968Y0097361D01*
X0030805Y0096600D01*
X0032795Y0096600D01*
X0034632Y0097361D01*
X0035099Y0097828D01*
X0039239Y0093688D01*
X0039239Y0087638D01*
X0039832Y0086205D01*
X0047200Y0078837D01*
X0047200Y0078107D01*
X0048113Y0075901D01*
X0049715Y0074300D01*
X0048113Y0072699D01*
X0047200Y0070493D01*
X0047200Y0068107D01*
X0048113Y0065901D01*
X0049715Y0064300D01*
X0048113Y0062699D01*
X0047200Y0060493D01*
X0047200Y0058107D01*
X0048113Y0055901D01*
X0049715Y0054300D01*
X0048113Y0052699D01*
X0047200Y0050493D01*
X0047200Y0048107D01*
X0048113Y0045901D01*
X0049715Y0044300D01*
X0048113Y0042699D01*
X0047200Y0040493D01*
X0047200Y0038107D01*
X0048113Y0035901D01*
X0049801Y0034213D01*
X0052007Y0033300D01*
X0061593Y0033300D01*
X0063799Y0034213D01*
X0065371Y0035786D01*
X0068620Y0035786D01*
X0068766Y0035846D01*
X0068766Y0033259D01*
X0050660Y0033259D01*
X0021448Y0062471D01*
X0021448Y0071877D01*
X0021800Y0072229D01*
X0021800Y0069729D01*
X0024729Y0066800D01*
X0028871Y0066800D01*
X0031800Y0069729D01*
X0031800Y0073871D01*
X0028871Y0076800D01*
X0024729Y0076800D01*
X0024300Y0076371D01*
X0024300Y0078077D01*
X0024977Y0077400D01*
X0026800Y0077400D01*
X0028623Y0077400D01*
X0031200Y0079977D01*
X0031200Y0081800D01*
X0031200Y0083623D01*
X0028623Y0086200D01*
X0026800Y0086200D01*
X0026800Y0081800D01*
X0026800Y0081800D01*
X0031200Y0081800D01*
X0026800Y0081800D01*
X0026800Y0081800D01*
X0026800Y0081800D01*
X0022400Y0081800D01*
X0022400Y0083623D01*
X0024977Y0086200D01*
X0026800Y0086200D01*
X0026800Y0081800D01*
X0026800Y0077400D01*
X0026800Y0081800D01*
X0026800Y0081800D01*
X0022400Y0081800D01*
X0022400Y0080771D01*
X0021371Y0081800D01*
X0017229Y0081800D01*
X0014300Y0078871D01*
X0014300Y0077886D01*
X0014242Y0077828D01*
X0013648Y0076395D01*
X0013648Y0060079D01*
X0014242Y0058646D01*
X0045738Y0027150D01*
X0046835Y0026053D01*
X0045512Y0027376D02*
X0038817Y0027376D01*
X0038087Y0028975D02*
X0043913Y0028975D01*
X0042315Y0030573D02*
X0037357Y0030573D01*
X0036324Y0032172D02*
X0040716Y0032172D01*
X0039117Y0033770D02*
X0034939Y0033770D01*
X0033554Y0035369D02*
X0037519Y0035369D01*
X0035920Y0036967D02*
X0031081Y0036967D01*
X0027959Y0038566D02*
X0034322Y0038566D01*
X0032723Y0040164D02*
X0004200Y0040164D01*
X0004200Y0038566D02*
X0015011Y0038566D01*
X0011889Y0036967D02*
X0004200Y0036967D01*
X0004200Y0035369D02*
X0009416Y0035369D01*
X0009436Y0035391D02*
X0009436Y0035391D01*
X0008031Y0033770D02*
X0004200Y0033770D01*
X0004200Y0032172D02*
X0006646Y0032172D01*
X0005613Y0030573D02*
X0004200Y0030573D01*
X0004200Y0028975D02*
X0004883Y0028975D01*
X0004200Y0041763D02*
X0031125Y0041763D01*
X0029526Y0043361D02*
X0004200Y0043361D01*
X0004200Y0044960D02*
X0027928Y0044960D01*
X0026329Y0046558D02*
X0004200Y0046558D01*
X0004200Y0048157D02*
X0024731Y0048157D01*
X0023132Y0049755D02*
X0004200Y0049755D01*
X0004200Y0051354D02*
X0021534Y0051354D01*
X0019935Y0052952D02*
X0004200Y0052952D01*
X0004200Y0054551D02*
X0018337Y0054551D01*
X0016738Y0056149D02*
X0004200Y0056149D01*
X0004200Y0057748D02*
X0015140Y0057748D01*
X0013952Y0059346D02*
X0004200Y0059346D01*
X0004200Y0060945D02*
X0013648Y0060945D01*
X0013648Y0062543D02*
X0004200Y0062543D01*
X0004200Y0064142D02*
X0013648Y0064142D01*
X0013648Y0065740D02*
X0004200Y0065740D01*
X0004200Y0067339D02*
X0013648Y0067339D01*
X0013648Y0068937D02*
X0004200Y0068937D01*
X0004200Y0070536D02*
X0013648Y0070536D01*
X0013648Y0072134D02*
X0004200Y0072134D01*
X0004200Y0073733D02*
X0013648Y0073733D01*
X0013648Y0075332D02*
X0004200Y0075332D01*
X0004200Y0076930D02*
X0013870Y0076930D01*
X0014300Y0078529D02*
X0004200Y0078529D01*
X0004200Y0080127D02*
X0015556Y0080127D01*
X0017155Y0081726D02*
X0004200Y0081726D01*
X0004200Y0083324D02*
X0022400Y0083324D01*
X0022400Y0081726D02*
X0021445Y0081726D01*
X0023700Y0084923D02*
X0004200Y0084923D01*
X0004200Y0086521D02*
X0039701Y0086521D01*
X0039239Y0088120D02*
X0004200Y0088120D01*
X0004200Y0089718D02*
X0039239Y0089718D01*
X0039239Y0091317D02*
X0004200Y0091317D01*
X0004200Y0092915D02*
X0039239Y0092915D01*
X0038413Y0094514D02*
X0004200Y0094514D01*
X0004200Y0096112D02*
X0036815Y0096112D01*
X0035216Y0097711D02*
X0034982Y0097711D01*
X0028618Y0097711D02*
X0023859Y0097711D01*
X0024106Y0097837D02*
X0024666Y0098244D01*
X0025156Y0098734D01*
X0025563Y0099294D01*
X0025878Y0099911D01*
X0026092Y0100570D01*
X0026200Y0101254D01*
X0026200Y0106800D01*
X0026200Y0107146D01*
X0026092Y0107830D01*
X0025878Y0108489D01*
X0025563Y0109106D01*
X0025156Y0109666D01*
X0024666Y0110156D01*
X0024106Y0110563D01*
X0023489Y0110878D01*
X0022830Y0111092D01*
X0022146Y0111200D01*
X0021800Y0111200D01*
X0021800Y0106800D01*
X0021800Y0106800D01*
X0026200Y0106800D01*
X0021800Y0106800D01*
X0021800Y0106800D01*
X0021800Y0106800D01*
X0017400Y0106800D01*
X0017400Y0107146D01*
X0017508Y0107830D01*
X0017722Y0108489D01*
X0018037Y0109106D01*
X0018444Y0109666D01*
X0018934Y0110156D01*
X0019494Y0110563D01*
X0020111Y0110878D01*
X0020770Y0111092D01*
X0021454Y0111200D01*
X0021800Y0111200D01*
X0021800Y0106800D01*
X0021800Y0097200D01*
X0022146Y0097200D01*
X0022830Y0097308D01*
X0023489Y0097522D01*
X0024106Y0097837D01*
X0025571Y0099309D02*
X0027337Y0099309D01*
X0026800Y0100908D02*
X0026145Y0100908D01*
X0026200Y0102506D02*
X0026800Y0102506D01*
X0026800Y0104105D02*
X0026200Y0104105D01*
X0026200Y0105703D02*
X0026800Y0105703D01*
X0026800Y0107302D02*
X0026175Y0107302D01*
X0025668Y0108900D02*
X0027258Y0108900D01*
X0028428Y0110499D02*
X0024195Y0110499D01*
X0021800Y0110499D02*
X0021800Y0110499D01*
X0021800Y0108900D02*
X0021800Y0108900D01*
X0021800Y0107302D02*
X0021800Y0107302D01*
X0021800Y0106800D02*
X0017400Y0106800D01*
X0017400Y0101254D01*
X0017508Y0100570D01*
X0017722Y0099911D01*
X0018037Y0099294D01*
X0018444Y0098734D01*
X0018934Y0098244D01*
X0019494Y0097837D01*
X0020111Y0097522D01*
X0020770Y0097308D01*
X0021454Y0097200D01*
X0021800Y0097200D01*
X0021800Y0106800D01*
X0021800Y0106800D01*
X0021800Y0105703D02*
X0021800Y0105703D01*
X0021800Y0104105D02*
X0021800Y0104105D01*
X0021800Y0102506D02*
X0021800Y0102506D01*
X0021800Y0100908D02*
X0021800Y0100908D01*
X0021800Y0099309D02*
X0021800Y0099309D01*
X0021800Y0097711D02*
X0021800Y0097711D01*
X0019741Y0097711D02*
X0004200Y0097711D01*
X0004200Y0099309D02*
X0018029Y0099309D01*
X0017455Y0100908D02*
X0004200Y0100908D01*
X0004200Y0102506D02*
X0017400Y0102506D01*
X0017400Y0104105D02*
X0004200Y0104105D01*
X0004200Y0105703D02*
X0017400Y0105703D01*
X0017425Y0107302D02*
X0004200Y0107302D01*
X0004200Y0108900D02*
X0017932Y0108900D01*
X0019405Y0110499D02*
X0004200Y0110499D01*
X0004200Y0112097D02*
X0047864Y0112097D01*
X0047202Y0110499D02*
X0035172Y0110499D01*
X0036342Y0108900D02*
X0047200Y0108900D01*
X0047533Y0107302D02*
X0036800Y0107302D01*
X0038255Y0105703D02*
X0048311Y0105703D01*
X0049519Y0104105D02*
X0039853Y0104105D01*
X0041452Y0102506D02*
X0048034Y0102506D01*
X0047372Y0100908D02*
X0043050Y0100908D01*
X0044649Y0099309D02*
X0047200Y0099309D01*
X0047364Y0097711D02*
X0046247Y0097711D01*
X0047025Y0096112D02*
X0048026Y0096112D01*
X0047039Y0094514D02*
X0049501Y0094514D01*
X0048330Y0092915D02*
X0047039Y0092915D01*
X0047039Y0091317D02*
X0047541Y0091317D01*
X0041115Y0084923D02*
X0029900Y0084923D01*
X0031200Y0083324D02*
X0042713Y0083324D01*
X0044312Y0081726D02*
X0031200Y0081726D01*
X0031200Y0080127D02*
X0045910Y0080127D01*
X0047200Y0078529D02*
X0029751Y0078529D01*
X0026800Y0078529D02*
X0026800Y0078529D01*
X0026800Y0080127D02*
X0026800Y0080127D01*
X0026800Y0081726D02*
X0026800Y0081726D01*
X0026800Y0083324D02*
X0026800Y0083324D01*
X0026800Y0084923D02*
X0026800Y0084923D01*
X0024300Y0076930D02*
X0047687Y0076930D01*
X0048683Y0075332D02*
X0030340Y0075332D01*
X0031800Y0073733D02*
X0049148Y0073733D01*
X0047880Y0072134D02*
X0031800Y0072134D01*
X0031800Y0070536D02*
X0047218Y0070536D01*
X0047200Y0068937D02*
X0031009Y0068937D01*
X0029410Y0067339D02*
X0047518Y0067339D01*
X0048274Y0065740D02*
X0021448Y0065740D01*
X0021448Y0064142D02*
X0049557Y0064142D01*
X0048049Y0062543D02*
X0021448Y0062543D01*
X0022974Y0060945D02*
X0047387Y0060945D01*
X0047200Y0059346D02*
X0024572Y0059346D01*
X0026171Y0057748D02*
X0047349Y0057748D01*
X0048011Y0056149D02*
X0027769Y0056149D01*
X0029368Y0054551D02*
X0049464Y0054551D01*
X0048367Y0052952D02*
X0030966Y0052952D01*
X0032565Y0051354D02*
X0047556Y0051354D01*
X0047200Y0049755D02*
X0034163Y0049755D01*
X0035762Y0048157D02*
X0047200Y0048157D01*
X0047841Y0046558D02*
X0037360Y0046558D01*
X0038959Y0044960D02*
X0049055Y0044960D01*
X0048776Y0043361D02*
X0040557Y0043361D01*
X0042156Y0041763D02*
X0047726Y0041763D01*
X0047200Y0040164D02*
X0043754Y0040164D01*
X0045353Y0038566D02*
X0047200Y0038566D01*
X0046951Y0036967D02*
X0047672Y0036967D01*
X0048550Y0035369D02*
X0048646Y0035369D01*
X0050148Y0033770D02*
X0050871Y0033770D01*
X0062729Y0033770D02*
X0068766Y0033770D01*
X0068766Y0035369D02*
X0064954Y0035369D01*
X0074211Y0025778D02*
X0121318Y0025778D01*
X0119463Y0027376D02*
X0076066Y0027376D01*
X0076566Y0028975D02*
X0118963Y0028975D01*
X0118963Y0030573D02*
X0076566Y0030573D01*
X0076566Y0032172D02*
X0118963Y0032172D01*
X0118963Y0033770D02*
X0076566Y0033770D01*
X0076566Y0035369D02*
X0079509Y0035369D01*
X0079977Y0034900D02*
X0081800Y0034900D01*
X0083623Y0034900D01*
X0086200Y0037477D01*
X0086200Y0039300D01*
X0086200Y0041123D01*
X0083623Y0043700D01*
X0081800Y0043700D01*
X0081800Y0039300D01*
X0086200Y0039300D01*
X0081800Y0039300D01*
X0081800Y0039300D01*
X0081800Y0039300D01*
X0081800Y0034900D01*
X0081800Y0039300D01*
X0081800Y0039300D01*
X0081800Y0039300D01*
X0077400Y0039300D01*
X0077400Y0041123D01*
X0079977Y0043700D01*
X0081800Y0043700D01*
X0081800Y0039300D01*
X0077400Y0039300D01*
X0077400Y0037477D01*
X0079977Y0034900D01*
X0081800Y0035369D02*
X0081800Y0035369D01*
X0081800Y0036967D02*
X0081800Y0036967D01*
X0081800Y0038566D02*
X0081800Y0038566D01*
X0081800Y0040164D02*
X0081800Y0040164D01*
X0081800Y0041763D02*
X0081800Y0041763D01*
X0081800Y0043361D02*
X0081800Y0043361D01*
X0083961Y0043361D02*
X0118790Y0043361D01*
X0117192Y0041763D02*
X0085560Y0041763D01*
X0086200Y0040164D02*
X0116800Y0040164D01*
X0116800Y0038566D02*
X0086200Y0038566D01*
X0085690Y0036967D02*
X0117062Y0036967D01*
X0118660Y0035369D02*
X0084091Y0035369D01*
X0077910Y0036967D02*
X0076566Y0036967D01*
X0076566Y0038566D02*
X0077400Y0038566D01*
X0077400Y0040164D02*
X0076566Y0040164D01*
X0076566Y0041763D02*
X0078040Y0041763D01*
X0077420Y0043361D02*
X0079639Y0043361D01*
X0079019Y0044960D02*
X0128306Y0044960D01*
X0128306Y0046558D02*
X0080617Y0046558D01*
X0082216Y0048157D02*
X0128306Y0048157D01*
X0128306Y0049755D02*
X0124114Y0049755D01*
X0123758Y0049574D02*
X0124473Y0049938D01*
X0125122Y0050410D01*
X0125690Y0050978D01*
X0126162Y0051627D01*
X0126526Y0052342D01*
X0126774Y0053106D01*
X0126900Y0053899D01*
X0126900Y0054000D01*
X0122100Y0054000D01*
X0122100Y0054600D01*
X0126900Y0054600D01*
X0126900Y0054701D01*
X0126774Y0055494D01*
X0126526Y0056258D01*
X0126162Y0056973D01*
X0125690Y0057622D01*
X0125122Y0058190D01*
X0124473Y0058662D01*
X0123758Y0059026D01*
X0122994Y0059274D01*
X0122201Y0059400D01*
X0122100Y0059400D01*
X0122100Y0054600D01*
X0121500Y0054600D01*
X0121500Y0059400D01*
X0121399Y0059400D01*
X0120606Y0059274D01*
X0119842Y0059026D01*
X0119127Y0058662D01*
X0118478Y0058190D01*
X0117910Y0057622D01*
X0117438Y0056973D01*
X0117074Y0056258D01*
X0116826Y0055494D01*
X0116700Y0054701D01*
X0116700Y0054600D01*
X0121500Y0054600D01*
X0121500Y0054000D01*
X0122100Y0054000D01*
X0122100Y0049200D01*
X0122201Y0049200D01*
X0122994Y0049326D01*
X0123758Y0049574D01*
X0122100Y0049755D02*
X0121500Y0049755D01*
X0121500Y0049200D02*
X0121500Y0054000D01*
X0116700Y0054000D01*
X0116700Y0053899D01*
X0116826Y0053106D01*
X0117074Y0052342D01*
X0117438Y0051627D01*
X0117910Y0050978D01*
X0118478Y0050410D01*
X0119127Y0049938D01*
X0119842Y0049574D01*
X0120606Y0049326D01*
X0121399Y0049200D01*
X0121500Y0049200D01*
X0119486Y0049755D02*
X0085316Y0049755D01*
X0086749Y0051354D02*
X0117637Y0051354D01*
X0116875Y0052952D02*
X0087411Y0052952D01*
X0087500Y0054551D02*
X0121500Y0054551D01*
X0122100Y0054551D02*
X0128306Y0054551D01*
X0128306Y0056149D02*
X0126562Y0056149D01*
X0125565Y0057748D02*
X0128306Y0057748D01*
X0128306Y0059346D02*
X0122540Y0059346D01*
X0122100Y0059346D02*
X0121500Y0059346D01*
X0121060Y0059346D02*
X0086409Y0059346D01*
X0086413Y0057748D02*
X0118035Y0057748D01*
X0117038Y0056149D02*
X0087204Y0056149D01*
X0086409Y0060945D02*
X0128306Y0060945D01*
X0128306Y0062543D02*
X0086409Y0062543D01*
X0086409Y0064142D02*
X0128306Y0064142D01*
X0128306Y0065740D02*
X0086409Y0065740D01*
X0086409Y0067339D02*
X0128306Y0067339D01*
X0128306Y0068937D02*
X0086409Y0068937D01*
X0087862Y0070536D02*
X0128306Y0070536D01*
X0126894Y0072134D02*
X0111706Y0072134D01*
X0111371Y0071800D02*
X0114300Y0074729D01*
X0114300Y0078871D01*
X0111371Y0081800D01*
X0107229Y0081800D01*
X0104300Y0078871D01*
X0104300Y0074729D01*
X0107229Y0071800D01*
X0111371Y0071800D01*
X0113304Y0073733D02*
X0125296Y0073733D01*
X0124300Y0075332D02*
X0114300Y0075332D01*
X0114300Y0076930D02*
X0124300Y0076930D01*
X0124300Y0078529D02*
X0114300Y0078529D01*
X0113044Y0080127D02*
X0124369Y0080127D01*
X0124369Y0081726D02*
X0111445Y0081726D01*
X0116758Y0088120D02*
X0102691Y0088120D01*
X0104289Y0089718D02*
X0115159Y0089718D01*
X0114900Y0089977D02*
X0117477Y0087400D01*
X0119300Y0087400D01*
X0121123Y0087400D01*
X0123700Y0089977D01*
X0123700Y0091800D01*
X0123700Y0093623D01*
X0121123Y0096200D01*
X0119300Y0096200D01*
X0119300Y0091800D01*
X0119300Y0091800D01*
X0123700Y0091800D01*
X0119300Y0091800D01*
X0119300Y0091800D01*
X0119300Y0091800D01*
X0114900Y0091800D01*
X0114900Y0093623D01*
X0117477Y0096200D01*
X0119300Y0096200D01*
X0119300Y0091800D01*
X0119300Y0087400D01*
X0119300Y0091800D01*
X0119300Y0091800D01*
X0114900Y0091800D01*
X0114900Y0089977D01*
X0114900Y0091317D02*
X0105413Y0091317D01*
X0107012Y0092915D02*
X0114900Y0092915D01*
X0115791Y0094514D02*
X0108610Y0094514D01*
X0110209Y0096112D02*
X0117390Y0096112D01*
X0119300Y0096112D02*
X0119300Y0096112D01*
X0119300Y0094514D02*
X0119300Y0094514D01*
X0119300Y0092915D02*
X0119300Y0092915D01*
X0119300Y0091317D02*
X0119300Y0091317D01*
X0119300Y0089718D02*
X0119300Y0089718D01*
X0119300Y0088120D02*
X0119300Y0088120D01*
X0121842Y0088120D02*
X0124369Y0088120D01*
X0124369Y0089718D02*
X0123441Y0089718D01*
X0123700Y0091317D02*
X0124369Y0091317D01*
X0124369Y0092915D02*
X0123700Y0092915D01*
X0123336Y0094514D02*
X0122809Y0094514D01*
X0121738Y0096112D02*
X0121210Y0096112D01*
X0120139Y0097711D02*
X0111807Y0097711D01*
X0113059Y0099309D02*
X0118541Y0099309D01*
X0116942Y0100908D02*
X0113483Y0100908D01*
X0113483Y0102506D02*
X0115344Y0102506D01*
X0114595Y0104105D02*
X0113483Y0104105D01*
X0113483Y0105703D02*
X0114526Y0105703D01*
X0114526Y0107302D02*
X0113483Y0107302D01*
X0113483Y0108900D02*
X0114526Y0108900D01*
X0114526Y0110499D02*
X0113483Y0110499D01*
X0113483Y0112097D02*
X0114526Y0112097D01*
X0114526Y0113696D02*
X0113483Y0113696D01*
X0114300Y0115294D02*
X0114526Y0115294D01*
X0114526Y0116893D02*
X0114300Y0116893D01*
X0114300Y0118491D02*
X0114799Y0118491D01*
X0115836Y0120090D02*
X0113081Y0120090D01*
X0111483Y0121688D02*
X0117434Y0121688D01*
X0119033Y0123287D02*
X0101243Y0123287D01*
X0102434Y0124478D02*
X0103531Y0125575D01*
X0104125Y0127008D01*
X0104125Y0129554D01*
X0104300Y0129729D01*
X0104300Y0133871D01*
X0104125Y0134046D01*
X0104125Y0158088D01*
X0103531Y0159521D01*
X0102434Y0160618D01*
X0096251Y0166801D01*
X0096251Y0168148D01*
X0096302Y0168271D01*
X0096302Y0170329D01*
X0095515Y0172230D01*
X0094060Y0173684D01*
X0092159Y0174472D01*
X0090102Y0174472D01*
X0088201Y0173684D01*
X0086746Y0172230D01*
X0085959Y0170329D01*
X0085959Y0168271D01*
X0086746Y0166370D01*
X0088201Y0164916D01*
X0088451Y0164812D01*
X0088451Y0164410D01*
X0089045Y0162977D01*
X0096325Y0155696D01*
X0096325Y0135896D01*
X0094300Y0133871D01*
X0094300Y0129729D01*
X0095477Y0128552D01*
X0088726Y0121800D01*
X0087229Y0121800D01*
X0084300Y0118871D01*
X0084300Y0114729D01*
X0087229Y0111800D01*
X0091371Y0111800D01*
X0094300Y0114729D01*
X0094300Y0116344D01*
X0102434Y0124478D01*
X0102434Y0124478D01*
X0102842Y0124885D02*
X0120631Y0124885D01*
X0121371Y0126800D02*
X0117229Y0126800D01*
X0114300Y0129729D01*
X0114300Y0133871D01*
X0117229Y0136800D01*
X0121371Y0136800D01*
X0124300Y0133871D01*
X0124300Y0129729D01*
X0121371Y0126800D01*
X0122230Y0126484D02*
X0103908Y0126484D01*
X0104125Y0128082D02*
X0115947Y0128082D01*
X0114348Y0129681D02*
X0104252Y0129681D01*
X0104300Y0131279D02*
X0114300Y0131279D01*
X0114300Y0132878D02*
X0104300Y0132878D01*
X0104125Y0134476D02*
X0114905Y0134476D01*
X0116504Y0136075D02*
X0104125Y0136075D01*
X0104125Y0137673D02*
X0133419Y0137673D01*
X0134211Y0139272D02*
X0104125Y0139272D01*
X0104125Y0140870D02*
X0134211Y0140870D01*
X0134211Y0142469D02*
X0104125Y0142469D01*
X0104125Y0144068D02*
X0134211Y0144068D01*
X0134211Y0145666D02*
X0104125Y0145666D01*
X0104125Y0147265D02*
X0134211Y0147265D01*
X0134211Y0148863D02*
X0104125Y0148863D01*
X0104125Y0150462D02*
X0134211Y0150462D01*
X0134211Y0152060D02*
X0104125Y0152060D01*
X0104125Y0153659D02*
X0134211Y0153659D01*
X0134211Y0155257D02*
X0104125Y0155257D01*
X0104125Y0156856D02*
X0134211Y0156856D01*
X0134211Y0158454D02*
X0103973Y0158454D01*
X0103000Y0160053D02*
X0134211Y0160053D01*
X0134211Y0161651D02*
X0101401Y0161651D01*
X0099803Y0163250D02*
X0122656Y0163250D01*
X0122846Y0163140D02*
X0123744Y0162768D01*
X0124682Y0162517D01*
X0125331Y0162431D01*
X0125331Y0169000D01*
X0126931Y0169000D01*
X0126931Y0170600D01*
X0133500Y0170600D01*
X0133414Y0171249D01*
X0133163Y0172187D01*
X0132791Y0173084D01*
X0132305Y0173926D01*
X0131714Y0174696D01*
X0131027Y0175383D01*
X0130256Y0175975D01*
X0129415Y0176460D01*
X0128518Y0176832D01*
X0127579Y0177083D01*
X0126931Y0177169D01*
X0126931Y0170600D01*
X0125331Y0170600D01*
X0125331Y0177169D01*
X0124682Y0177083D01*
X0123744Y0176832D01*
X0122846Y0176460D01*
X0122005Y0175975D01*
X0121234Y0175383D01*
X0120547Y0174696D01*
X0119956Y0173926D01*
X0119470Y0173084D01*
X0119099Y0172187D01*
X0118847Y0171249D01*
X0118762Y0170600D01*
X0125331Y0170600D01*
X0125331Y0169000D01*
X0118762Y0169000D01*
X0118847Y0168351D01*
X0119099Y0167413D01*
X0119470Y0166516D01*
X0119956Y0165674D01*
X0120547Y0164904D01*
X0121234Y0164217D01*
X0122005Y0163625D01*
X0122846Y0163140D01*
X0120603Y0164848D02*
X0113897Y0164848D01*
X0114060Y0164916D02*
X0115515Y0166370D01*
X0116302Y0168271D01*
X0116302Y0170329D01*
X0115515Y0172230D01*
X0114060Y0173684D01*
X0112159Y0174472D01*
X0110102Y0174472D01*
X0108201Y0173684D01*
X0106746Y0172230D01*
X0105959Y0170329D01*
X0105959Y0168271D01*
X0106746Y0166370D01*
X0108201Y0164916D01*
X0110102Y0164128D01*
X0112159Y0164128D01*
X0114060Y0164916D01*
X0115547Y0166447D02*
X0119510Y0166447D01*
X0118929Y0168045D02*
X0116209Y0168045D01*
X0116302Y0169644D02*
X0125331Y0169644D01*
X0125331Y0171242D02*
X0126931Y0171242D01*
X0126931Y0169644D02*
X0134211Y0169644D01*
X0133500Y0169000D02*
X0126931Y0169000D01*
X0126931Y0162431D01*
X0127579Y0162517D01*
X0128518Y0162768D01*
X0129415Y0163140D01*
X0130256Y0163625D01*
X0131027Y0164217D01*
X0131714Y0164904D01*
X0132305Y0165674D01*
X0132791Y0166516D01*
X0133163Y0167413D01*
X0133414Y0168351D01*
X0133500Y0169000D01*
X0133332Y0168045D02*
X0134211Y0168045D01*
X0134211Y0166447D02*
X0132751Y0166447D01*
X0131659Y0164848D02*
X0134211Y0164848D01*
X0134211Y0163250D02*
X0129606Y0163250D01*
X0126931Y0163250D02*
X0125331Y0163250D01*
X0125331Y0164848D02*
X0126931Y0164848D01*
X0126931Y0166447D02*
X0125331Y0166447D01*
X0125331Y0168045D02*
X0126931Y0168045D01*
X0126931Y0172841D02*
X0125331Y0172841D01*
X0125331Y0174439D02*
X0126931Y0174439D01*
X0126931Y0176038D02*
X0125331Y0176038D01*
X0122114Y0176038D02*
X0110182Y0176038D01*
X0110024Y0174439D02*
X0107910Y0174439D01*
X0107358Y0172841D02*
X0104035Y0172841D01*
X0104109Y0172787D02*
X0103527Y0173210D01*
X0102886Y0173537D01*
X0102201Y0173759D01*
X0101491Y0173872D01*
X0101217Y0173872D01*
X0101217Y0169386D01*
X0105702Y0169386D01*
X0105702Y0169660D01*
X0105590Y0170371D01*
X0105367Y0171055D01*
X0105041Y0171696D01*
X0104618Y0172278D01*
X0104109Y0172787D01*
X0104351Y0174439D02*
X0097910Y0174439D01*
X0098735Y0173210D02*
X0098152Y0172787D01*
X0097644Y0172278D01*
X0097221Y0171696D01*
X0096894Y0171055D01*
X0096672Y0170371D01*
X0096559Y0169660D01*
X0096559Y0169386D01*
X0101045Y0169386D01*
X0101045Y0173872D01*
X0100771Y0173872D01*
X0100060Y0173759D01*
X0099376Y0173537D01*
X0098735Y0173210D01*
X0098226Y0172841D02*
X0094904Y0172841D01*
X0094351Y0174439D02*
X0092238Y0174439D01*
X0092079Y0176038D02*
X0090182Y0176038D01*
X0090024Y0174439D02*
X0087910Y0174439D01*
X0087358Y0172841D02*
X0077892Y0172841D01*
X0077791Y0173084D02*
X0077305Y0173926D01*
X0076714Y0174696D01*
X0076027Y0175383D01*
X0075256Y0175975D01*
X0074415Y0176460D01*
X0073518Y0176832D01*
X0072579Y0177083D01*
X0071931Y0177169D01*
X0071931Y0170600D01*
X0078500Y0170600D01*
X0078414Y0171249D01*
X0078163Y0172187D01*
X0077791Y0173084D01*
X0076911Y0174439D02*
X0084351Y0174439D01*
X0082079Y0176038D02*
X0075147Y0176038D01*
X0071931Y0176038D02*
X0070331Y0176038D01*
X0070331Y0177169D02*
X0069682Y0177083D01*
X0068744Y0176832D01*
X0067846Y0176460D01*
X0067005Y0175975D01*
X0066234Y0175383D01*
X0065547Y0174696D01*
X0064956Y0173926D01*
X0064470Y0173084D01*
X0064099Y0172187D01*
X0063847Y0171249D01*
X0063762Y0170600D01*
X0070331Y0170600D01*
X0070331Y0177169D01*
X0070331Y0174439D02*
X0071931Y0174439D01*
X0071931Y0172841D02*
X0070331Y0172841D01*
X0070331Y0171242D02*
X0071931Y0171242D01*
X0071931Y0170600D02*
X0070331Y0170600D01*
X0070331Y0169000D01*
X0071931Y0169000D01*
X0071931Y0170600D01*
X0071931Y0169644D02*
X0085959Y0169644D01*
X0086053Y0168045D02*
X0078332Y0168045D01*
X0078414Y0168351D02*
X0078500Y0169000D01*
X0071931Y0169000D01*
X0071931Y0162431D01*
X0072579Y0162517D01*
X0073518Y0162768D01*
X0074415Y0163140D01*
X0075256Y0163625D01*
X0076027Y0164217D01*
X0076714Y0164904D01*
X0077305Y0165674D01*
X0077791Y0166516D01*
X0078163Y0167413D01*
X0078414Y0168351D01*
X0077751Y0166447D02*
X0086715Y0166447D01*
X0088364Y0164848D02*
X0076659Y0164848D01*
X0074606Y0163250D02*
X0088932Y0163250D01*
X0090370Y0161651D02*
X0004200Y0161651D01*
X0004200Y0160053D02*
X0091969Y0160053D01*
X0093567Y0158454D02*
X0004200Y0158454D01*
X0004200Y0156856D02*
X0095166Y0156856D01*
X0096325Y0155257D02*
X0004200Y0155257D01*
X0004200Y0153659D02*
X0096325Y0153659D01*
X0096325Y0152060D02*
X0004200Y0152060D01*
X0004200Y0150462D02*
X0096325Y0150462D01*
X0096325Y0148863D02*
X0004200Y0148863D01*
X0004200Y0147265D02*
X0096325Y0147265D01*
X0096325Y0145666D02*
X0035205Y0145666D01*
X0034632Y0146239D02*
X0032795Y0147000D01*
X0030805Y0147000D01*
X0028968Y0146239D01*
X0027561Y0144832D01*
X0026800Y0142995D01*
X0026800Y0135805D01*
X0027561Y0133968D01*
X0028968Y0132561D01*
X0030805Y0131800D01*
X0032795Y0131800D01*
X0034632Y0132561D01*
X0036039Y0133968D01*
X0036800Y0135805D01*
X0036800Y0142995D01*
X0036039Y0144832D01*
X0034632Y0146239D01*
X0036356Y0144068D02*
X0096325Y0144068D01*
X0096325Y0142469D02*
X0036800Y0142469D01*
X0036800Y0140870D02*
X0096325Y0140870D01*
X0096325Y0139272D02*
X0036800Y0139272D01*
X0036800Y0137673D02*
X0096325Y0137673D01*
X0096325Y0136075D02*
X0082096Y0136075D01*
X0083695Y0134476D02*
X0094905Y0134476D01*
X0094300Y0132878D02*
X0084300Y0132878D01*
X0084300Y0131279D02*
X0094300Y0131279D01*
X0094348Y0129681D02*
X0084252Y0129681D01*
X0083956Y0128082D02*
X0095008Y0128082D01*
X0093409Y0126484D02*
X0083956Y0126484D01*
X0083956Y0124885D02*
X0091811Y0124885D01*
X0090212Y0123287D02*
X0083956Y0123287D01*
X0083956Y0121688D02*
X0087117Y0121688D01*
X0085519Y0120090D02*
X0083956Y0120090D01*
X0083956Y0118491D02*
X0084300Y0118491D01*
X0084300Y0116893D02*
X0083956Y0116893D01*
X0083956Y0115294D02*
X0084300Y0115294D01*
X0084119Y0113696D02*
X0085333Y0113696D01*
X0085717Y0112097D02*
X0086932Y0112097D01*
X0087316Y0110499D02*
X0104683Y0110499D01*
X0104683Y0112097D02*
X0091668Y0112097D01*
X0093267Y0113696D02*
X0104683Y0113696D01*
X0104300Y0115294D02*
X0094300Y0115294D01*
X0094849Y0116893D02*
X0104300Y0116893D01*
X0104300Y0118491D02*
X0096448Y0118491D01*
X0098046Y0120090D02*
X0105519Y0120090D01*
X0107117Y0121688D02*
X0099645Y0121688D01*
X0104683Y0108900D02*
X0088914Y0108900D01*
X0090513Y0107302D02*
X0104683Y0107302D01*
X0104683Y0105703D02*
X0092111Y0105703D01*
X0093710Y0104105D02*
X0104683Y0104105D01*
X0104158Y0102506D02*
X0095308Y0102506D01*
X0096907Y0100908D02*
X0102559Y0100908D01*
X0100961Y0099309D02*
X0098505Y0099309D01*
X0094053Y0091317D02*
X0093798Y0091317D01*
X0093798Y0089718D02*
X0094311Y0089718D01*
X0093798Y0088120D02*
X0095909Y0088120D01*
X0093377Y0086521D02*
X0124369Y0086521D01*
X0124369Y0084923D02*
X0092129Y0084923D01*
X0091891Y0084684D02*
X0091891Y0084684D01*
X0090531Y0083324D02*
X0124369Y0083324D01*
X0133168Y0083324D02*
X0138739Y0083324D01*
X0139092Y0084923D02*
X0133168Y0084923D01*
X0133168Y0086521D02*
X0137857Y0086521D01*
X0137200Y0088120D02*
X0133168Y0088120D01*
X0133168Y0089718D02*
X0137200Y0089718D01*
X0137541Y0091317D02*
X0133168Y0091317D01*
X0133168Y0092915D02*
X0138330Y0092915D01*
X0139501Y0094514D02*
X0133168Y0094514D01*
X0133168Y0096112D02*
X0138026Y0096112D01*
X0137364Y0097711D02*
X0132534Y0097711D01*
X0130986Y0099309D02*
X0137200Y0099309D01*
X0137372Y0100908D02*
X0129387Y0100908D01*
X0127789Y0102506D02*
X0138034Y0102506D01*
X0139519Y0104105D02*
X0126190Y0104105D01*
X0124592Y0105703D02*
X0138311Y0105703D01*
X0137533Y0107302D02*
X0123326Y0107302D01*
X0123326Y0108900D02*
X0137200Y0108900D01*
X0137202Y0110499D02*
X0123326Y0110499D01*
X0123326Y0112097D02*
X0126932Y0112097D01*
X0125333Y0113696D02*
X0123326Y0113696D01*
X0123485Y0115294D02*
X0124300Y0115294D01*
X0131668Y0112097D02*
X0137864Y0112097D01*
X0139111Y0113696D02*
X0133267Y0113696D01*
X0134300Y0115294D02*
X0141993Y0115294D01*
X0134300Y0116893D02*
X0157349Y0116893D01*
X0157349Y0118491D02*
X0134300Y0118491D01*
X0133081Y0120090D02*
X0157349Y0120090D01*
X0157349Y0121688D02*
X0131483Y0121688D01*
X0131478Y0123287D02*
X0157349Y0123287D01*
X0157349Y0124885D02*
X0133076Y0124885D01*
X0134675Y0126484D02*
X0157349Y0126484D01*
X0157349Y0128082D02*
X0136273Y0128082D01*
X0137872Y0129681D02*
X0157349Y0129681D01*
X0157349Y0131279D02*
X0139470Y0131279D01*
X0141069Y0132878D02*
X0157349Y0132878D01*
X0157349Y0134476D02*
X0142476Y0134476D01*
X0143011Y0136075D02*
X0157349Y0136075D01*
X0157349Y0137673D02*
X0143011Y0137673D01*
X0143011Y0139272D02*
X0157349Y0139272D01*
X0157349Y0140870D02*
X0143011Y0140870D01*
X0143011Y0142469D02*
X0157349Y0142469D01*
X0157349Y0144068D02*
X0143011Y0144068D01*
X0143011Y0145666D02*
X0157349Y0145666D01*
X0157349Y0147265D02*
X0143011Y0147265D01*
X0143011Y0148863D02*
X0157349Y0148863D01*
X0157349Y0150462D02*
X0143011Y0150462D01*
X0143011Y0152060D02*
X0157349Y0152060D01*
X0157349Y0153659D02*
X0143011Y0153659D01*
X0143011Y0155257D02*
X0157349Y0155257D01*
X0157349Y0156856D02*
X0143011Y0156856D01*
X0143011Y0158454D02*
X0157349Y0158454D01*
X0157349Y0160053D02*
X0143011Y0160053D01*
X0143011Y0161651D02*
X0157349Y0161651D01*
X0157349Y0163250D02*
X0143011Y0163250D01*
X0143011Y0164848D02*
X0157349Y0164848D01*
X0157349Y0166447D02*
X0143011Y0166447D01*
X0143011Y0168045D02*
X0157349Y0168045D01*
X0157349Y0169644D02*
X0143011Y0169644D01*
X0143011Y0171242D02*
X0157349Y0171242D01*
X0157752Y0172841D02*
X0143011Y0172841D01*
X0143011Y0174439D02*
X0159140Y0174439D01*
X0165149Y0166447D02*
X0175821Y0166447D01*
X0177420Y0164848D02*
X0165149Y0164848D01*
X0165149Y0163250D02*
X0175356Y0163250D01*
X0174650Y0161651D02*
X0165149Y0161651D01*
X0165149Y0160053D02*
X0174650Y0160053D01*
X0174650Y0158454D02*
X0165149Y0158454D01*
X0165149Y0156856D02*
X0174650Y0156856D01*
X0174650Y0155257D02*
X0165149Y0155257D01*
X0165149Y0153659D02*
X0174650Y0153659D01*
X0174650Y0152060D02*
X0165149Y0152060D01*
X0165149Y0150462D02*
X0175244Y0150462D01*
X0165149Y0148863D02*
X0193101Y0148863D01*
X0193101Y0147265D02*
X0165149Y0147265D01*
X0165149Y0145666D02*
X0193101Y0145666D01*
X0193101Y0144068D02*
X0165149Y0144068D01*
X0165149Y0142469D02*
X0193101Y0142469D01*
X0193101Y0140870D02*
X0165149Y0140870D01*
X0165149Y0139272D02*
X0193101Y0139272D01*
X0193101Y0137673D02*
X0165149Y0137673D01*
X0165149Y0136075D02*
X0193101Y0136075D01*
X0193101Y0134476D02*
X0165149Y0134476D01*
X0165149Y0132878D02*
X0193101Y0132878D01*
X0193101Y0131279D02*
X0165149Y0131279D01*
X0165149Y0129681D02*
X0193101Y0129681D01*
X0193101Y0128082D02*
X0165149Y0128082D01*
X0165149Y0126484D02*
X0193101Y0126484D01*
X0193101Y0124885D02*
X0165149Y0124885D01*
X0165149Y0123287D02*
X0193101Y0123287D01*
X0193101Y0121688D02*
X0165149Y0121688D01*
X0165149Y0120090D02*
X0193101Y0120090D01*
X0193101Y0118491D02*
X0165149Y0118491D01*
X0165149Y0116893D02*
X0193101Y0116893D01*
X0193101Y0115294D02*
X0165149Y0115294D01*
X0165149Y0113696D02*
X0193101Y0113696D01*
X0193101Y0112097D02*
X0165149Y0112097D01*
X0165149Y0110499D02*
X0193101Y0110499D01*
X0193101Y0108900D02*
X0165149Y0108900D01*
X0165149Y0107302D02*
X0193101Y0107302D01*
X0193101Y0105703D02*
X0165149Y0105703D01*
X0165149Y0104105D02*
X0193101Y0104105D01*
X0157349Y0104105D02*
X0154081Y0104105D01*
X0155289Y0105703D02*
X0157349Y0105703D01*
X0157349Y0107302D02*
X0156067Y0107302D01*
X0156400Y0108900D02*
X0157349Y0108900D01*
X0157349Y0110499D02*
X0156398Y0110499D01*
X0155736Y0112097D02*
X0157349Y0112097D01*
X0157349Y0113696D02*
X0154489Y0113696D01*
X0157349Y0115294D02*
X0151607Y0115294D01*
X0155566Y0102506D02*
X0157349Y0102506D01*
X0157349Y0100908D02*
X0156228Y0100908D01*
X0156400Y0099309D02*
X0157349Y0099309D01*
X0157349Y0097711D02*
X0156236Y0097711D01*
X0155574Y0096112D02*
X0157349Y0096112D01*
X0157349Y0094514D02*
X0154099Y0094514D01*
X0155270Y0092915D02*
X0157349Y0092915D01*
X0157349Y0091317D02*
X0156059Y0091317D01*
X0156400Y0089718D02*
X0157349Y0089718D01*
X0157349Y0088120D02*
X0156400Y0088120D01*
X0155743Y0086521D02*
X0157349Y0086521D01*
X0157349Y0084923D02*
X0154508Y0084923D01*
X0154861Y0083324D02*
X0157349Y0083324D01*
X0157349Y0081726D02*
X0155890Y0081726D01*
X0156400Y0080127D02*
X0157349Y0080127D01*
X0157349Y0078529D02*
X0156400Y0078529D01*
X0155913Y0076930D02*
X0157349Y0076930D01*
X0157349Y0075332D02*
X0154917Y0075332D01*
X0154452Y0073733D02*
X0157349Y0073733D01*
X0157349Y0072134D02*
X0155720Y0072134D01*
X0156382Y0070536D02*
X0157349Y0070536D01*
X0157349Y0068937D02*
X0156400Y0068937D01*
X0156082Y0067339D02*
X0157349Y0067339D01*
X0157349Y0065740D02*
X0155326Y0065740D01*
X0154043Y0064142D02*
X0157349Y0064142D01*
X0157349Y0062543D02*
X0155551Y0062543D01*
X0156213Y0060945D02*
X0157349Y0060945D01*
X0157349Y0059346D02*
X0156400Y0059346D01*
X0156251Y0057748D02*
X0157349Y0057748D01*
X0157349Y0056149D02*
X0155589Y0056149D01*
X0154136Y0054551D02*
X0157349Y0054551D01*
X0157349Y0052952D02*
X0154384Y0052952D01*
X0155411Y0051354D02*
X0157349Y0051354D01*
X0157349Y0049755D02*
X0155795Y0049755D01*
X0155686Y0048157D02*
X0157349Y0048157D01*
X0157349Y0046558D02*
X0155064Y0046558D01*
X0153613Y0044960D02*
X0157349Y0044960D01*
X0157349Y0043361D02*
X0154824Y0043361D01*
X0155874Y0041763D02*
X0157349Y0041763D01*
X0157349Y0040164D02*
X0156400Y0040164D01*
X0156400Y0038566D02*
X0157349Y0038566D01*
X0156452Y0036967D02*
X0155928Y0036967D01*
X0139987Y0044960D02*
X0139075Y0044960D01*
X0138536Y0046558D02*
X0137477Y0046558D01*
X0137105Y0048157D02*
X0137914Y0048157D01*
X0137805Y0049755D02*
X0137105Y0049755D01*
X0137105Y0051354D02*
X0138189Y0051354D01*
X0139216Y0052952D02*
X0137105Y0052952D01*
X0137105Y0054551D02*
X0139464Y0054551D01*
X0138011Y0056149D02*
X0137105Y0056149D01*
X0137105Y0057748D02*
X0137349Y0057748D01*
X0137200Y0059346D02*
X0137105Y0059346D01*
X0137105Y0060945D02*
X0137387Y0060945D01*
X0137105Y0062543D02*
X0138049Y0062543D01*
X0137105Y0064142D02*
X0139557Y0064142D01*
X0138274Y0065740D02*
X0137105Y0065740D01*
X0137105Y0067339D02*
X0137518Y0067339D01*
X0137200Y0068937D02*
X0137105Y0068937D01*
X0137105Y0070536D02*
X0137218Y0070536D01*
X0137105Y0072134D02*
X0137880Y0072134D01*
X0137105Y0073733D02*
X0139148Y0073733D01*
X0138683Y0075332D02*
X0136772Y0075332D01*
X0137687Y0076930D02*
X0135648Y0076930D01*
X0134300Y0078529D02*
X0137200Y0078529D01*
X0137200Y0080127D02*
X0133168Y0080127D01*
X0133168Y0081726D02*
X0137710Y0081726D01*
X0122100Y0057748D02*
X0121500Y0057748D01*
X0121500Y0056149D02*
X0122100Y0056149D01*
X0122100Y0052952D02*
X0121500Y0052952D01*
X0121500Y0051354D02*
X0122100Y0051354D01*
X0125963Y0051354D02*
X0128306Y0051354D01*
X0128306Y0052952D02*
X0126725Y0052952D01*
X0124810Y0043361D02*
X0128666Y0043361D01*
X0129827Y0041763D02*
X0126408Y0041763D01*
X0126800Y0040164D02*
X0131426Y0040164D01*
X0133024Y0038566D02*
X0126800Y0038566D01*
X0126763Y0036967D02*
X0134623Y0036967D01*
X0136221Y0035369D02*
X0126763Y0035369D01*
X0126763Y0033770D02*
X0137820Y0033770D01*
X0106894Y0072134D02*
X0091706Y0072134D01*
X0093304Y0073733D02*
X0105296Y0073733D01*
X0104300Y0075332D02*
X0094300Y0075332D01*
X0094300Y0076930D02*
X0104300Y0076930D01*
X0104300Y0078529D02*
X0094300Y0078529D01*
X0093044Y0080127D02*
X0105556Y0080127D01*
X0107155Y0081726D02*
X0091445Y0081726D01*
X0084480Y0089718D02*
X0084289Y0089718D01*
X0084300Y0089729D02*
X0081371Y0086800D01*
X0077229Y0086800D01*
X0074300Y0089729D01*
X0074300Y0093871D01*
X0077229Y0096800D01*
X0081371Y0096800D01*
X0084300Y0093871D01*
X0084300Y0089729D01*
X0084300Y0091317D02*
X0084998Y0091317D01*
X0084998Y0092915D02*
X0084300Y0092915D01*
X0083657Y0094514D02*
X0084998Y0094514D01*
X0084998Y0096112D02*
X0082059Y0096112D01*
X0084998Y0097711D02*
X0066236Y0097711D01*
X0066400Y0099309D02*
X0084998Y0099309D01*
X0084462Y0100908D02*
X0066228Y0100908D01*
X0065566Y0102506D02*
X0082863Y0102506D01*
X0081265Y0104105D02*
X0064081Y0104105D01*
X0065289Y0105703D02*
X0079666Y0105703D01*
X0078068Y0107302D02*
X0066067Y0107302D01*
X0066400Y0108900D02*
X0076469Y0108900D01*
X0075430Y0110499D02*
X0066398Y0110499D01*
X0065736Y0112097D02*
X0075156Y0112097D01*
X0075156Y0113696D02*
X0064489Y0113696D01*
X0061607Y0115294D02*
X0075156Y0115294D01*
X0075156Y0116893D02*
X0004200Y0116893D01*
X0004200Y0118491D02*
X0075156Y0118491D01*
X0075156Y0120090D02*
X0004200Y0120090D01*
X0004200Y0121688D02*
X0075156Y0121688D01*
X0075156Y0123287D02*
X0004200Y0123287D01*
X0004200Y0124885D02*
X0075156Y0124885D01*
X0075156Y0126484D02*
X0004200Y0126484D01*
X0004200Y0128082D02*
X0075156Y0128082D01*
X0074348Y0129681D02*
X0004200Y0129681D01*
X0004200Y0131279D02*
X0074300Y0131279D01*
X0074300Y0132878D02*
X0034949Y0132878D01*
X0036249Y0134476D02*
X0074905Y0134476D01*
X0076504Y0136075D02*
X0036800Y0136075D01*
X0028651Y0132878D02*
X0024949Y0132878D01*
X0024632Y0132561D02*
X0026039Y0133968D01*
X0026800Y0135805D01*
X0026800Y0142995D01*
X0026039Y0144832D01*
X0024632Y0146239D01*
X0022795Y0147000D01*
X0020805Y0147000D01*
X0018968Y0146239D01*
X0017561Y0144832D01*
X0016800Y0142995D01*
X0016800Y0135805D01*
X0017561Y0133968D01*
X0018968Y0132561D01*
X0020805Y0131800D01*
X0022795Y0131800D01*
X0024632Y0132561D01*
X0026249Y0134476D02*
X0027350Y0134476D01*
X0026800Y0136075D02*
X0026800Y0136075D01*
X0026800Y0137673D02*
X0026800Y0137673D01*
X0026800Y0139272D02*
X0026800Y0139272D01*
X0026800Y0140870D02*
X0026800Y0140870D01*
X0026800Y0142469D02*
X0026800Y0142469D01*
X0026356Y0144068D02*
X0027244Y0144068D01*
X0028395Y0145666D02*
X0025205Y0145666D01*
X0018395Y0145666D02*
X0004200Y0145666D01*
X0004200Y0144068D02*
X0017244Y0144068D01*
X0016800Y0142469D02*
X0004200Y0142469D01*
X0004200Y0140870D02*
X0016800Y0140870D01*
X0016800Y0139272D02*
X0004200Y0139272D01*
X0004200Y0137673D02*
X0016800Y0137673D01*
X0016800Y0136075D02*
X0004200Y0136075D01*
X0004200Y0134476D02*
X0017350Y0134476D01*
X0018651Y0132878D02*
X0004200Y0132878D01*
X0004200Y0115294D02*
X0051993Y0115294D01*
X0049111Y0113696D02*
X0004200Y0113696D01*
X0021706Y0072134D02*
X0021800Y0072134D01*
X0021800Y0070536D02*
X0021448Y0070536D01*
X0021448Y0068937D02*
X0022591Y0068937D01*
X0021448Y0067339D02*
X0024190Y0067339D01*
X0064043Y0064142D02*
X0067282Y0064142D01*
X0067282Y0065740D02*
X0065326Y0065740D01*
X0066082Y0067339D02*
X0067282Y0067339D01*
X0067282Y0068937D02*
X0066400Y0068937D01*
X0066382Y0070536D02*
X0067282Y0070536D01*
X0067515Y0072134D02*
X0065720Y0072134D01*
X0064452Y0073733D02*
X0068495Y0073733D01*
X0070093Y0075332D02*
X0064917Y0075332D01*
X0065913Y0076930D02*
X0071692Y0076930D01*
X0073290Y0078529D02*
X0066400Y0078529D01*
X0066400Y0080127D02*
X0074889Y0080127D01*
X0076487Y0081726D02*
X0065890Y0081726D01*
X0064861Y0083324D02*
X0078086Y0083324D01*
X0079684Y0084923D02*
X0064508Y0084923D01*
X0065743Y0086521D02*
X0081283Y0086521D01*
X0082691Y0088120D02*
X0082881Y0088120D01*
X0075909Y0088120D02*
X0066400Y0088120D01*
X0066400Y0089718D02*
X0074311Y0089718D01*
X0074300Y0091317D02*
X0066059Y0091317D01*
X0065270Y0092915D02*
X0074300Y0092915D01*
X0074943Y0094514D02*
X0064099Y0094514D01*
X0065574Y0096112D02*
X0076541Y0096112D01*
X0067282Y0062543D02*
X0065551Y0062543D01*
X0066213Y0060945D02*
X0067282Y0060945D01*
X0067282Y0059346D02*
X0066400Y0059346D01*
X0066251Y0057748D02*
X0067282Y0057748D01*
X0067282Y0056149D02*
X0065589Y0056149D01*
X0064136Y0054551D02*
X0067282Y0054551D01*
X0067282Y0052952D02*
X0065233Y0052952D01*
X0066044Y0051354D02*
X0067282Y0051354D01*
X0122653Y0128082D02*
X0123828Y0128082D01*
X0124252Y0129681D02*
X0125427Y0129681D01*
X0124300Y0131279D02*
X0127025Y0131279D01*
X0128624Y0132878D02*
X0124300Y0132878D01*
X0123695Y0134476D02*
X0130222Y0134476D01*
X0131821Y0136075D02*
X0122096Y0136075D01*
X0108364Y0164848D02*
X0102223Y0164848D01*
X0102201Y0164841D02*
X0102886Y0165063D01*
X0103527Y0165390D01*
X0104109Y0165813D01*
X0104618Y0166322D01*
X0105041Y0166904D01*
X0105367Y0167545D01*
X0105590Y0168229D01*
X0105702Y0168940D01*
X0105702Y0169214D01*
X0101217Y0169214D01*
X0101217Y0169386D01*
X0101045Y0169386D01*
X0101045Y0169214D01*
X0101217Y0169214D01*
X0101217Y0164728D01*
X0101491Y0164728D01*
X0102201Y0164841D01*
X0101217Y0164848D02*
X0101045Y0164848D01*
X0101045Y0164728D02*
X0101045Y0169214D01*
X0096559Y0169214D01*
X0096559Y0168940D01*
X0096672Y0168229D01*
X0096894Y0167545D01*
X0097221Y0166904D01*
X0097644Y0166322D01*
X0098152Y0165813D01*
X0098735Y0165390D01*
X0099376Y0165063D01*
X0100060Y0164841D01*
X0100771Y0164728D01*
X0101045Y0164728D01*
X0100038Y0164848D02*
X0098204Y0164848D01*
X0097553Y0166447D02*
X0096606Y0166447D01*
X0096731Y0168045D02*
X0096251Y0168045D01*
X0096302Y0169644D02*
X0096559Y0169644D01*
X0096989Y0171242D02*
X0095924Y0171242D01*
X0101045Y0171242D02*
X0101217Y0171242D01*
X0101217Y0169644D02*
X0101045Y0169644D01*
X0101045Y0168045D02*
X0101217Y0168045D01*
X0101217Y0166447D02*
X0101045Y0166447D01*
X0104709Y0166447D02*
X0106715Y0166447D01*
X0106053Y0168045D02*
X0105530Y0168045D01*
X0105702Y0169644D02*
X0105959Y0169644D01*
X0106337Y0171242D02*
X0105272Y0171242D01*
X0102079Y0176038D02*
X0100182Y0176038D01*
X0101039Y0177636D02*
X0101222Y0177636D01*
X0101168Y0180833D02*
X0101093Y0180833D01*
X0100313Y0182432D02*
X0101949Y0182432D01*
X0103989Y0184030D02*
X0098225Y0184030D01*
X0094036Y0184030D02*
X0088225Y0184030D01*
X0090313Y0182432D02*
X0091949Y0182432D01*
X0091168Y0180833D02*
X0091093Y0180833D01*
X0091039Y0177636D02*
X0091222Y0177636D01*
X0086337Y0171242D02*
X0078415Y0171242D01*
X0081222Y0177636D02*
X0023200Y0177636D01*
X0023200Y0177323D02*
X0023200Y0186277D01*
X0022835Y0187159D01*
X0022159Y0187835D01*
X0021277Y0188200D01*
X0012323Y0188200D01*
X0011441Y0187835D01*
X0010765Y0187159D01*
X0010400Y0186277D01*
X0010400Y0177323D01*
X0010765Y0176441D01*
X0011441Y0175765D01*
X0012323Y0175400D01*
X0021277Y0175400D01*
X0022159Y0175765D01*
X0022835Y0176441D01*
X0023200Y0177323D01*
X0022432Y0176038D02*
X0067114Y0176038D01*
X0065350Y0174439D02*
X0004200Y0174439D01*
X0004200Y0172841D02*
X0013567Y0172841D01*
X0013760Y0172981D02*
X0013022Y0172444D01*
X0012376Y0171799D01*
X0011839Y0171060D01*
X0011425Y0170247D01*
X0011143Y0169379D01*
X0011000Y0168477D01*
X0011000Y0168402D01*
X0016419Y0168402D01*
X0016419Y0173820D01*
X0016344Y0173820D01*
X0015442Y0173678D01*
X0014574Y0173396D01*
X0013760Y0172981D01*
X0011972Y0171242D02*
X0004200Y0171242D01*
X0004200Y0169644D02*
X0011229Y0169644D01*
X0011000Y0167639D02*
X0011000Y0167564D01*
X0011143Y0166662D01*
X0011425Y0165794D01*
X0011839Y0164981D01*
X0012376Y0164242D01*
X0013022Y0163596D01*
X0013760Y0163060D01*
X0014574Y0162645D01*
X0015442Y0162363D01*
X0016344Y0162220D01*
X0016419Y0162220D01*
X0016419Y0167639D01*
X0017181Y0167639D01*
X0017181Y0162220D01*
X0017256Y0162220D01*
X0018158Y0162363D01*
X0019026Y0162645D01*
X0019840Y0163060D01*
X0020578Y0163596D01*
X0021224Y0164242D01*
X0021761Y0164981D01*
X0022175Y0165794D01*
X0022457Y0166662D01*
X0022600Y0167564D01*
X0022600Y0167639D01*
X0017181Y0167639D01*
X0017181Y0168402D01*
X0016419Y0168402D01*
X0016419Y0167639D01*
X0011000Y0167639D01*
X0011213Y0166447D02*
X0004200Y0166447D01*
X0004200Y0168045D02*
X0016419Y0168045D01*
X0017181Y0168045D02*
X0063929Y0168045D01*
X0063847Y0168351D02*
X0064099Y0167413D01*
X0064470Y0166516D01*
X0064956Y0165674D01*
X0065547Y0164904D01*
X0066234Y0164217D01*
X0067005Y0163625D01*
X0067846Y0163140D01*
X0068744Y0162768D01*
X0069682Y0162517D01*
X0070331Y0162431D01*
X0070331Y0169000D01*
X0063762Y0169000D01*
X0063847Y0168351D01*
X0064510Y0166447D02*
X0022387Y0166447D01*
X0021664Y0164848D02*
X0065603Y0164848D01*
X0067656Y0163250D02*
X0020101Y0163250D01*
X0017181Y0163250D02*
X0016419Y0163250D01*
X0016419Y0164848D02*
X0017181Y0164848D01*
X0017181Y0166447D02*
X0016419Y0166447D01*
X0017181Y0168402D02*
X0022600Y0168402D01*
X0022600Y0168477D01*
X0022457Y0169379D01*
X0022175Y0170247D01*
X0021761Y0171060D01*
X0021224Y0171799D01*
X0020578Y0172444D01*
X0019840Y0172981D01*
X0019026Y0173396D01*
X0018158Y0173678D01*
X0017256Y0173820D01*
X0017181Y0173820D01*
X0017181Y0168402D01*
X0017181Y0169644D02*
X0016419Y0169644D01*
X0016419Y0171242D02*
X0017181Y0171242D01*
X0017181Y0172841D02*
X0016419Y0172841D01*
X0020033Y0172841D02*
X0064369Y0172841D01*
X0063846Y0171242D02*
X0021628Y0171242D01*
X0022371Y0169644D02*
X0070331Y0169644D01*
X0070331Y0168045D02*
X0071931Y0168045D01*
X0071931Y0166447D02*
X0070331Y0166447D01*
X0070331Y0164848D02*
X0071931Y0164848D01*
X0071931Y0163250D02*
X0070331Y0163250D01*
X0080959Y0179235D02*
X0023200Y0179235D01*
X0023200Y0180833D02*
X0081168Y0180833D01*
X0081949Y0182432D02*
X0023200Y0182432D01*
X0023200Y0184030D02*
X0084036Y0184030D01*
X0080381Y0195500D02*
X0076880Y0195500D01*
X0073646Y0196840D01*
X0071170Y0199315D01*
X0069831Y0202550D01*
X0069831Y0206050D01*
X0071170Y0209285D01*
X0073646Y0211760D01*
X0076880Y0213100D01*
X0080381Y0213100D01*
X0083616Y0211760D01*
X0086091Y0209285D01*
X0087431Y0206050D01*
X0087431Y0202550D01*
X0086091Y0199315D01*
X0083616Y0196840D01*
X0080381Y0195500D01*
X0083564Y0196818D02*
X0113697Y0196818D01*
X0113646Y0196840D02*
X0116880Y0195500D01*
X0120381Y0195500D01*
X0123616Y0196840D01*
X0126091Y0199315D01*
X0127431Y0202550D01*
X0127431Y0206050D01*
X0126091Y0209285D01*
X0123616Y0211760D01*
X0120381Y0213100D01*
X0116880Y0213100D01*
X0113646Y0211760D01*
X0111170Y0209285D01*
X0109831Y0206050D01*
X0109831Y0202550D01*
X0111170Y0199315D01*
X0113646Y0196840D01*
X0112069Y0198417D02*
X0085193Y0198417D01*
X0086381Y0200015D02*
X0110880Y0200015D01*
X0110218Y0201614D02*
X0087043Y0201614D01*
X0087431Y0203212D02*
X0109831Y0203212D01*
X0109831Y0204811D02*
X0087431Y0204811D01*
X0087282Y0206409D02*
X0109979Y0206409D01*
X0110642Y0208008D02*
X0086620Y0208008D01*
X0085769Y0209606D02*
X0111492Y0209606D01*
X0113091Y0211205D02*
X0084171Y0211205D01*
X0081097Y0212803D02*
X0116164Y0212803D01*
X0121097Y0212803D02*
X0161470Y0212803D01*
X0161131Y0214402D02*
X0039319Y0214402D01*
X0039549Y0216001D02*
X0160901Y0216001D01*
X0160671Y0217599D02*
X0039779Y0217599D01*
X0039761Y0219198D02*
X0066911Y0219198D01*
X0065246Y0220796D02*
X0039531Y0220796D01*
X0039301Y0222395D02*
X0064313Y0222395D01*
X0063829Y0223993D02*
X0038923Y0223993D01*
X0038193Y0225592D02*
X0070331Y0225592D01*
X0070331Y0223993D02*
X0071931Y0223993D01*
X0071931Y0222395D02*
X0070331Y0222395D01*
X0070331Y0220796D02*
X0071931Y0220796D01*
X0071931Y0219198D02*
X0070331Y0219198D01*
X0075350Y0219198D02*
X0121911Y0219198D01*
X0120246Y0220796D02*
X0077015Y0220796D01*
X0077948Y0222395D02*
X0119313Y0222395D01*
X0118829Y0223993D02*
X0078433Y0223993D01*
X0078296Y0227190D02*
X0118966Y0227190D01*
X0119588Y0228789D02*
X0077673Y0228789D01*
X0076523Y0230387D02*
X0120738Y0230387D01*
X0125331Y0225592D02*
X0071931Y0225592D01*
X0065738Y0230387D02*
X0035141Y0230387D01*
X0036526Y0228789D02*
X0064588Y0228789D01*
X0063966Y0227190D02*
X0037463Y0227190D01*
X0038981Y0212803D02*
X0076164Y0212803D01*
X0073091Y0211205D02*
X0038251Y0211205D01*
X0037521Y0209606D02*
X0071492Y0209606D01*
X0070642Y0208008D02*
X0036635Y0208008D01*
X0035250Y0206409D02*
X0069979Y0206409D01*
X0069831Y0204811D02*
X0033865Y0204811D01*
X0031640Y0203212D02*
X0069831Y0203212D01*
X0070218Y0201614D02*
X0029153Y0201614D01*
X0022767Y0187227D02*
X0107186Y0187227D01*
X0105587Y0185629D02*
X0023200Y0185629D01*
X0010833Y0187227D02*
X0004200Y0187227D01*
X0004200Y0185629D02*
X0010400Y0185629D01*
X0010400Y0184030D02*
X0004200Y0184030D01*
X0004200Y0182432D02*
X0010400Y0182432D01*
X0010400Y0180833D02*
X0004200Y0180833D01*
X0004200Y0179235D02*
X0010400Y0179235D01*
X0010400Y0177636D02*
X0004200Y0177636D01*
X0004200Y0176038D02*
X0011168Y0176038D01*
X0011936Y0164848D02*
X0004200Y0164848D01*
X0004200Y0163250D02*
X0013499Y0163250D01*
X0004200Y0188826D02*
X0108784Y0188826D01*
X0110383Y0190424D02*
X0004200Y0190424D01*
X0004200Y0192023D02*
X0193101Y0192023D01*
X0193101Y0193621D02*
X0004200Y0193621D01*
X0004200Y0195220D02*
X0193101Y0195220D01*
X0193101Y0196818D02*
X0123564Y0196818D01*
X0125193Y0198417D02*
X0193101Y0198417D01*
X0193101Y0200015D02*
X0126381Y0200015D01*
X0127043Y0201614D02*
X0171297Y0201614D01*
X0168810Y0203212D02*
X0127431Y0203212D01*
X0127431Y0204811D02*
X0166586Y0204811D01*
X0165200Y0206409D02*
X0127282Y0206409D01*
X0126620Y0208008D02*
X0163815Y0208008D01*
X0162930Y0209606D02*
X0125769Y0209606D01*
X0124171Y0211205D02*
X0162200Y0211205D01*
X0160689Y0219198D02*
X0130350Y0219198D01*
X0132015Y0220796D02*
X0160919Y0220796D01*
X0161149Y0222395D02*
X0132948Y0222395D01*
X0133433Y0223993D02*
X0161527Y0223993D01*
X0162257Y0225592D02*
X0126931Y0225592D01*
X0126931Y0223993D02*
X0125331Y0223993D01*
X0125331Y0222395D02*
X0126931Y0222395D01*
X0126931Y0220796D02*
X0125331Y0220796D01*
X0125331Y0219198D02*
X0126931Y0219198D01*
X0133296Y0227190D02*
X0162987Y0227190D01*
X0163924Y0228789D02*
X0132673Y0228789D01*
X0131523Y0230387D02*
X0165309Y0230387D01*
X0186633Y0201614D02*
X0193101Y0201614D01*
X0193101Y0203212D02*
X0189121Y0203212D01*
X0191345Y0204811D02*
X0193101Y0204811D01*
X0193101Y0206409D02*
X0192730Y0206409D01*
X0193101Y0190424D02*
X0185841Y0190424D01*
X0187445Y0188826D02*
X0193101Y0188826D01*
X0193101Y0187227D02*
X0188351Y0187227D01*
X0188950Y0185629D02*
X0193101Y0185629D01*
X0193101Y0184030D02*
X0188950Y0184030D01*
X0188741Y0182432D02*
X0193101Y0182432D01*
X0193101Y0180833D02*
X0188079Y0180833D01*
X0186787Y0179235D02*
X0193101Y0179235D01*
X0193101Y0177636D02*
X0184254Y0177636D01*
X0186453Y0176038D02*
X0193101Y0176038D01*
X0193101Y0174439D02*
X0187940Y0174439D01*
X0188602Y0172841D02*
X0193101Y0172841D01*
X0193101Y0171242D02*
X0188950Y0171242D01*
X0188950Y0169644D02*
X0193101Y0169644D01*
X0193101Y0168045D02*
X0188489Y0168045D01*
X0187779Y0166447D02*
X0193101Y0166447D01*
X0193101Y0164848D02*
X0186180Y0164848D01*
X0188244Y0163250D02*
X0193101Y0163250D01*
X0193101Y0161651D02*
X0188950Y0161651D01*
X0188950Y0160053D02*
X0193101Y0160053D01*
X0193101Y0158454D02*
X0188950Y0158454D01*
X0188950Y0156856D02*
X0193101Y0156856D01*
X0193101Y0155257D02*
X0188950Y0155257D01*
X0188950Y0153659D02*
X0193101Y0153659D01*
X0193101Y0152060D02*
X0188950Y0152060D01*
X0188356Y0150462D02*
X0193101Y0150462D01*
X0177147Y0176038D02*
X0143011Y0176038D01*
X0143011Y0177636D02*
X0179346Y0177636D01*
X0176813Y0179235D02*
X0143011Y0179235D01*
X0143011Y0180833D02*
X0175521Y0180833D01*
X0174859Y0182432D02*
X0143011Y0182432D01*
X0143011Y0184030D02*
X0174650Y0184030D01*
X0174650Y0185629D02*
X0143011Y0185629D01*
X0143011Y0187227D02*
X0175249Y0187227D01*
X0176155Y0188826D02*
X0142551Y0188826D01*
X0141249Y0190424D02*
X0177759Y0190424D01*
X0134211Y0182432D02*
X0114835Y0182432D01*
X0113237Y0180833D02*
X0134211Y0180833D01*
X0134211Y0179235D02*
X0111638Y0179235D01*
X0111039Y0177636D02*
X0134211Y0177636D01*
X0134211Y0176038D02*
X0130147Y0176038D01*
X0131911Y0174439D02*
X0134211Y0174439D01*
X0134211Y0172841D02*
X0132892Y0172841D01*
X0133415Y0171242D02*
X0134211Y0171242D01*
X0120350Y0174439D02*
X0112238Y0174439D01*
X0114904Y0172841D02*
X0119369Y0172841D01*
X0118846Y0171242D02*
X0115924Y0171242D01*
X0101217Y0172841D02*
X0101045Y0172841D01*
X0073697Y0196818D02*
X0004200Y0196818D01*
X0004200Y0198417D02*
X0072069Y0198417D01*
X0070880Y0200015D02*
X0004200Y0200015D01*
X0004200Y0201614D02*
X0013817Y0201614D01*
X0011330Y0203212D02*
X0004200Y0203212D01*
X0004200Y0204811D02*
X0009105Y0204811D01*
X0007720Y0206409D02*
X0004200Y0206409D01*
X0004200Y0208008D02*
X0006335Y0208008D01*
X0005449Y0209606D02*
X0004200Y0209606D01*
X0004200Y0211205D02*
X0004719Y0211205D01*
X0185439Y0038566D02*
X0193101Y0038566D01*
X0193101Y0036967D02*
X0188562Y0036967D01*
X0191034Y0035369D02*
X0193101Y0035369D01*
X0193101Y0033770D02*
X0192419Y0033770D01*
D24*
X0161249Y0036249D02*
X0154359Y0029359D01*
X0122863Y0029359D01*
X0122863Y0037233D01*
X0121879Y0038217D01*
X0121879Y0039202D01*
X0121800Y0039300D01*
X0089300Y0076800D02*
X0088414Y0076603D01*
X0082509Y0070698D01*
X0082509Y0054950D01*
X0081800Y0054300D01*
X0081524Y0053965D01*
X0081524Y0052981D01*
X0072666Y0044123D01*
X0072666Y0029359D01*
X0049044Y0029359D01*
X0017548Y0060855D01*
X0017548Y0075619D01*
X0018532Y0076603D01*
X0019300Y0076800D01*
X0043139Y0088414D02*
X0051997Y0079556D01*
X0055934Y0079556D01*
X0056800Y0079300D01*
X0043139Y0088414D02*
X0043139Y0095304D01*
X0032312Y0106131D01*
X0031800Y0106800D01*
X0089300Y0116800D02*
X0089398Y0116957D01*
X0100225Y0127784D01*
X0100225Y0131721D01*
X0099300Y0131800D01*
X0100225Y0132706D01*
X0100225Y0157312D01*
X0092351Y0165186D01*
X0092351Y0168139D01*
X0091367Y0169123D01*
X0091131Y0169300D01*
X0161249Y0171091D02*
X0161249Y0036249D01*
X0161249Y0171091D02*
X0180934Y0171091D01*
X0181800Y0170580D01*
D25*
X0138611Y0186839D02*
X0138611Y0136643D01*
X0118926Y0116957D01*
X0118926Y0105146D01*
X0128769Y0095304D01*
X0128769Y0078572D01*
X0129300Y0076800D01*
X0129753Y0076603D01*
X0132706Y0073650D01*
X0132706Y0045107D01*
X0141564Y0036249D01*
X0146485Y0036249D01*
X0146485Y0039202D01*
X0146800Y0039300D01*
X0100225Y0092351D02*
X0099300Y0091800D01*
X0098257Y0093335D01*
X0090383Y0101209D01*
X0089398Y0100225D01*
X0089398Y0088414D01*
X0071682Y0070698D01*
X0071682Y0049044D01*
X0067745Y0045107D01*
X0067745Y0040186D01*
X0056918Y0040186D01*
X0056800Y0039300D01*
X0100225Y0092351D02*
X0109083Y0101209D01*
X0109083Y0115973D01*
X0109300Y0116800D01*
X0090383Y0101209D02*
X0079556Y0112036D01*
X0079556Y0131721D01*
X0079300Y0131800D01*
X0106131Y0179300D02*
X0106131Y0179950D01*
X0113020Y0186839D01*
X0138611Y0186839D01*
M02*
