G75*
%MOIN*%
%OFA0B0*%
%FSLAX25Y25*%
%IPPOS*%
%LPD*%
%AMOC8*
5,1,8,0,0,1.08239X$1,22.5*
%
%ADD10C,0.00000*%
%ADD11R,0.08000X0.08000*%
%ADD12C,0.08000*%
%ADD13R,0.09500X0.09500*%
%ADD14C,0.09500*%
%ADD15OC8,0.05200*%
%ADD16C,0.06000*%
%ADD17C,0.07200*%
%ADD18C,0.00039*%
%ADD19C,0.05543*%
%ADD20C,0.11220*%
%ADD21C,0.06600*%
%ADD22C,0.05200*%
%ADD23C,0.01600*%
%ADD24R,0.03562X0.03562*%
%ADD25C,0.03000*%
%ADD26C,0.04000*%
D10*
X0001800Y0001800D02*
X0001800Y0229261D01*
X0205501Y0229261D01*
X0205501Y0001800D01*
X0001800Y0001800D01*
X0013611Y0024300D02*
X0013613Y0024453D01*
X0013619Y0024607D01*
X0013629Y0024760D01*
X0013643Y0024912D01*
X0013661Y0025065D01*
X0013683Y0025216D01*
X0013708Y0025367D01*
X0013738Y0025518D01*
X0013772Y0025668D01*
X0013809Y0025816D01*
X0013850Y0025964D01*
X0013895Y0026110D01*
X0013944Y0026256D01*
X0013997Y0026400D01*
X0014053Y0026542D01*
X0014113Y0026683D01*
X0014177Y0026823D01*
X0014244Y0026961D01*
X0014315Y0027097D01*
X0014390Y0027231D01*
X0014467Y0027363D01*
X0014549Y0027493D01*
X0014633Y0027621D01*
X0014721Y0027747D01*
X0014812Y0027870D01*
X0014906Y0027991D01*
X0015004Y0028109D01*
X0015104Y0028225D01*
X0015208Y0028338D01*
X0015314Y0028449D01*
X0015423Y0028557D01*
X0015535Y0028662D01*
X0015649Y0028763D01*
X0015767Y0028862D01*
X0015886Y0028958D01*
X0016008Y0029051D01*
X0016133Y0029140D01*
X0016260Y0029227D01*
X0016389Y0029309D01*
X0016520Y0029389D01*
X0016653Y0029465D01*
X0016788Y0029538D01*
X0016925Y0029607D01*
X0017064Y0029672D01*
X0017204Y0029734D01*
X0017346Y0029792D01*
X0017489Y0029847D01*
X0017634Y0029898D01*
X0017780Y0029945D01*
X0017927Y0029988D01*
X0018075Y0030027D01*
X0018224Y0030063D01*
X0018374Y0030094D01*
X0018525Y0030122D01*
X0018676Y0030146D01*
X0018829Y0030166D01*
X0018981Y0030182D01*
X0019134Y0030194D01*
X0019287Y0030202D01*
X0019440Y0030206D01*
X0019594Y0030206D01*
X0019747Y0030202D01*
X0019900Y0030194D01*
X0020053Y0030182D01*
X0020205Y0030166D01*
X0020358Y0030146D01*
X0020509Y0030122D01*
X0020660Y0030094D01*
X0020810Y0030063D01*
X0020959Y0030027D01*
X0021107Y0029988D01*
X0021254Y0029945D01*
X0021400Y0029898D01*
X0021545Y0029847D01*
X0021688Y0029792D01*
X0021830Y0029734D01*
X0021970Y0029672D01*
X0022109Y0029607D01*
X0022246Y0029538D01*
X0022381Y0029465D01*
X0022514Y0029389D01*
X0022645Y0029309D01*
X0022774Y0029227D01*
X0022901Y0029140D01*
X0023026Y0029051D01*
X0023148Y0028958D01*
X0023267Y0028862D01*
X0023385Y0028763D01*
X0023499Y0028662D01*
X0023611Y0028557D01*
X0023720Y0028449D01*
X0023826Y0028338D01*
X0023930Y0028225D01*
X0024030Y0028109D01*
X0024128Y0027991D01*
X0024222Y0027870D01*
X0024313Y0027747D01*
X0024401Y0027621D01*
X0024485Y0027493D01*
X0024567Y0027363D01*
X0024644Y0027231D01*
X0024719Y0027097D01*
X0024790Y0026961D01*
X0024857Y0026823D01*
X0024921Y0026683D01*
X0024981Y0026542D01*
X0025037Y0026400D01*
X0025090Y0026256D01*
X0025139Y0026110D01*
X0025184Y0025964D01*
X0025225Y0025816D01*
X0025262Y0025668D01*
X0025296Y0025518D01*
X0025326Y0025367D01*
X0025351Y0025216D01*
X0025373Y0025065D01*
X0025391Y0024912D01*
X0025405Y0024760D01*
X0025415Y0024607D01*
X0025421Y0024453D01*
X0025423Y0024300D01*
X0025421Y0024147D01*
X0025415Y0023993D01*
X0025405Y0023840D01*
X0025391Y0023688D01*
X0025373Y0023535D01*
X0025351Y0023384D01*
X0025326Y0023233D01*
X0025296Y0023082D01*
X0025262Y0022932D01*
X0025225Y0022784D01*
X0025184Y0022636D01*
X0025139Y0022490D01*
X0025090Y0022344D01*
X0025037Y0022200D01*
X0024981Y0022058D01*
X0024921Y0021917D01*
X0024857Y0021777D01*
X0024790Y0021639D01*
X0024719Y0021503D01*
X0024644Y0021369D01*
X0024567Y0021237D01*
X0024485Y0021107D01*
X0024401Y0020979D01*
X0024313Y0020853D01*
X0024222Y0020730D01*
X0024128Y0020609D01*
X0024030Y0020491D01*
X0023930Y0020375D01*
X0023826Y0020262D01*
X0023720Y0020151D01*
X0023611Y0020043D01*
X0023499Y0019938D01*
X0023385Y0019837D01*
X0023267Y0019738D01*
X0023148Y0019642D01*
X0023026Y0019549D01*
X0022901Y0019460D01*
X0022774Y0019373D01*
X0022645Y0019291D01*
X0022514Y0019211D01*
X0022381Y0019135D01*
X0022246Y0019062D01*
X0022109Y0018993D01*
X0021970Y0018928D01*
X0021830Y0018866D01*
X0021688Y0018808D01*
X0021545Y0018753D01*
X0021400Y0018702D01*
X0021254Y0018655D01*
X0021107Y0018612D01*
X0020959Y0018573D01*
X0020810Y0018537D01*
X0020660Y0018506D01*
X0020509Y0018478D01*
X0020358Y0018454D01*
X0020205Y0018434D01*
X0020053Y0018418D01*
X0019900Y0018406D01*
X0019747Y0018398D01*
X0019594Y0018394D01*
X0019440Y0018394D01*
X0019287Y0018398D01*
X0019134Y0018406D01*
X0018981Y0018418D01*
X0018829Y0018434D01*
X0018676Y0018454D01*
X0018525Y0018478D01*
X0018374Y0018506D01*
X0018224Y0018537D01*
X0018075Y0018573D01*
X0017927Y0018612D01*
X0017780Y0018655D01*
X0017634Y0018702D01*
X0017489Y0018753D01*
X0017346Y0018808D01*
X0017204Y0018866D01*
X0017064Y0018928D01*
X0016925Y0018993D01*
X0016788Y0019062D01*
X0016653Y0019135D01*
X0016520Y0019211D01*
X0016389Y0019291D01*
X0016260Y0019373D01*
X0016133Y0019460D01*
X0016008Y0019549D01*
X0015886Y0019642D01*
X0015767Y0019738D01*
X0015649Y0019837D01*
X0015535Y0019938D01*
X0015423Y0020043D01*
X0015314Y0020151D01*
X0015208Y0020262D01*
X0015104Y0020375D01*
X0015004Y0020491D01*
X0014906Y0020609D01*
X0014812Y0020730D01*
X0014721Y0020853D01*
X0014633Y0020979D01*
X0014549Y0021107D01*
X0014467Y0021237D01*
X0014390Y0021369D01*
X0014315Y0021503D01*
X0014244Y0021639D01*
X0014177Y0021777D01*
X0014113Y0021917D01*
X0014053Y0022058D01*
X0013997Y0022200D01*
X0013944Y0022344D01*
X0013895Y0022490D01*
X0013850Y0022636D01*
X0013809Y0022784D01*
X0013772Y0022932D01*
X0013738Y0023082D01*
X0013708Y0023233D01*
X0013683Y0023384D01*
X0013661Y0023535D01*
X0013643Y0023688D01*
X0013629Y0023840D01*
X0013619Y0023993D01*
X0013613Y0024147D01*
X0013611Y0024300D01*
X0069731Y0189300D02*
X0069733Y0189460D01*
X0069739Y0189619D01*
X0069749Y0189778D01*
X0069763Y0189937D01*
X0069781Y0190096D01*
X0069802Y0190254D01*
X0069828Y0190411D01*
X0069858Y0190568D01*
X0069891Y0190724D01*
X0069929Y0190879D01*
X0069970Y0191033D01*
X0070015Y0191186D01*
X0070064Y0191338D01*
X0070117Y0191489D01*
X0070173Y0191638D01*
X0070234Y0191786D01*
X0070297Y0191932D01*
X0070365Y0192077D01*
X0070436Y0192220D01*
X0070510Y0192361D01*
X0070588Y0192500D01*
X0070670Y0192637D01*
X0070755Y0192772D01*
X0070843Y0192905D01*
X0070935Y0193036D01*
X0071029Y0193164D01*
X0071127Y0193290D01*
X0071228Y0193414D01*
X0071332Y0193535D01*
X0071439Y0193653D01*
X0071549Y0193769D01*
X0071662Y0193882D01*
X0071778Y0193992D01*
X0071896Y0194099D01*
X0072017Y0194203D01*
X0072141Y0194304D01*
X0072267Y0194402D01*
X0072395Y0194496D01*
X0072526Y0194588D01*
X0072659Y0194676D01*
X0072794Y0194761D01*
X0072931Y0194843D01*
X0073070Y0194921D01*
X0073211Y0194995D01*
X0073354Y0195066D01*
X0073499Y0195134D01*
X0073645Y0195197D01*
X0073793Y0195258D01*
X0073942Y0195314D01*
X0074093Y0195367D01*
X0074245Y0195416D01*
X0074398Y0195461D01*
X0074552Y0195502D01*
X0074707Y0195540D01*
X0074863Y0195573D01*
X0075020Y0195603D01*
X0075177Y0195629D01*
X0075335Y0195650D01*
X0075494Y0195668D01*
X0075653Y0195682D01*
X0075812Y0195692D01*
X0075971Y0195698D01*
X0076131Y0195700D01*
X0076291Y0195698D01*
X0076450Y0195692D01*
X0076609Y0195682D01*
X0076768Y0195668D01*
X0076927Y0195650D01*
X0077085Y0195629D01*
X0077242Y0195603D01*
X0077399Y0195573D01*
X0077555Y0195540D01*
X0077710Y0195502D01*
X0077864Y0195461D01*
X0078017Y0195416D01*
X0078169Y0195367D01*
X0078320Y0195314D01*
X0078469Y0195258D01*
X0078617Y0195197D01*
X0078763Y0195134D01*
X0078908Y0195066D01*
X0079051Y0194995D01*
X0079192Y0194921D01*
X0079331Y0194843D01*
X0079468Y0194761D01*
X0079603Y0194676D01*
X0079736Y0194588D01*
X0079867Y0194496D01*
X0079995Y0194402D01*
X0080121Y0194304D01*
X0080245Y0194203D01*
X0080366Y0194099D01*
X0080484Y0193992D01*
X0080600Y0193882D01*
X0080713Y0193769D01*
X0080823Y0193653D01*
X0080930Y0193535D01*
X0081034Y0193414D01*
X0081135Y0193290D01*
X0081233Y0193164D01*
X0081327Y0193036D01*
X0081419Y0192905D01*
X0081507Y0192772D01*
X0081592Y0192637D01*
X0081674Y0192500D01*
X0081752Y0192361D01*
X0081826Y0192220D01*
X0081897Y0192077D01*
X0081965Y0191932D01*
X0082028Y0191786D01*
X0082089Y0191638D01*
X0082145Y0191489D01*
X0082198Y0191338D01*
X0082247Y0191186D01*
X0082292Y0191033D01*
X0082333Y0190879D01*
X0082371Y0190724D01*
X0082404Y0190568D01*
X0082434Y0190411D01*
X0082460Y0190254D01*
X0082481Y0190096D01*
X0082499Y0189937D01*
X0082513Y0189778D01*
X0082523Y0189619D01*
X0082529Y0189460D01*
X0082531Y0189300D01*
X0082529Y0189140D01*
X0082523Y0188981D01*
X0082513Y0188822D01*
X0082499Y0188663D01*
X0082481Y0188504D01*
X0082460Y0188346D01*
X0082434Y0188189D01*
X0082404Y0188032D01*
X0082371Y0187876D01*
X0082333Y0187721D01*
X0082292Y0187567D01*
X0082247Y0187414D01*
X0082198Y0187262D01*
X0082145Y0187111D01*
X0082089Y0186962D01*
X0082028Y0186814D01*
X0081965Y0186668D01*
X0081897Y0186523D01*
X0081826Y0186380D01*
X0081752Y0186239D01*
X0081674Y0186100D01*
X0081592Y0185963D01*
X0081507Y0185828D01*
X0081419Y0185695D01*
X0081327Y0185564D01*
X0081233Y0185436D01*
X0081135Y0185310D01*
X0081034Y0185186D01*
X0080930Y0185065D01*
X0080823Y0184947D01*
X0080713Y0184831D01*
X0080600Y0184718D01*
X0080484Y0184608D01*
X0080366Y0184501D01*
X0080245Y0184397D01*
X0080121Y0184296D01*
X0079995Y0184198D01*
X0079867Y0184104D01*
X0079736Y0184012D01*
X0079603Y0183924D01*
X0079468Y0183839D01*
X0079331Y0183757D01*
X0079192Y0183679D01*
X0079051Y0183605D01*
X0078908Y0183534D01*
X0078763Y0183466D01*
X0078617Y0183403D01*
X0078469Y0183342D01*
X0078320Y0183286D01*
X0078169Y0183233D01*
X0078017Y0183184D01*
X0077864Y0183139D01*
X0077710Y0183098D01*
X0077555Y0183060D01*
X0077399Y0183027D01*
X0077242Y0182997D01*
X0077085Y0182971D01*
X0076927Y0182950D01*
X0076768Y0182932D01*
X0076609Y0182918D01*
X0076450Y0182908D01*
X0076291Y0182902D01*
X0076131Y0182900D01*
X0075971Y0182902D01*
X0075812Y0182908D01*
X0075653Y0182918D01*
X0075494Y0182932D01*
X0075335Y0182950D01*
X0075177Y0182971D01*
X0075020Y0182997D01*
X0074863Y0183027D01*
X0074707Y0183060D01*
X0074552Y0183098D01*
X0074398Y0183139D01*
X0074245Y0183184D01*
X0074093Y0183233D01*
X0073942Y0183286D01*
X0073793Y0183342D01*
X0073645Y0183403D01*
X0073499Y0183466D01*
X0073354Y0183534D01*
X0073211Y0183605D01*
X0073070Y0183679D01*
X0072931Y0183757D01*
X0072794Y0183839D01*
X0072659Y0183924D01*
X0072526Y0184012D01*
X0072395Y0184104D01*
X0072267Y0184198D01*
X0072141Y0184296D01*
X0072017Y0184397D01*
X0071896Y0184501D01*
X0071778Y0184608D01*
X0071662Y0184718D01*
X0071549Y0184831D01*
X0071439Y0184947D01*
X0071332Y0185065D01*
X0071228Y0185186D01*
X0071127Y0185310D01*
X0071029Y0185436D01*
X0070935Y0185564D01*
X0070843Y0185695D01*
X0070755Y0185828D01*
X0070670Y0185963D01*
X0070588Y0186100D01*
X0070510Y0186239D01*
X0070436Y0186380D01*
X0070365Y0186523D01*
X0070297Y0186668D01*
X0070234Y0186814D01*
X0070173Y0186962D01*
X0070117Y0187111D01*
X0070064Y0187262D01*
X0070015Y0187414D01*
X0069970Y0187567D01*
X0069929Y0187721D01*
X0069891Y0187876D01*
X0069858Y0188032D01*
X0069828Y0188189D01*
X0069802Y0188346D01*
X0069781Y0188504D01*
X0069763Y0188663D01*
X0069749Y0188822D01*
X0069739Y0188981D01*
X0069733Y0189140D01*
X0069731Y0189300D01*
X0109731Y0189300D02*
X0109733Y0189460D01*
X0109739Y0189619D01*
X0109749Y0189778D01*
X0109763Y0189937D01*
X0109781Y0190096D01*
X0109802Y0190254D01*
X0109828Y0190411D01*
X0109858Y0190568D01*
X0109891Y0190724D01*
X0109929Y0190879D01*
X0109970Y0191033D01*
X0110015Y0191186D01*
X0110064Y0191338D01*
X0110117Y0191489D01*
X0110173Y0191638D01*
X0110234Y0191786D01*
X0110297Y0191932D01*
X0110365Y0192077D01*
X0110436Y0192220D01*
X0110510Y0192361D01*
X0110588Y0192500D01*
X0110670Y0192637D01*
X0110755Y0192772D01*
X0110843Y0192905D01*
X0110935Y0193036D01*
X0111029Y0193164D01*
X0111127Y0193290D01*
X0111228Y0193414D01*
X0111332Y0193535D01*
X0111439Y0193653D01*
X0111549Y0193769D01*
X0111662Y0193882D01*
X0111778Y0193992D01*
X0111896Y0194099D01*
X0112017Y0194203D01*
X0112141Y0194304D01*
X0112267Y0194402D01*
X0112395Y0194496D01*
X0112526Y0194588D01*
X0112659Y0194676D01*
X0112794Y0194761D01*
X0112931Y0194843D01*
X0113070Y0194921D01*
X0113211Y0194995D01*
X0113354Y0195066D01*
X0113499Y0195134D01*
X0113645Y0195197D01*
X0113793Y0195258D01*
X0113942Y0195314D01*
X0114093Y0195367D01*
X0114245Y0195416D01*
X0114398Y0195461D01*
X0114552Y0195502D01*
X0114707Y0195540D01*
X0114863Y0195573D01*
X0115020Y0195603D01*
X0115177Y0195629D01*
X0115335Y0195650D01*
X0115494Y0195668D01*
X0115653Y0195682D01*
X0115812Y0195692D01*
X0115971Y0195698D01*
X0116131Y0195700D01*
X0116291Y0195698D01*
X0116450Y0195692D01*
X0116609Y0195682D01*
X0116768Y0195668D01*
X0116927Y0195650D01*
X0117085Y0195629D01*
X0117242Y0195603D01*
X0117399Y0195573D01*
X0117555Y0195540D01*
X0117710Y0195502D01*
X0117864Y0195461D01*
X0118017Y0195416D01*
X0118169Y0195367D01*
X0118320Y0195314D01*
X0118469Y0195258D01*
X0118617Y0195197D01*
X0118763Y0195134D01*
X0118908Y0195066D01*
X0119051Y0194995D01*
X0119192Y0194921D01*
X0119331Y0194843D01*
X0119468Y0194761D01*
X0119603Y0194676D01*
X0119736Y0194588D01*
X0119867Y0194496D01*
X0119995Y0194402D01*
X0120121Y0194304D01*
X0120245Y0194203D01*
X0120366Y0194099D01*
X0120484Y0193992D01*
X0120600Y0193882D01*
X0120713Y0193769D01*
X0120823Y0193653D01*
X0120930Y0193535D01*
X0121034Y0193414D01*
X0121135Y0193290D01*
X0121233Y0193164D01*
X0121327Y0193036D01*
X0121419Y0192905D01*
X0121507Y0192772D01*
X0121592Y0192637D01*
X0121674Y0192500D01*
X0121752Y0192361D01*
X0121826Y0192220D01*
X0121897Y0192077D01*
X0121965Y0191932D01*
X0122028Y0191786D01*
X0122089Y0191638D01*
X0122145Y0191489D01*
X0122198Y0191338D01*
X0122247Y0191186D01*
X0122292Y0191033D01*
X0122333Y0190879D01*
X0122371Y0190724D01*
X0122404Y0190568D01*
X0122434Y0190411D01*
X0122460Y0190254D01*
X0122481Y0190096D01*
X0122499Y0189937D01*
X0122513Y0189778D01*
X0122523Y0189619D01*
X0122529Y0189460D01*
X0122531Y0189300D01*
X0122529Y0189140D01*
X0122523Y0188981D01*
X0122513Y0188822D01*
X0122499Y0188663D01*
X0122481Y0188504D01*
X0122460Y0188346D01*
X0122434Y0188189D01*
X0122404Y0188032D01*
X0122371Y0187876D01*
X0122333Y0187721D01*
X0122292Y0187567D01*
X0122247Y0187414D01*
X0122198Y0187262D01*
X0122145Y0187111D01*
X0122089Y0186962D01*
X0122028Y0186814D01*
X0121965Y0186668D01*
X0121897Y0186523D01*
X0121826Y0186380D01*
X0121752Y0186239D01*
X0121674Y0186100D01*
X0121592Y0185963D01*
X0121507Y0185828D01*
X0121419Y0185695D01*
X0121327Y0185564D01*
X0121233Y0185436D01*
X0121135Y0185310D01*
X0121034Y0185186D01*
X0120930Y0185065D01*
X0120823Y0184947D01*
X0120713Y0184831D01*
X0120600Y0184718D01*
X0120484Y0184608D01*
X0120366Y0184501D01*
X0120245Y0184397D01*
X0120121Y0184296D01*
X0119995Y0184198D01*
X0119867Y0184104D01*
X0119736Y0184012D01*
X0119603Y0183924D01*
X0119468Y0183839D01*
X0119331Y0183757D01*
X0119192Y0183679D01*
X0119051Y0183605D01*
X0118908Y0183534D01*
X0118763Y0183466D01*
X0118617Y0183403D01*
X0118469Y0183342D01*
X0118320Y0183286D01*
X0118169Y0183233D01*
X0118017Y0183184D01*
X0117864Y0183139D01*
X0117710Y0183098D01*
X0117555Y0183060D01*
X0117399Y0183027D01*
X0117242Y0182997D01*
X0117085Y0182971D01*
X0116927Y0182950D01*
X0116768Y0182932D01*
X0116609Y0182918D01*
X0116450Y0182908D01*
X0116291Y0182902D01*
X0116131Y0182900D01*
X0115971Y0182902D01*
X0115812Y0182908D01*
X0115653Y0182918D01*
X0115494Y0182932D01*
X0115335Y0182950D01*
X0115177Y0182971D01*
X0115020Y0182997D01*
X0114863Y0183027D01*
X0114707Y0183060D01*
X0114552Y0183098D01*
X0114398Y0183139D01*
X0114245Y0183184D01*
X0114093Y0183233D01*
X0113942Y0183286D01*
X0113793Y0183342D01*
X0113645Y0183403D01*
X0113499Y0183466D01*
X0113354Y0183534D01*
X0113211Y0183605D01*
X0113070Y0183679D01*
X0112931Y0183757D01*
X0112794Y0183839D01*
X0112659Y0183924D01*
X0112526Y0184012D01*
X0112395Y0184104D01*
X0112267Y0184198D01*
X0112141Y0184296D01*
X0112017Y0184397D01*
X0111896Y0184501D01*
X0111778Y0184608D01*
X0111662Y0184718D01*
X0111549Y0184831D01*
X0111439Y0184947D01*
X0111332Y0185065D01*
X0111228Y0185186D01*
X0111127Y0185310D01*
X0111029Y0185436D01*
X0110935Y0185564D01*
X0110843Y0185695D01*
X0110755Y0185828D01*
X0110670Y0185963D01*
X0110588Y0186100D01*
X0110510Y0186239D01*
X0110436Y0186380D01*
X0110365Y0186523D01*
X0110297Y0186668D01*
X0110234Y0186814D01*
X0110173Y0186962D01*
X0110117Y0187111D01*
X0110064Y0187262D01*
X0110015Y0187414D01*
X0109970Y0187567D01*
X0109929Y0187721D01*
X0109891Y0187876D01*
X0109858Y0188032D01*
X0109828Y0188189D01*
X0109802Y0188346D01*
X0109781Y0188504D01*
X0109763Y0188663D01*
X0109749Y0188822D01*
X0109739Y0188981D01*
X0109733Y0189140D01*
X0109731Y0189300D01*
X0182902Y0206800D02*
X0182904Y0206953D01*
X0182910Y0207107D01*
X0182920Y0207260D01*
X0182934Y0207412D01*
X0182952Y0207565D01*
X0182974Y0207716D01*
X0182999Y0207867D01*
X0183029Y0208018D01*
X0183063Y0208168D01*
X0183100Y0208316D01*
X0183141Y0208464D01*
X0183186Y0208610D01*
X0183235Y0208756D01*
X0183288Y0208900D01*
X0183344Y0209042D01*
X0183404Y0209183D01*
X0183468Y0209323D01*
X0183535Y0209461D01*
X0183606Y0209597D01*
X0183681Y0209731D01*
X0183758Y0209863D01*
X0183840Y0209993D01*
X0183924Y0210121D01*
X0184012Y0210247D01*
X0184103Y0210370D01*
X0184197Y0210491D01*
X0184295Y0210609D01*
X0184395Y0210725D01*
X0184499Y0210838D01*
X0184605Y0210949D01*
X0184714Y0211057D01*
X0184826Y0211162D01*
X0184940Y0211263D01*
X0185058Y0211362D01*
X0185177Y0211458D01*
X0185299Y0211551D01*
X0185424Y0211640D01*
X0185551Y0211727D01*
X0185680Y0211809D01*
X0185811Y0211889D01*
X0185944Y0211965D01*
X0186079Y0212038D01*
X0186216Y0212107D01*
X0186355Y0212172D01*
X0186495Y0212234D01*
X0186637Y0212292D01*
X0186780Y0212347D01*
X0186925Y0212398D01*
X0187071Y0212445D01*
X0187218Y0212488D01*
X0187366Y0212527D01*
X0187515Y0212563D01*
X0187665Y0212594D01*
X0187816Y0212622D01*
X0187967Y0212646D01*
X0188120Y0212666D01*
X0188272Y0212682D01*
X0188425Y0212694D01*
X0188578Y0212702D01*
X0188731Y0212706D01*
X0188885Y0212706D01*
X0189038Y0212702D01*
X0189191Y0212694D01*
X0189344Y0212682D01*
X0189496Y0212666D01*
X0189649Y0212646D01*
X0189800Y0212622D01*
X0189951Y0212594D01*
X0190101Y0212563D01*
X0190250Y0212527D01*
X0190398Y0212488D01*
X0190545Y0212445D01*
X0190691Y0212398D01*
X0190836Y0212347D01*
X0190979Y0212292D01*
X0191121Y0212234D01*
X0191261Y0212172D01*
X0191400Y0212107D01*
X0191537Y0212038D01*
X0191672Y0211965D01*
X0191805Y0211889D01*
X0191936Y0211809D01*
X0192065Y0211727D01*
X0192192Y0211640D01*
X0192317Y0211551D01*
X0192439Y0211458D01*
X0192558Y0211362D01*
X0192676Y0211263D01*
X0192790Y0211162D01*
X0192902Y0211057D01*
X0193011Y0210949D01*
X0193117Y0210838D01*
X0193221Y0210725D01*
X0193321Y0210609D01*
X0193419Y0210491D01*
X0193513Y0210370D01*
X0193604Y0210247D01*
X0193692Y0210121D01*
X0193776Y0209993D01*
X0193858Y0209863D01*
X0193935Y0209731D01*
X0194010Y0209597D01*
X0194081Y0209461D01*
X0194148Y0209323D01*
X0194212Y0209183D01*
X0194272Y0209042D01*
X0194328Y0208900D01*
X0194381Y0208756D01*
X0194430Y0208610D01*
X0194475Y0208464D01*
X0194516Y0208316D01*
X0194553Y0208168D01*
X0194587Y0208018D01*
X0194617Y0207867D01*
X0194642Y0207716D01*
X0194664Y0207565D01*
X0194682Y0207412D01*
X0194696Y0207260D01*
X0194706Y0207107D01*
X0194712Y0206953D01*
X0194714Y0206800D01*
X0194712Y0206647D01*
X0194706Y0206493D01*
X0194696Y0206340D01*
X0194682Y0206188D01*
X0194664Y0206035D01*
X0194642Y0205884D01*
X0194617Y0205733D01*
X0194587Y0205582D01*
X0194553Y0205432D01*
X0194516Y0205284D01*
X0194475Y0205136D01*
X0194430Y0204990D01*
X0194381Y0204844D01*
X0194328Y0204700D01*
X0194272Y0204558D01*
X0194212Y0204417D01*
X0194148Y0204277D01*
X0194081Y0204139D01*
X0194010Y0204003D01*
X0193935Y0203869D01*
X0193858Y0203737D01*
X0193776Y0203607D01*
X0193692Y0203479D01*
X0193604Y0203353D01*
X0193513Y0203230D01*
X0193419Y0203109D01*
X0193321Y0202991D01*
X0193221Y0202875D01*
X0193117Y0202762D01*
X0193011Y0202651D01*
X0192902Y0202543D01*
X0192790Y0202438D01*
X0192676Y0202337D01*
X0192558Y0202238D01*
X0192439Y0202142D01*
X0192317Y0202049D01*
X0192192Y0201960D01*
X0192065Y0201873D01*
X0191936Y0201791D01*
X0191805Y0201711D01*
X0191672Y0201635D01*
X0191537Y0201562D01*
X0191400Y0201493D01*
X0191261Y0201428D01*
X0191121Y0201366D01*
X0190979Y0201308D01*
X0190836Y0201253D01*
X0190691Y0201202D01*
X0190545Y0201155D01*
X0190398Y0201112D01*
X0190250Y0201073D01*
X0190101Y0201037D01*
X0189951Y0201006D01*
X0189800Y0200978D01*
X0189649Y0200954D01*
X0189496Y0200934D01*
X0189344Y0200918D01*
X0189191Y0200906D01*
X0189038Y0200898D01*
X0188885Y0200894D01*
X0188731Y0200894D01*
X0188578Y0200898D01*
X0188425Y0200906D01*
X0188272Y0200918D01*
X0188120Y0200934D01*
X0187967Y0200954D01*
X0187816Y0200978D01*
X0187665Y0201006D01*
X0187515Y0201037D01*
X0187366Y0201073D01*
X0187218Y0201112D01*
X0187071Y0201155D01*
X0186925Y0201202D01*
X0186780Y0201253D01*
X0186637Y0201308D01*
X0186495Y0201366D01*
X0186355Y0201428D01*
X0186216Y0201493D01*
X0186079Y0201562D01*
X0185944Y0201635D01*
X0185811Y0201711D01*
X0185680Y0201791D01*
X0185551Y0201873D01*
X0185424Y0201960D01*
X0185299Y0202049D01*
X0185177Y0202142D01*
X0185058Y0202238D01*
X0184940Y0202337D01*
X0184826Y0202438D01*
X0184714Y0202543D01*
X0184605Y0202651D01*
X0184499Y0202762D01*
X0184395Y0202875D01*
X0184295Y0202991D01*
X0184197Y0203109D01*
X0184103Y0203230D01*
X0184012Y0203353D01*
X0183924Y0203479D01*
X0183840Y0203607D01*
X0183758Y0203737D01*
X0183681Y0203869D01*
X0183606Y0204003D01*
X0183535Y0204139D01*
X0183468Y0204277D01*
X0183404Y0204417D01*
X0183344Y0204558D01*
X0183288Y0204700D01*
X0183235Y0204844D01*
X0183186Y0204990D01*
X0183141Y0205136D01*
X0183100Y0205284D01*
X0183063Y0205432D01*
X0183029Y0205582D01*
X0182999Y0205733D01*
X0182974Y0205884D01*
X0182952Y0206035D01*
X0182934Y0206188D01*
X0182920Y0206340D01*
X0182910Y0206493D01*
X0182904Y0206647D01*
X0182902Y0206800D01*
X0013611Y0206800D02*
X0013613Y0206953D01*
X0013619Y0207107D01*
X0013629Y0207260D01*
X0013643Y0207412D01*
X0013661Y0207565D01*
X0013683Y0207716D01*
X0013708Y0207867D01*
X0013738Y0208018D01*
X0013772Y0208168D01*
X0013809Y0208316D01*
X0013850Y0208464D01*
X0013895Y0208610D01*
X0013944Y0208756D01*
X0013997Y0208900D01*
X0014053Y0209042D01*
X0014113Y0209183D01*
X0014177Y0209323D01*
X0014244Y0209461D01*
X0014315Y0209597D01*
X0014390Y0209731D01*
X0014467Y0209863D01*
X0014549Y0209993D01*
X0014633Y0210121D01*
X0014721Y0210247D01*
X0014812Y0210370D01*
X0014906Y0210491D01*
X0015004Y0210609D01*
X0015104Y0210725D01*
X0015208Y0210838D01*
X0015314Y0210949D01*
X0015423Y0211057D01*
X0015535Y0211162D01*
X0015649Y0211263D01*
X0015767Y0211362D01*
X0015886Y0211458D01*
X0016008Y0211551D01*
X0016133Y0211640D01*
X0016260Y0211727D01*
X0016389Y0211809D01*
X0016520Y0211889D01*
X0016653Y0211965D01*
X0016788Y0212038D01*
X0016925Y0212107D01*
X0017064Y0212172D01*
X0017204Y0212234D01*
X0017346Y0212292D01*
X0017489Y0212347D01*
X0017634Y0212398D01*
X0017780Y0212445D01*
X0017927Y0212488D01*
X0018075Y0212527D01*
X0018224Y0212563D01*
X0018374Y0212594D01*
X0018525Y0212622D01*
X0018676Y0212646D01*
X0018829Y0212666D01*
X0018981Y0212682D01*
X0019134Y0212694D01*
X0019287Y0212702D01*
X0019440Y0212706D01*
X0019594Y0212706D01*
X0019747Y0212702D01*
X0019900Y0212694D01*
X0020053Y0212682D01*
X0020205Y0212666D01*
X0020358Y0212646D01*
X0020509Y0212622D01*
X0020660Y0212594D01*
X0020810Y0212563D01*
X0020959Y0212527D01*
X0021107Y0212488D01*
X0021254Y0212445D01*
X0021400Y0212398D01*
X0021545Y0212347D01*
X0021688Y0212292D01*
X0021830Y0212234D01*
X0021970Y0212172D01*
X0022109Y0212107D01*
X0022246Y0212038D01*
X0022381Y0211965D01*
X0022514Y0211889D01*
X0022645Y0211809D01*
X0022774Y0211727D01*
X0022901Y0211640D01*
X0023026Y0211551D01*
X0023148Y0211458D01*
X0023267Y0211362D01*
X0023385Y0211263D01*
X0023499Y0211162D01*
X0023611Y0211057D01*
X0023720Y0210949D01*
X0023826Y0210838D01*
X0023930Y0210725D01*
X0024030Y0210609D01*
X0024128Y0210491D01*
X0024222Y0210370D01*
X0024313Y0210247D01*
X0024401Y0210121D01*
X0024485Y0209993D01*
X0024567Y0209863D01*
X0024644Y0209731D01*
X0024719Y0209597D01*
X0024790Y0209461D01*
X0024857Y0209323D01*
X0024921Y0209183D01*
X0024981Y0209042D01*
X0025037Y0208900D01*
X0025090Y0208756D01*
X0025139Y0208610D01*
X0025184Y0208464D01*
X0025225Y0208316D01*
X0025262Y0208168D01*
X0025296Y0208018D01*
X0025326Y0207867D01*
X0025351Y0207716D01*
X0025373Y0207565D01*
X0025391Y0207412D01*
X0025405Y0207260D01*
X0025415Y0207107D01*
X0025421Y0206953D01*
X0025423Y0206800D01*
X0025421Y0206647D01*
X0025415Y0206493D01*
X0025405Y0206340D01*
X0025391Y0206188D01*
X0025373Y0206035D01*
X0025351Y0205884D01*
X0025326Y0205733D01*
X0025296Y0205582D01*
X0025262Y0205432D01*
X0025225Y0205284D01*
X0025184Y0205136D01*
X0025139Y0204990D01*
X0025090Y0204844D01*
X0025037Y0204700D01*
X0024981Y0204558D01*
X0024921Y0204417D01*
X0024857Y0204277D01*
X0024790Y0204139D01*
X0024719Y0204003D01*
X0024644Y0203869D01*
X0024567Y0203737D01*
X0024485Y0203607D01*
X0024401Y0203479D01*
X0024313Y0203353D01*
X0024222Y0203230D01*
X0024128Y0203109D01*
X0024030Y0202991D01*
X0023930Y0202875D01*
X0023826Y0202762D01*
X0023720Y0202651D01*
X0023611Y0202543D01*
X0023499Y0202438D01*
X0023385Y0202337D01*
X0023267Y0202238D01*
X0023148Y0202142D01*
X0023026Y0202049D01*
X0022901Y0201960D01*
X0022774Y0201873D01*
X0022645Y0201791D01*
X0022514Y0201711D01*
X0022381Y0201635D01*
X0022246Y0201562D01*
X0022109Y0201493D01*
X0021970Y0201428D01*
X0021830Y0201366D01*
X0021688Y0201308D01*
X0021545Y0201253D01*
X0021400Y0201202D01*
X0021254Y0201155D01*
X0021107Y0201112D01*
X0020959Y0201073D01*
X0020810Y0201037D01*
X0020660Y0201006D01*
X0020509Y0200978D01*
X0020358Y0200954D01*
X0020205Y0200934D01*
X0020053Y0200918D01*
X0019900Y0200906D01*
X0019747Y0200898D01*
X0019594Y0200894D01*
X0019440Y0200894D01*
X0019287Y0200898D01*
X0019134Y0200906D01*
X0018981Y0200918D01*
X0018829Y0200934D01*
X0018676Y0200954D01*
X0018525Y0200978D01*
X0018374Y0201006D01*
X0018224Y0201037D01*
X0018075Y0201073D01*
X0017927Y0201112D01*
X0017780Y0201155D01*
X0017634Y0201202D01*
X0017489Y0201253D01*
X0017346Y0201308D01*
X0017204Y0201366D01*
X0017064Y0201428D01*
X0016925Y0201493D01*
X0016788Y0201562D01*
X0016653Y0201635D01*
X0016520Y0201711D01*
X0016389Y0201791D01*
X0016260Y0201873D01*
X0016133Y0201960D01*
X0016008Y0202049D01*
X0015886Y0202142D01*
X0015767Y0202238D01*
X0015649Y0202337D01*
X0015535Y0202438D01*
X0015423Y0202543D01*
X0015314Y0202651D01*
X0015208Y0202762D01*
X0015104Y0202875D01*
X0015004Y0202991D01*
X0014906Y0203109D01*
X0014812Y0203230D01*
X0014721Y0203353D01*
X0014633Y0203479D01*
X0014549Y0203607D01*
X0014467Y0203737D01*
X0014390Y0203869D01*
X0014315Y0204003D01*
X0014244Y0204139D01*
X0014177Y0204277D01*
X0014113Y0204417D01*
X0014053Y0204558D01*
X0013997Y0204700D01*
X0013944Y0204844D01*
X0013895Y0204990D01*
X0013850Y0205136D01*
X0013809Y0205284D01*
X0013772Y0205432D01*
X0013738Y0205582D01*
X0013708Y0205733D01*
X0013683Y0205884D01*
X0013661Y0206035D01*
X0013643Y0206188D01*
X0013629Y0206340D01*
X0013619Y0206493D01*
X0013613Y0206647D01*
X0013611Y0206800D01*
X0182902Y0024300D02*
X0182904Y0024453D01*
X0182910Y0024607D01*
X0182920Y0024760D01*
X0182934Y0024912D01*
X0182952Y0025065D01*
X0182974Y0025216D01*
X0182999Y0025367D01*
X0183029Y0025518D01*
X0183063Y0025668D01*
X0183100Y0025816D01*
X0183141Y0025964D01*
X0183186Y0026110D01*
X0183235Y0026256D01*
X0183288Y0026400D01*
X0183344Y0026542D01*
X0183404Y0026683D01*
X0183468Y0026823D01*
X0183535Y0026961D01*
X0183606Y0027097D01*
X0183681Y0027231D01*
X0183758Y0027363D01*
X0183840Y0027493D01*
X0183924Y0027621D01*
X0184012Y0027747D01*
X0184103Y0027870D01*
X0184197Y0027991D01*
X0184295Y0028109D01*
X0184395Y0028225D01*
X0184499Y0028338D01*
X0184605Y0028449D01*
X0184714Y0028557D01*
X0184826Y0028662D01*
X0184940Y0028763D01*
X0185058Y0028862D01*
X0185177Y0028958D01*
X0185299Y0029051D01*
X0185424Y0029140D01*
X0185551Y0029227D01*
X0185680Y0029309D01*
X0185811Y0029389D01*
X0185944Y0029465D01*
X0186079Y0029538D01*
X0186216Y0029607D01*
X0186355Y0029672D01*
X0186495Y0029734D01*
X0186637Y0029792D01*
X0186780Y0029847D01*
X0186925Y0029898D01*
X0187071Y0029945D01*
X0187218Y0029988D01*
X0187366Y0030027D01*
X0187515Y0030063D01*
X0187665Y0030094D01*
X0187816Y0030122D01*
X0187967Y0030146D01*
X0188120Y0030166D01*
X0188272Y0030182D01*
X0188425Y0030194D01*
X0188578Y0030202D01*
X0188731Y0030206D01*
X0188885Y0030206D01*
X0189038Y0030202D01*
X0189191Y0030194D01*
X0189344Y0030182D01*
X0189496Y0030166D01*
X0189649Y0030146D01*
X0189800Y0030122D01*
X0189951Y0030094D01*
X0190101Y0030063D01*
X0190250Y0030027D01*
X0190398Y0029988D01*
X0190545Y0029945D01*
X0190691Y0029898D01*
X0190836Y0029847D01*
X0190979Y0029792D01*
X0191121Y0029734D01*
X0191261Y0029672D01*
X0191400Y0029607D01*
X0191537Y0029538D01*
X0191672Y0029465D01*
X0191805Y0029389D01*
X0191936Y0029309D01*
X0192065Y0029227D01*
X0192192Y0029140D01*
X0192317Y0029051D01*
X0192439Y0028958D01*
X0192558Y0028862D01*
X0192676Y0028763D01*
X0192790Y0028662D01*
X0192902Y0028557D01*
X0193011Y0028449D01*
X0193117Y0028338D01*
X0193221Y0028225D01*
X0193321Y0028109D01*
X0193419Y0027991D01*
X0193513Y0027870D01*
X0193604Y0027747D01*
X0193692Y0027621D01*
X0193776Y0027493D01*
X0193858Y0027363D01*
X0193935Y0027231D01*
X0194010Y0027097D01*
X0194081Y0026961D01*
X0194148Y0026823D01*
X0194212Y0026683D01*
X0194272Y0026542D01*
X0194328Y0026400D01*
X0194381Y0026256D01*
X0194430Y0026110D01*
X0194475Y0025964D01*
X0194516Y0025816D01*
X0194553Y0025668D01*
X0194587Y0025518D01*
X0194617Y0025367D01*
X0194642Y0025216D01*
X0194664Y0025065D01*
X0194682Y0024912D01*
X0194696Y0024760D01*
X0194706Y0024607D01*
X0194712Y0024453D01*
X0194714Y0024300D01*
X0194712Y0024147D01*
X0194706Y0023993D01*
X0194696Y0023840D01*
X0194682Y0023688D01*
X0194664Y0023535D01*
X0194642Y0023384D01*
X0194617Y0023233D01*
X0194587Y0023082D01*
X0194553Y0022932D01*
X0194516Y0022784D01*
X0194475Y0022636D01*
X0194430Y0022490D01*
X0194381Y0022344D01*
X0194328Y0022200D01*
X0194272Y0022058D01*
X0194212Y0021917D01*
X0194148Y0021777D01*
X0194081Y0021639D01*
X0194010Y0021503D01*
X0193935Y0021369D01*
X0193858Y0021237D01*
X0193776Y0021107D01*
X0193692Y0020979D01*
X0193604Y0020853D01*
X0193513Y0020730D01*
X0193419Y0020609D01*
X0193321Y0020491D01*
X0193221Y0020375D01*
X0193117Y0020262D01*
X0193011Y0020151D01*
X0192902Y0020043D01*
X0192790Y0019938D01*
X0192676Y0019837D01*
X0192558Y0019738D01*
X0192439Y0019642D01*
X0192317Y0019549D01*
X0192192Y0019460D01*
X0192065Y0019373D01*
X0191936Y0019291D01*
X0191805Y0019211D01*
X0191672Y0019135D01*
X0191537Y0019062D01*
X0191400Y0018993D01*
X0191261Y0018928D01*
X0191121Y0018866D01*
X0190979Y0018808D01*
X0190836Y0018753D01*
X0190691Y0018702D01*
X0190545Y0018655D01*
X0190398Y0018612D01*
X0190250Y0018573D01*
X0190101Y0018537D01*
X0189951Y0018506D01*
X0189800Y0018478D01*
X0189649Y0018454D01*
X0189496Y0018434D01*
X0189344Y0018418D01*
X0189191Y0018406D01*
X0189038Y0018398D01*
X0188885Y0018394D01*
X0188731Y0018394D01*
X0188578Y0018398D01*
X0188425Y0018406D01*
X0188272Y0018418D01*
X0188120Y0018434D01*
X0187967Y0018454D01*
X0187816Y0018478D01*
X0187665Y0018506D01*
X0187515Y0018537D01*
X0187366Y0018573D01*
X0187218Y0018612D01*
X0187071Y0018655D01*
X0186925Y0018702D01*
X0186780Y0018753D01*
X0186637Y0018808D01*
X0186495Y0018866D01*
X0186355Y0018928D01*
X0186216Y0018993D01*
X0186079Y0019062D01*
X0185944Y0019135D01*
X0185811Y0019211D01*
X0185680Y0019291D01*
X0185551Y0019373D01*
X0185424Y0019460D01*
X0185299Y0019549D01*
X0185177Y0019642D01*
X0185058Y0019738D01*
X0184940Y0019837D01*
X0184826Y0019938D01*
X0184714Y0020043D01*
X0184605Y0020151D01*
X0184499Y0020262D01*
X0184395Y0020375D01*
X0184295Y0020491D01*
X0184197Y0020609D01*
X0184103Y0020730D01*
X0184012Y0020853D01*
X0183924Y0020979D01*
X0183840Y0021107D01*
X0183758Y0021237D01*
X0183681Y0021369D01*
X0183606Y0021503D01*
X0183535Y0021639D01*
X0183468Y0021777D01*
X0183404Y0021917D01*
X0183344Y0022058D01*
X0183288Y0022200D01*
X0183235Y0022344D01*
X0183186Y0022490D01*
X0183141Y0022636D01*
X0183100Y0022784D01*
X0183063Y0022932D01*
X0183029Y0023082D01*
X0182999Y0023233D01*
X0182974Y0023384D01*
X0182952Y0023535D01*
X0182934Y0023688D01*
X0182920Y0023840D01*
X0182910Y0023993D01*
X0182904Y0024147D01*
X0182902Y0024300D01*
D11*
X0044300Y0216800D03*
D12*
X0058080Y0216800D03*
D13*
X0136800Y0216800D03*
D14*
X0150580Y0216800D03*
X0164359Y0216800D03*
D15*
X0184300Y0169300D03*
X0184300Y0129300D03*
X0166800Y0119300D03*
X0166800Y0079300D03*
X0166800Y0064300D03*
X0166800Y0024300D03*
X0041800Y0089300D03*
X0021800Y0069300D03*
X0016800Y0061800D03*
X0026800Y0061800D03*
X0019300Y0089300D03*
X0019300Y0129300D03*
X0019300Y0139300D03*
X0041800Y0139300D03*
X0041800Y0129300D03*
X0041800Y0179300D03*
X0019300Y0179300D03*
D16*
X0181300Y0096800D02*
X0187300Y0096800D01*
X0187300Y0086800D02*
X0181300Y0086800D01*
X0181300Y0076800D02*
X0187300Y0076800D01*
X0187300Y0066800D02*
X0181300Y0066800D01*
D17*
X0155400Y0069300D02*
X0148200Y0069300D01*
X0148200Y0059300D02*
X0155400Y0059300D01*
X0155400Y0049300D02*
X0148200Y0049300D01*
X0148200Y0039300D02*
X0155400Y0039300D01*
X0155400Y0079300D02*
X0148200Y0079300D01*
X0148200Y0089300D02*
X0155400Y0089300D01*
X0155400Y0099300D02*
X0148200Y0099300D01*
X0148200Y0109300D02*
X0155400Y0109300D01*
X0065400Y0109300D02*
X0058200Y0109300D01*
X0058200Y0099300D02*
X0065400Y0099300D01*
X0065400Y0089300D02*
X0058200Y0089300D01*
X0058200Y0079300D02*
X0065400Y0079300D01*
X0065400Y0069300D02*
X0058200Y0069300D01*
X0058200Y0059300D02*
X0065400Y0059300D01*
X0065400Y0049300D02*
X0058200Y0049300D01*
X0058200Y0039300D02*
X0065400Y0039300D01*
D18*
X0065381Y0221505D02*
X0126881Y0221505D01*
D19*
X0103631Y0164300D03*
X0108631Y0154300D03*
X0098631Y0154300D03*
X0093631Y0164300D03*
X0083631Y0164300D03*
X0088631Y0154300D03*
D20*
X0068631Y0154800D03*
X0068631Y0210300D03*
X0123631Y0210300D03*
X0123631Y0154800D03*
D21*
X0041800Y0064300D03*
X0041800Y0024300D03*
D22*
X0136800Y0151600D02*
X0136800Y0156800D01*
X0146800Y0156800D02*
X0146800Y0151600D01*
X0156800Y0151600D02*
X0156800Y0156800D01*
X0166800Y0156800D02*
X0166800Y0151600D01*
X0166800Y0186800D02*
X0166800Y0192000D01*
X0156800Y0192000D02*
X0156800Y0186800D01*
X0146800Y0186800D02*
X0146800Y0192000D01*
X0136800Y0192000D02*
X0136800Y0186800D01*
D23*
X0141800Y0187432D02*
X0141800Y0187432D01*
X0141800Y0189030D02*
X0141800Y0189030D01*
X0141800Y0190629D02*
X0141800Y0190629D01*
X0141800Y0192227D02*
X0141800Y0192227D01*
X0141800Y0192995D02*
X0141800Y0185805D01*
X0142561Y0183968D01*
X0143968Y0182561D01*
X0145805Y0181800D01*
X0147795Y0181800D01*
X0149632Y0182561D01*
X0151039Y0183968D01*
X0151443Y0184944D01*
X0151443Y0183612D01*
X0147822Y0179991D01*
X0054913Y0179991D01*
X0054913Y0202458D01*
X0054319Y0203891D01*
X0049007Y0209203D01*
X0049007Y0210495D01*
X0049659Y0210765D01*
X0050335Y0211441D01*
X0050700Y0212323D01*
X0050700Y0221277D01*
X0050335Y0222159D01*
X0049659Y0222835D01*
X0048777Y0223200D01*
X0039823Y0223200D01*
X0038941Y0222835D01*
X0038265Y0222159D01*
X0037900Y0221277D01*
X0037900Y0212323D01*
X0038265Y0211441D01*
X0038941Y0210765D01*
X0039823Y0210400D01*
X0041207Y0210400D01*
X0041207Y0206812D01*
X0041801Y0205378D01*
X0042898Y0204281D01*
X0047113Y0200066D01*
X0047113Y0179601D01*
X0046800Y0179914D01*
X0046800Y0181371D01*
X0043871Y0184300D01*
X0039729Y0184300D01*
X0036800Y0181371D01*
X0036800Y0177229D01*
X0039729Y0174300D01*
X0041383Y0174300D01*
X0045738Y0169945D01*
X0046835Y0168848D01*
X0048268Y0168254D01*
X0080271Y0168254D01*
X0079246Y0167230D01*
X0078459Y0165329D01*
X0078459Y0163271D01*
X0079246Y0161370D01*
X0080701Y0159916D01*
X0082602Y0159128D01*
X0084659Y0159128D01*
X0086560Y0159916D01*
X0088015Y0161370D01*
X0088631Y0162857D01*
X0089246Y0161370D01*
X0090701Y0159916D01*
X0092602Y0159128D01*
X0094659Y0159128D01*
X0096560Y0159916D01*
X0098015Y0161370D01*
X0098631Y0162857D01*
X0099246Y0161370D01*
X0100701Y0159916D01*
X0102602Y0159128D01*
X0104659Y0159128D01*
X0106560Y0159916D01*
X0108015Y0161370D01*
X0108802Y0163271D01*
X0108802Y0165329D01*
X0108015Y0167230D01*
X0106990Y0168254D01*
X0167930Y0168254D01*
X0169363Y0168848D01*
X0170461Y0169945D01*
X0171054Y0171379D01*
X0171054Y0184005D01*
X0171800Y0185805D01*
X0171800Y0190814D01*
X0190313Y0172300D01*
X0190313Y0142481D01*
X0182326Y0134493D01*
X0182259Y0134463D01*
X0181709Y0133876D01*
X0181141Y0133308D01*
X0181112Y0133240D01*
X0181062Y0133186D01*
X0181030Y0133101D01*
X0180574Y0132646D01*
X0180410Y0132577D01*
X0179915Y0132082D01*
X0179382Y0131628D01*
X0179300Y0131467D01*
X0179172Y0131340D01*
X0178904Y0130693D01*
X0178586Y0130069D01*
X0178571Y0129889D01*
X0178502Y0129722D01*
X0178502Y0129022D01*
X0178447Y0128324D01*
X0178502Y0128152D01*
X0178502Y0101486D01*
X0178241Y0101378D01*
X0176722Y0099859D01*
X0175900Y0097874D01*
X0175900Y0095726D01*
X0176722Y0093741D01*
X0178241Y0092222D01*
X0180093Y0091455D01*
X0179457Y0091248D01*
X0178784Y0090905D01*
X0178173Y0090461D01*
X0177639Y0089927D01*
X0177195Y0089316D01*
X0176852Y0088643D01*
X0176618Y0087924D01*
X0176500Y0087178D01*
X0176500Y0087000D01*
X0184100Y0087000D01*
X0184100Y0086600D01*
X0184500Y0086600D01*
X0184500Y0087000D01*
X0192100Y0087000D01*
X0192100Y0087178D01*
X0191982Y0087924D01*
X0191748Y0088643D01*
X0191405Y0089316D01*
X0190961Y0089927D01*
X0190427Y0090461D01*
X0189816Y0090905D01*
X0189143Y0091248D01*
X0188507Y0091455D01*
X0190359Y0092222D01*
X0191878Y0093741D01*
X0192700Y0095726D01*
X0192700Y0097874D01*
X0191878Y0099859D01*
X0190359Y0101378D01*
X0188374Y0102200D01*
X0187302Y0102200D01*
X0187302Y0125231D01*
X0189300Y0127229D01*
X0189300Y0129022D01*
X0198444Y0138166D01*
X0199113Y0139783D01*
X0199113Y0174998D01*
X0198444Y0176615D01*
X0197206Y0177853D01*
X0186471Y0188587D01*
X0191426Y0188587D01*
X0196451Y0190063D01*
X0196452Y0190063D01*
X0200857Y0192894D01*
X0200857Y0192894D01*
X0203101Y0195483D01*
X0203101Y0035617D01*
X0200857Y0038206D01*
X0196452Y0041037D01*
X0196451Y0041037D01*
X0191426Y0042513D01*
X0186189Y0042513D01*
X0181164Y0041037D01*
X0176758Y0038206D01*
X0173329Y0034248D01*
X0173329Y0034248D01*
X0171153Y0029484D01*
X0171153Y0029484D01*
X0170843Y0027328D01*
X0168871Y0029300D01*
X0166349Y0029300D01*
X0170884Y0033835D01*
X0171554Y0035452D01*
X0171554Y0061983D01*
X0171800Y0062229D01*
X0171800Y0066371D01*
X0171554Y0066617D01*
X0171554Y0076983D01*
X0171800Y0077229D01*
X0171800Y0081371D01*
X0168871Y0084300D01*
X0164729Y0084300D01*
X0161800Y0081371D01*
X0161800Y0077229D01*
X0162754Y0076275D01*
X0162754Y0067325D01*
X0161800Y0066371D01*
X0161800Y0062229D01*
X0162754Y0061275D01*
X0162754Y0038150D01*
X0157458Y0032854D01*
X0067224Y0032854D01*
X0067224Y0033561D01*
X0068799Y0034213D01*
X0070487Y0035901D01*
X0071400Y0038107D01*
X0071400Y0040493D01*
X0070487Y0042699D01*
X0068885Y0044300D01*
X0070487Y0045901D01*
X0071400Y0048107D01*
X0071400Y0050493D01*
X0070487Y0052699D01*
X0068885Y0054300D01*
X0070487Y0055901D01*
X0071400Y0058107D01*
X0071400Y0060493D01*
X0070487Y0062699D01*
X0068885Y0064300D01*
X0070487Y0065901D01*
X0071400Y0068107D01*
X0071400Y0070493D01*
X0070487Y0072699D01*
X0068885Y0074300D01*
X0070487Y0075901D01*
X0071400Y0078107D01*
X0071400Y0080493D01*
X0070487Y0082699D01*
X0068885Y0084300D01*
X0070487Y0085901D01*
X0071400Y0088107D01*
X0071400Y0090493D01*
X0070487Y0092699D01*
X0068885Y0094300D01*
X0070487Y0095901D01*
X0071400Y0098107D01*
X0071400Y0100493D01*
X0070487Y0102699D01*
X0068885Y0104300D01*
X0070487Y0105901D01*
X0071400Y0108107D01*
X0071400Y0110493D01*
X0070487Y0112699D01*
X0068799Y0114387D01*
X0066593Y0115300D01*
X0057007Y0115300D01*
X0054801Y0114387D01*
X0053113Y0112699D01*
X0052200Y0110493D01*
X0052200Y0108107D01*
X0053113Y0105901D01*
X0054715Y0104300D01*
X0053113Y0102699D01*
X0052200Y0100493D01*
X0052200Y0098107D01*
X0053113Y0095901D01*
X0054715Y0094300D01*
X0053113Y0092699D01*
X0052200Y0090493D01*
X0052200Y0088107D01*
X0053113Y0085901D01*
X0054715Y0084300D01*
X0053113Y0082699D01*
X0052200Y0080493D01*
X0052200Y0078107D01*
X0053113Y0075901D01*
X0054715Y0074300D01*
X0053113Y0072699D01*
X0052200Y0070493D01*
X0052200Y0068107D01*
X0053113Y0065901D01*
X0054715Y0064300D01*
X0053113Y0062699D01*
X0052200Y0060493D01*
X0052200Y0058107D01*
X0053113Y0055901D01*
X0054715Y0054300D01*
X0053113Y0052699D01*
X0052200Y0050493D01*
X0052200Y0048107D01*
X0053113Y0045901D01*
X0054715Y0044300D01*
X0053113Y0042699D01*
X0052200Y0040493D01*
X0052200Y0038107D01*
X0053113Y0035901D01*
X0054801Y0034213D01*
X0057007Y0033300D01*
X0058424Y0033300D01*
X0058424Y0027578D01*
X0059093Y0025961D01*
X0060331Y0024723D01*
X0061948Y0024054D01*
X0160156Y0024054D01*
X0161773Y0024723D01*
X0161800Y0024751D01*
X0161800Y0022229D01*
X0164729Y0019300D01*
X0168871Y0019300D01*
X0170843Y0021272D01*
X0171153Y0019116D01*
X0173329Y0014352D01*
X0176758Y0010394D01*
X0176758Y0010394D01*
X0181164Y0007563D01*
X0186189Y0006087D01*
X0191426Y0006087D01*
X0196451Y0007563D01*
X0196452Y0007563D01*
X0200857Y0010394D01*
X0200857Y0010394D01*
X0203101Y0012983D01*
X0203101Y0004200D01*
X0004200Y0004200D01*
X0004200Y0014165D01*
X0007467Y0010394D01*
X0011873Y0007563D01*
X0016898Y0006087D01*
X0022135Y0006087D01*
X0027160Y0007563D01*
X0027160Y0007563D01*
X0031566Y0010394D01*
X0031566Y0010394D01*
X0031566Y0010394D01*
X0034996Y0014352D01*
X0034996Y0014352D01*
X0037171Y0019116D01*
X0037171Y0019116D01*
X0037517Y0021519D01*
X0037910Y0020978D01*
X0038478Y0020410D01*
X0039127Y0019938D01*
X0039842Y0019574D01*
X0040606Y0019326D01*
X0041399Y0019200D01*
X0041500Y0019200D01*
X0041500Y0024000D01*
X0042100Y0024000D01*
X0042100Y0024600D01*
X0041500Y0024600D01*
X0041500Y0029400D01*
X0041399Y0029400D01*
X0040606Y0029274D01*
X0039842Y0029026D01*
X0039127Y0028662D01*
X0038478Y0028190D01*
X0037910Y0027622D01*
X0037517Y0027081D01*
X0037171Y0029484D01*
X0034996Y0034248D01*
X0031566Y0038206D01*
X0027160Y0041037D01*
X0022135Y0042513D01*
X0016898Y0042513D01*
X0011873Y0041037D01*
X0007467Y0038206D01*
X0007467Y0038206D01*
X0007467Y0038206D01*
X0004200Y0034435D01*
X0004200Y0196665D01*
X0007467Y0192894D01*
X0011873Y0190063D01*
X0016898Y0188587D01*
X0022135Y0188587D01*
X0027160Y0190063D01*
X0027160Y0190063D01*
X0031566Y0192894D01*
X0031566Y0192894D01*
X0031566Y0192894D01*
X0034996Y0196852D01*
X0034996Y0196852D01*
X0037171Y0201616D01*
X0037171Y0201616D01*
X0037917Y0206800D01*
X0037171Y0211984D01*
X0034996Y0216748D01*
X0031566Y0220706D01*
X0027160Y0223537D01*
X0022135Y0225013D01*
X0016898Y0225013D01*
X0011873Y0223537D01*
X0007467Y0220706D01*
X0007467Y0220706D01*
X0007467Y0220706D01*
X0004200Y0216935D01*
X0004200Y0226861D01*
X0203101Y0226861D01*
X0203101Y0218117D01*
X0200857Y0220706D01*
X0196452Y0223537D01*
X0196451Y0223537D01*
X0191426Y0225013D01*
X0186189Y0225013D01*
X0181164Y0223537D01*
X0176758Y0220706D01*
X0173329Y0216748D01*
X0171153Y0211984D01*
X0170408Y0206800D01*
X0170769Y0204290D01*
X0169586Y0205473D01*
X0169586Y0211915D01*
X0170421Y0212750D01*
X0171509Y0215378D01*
X0171509Y0218222D01*
X0170421Y0220850D01*
X0168409Y0222861D01*
X0165781Y0223950D01*
X0162937Y0223950D01*
X0160309Y0222861D01*
X0158298Y0220850D01*
X0157469Y0218850D01*
X0156641Y0220850D01*
X0154630Y0222861D01*
X0152002Y0223950D01*
X0149157Y0223950D01*
X0146529Y0222861D01*
X0144518Y0220850D01*
X0143430Y0218222D01*
X0143430Y0215378D01*
X0144518Y0212750D01*
X0144833Y0212435D01*
X0134321Y0201923D01*
X0133727Y0200489D01*
X0133727Y0195998D01*
X0132561Y0194832D01*
X0131800Y0192995D01*
X0131800Y0185805D01*
X0132561Y0183968D01*
X0133968Y0182561D01*
X0135805Y0181800D01*
X0137795Y0181800D01*
X0139632Y0182561D01*
X0141039Y0183968D01*
X0141800Y0185805D01*
X0141800Y0192995D01*
X0142561Y0194832D01*
X0143968Y0196239D01*
X0145805Y0197000D01*
X0147795Y0197000D01*
X0149632Y0196239D01*
X0151039Y0194832D01*
X0151800Y0192995D01*
X0151800Y0187707D01*
X0151800Y0187707D01*
X0151800Y0192995D01*
X0152561Y0194832D01*
X0153968Y0196239D01*
X0155805Y0197000D01*
X0157795Y0197000D01*
X0159632Y0196239D01*
X0161039Y0194832D01*
X0161800Y0192995D01*
X0161800Y0185805D01*
X0161039Y0183968D01*
X0159632Y0182561D01*
X0159243Y0182400D01*
X0159243Y0181221D01*
X0158650Y0179788D01*
X0154916Y0176054D01*
X0163254Y0176054D01*
X0163254Y0183275D01*
X0162561Y0183968D01*
X0161800Y0185805D01*
X0161800Y0192995D01*
X0162561Y0194832D01*
X0163968Y0196239D01*
X0165670Y0196944D01*
X0161456Y0201158D01*
X0160786Y0202775D01*
X0160786Y0210541D01*
X0160309Y0210739D01*
X0158298Y0212750D01*
X0157469Y0214750D01*
X0156641Y0212750D01*
X0154630Y0210739D01*
X0153065Y0210090D01*
X0152744Y0209315D01*
X0151647Y0208218D01*
X0151647Y0208218D01*
X0141527Y0198098D01*
X0141527Y0193654D01*
X0141800Y0192995D01*
X0141527Y0193826D02*
X0142144Y0193826D01*
X0141527Y0195424D02*
X0143153Y0195424D01*
X0141527Y0197023D02*
X0165591Y0197023D01*
X0163992Y0198621D02*
X0142050Y0198621D01*
X0143649Y0200220D02*
X0162394Y0200220D01*
X0161182Y0201818D02*
X0145247Y0201818D01*
X0146846Y0203417D02*
X0160786Y0203417D01*
X0160786Y0205015D02*
X0148444Y0205015D01*
X0150043Y0206614D02*
X0160786Y0206614D01*
X0160786Y0208212D02*
X0151641Y0208212D01*
X0152949Y0209811D02*
X0160786Y0209811D01*
X0159638Y0211409D02*
X0155301Y0211409D01*
X0156748Y0213008D02*
X0158191Y0213008D01*
X0157529Y0214606D02*
X0157410Y0214606D01*
X0157241Y0219402D02*
X0157698Y0219402D01*
X0158448Y0221001D02*
X0156491Y0221001D01*
X0154892Y0222599D02*
X0160046Y0222599D01*
X0168672Y0222599D02*
X0179704Y0222599D01*
X0181164Y0223537D02*
X0181164Y0223537D01*
X0183413Y0224198D02*
X0024911Y0224198D01*
X0027160Y0223537D02*
X0027160Y0223537D01*
X0028620Y0222599D02*
X0038705Y0222599D01*
X0037900Y0221001D02*
X0031107Y0221001D01*
X0031566Y0220706D02*
X0031566Y0220706D01*
X0032696Y0219402D02*
X0037900Y0219402D01*
X0037900Y0217803D02*
X0034081Y0217803D01*
X0034996Y0216748D02*
X0034996Y0216748D01*
X0035243Y0216205D02*
X0037900Y0216205D01*
X0037900Y0214606D02*
X0035973Y0214606D01*
X0036704Y0213008D02*
X0037900Y0213008D01*
X0037171Y0211984D02*
X0037171Y0211984D01*
X0037254Y0211409D02*
X0038296Y0211409D01*
X0037484Y0209811D02*
X0041207Y0209811D01*
X0041207Y0208212D02*
X0037713Y0208212D01*
X0037890Y0206614D02*
X0041289Y0206614D01*
X0042164Y0205015D02*
X0037660Y0205015D01*
X0037430Y0203417D02*
X0043762Y0203417D01*
X0045361Y0201818D02*
X0037200Y0201818D01*
X0036534Y0200220D02*
X0046959Y0200220D01*
X0047113Y0198621D02*
X0035804Y0198621D01*
X0035074Y0197023D02*
X0047113Y0197023D01*
X0047113Y0195424D02*
X0033758Y0195424D01*
X0032373Y0193826D02*
X0047113Y0193826D01*
X0047113Y0192227D02*
X0030528Y0192227D01*
X0028041Y0190629D02*
X0047113Y0190629D01*
X0047113Y0189030D02*
X0023644Y0189030D01*
X0021371Y0184300D02*
X0017229Y0184300D01*
X0014300Y0181371D01*
X0014300Y0177229D01*
X0017229Y0174300D01*
X0021371Y0174300D01*
X0024300Y0177229D01*
X0024300Y0181371D01*
X0021371Y0184300D01*
X0021436Y0184235D02*
X0039664Y0184235D01*
X0038065Y0182636D02*
X0023035Y0182636D01*
X0024300Y0181038D02*
X0036800Y0181038D01*
X0036800Y0179439D02*
X0024300Y0179439D01*
X0024300Y0177841D02*
X0036800Y0177841D01*
X0037787Y0176242D02*
X0023313Y0176242D01*
X0021715Y0174644D02*
X0039385Y0174644D01*
X0042638Y0173045D02*
X0004200Y0173045D01*
X0004200Y0171447D02*
X0044236Y0171447D01*
X0045835Y0169848D02*
X0004200Y0169848D01*
X0004200Y0168250D02*
X0080267Y0168250D01*
X0079007Y0166651D02*
X0004200Y0166651D01*
X0004200Y0165053D02*
X0078459Y0165053D01*
X0078459Y0163454D02*
X0004200Y0163454D01*
X0004200Y0161856D02*
X0066332Y0161856D01*
X0066244Y0161832D02*
X0065346Y0161460D01*
X0064505Y0160975D01*
X0063734Y0160383D01*
X0063047Y0159696D01*
X0062456Y0158926D01*
X0061970Y0158084D01*
X0061599Y0157187D01*
X0061347Y0156249D01*
X0061262Y0155600D01*
X0067831Y0155600D01*
X0067831Y0162169D01*
X0067182Y0162083D01*
X0066244Y0161832D01*
X0067831Y0161856D02*
X0069431Y0161856D01*
X0069431Y0162169D02*
X0070079Y0162083D01*
X0071018Y0161832D01*
X0071915Y0161460D01*
X0072756Y0160975D01*
X0073527Y0160383D01*
X0074214Y0159696D01*
X0074805Y0158926D01*
X0075291Y0158084D01*
X0075663Y0157187D01*
X0075914Y0156249D01*
X0076000Y0155600D01*
X0069431Y0155600D01*
X0069431Y0154000D01*
X0076000Y0154000D01*
X0075914Y0153351D01*
X0075663Y0152413D01*
X0075291Y0151516D01*
X0074805Y0150674D01*
X0074214Y0149904D01*
X0073527Y0149217D01*
X0072756Y0148625D01*
X0071915Y0148140D01*
X0071018Y0147768D01*
X0070079Y0147517D01*
X0069431Y0147431D01*
X0069431Y0154000D01*
X0067831Y0154000D01*
X0067831Y0147431D01*
X0067182Y0147517D01*
X0066244Y0147768D01*
X0065346Y0148140D01*
X0064505Y0148625D01*
X0063734Y0149217D01*
X0063047Y0149904D01*
X0062456Y0150674D01*
X0061970Y0151516D01*
X0061599Y0152413D01*
X0061347Y0153351D01*
X0061262Y0154000D01*
X0067831Y0154000D01*
X0067831Y0155600D01*
X0069431Y0155600D01*
X0069431Y0162169D01*
X0070930Y0161856D02*
X0079045Y0161856D01*
X0080360Y0160257D02*
X0073653Y0160257D01*
X0074960Y0158659D02*
X0085675Y0158659D01*
X0085701Y0158684D02*
X0084246Y0157230D01*
X0083459Y0155329D01*
X0083459Y0153271D01*
X0084246Y0151370D01*
X0085701Y0149916D01*
X0087602Y0149128D01*
X0089659Y0149128D01*
X0091560Y0149916D01*
X0093015Y0151370D01*
X0093802Y0153271D01*
X0093802Y0155329D01*
X0093015Y0157230D01*
X0091560Y0158684D01*
X0089659Y0159472D01*
X0087602Y0159472D01*
X0085701Y0158684D01*
X0086902Y0160257D02*
X0090360Y0160257D01*
X0091586Y0158659D02*
X0097251Y0158659D01*
X0097560Y0158759D02*
X0096876Y0158537D01*
X0096235Y0158210D01*
X0095652Y0157787D01*
X0095144Y0157278D01*
X0094721Y0156696D01*
X0094394Y0156055D01*
X0094172Y0155371D01*
X0094059Y0154660D01*
X0094059Y0154386D01*
X0098545Y0154386D01*
X0098545Y0158872D01*
X0098271Y0158872D01*
X0097560Y0158759D01*
X0098545Y0158659D02*
X0098717Y0158659D01*
X0098717Y0158872D02*
X0098991Y0158872D01*
X0099701Y0158759D01*
X0100386Y0158537D01*
X0101027Y0158210D01*
X0101609Y0157787D01*
X0102118Y0157278D01*
X0102541Y0156696D01*
X0102867Y0156055D01*
X0103090Y0155371D01*
X0103202Y0154660D01*
X0103202Y0154386D01*
X0098717Y0154386D01*
X0098717Y0154214D01*
X0103202Y0154214D01*
X0103202Y0153940D01*
X0103090Y0153229D01*
X0102867Y0152545D01*
X0102541Y0151904D01*
X0102118Y0151322D01*
X0101609Y0150813D01*
X0101027Y0150390D01*
X0100386Y0150063D01*
X0099701Y0149841D01*
X0098991Y0149728D01*
X0098717Y0149728D01*
X0098717Y0154214D01*
X0098545Y0154214D01*
X0098545Y0149728D01*
X0098271Y0149728D01*
X0097560Y0149841D01*
X0096876Y0150063D01*
X0096235Y0150390D01*
X0095652Y0150813D01*
X0095144Y0151322D01*
X0094721Y0151904D01*
X0094394Y0152545D01*
X0094172Y0153229D01*
X0094059Y0153940D01*
X0094059Y0154214D01*
X0098545Y0154214D01*
X0098545Y0154386D01*
X0098717Y0154386D01*
X0098717Y0158872D01*
X0100011Y0158659D02*
X0105675Y0158659D01*
X0105701Y0158684D02*
X0104246Y0157230D01*
X0103459Y0155329D01*
X0103459Y0153271D01*
X0104246Y0151370D01*
X0105701Y0149916D01*
X0107602Y0149128D01*
X0109659Y0149128D01*
X0111560Y0149916D01*
X0113015Y0151370D01*
X0113802Y0153271D01*
X0113802Y0155329D01*
X0113015Y0157230D01*
X0111560Y0158684D01*
X0109659Y0159472D01*
X0107602Y0159472D01*
X0105701Y0158684D01*
X0106902Y0160257D02*
X0118608Y0160257D01*
X0118734Y0160383D02*
X0118047Y0159696D01*
X0117456Y0158926D01*
X0116970Y0158084D01*
X0116599Y0157187D01*
X0116347Y0156249D01*
X0116262Y0155600D01*
X0122831Y0155600D01*
X0122831Y0162169D01*
X0122182Y0162083D01*
X0121244Y0161832D01*
X0120346Y0161460D01*
X0119505Y0160975D01*
X0118734Y0160383D01*
X0117302Y0158659D02*
X0111586Y0158659D01*
X0113085Y0157060D02*
X0116565Y0157060D01*
X0116262Y0154000D02*
X0116347Y0153351D01*
X0116599Y0152413D01*
X0116970Y0151516D01*
X0117456Y0150674D01*
X0118047Y0149904D01*
X0118734Y0149217D01*
X0119505Y0148625D01*
X0120346Y0148140D01*
X0121244Y0147768D01*
X0122182Y0147517D01*
X0122831Y0147431D01*
X0122831Y0154000D01*
X0124431Y0154000D01*
X0124431Y0155600D01*
X0131000Y0155600D01*
X0130914Y0156249D01*
X0130663Y0157187D01*
X0130291Y0158084D01*
X0129805Y0158926D01*
X0129214Y0159696D01*
X0128527Y0160383D01*
X0127756Y0160975D01*
X0126915Y0161460D01*
X0126018Y0161832D01*
X0125079Y0162083D01*
X0124431Y0162169D01*
X0124431Y0155600D01*
X0122831Y0155600D01*
X0122831Y0154000D01*
X0116262Y0154000D01*
X0116280Y0153863D02*
X0113802Y0153863D01*
X0113747Y0155462D02*
X0122831Y0155462D01*
X0122831Y0157060D02*
X0124431Y0157060D01*
X0124431Y0155462D02*
X0132400Y0155462D01*
X0132400Y0156800D02*
X0132400Y0151254D01*
X0132508Y0150570D01*
X0132722Y0149911D01*
X0133037Y0149294D01*
X0133444Y0148734D01*
X0133934Y0148244D01*
X0134494Y0147837D01*
X0135111Y0147522D01*
X0135770Y0147308D01*
X0136454Y0147200D01*
X0136800Y0147200D01*
X0137146Y0147200D01*
X0137830Y0147308D01*
X0138489Y0147522D01*
X0139106Y0147837D01*
X0139666Y0148244D01*
X0140156Y0148734D01*
X0140563Y0149294D01*
X0140878Y0149911D01*
X0141092Y0150570D01*
X0141200Y0151254D01*
X0141200Y0156800D01*
X0141200Y0157146D01*
X0141092Y0157830D01*
X0140878Y0158489D01*
X0140563Y0159106D01*
X0140156Y0159666D01*
X0139666Y0160156D01*
X0139106Y0160563D01*
X0138489Y0160878D01*
X0137830Y0161092D01*
X0137146Y0161200D01*
X0136800Y0161200D01*
X0136800Y0156800D01*
X0136800Y0156800D01*
X0141200Y0156800D01*
X0136800Y0156800D01*
X0136800Y0156800D01*
X0136800Y0156800D01*
X0132400Y0156800D01*
X0132400Y0157146D01*
X0132508Y0157830D01*
X0132722Y0158489D01*
X0133037Y0159106D01*
X0133444Y0159666D01*
X0133934Y0160156D01*
X0134494Y0160563D01*
X0135111Y0160878D01*
X0135770Y0161092D01*
X0136454Y0161200D01*
X0136800Y0161200D01*
X0136800Y0156800D01*
X0136800Y0147200D01*
X0136800Y0156800D01*
X0136800Y0156800D01*
X0132400Y0156800D01*
X0132400Y0157060D02*
X0130697Y0157060D01*
X0129960Y0158659D02*
X0132809Y0158659D01*
X0134073Y0160257D02*
X0128653Y0160257D01*
X0125930Y0161856D02*
X0190313Y0161856D01*
X0190313Y0163454D02*
X0108802Y0163454D01*
X0108802Y0165053D02*
X0181476Y0165053D01*
X0182229Y0164300D02*
X0179300Y0167229D01*
X0179300Y0171371D01*
X0182229Y0174300D01*
X0186371Y0174300D01*
X0189300Y0171371D01*
X0189300Y0167229D01*
X0186371Y0164300D01*
X0182229Y0164300D01*
X0179878Y0166651D02*
X0108255Y0166651D01*
X0106995Y0168250D02*
X0179300Y0168250D01*
X0179300Y0169848D02*
X0170364Y0169848D01*
X0171054Y0171447D02*
X0179376Y0171447D01*
X0180974Y0173045D02*
X0171054Y0173045D01*
X0171054Y0174644D02*
X0187970Y0174644D01*
X0187626Y0173045D02*
X0189568Y0173045D01*
X0189224Y0171447D02*
X0190313Y0171447D01*
X0190313Y0169848D02*
X0189300Y0169848D01*
X0189300Y0168250D02*
X0190313Y0168250D01*
X0190313Y0166651D02*
X0188722Y0166651D01*
X0190313Y0165053D02*
X0187124Y0165053D01*
X0190313Y0160257D02*
X0170414Y0160257D01*
X0171039Y0159632D02*
X0169632Y0161039D01*
X0167795Y0161800D01*
X0165805Y0161800D01*
X0163968Y0161039D01*
X0162561Y0159632D01*
X0161800Y0157795D01*
X0161800Y0150605D01*
X0162561Y0148768D01*
X0163968Y0147361D01*
X0165805Y0146600D01*
X0167795Y0146600D01*
X0169632Y0147361D01*
X0171039Y0148768D01*
X0171800Y0150605D01*
X0171800Y0157795D01*
X0171039Y0159632D01*
X0171442Y0158659D02*
X0190313Y0158659D01*
X0190313Y0157060D02*
X0171800Y0157060D01*
X0171800Y0155462D02*
X0190313Y0155462D01*
X0190313Y0153863D02*
X0171800Y0153863D01*
X0171800Y0152265D02*
X0190313Y0152265D01*
X0190313Y0150666D02*
X0171800Y0150666D01*
X0171163Y0149068D02*
X0190313Y0149068D01*
X0190313Y0147469D02*
X0169740Y0147469D01*
X0163860Y0147469D02*
X0158325Y0147469D01*
X0158489Y0147522D02*
X0159106Y0147837D01*
X0159666Y0148244D01*
X0160156Y0148734D01*
X0160563Y0149294D01*
X0160878Y0149911D01*
X0161092Y0150570D01*
X0161200Y0151254D01*
X0161200Y0156800D01*
X0161200Y0157146D01*
X0161092Y0157830D01*
X0160878Y0158489D01*
X0160563Y0159106D01*
X0160156Y0159666D01*
X0159666Y0160156D01*
X0159106Y0160563D01*
X0158489Y0160878D01*
X0157830Y0161092D01*
X0157146Y0161200D01*
X0156800Y0161200D01*
X0156800Y0156800D01*
X0156800Y0156800D01*
X0161200Y0156800D01*
X0156800Y0156800D01*
X0156800Y0156800D01*
X0156800Y0156800D01*
X0152400Y0156800D01*
X0152400Y0157146D01*
X0152508Y0157830D01*
X0152722Y0158489D01*
X0153037Y0159106D01*
X0153444Y0159666D01*
X0153934Y0160156D01*
X0154494Y0160563D01*
X0155111Y0160878D01*
X0155770Y0161092D01*
X0156454Y0161200D01*
X0156800Y0161200D01*
X0156800Y0156800D01*
X0156800Y0147200D01*
X0157146Y0147200D01*
X0157830Y0147308D01*
X0158489Y0147522D01*
X0156800Y0147469D02*
X0156800Y0147469D01*
X0156800Y0147200D02*
X0156800Y0156800D01*
X0156800Y0156800D01*
X0152400Y0156800D01*
X0152400Y0151254D01*
X0152508Y0150570D01*
X0152722Y0149911D01*
X0153037Y0149294D01*
X0153444Y0148734D01*
X0153934Y0148244D01*
X0154494Y0147837D01*
X0155111Y0147522D01*
X0155770Y0147308D01*
X0156454Y0147200D01*
X0156800Y0147200D01*
X0155275Y0147469D02*
X0149740Y0147469D01*
X0149632Y0147361D02*
X0151039Y0148768D01*
X0151800Y0150605D01*
X0151800Y0157795D01*
X0151039Y0159632D01*
X0149632Y0161039D01*
X0147795Y0161800D01*
X0145805Y0161800D01*
X0143968Y0161039D01*
X0142561Y0159632D01*
X0141800Y0157795D01*
X0141800Y0157756D01*
X0141696Y0157562D01*
X0141677Y0157365D01*
X0141601Y0157182D01*
X0141601Y0156598D01*
X0141543Y0156018D01*
X0141601Y0155828D01*
X0141601Y0139883D01*
X0142195Y0138449D01*
X0143292Y0137352D01*
X0161800Y0118844D01*
X0161800Y0117229D01*
X0164729Y0114300D01*
X0168871Y0114300D01*
X0171800Y0117229D01*
X0171800Y0121371D01*
X0168871Y0124300D01*
X0167374Y0124300D01*
X0149401Y0142274D01*
X0149401Y0147265D01*
X0149632Y0147361D01*
X0149401Y0145870D02*
X0190313Y0145870D01*
X0190313Y0144272D02*
X0149401Y0144272D01*
X0149401Y0142673D02*
X0190313Y0142673D01*
X0188908Y0141075D02*
X0150600Y0141075D01*
X0152198Y0139476D02*
X0187309Y0139476D01*
X0185711Y0137878D02*
X0153797Y0137878D01*
X0155395Y0136279D02*
X0184112Y0136279D01*
X0182513Y0134681D02*
X0156994Y0134681D01*
X0158592Y0133082D02*
X0181011Y0133082D01*
X0179308Y0131484D02*
X0160191Y0131484D01*
X0161789Y0129885D02*
X0178570Y0129885D01*
X0178459Y0128287D02*
X0163388Y0128287D01*
X0164986Y0126688D02*
X0178502Y0126688D01*
X0178502Y0125090D02*
X0166585Y0125090D01*
X0169680Y0123491D02*
X0178502Y0123491D01*
X0178502Y0121893D02*
X0171278Y0121893D01*
X0171800Y0120294D02*
X0178502Y0120294D01*
X0178502Y0118696D02*
X0171800Y0118696D01*
X0171668Y0117097D02*
X0178502Y0117097D01*
X0178502Y0115499D02*
X0170070Y0115499D01*
X0163530Y0115499D02*
X0080372Y0115499D01*
X0080333Y0115592D02*
X0054743Y0141182D01*
X0053505Y0142420D01*
X0051888Y0143090D01*
X0045081Y0143090D01*
X0043871Y0144300D01*
X0039729Y0144300D01*
X0036800Y0141371D01*
X0036800Y0137229D01*
X0039729Y0134300D01*
X0036800Y0131371D01*
X0036800Y0127229D01*
X0039729Y0124300D01*
X0043871Y0124300D01*
X0046800Y0127229D01*
X0046800Y0131371D01*
X0043896Y0134275D01*
X0043934Y0134290D01*
X0049190Y0134290D01*
X0072203Y0111277D01*
X0072203Y0037421D01*
X0072873Y0035804D01*
X0074111Y0034566D01*
X0075728Y0033896D01*
X0145568Y0033896D01*
X0147007Y0033300D01*
X0156593Y0033300D01*
X0158799Y0034213D01*
X0160487Y0035901D01*
X0161400Y0038107D01*
X0161400Y0040493D01*
X0160487Y0042699D01*
X0158799Y0044387D01*
X0158166Y0044649D01*
X0158230Y0044682D01*
X0158918Y0045181D01*
X0159519Y0045782D01*
X0160018Y0046470D01*
X0160404Y0047227D01*
X0160667Y0048035D01*
X0160800Y0048875D01*
X0160800Y0049100D01*
X0152000Y0049100D01*
X0152000Y0049500D01*
X0160800Y0049500D01*
X0160800Y0049725D01*
X0160667Y0050565D01*
X0160404Y0051373D01*
X0160018Y0052130D01*
X0159519Y0052818D01*
X0158918Y0053419D01*
X0158230Y0053918D01*
X0158166Y0053951D01*
X0158799Y0054213D01*
X0160487Y0055901D01*
X0161400Y0058107D01*
X0161400Y0060493D01*
X0160487Y0062699D01*
X0158885Y0064300D01*
X0160487Y0065901D01*
X0161400Y0068107D01*
X0161400Y0070493D01*
X0160487Y0072699D01*
X0158885Y0074300D01*
X0160487Y0075901D01*
X0161400Y0078107D01*
X0161400Y0080493D01*
X0160487Y0082699D01*
X0158885Y0084300D01*
X0160487Y0085901D01*
X0161400Y0088107D01*
X0161400Y0090493D01*
X0160487Y0092699D01*
X0158885Y0094300D01*
X0160487Y0095901D01*
X0161400Y0098107D01*
X0161400Y0100493D01*
X0160487Y0102699D01*
X0158885Y0104300D01*
X0160487Y0105901D01*
X0161400Y0108107D01*
X0161400Y0110493D01*
X0160487Y0112699D01*
X0158799Y0114387D01*
X0156593Y0115300D01*
X0147007Y0115300D01*
X0144801Y0114387D01*
X0143113Y0112699D01*
X0142200Y0110493D01*
X0142200Y0108107D01*
X0143113Y0105901D01*
X0144715Y0104300D01*
X0143113Y0102699D01*
X0142200Y0100493D01*
X0142200Y0098107D01*
X0143113Y0095901D01*
X0144715Y0094300D01*
X0143113Y0092699D01*
X0142200Y0090493D01*
X0142200Y0088107D01*
X0143113Y0085901D01*
X0144715Y0084300D01*
X0143113Y0082699D01*
X0142200Y0080493D01*
X0142200Y0078107D01*
X0143113Y0075901D01*
X0144715Y0074300D01*
X0143113Y0072699D01*
X0142200Y0070493D01*
X0142200Y0068107D01*
X0143113Y0065901D01*
X0144715Y0064300D01*
X0143113Y0062699D01*
X0142200Y0060493D01*
X0142200Y0058107D01*
X0143113Y0055901D01*
X0144801Y0054213D01*
X0145434Y0053951D01*
X0145370Y0053918D01*
X0144682Y0053419D01*
X0144081Y0052818D01*
X0143582Y0052130D01*
X0143196Y0051373D01*
X0142933Y0050565D01*
X0142800Y0049725D01*
X0142800Y0049500D01*
X0151600Y0049500D01*
X0151600Y0049100D01*
X0142800Y0049100D01*
X0142800Y0048875D01*
X0142933Y0048035D01*
X0143196Y0047227D01*
X0143582Y0046470D01*
X0144081Y0045782D01*
X0144682Y0045181D01*
X0145370Y0044682D01*
X0145434Y0044649D01*
X0144801Y0044387D01*
X0143113Y0042699D01*
X0143112Y0042696D01*
X0081003Y0042696D01*
X0081003Y0113974D01*
X0080333Y0115592D01*
X0081003Y0113900D02*
X0144315Y0113900D01*
X0142949Y0112302D02*
X0081003Y0112302D01*
X0081003Y0110703D02*
X0142287Y0110703D01*
X0142200Y0109105D02*
X0081003Y0109105D01*
X0081003Y0107506D02*
X0142449Y0107506D01*
X0143111Y0105908D02*
X0081003Y0105908D01*
X0081003Y0104309D02*
X0144706Y0104309D01*
X0143125Y0102711D02*
X0081003Y0102711D01*
X0081003Y0101112D02*
X0142456Y0101112D01*
X0142200Y0099514D02*
X0081003Y0099514D01*
X0081003Y0097915D02*
X0142279Y0097915D01*
X0142941Y0096317D02*
X0081003Y0096317D01*
X0081003Y0094718D02*
X0144297Y0094718D01*
X0143534Y0093120D02*
X0081003Y0093120D01*
X0081003Y0091521D02*
X0142626Y0091521D01*
X0142200Y0089923D02*
X0081003Y0089923D01*
X0081003Y0088324D02*
X0142200Y0088324D01*
X0142772Y0086726D02*
X0081003Y0086726D01*
X0081003Y0085127D02*
X0143888Y0085127D01*
X0143943Y0083529D02*
X0081003Y0083529D01*
X0081003Y0081930D02*
X0142795Y0081930D01*
X0142200Y0080332D02*
X0081003Y0080332D01*
X0081003Y0078733D02*
X0142200Y0078733D01*
X0142603Y0077134D02*
X0081003Y0077134D01*
X0081003Y0075536D02*
X0143479Y0075536D01*
X0144352Y0073937D02*
X0081003Y0073937D01*
X0081003Y0072339D02*
X0142964Y0072339D01*
X0142302Y0070740D02*
X0081003Y0070740D01*
X0081003Y0069142D02*
X0142200Y0069142D01*
X0142433Y0067543D02*
X0081003Y0067543D01*
X0081003Y0065945D02*
X0143095Y0065945D01*
X0144668Y0064346D02*
X0081003Y0064346D01*
X0081003Y0062748D02*
X0143163Y0062748D01*
X0142472Y0061149D02*
X0081003Y0061149D01*
X0081003Y0059551D02*
X0142200Y0059551D01*
X0142264Y0057952D02*
X0081003Y0057952D01*
X0081003Y0056354D02*
X0142926Y0056354D01*
X0144259Y0054755D02*
X0081003Y0054755D01*
X0081003Y0053157D02*
X0144420Y0053157D01*
X0143290Y0051558D02*
X0081003Y0051558D01*
X0081003Y0049960D02*
X0142837Y0049960D01*
X0142881Y0048361D02*
X0081003Y0048361D01*
X0081003Y0046763D02*
X0143432Y0046763D01*
X0144705Y0045164D02*
X0081003Y0045164D01*
X0081003Y0043566D02*
X0143980Y0043566D01*
X0158222Y0033975D02*
X0158579Y0033975D01*
X0160158Y0035573D02*
X0160177Y0035573D01*
X0161013Y0037172D02*
X0161776Y0037172D01*
X0161400Y0038770D02*
X0162754Y0038770D01*
X0162754Y0040369D02*
X0161400Y0040369D01*
X0160790Y0041967D02*
X0162754Y0041967D01*
X0162754Y0043566D02*
X0159620Y0043566D01*
X0158895Y0045164D02*
X0162754Y0045164D01*
X0162754Y0046763D02*
X0160168Y0046763D01*
X0160719Y0048361D02*
X0162754Y0048361D01*
X0162754Y0049960D02*
X0160763Y0049960D01*
X0160310Y0051558D02*
X0162754Y0051558D01*
X0162754Y0053157D02*
X0159180Y0053157D01*
X0159341Y0054755D02*
X0162754Y0054755D01*
X0162754Y0056354D02*
X0160674Y0056354D01*
X0161336Y0057952D02*
X0162754Y0057952D01*
X0162754Y0059551D02*
X0161400Y0059551D01*
X0161128Y0061149D02*
X0162754Y0061149D01*
X0161800Y0062748D02*
X0160437Y0062748D01*
X0161800Y0064346D02*
X0158932Y0064346D01*
X0160505Y0065945D02*
X0161800Y0065945D01*
X0161167Y0067543D02*
X0162754Y0067543D01*
X0162754Y0069142D02*
X0161400Y0069142D01*
X0161298Y0070740D02*
X0162754Y0070740D01*
X0162754Y0072339D02*
X0160636Y0072339D01*
X0159248Y0073937D02*
X0162754Y0073937D01*
X0162754Y0075536D02*
X0160121Y0075536D01*
X0160997Y0077134D02*
X0161894Y0077134D01*
X0161800Y0078733D02*
X0161400Y0078733D01*
X0161400Y0080332D02*
X0161800Y0080332D01*
X0162359Y0081930D02*
X0160805Y0081930D01*
X0159657Y0083529D02*
X0163957Y0083529D01*
X0160828Y0086726D02*
X0184100Y0086726D01*
X0184100Y0086600D02*
X0176500Y0086600D01*
X0176500Y0086422D01*
X0176618Y0085676D01*
X0176852Y0084957D01*
X0177195Y0084284D01*
X0177639Y0083673D01*
X0178173Y0083139D01*
X0178784Y0082695D01*
X0179457Y0082352D01*
X0180176Y0082118D01*
X0180922Y0082000D01*
X0184100Y0082000D01*
X0184100Y0086600D01*
X0184500Y0086600D02*
X0184500Y0082000D01*
X0187678Y0082000D01*
X0188424Y0082118D01*
X0189143Y0082352D01*
X0189816Y0082695D01*
X0190427Y0083139D01*
X0190961Y0083673D01*
X0191405Y0084284D01*
X0191748Y0084957D01*
X0191982Y0085676D01*
X0192100Y0086422D01*
X0192100Y0086600D01*
X0184500Y0086600D01*
X0184500Y0086726D02*
X0203101Y0086726D01*
X0203101Y0088324D02*
X0191852Y0088324D01*
X0190964Y0089923D02*
X0203101Y0089923D01*
X0203101Y0091521D02*
X0188666Y0091521D01*
X0191256Y0093120D02*
X0203101Y0093120D01*
X0203101Y0094718D02*
X0192283Y0094718D01*
X0192700Y0096317D02*
X0203101Y0096317D01*
X0203101Y0097915D02*
X0192683Y0097915D01*
X0192021Y0099514D02*
X0203101Y0099514D01*
X0203101Y0101112D02*
X0190625Y0101112D01*
X0187302Y0102711D02*
X0203101Y0102711D01*
X0203101Y0104309D02*
X0187302Y0104309D01*
X0187302Y0105908D02*
X0203101Y0105908D01*
X0203101Y0107506D02*
X0187302Y0107506D01*
X0187302Y0109105D02*
X0203101Y0109105D01*
X0203101Y0110703D02*
X0187302Y0110703D01*
X0187302Y0112302D02*
X0203101Y0112302D01*
X0203101Y0113900D02*
X0187302Y0113900D01*
X0187302Y0115499D02*
X0203101Y0115499D01*
X0203101Y0117097D02*
X0187302Y0117097D01*
X0187302Y0118696D02*
X0203101Y0118696D01*
X0203101Y0120294D02*
X0187302Y0120294D01*
X0187302Y0121893D02*
X0203101Y0121893D01*
X0203101Y0123491D02*
X0187302Y0123491D01*
X0187302Y0125090D02*
X0203101Y0125090D01*
X0203101Y0126688D02*
X0188759Y0126688D01*
X0189300Y0128287D02*
X0203101Y0128287D01*
X0203101Y0129885D02*
X0190163Y0129885D01*
X0191762Y0131484D02*
X0203101Y0131484D01*
X0203101Y0133082D02*
X0193360Y0133082D01*
X0194959Y0134681D02*
X0203101Y0134681D01*
X0203101Y0136279D02*
X0196557Y0136279D01*
X0198156Y0137878D02*
X0203101Y0137878D01*
X0203101Y0139476D02*
X0198986Y0139476D01*
X0199113Y0141075D02*
X0203101Y0141075D01*
X0203101Y0142673D02*
X0199113Y0142673D01*
X0199113Y0144272D02*
X0203101Y0144272D01*
X0203101Y0145870D02*
X0199113Y0145870D01*
X0199113Y0147469D02*
X0203101Y0147469D01*
X0203101Y0149068D02*
X0199113Y0149068D01*
X0199113Y0150666D02*
X0203101Y0150666D01*
X0203101Y0152265D02*
X0199113Y0152265D01*
X0199113Y0153863D02*
X0203101Y0153863D01*
X0203101Y0155462D02*
X0199113Y0155462D01*
X0199113Y0157060D02*
X0203101Y0157060D01*
X0203101Y0158659D02*
X0199113Y0158659D01*
X0199113Y0160257D02*
X0203101Y0160257D01*
X0203101Y0161856D02*
X0199113Y0161856D01*
X0199113Y0163454D02*
X0203101Y0163454D01*
X0203101Y0165053D02*
X0199113Y0165053D01*
X0199113Y0166651D02*
X0203101Y0166651D01*
X0203101Y0168250D02*
X0199113Y0168250D01*
X0199113Y0169848D02*
X0203101Y0169848D01*
X0203101Y0171447D02*
X0199113Y0171447D01*
X0199113Y0173045D02*
X0203101Y0173045D01*
X0203101Y0174644D02*
X0199113Y0174644D01*
X0198598Y0176242D02*
X0203101Y0176242D01*
X0203101Y0177841D02*
X0197218Y0177841D01*
X0195620Y0179439D02*
X0203101Y0179439D01*
X0203101Y0181038D02*
X0194021Y0181038D01*
X0192423Y0182636D02*
X0203101Y0182636D01*
X0203101Y0184235D02*
X0190824Y0184235D01*
X0189225Y0185833D02*
X0203101Y0185833D01*
X0203101Y0187432D02*
X0187627Y0187432D01*
X0181576Y0181038D02*
X0171054Y0181038D01*
X0171054Y0182636D02*
X0179977Y0182636D01*
X0178379Y0184235D02*
X0171149Y0184235D01*
X0171800Y0185833D02*
X0176780Y0185833D01*
X0175182Y0187432D02*
X0171800Y0187432D01*
X0171800Y0189030D02*
X0173583Y0189030D01*
X0171985Y0190629D02*
X0171800Y0190629D01*
X0163153Y0195424D02*
X0160447Y0195424D01*
X0161456Y0193826D02*
X0162144Y0193826D01*
X0161800Y0192227D02*
X0161800Y0192227D01*
X0161800Y0190629D02*
X0161800Y0190629D01*
X0161800Y0189030D02*
X0161800Y0189030D01*
X0161800Y0187432D02*
X0161800Y0187432D01*
X0161800Y0185833D02*
X0161800Y0185833D01*
X0161149Y0184235D02*
X0162451Y0184235D01*
X0163254Y0182636D02*
X0159707Y0182636D01*
X0159167Y0181038D02*
X0163254Y0181038D01*
X0163254Y0179439D02*
X0158301Y0179439D01*
X0156703Y0177841D02*
X0163254Y0177841D01*
X0163254Y0176242D02*
X0155104Y0176242D01*
X0150467Y0182636D02*
X0149707Y0182636D01*
X0148869Y0181038D02*
X0119179Y0181038D01*
X0117881Y0180500D02*
X0121116Y0181840D01*
X0123591Y0184315D01*
X0124931Y0187550D01*
X0124931Y0191050D01*
X0123591Y0194285D01*
X0121116Y0196760D01*
X0117881Y0198100D01*
X0114380Y0198100D01*
X0111146Y0196760D01*
X0108670Y0194285D01*
X0107331Y0191050D01*
X0107331Y0187550D01*
X0108670Y0184315D01*
X0111146Y0181840D01*
X0114380Y0180500D01*
X0117881Y0180500D01*
X0121912Y0182636D02*
X0133893Y0182636D01*
X0132451Y0184235D02*
X0123511Y0184235D01*
X0124220Y0185833D02*
X0131800Y0185833D01*
X0131800Y0187432D02*
X0124882Y0187432D01*
X0124931Y0189030D02*
X0131800Y0189030D01*
X0131800Y0190629D02*
X0124931Y0190629D01*
X0124443Y0192227D02*
X0131800Y0192227D01*
X0132144Y0193826D02*
X0123781Y0193826D01*
X0122451Y0195424D02*
X0133153Y0195424D01*
X0133727Y0197023D02*
X0120482Y0197023D01*
X0122182Y0203017D02*
X0122831Y0202931D01*
X0122831Y0209500D01*
X0124431Y0209500D01*
X0124431Y0211100D01*
X0130520Y0211100D01*
X0130610Y0210945D01*
X0130945Y0210610D01*
X0131355Y0210373D01*
X0131813Y0210250D01*
X0136419Y0210250D01*
X0136419Y0216419D01*
X0137181Y0216419D01*
X0137181Y0217181D01*
X0143350Y0217181D01*
X0143350Y0221787D01*
X0143227Y0222245D01*
X0142990Y0222655D01*
X0142655Y0222990D01*
X0142245Y0223227D01*
X0141787Y0223350D01*
X0137181Y0223350D01*
X0137181Y0217181D01*
X0136419Y0217181D01*
X0136419Y0216419D01*
X0130250Y0216419D01*
X0130250Y0213655D01*
X0129805Y0214426D01*
X0129214Y0215196D01*
X0128527Y0215883D01*
X0127756Y0216475D01*
X0126915Y0216960D01*
X0126018Y0217332D01*
X0125079Y0217583D01*
X0124431Y0217669D01*
X0124431Y0211100D01*
X0122831Y0211100D01*
X0122831Y0217669D01*
X0122182Y0217583D01*
X0121244Y0217332D01*
X0120346Y0216960D01*
X0119505Y0216475D01*
X0118734Y0215883D01*
X0118047Y0215196D01*
X0117456Y0214426D01*
X0116970Y0213584D01*
X0116599Y0212687D01*
X0116347Y0211749D01*
X0116262Y0211100D01*
X0122831Y0211100D01*
X0122831Y0209500D01*
X0116262Y0209500D01*
X0116347Y0208851D01*
X0116599Y0207913D01*
X0116970Y0207016D01*
X0117456Y0206174D01*
X0118047Y0205404D01*
X0118734Y0204717D01*
X0119505Y0204125D01*
X0120346Y0203640D01*
X0121244Y0203268D01*
X0122182Y0203017D01*
X0122831Y0203417D02*
X0124431Y0203417D01*
X0124431Y0202931D02*
X0125079Y0203017D01*
X0126018Y0203268D01*
X0126915Y0203640D01*
X0127756Y0204125D01*
X0128527Y0204717D01*
X0129214Y0205404D01*
X0129805Y0206174D01*
X0130291Y0207016D01*
X0130663Y0207913D01*
X0130914Y0208851D01*
X0131000Y0209500D01*
X0124431Y0209500D01*
X0124431Y0202931D01*
X0126377Y0203417D02*
X0135815Y0203417D01*
X0134277Y0201818D02*
X0054913Y0201818D01*
X0054913Y0200220D02*
X0133727Y0200220D01*
X0133727Y0198621D02*
X0054913Y0198621D01*
X0054913Y0197023D02*
X0071780Y0197023D01*
X0071146Y0196760D02*
X0068670Y0194285D01*
X0067331Y0191050D01*
X0067331Y0187550D01*
X0068670Y0184315D01*
X0071146Y0181840D01*
X0074380Y0180500D01*
X0077881Y0180500D01*
X0081116Y0181840D01*
X0083591Y0184315D01*
X0084931Y0187550D01*
X0084931Y0191050D01*
X0083591Y0194285D01*
X0081116Y0196760D01*
X0077881Y0198100D01*
X0074380Y0198100D01*
X0071146Y0196760D01*
X0069810Y0195424D02*
X0054913Y0195424D01*
X0054913Y0193826D02*
X0068480Y0193826D01*
X0067818Y0192227D02*
X0054913Y0192227D01*
X0054913Y0190629D02*
X0067331Y0190629D01*
X0067331Y0189030D02*
X0054913Y0189030D01*
X0054913Y0187432D02*
X0067379Y0187432D01*
X0068042Y0185833D02*
X0054913Y0185833D01*
X0054913Y0184235D02*
X0068751Y0184235D01*
X0070349Y0182636D02*
X0054913Y0182636D01*
X0054913Y0181038D02*
X0073082Y0181038D01*
X0079179Y0181038D02*
X0113082Y0181038D01*
X0110349Y0182636D02*
X0081912Y0182636D01*
X0083511Y0184235D02*
X0108751Y0184235D01*
X0108042Y0185833D02*
X0084220Y0185833D01*
X0084882Y0187432D02*
X0107379Y0187432D01*
X0107331Y0189030D02*
X0084931Y0189030D01*
X0084931Y0190629D02*
X0107331Y0190629D01*
X0107818Y0192227D02*
X0084443Y0192227D01*
X0083781Y0193826D02*
X0108480Y0193826D01*
X0109810Y0195424D02*
X0082451Y0195424D01*
X0080482Y0197023D02*
X0111780Y0197023D01*
X0118436Y0205015D02*
X0073826Y0205015D01*
X0073527Y0204717D02*
X0074214Y0205404D01*
X0074805Y0206174D01*
X0075291Y0207016D01*
X0075663Y0207913D01*
X0075914Y0208851D01*
X0076000Y0209500D01*
X0069431Y0209500D01*
X0069431Y0211100D01*
X0076000Y0211100D01*
X0075914Y0211749D01*
X0075663Y0212687D01*
X0075291Y0213584D01*
X0074805Y0214426D01*
X0074214Y0215196D01*
X0073527Y0215883D01*
X0072756Y0216475D01*
X0071915Y0216960D01*
X0071018Y0217332D01*
X0070079Y0217583D01*
X0069431Y0217669D01*
X0069431Y0211100D01*
X0067831Y0211100D01*
X0067831Y0217669D01*
X0067182Y0217583D01*
X0066244Y0217332D01*
X0065346Y0216960D01*
X0064505Y0216475D01*
X0063817Y0215946D01*
X0063880Y0216344D01*
X0063880Y0216419D01*
X0058461Y0216419D01*
X0058461Y0217181D01*
X0063880Y0217181D01*
X0063880Y0217256D01*
X0063737Y0218158D01*
X0063455Y0219026D01*
X0063040Y0219840D01*
X0062504Y0220578D01*
X0061858Y0221224D01*
X0061119Y0221761D01*
X0060306Y0222175D01*
X0059438Y0222457D01*
X0058536Y0222600D01*
X0058461Y0222600D01*
X0058461Y0217181D01*
X0057698Y0217181D01*
X0057698Y0216419D01*
X0052280Y0216419D01*
X0052280Y0216344D01*
X0052422Y0215442D01*
X0052704Y0214574D01*
X0053119Y0213760D01*
X0053656Y0213022D01*
X0054301Y0212376D01*
X0055040Y0211839D01*
X0055853Y0211425D01*
X0056721Y0211143D01*
X0057623Y0211000D01*
X0057698Y0211000D01*
X0057698Y0216419D01*
X0058461Y0216419D01*
X0058461Y0211000D01*
X0058536Y0211000D01*
X0059438Y0211143D01*
X0060306Y0211425D01*
X0061119Y0211839D01*
X0061433Y0212067D01*
X0061347Y0211749D01*
X0061262Y0211100D01*
X0067831Y0211100D01*
X0067831Y0209500D01*
X0069431Y0209500D01*
X0069431Y0202931D01*
X0070079Y0203017D01*
X0071018Y0203268D01*
X0071915Y0203640D01*
X0072756Y0204125D01*
X0073527Y0204717D01*
X0075059Y0206614D02*
X0117202Y0206614D01*
X0116518Y0208212D02*
X0075743Y0208212D01*
X0075959Y0211409D02*
X0116303Y0211409D01*
X0116732Y0213008D02*
X0075530Y0213008D01*
X0074667Y0214606D02*
X0117595Y0214606D01*
X0119154Y0216205D02*
X0073108Y0216205D01*
X0069431Y0216205D02*
X0067831Y0216205D01*
X0067831Y0214606D02*
X0069431Y0214606D01*
X0069431Y0213008D02*
X0067831Y0213008D01*
X0067831Y0211409D02*
X0069431Y0211409D01*
X0069431Y0209811D02*
X0122831Y0209811D01*
X0122831Y0211409D02*
X0124431Y0211409D01*
X0124431Y0209811D02*
X0142209Y0209811D01*
X0142245Y0210373D02*
X0142655Y0210610D01*
X0142990Y0210945D01*
X0143227Y0211355D01*
X0143350Y0211813D01*
X0143350Y0216419D01*
X0137181Y0216419D01*
X0137181Y0210250D01*
X0141787Y0210250D01*
X0142245Y0210373D01*
X0143242Y0211409D02*
X0143807Y0211409D01*
X0143350Y0213008D02*
X0144411Y0213008D01*
X0143749Y0214606D02*
X0143350Y0214606D01*
X0143350Y0216205D02*
X0143430Y0216205D01*
X0143430Y0217803D02*
X0143350Y0217803D01*
X0143350Y0219402D02*
X0143918Y0219402D01*
X0143350Y0221001D02*
X0144668Y0221001D01*
X0146267Y0222599D02*
X0143023Y0222599D01*
X0137181Y0222599D02*
X0136419Y0222599D01*
X0136419Y0223350D02*
X0131813Y0223350D01*
X0131355Y0223227D01*
X0130945Y0222990D01*
X0130610Y0222655D01*
X0130373Y0222245D01*
X0130250Y0221787D01*
X0130250Y0217181D01*
X0136419Y0217181D01*
X0136419Y0223350D01*
X0136419Y0221001D02*
X0137181Y0221001D01*
X0137181Y0219402D02*
X0136419Y0219402D01*
X0136419Y0217803D02*
X0137181Y0217803D01*
X0137181Y0216205D02*
X0136419Y0216205D01*
X0136419Y0214606D02*
X0137181Y0214606D01*
X0137181Y0213008D02*
X0136419Y0213008D01*
X0136419Y0211409D02*
X0137181Y0211409D01*
X0140610Y0208212D02*
X0130743Y0208212D01*
X0130059Y0206614D02*
X0139012Y0206614D01*
X0137413Y0205015D02*
X0128826Y0205015D01*
X0124431Y0205015D02*
X0122831Y0205015D01*
X0122831Y0206614D02*
X0124431Y0206614D01*
X0124431Y0208212D02*
X0122831Y0208212D01*
X0122831Y0213008D02*
X0124431Y0213008D01*
X0124431Y0214606D02*
X0122831Y0214606D01*
X0122831Y0216205D02*
X0124431Y0216205D01*
X0128108Y0216205D02*
X0130250Y0216205D01*
X0130250Y0217803D02*
X0063793Y0217803D01*
X0063858Y0216205D02*
X0064154Y0216205D01*
X0064899Y0219085D02*
X0064010Y0219453D01*
X0063329Y0220134D01*
X0062961Y0221023D01*
X0062961Y0221986D01*
X0063329Y0222875D01*
X0064010Y0223556D01*
X0064899Y0223924D01*
X0127362Y0223924D01*
X0128251Y0223556D01*
X0128932Y0222875D01*
X0129300Y0221986D01*
X0129300Y0221023D01*
X0128932Y0220134D01*
X0128251Y0219453D01*
X0127362Y0219085D01*
X0064899Y0219085D01*
X0064134Y0219402D02*
X0063263Y0219402D01*
X0062970Y0221001D02*
X0062081Y0221001D01*
X0063215Y0222599D02*
X0058542Y0222599D01*
X0058461Y0222599D02*
X0057698Y0222599D01*
X0057698Y0222600D02*
X0057623Y0222600D01*
X0056721Y0222457D01*
X0055853Y0222175D01*
X0055040Y0221761D01*
X0054301Y0221224D01*
X0053656Y0220578D01*
X0053119Y0219840D01*
X0052704Y0219026D01*
X0052422Y0218158D01*
X0052280Y0217256D01*
X0052280Y0217181D01*
X0057698Y0217181D01*
X0057698Y0222600D01*
X0057617Y0222599D02*
X0049895Y0222599D01*
X0050700Y0221001D02*
X0054078Y0221001D01*
X0052896Y0219402D02*
X0050700Y0219402D01*
X0050700Y0217803D02*
X0052366Y0217803D01*
X0052301Y0216205D02*
X0050700Y0216205D01*
X0050700Y0214606D02*
X0052694Y0214606D01*
X0053669Y0213008D02*
X0050700Y0213008D01*
X0050304Y0211409D02*
X0055901Y0211409D01*
X0057698Y0211409D02*
X0058461Y0211409D01*
X0058461Y0213008D02*
X0057698Y0213008D01*
X0057698Y0214606D02*
X0058461Y0214606D01*
X0058461Y0216205D02*
X0057698Y0216205D01*
X0057698Y0217803D02*
X0058461Y0217803D01*
X0058461Y0219402D02*
X0057698Y0219402D01*
X0057698Y0221001D02*
X0058461Y0221001D01*
X0060258Y0211409D02*
X0061303Y0211409D01*
X0061262Y0209500D02*
X0061347Y0208851D01*
X0061599Y0207913D01*
X0061970Y0207016D01*
X0062456Y0206174D01*
X0063047Y0205404D01*
X0063734Y0204717D01*
X0064505Y0204125D01*
X0065346Y0203640D01*
X0066244Y0203268D01*
X0067182Y0203017D01*
X0067831Y0202931D01*
X0067831Y0209500D01*
X0061262Y0209500D01*
X0061518Y0208212D02*
X0049997Y0208212D01*
X0049007Y0209811D02*
X0067831Y0209811D01*
X0067831Y0208212D02*
X0069431Y0208212D01*
X0069431Y0206614D02*
X0067831Y0206614D01*
X0067831Y0205015D02*
X0069431Y0205015D01*
X0069431Y0203417D02*
X0067831Y0203417D01*
X0065884Y0203417D02*
X0054515Y0203417D01*
X0053195Y0205015D02*
X0063436Y0205015D01*
X0062202Y0206614D02*
X0051596Y0206614D01*
X0047113Y0187432D02*
X0004200Y0187432D01*
X0004200Y0189030D02*
X0015389Y0189030D01*
X0011873Y0190063D02*
X0011873Y0190063D01*
X0010992Y0190629D02*
X0004200Y0190629D01*
X0004200Y0192227D02*
X0008505Y0192227D01*
X0007467Y0192894D02*
X0007467Y0192894D01*
X0006660Y0193826D02*
X0004200Y0193826D01*
X0004200Y0195424D02*
X0005275Y0195424D01*
X0004200Y0185833D02*
X0047113Y0185833D01*
X0047113Y0184235D02*
X0043936Y0184235D01*
X0045535Y0182636D02*
X0047113Y0182636D01*
X0047113Y0181038D02*
X0046800Y0181038D01*
X0063608Y0160257D02*
X0004200Y0160257D01*
X0004200Y0158659D02*
X0062302Y0158659D01*
X0061565Y0157060D02*
X0004200Y0157060D01*
X0004200Y0155462D02*
X0067831Y0155462D01*
X0067831Y0157060D02*
X0069431Y0157060D01*
X0069431Y0155462D02*
X0083514Y0155462D01*
X0083459Y0153863D02*
X0075982Y0153863D01*
X0075601Y0152265D02*
X0083876Y0152265D01*
X0084951Y0150666D02*
X0074799Y0150666D01*
X0073333Y0149068D02*
X0118929Y0149068D01*
X0117462Y0150666D02*
X0112311Y0150666D01*
X0113385Y0152265D02*
X0116660Y0152265D01*
X0122831Y0152265D02*
X0124431Y0152265D01*
X0124431Y0153863D02*
X0122831Y0153863D01*
X0124431Y0154000D02*
X0124431Y0147431D01*
X0125079Y0147517D01*
X0126018Y0147768D01*
X0126915Y0148140D01*
X0127756Y0148625D01*
X0128527Y0149217D01*
X0129214Y0149904D01*
X0129805Y0150674D01*
X0130291Y0151516D01*
X0130663Y0152413D01*
X0130914Y0153351D01*
X0131000Y0154000D01*
X0124431Y0154000D01*
X0124431Y0150666D02*
X0122831Y0150666D01*
X0122831Y0149068D02*
X0124431Y0149068D01*
X0124431Y0147469D02*
X0122831Y0147469D01*
X0122543Y0147469D02*
X0069718Y0147469D01*
X0069431Y0147469D02*
X0067831Y0147469D01*
X0067543Y0147469D02*
X0004200Y0147469D01*
X0004200Y0145870D02*
X0141601Y0145870D01*
X0141601Y0144272D02*
X0043899Y0144272D01*
X0039701Y0144272D02*
X0021399Y0144272D01*
X0021371Y0144300D02*
X0017229Y0144300D01*
X0015599Y0142670D01*
X0015274Y0142557D01*
X0015177Y0142470D01*
X0015056Y0142420D01*
X0014526Y0141891D01*
X0013967Y0141392D01*
X0013910Y0141275D01*
X0013818Y0141182D01*
X0013531Y0140490D01*
X0013206Y0139816D01*
X0013198Y0139686D01*
X0013148Y0139565D01*
X0013148Y0138816D01*
X0013105Y0138069D01*
X0013148Y0137945D01*
X0013148Y0131527D01*
X0013096Y0131371D01*
X0013148Y0130657D01*
X0013148Y0129941D01*
X0013211Y0129789D01*
X0013223Y0129626D01*
X0013544Y0128985D01*
X0013818Y0128323D01*
X0013934Y0128207D01*
X0014007Y0128061D01*
X0014300Y0127808D01*
X0014300Y0127229D01*
X0017229Y0124300D01*
X0021371Y0124300D01*
X0024300Y0127229D01*
X0024300Y0131371D01*
X0021948Y0133723D01*
X0021948Y0134877D01*
X0024300Y0137229D01*
X0024300Y0141371D01*
X0021371Y0144300D01*
X0022998Y0142673D02*
X0038102Y0142673D01*
X0036800Y0141075D02*
X0024300Y0141075D01*
X0024300Y0139476D02*
X0036800Y0139476D01*
X0036800Y0137878D02*
X0024300Y0137878D01*
X0023350Y0136279D02*
X0037750Y0136279D01*
X0039348Y0134681D02*
X0021948Y0134681D01*
X0022589Y0133082D02*
X0038511Y0133082D01*
X0039729Y0134300D02*
X0042239Y0134300D01*
X0042239Y0134300D01*
X0039729Y0134300D01*
X0036913Y0131484D02*
X0024187Y0131484D01*
X0024300Y0129885D02*
X0036800Y0129885D01*
X0036800Y0128287D02*
X0024300Y0128287D01*
X0023759Y0126688D02*
X0037341Y0126688D01*
X0038939Y0125090D02*
X0022161Y0125090D01*
X0016439Y0125090D02*
X0004200Y0125090D01*
X0004200Y0126688D02*
X0014841Y0126688D01*
X0013854Y0128287D02*
X0004200Y0128287D01*
X0004200Y0129885D02*
X0013171Y0129885D01*
X0013134Y0131484D02*
X0004200Y0131484D01*
X0004200Y0133082D02*
X0013148Y0133082D01*
X0013148Y0134681D02*
X0004200Y0134681D01*
X0004200Y0136279D02*
X0013148Y0136279D01*
X0013148Y0137878D02*
X0004200Y0137878D01*
X0004200Y0139476D02*
X0013148Y0139476D01*
X0013773Y0141075D02*
X0004200Y0141075D01*
X0004200Y0142673D02*
X0015602Y0142673D01*
X0017201Y0144272D02*
X0004200Y0144272D01*
X0004200Y0149068D02*
X0063929Y0149068D01*
X0062462Y0150666D02*
X0004200Y0150666D01*
X0004200Y0152265D02*
X0061660Y0152265D01*
X0061280Y0153863D02*
X0004200Y0153863D01*
X0004200Y0174644D02*
X0016885Y0174644D01*
X0015287Y0176242D02*
X0004200Y0176242D01*
X0004200Y0177841D02*
X0014300Y0177841D01*
X0014300Y0179439D02*
X0004200Y0179439D01*
X0004200Y0181038D02*
X0014300Y0181038D01*
X0015565Y0182636D02*
X0004200Y0182636D01*
X0004200Y0184235D02*
X0017164Y0184235D01*
X0004952Y0217803D02*
X0004200Y0217803D01*
X0004200Y0219402D02*
X0006337Y0219402D01*
X0007926Y0221001D02*
X0004200Y0221001D01*
X0004200Y0222599D02*
X0010413Y0222599D01*
X0011873Y0223537D02*
X0011873Y0223537D01*
X0014122Y0224198D02*
X0004200Y0224198D01*
X0004200Y0225796D02*
X0203101Y0225796D01*
X0203101Y0224198D02*
X0194203Y0224198D01*
X0197911Y0222599D02*
X0203101Y0222599D01*
X0203101Y0221001D02*
X0200399Y0221001D01*
X0200857Y0220706D02*
X0200857Y0220706D01*
X0201987Y0219402D02*
X0203101Y0219402D01*
X0203050Y0195424D02*
X0203101Y0195424D01*
X0203101Y0193826D02*
X0201665Y0193826D01*
X0200857Y0192894D02*
X0200857Y0192894D01*
X0199820Y0192227D02*
X0203101Y0192227D01*
X0203101Y0190629D02*
X0197332Y0190629D01*
X0192935Y0189030D02*
X0203101Y0189030D01*
X0186371Y0176242D02*
X0171054Y0176242D01*
X0171054Y0177841D02*
X0184773Y0177841D01*
X0183174Y0179439D02*
X0171054Y0179439D01*
X0163186Y0160257D02*
X0159527Y0160257D01*
X0160791Y0158659D02*
X0162158Y0158659D01*
X0161800Y0157060D02*
X0161200Y0157060D01*
X0161200Y0155462D02*
X0161800Y0155462D01*
X0161800Y0153863D02*
X0161200Y0153863D01*
X0161200Y0152265D02*
X0161800Y0152265D01*
X0161800Y0150666D02*
X0161107Y0150666D01*
X0160399Y0149068D02*
X0162437Y0149068D01*
X0156800Y0149068D02*
X0156800Y0149068D01*
X0156800Y0150666D02*
X0156800Y0150666D01*
X0156800Y0152265D02*
X0156800Y0152265D01*
X0156800Y0153863D02*
X0156800Y0153863D01*
X0156800Y0155462D02*
X0156800Y0155462D01*
X0156800Y0157060D02*
X0156800Y0157060D01*
X0156800Y0158659D02*
X0156800Y0158659D01*
X0156800Y0160257D02*
X0156800Y0160257D01*
X0154073Y0160257D02*
X0150414Y0160257D01*
X0151442Y0158659D02*
X0152809Y0158659D01*
X0152400Y0157060D02*
X0151800Y0157060D01*
X0151800Y0155462D02*
X0152400Y0155462D01*
X0152400Y0153863D02*
X0151800Y0153863D01*
X0151800Y0152265D02*
X0152400Y0152265D01*
X0152493Y0150666D02*
X0151800Y0150666D01*
X0151163Y0149068D02*
X0153201Y0149068D01*
X0142158Y0158659D02*
X0140791Y0158659D01*
X0141200Y0157060D02*
X0141601Y0157060D01*
X0141601Y0155462D02*
X0141200Y0155462D01*
X0141200Y0153863D02*
X0141601Y0153863D01*
X0141601Y0152265D02*
X0141200Y0152265D01*
X0141107Y0150666D02*
X0141601Y0150666D01*
X0141601Y0149068D02*
X0140399Y0149068D01*
X0141601Y0147469D02*
X0138325Y0147469D01*
X0136800Y0147469D02*
X0136800Y0147469D01*
X0135275Y0147469D02*
X0124718Y0147469D01*
X0128333Y0149068D02*
X0133201Y0149068D01*
X0132493Y0150666D02*
X0129799Y0150666D01*
X0130601Y0152265D02*
X0132400Y0152265D01*
X0132400Y0153863D02*
X0130982Y0153863D01*
X0136800Y0153863D02*
X0136800Y0153863D01*
X0136800Y0152265D02*
X0136800Y0152265D01*
X0136800Y0150666D02*
X0136800Y0150666D01*
X0136800Y0149068D02*
X0136800Y0149068D01*
X0136800Y0155462D02*
X0136800Y0155462D01*
X0136800Y0157060D02*
X0136800Y0157060D01*
X0136800Y0158659D02*
X0136800Y0158659D01*
X0136800Y0160257D02*
X0136800Y0160257D01*
X0139527Y0160257D02*
X0143186Y0160257D01*
X0141601Y0142673D02*
X0052893Y0142673D01*
X0054850Y0141075D02*
X0141601Y0141075D01*
X0141769Y0139476D02*
X0056448Y0139476D01*
X0058047Y0137878D02*
X0142766Y0137878D01*
X0144364Y0136279D02*
X0059645Y0136279D01*
X0061244Y0134681D02*
X0145963Y0134681D01*
X0147561Y0133082D02*
X0062842Y0133082D01*
X0064441Y0131484D02*
X0149160Y0131484D01*
X0150758Y0129885D02*
X0066040Y0129885D01*
X0067638Y0128287D02*
X0152357Y0128287D01*
X0153955Y0126688D02*
X0069237Y0126688D01*
X0070835Y0125090D02*
X0155554Y0125090D01*
X0157152Y0123491D02*
X0072434Y0123491D01*
X0074032Y0121893D02*
X0158751Y0121893D01*
X0160349Y0120294D02*
X0075631Y0120294D01*
X0077229Y0118696D02*
X0161800Y0118696D01*
X0161932Y0117097D02*
X0078828Y0117097D01*
X0071178Y0112302D02*
X0070651Y0112302D01*
X0071313Y0110703D02*
X0072203Y0110703D01*
X0072203Y0109105D02*
X0071400Y0109105D01*
X0071151Y0107506D02*
X0072203Y0107506D01*
X0072203Y0105908D02*
X0070489Y0105908D01*
X0068894Y0104309D02*
X0072203Y0104309D01*
X0072203Y0102711D02*
X0070475Y0102711D01*
X0071144Y0101112D02*
X0072203Y0101112D01*
X0072203Y0099514D02*
X0071400Y0099514D01*
X0071321Y0097915D02*
X0072203Y0097915D01*
X0072203Y0096317D02*
X0070659Y0096317D01*
X0069303Y0094718D02*
X0072203Y0094718D01*
X0072203Y0093120D02*
X0070066Y0093120D01*
X0070974Y0091521D02*
X0072203Y0091521D01*
X0072203Y0089923D02*
X0071400Y0089923D01*
X0071400Y0088324D02*
X0072203Y0088324D01*
X0072203Y0086726D02*
X0070828Y0086726D01*
X0069712Y0085127D02*
X0072203Y0085127D01*
X0072203Y0083529D02*
X0069657Y0083529D01*
X0070805Y0081930D02*
X0072203Y0081930D01*
X0072203Y0080332D02*
X0071400Y0080332D01*
X0071400Y0078733D02*
X0072203Y0078733D01*
X0072203Y0077134D02*
X0070997Y0077134D01*
X0070121Y0075536D02*
X0072203Y0075536D01*
X0072203Y0073937D02*
X0069248Y0073937D01*
X0070636Y0072339D02*
X0072203Y0072339D01*
X0072203Y0070740D02*
X0071298Y0070740D01*
X0071400Y0069142D02*
X0072203Y0069142D01*
X0072203Y0067543D02*
X0071167Y0067543D01*
X0070505Y0065945D02*
X0072203Y0065945D01*
X0072203Y0064346D02*
X0068932Y0064346D01*
X0070437Y0062748D02*
X0072203Y0062748D01*
X0072203Y0061149D02*
X0071128Y0061149D01*
X0071400Y0059551D02*
X0072203Y0059551D01*
X0072203Y0057952D02*
X0071336Y0057952D01*
X0070674Y0056354D02*
X0072203Y0056354D01*
X0072203Y0054755D02*
X0069341Y0054755D01*
X0070028Y0053157D02*
X0072203Y0053157D01*
X0072203Y0051558D02*
X0070959Y0051558D01*
X0071400Y0049960D02*
X0072203Y0049960D01*
X0072203Y0048361D02*
X0071400Y0048361D01*
X0070843Y0046763D02*
X0072203Y0046763D01*
X0072203Y0045164D02*
X0069750Y0045164D01*
X0069620Y0043566D02*
X0072203Y0043566D01*
X0072203Y0041967D02*
X0070790Y0041967D01*
X0071400Y0040369D02*
X0072203Y0040369D01*
X0072203Y0038770D02*
X0071400Y0038770D01*
X0071013Y0037172D02*
X0072306Y0037172D01*
X0073103Y0035573D02*
X0070158Y0035573D01*
X0068222Y0033975D02*
X0075538Y0033975D01*
X0061152Y0024384D02*
X0042100Y0024384D01*
X0042100Y0024600D02*
X0046900Y0024600D01*
X0046900Y0024701D01*
X0046774Y0025494D01*
X0046526Y0026258D01*
X0046162Y0026973D01*
X0045690Y0027622D01*
X0045122Y0028190D01*
X0044473Y0028662D01*
X0043758Y0029026D01*
X0042994Y0029274D01*
X0042201Y0029400D01*
X0042100Y0029400D01*
X0042100Y0024600D01*
X0042100Y0024000D02*
X0046900Y0024000D01*
X0046900Y0023899D01*
X0046774Y0023106D01*
X0046526Y0022342D01*
X0046162Y0021627D01*
X0045690Y0020978D01*
X0045122Y0020410D01*
X0044473Y0019938D01*
X0043758Y0019574D01*
X0042994Y0019326D01*
X0042201Y0019200D01*
X0042100Y0019200D01*
X0042100Y0024000D01*
X0042100Y0022785D02*
X0041500Y0022785D01*
X0041500Y0021187D02*
X0042100Y0021187D01*
X0042100Y0019588D02*
X0041500Y0019588D01*
X0039814Y0019588D02*
X0037239Y0019588D01*
X0037469Y0021187D02*
X0037758Y0021187D01*
X0036657Y0017990D02*
X0171668Y0017990D01*
X0171085Y0019588D02*
X0169159Y0019588D01*
X0170758Y0021187D02*
X0170855Y0021187D01*
X0172398Y0016391D02*
X0035927Y0016391D01*
X0035197Y0014793D02*
X0173128Y0014793D01*
X0173329Y0014352D02*
X0173329Y0014352D01*
X0174332Y0013194D02*
X0033992Y0013194D01*
X0032607Y0011596D02*
X0175717Y0011596D01*
X0177376Y0009997D02*
X0030948Y0009997D01*
X0028461Y0008399D02*
X0179864Y0008399D01*
X0181164Y0007563D02*
X0181164Y0007563D01*
X0183762Y0006800D02*
X0024562Y0006800D01*
X0014471Y0006800D02*
X0004200Y0006800D01*
X0004200Y0005201D02*
X0203101Y0005201D01*
X0203101Y0006800D02*
X0193854Y0006800D01*
X0197752Y0008399D02*
X0203101Y0008399D01*
X0203101Y0009997D02*
X0200239Y0009997D01*
X0200857Y0010394D02*
X0200857Y0010394D01*
X0201898Y0011596D02*
X0203101Y0011596D01*
X0203101Y0037172D02*
X0201753Y0037172D01*
X0200857Y0038206D02*
X0200857Y0038206D01*
X0199979Y0038770D02*
X0203101Y0038770D01*
X0203101Y0040369D02*
X0197492Y0040369D01*
X0193284Y0041967D02*
X0203101Y0041967D01*
X0203101Y0043566D02*
X0171554Y0043566D01*
X0171554Y0045164D02*
X0203101Y0045164D01*
X0203101Y0046763D02*
X0171554Y0046763D01*
X0171554Y0048361D02*
X0203101Y0048361D01*
X0203101Y0049960D02*
X0171554Y0049960D01*
X0171554Y0051558D02*
X0203101Y0051558D01*
X0203101Y0053157D02*
X0171554Y0053157D01*
X0171554Y0054755D02*
X0203101Y0054755D01*
X0203101Y0056354D02*
X0171554Y0056354D01*
X0171554Y0057952D02*
X0203101Y0057952D01*
X0203101Y0059551D02*
X0171554Y0059551D01*
X0171554Y0061149D02*
X0203101Y0061149D01*
X0203101Y0062748D02*
X0190885Y0062748D01*
X0190359Y0062222D02*
X0191878Y0063741D01*
X0192700Y0065726D01*
X0192700Y0067874D01*
X0191878Y0069859D01*
X0190359Y0071378D01*
X0188507Y0072145D01*
X0189143Y0072352D01*
X0189816Y0072695D01*
X0190427Y0073139D01*
X0190961Y0073673D01*
X0191405Y0074284D01*
X0191748Y0074957D01*
X0191982Y0075676D01*
X0192100Y0076422D01*
X0192100Y0076600D01*
X0184500Y0076600D01*
X0184500Y0077000D01*
X0184100Y0077000D01*
X0184100Y0081600D01*
X0180922Y0081600D01*
X0180176Y0081482D01*
X0179457Y0081248D01*
X0178784Y0080905D01*
X0178173Y0080461D01*
X0177639Y0079927D01*
X0177195Y0079316D01*
X0176852Y0078643D01*
X0176618Y0077924D01*
X0176500Y0077178D01*
X0176500Y0077000D01*
X0184100Y0077000D01*
X0184100Y0076600D01*
X0176500Y0076600D01*
X0176500Y0076422D01*
X0176618Y0075676D01*
X0176852Y0074957D01*
X0177195Y0074284D01*
X0177639Y0073673D01*
X0178173Y0073139D01*
X0178784Y0072695D01*
X0179457Y0072352D01*
X0180093Y0072145D01*
X0178241Y0071378D01*
X0176722Y0069859D01*
X0175900Y0067874D01*
X0175900Y0065726D01*
X0176722Y0063741D01*
X0178241Y0062222D01*
X0180226Y0061400D01*
X0188374Y0061400D01*
X0190359Y0062222D01*
X0192129Y0064346D02*
X0203101Y0064346D01*
X0203101Y0065945D02*
X0192700Y0065945D01*
X0192700Y0067543D02*
X0203101Y0067543D01*
X0203101Y0069142D02*
X0192175Y0069142D01*
X0190996Y0070740D02*
X0203101Y0070740D01*
X0203101Y0072339D02*
X0189103Y0072339D01*
X0191153Y0073937D02*
X0203101Y0073937D01*
X0203101Y0075536D02*
X0191936Y0075536D01*
X0192100Y0077000D02*
X0192100Y0077178D01*
X0191982Y0077924D01*
X0191748Y0078643D01*
X0191405Y0079316D01*
X0190961Y0079927D01*
X0190427Y0080461D01*
X0189816Y0080905D01*
X0189143Y0081248D01*
X0188424Y0081482D01*
X0187678Y0081600D01*
X0184500Y0081600D01*
X0184500Y0077000D01*
X0192100Y0077000D01*
X0192100Y0077134D02*
X0203101Y0077134D01*
X0203101Y0078733D02*
X0191702Y0078733D01*
X0190557Y0080332D02*
X0203101Y0080332D01*
X0203101Y0081930D02*
X0171241Y0081930D01*
X0171800Y0080332D02*
X0178043Y0080332D01*
X0176898Y0078733D02*
X0171800Y0078733D01*
X0171706Y0077134D02*
X0176500Y0077134D01*
X0176664Y0075536D02*
X0171554Y0075536D01*
X0171554Y0073937D02*
X0177447Y0073937D01*
X0179497Y0072339D02*
X0171554Y0072339D01*
X0171554Y0070740D02*
X0177604Y0070740D01*
X0176425Y0069142D02*
X0171554Y0069142D01*
X0171554Y0067543D02*
X0175900Y0067543D01*
X0175900Y0065945D02*
X0171800Y0065945D01*
X0171800Y0064346D02*
X0176471Y0064346D01*
X0177715Y0062748D02*
X0171800Y0062748D01*
X0184100Y0077134D02*
X0184500Y0077134D01*
X0184500Y0078733D02*
X0184100Y0078733D01*
X0184100Y0080332D02*
X0184500Y0080332D01*
X0184500Y0083529D02*
X0184100Y0083529D01*
X0184100Y0085127D02*
X0184500Y0085127D01*
X0190817Y0083529D02*
X0203101Y0083529D01*
X0203101Y0085127D02*
X0191803Y0085127D01*
X0179934Y0091521D02*
X0160974Y0091521D01*
X0161400Y0089923D02*
X0177636Y0089923D01*
X0176748Y0088324D02*
X0161400Y0088324D01*
X0159712Y0085127D02*
X0176797Y0085127D01*
X0177783Y0083529D02*
X0169642Y0083529D01*
X0177344Y0093120D02*
X0160066Y0093120D01*
X0159303Y0094718D02*
X0176317Y0094718D01*
X0175900Y0096317D02*
X0160659Y0096317D01*
X0161321Y0097915D02*
X0175917Y0097915D01*
X0176579Y0099514D02*
X0161400Y0099514D01*
X0161144Y0101112D02*
X0177975Y0101112D01*
X0178502Y0102711D02*
X0160475Y0102711D01*
X0158894Y0104309D02*
X0178502Y0104309D01*
X0178502Y0105908D02*
X0160489Y0105908D01*
X0161151Y0107506D02*
X0178502Y0107506D01*
X0178502Y0109105D02*
X0161400Y0109105D01*
X0161313Y0110703D02*
X0178502Y0110703D01*
X0178502Y0112302D02*
X0160651Y0112302D01*
X0159285Y0113900D02*
X0178502Y0113900D01*
X0124431Y0158659D02*
X0122831Y0158659D01*
X0122831Y0160257D02*
X0124431Y0160257D01*
X0124431Y0161856D02*
X0122831Y0161856D01*
X0121332Y0161856D02*
X0108216Y0161856D01*
X0104176Y0157060D02*
X0102276Y0157060D01*
X0103060Y0155462D02*
X0103514Y0155462D01*
X0103459Y0153863D02*
X0103190Y0153863D01*
X0102724Y0152265D02*
X0103876Y0152265D01*
X0104951Y0150666D02*
X0101407Y0150666D01*
X0098717Y0150666D02*
X0098545Y0150666D01*
X0098545Y0152265D02*
X0098717Y0152265D01*
X0098717Y0153863D02*
X0098545Y0153863D01*
X0098545Y0155462D02*
X0098717Y0155462D01*
X0098717Y0157060D02*
X0098545Y0157060D01*
X0094985Y0157060D02*
X0093085Y0157060D01*
X0093747Y0155462D02*
X0094201Y0155462D01*
X0094071Y0153863D02*
X0093802Y0153863D01*
X0093385Y0152265D02*
X0094537Y0152265D01*
X0095855Y0150666D02*
X0092311Y0150666D01*
X0084176Y0157060D02*
X0075697Y0157060D01*
X0069431Y0158659D02*
X0067831Y0158659D01*
X0067831Y0160257D02*
X0069431Y0160257D01*
X0069431Y0153863D02*
X0067831Y0153863D01*
X0067831Y0152265D02*
X0069431Y0152265D01*
X0069431Y0150666D02*
X0067831Y0150666D01*
X0067831Y0149068D02*
X0069431Y0149068D01*
X0053594Y0129885D02*
X0046800Y0129885D01*
X0046800Y0128287D02*
X0055193Y0128287D01*
X0056791Y0126688D02*
X0046259Y0126688D01*
X0044661Y0125090D02*
X0058390Y0125090D01*
X0059988Y0123491D02*
X0004200Y0123491D01*
X0004200Y0121893D02*
X0061587Y0121893D01*
X0063186Y0120294D02*
X0004200Y0120294D01*
X0004200Y0118696D02*
X0064784Y0118696D01*
X0066383Y0117097D02*
X0004200Y0117097D01*
X0004200Y0115499D02*
X0067981Y0115499D01*
X0069285Y0113900D02*
X0069580Y0113900D01*
X0054315Y0113900D02*
X0004200Y0113900D01*
X0004200Y0112302D02*
X0052949Y0112302D01*
X0052287Y0110703D02*
X0004200Y0110703D01*
X0004200Y0109105D02*
X0052200Y0109105D01*
X0052449Y0107506D02*
X0004200Y0107506D01*
X0004200Y0105908D02*
X0053111Y0105908D01*
X0054706Y0104309D02*
X0004200Y0104309D01*
X0004200Y0102711D02*
X0053125Y0102711D01*
X0052456Y0101112D02*
X0004200Y0101112D01*
X0004200Y0099514D02*
X0052200Y0099514D01*
X0052279Y0097915D02*
X0004200Y0097915D01*
X0004200Y0096317D02*
X0052941Y0096317D01*
X0054297Y0094718D02*
X0004200Y0094718D01*
X0004200Y0093120D02*
X0016049Y0093120D01*
X0017229Y0094300D02*
X0014300Y0091371D01*
X0014300Y0087229D01*
X0017229Y0084300D01*
X0021371Y0084300D01*
X0024300Y0087229D01*
X0024300Y0091371D01*
X0021371Y0094300D01*
X0017229Y0094300D01*
X0014450Y0091521D02*
X0004200Y0091521D01*
X0004200Y0089923D02*
X0014300Y0089923D01*
X0014300Y0088324D02*
X0004200Y0088324D01*
X0004200Y0086726D02*
X0014803Y0086726D01*
X0016402Y0085127D02*
X0004200Y0085127D01*
X0004200Y0083529D02*
X0031675Y0083529D01*
X0033273Y0085127D02*
X0022198Y0085127D01*
X0023797Y0086726D02*
X0034872Y0086726D01*
X0036470Y0088324D02*
X0024300Y0088324D01*
X0024300Y0089923D02*
X0036800Y0089923D01*
X0036800Y0088654D02*
X0028134Y0079988D01*
X0027037Y0078891D01*
X0022446Y0074300D01*
X0019729Y0074300D01*
X0016800Y0071371D01*
X0016800Y0067229D01*
X0017229Y0066800D01*
X0014729Y0066800D01*
X0011800Y0063871D01*
X0011800Y0059729D01*
X0014729Y0056800D01*
X0018871Y0056800D01*
X0021800Y0059729D01*
X0021800Y0063871D01*
X0021371Y0064300D01*
X0023077Y0064300D01*
X0022400Y0063623D01*
X0022400Y0061800D01*
X0026800Y0061800D01*
X0026800Y0061800D01*
X0026800Y0066200D01*
X0028623Y0066200D01*
X0031200Y0063623D01*
X0031200Y0061800D01*
X0026800Y0061800D01*
X0026800Y0061800D01*
X0026800Y0066200D01*
X0025771Y0066200D01*
X0026800Y0067229D01*
X0026800Y0067623D01*
X0030343Y0071166D01*
X0036100Y0065410D01*
X0036100Y0063166D01*
X0036968Y0061071D01*
X0038571Y0059468D01*
X0040666Y0058600D01*
X0042934Y0058600D01*
X0045029Y0059468D01*
X0046632Y0061071D01*
X0047500Y0063166D01*
X0047500Y0065434D01*
X0046632Y0067529D01*
X0045029Y0069132D01*
X0042934Y0070000D01*
X0042541Y0070000D01*
X0035859Y0076682D01*
X0043457Y0084280D01*
X0043498Y0084300D01*
X0043871Y0084300D01*
X0046800Y0087229D01*
X0046800Y0091371D01*
X0043871Y0094300D01*
X0039729Y0094300D01*
X0036800Y0091371D01*
X0036800Y0088654D01*
X0036950Y0091521D02*
X0024150Y0091521D01*
X0022551Y0093120D02*
X0038549Y0093120D01*
X0045051Y0093120D02*
X0053534Y0093120D01*
X0052626Y0091521D02*
X0046650Y0091521D01*
X0046800Y0089923D02*
X0052200Y0089923D01*
X0052200Y0088324D02*
X0046800Y0088324D01*
X0046297Y0086726D02*
X0052772Y0086726D01*
X0053888Y0085127D02*
X0044698Y0085127D01*
X0042705Y0083529D02*
X0053943Y0083529D01*
X0052795Y0081930D02*
X0041107Y0081930D01*
X0039508Y0080332D02*
X0052200Y0080332D01*
X0052200Y0078733D02*
X0037910Y0078733D01*
X0036311Y0077134D02*
X0052603Y0077134D01*
X0053479Y0075536D02*
X0037005Y0075536D01*
X0038603Y0073937D02*
X0054352Y0073937D01*
X0052964Y0072339D02*
X0040202Y0072339D01*
X0041800Y0070740D02*
X0052302Y0070740D01*
X0052200Y0069142D02*
X0045005Y0069142D01*
X0046618Y0067543D02*
X0052433Y0067543D01*
X0053095Y0065945D02*
X0047288Y0065945D01*
X0047500Y0064346D02*
X0054668Y0064346D01*
X0053163Y0062748D02*
X0047327Y0062748D01*
X0046665Y0061149D02*
X0052472Y0061149D01*
X0052200Y0059551D02*
X0045112Y0059551D01*
X0038488Y0059551D02*
X0030773Y0059551D01*
X0031200Y0059977D02*
X0031200Y0061800D01*
X0026800Y0061800D01*
X0026800Y0057400D01*
X0028623Y0057400D01*
X0031200Y0059977D01*
X0031200Y0061149D02*
X0036935Y0061149D01*
X0036273Y0062748D02*
X0031200Y0062748D01*
X0030476Y0064346D02*
X0036100Y0064346D01*
X0035565Y0065945D02*
X0028878Y0065945D01*
X0026800Y0065945D02*
X0026800Y0065945D01*
X0026800Y0067543D02*
X0033966Y0067543D01*
X0032368Y0069142D02*
X0028319Y0069142D01*
X0029917Y0070740D02*
X0030769Y0070740D01*
X0026800Y0064346D02*
X0026800Y0064346D01*
X0026800Y0062748D02*
X0026800Y0062748D01*
X0026800Y0061800D02*
X0026800Y0061800D01*
X0026800Y0061800D01*
X0026800Y0057400D01*
X0024977Y0057400D01*
X0022400Y0059977D01*
X0022400Y0061800D01*
X0026800Y0061800D01*
X0026800Y0061149D02*
X0026800Y0061149D01*
X0026800Y0059551D02*
X0026800Y0059551D01*
X0026800Y0057952D02*
X0026800Y0057952D01*
X0029175Y0057952D02*
X0052264Y0057952D01*
X0052926Y0056354D02*
X0004200Y0056354D01*
X0004200Y0057952D02*
X0013577Y0057952D01*
X0011978Y0059551D02*
X0004200Y0059551D01*
X0004200Y0061149D02*
X0011800Y0061149D01*
X0011800Y0062748D02*
X0004200Y0062748D01*
X0004200Y0064346D02*
X0012275Y0064346D01*
X0013874Y0065945D02*
X0004200Y0065945D01*
X0004200Y0067543D02*
X0016800Y0067543D01*
X0016800Y0069142D02*
X0004200Y0069142D01*
X0004200Y0070740D02*
X0016800Y0070740D01*
X0017768Y0072339D02*
X0004200Y0072339D01*
X0004200Y0073937D02*
X0019366Y0073937D01*
X0023682Y0075536D02*
X0004200Y0075536D01*
X0004200Y0077134D02*
X0025280Y0077134D01*
X0026879Y0078733D02*
X0004200Y0078733D01*
X0004200Y0080332D02*
X0028478Y0080332D01*
X0030076Y0081930D02*
X0004200Y0081930D01*
X0021800Y0062748D02*
X0022400Y0062748D01*
X0022400Y0061149D02*
X0021800Y0061149D01*
X0021622Y0059551D02*
X0022827Y0059551D01*
X0024425Y0057952D02*
X0020023Y0057952D01*
X0004200Y0054755D02*
X0054259Y0054755D01*
X0053572Y0053157D02*
X0004200Y0053157D01*
X0004200Y0051558D02*
X0052641Y0051558D01*
X0052200Y0049960D02*
X0004200Y0049960D01*
X0004200Y0048361D02*
X0052200Y0048361D01*
X0052757Y0046763D02*
X0004200Y0046763D01*
X0004200Y0045164D02*
X0053850Y0045164D01*
X0053980Y0043566D02*
X0004200Y0043566D01*
X0004200Y0041967D02*
X0015040Y0041967D01*
X0011873Y0041037D02*
X0011873Y0041037D01*
X0010833Y0040369D02*
X0004200Y0040369D01*
X0004200Y0038770D02*
X0008345Y0038770D01*
X0006571Y0037172D02*
X0004200Y0037172D01*
X0004200Y0035573D02*
X0005186Y0035573D01*
X0023993Y0041967D02*
X0052810Y0041967D01*
X0052200Y0040369D02*
X0028200Y0040369D01*
X0027160Y0041037D02*
X0027160Y0041037D01*
X0030688Y0038770D02*
X0052200Y0038770D01*
X0052587Y0037172D02*
X0032462Y0037172D01*
X0031566Y0038206D02*
X0031566Y0038206D01*
X0033847Y0035573D02*
X0053442Y0035573D01*
X0055378Y0033975D02*
X0035120Y0033975D01*
X0035850Y0032376D02*
X0058424Y0032376D01*
X0058424Y0030778D02*
X0036580Y0030778D01*
X0037215Y0029179D02*
X0040313Y0029179D01*
X0041500Y0029179D02*
X0042100Y0029179D01*
X0043287Y0029179D02*
X0058424Y0029179D01*
X0058424Y0027581D02*
X0045720Y0027581D01*
X0046616Y0025982D02*
X0059085Y0025982D01*
X0046670Y0022785D02*
X0161800Y0022785D01*
X0161800Y0024384D02*
X0160952Y0024384D01*
X0162842Y0021187D02*
X0045842Y0021187D01*
X0043786Y0019588D02*
X0164441Y0019588D01*
X0170590Y0027581D02*
X0170880Y0027581D01*
X0171109Y0029179D02*
X0168992Y0029179D01*
X0167827Y0030778D02*
X0171744Y0030778D01*
X0172474Y0032376D02*
X0169425Y0032376D01*
X0170942Y0033975D02*
X0173204Y0033975D01*
X0174477Y0035573D02*
X0171554Y0035573D01*
X0171554Y0037172D02*
X0175862Y0037172D01*
X0176758Y0038206D02*
X0176758Y0038206D01*
X0176758Y0038206D01*
X0177637Y0038770D02*
X0171554Y0038770D01*
X0171554Y0040369D02*
X0180124Y0040369D01*
X0181164Y0041037D02*
X0181164Y0041037D01*
X0184332Y0041967D02*
X0171554Y0041967D01*
X0100360Y0160257D02*
X0096902Y0160257D01*
X0098216Y0161856D02*
X0099045Y0161856D01*
X0089045Y0161856D02*
X0088216Y0161856D01*
X0071377Y0203417D02*
X0120884Y0203417D01*
X0129667Y0214606D02*
X0130250Y0214606D01*
X0130250Y0219402D02*
X0128127Y0219402D01*
X0129291Y0221001D02*
X0130250Y0221001D01*
X0130577Y0222599D02*
X0129046Y0222599D01*
X0150447Y0195424D02*
X0153153Y0195424D01*
X0152144Y0193826D02*
X0151456Y0193826D01*
X0151800Y0192227D02*
X0151800Y0192227D01*
X0151800Y0190629D02*
X0151800Y0190629D01*
X0151800Y0189030D02*
X0151800Y0189030D01*
X0151443Y0184235D02*
X0151149Y0184235D01*
X0143893Y0182636D02*
X0139707Y0182636D01*
X0141149Y0184235D02*
X0142451Y0184235D01*
X0141800Y0185833D02*
X0141800Y0185833D01*
X0170043Y0205015D02*
X0170664Y0205015D01*
X0170435Y0206614D02*
X0169586Y0206614D01*
X0169586Y0208212D02*
X0170611Y0208212D01*
X0170841Y0209811D02*
X0169586Y0209811D01*
X0169586Y0211409D02*
X0171071Y0211409D01*
X0170527Y0213008D02*
X0171621Y0213008D01*
X0171190Y0214606D02*
X0172351Y0214606D01*
X0173081Y0216205D02*
X0171509Y0216205D01*
X0171509Y0217803D02*
X0174244Y0217803D01*
X0175629Y0219402D02*
X0171020Y0219402D01*
X0170270Y0221001D02*
X0177217Y0221001D01*
X0176758Y0220706D02*
X0176758Y0220706D01*
X0176758Y0220706D01*
X0051996Y0131484D02*
X0046687Y0131484D01*
X0045089Y0133082D02*
X0050397Y0133082D01*
X0042100Y0027581D02*
X0041500Y0027581D01*
X0041500Y0025982D02*
X0042100Y0025982D01*
X0037880Y0027581D02*
X0037445Y0027581D01*
X0011873Y0007563D02*
X0011873Y0007563D01*
X0010572Y0008399D02*
X0004200Y0008399D01*
X0004200Y0009997D02*
X0008085Y0009997D01*
X0007467Y0010394D02*
X0007467Y0010394D01*
X0006426Y0011596D02*
X0004200Y0011596D01*
X0004200Y0013194D02*
X0005041Y0013194D01*
D24*
X0046800Y0011800D03*
X0086800Y0021800D03*
X0086800Y0056800D03*
X0086800Y0081800D03*
X0101800Y0096800D03*
X0116800Y0111800D03*
X0126800Y0136800D03*
X0114300Y0164300D03*
X0084300Y0136800D03*
X0031800Y0121800D03*
X0031800Y0096800D03*
X0009300Y0141800D03*
X0031800Y0156800D03*
X0031800Y0176800D03*
X0009300Y0176800D03*
X0116800Y0076800D03*
X0131800Y0056800D03*
X0126800Y0021800D03*
X0166800Y0011800D03*
X0196800Y0051800D03*
X0196800Y0081800D03*
X0191800Y0121800D03*
X0176800Y0141800D03*
X0176800Y0181800D03*
D25*
X0167154Y0185934D02*
X0167154Y0172154D01*
X0049044Y0172154D01*
X0043139Y0178060D01*
X0041800Y0179300D01*
X0051013Y0176091D02*
X0051013Y0201682D01*
X0045107Y0207587D01*
X0045107Y0215461D01*
X0044300Y0216800D01*
X0051013Y0176091D02*
X0149438Y0176091D01*
X0155343Y0181997D01*
X0155343Y0185934D01*
X0156800Y0186800D01*
X0166800Y0186800D02*
X0167154Y0185934D01*
X0149438Y0211524D02*
X0149438Y0215461D01*
X0150580Y0216800D01*
X0149438Y0211524D02*
X0137627Y0199713D01*
X0137627Y0187902D01*
X0136800Y0186800D01*
X0145501Y0156406D02*
X0146800Y0156800D01*
X0145501Y0156406D02*
X0145501Y0140658D01*
X0165186Y0120973D01*
X0166800Y0119300D01*
X0041800Y0089300D02*
X0041170Y0087509D01*
X0030343Y0076682D01*
X0041170Y0065855D01*
X0041800Y0064300D01*
X0030343Y0076682D02*
X0023454Y0069792D01*
X0021800Y0069300D01*
D26*
X0061800Y0039300D02*
X0062824Y0038296D01*
X0062824Y0028454D01*
X0159280Y0028454D01*
X0167154Y0036328D01*
X0167154Y0063887D01*
X0166800Y0064300D01*
X0167154Y0065855D01*
X0167154Y0077666D01*
X0166800Y0079300D01*
X0182902Y0097351D02*
X0184300Y0096800D01*
X0182902Y0097351D02*
X0182902Y0128847D01*
X0184300Y0129300D01*
X0184871Y0130816D01*
X0194713Y0140658D01*
X0194713Y0174123D01*
X0165186Y0203650D01*
X0165186Y0215461D01*
X0164359Y0216800D01*
X0076603Y0113099D02*
X0051013Y0138690D01*
X0043139Y0138690D01*
X0041800Y0139300D01*
X0019300Y0139300D02*
X0017548Y0138690D01*
X0017548Y0130816D01*
X0019300Y0129300D01*
X0076603Y0113099D02*
X0076603Y0038296D01*
X0151406Y0038296D01*
X0151800Y0039300D01*
M02*
