G75*
%MOIN*%
%OFA0B0*%
%FSLAX25Y25*%
%IPPOS*%
%LPD*%
%AMOC8*
5,1,8,0,0,1.08239X$1,22.5*
%
%ADD10C,0.00000*%
%ADD11R,0.08000X0.08000*%
%ADD12C,0.08000*%
%ADD13R,0.09500X0.09500*%
%ADD14C,0.09500*%
%ADD15OC8,0.05200*%
%ADD16C,0.06000*%
%ADD17C,0.07200*%
%ADD18C,0.00039*%
%ADD19C,0.05543*%
%ADD20C,0.11220*%
%ADD21C,0.06600*%
%ADD22C,0.05200*%
%ADD23C,0.01600*%
%ADD24C,0.03000*%
%ADD25C,0.02400*%
%ADD26C,0.04000*%
D10*
X0001800Y0001800D02*
X0001800Y0234261D01*
X0195501Y0234261D01*
X0195501Y0001800D01*
X0001800Y0001800D01*
X0015579Y0021485D02*
X0015581Y0021638D01*
X0015587Y0021792D01*
X0015597Y0021945D01*
X0015611Y0022097D01*
X0015629Y0022250D01*
X0015651Y0022401D01*
X0015676Y0022552D01*
X0015706Y0022703D01*
X0015740Y0022853D01*
X0015777Y0023001D01*
X0015818Y0023149D01*
X0015863Y0023295D01*
X0015912Y0023441D01*
X0015965Y0023585D01*
X0016021Y0023727D01*
X0016081Y0023868D01*
X0016145Y0024008D01*
X0016212Y0024146D01*
X0016283Y0024282D01*
X0016358Y0024416D01*
X0016435Y0024548D01*
X0016517Y0024678D01*
X0016601Y0024806D01*
X0016689Y0024932D01*
X0016780Y0025055D01*
X0016874Y0025176D01*
X0016972Y0025294D01*
X0017072Y0025410D01*
X0017176Y0025523D01*
X0017282Y0025634D01*
X0017391Y0025742D01*
X0017503Y0025847D01*
X0017617Y0025948D01*
X0017735Y0026047D01*
X0017854Y0026143D01*
X0017976Y0026236D01*
X0018101Y0026325D01*
X0018228Y0026412D01*
X0018357Y0026494D01*
X0018488Y0026574D01*
X0018621Y0026650D01*
X0018756Y0026723D01*
X0018893Y0026792D01*
X0019032Y0026857D01*
X0019172Y0026919D01*
X0019314Y0026977D01*
X0019457Y0027032D01*
X0019602Y0027083D01*
X0019748Y0027130D01*
X0019895Y0027173D01*
X0020043Y0027212D01*
X0020192Y0027248D01*
X0020342Y0027279D01*
X0020493Y0027307D01*
X0020644Y0027331D01*
X0020797Y0027351D01*
X0020949Y0027367D01*
X0021102Y0027379D01*
X0021255Y0027387D01*
X0021408Y0027391D01*
X0021562Y0027391D01*
X0021715Y0027387D01*
X0021868Y0027379D01*
X0022021Y0027367D01*
X0022173Y0027351D01*
X0022326Y0027331D01*
X0022477Y0027307D01*
X0022628Y0027279D01*
X0022778Y0027248D01*
X0022927Y0027212D01*
X0023075Y0027173D01*
X0023222Y0027130D01*
X0023368Y0027083D01*
X0023513Y0027032D01*
X0023656Y0026977D01*
X0023798Y0026919D01*
X0023938Y0026857D01*
X0024077Y0026792D01*
X0024214Y0026723D01*
X0024349Y0026650D01*
X0024482Y0026574D01*
X0024613Y0026494D01*
X0024742Y0026412D01*
X0024869Y0026325D01*
X0024994Y0026236D01*
X0025116Y0026143D01*
X0025235Y0026047D01*
X0025353Y0025948D01*
X0025467Y0025847D01*
X0025579Y0025742D01*
X0025688Y0025634D01*
X0025794Y0025523D01*
X0025898Y0025410D01*
X0025998Y0025294D01*
X0026096Y0025176D01*
X0026190Y0025055D01*
X0026281Y0024932D01*
X0026369Y0024806D01*
X0026453Y0024678D01*
X0026535Y0024548D01*
X0026612Y0024416D01*
X0026687Y0024282D01*
X0026758Y0024146D01*
X0026825Y0024008D01*
X0026889Y0023868D01*
X0026949Y0023727D01*
X0027005Y0023585D01*
X0027058Y0023441D01*
X0027107Y0023295D01*
X0027152Y0023149D01*
X0027193Y0023001D01*
X0027230Y0022853D01*
X0027264Y0022703D01*
X0027294Y0022552D01*
X0027319Y0022401D01*
X0027341Y0022250D01*
X0027359Y0022097D01*
X0027373Y0021945D01*
X0027383Y0021792D01*
X0027389Y0021638D01*
X0027391Y0021485D01*
X0027389Y0021332D01*
X0027383Y0021178D01*
X0027373Y0021025D01*
X0027359Y0020873D01*
X0027341Y0020720D01*
X0027319Y0020569D01*
X0027294Y0020418D01*
X0027264Y0020267D01*
X0027230Y0020117D01*
X0027193Y0019969D01*
X0027152Y0019821D01*
X0027107Y0019675D01*
X0027058Y0019529D01*
X0027005Y0019385D01*
X0026949Y0019243D01*
X0026889Y0019102D01*
X0026825Y0018962D01*
X0026758Y0018824D01*
X0026687Y0018688D01*
X0026612Y0018554D01*
X0026535Y0018422D01*
X0026453Y0018292D01*
X0026369Y0018164D01*
X0026281Y0018038D01*
X0026190Y0017915D01*
X0026096Y0017794D01*
X0025998Y0017676D01*
X0025898Y0017560D01*
X0025794Y0017447D01*
X0025688Y0017336D01*
X0025579Y0017228D01*
X0025467Y0017123D01*
X0025353Y0017022D01*
X0025235Y0016923D01*
X0025116Y0016827D01*
X0024994Y0016734D01*
X0024869Y0016645D01*
X0024742Y0016558D01*
X0024613Y0016476D01*
X0024482Y0016396D01*
X0024349Y0016320D01*
X0024214Y0016247D01*
X0024077Y0016178D01*
X0023938Y0016113D01*
X0023798Y0016051D01*
X0023656Y0015993D01*
X0023513Y0015938D01*
X0023368Y0015887D01*
X0023222Y0015840D01*
X0023075Y0015797D01*
X0022927Y0015758D01*
X0022778Y0015722D01*
X0022628Y0015691D01*
X0022477Y0015663D01*
X0022326Y0015639D01*
X0022173Y0015619D01*
X0022021Y0015603D01*
X0021868Y0015591D01*
X0021715Y0015583D01*
X0021562Y0015579D01*
X0021408Y0015579D01*
X0021255Y0015583D01*
X0021102Y0015591D01*
X0020949Y0015603D01*
X0020797Y0015619D01*
X0020644Y0015639D01*
X0020493Y0015663D01*
X0020342Y0015691D01*
X0020192Y0015722D01*
X0020043Y0015758D01*
X0019895Y0015797D01*
X0019748Y0015840D01*
X0019602Y0015887D01*
X0019457Y0015938D01*
X0019314Y0015993D01*
X0019172Y0016051D01*
X0019032Y0016113D01*
X0018893Y0016178D01*
X0018756Y0016247D01*
X0018621Y0016320D01*
X0018488Y0016396D01*
X0018357Y0016476D01*
X0018228Y0016558D01*
X0018101Y0016645D01*
X0017976Y0016734D01*
X0017854Y0016827D01*
X0017735Y0016923D01*
X0017617Y0017022D01*
X0017503Y0017123D01*
X0017391Y0017228D01*
X0017282Y0017336D01*
X0017176Y0017447D01*
X0017072Y0017560D01*
X0016972Y0017676D01*
X0016874Y0017794D01*
X0016780Y0017915D01*
X0016689Y0018038D01*
X0016601Y0018164D01*
X0016517Y0018292D01*
X0016435Y0018422D01*
X0016358Y0018554D01*
X0016283Y0018688D01*
X0016212Y0018824D01*
X0016145Y0018962D01*
X0016081Y0019102D01*
X0016021Y0019243D01*
X0015965Y0019385D01*
X0015912Y0019529D01*
X0015863Y0019675D01*
X0015818Y0019821D01*
X0015777Y0019969D01*
X0015740Y0020117D01*
X0015706Y0020267D01*
X0015676Y0020418D01*
X0015651Y0020569D01*
X0015629Y0020720D01*
X0015611Y0020873D01*
X0015597Y0021025D01*
X0015587Y0021178D01*
X0015581Y0021332D01*
X0015579Y0021485D01*
X0067231Y0184300D02*
X0067233Y0184460D01*
X0067239Y0184619D01*
X0067249Y0184778D01*
X0067263Y0184937D01*
X0067281Y0185096D01*
X0067302Y0185254D01*
X0067328Y0185411D01*
X0067358Y0185568D01*
X0067391Y0185724D01*
X0067429Y0185879D01*
X0067470Y0186033D01*
X0067515Y0186186D01*
X0067564Y0186338D01*
X0067617Y0186489D01*
X0067673Y0186638D01*
X0067734Y0186786D01*
X0067797Y0186932D01*
X0067865Y0187077D01*
X0067936Y0187220D01*
X0068010Y0187361D01*
X0068088Y0187500D01*
X0068170Y0187637D01*
X0068255Y0187772D01*
X0068343Y0187905D01*
X0068435Y0188036D01*
X0068529Y0188164D01*
X0068627Y0188290D01*
X0068728Y0188414D01*
X0068832Y0188535D01*
X0068939Y0188653D01*
X0069049Y0188769D01*
X0069162Y0188882D01*
X0069278Y0188992D01*
X0069396Y0189099D01*
X0069517Y0189203D01*
X0069641Y0189304D01*
X0069767Y0189402D01*
X0069895Y0189496D01*
X0070026Y0189588D01*
X0070159Y0189676D01*
X0070294Y0189761D01*
X0070431Y0189843D01*
X0070570Y0189921D01*
X0070711Y0189995D01*
X0070854Y0190066D01*
X0070999Y0190134D01*
X0071145Y0190197D01*
X0071293Y0190258D01*
X0071442Y0190314D01*
X0071593Y0190367D01*
X0071745Y0190416D01*
X0071898Y0190461D01*
X0072052Y0190502D01*
X0072207Y0190540D01*
X0072363Y0190573D01*
X0072520Y0190603D01*
X0072677Y0190629D01*
X0072835Y0190650D01*
X0072994Y0190668D01*
X0073153Y0190682D01*
X0073312Y0190692D01*
X0073471Y0190698D01*
X0073631Y0190700D01*
X0073791Y0190698D01*
X0073950Y0190692D01*
X0074109Y0190682D01*
X0074268Y0190668D01*
X0074427Y0190650D01*
X0074585Y0190629D01*
X0074742Y0190603D01*
X0074899Y0190573D01*
X0075055Y0190540D01*
X0075210Y0190502D01*
X0075364Y0190461D01*
X0075517Y0190416D01*
X0075669Y0190367D01*
X0075820Y0190314D01*
X0075969Y0190258D01*
X0076117Y0190197D01*
X0076263Y0190134D01*
X0076408Y0190066D01*
X0076551Y0189995D01*
X0076692Y0189921D01*
X0076831Y0189843D01*
X0076968Y0189761D01*
X0077103Y0189676D01*
X0077236Y0189588D01*
X0077367Y0189496D01*
X0077495Y0189402D01*
X0077621Y0189304D01*
X0077745Y0189203D01*
X0077866Y0189099D01*
X0077984Y0188992D01*
X0078100Y0188882D01*
X0078213Y0188769D01*
X0078323Y0188653D01*
X0078430Y0188535D01*
X0078534Y0188414D01*
X0078635Y0188290D01*
X0078733Y0188164D01*
X0078827Y0188036D01*
X0078919Y0187905D01*
X0079007Y0187772D01*
X0079092Y0187637D01*
X0079174Y0187500D01*
X0079252Y0187361D01*
X0079326Y0187220D01*
X0079397Y0187077D01*
X0079465Y0186932D01*
X0079528Y0186786D01*
X0079589Y0186638D01*
X0079645Y0186489D01*
X0079698Y0186338D01*
X0079747Y0186186D01*
X0079792Y0186033D01*
X0079833Y0185879D01*
X0079871Y0185724D01*
X0079904Y0185568D01*
X0079934Y0185411D01*
X0079960Y0185254D01*
X0079981Y0185096D01*
X0079999Y0184937D01*
X0080013Y0184778D01*
X0080023Y0184619D01*
X0080029Y0184460D01*
X0080031Y0184300D01*
X0080029Y0184140D01*
X0080023Y0183981D01*
X0080013Y0183822D01*
X0079999Y0183663D01*
X0079981Y0183504D01*
X0079960Y0183346D01*
X0079934Y0183189D01*
X0079904Y0183032D01*
X0079871Y0182876D01*
X0079833Y0182721D01*
X0079792Y0182567D01*
X0079747Y0182414D01*
X0079698Y0182262D01*
X0079645Y0182111D01*
X0079589Y0181962D01*
X0079528Y0181814D01*
X0079465Y0181668D01*
X0079397Y0181523D01*
X0079326Y0181380D01*
X0079252Y0181239D01*
X0079174Y0181100D01*
X0079092Y0180963D01*
X0079007Y0180828D01*
X0078919Y0180695D01*
X0078827Y0180564D01*
X0078733Y0180436D01*
X0078635Y0180310D01*
X0078534Y0180186D01*
X0078430Y0180065D01*
X0078323Y0179947D01*
X0078213Y0179831D01*
X0078100Y0179718D01*
X0077984Y0179608D01*
X0077866Y0179501D01*
X0077745Y0179397D01*
X0077621Y0179296D01*
X0077495Y0179198D01*
X0077367Y0179104D01*
X0077236Y0179012D01*
X0077103Y0178924D01*
X0076968Y0178839D01*
X0076831Y0178757D01*
X0076692Y0178679D01*
X0076551Y0178605D01*
X0076408Y0178534D01*
X0076263Y0178466D01*
X0076117Y0178403D01*
X0075969Y0178342D01*
X0075820Y0178286D01*
X0075669Y0178233D01*
X0075517Y0178184D01*
X0075364Y0178139D01*
X0075210Y0178098D01*
X0075055Y0178060D01*
X0074899Y0178027D01*
X0074742Y0177997D01*
X0074585Y0177971D01*
X0074427Y0177950D01*
X0074268Y0177932D01*
X0074109Y0177918D01*
X0073950Y0177908D01*
X0073791Y0177902D01*
X0073631Y0177900D01*
X0073471Y0177902D01*
X0073312Y0177908D01*
X0073153Y0177918D01*
X0072994Y0177932D01*
X0072835Y0177950D01*
X0072677Y0177971D01*
X0072520Y0177997D01*
X0072363Y0178027D01*
X0072207Y0178060D01*
X0072052Y0178098D01*
X0071898Y0178139D01*
X0071745Y0178184D01*
X0071593Y0178233D01*
X0071442Y0178286D01*
X0071293Y0178342D01*
X0071145Y0178403D01*
X0070999Y0178466D01*
X0070854Y0178534D01*
X0070711Y0178605D01*
X0070570Y0178679D01*
X0070431Y0178757D01*
X0070294Y0178839D01*
X0070159Y0178924D01*
X0070026Y0179012D01*
X0069895Y0179104D01*
X0069767Y0179198D01*
X0069641Y0179296D01*
X0069517Y0179397D01*
X0069396Y0179501D01*
X0069278Y0179608D01*
X0069162Y0179718D01*
X0069049Y0179831D01*
X0068939Y0179947D01*
X0068832Y0180065D01*
X0068728Y0180186D01*
X0068627Y0180310D01*
X0068529Y0180436D01*
X0068435Y0180564D01*
X0068343Y0180695D01*
X0068255Y0180828D01*
X0068170Y0180963D01*
X0068088Y0181100D01*
X0068010Y0181239D01*
X0067936Y0181380D01*
X0067865Y0181523D01*
X0067797Y0181668D01*
X0067734Y0181814D01*
X0067673Y0181962D01*
X0067617Y0182111D01*
X0067564Y0182262D01*
X0067515Y0182414D01*
X0067470Y0182567D01*
X0067429Y0182721D01*
X0067391Y0182876D01*
X0067358Y0183032D01*
X0067328Y0183189D01*
X0067302Y0183346D01*
X0067281Y0183504D01*
X0067263Y0183663D01*
X0067249Y0183822D01*
X0067239Y0183981D01*
X0067233Y0184140D01*
X0067231Y0184300D01*
X0015579Y0218335D02*
X0015581Y0218488D01*
X0015587Y0218642D01*
X0015597Y0218795D01*
X0015611Y0218947D01*
X0015629Y0219100D01*
X0015651Y0219251D01*
X0015676Y0219402D01*
X0015706Y0219553D01*
X0015740Y0219703D01*
X0015777Y0219851D01*
X0015818Y0219999D01*
X0015863Y0220145D01*
X0015912Y0220291D01*
X0015965Y0220435D01*
X0016021Y0220577D01*
X0016081Y0220718D01*
X0016145Y0220858D01*
X0016212Y0220996D01*
X0016283Y0221132D01*
X0016358Y0221266D01*
X0016435Y0221398D01*
X0016517Y0221528D01*
X0016601Y0221656D01*
X0016689Y0221782D01*
X0016780Y0221905D01*
X0016874Y0222026D01*
X0016972Y0222144D01*
X0017072Y0222260D01*
X0017176Y0222373D01*
X0017282Y0222484D01*
X0017391Y0222592D01*
X0017503Y0222697D01*
X0017617Y0222798D01*
X0017735Y0222897D01*
X0017854Y0222993D01*
X0017976Y0223086D01*
X0018101Y0223175D01*
X0018228Y0223262D01*
X0018357Y0223344D01*
X0018488Y0223424D01*
X0018621Y0223500D01*
X0018756Y0223573D01*
X0018893Y0223642D01*
X0019032Y0223707D01*
X0019172Y0223769D01*
X0019314Y0223827D01*
X0019457Y0223882D01*
X0019602Y0223933D01*
X0019748Y0223980D01*
X0019895Y0224023D01*
X0020043Y0224062D01*
X0020192Y0224098D01*
X0020342Y0224129D01*
X0020493Y0224157D01*
X0020644Y0224181D01*
X0020797Y0224201D01*
X0020949Y0224217D01*
X0021102Y0224229D01*
X0021255Y0224237D01*
X0021408Y0224241D01*
X0021562Y0224241D01*
X0021715Y0224237D01*
X0021868Y0224229D01*
X0022021Y0224217D01*
X0022173Y0224201D01*
X0022326Y0224181D01*
X0022477Y0224157D01*
X0022628Y0224129D01*
X0022778Y0224098D01*
X0022927Y0224062D01*
X0023075Y0224023D01*
X0023222Y0223980D01*
X0023368Y0223933D01*
X0023513Y0223882D01*
X0023656Y0223827D01*
X0023798Y0223769D01*
X0023938Y0223707D01*
X0024077Y0223642D01*
X0024214Y0223573D01*
X0024349Y0223500D01*
X0024482Y0223424D01*
X0024613Y0223344D01*
X0024742Y0223262D01*
X0024869Y0223175D01*
X0024994Y0223086D01*
X0025116Y0222993D01*
X0025235Y0222897D01*
X0025353Y0222798D01*
X0025467Y0222697D01*
X0025579Y0222592D01*
X0025688Y0222484D01*
X0025794Y0222373D01*
X0025898Y0222260D01*
X0025998Y0222144D01*
X0026096Y0222026D01*
X0026190Y0221905D01*
X0026281Y0221782D01*
X0026369Y0221656D01*
X0026453Y0221528D01*
X0026535Y0221398D01*
X0026612Y0221266D01*
X0026687Y0221132D01*
X0026758Y0220996D01*
X0026825Y0220858D01*
X0026889Y0220718D01*
X0026949Y0220577D01*
X0027005Y0220435D01*
X0027058Y0220291D01*
X0027107Y0220145D01*
X0027152Y0219999D01*
X0027193Y0219851D01*
X0027230Y0219703D01*
X0027264Y0219553D01*
X0027294Y0219402D01*
X0027319Y0219251D01*
X0027341Y0219100D01*
X0027359Y0218947D01*
X0027373Y0218795D01*
X0027383Y0218642D01*
X0027389Y0218488D01*
X0027391Y0218335D01*
X0027389Y0218182D01*
X0027383Y0218028D01*
X0027373Y0217875D01*
X0027359Y0217723D01*
X0027341Y0217570D01*
X0027319Y0217419D01*
X0027294Y0217268D01*
X0027264Y0217117D01*
X0027230Y0216967D01*
X0027193Y0216819D01*
X0027152Y0216671D01*
X0027107Y0216525D01*
X0027058Y0216379D01*
X0027005Y0216235D01*
X0026949Y0216093D01*
X0026889Y0215952D01*
X0026825Y0215812D01*
X0026758Y0215674D01*
X0026687Y0215538D01*
X0026612Y0215404D01*
X0026535Y0215272D01*
X0026453Y0215142D01*
X0026369Y0215014D01*
X0026281Y0214888D01*
X0026190Y0214765D01*
X0026096Y0214644D01*
X0025998Y0214526D01*
X0025898Y0214410D01*
X0025794Y0214297D01*
X0025688Y0214186D01*
X0025579Y0214078D01*
X0025467Y0213973D01*
X0025353Y0213872D01*
X0025235Y0213773D01*
X0025116Y0213677D01*
X0024994Y0213584D01*
X0024869Y0213495D01*
X0024742Y0213408D01*
X0024613Y0213326D01*
X0024482Y0213246D01*
X0024349Y0213170D01*
X0024214Y0213097D01*
X0024077Y0213028D01*
X0023938Y0212963D01*
X0023798Y0212901D01*
X0023656Y0212843D01*
X0023513Y0212788D01*
X0023368Y0212737D01*
X0023222Y0212690D01*
X0023075Y0212647D01*
X0022927Y0212608D01*
X0022778Y0212572D01*
X0022628Y0212541D01*
X0022477Y0212513D01*
X0022326Y0212489D01*
X0022173Y0212469D01*
X0022021Y0212453D01*
X0021868Y0212441D01*
X0021715Y0212433D01*
X0021562Y0212429D01*
X0021408Y0212429D01*
X0021255Y0212433D01*
X0021102Y0212441D01*
X0020949Y0212453D01*
X0020797Y0212469D01*
X0020644Y0212489D01*
X0020493Y0212513D01*
X0020342Y0212541D01*
X0020192Y0212572D01*
X0020043Y0212608D01*
X0019895Y0212647D01*
X0019748Y0212690D01*
X0019602Y0212737D01*
X0019457Y0212788D01*
X0019314Y0212843D01*
X0019172Y0212901D01*
X0019032Y0212963D01*
X0018893Y0213028D01*
X0018756Y0213097D01*
X0018621Y0213170D01*
X0018488Y0213246D01*
X0018357Y0213326D01*
X0018228Y0213408D01*
X0018101Y0213495D01*
X0017976Y0213584D01*
X0017854Y0213677D01*
X0017735Y0213773D01*
X0017617Y0213872D01*
X0017503Y0213973D01*
X0017391Y0214078D01*
X0017282Y0214186D01*
X0017176Y0214297D01*
X0017072Y0214410D01*
X0016972Y0214526D01*
X0016874Y0214644D01*
X0016780Y0214765D01*
X0016689Y0214888D01*
X0016601Y0215014D01*
X0016517Y0215142D01*
X0016435Y0215272D01*
X0016358Y0215404D01*
X0016283Y0215538D01*
X0016212Y0215674D01*
X0016145Y0215812D01*
X0016081Y0215952D01*
X0016021Y0216093D01*
X0015965Y0216235D01*
X0015912Y0216379D01*
X0015863Y0216525D01*
X0015818Y0216671D01*
X0015777Y0216819D01*
X0015740Y0216967D01*
X0015706Y0217117D01*
X0015676Y0217268D01*
X0015651Y0217419D01*
X0015629Y0217570D01*
X0015611Y0217723D01*
X0015597Y0217875D01*
X0015587Y0218028D01*
X0015581Y0218182D01*
X0015579Y0218335D01*
X0107231Y0184300D02*
X0107233Y0184460D01*
X0107239Y0184619D01*
X0107249Y0184778D01*
X0107263Y0184937D01*
X0107281Y0185096D01*
X0107302Y0185254D01*
X0107328Y0185411D01*
X0107358Y0185568D01*
X0107391Y0185724D01*
X0107429Y0185879D01*
X0107470Y0186033D01*
X0107515Y0186186D01*
X0107564Y0186338D01*
X0107617Y0186489D01*
X0107673Y0186638D01*
X0107734Y0186786D01*
X0107797Y0186932D01*
X0107865Y0187077D01*
X0107936Y0187220D01*
X0108010Y0187361D01*
X0108088Y0187500D01*
X0108170Y0187637D01*
X0108255Y0187772D01*
X0108343Y0187905D01*
X0108435Y0188036D01*
X0108529Y0188164D01*
X0108627Y0188290D01*
X0108728Y0188414D01*
X0108832Y0188535D01*
X0108939Y0188653D01*
X0109049Y0188769D01*
X0109162Y0188882D01*
X0109278Y0188992D01*
X0109396Y0189099D01*
X0109517Y0189203D01*
X0109641Y0189304D01*
X0109767Y0189402D01*
X0109895Y0189496D01*
X0110026Y0189588D01*
X0110159Y0189676D01*
X0110294Y0189761D01*
X0110431Y0189843D01*
X0110570Y0189921D01*
X0110711Y0189995D01*
X0110854Y0190066D01*
X0110999Y0190134D01*
X0111145Y0190197D01*
X0111293Y0190258D01*
X0111442Y0190314D01*
X0111593Y0190367D01*
X0111745Y0190416D01*
X0111898Y0190461D01*
X0112052Y0190502D01*
X0112207Y0190540D01*
X0112363Y0190573D01*
X0112520Y0190603D01*
X0112677Y0190629D01*
X0112835Y0190650D01*
X0112994Y0190668D01*
X0113153Y0190682D01*
X0113312Y0190692D01*
X0113471Y0190698D01*
X0113631Y0190700D01*
X0113791Y0190698D01*
X0113950Y0190692D01*
X0114109Y0190682D01*
X0114268Y0190668D01*
X0114427Y0190650D01*
X0114585Y0190629D01*
X0114742Y0190603D01*
X0114899Y0190573D01*
X0115055Y0190540D01*
X0115210Y0190502D01*
X0115364Y0190461D01*
X0115517Y0190416D01*
X0115669Y0190367D01*
X0115820Y0190314D01*
X0115969Y0190258D01*
X0116117Y0190197D01*
X0116263Y0190134D01*
X0116408Y0190066D01*
X0116551Y0189995D01*
X0116692Y0189921D01*
X0116831Y0189843D01*
X0116968Y0189761D01*
X0117103Y0189676D01*
X0117236Y0189588D01*
X0117367Y0189496D01*
X0117495Y0189402D01*
X0117621Y0189304D01*
X0117745Y0189203D01*
X0117866Y0189099D01*
X0117984Y0188992D01*
X0118100Y0188882D01*
X0118213Y0188769D01*
X0118323Y0188653D01*
X0118430Y0188535D01*
X0118534Y0188414D01*
X0118635Y0188290D01*
X0118733Y0188164D01*
X0118827Y0188036D01*
X0118919Y0187905D01*
X0119007Y0187772D01*
X0119092Y0187637D01*
X0119174Y0187500D01*
X0119252Y0187361D01*
X0119326Y0187220D01*
X0119397Y0187077D01*
X0119465Y0186932D01*
X0119528Y0186786D01*
X0119589Y0186638D01*
X0119645Y0186489D01*
X0119698Y0186338D01*
X0119747Y0186186D01*
X0119792Y0186033D01*
X0119833Y0185879D01*
X0119871Y0185724D01*
X0119904Y0185568D01*
X0119934Y0185411D01*
X0119960Y0185254D01*
X0119981Y0185096D01*
X0119999Y0184937D01*
X0120013Y0184778D01*
X0120023Y0184619D01*
X0120029Y0184460D01*
X0120031Y0184300D01*
X0120029Y0184140D01*
X0120023Y0183981D01*
X0120013Y0183822D01*
X0119999Y0183663D01*
X0119981Y0183504D01*
X0119960Y0183346D01*
X0119934Y0183189D01*
X0119904Y0183032D01*
X0119871Y0182876D01*
X0119833Y0182721D01*
X0119792Y0182567D01*
X0119747Y0182414D01*
X0119698Y0182262D01*
X0119645Y0182111D01*
X0119589Y0181962D01*
X0119528Y0181814D01*
X0119465Y0181668D01*
X0119397Y0181523D01*
X0119326Y0181380D01*
X0119252Y0181239D01*
X0119174Y0181100D01*
X0119092Y0180963D01*
X0119007Y0180828D01*
X0118919Y0180695D01*
X0118827Y0180564D01*
X0118733Y0180436D01*
X0118635Y0180310D01*
X0118534Y0180186D01*
X0118430Y0180065D01*
X0118323Y0179947D01*
X0118213Y0179831D01*
X0118100Y0179718D01*
X0117984Y0179608D01*
X0117866Y0179501D01*
X0117745Y0179397D01*
X0117621Y0179296D01*
X0117495Y0179198D01*
X0117367Y0179104D01*
X0117236Y0179012D01*
X0117103Y0178924D01*
X0116968Y0178839D01*
X0116831Y0178757D01*
X0116692Y0178679D01*
X0116551Y0178605D01*
X0116408Y0178534D01*
X0116263Y0178466D01*
X0116117Y0178403D01*
X0115969Y0178342D01*
X0115820Y0178286D01*
X0115669Y0178233D01*
X0115517Y0178184D01*
X0115364Y0178139D01*
X0115210Y0178098D01*
X0115055Y0178060D01*
X0114899Y0178027D01*
X0114742Y0177997D01*
X0114585Y0177971D01*
X0114427Y0177950D01*
X0114268Y0177932D01*
X0114109Y0177918D01*
X0113950Y0177908D01*
X0113791Y0177902D01*
X0113631Y0177900D01*
X0113471Y0177902D01*
X0113312Y0177908D01*
X0113153Y0177918D01*
X0112994Y0177932D01*
X0112835Y0177950D01*
X0112677Y0177971D01*
X0112520Y0177997D01*
X0112363Y0178027D01*
X0112207Y0178060D01*
X0112052Y0178098D01*
X0111898Y0178139D01*
X0111745Y0178184D01*
X0111593Y0178233D01*
X0111442Y0178286D01*
X0111293Y0178342D01*
X0111145Y0178403D01*
X0110999Y0178466D01*
X0110854Y0178534D01*
X0110711Y0178605D01*
X0110570Y0178679D01*
X0110431Y0178757D01*
X0110294Y0178839D01*
X0110159Y0178924D01*
X0110026Y0179012D01*
X0109895Y0179104D01*
X0109767Y0179198D01*
X0109641Y0179296D01*
X0109517Y0179397D01*
X0109396Y0179501D01*
X0109278Y0179608D01*
X0109162Y0179718D01*
X0109049Y0179831D01*
X0108939Y0179947D01*
X0108832Y0180065D01*
X0108728Y0180186D01*
X0108627Y0180310D01*
X0108529Y0180436D01*
X0108435Y0180564D01*
X0108343Y0180695D01*
X0108255Y0180828D01*
X0108170Y0180963D01*
X0108088Y0181100D01*
X0108010Y0181239D01*
X0107936Y0181380D01*
X0107865Y0181523D01*
X0107797Y0181668D01*
X0107734Y0181814D01*
X0107673Y0181962D01*
X0107617Y0182111D01*
X0107564Y0182262D01*
X0107515Y0182414D01*
X0107470Y0182567D01*
X0107429Y0182721D01*
X0107391Y0182876D01*
X0107358Y0183032D01*
X0107328Y0183189D01*
X0107302Y0183346D01*
X0107281Y0183504D01*
X0107263Y0183663D01*
X0107249Y0183822D01*
X0107239Y0183981D01*
X0107233Y0184140D01*
X0107231Y0184300D01*
X0173059Y0218335D02*
X0173061Y0218488D01*
X0173067Y0218642D01*
X0173077Y0218795D01*
X0173091Y0218947D01*
X0173109Y0219100D01*
X0173131Y0219251D01*
X0173156Y0219402D01*
X0173186Y0219553D01*
X0173220Y0219703D01*
X0173257Y0219851D01*
X0173298Y0219999D01*
X0173343Y0220145D01*
X0173392Y0220291D01*
X0173445Y0220435D01*
X0173501Y0220577D01*
X0173561Y0220718D01*
X0173625Y0220858D01*
X0173692Y0220996D01*
X0173763Y0221132D01*
X0173838Y0221266D01*
X0173915Y0221398D01*
X0173997Y0221528D01*
X0174081Y0221656D01*
X0174169Y0221782D01*
X0174260Y0221905D01*
X0174354Y0222026D01*
X0174452Y0222144D01*
X0174552Y0222260D01*
X0174656Y0222373D01*
X0174762Y0222484D01*
X0174871Y0222592D01*
X0174983Y0222697D01*
X0175097Y0222798D01*
X0175215Y0222897D01*
X0175334Y0222993D01*
X0175456Y0223086D01*
X0175581Y0223175D01*
X0175708Y0223262D01*
X0175837Y0223344D01*
X0175968Y0223424D01*
X0176101Y0223500D01*
X0176236Y0223573D01*
X0176373Y0223642D01*
X0176512Y0223707D01*
X0176652Y0223769D01*
X0176794Y0223827D01*
X0176937Y0223882D01*
X0177082Y0223933D01*
X0177228Y0223980D01*
X0177375Y0224023D01*
X0177523Y0224062D01*
X0177672Y0224098D01*
X0177822Y0224129D01*
X0177973Y0224157D01*
X0178124Y0224181D01*
X0178277Y0224201D01*
X0178429Y0224217D01*
X0178582Y0224229D01*
X0178735Y0224237D01*
X0178888Y0224241D01*
X0179042Y0224241D01*
X0179195Y0224237D01*
X0179348Y0224229D01*
X0179501Y0224217D01*
X0179653Y0224201D01*
X0179806Y0224181D01*
X0179957Y0224157D01*
X0180108Y0224129D01*
X0180258Y0224098D01*
X0180407Y0224062D01*
X0180555Y0224023D01*
X0180702Y0223980D01*
X0180848Y0223933D01*
X0180993Y0223882D01*
X0181136Y0223827D01*
X0181278Y0223769D01*
X0181418Y0223707D01*
X0181557Y0223642D01*
X0181694Y0223573D01*
X0181829Y0223500D01*
X0181962Y0223424D01*
X0182093Y0223344D01*
X0182222Y0223262D01*
X0182349Y0223175D01*
X0182474Y0223086D01*
X0182596Y0222993D01*
X0182715Y0222897D01*
X0182833Y0222798D01*
X0182947Y0222697D01*
X0183059Y0222592D01*
X0183168Y0222484D01*
X0183274Y0222373D01*
X0183378Y0222260D01*
X0183478Y0222144D01*
X0183576Y0222026D01*
X0183670Y0221905D01*
X0183761Y0221782D01*
X0183849Y0221656D01*
X0183933Y0221528D01*
X0184015Y0221398D01*
X0184092Y0221266D01*
X0184167Y0221132D01*
X0184238Y0220996D01*
X0184305Y0220858D01*
X0184369Y0220718D01*
X0184429Y0220577D01*
X0184485Y0220435D01*
X0184538Y0220291D01*
X0184587Y0220145D01*
X0184632Y0219999D01*
X0184673Y0219851D01*
X0184710Y0219703D01*
X0184744Y0219553D01*
X0184774Y0219402D01*
X0184799Y0219251D01*
X0184821Y0219100D01*
X0184839Y0218947D01*
X0184853Y0218795D01*
X0184863Y0218642D01*
X0184869Y0218488D01*
X0184871Y0218335D01*
X0184869Y0218182D01*
X0184863Y0218028D01*
X0184853Y0217875D01*
X0184839Y0217723D01*
X0184821Y0217570D01*
X0184799Y0217419D01*
X0184774Y0217268D01*
X0184744Y0217117D01*
X0184710Y0216967D01*
X0184673Y0216819D01*
X0184632Y0216671D01*
X0184587Y0216525D01*
X0184538Y0216379D01*
X0184485Y0216235D01*
X0184429Y0216093D01*
X0184369Y0215952D01*
X0184305Y0215812D01*
X0184238Y0215674D01*
X0184167Y0215538D01*
X0184092Y0215404D01*
X0184015Y0215272D01*
X0183933Y0215142D01*
X0183849Y0215014D01*
X0183761Y0214888D01*
X0183670Y0214765D01*
X0183576Y0214644D01*
X0183478Y0214526D01*
X0183378Y0214410D01*
X0183274Y0214297D01*
X0183168Y0214186D01*
X0183059Y0214078D01*
X0182947Y0213973D01*
X0182833Y0213872D01*
X0182715Y0213773D01*
X0182596Y0213677D01*
X0182474Y0213584D01*
X0182349Y0213495D01*
X0182222Y0213408D01*
X0182093Y0213326D01*
X0181962Y0213246D01*
X0181829Y0213170D01*
X0181694Y0213097D01*
X0181557Y0213028D01*
X0181418Y0212963D01*
X0181278Y0212901D01*
X0181136Y0212843D01*
X0180993Y0212788D01*
X0180848Y0212737D01*
X0180702Y0212690D01*
X0180555Y0212647D01*
X0180407Y0212608D01*
X0180258Y0212572D01*
X0180108Y0212541D01*
X0179957Y0212513D01*
X0179806Y0212489D01*
X0179653Y0212469D01*
X0179501Y0212453D01*
X0179348Y0212441D01*
X0179195Y0212433D01*
X0179042Y0212429D01*
X0178888Y0212429D01*
X0178735Y0212433D01*
X0178582Y0212441D01*
X0178429Y0212453D01*
X0178277Y0212469D01*
X0178124Y0212489D01*
X0177973Y0212513D01*
X0177822Y0212541D01*
X0177672Y0212572D01*
X0177523Y0212608D01*
X0177375Y0212647D01*
X0177228Y0212690D01*
X0177082Y0212737D01*
X0176937Y0212788D01*
X0176794Y0212843D01*
X0176652Y0212901D01*
X0176512Y0212963D01*
X0176373Y0213028D01*
X0176236Y0213097D01*
X0176101Y0213170D01*
X0175968Y0213246D01*
X0175837Y0213326D01*
X0175708Y0213408D01*
X0175581Y0213495D01*
X0175456Y0213584D01*
X0175334Y0213677D01*
X0175215Y0213773D01*
X0175097Y0213872D01*
X0174983Y0213973D01*
X0174871Y0214078D01*
X0174762Y0214186D01*
X0174656Y0214297D01*
X0174552Y0214410D01*
X0174452Y0214526D01*
X0174354Y0214644D01*
X0174260Y0214765D01*
X0174169Y0214888D01*
X0174081Y0215014D01*
X0173997Y0215142D01*
X0173915Y0215272D01*
X0173838Y0215404D01*
X0173763Y0215538D01*
X0173692Y0215674D01*
X0173625Y0215812D01*
X0173561Y0215952D01*
X0173501Y0216093D01*
X0173445Y0216235D01*
X0173392Y0216379D01*
X0173343Y0216525D01*
X0173298Y0216671D01*
X0173257Y0216819D01*
X0173220Y0216967D01*
X0173186Y0217117D01*
X0173156Y0217268D01*
X0173131Y0217419D01*
X0173109Y0217570D01*
X0173091Y0217723D01*
X0173077Y0217875D01*
X0173067Y0218028D01*
X0173061Y0218182D01*
X0173059Y0218335D01*
X0173059Y0021485D02*
X0173061Y0021638D01*
X0173067Y0021792D01*
X0173077Y0021945D01*
X0173091Y0022097D01*
X0173109Y0022250D01*
X0173131Y0022401D01*
X0173156Y0022552D01*
X0173186Y0022703D01*
X0173220Y0022853D01*
X0173257Y0023001D01*
X0173298Y0023149D01*
X0173343Y0023295D01*
X0173392Y0023441D01*
X0173445Y0023585D01*
X0173501Y0023727D01*
X0173561Y0023868D01*
X0173625Y0024008D01*
X0173692Y0024146D01*
X0173763Y0024282D01*
X0173838Y0024416D01*
X0173915Y0024548D01*
X0173997Y0024678D01*
X0174081Y0024806D01*
X0174169Y0024932D01*
X0174260Y0025055D01*
X0174354Y0025176D01*
X0174452Y0025294D01*
X0174552Y0025410D01*
X0174656Y0025523D01*
X0174762Y0025634D01*
X0174871Y0025742D01*
X0174983Y0025847D01*
X0175097Y0025948D01*
X0175215Y0026047D01*
X0175334Y0026143D01*
X0175456Y0026236D01*
X0175581Y0026325D01*
X0175708Y0026412D01*
X0175837Y0026494D01*
X0175968Y0026574D01*
X0176101Y0026650D01*
X0176236Y0026723D01*
X0176373Y0026792D01*
X0176512Y0026857D01*
X0176652Y0026919D01*
X0176794Y0026977D01*
X0176937Y0027032D01*
X0177082Y0027083D01*
X0177228Y0027130D01*
X0177375Y0027173D01*
X0177523Y0027212D01*
X0177672Y0027248D01*
X0177822Y0027279D01*
X0177973Y0027307D01*
X0178124Y0027331D01*
X0178277Y0027351D01*
X0178429Y0027367D01*
X0178582Y0027379D01*
X0178735Y0027387D01*
X0178888Y0027391D01*
X0179042Y0027391D01*
X0179195Y0027387D01*
X0179348Y0027379D01*
X0179501Y0027367D01*
X0179653Y0027351D01*
X0179806Y0027331D01*
X0179957Y0027307D01*
X0180108Y0027279D01*
X0180258Y0027248D01*
X0180407Y0027212D01*
X0180555Y0027173D01*
X0180702Y0027130D01*
X0180848Y0027083D01*
X0180993Y0027032D01*
X0181136Y0026977D01*
X0181278Y0026919D01*
X0181418Y0026857D01*
X0181557Y0026792D01*
X0181694Y0026723D01*
X0181829Y0026650D01*
X0181962Y0026574D01*
X0182093Y0026494D01*
X0182222Y0026412D01*
X0182349Y0026325D01*
X0182474Y0026236D01*
X0182596Y0026143D01*
X0182715Y0026047D01*
X0182833Y0025948D01*
X0182947Y0025847D01*
X0183059Y0025742D01*
X0183168Y0025634D01*
X0183274Y0025523D01*
X0183378Y0025410D01*
X0183478Y0025294D01*
X0183576Y0025176D01*
X0183670Y0025055D01*
X0183761Y0024932D01*
X0183849Y0024806D01*
X0183933Y0024678D01*
X0184015Y0024548D01*
X0184092Y0024416D01*
X0184167Y0024282D01*
X0184238Y0024146D01*
X0184305Y0024008D01*
X0184369Y0023868D01*
X0184429Y0023727D01*
X0184485Y0023585D01*
X0184538Y0023441D01*
X0184587Y0023295D01*
X0184632Y0023149D01*
X0184673Y0023001D01*
X0184710Y0022853D01*
X0184744Y0022703D01*
X0184774Y0022552D01*
X0184799Y0022401D01*
X0184821Y0022250D01*
X0184839Y0022097D01*
X0184853Y0021945D01*
X0184863Y0021792D01*
X0184869Y0021638D01*
X0184871Y0021485D01*
X0184869Y0021332D01*
X0184863Y0021178D01*
X0184853Y0021025D01*
X0184839Y0020873D01*
X0184821Y0020720D01*
X0184799Y0020569D01*
X0184774Y0020418D01*
X0184744Y0020267D01*
X0184710Y0020117D01*
X0184673Y0019969D01*
X0184632Y0019821D01*
X0184587Y0019675D01*
X0184538Y0019529D01*
X0184485Y0019385D01*
X0184429Y0019243D01*
X0184369Y0019102D01*
X0184305Y0018962D01*
X0184238Y0018824D01*
X0184167Y0018688D01*
X0184092Y0018554D01*
X0184015Y0018422D01*
X0183933Y0018292D01*
X0183849Y0018164D01*
X0183761Y0018038D01*
X0183670Y0017915D01*
X0183576Y0017794D01*
X0183478Y0017676D01*
X0183378Y0017560D01*
X0183274Y0017447D01*
X0183168Y0017336D01*
X0183059Y0017228D01*
X0182947Y0017123D01*
X0182833Y0017022D01*
X0182715Y0016923D01*
X0182596Y0016827D01*
X0182474Y0016734D01*
X0182349Y0016645D01*
X0182222Y0016558D01*
X0182093Y0016476D01*
X0181962Y0016396D01*
X0181829Y0016320D01*
X0181694Y0016247D01*
X0181557Y0016178D01*
X0181418Y0016113D01*
X0181278Y0016051D01*
X0181136Y0015993D01*
X0180993Y0015938D01*
X0180848Y0015887D01*
X0180702Y0015840D01*
X0180555Y0015797D01*
X0180407Y0015758D01*
X0180258Y0015722D01*
X0180108Y0015691D01*
X0179957Y0015663D01*
X0179806Y0015639D01*
X0179653Y0015619D01*
X0179501Y0015603D01*
X0179348Y0015591D01*
X0179195Y0015583D01*
X0179042Y0015579D01*
X0178888Y0015579D01*
X0178735Y0015583D01*
X0178582Y0015591D01*
X0178429Y0015603D01*
X0178277Y0015619D01*
X0178124Y0015639D01*
X0177973Y0015663D01*
X0177822Y0015691D01*
X0177672Y0015722D01*
X0177523Y0015758D01*
X0177375Y0015797D01*
X0177228Y0015840D01*
X0177082Y0015887D01*
X0176937Y0015938D01*
X0176794Y0015993D01*
X0176652Y0016051D01*
X0176512Y0016113D01*
X0176373Y0016178D01*
X0176236Y0016247D01*
X0176101Y0016320D01*
X0175968Y0016396D01*
X0175837Y0016476D01*
X0175708Y0016558D01*
X0175581Y0016645D01*
X0175456Y0016734D01*
X0175334Y0016827D01*
X0175215Y0016923D01*
X0175097Y0017022D01*
X0174983Y0017123D01*
X0174871Y0017228D01*
X0174762Y0017336D01*
X0174656Y0017447D01*
X0174552Y0017560D01*
X0174452Y0017676D01*
X0174354Y0017794D01*
X0174260Y0017915D01*
X0174169Y0018038D01*
X0174081Y0018164D01*
X0173997Y0018292D01*
X0173915Y0018422D01*
X0173838Y0018554D01*
X0173763Y0018688D01*
X0173692Y0018824D01*
X0173625Y0018962D01*
X0173561Y0019102D01*
X0173501Y0019243D01*
X0173445Y0019385D01*
X0173392Y0019529D01*
X0173343Y0019675D01*
X0173298Y0019821D01*
X0173257Y0019969D01*
X0173220Y0020117D01*
X0173186Y0020267D01*
X0173156Y0020418D01*
X0173131Y0020569D01*
X0173109Y0020720D01*
X0173091Y0020873D01*
X0173077Y0021025D01*
X0173067Y0021178D01*
X0173061Y0021332D01*
X0173059Y0021485D01*
D11*
X0044300Y0196800D03*
D12*
X0058080Y0196800D03*
D13*
X0129300Y0196800D03*
D14*
X0143080Y0196800D03*
X0156859Y0196800D03*
D15*
X0184300Y0164300D03*
X0166800Y0126800D03*
X0184300Y0124300D03*
X0166800Y0086800D03*
X0166800Y0079300D03*
X0166800Y0039300D03*
X0036800Y0086800D03*
X0021800Y0074300D03*
X0016800Y0066800D03*
X0026800Y0066800D03*
X0014300Y0086800D03*
X0014300Y0126800D03*
X0014300Y0139300D03*
X0036800Y0139300D03*
X0036800Y0126800D03*
X0036800Y0179300D03*
X0014300Y0179300D03*
D16*
X0181300Y0091800D02*
X0187300Y0091800D01*
X0187300Y0081800D02*
X0181300Y0081800D01*
X0181300Y0071800D02*
X0187300Y0071800D01*
X0187300Y0061800D02*
X0181300Y0061800D01*
D17*
X0150400Y0059300D02*
X0143200Y0059300D01*
X0143200Y0069300D02*
X0150400Y0069300D01*
X0150400Y0079300D02*
X0143200Y0079300D01*
X0143200Y0089300D02*
X0150400Y0089300D01*
X0150400Y0099300D02*
X0143200Y0099300D01*
X0143200Y0109300D02*
X0150400Y0109300D01*
X0150400Y0049300D02*
X0143200Y0049300D01*
X0143200Y0039300D02*
X0150400Y0039300D01*
X0060400Y0039300D02*
X0053200Y0039300D01*
X0053200Y0049300D02*
X0060400Y0049300D01*
X0060400Y0059300D02*
X0053200Y0059300D01*
X0053200Y0069300D02*
X0060400Y0069300D01*
X0060400Y0079300D02*
X0053200Y0079300D01*
X0053200Y0089300D02*
X0060400Y0089300D01*
X0060400Y0099300D02*
X0053200Y0099300D01*
X0053200Y0109300D02*
X0060400Y0109300D01*
D18*
X0062881Y0216505D02*
X0124381Y0216505D01*
D19*
X0101131Y0159300D03*
X0106131Y0149300D03*
X0096131Y0149300D03*
X0091131Y0159300D03*
X0086131Y0149300D03*
X0081131Y0159300D03*
D20*
X0066131Y0149800D03*
X0066131Y0205300D03*
X0121131Y0205300D03*
X0121131Y0149800D03*
D21*
X0036800Y0074300D03*
X0036800Y0034300D03*
D22*
X0131800Y0139100D02*
X0131800Y0144300D01*
X0141800Y0144300D02*
X0141800Y0139100D01*
X0151800Y0139100D02*
X0151800Y0144300D01*
X0161800Y0144300D02*
X0161800Y0139100D01*
X0161800Y0174300D02*
X0161800Y0179500D01*
X0151800Y0179500D02*
X0151800Y0174300D01*
X0141800Y0174300D02*
X0141800Y0179500D01*
X0131800Y0179500D02*
X0131800Y0174300D01*
D23*
X0134632Y0170061D02*
X0136039Y0171468D01*
X0136800Y0173305D01*
X0136800Y0180495D01*
X0136039Y0182332D01*
X0134632Y0183739D01*
X0132795Y0184500D01*
X0130805Y0184500D01*
X0128968Y0183739D01*
X0127561Y0182332D01*
X0126800Y0180495D01*
X0126800Y0173305D01*
X0127561Y0171468D01*
X0128968Y0170061D01*
X0130805Y0169300D01*
X0132795Y0169300D01*
X0134632Y0170061D01*
X0133624Y0169644D02*
X0137664Y0169644D01*
X0137664Y0171242D02*
X0135813Y0171242D01*
X0137561Y0171468D02*
X0136800Y0173305D01*
X0136800Y0180495D01*
X0137561Y0182332D01*
X0138968Y0183739D01*
X0140805Y0184500D01*
X0142795Y0184500D01*
X0144632Y0183739D01*
X0146039Y0182332D01*
X0146800Y0180495D01*
X0146800Y0173305D01*
X0146039Y0171468D01*
X0145464Y0170893D01*
X0145464Y0169086D01*
X0182015Y0169086D01*
X0182229Y0169300D01*
X0186371Y0169300D01*
X0189300Y0166371D01*
X0189300Y0162229D01*
X0186371Y0159300D01*
X0182229Y0159300D01*
X0180243Y0161286D01*
X0140788Y0161286D01*
X0139355Y0161880D01*
X0138258Y0162977D01*
X0137664Y0164410D01*
X0137664Y0171365D01*
X0137561Y0171468D01*
X0136992Y0172841D02*
X0136607Y0172841D01*
X0136800Y0174439D02*
X0136800Y0174439D01*
X0136800Y0176038D02*
X0136800Y0176038D01*
X0136800Y0177636D02*
X0136800Y0177636D01*
X0136800Y0179235D02*
X0136800Y0179235D01*
X0136660Y0180833D02*
X0136940Y0180833D01*
X0137661Y0182432D02*
X0135939Y0182432D01*
X0133929Y0184030D02*
X0139671Y0184030D01*
X0143929Y0184030D02*
X0149671Y0184030D01*
X0148968Y0183739D02*
X0147561Y0182332D01*
X0146800Y0180495D01*
X0146800Y0173305D01*
X0147561Y0171468D01*
X0148968Y0170061D01*
X0150805Y0169300D01*
X0152795Y0169300D01*
X0154632Y0170061D01*
X0156039Y0171468D01*
X0156800Y0173305D01*
X0157561Y0171468D01*
X0158968Y0170061D01*
X0160805Y0169300D01*
X0162795Y0169300D01*
X0164632Y0170061D01*
X0166039Y0171468D01*
X0166800Y0173305D01*
X0166800Y0180495D01*
X0166039Y0182332D01*
X0164632Y0183739D01*
X0162795Y0184500D01*
X0160805Y0184500D01*
X0158968Y0183739D01*
X0157561Y0182332D01*
X0156800Y0180495D01*
X0156800Y0173305D01*
X0156800Y0180495D01*
X0156039Y0182332D01*
X0154632Y0183739D01*
X0152795Y0184500D01*
X0150805Y0184500D01*
X0148968Y0183739D01*
X0147661Y0182432D02*
X0145939Y0182432D01*
X0146660Y0180833D02*
X0146940Y0180833D01*
X0146800Y0179235D02*
X0146800Y0179235D01*
X0146800Y0177636D02*
X0146800Y0177636D01*
X0146800Y0176038D02*
X0146800Y0176038D01*
X0146800Y0174439D02*
X0146800Y0174439D01*
X0146607Y0172841D02*
X0146992Y0172841D01*
X0147787Y0171242D02*
X0145813Y0171242D01*
X0145464Y0169644D02*
X0149976Y0169644D01*
X0153624Y0169644D02*
X0159976Y0169644D01*
X0157787Y0171242D02*
X0155813Y0171242D01*
X0156607Y0172841D02*
X0156992Y0172841D01*
X0156800Y0174439D02*
X0156800Y0174439D01*
X0156800Y0176038D02*
X0156800Y0176038D01*
X0156800Y0177636D02*
X0156800Y0177636D01*
X0156800Y0179235D02*
X0156800Y0179235D01*
X0156660Y0180833D02*
X0156940Y0180833D01*
X0157661Y0182432D02*
X0155939Y0182432D01*
X0153929Y0184030D02*
X0159671Y0184030D01*
X0163929Y0184030D02*
X0193101Y0184030D01*
X0193101Y0182432D02*
X0165939Y0182432D01*
X0166660Y0180833D02*
X0193101Y0180833D01*
X0193101Y0179235D02*
X0166800Y0179235D01*
X0166800Y0177636D02*
X0193101Y0177636D01*
X0193101Y0176038D02*
X0166800Y0176038D01*
X0166800Y0174439D02*
X0193101Y0174439D01*
X0193101Y0172841D02*
X0166607Y0172841D01*
X0165813Y0171242D02*
X0193101Y0171242D01*
X0193101Y0169644D02*
X0163624Y0169644D01*
X0162795Y0149300D02*
X0160805Y0149300D01*
X0158968Y0148539D01*
X0157561Y0147132D01*
X0156800Y0145295D01*
X0156800Y0138105D01*
X0157561Y0136268D01*
X0158968Y0134861D01*
X0160805Y0134100D01*
X0162795Y0134100D01*
X0164632Y0134861D01*
X0166039Y0136268D01*
X0166800Y0138105D01*
X0166800Y0145295D01*
X0166039Y0147132D01*
X0164632Y0148539D01*
X0162795Y0149300D01*
X0163849Y0148863D02*
X0193101Y0148863D01*
X0193101Y0147265D02*
X0165907Y0147265D01*
X0166646Y0145666D02*
X0193101Y0145666D01*
X0193101Y0144068D02*
X0166800Y0144068D01*
X0166800Y0142469D02*
X0193101Y0142469D01*
X0193101Y0140870D02*
X0166800Y0140870D01*
X0166800Y0139272D02*
X0193101Y0139272D01*
X0193101Y0137673D02*
X0166621Y0137673D01*
X0165846Y0136075D02*
X0193101Y0136075D01*
X0193101Y0134476D02*
X0163703Y0134476D01*
X0164729Y0131800D02*
X0164613Y0131684D01*
X0145464Y0131684D01*
X0145464Y0135693D01*
X0146039Y0136268D01*
X0146800Y0138105D01*
X0146800Y0145295D01*
X0146039Y0147132D01*
X0144632Y0148539D01*
X0142795Y0149300D01*
X0140805Y0149300D01*
X0138968Y0148539D01*
X0137561Y0147132D01*
X0136800Y0145295D01*
X0136800Y0138105D01*
X0137561Y0136268D01*
X0137664Y0136165D01*
X0137664Y0129400D01*
X0080893Y0072629D01*
X0065515Y0072629D01*
X0065487Y0072699D01*
X0063885Y0074300D01*
X0064257Y0074672D01*
X0065568Y0074672D01*
X0067001Y0075265D01*
X0068098Y0076362D01*
X0109437Y0117701D01*
X0110031Y0119134D01*
X0110031Y0120686D01*
X0109437Y0122119D01*
X0108340Y0123216D01*
X0106906Y0123810D01*
X0105355Y0123810D01*
X0103922Y0123216D01*
X0064445Y0083740D01*
X0063885Y0084300D01*
X0065487Y0085901D01*
X0066400Y0088107D01*
X0066400Y0090493D01*
X0065487Y0092699D01*
X0063885Y0094300D01*
X0065487Y0095901D01*
X0066400Y0098107D01*
X0066400Y0100493D01*
X0065487Y0102699D01*
X0063885Y0104300D01*
X0065487Y0105901D01*
X0066400Y0108107D01*
X0066400Y0110493D01*
X0065487Y0112699D01*
X0063799Y0114387D01*
X0061593Y0115300D01*
X0052007Y0115300D01*
X0049801Y0114387D01*
X0048113Y0112699D01*
X0047200Y0110493D01*
X0047200Y0108107D01*
X0048113Y0105901D01*
X0049715Y0104300D01*
X0048113Y0102699D01*
X0047200Y0100493D01*
X0047200Y0098107D01*
X0048113Y0095901D01*
X0049715Y0094300D01*
X0048113Y0092699D01*
X0047593Y0091443D01*
X0043379Y0095657D01*
X0041946Y0096251D01*
X0018741Y0096251D01*
X0017307Y0095657D01*
X0016210Y0094560D01*
X0013450Y0091800D01*
X0012229Y0091800D01*
X0009300Y0088871D01*
X0009300Y0084729D01*
X0012229Y0081800D01*
X0016371Y0081800D01*
X0019300Y0084729D01*
X0019300Y0086619D01*
X0021132Y0088451D01*
X0031800Y0088451D01*
X0031800Y0084729D01*
X0034729Y0081800D01*
X0038871Y0081800D01*
X0041800Y0084729D01*
X0041800Y0086206D01*
X0047291Y0080714D01*
X0047200Y0080493D01*
X0047200Y0078107D01*
X0048113Y0075901D01*
X0049715Y0074300D01*
X0048113Y0072699D01*
X0047200Y0070493D01*
X0047200Y0068107D01*
X0048113Y0065901D01*
X0049715Y0064300D01*
X0048113Y0062699D01*
X0047334Y0060818D01*
X0021448Y0060818D01*
X0021448Y0064377D01*
X0021800Y0064729D01*
X0021800Y0068871D01*
X0021371Y0069300D01*
X0023077Y0069300D01*
X0022400Y0068623D01*
X0022400Y0066800D01*
X0026800Y0066800D01*
X0026800Y0066800D01*
X0026800Y0071200D01*
X0028623Y0071200D01*
X0031200Y0068623D01*
X0031200Y0066800D01*
X0026800Y0066800D01*
X0026800Y0066800D01*
X0026800Y0071200D01*
X0025771Y0071200D01*
X0026800Y0072229D01*
X0026800Y0076371D01*
X0023871Y0079300D01*
X0019729Y0079300D01*
X0016800Y0076371D01*
X0016800Y0072229D01*
X0017229Y0071800D01*
X0014729Y0071800D01*
X0011800Y0068871D01*
X0011800Y0064729D01*
X0013648Y0062881D01*
X0013648Y0056142D01*
X0014242Y0054709D01*
X0015339Y0053612D01*
X0016772Y0053018D01*
X0048433Y0053018D01*
X0048113Y0052699D01*
X0047200Y0050493D01*
X0047200Y0048107D01*
X0048113Y0045901D01*
X0049715Y0044300D01*
X0048113Y0042699D01*
X0047200Y0040493D01*
X0047200Y0038107D01*
X0048113Y0035901D01*
X0049801Y0034213D01*
X0052007Y0033300D01*
X0061593Y0033300D01*
X0063799Y0034213D01*
X0065487Y0035901D01*
X0066400Y0038107D01*
X0066400Y0040493D01*
X0065487Y0042699D01*
X0063885Y0044300D01*
X0065487Y0045901D01*
X0066400Y0048107D01*
X0066400Y0049795D01*
X0090142Y0026053D01*
X0091575Y0025459D01*
X0156119Y0025459D01*
X0157552Y0026053D01*
X0158650Y0027150D01*
X0165800Y0034300D01*
X0165971Y0034300D01*
X0163486Y0031433D01*
X0163486Y0031433D01*
X0161311Y0026669D01*
X0161311Y0026669D01*
X0160565Y0021485D01*
X0161311Y0016301D01*
X0163486Y0011537D01*
X0163486Y0011537D01*
X0166916Y0007579D01*
X0171322Y0004748D01*
X0171322Y0004748D01*
X0173187Y0004200D01*
X0027263Y0004200D01*
X0029129Y0004748D01*
X0033534Y0007579D01*
X0033534Y0007579D01*
X0033534Y0007579D01*
X0036964Y0011537D01*
X0036964Y0011537D01*
X0039140Y0016301D01*
X0039885Y0021485D01*
X0039140Y0026669D01*
X0037931Y0029316D01*
X0037994Y0029326D01*
X0038758Y0029574D01*
X0039473Y0029938D01*
X0040122Y0030410D01*
X0040690Y0030978D01*
X0041162Y0031627D01*
X0041526Y0032342D01*
X0041774Y0033106D01*
X0041900Y0033899D01*
X0041900Y0034000D01*
X0037100Y0034000D01*
X0037100Y0034600D01*
X0036500Y0034600D01*
X0036500Y0039400D01*
X0036399Y0039400D01*
X0035606Y0039274D01*
X0034842Y0039026D01*
X0034127Y0038662D01*
X0033478Y0038190D01*
X0032910Y0037622D01*
X0032438Y0036973D01*
X0032101Y0036312D01*
X0029129Y0038222D01*
X0029129Y0038222D01*
X0024104Y0039698D01*
X0018866Y0039698D01*
X0013841Y0038222D01*
X0009436Y0035391D01*
X0009436Y0035391D01*
X0009436Y0035391D01*
X0006006Y0031433D01*
X0006006Y0031433D01*
X0004200Y0027478D01*
X0004200Y0212342D01*
X0006006Y0208388D01*
X0006006Y0208388D01*
X0009436Y0204430D01*
X0013841Y0201598D01*
X0013841Y0201598D01*
X0018866Y0200123D01*
X0024104Y0200123D01*
X0029129Y0201598D01*
X0033534Y0204430D01*
X0036964Y0208388D01*
X0039140Y0213152D01*
X0039885Y0218335D01*
X0039140Y0223519D01*
X0039140Y0223519D01*
X0036964Y0228283D01*
X0036964Y0228283D01*
X0033864Y0231861D01*
X0166586Y0231861D01*
X0163486Y0228283D01*
X0161311Y0223519D01*
X0160565Y0218335D01*
X0161311Y0213152D01*
X0163486Y0208388D01*
X0166916Y0204430D01*
X0171322Y0201598D01*
X0176347Y0200123D01*
X0181584Y0200123D01*
X0186609Y0201598D01*
X0191015Y0204430D01*
X0193101Y0206837D01*
X0193101Y0032983D01*
X0191015Y0035391D01*
X0186609Y0038222D01*
X0181584Y0039698D01*
X0176347Y0039698D01*
X0171800Y0038363D01*
X0171800Y0041371D01*
X0168871Y0044300D01*
X0166664Y0044300D01*
X0167008Y0044644D01*
X0185746Y0044644D01*
X0187363Y0045314D01*
X0188601Y0046552D01*
X0189271Y0048169D01*
X0189271Y0056771D01*
X0190359Y0057222D01*
X0191878Y0058741D01*
X0192700Y0060726D01*
X0192700Y0062874D01*
X0191878Y0064859D01*
X0190359Y0066378D01*
X0188507Y0067145D01*
X0189143Y0067352D01*
X0189816Y0067695D01*
X0190427Y0068139D01*
X0190961Y0068673D01*
X0191405Y0069284D01*
X0191748Y0069957D01*
X0191982Y0070676D01*
X0192100Y0071422D01*
X0192100Y0071600D01*
X0184500Y0071600D01*
X0184500Y0072000D01*
X0184100Y0072000D01*
X0184100Y0076600D01*
X0180922Y0076600D01*
X0180176Y0076482D01*
X0179457Y0076248D01*
X0178784Y0075905D01*
X0178173Y0075461D01*
X0177639Y0074927D01*
X0177195Y0074316D01*
X0176852Y0073643D01*
X0176618Y0072924D01*
X0176500Y0072178D01*
X0176500Y0072000D01*
X0184100Y0072000D01*
X0184100Y0071600D01*
X0176500Y0071600D01*
X0176500Y0071422D01*
X0176618Y0070676D01*
X0176852Y0069957D01*
X0177195Y0069284D01*
X0177639Y0068673D01*
X0178173Y0068139D01*
X0178784Y0067695D01*
X0179457Y0067352D01*
X0180093Y0067145D01*
X0178241Y0066378D01*
X0176722Y0064859D01*
X0175900Y0062874D01*
X0175900Y0060726D01*
X0176722Y0058741D01*
X0178241Y0057222D01*
X0180226Y0056400D01*
X0180471Y0056400D01*
X0180471Y0053444D01*
X0164311Y0053444D01*
X0162693Y0052774D01*
X0154052Y0044133D01*
X0153799Y0044387D01*
X0153166Y0044649D01*
X0153230Y0044682D01*
X0153918Y0045181D01*
X0154519Y0045782D01*
X0155018Y0046470D01*
X0155404Y0047227D01*
X0155667Y0048035D01*
X0155800Y0048875D01*
X0155800Y0049100D01*
X0147000Y0049100D01*
X0147000Y0049500D01*
X0155800Y0049500D01*
X0155800Y0049725D01*
X0155667Y0050565D01*
X0155404Y0051373D01*
X0155018Y0052130D01*
X0154519Y0052818D01*
X0153918Y0053419D01*
X0153230Y0053918D01*
X0153166Y0053951D01*
X0153799Y0054213D01*
X0155487Y0055901D01*
X0156400Y0058107D01*
X0156400Y0060493D01*
X0155487Y0062699D01*
X0153885Y0064300D01*
X0155487Y0065901D01*
X0156400Y0068107D01*
X0156400Y0070493D01*
X0155487Y0072699D01*
X0153885Y0074300D01*
X0155487Y0075901D01*
X0156400Y0078107D01*
X0156400Y0080493D01*
X0155487Y0082699D01*
X0153885Y0084300D01*
X0155487Y0085901D01*
X0156400Y0088107D01*
X0156400Y0090493D01*
X0155487Y0092699D01*
X0153885Y0094300D01*
X0155487Y0095901D01*
X0156400Y0098107D01*
X0156400Y0100493D01*
X0155487Y0102699D01*
X0153885Y0104300D01*
X0155487Y0105901D01*
X0156400Y0108107D01*
X0156400Y0110493D01*
X0155487Y0112699D01*
X0153799Y0114387D01*
X0151593Y0115300D01*
X0142007Y0115300D01*
X0139801Y0114387D01*
X0138113Y0112699D01*
X0137200Y0110493D01*
X0137200Y0108107D01*
X0138113Y0105901D01*
X0139715Y0104300D01*
X0138113Y0102699D01*
X0137200Y0100493D01*
X0137200Y0098107D01*
X0138113Y0095901D01*
X0139715Y0094300D01*
X0138113Y0092699D01*
X0137200Y0090493D01*
X0137200Y0088107D01*
X0138113Y0085901D01*
X0139715Y0084300D01*
X0138113Y0082699D01*
X0137200Y0080493D01*
X0137200Y0078107D01*
X0138113Y0075901D01*
X0139715Y0074300D01*
X0138113Y0072699D01*
X0137200Y0070493D01*
X0137200Y0068107D01*
X0138113Y0065901D01*
X0139715Y0064300D01*
X0138113Y0062699D01*
X0137200Y0060493D01*
X0137200Y0058107D01*
X0138113Y0055901D01*
X0139801Y0054213D01*
X0140434Y0053951D01*
X0140370Y0053918D01*
X0139682Y0053419D01*
X0139081Y0052818D01*
X0138582Y0052130D01*
X0138196Y0051373D01*
X0137933Y0050565D01*
X0137800Y0049725D01*
X0137800Y0049500D01*
X0146600Y0049500D01*
X0146600Y0049100D01*
X0137800Y0049100D01*
X0137800Y0048875D01*
X0137933Y0048035D01*
X0138196Y0047227D01*
X0138582Y0046470D01*
X0139081Y0045782D01*
X0139682Y0045181D01*
X0140370Y0044682D01*
X0140434Y0044649D01*
X0139801Y0044387D01*
X0138113Y0042699D01*
X0137200Y0040493D01*
X0137200Y0038107D01*
X0138113Y0035901D01*
X0139801Y0034213D01*
X0142007Y0033300D01*
X0151593Y0033300D01*
X0153799Y0034213D01*
X0154387Y0034802D01*
X0155270Y0034802D01*
X0153728Y0033259D01*
X0093967Y0033259D01*
X0066165Y0061061D01*
X0065487Y0062699D01*
X0063885Y0064300D01*
X0064414Y0064829D01*
X0083284Y0064829D01*
X0084718Y0065423D01*
X0143179Y0123884D01*
X0162645Y0123884D01*
X0164729Y0121800D01*
X0168871Y0121800D01*
X0171800Y0124729D01*
X0171800Y0128871D01*
X0168871Y0131800D01*
X0164729Y0131800D01*
X0159897Y0134476D02*
X0145464Y0134476D01*
X0145464Y0132878D02*
X0193101Y0132878D01*
X0193101Y0131279D02*
X0169392Y0131279D01*
X0170990Y0129681D02*
X0193101Y0129681D01*
X0193101Y0128082D02*
X0187589Y0128082D01*
X0186371Y0129300D02*
X0189300Y0126371D01*
X0189300Y0122229D01*
X0186371Y0119300D01*
X0182229Y0119300D01*
X0179300Y0122229D01*
X0179300Y0126371D01*
X0182229Y0129300D01*
X0186371Y0129300D01*
X0189187Y0126484D02*
X0193101Y0126484D01*
X0193101Y0124885D02*
X0189300Y0124885D01*
X0189300Y0123287D02*
X0193101Y0123287D01*
X0193101Y0121688D02*
X0188759Y0121688D01*
X0187161Y0120090D02*
X0193101Y0120090D01*
X0193101Y0118491D02*
X0137786Y0118491D01*
X0136188Y0116893D02*
X0193101Y0116893D01*
X0193101Y0115294D02*
X0151607Y0115294D01*
X0154489Y0113696D02*
X0193101Y0113696D01*
X0193101Y0112097D02*
X0155736Y0112097D01*
X0156398Y0110499D02*
X0193101Y0110499D01*
X0193101Y0108900D02*
X0156400Y0108900D01*
X0156067Y0107302D02*
X0193101Y0107302D01*
X0193101Y0105703D02*
X0155289Y0105703D01*
X0154081Y0104105D02*
X0193101Y0104105D01*
X0193101Y0102506D02*
X0155566Y0102506D01*
X0156228Y0100908D02*
X0193101Y0100908D01*
X0193101Y0099309D02*
X0156400Y0099309D01*
X0156236Y0097711D02*
X0193101Y0097711D01*
X0193101Y0096112D02*
X0190625Y0096112D01*
X0190359Y0096378D02*
X0188374Y0097200D01*
X0180226Y0097200D01*
X0178241Y0096378D01*
X0176722Y0094859D01*
X0175900Y0092874D01*
X0175900Y0090726D01*
X0176722Y0088741D01*
X0178241Y0087222D01*
X0180093Y0086455D01*
X0179457Y0086248D01*
X0178784Y0085905D01*
X0178173Y0085461D01*
X0177639Y0084927D01*
X0177195Y0084316D01*
X0176852Y0083643D01*
X0176618Y0082924D01*
X0176500Y0082178D01*
X0176500Y0082000D01*
X0184100Y0082000D01*
X0184100Y0081600D01*
X0184500Y0081600D01*
X0184500Y0082000D01*
X0192100Y0082000D01*
X0192100Y0082178D01*
X0191982Y0082924D01*
X0191748Y0083643D01*
X0191405Y0084316D01*
X0190961Y0084927D01*
X0190427Y0085461D01*
X0189816Y0085905D01*
X0189143Y0086248D01*
X0188507Y0086455D01*
X0190359Y0087222D01*
X0191878Y0088741D01*
X0192700Y0090726D01*
X0192700Y0092874D01*
X0191878Y0094859D01*
X0190359Y0096378D01*
X0192021Y0094514D02*
X0193101Y0094514D01*
X0193101Y0092915D02*
X0192683Y0092915D01*
X0192700Y0091317D02*
X0193101Y0091317D01*
X0193101Y0089718D02*
X0192283Y0089718D01*
X0193101Y0088120D02*
X0191256Y0088120D01*
X0193101Y0086521D02*
X0188666Y0086521D01*
X0190964Y0084923D02*
X0193101Y0084923D01*
X0193101Y0083324D02*
X0191852Y0083324D01*
X0192100Y0081600D02*
X0184500Y0081600D01*
X0184500Y0077000D01*
X0187678Y0077000D01*
X0188424Y0077118D01*
X0189143Y0077352D01*
X0189816Y0077695D01*
X0190427Y0078139D01*
X0190961Y0078673D01*
X0191405Y0079284D01*
X0191748Y0079957D01*
X0191982Y0080676D01*
X0192100Y0081422D01*
X0192100Y0081600D01*
X0193101Y0081726D02*
X0184500Y0081726D01*
X0184100Y0081726D02*
X0171445Y0081726D01*
X0171800Y0081371D02*
X0170121Y0083050D01*
X0171800Y0084729D01*
X0171800Y0088871D01*
X0168871Y0091800D01*
X0164729Y0091800D01*
X0161800Y0088871D01*
X0161800Y0084729D01*
X0163479Y0083050D01*
X0161800Y0081371D01*
X0161800Y0077229D01*
X0164729Y0074300D01*
X0168871Y0074300D01*
X0171800Y0077229D01*
X0171800Y0081371D01*
X0171800Y0080127D02*
X0176797Y0080127D01*
X0176852Y0079957D02*
X0177195Y0079284D01*
X0177639Y0078673D01*
X0178173Y0078139D01*
X0178784Y0077695D01*
X0179457Y0077352D01*
X0180176Y0077118D01*
X0180922Y0077000D01*
X0184100Y0077000D01*
X0184100Y0081600D01*
X0176500Y0081600D01*
X0176500Y0081422D01*
X0176618Y0080676D01*
X0176852Y0079957D01*
X0177783Y0078529D02*
X0171800Y0078529D01*
X0171501Y0076930D02*
X0193101Y0076930D01*
X0193101Y0075332D02*
X0190557Y0075332D01*
X0190427Y0075461D02*
X0189816Y0075905D01*
X0189143Y0076248D01*
X0188424Y0076482D01*
X0187678Y0076600D01*
X0184500Y0076600D01*
X0184500Y0072000D01*
X0192100Y0072000D01*
X0192100Y0072178D01*
X0191982Y0072924D01*
X0191748Y0073643D01*
X0191405Y0074316D01*
X0190961Y0074927D01*
X0190427Y0075461D01*
X0191702Y0073733D02*
X0193101Y0073733D01*
X0193101Y0072134D02*
X0192100Y0072134D01*
X0191936Y0070536D02*
X0193101Y0070536D01*
X0193101Y0068937D02*
X0191153Y0068937D01*
X0193101Y0067339D02*
X0189103Y0067339D01*
X0190996Y0065740D02*
X0193101Y0065740D01*
X0193101Y0064142D02*
X0192175Y0064142D01*
X0192700Y0062543D02*
X0193101Y0062543D01*
X0193101Y0060945D02*
X0192700Y0060945D01*
X0193101Y0059346D02*
X0192129Y0059346D01*
X0193101Y0057748D02*
X0190885Y0057748D01*
X0189271Y0056149D02*
X0193101Y0056149D01*
X0193101Y0054551D02*
X0189271Y0054551D01*
X0189271Y0052952D02*
X0193101Y0052952D01*
X0193101Y0051354D02*
X0189271Y0051354D01*
X0189271Y0049755D02*
X0193101Y0049755D01*
X0193101Y0048157D02*
X0189266Y0048157D01*
X0188604Y0046558D02*
X0193101Y0046558D01*
X0193101Y0044960D02*
X0186508Y0044960D01*
X0185439Y0038566D02*
X0193101Y0038566D01*
X0193101Y0040164D02*
X0171800Y0040164D01*
X0171800Y0038566D02*
X0172492Y0038566D01*
X0171408Y0041763D02*
X0193101Y0041763D01*
X0193101Y0043361D02*
X0169810Y0043361D01*
X0165512Y0033770D02*
X0165270Y0033770D01*
X0164127Y0032172D02*
X0163671Y0032172D01*
X0163094Y0030573D02*
X0162073Y0030573D01*
X0162364Y0028975D02*
X0160474Y0028975D01*
X0161634Y0027376D02*
X0158876Y0027376D01*
X0156888Y0025778D02*
X0161183Y0025778D01*
X0160953Y0024179D02*
X0039498Y0024179D01*
X0039727Y0022581D02*
X0160723Y0022581D01*
X0160565Y0021485D02*
X0160565Y0021485D01*
X0160638Y0020982D02*
X0039813Y0020982D01*
X0039885Y0021485D02*
X0039885Y0021485D01*
X0039583Y0019384D02*
X0160867Y0019384D01*
X0161097Y0017785D02*
X0039353Y0017785D01*
X0039140Y0016301D02*
X0039140Y0016301D01*
X0039087Y0016187D02*
X0161363Y0016187D01*
X0162093Y0014588D02*
X0038357Y0014588D01*
X0037627Y0012990D02*
X0162823Y0012990D01*
X0163613Y0011391D02*
X0036837Y0011391D01*
X0035452Y0009793D02*
X0164998Y0009793D01*
X0166383Y0008194D02*
X0034067Y0008194D01*
X0032004Y0006596D02*
X0168447Y0006596D01*
X0166916Y0007579D02*
X0166916Y0007579D01*
X0170934Y0004997D02*
X0029516Y0004997D01*
X0029129Y0004748D02*
X0029129Y0004748D01*
X0039268Y0025778D02*
X0090806Y0025778D01*
X0088819Y0027376D02*
X0038817Y0027376D01*
X0038087Y0028975D02*
X0087220Y0028975D01*
X0085622Y0030573D02*
X0040286Y0030573D01*
X0041439Y0032172D02*
X0084023Y0032172D01*
X0082425Y0033770D02*
X0062729Y0033770D01*
X0064954Y0035369D02*
X0080826Y0035369D01*
X0079228Y0036967D02*
X0065928Y0036967D01*
X0066400Y0038566D02*
X0077629Y0038566D01*
X0076031Y0040164D02*
X0066400Y0040164D01*
X0065874Y0041763D02*
X0074432Y0041763D01*
X0072834Y0043361D02*
X0064824Y0043361D01*
X0064545Y0044960D02*
X0071235Y0044960D01*
X0069636Y0046558D02*
X0065759Y0046558D01*
X0066400Y0048157D02*
X0068038Y0048157D01*
X0066439Y0049755D02*
X0066400Y0049755D01*
X0071076Y0056149D02*
X0138011Y0056149D01*
X0137349Y0057748D02*
X0069478Y0057748D01*
X0067879Y0059346D02*
X0137200Y0059346D01*
X0137387Y0060945D02*
X0066281Y0060945D01*
X0065551Y0062543D02*
X0138049Y0062543D01*
X0139557Y0064142D02*
X0064043Y0064142D01*
X0064452Y0073733D02*
X0081997Y0073733D01*
X0083596Y0075332D02*
X0067067Y0075332D01*
X0068666Y0076930D02*
X0085194Y0076930D01*
X0086793Y0078529D02*
X0070264Y0078529D01*
X0071863Y0080127D02*
X0088391Y0080127D01*
X0089990Y0081726D02*
X0073461Y0081726D01*
X0075060Y0083324D02*
X0091588Y0083324D01*
X0093187Y0084923D02*
X0076658Y0084923D01*
X0078257Y0086521D02*
X0094785Y0086521D01*
X0096384Y0088120D02*
X0079856Y0088120D01*
X0081454Y0089718D02*
X0097982Y0089718D01*
X0099581Y0091317D02*
X0083053Y0091317D01*
X0084651Y0092915D02*
X0101179Y0092915D01*
X0102778Y0094514D02*
X0086250Y0094514D01*
X0087848Y0096112D02*
X0104376Y0096112D01*
X0105975Y0097711D02*
X0089447Y0097711D01*
X0091045Y0099309D02*
X0107573Y0099309D01*
X0109172Y0100908D02*
X0092644Y0100908D01*
X0094242Y0102506D02*
X0110770Y0102506D01*
X0112369Y0104105D02*
X0095841Y0104105D01*
X0097439Y0105703D02*
X0113967Y0105703D01*
X0115566Y0107302D02*
X0099038Y0107302D01*
X0100636Y0108900D02*
X0117164Y0108900D01*
X0118763Y0110499D02*
X0102235Y0110499D01*
X0103833Y0112097D02*
X0120361Y0112097D01*
X0121960Y0113696D02*
X0105432Y0113696D01*
X0107030Y0115294D02*
X0123558Y0115294D01*
X0125157Y0116893D02*
X0108629Y0116893D01*
X0109764Y0118491D02*
X0126755Y0118491D01*
X0128354Y0120090D02*
X0110031Y0120090D01*
X0109616Y0121688D02*
X0129952Y0121688D01*
X0131551Y0123287D02*
X0108170Y0123287D01*
X0104091Y0123287D02*
X0040358Y0123287D01*
X0040955Y0123884D02*
X0065568Y0123884D01*
X0067001Y0124478D01*
X0068098Y0125575D01*
X0086652Y0144128D01*
X0087159Y0144128D01*
X0089060Y0144916D01*
X0090515Y0146370D01*
X0091302Y0148271D01*
X0091302Y0150329D01*
X0090515Y0152230D01*
X0089060Y0153684D01*
X0087159Y0154472D01*
X0085102Y0154472D01*
X0083201Y0153684D01*
X0081746Y0152230D01*
X0080959Y0150329D01*
X0080959Y0149467D01*
X0063177Y0131684D01*
X0038987Y0131684D01*
X0038871Y0131800D01*
X0034729Y0131800D01*
X0031800Y0128871D01*
X0031800Y0124729D01*
X0034729Y0121800D01*
X0038871Y0121800D01*
X0040955Y0123884D01*
X0034208Y0131279D02*
X0016892Y0131279D01*
X0016371Y0131800D02*
X0012229Y0131800D01*
X0009300Y0128871D01*
X0009300Y0124729D01*
X0012229Y0121800D01*
X0016371Y0121800D01*
X0019300Y0124729D01*
X0019300Y0128871D01*
X0016371Y0131800D01*
X0016371Y0134300D02*
X0019300Y0137229D01*
X0019300Y0141371D01*
X0016371Y0144300D01*
X0012229Y0144300D01*
X0009300Y0141371D01*
X0009300Y0137229D01*
X0012229Y0134300D01*
X0016371Y0134300D01*
X0016547Y0134476D02*
X0034552Y0134476D01*
X0034729Y0134300D02*
X0038871Y0134300D01*
X0041800Y0137229D01*
X0041800Y0137940D01*
X0068583Y0164723D01*
X0092497Y0164723D01*
X0093165Y0164055D01*
X0092159Y0164472D01*
X0090102Y0164472D01*
X0088201Y0163684D01*
X0086746Y0162230D01*
X0086131Y0160743D01*
X0085515Y0162230D01*
X0084060Y0163684D01*
X0082159Y0164472D01*
X0080102Y0164472D01*
X0078201Y0163684D01*
X0076746Y0162230D01*
X0075959Y0160329D01*
X0075959Y0158271D01*
X0076746Y0156370D01*
X0078201Y0154916D01*
X0080102Y0154128D01*
X0082159Y0154128D01*
X0084060Y0154916D01*
X0085515Y0156370D01*
X0086131Y0157857D01*
X0086746Y0156370D01*
X0088201Y0154916D01*
X0090102Y0154128D01*
X0092159Y0154128D01*
X0094060Y0154916D01*
X0095515Y0156370D01*
X0096131Y0157857D01*
X0096746Y0156370D01*
X0098201Y0154916D01*
X0100102Y0154128D01*
X0102159Y0154128D01*
X0104060Y0154916D01*
X0105515Y0156370D01*
X0106302Y0158271D01*
X0106302Y0159593D01*
X0106476Y0159910D01*
X0106501Y0160150D01*
X0106594Y0160374D01*
X0106594Y0161014D01*
X0106662Y0161651D01*
X0139906Y0161651D01*
X0138144Y0163250D02*
X0106192Y0163250D01*
X0106168Y0163330D02*
X0106016Y0163518D01*
X0105924Y0163741D01*
X0105471Y0164194D01*
X0105069Y0164692D01*
X0104857Y0164808D01*
X0096812Y0172853D01*
X0095195Y0173523D01*
X0065885Y0173523D01*
X0064268Y0172853D01*
X0063030Y0171615D01*
X0035715Y0144300D01*
X0034729Y0144300D01*
X0031800Y0141371D01*
X0031800Y0137229D01*
X0034729Y0134300D01*
X0032954Y0136075D02*
X0018146Y0136075D01*
X0019300Y0137673D02*
X0031800Y0137673D01*
X0031800Y0139272D02*
X0019300Y0139272D01*
X0019300Y0140870D02*
X0031800Y0140870D01*
X0032898Y0142469D02*
X0018202Y0142469D01*
X0016604Y0144068D02*
X0034496Y0144068D01*
X0037081Y0145666D02*
X0004200Y0145666D01*
X0004200Y0144068D02*
X0011996Y0144068D01*
X0010398Y0142469D02*
X0004200Y0142469D01*
X0004200Y0140870D02*
X0009300Y0140870D01*
X0009300Y0139272D02*
X0004200Y0139272D01*
X0004200Y0137673D02*
X0009300Y0137673D01*
X0010454Y0136075D02*
X0004200Y0136075D01*
X0004200Y0134476D02*
X0012052Y0134476D01*
X0011708Y0131279D02*
X0004200Y0131279D01*
X0004200Y0129681D02*
X0010110Y0129681D01*
X0009300Y0128082D02*
X0004200Y0128082D01*
X0004200Y0126484D02*
X0009300Y0126484D01*
X0009300Y0124885D02*
X0004200Y0124885D01*
X0004200Y0123287D02*
X0010742Y0123287D01*
X0004200Y0121688D02*
X0102393Y0121688D01*
X0100795Y0120090D02*
X0004200Y0120090D01*
X0004200Y0118491D02*
X0099196Y0118491D01*
X0097598Y0116893D02*
X0004200Y0116893D01*
X0004200Y0115294D02*
X0051993Y0115294D01*
X0049111Y0113696D02*
X0004200Y0113696D01*
X0004200Y0112097D02*
X0047864Y0112097D01*
X0047202Y0110499D02*
X0004200Y0110499D01*
X0004200Y0108900D02*
X0047200Y0108900D01*
X0047533Y0107302D02*
X0004200Y0107302D01*
X0004200Y0105703D02*
X0048311Y0105703D01*
X0049519Y0104105D02*
X0004200Y0104105D01*
X0004200Y0102506D02*
X0048034Y0102506D01*
X0047372Y0100908D02*
X0004200Y0100908D01*
X0004200Y0099309D02*
X0047200Y0099309D01*
X0047364Y0097711D02*
X0004200Y0097711D01*
X0004200Y0096112D02*
X0018405Y0096112D01*
X0016210Y0094560D02*
X0016210Y0094560D01*
X0016164Y0094514D02*
X0004200Y0094514D01*
X0004200Y0092915D02*
X0014565Y0092915D01*
X0011746Y0091317D02*
X0004200Y0091317D01*
X0004200Y0089718D02*
X0010147Y0089718D01*
X0009300Y0088120D02*
X0004200Y0088120D01*
X0004200Y0086521D02*
X0009300Y0086521D01*
X0009300Y0084923D02*
X0004200Y0084923D01*
X0004200Y0083324D02*
X0010705Y0083324D01*
X0004200Y0081726D02*
X0046280Y0081726D01*
X0047200Y0080127D02*
X0004200Y0080127D01*
X0004200Y0078529D02*
X0018957Y0078529D01*
X0017359Y0076930D02*
X0004200Y0076930D01*
X0004200Y0075332D02*
X0016800Y0075332D01*
X0016800Y0073733D02*
X0004200Y0073733D01*
X0004200Y0072134D02*
X0016894Y0072134D01*
X0013465Y0070536D02*
X0004200Y0070536D01*
X0004200Y0068937D02*
X0011866Y0068937D01*
X0011800Y0067339D02*
X0004200Y0067339D01*
X0004200Y0065740D02*
X0011800Y0065740D01*
X0012387Y0064142D02*
X0004200Y0064142D01*
X0004200Y0062543D02*
X0013648Y0062543D01*
X0013648Y0060945D02*
X0004200Y0060945D01*
X0004200Y0059346D02*
X0013648Y0059346D01*
X0013648Y0057748D02*
X0004200Y0057748D01*
X0004200Y0056149D02*
X0013648Y0056149D01*
X0014400Y0054551D02*
X0004200Y0054551D01*
X0004200Y0052952D02*
X0048367Y0052952D01*
X0047556Y0051354D02*
X0004200Y0051354D01*
X0004200Y0049755D02*
X0047200Y0049755D01*
X0047200Y0048157D02*
X0004200Y0048157D01*
X0004200Y0046558D02*
X0047841Y0046558D01*
X0049055Y0044960D02*
X0004200Y0044960D01*
X0004200Y0043361D02*
X0048776Y0043361D01*
X0047726Y0041763D02*
X0004200Y0041763D01*
X0004200Y0040164D02*
X0047200Y0040164D01*
X0047200Y0038566D02*
X0039605Y0038566D01*
X0039473Y0038662D02*
X0038758Y0039026D01*
X0037994Y0039274D01*
X0037201Y0039400D01*
X0037100Y0039400D01*
X0037100Y0034600D01*
X0041900Y0034600D01*
X0041900Y0034701D01*
X0041774Y0035494D01*
X0041526Y0036258D01*
X0041162Y0036973D01*
X0040690Y0037622D01*
X0040122Y0038190D01*
X0039473Y0038662D01*
X0037100Y0038566D02*
X0036500Y0038566D01*
X0036500Y0036967D02*
X0037100Y0036967D01*
X0037100Y0035369D02*
X0036500Y0035369D01*
X0033995Y0038566D02*
X0027959Y0038566D01*
X0031081Y0036967D02*
X0032435Y0036967D01*
X0041165Y0036967D02*
X0047672Y0036967D01*
X0048646Y0035369D02*
X0041794Y0035369D01*
X0041880Y0033770D02*
X0050871Y0033770D01*
X0047387Y0060945D02*
X0021448Y0060945D01*
X0021448Y0062543D02*
X0024834Y0062543D01*
X0024977Y0062400D02*
X0026800Y0062400D01*
X0028623Y0062400D01*
X0031200Y0064977D01*
X0031200Y0066800D01*
X0026800Y0066800D01*
X0026800Y0062400D01*
X0026800Y0066800D01*
X0026800Y0066800D01*
X0026800Y0066800D01*
X0022400Y0066800D01*
X0022400Y0064977D01*
X0024977Y0062400D01*
X0026800Y0062543D02*
X0026800Y0062543D01*
X0026800Y0064142D02*
X0026800Y0064142D01*
X0026800Y0065740D02*
X0026800Y0065740D01*
X0026800Y0067339D02*
X0026800Y0067339D01*
X0026800Y0068937D02*
X0026800Y0068937D01*
X0026800Y0070536D02*
X0026800Y0070536D01*
X0026706Y0072134D02*
X0031527Y0072134D01*
X0031100Y0073166D02*
X0031968Y0071071D01*
X0033571Y0069468D01*
X0035666Y0068600D01*
X0037934Y0068600D01*
X0040029Y0069468D01*
X0041632Y0071071D01*
X0042500Y0073166D01*
X0042500Y0075434D01*
X0041632Y0077529D01*
X0040029Y0079132D01*
X0037934Y0080000D01*
X0035666Y0080000D01*
X0033571Y0079132D01*
X0031968Y0077529D01*
X0031100Y0075434D01*
X0031100Y0073166D01*
X0031100Y0073733D02*
X0026800Y0073733D01*
X0026800Y0075332D02*
X0031100Y0075332D01*
X0031720Y0076930D02*
X0026241Y0076930D01*
X0024642Y0078529D02*
X0032968Y0078529D01*
X0033205Y0083324D02*
X0017895Y0083324D01*
X0019300Y0084923D02*
X0031800Y0084923D01*
X0031800Y0086521D02*
X0019300Y0086521D01*
X0020800Y0088120D02*
X0031800Y0088120D01*
X0040395Y0083324D02*
X0044682Y0083324D01*
X0043083Y0084923D02*
X0041800Y0084923D01*
X0040632Y0078529D02*
X0047200Y0078529D01*
X0047687Y0076930D02*
X0041880Y0076930D01*
X0042500Y0075332D02*
X0048683Y0075332D01*
X0049148Y0073733D02*
X0042500Y0073733D01*
X0042073Y0072134D02*
X0047880Y0072134D01*
X0047218Y0070536D02*
X0041097Y0070536D01*
X0038749Y0068937D02*
X0047200Y0068937D01*
X0047518Y0067339D02*
X0031200Y0067339D01*
X0031200Y0065740D02*
X0048274Y0065740D01*
X0049557Y0064142D02*
X0030364Y0064142D01*
X0028766Y0062543D02*
X0048049Y0062543D01*
X0034851Y0068937D02*
X0030885Y0068937D01*
X0029287Y0070536D02*
X0032503Y0070536D01*
X0022715Y0068937D02*
X0021734Y0068937D01*
X0021800Y0067339D02*
X0022400Y0067339D01*
X0022400Y0065740D02*
X0021800Y0065740D01*
X0021448Y0064142D02*
X0023236Y0064142D01*
X0015011Y0038566D02*
X0004200Y0038566D01*
X0004200Y0036967D02*
X0011889Y0036967D01*
X0013841Y0038222D02*
X0013841Y0038222D01*
X0009416Y0035369D02*
X0004200Y0035369D01*
X0004200Y0033770D02*
X0008031Y0033770D01*
X0006646Y0032172D02*
X0004200Y0032172D01*
X0004200Y0030573D02*
X0005613Y0030573D01*
X0004883Y0028975D02*
X0004200Y0028975D01*
X0046122Y0092915D02*
X0048330Y0092915D01*
X0049501Y0094514D02*
X0044523Y0094514D01*
X0042281Y0096112D02*
X0048026Y0096112D01*
X0064099Y0094514D02*
X0075219Y0094514D01*
X0076817Y0096112D02*
X0065574Y0096112D01*
X0066236Y0097711D02*
X0078416Y0097711D01*
X0080014Y0099309D02*
X0066400Y0099309D01*
X0066228Y0100908D02*
X0081613Y0100908D01*
X0083211Y0102506D02*
X0065566Y0102506D01*
X0064081Y0104105D02*
X0084810Y0104105D01*
X0086408Y0105703D02*
X0065289Y0105703D01*
X0066067Y0107302D02*
X0088007Y0107302D01*
X0089605Y0108900D02*
X0066400Y0108900D01*
X0066398Y0110499D02*
X0091204Y0110499D01*
X0092802Y0112097D02*
X0065736Y0112097D01*
X0064489Y0113696D02*
X0094401Y0113696D01*
X0095999Y0115294D02*
X0061607Y0115294D01*
X0067409Y0124885D02*
X0133149Y0124885D01*
X0134748Y0126484D02*
X0069007Y0126484D01*
X0070606Y0128082D02*
X0136346Y0128082D01*
X0137664Y0129681D02*
X0072204Y0129681D01*
X0073803Y0131279D02*
X0137664Y0131279D01*
X0137664Y0132878D02*
X0075401Y0132878D01*
X0077000Y0134476D02*
X0137664Y0134476D01*
X0137664Y0136075D02*
X0134997Y0136075D01*
X0135156Y0136234D02*
X0134666Y0135744D01*
X0134106Y0135337D01*
X0133489Y0135022D01*
X0132830Y0134808D01*
X0132146Y0134700D01*
X0131800Y0134700D01*
X0131800Y0144300D01*
X0131800Y0144300D01*
X0131800Y0148700D01*
X0132146Y0148700D01*
X0132830Y0148592D01*
X0133489Y0148378D01*
X0134106Y0148063D01*
X0134666Y0147656D01*
X0135156Y0147166D01*
X0135563Y0146606D01*
X0135878Y0145989D01*
X0136092Y0145330D01*
X0136200Y0144646D01*
X0136200Y0144300D01*
X0131800Y0144300D01*
X0131800Y0144300D01*
X0131800Y0144300D01*
X0127400Y0144300D01*
X0127400Y0144646D01*
X0127508Y0145330D01*
X0127722Y0145989D01*
X0128037Y0146606D01*
X0128444Y0147166D01*
X0128934Y0147656D01*
X0129494Y0148063D01*
X0130111Y0148378D01*
X0130770Y0148592D01*
X0131454Y0148700D01*
X0131800Y0148700D01*
X0131800Y0144300D01*
X0136200Y0144300D01*
X0136200Y0138754D01*
X0136092Y0138070D01*
X0135878Y0137411D01*
X0135563Y0136794D01*
X0135156Y0136234D01*
X0135963Y0137673D02*
X0136979Y0137673D01*
X0136800Y0139272D02*
X0136200Y0139272D01*
X0136200Y0140870D02*
X0136800Y0140870D01*
X0136800Y0142469D02*
X0136200Y0142469D01*
X0136200Y0144068D02*
X0136800Y0144068D01*
X0136954Y0145666D02*
X0135983Y0145666D01*
X0135058Y0147265D02*
X0137693Y0147265D01*
X0139751Y0148863D02*
X0128482Y0148863D01*
X0128500Y0149000D02*
X0121931Y0149000D01*
X0121931Y0150600D01*
X0128500Y0150600D01*
X0128414Y0151249D01*
X0128163Y0152187D01*
X0127791Y0153084D01*
X0127305Y0153926D01*
X0126714Y0154696D01*
X0126027Y0155383D01*
X0125256Y0155975D01*
X0124415Y0156460D01*
X0123518Y0156832D01*
X0122579Y0157083D01*
X0121931Y0157169D01*
X0121931Y0150600D01*
X0120331Y0150600D01*
X0120331Y0157169D01*
X0119682Y0157083D01*
X0118744Y0156832D01*
X0117846Y0156460D01*
X0117005Y0155975D01*
X0116234Y0155383D01*
X0115547Y0154696D01*
X0114956Y0153926D01*
X0114470Y0153084D01*
X0114099Y0152187D01*
X0113847Y0151249D01*
X0113762Y0150600D01*
X0120331Y0150600D01*
X0120331Y0149000D01*
X0121931Y0149000D01*
X0121931Y0142431D01*
X0122579Y0142517D01*
X0123518Y0142768D01*
X0124415Y0143140D01*
X0125256Y0143625D01*
X0126027Y0144217D01*
X0126714Y0144904D01*
X0127305Y0145674D01*
X0127791Y0146516D01*
X0128163Y0147413D01*
X0128414Y0148351D01*
X0128500Y0149000D01*
X0128542Y0147265D02*
X0128101Y0147265D01*
X0127617Y0145666D02*
X0127299Y0145666D01*
X0127400Y0144300D02*
X0127400Y0138754D01*
X0127508Y0138070D01*
X0127722Y0137411D01*
X0128037Y0136794D01*
X0128444Y0136234D01*
X0128934Y0135744D01*
X0129494Y0135337D01*
X0130111Y0135022D01*
X0130770Y0134808D01*
X0131454Y0134700D01*
X0131800Y0134700D01*
X0131800Y0144300D01*
X0131800Y0144300D01*
X0127400Y0144300D01*
X0127400Y0144068D02*
X0125833Y0144068D01*
X0127400Y0142469D02*
X0122218Y0142469D01*
X0121931Y0142469D02*
X0120331Y0142469D01*
X0120331Y0142431D02*
X0120331Y0149000D01*
X0113762Y0149000D01*
X0113847Y0148351D01*
X0114099Y0147413D01*
X0114470Y0146516D01*
X0114956Y0145674D01*
X0115547Y0144904D01*
X0116234Y0144217D01*
X0117005Y0143625D01*
X0117846Y0143140D01*
X0118744Y0142768D01*
X0119682Y0142517D01*
X0120331Y0142431D01*
X0120043Y0142469D02*
X0084992Y0142469D01*
X0083394Y0140870D02*
X0127400Y0140870D01*
X0127400Y0139272D02*
X0081795Y0139272D01*
X0080197Y0137673D02*
X0127637Y0137673D01*
X0128602Y0136075D02*
X0078598Y0136075D01*
X0072363Y0140870D02*
X0044731Y0140870D01*
X0043132Y0139272D02*
X0070764Y0139272D01*
X0069166Y0137673D02*
X0041800Y0137673D01*
X0040646Y0136075D02*
X0067567Y0136075D01*
X0065969Y0134476D02*
X0039047Y0134476D01*
X0032610Y0129681D02*
X0018490Y0129681D01*
X0019300Y0128082D02*
X0031800Y0128082D01*
X0031800Y0126484D02*
X0019300Y0126484D01*
X0019300Y0124885D02*
X0031800Y0124885D01*
X0033242Y0123287D02*
X0017858Y0123287D01*
X0004200Y0132878D02*
X0064370Y0132878D01*
X0065331Y0142431D02*
X0065331Y0149000D01*
X0066931Y0149000D01*
X0066931Y0150600D01*
X0073500Y0150600D01*
X0073414Y0151249D01*
X0073163Y0152187D01*
X0072791Y0153084D01*
X0072305Y0153926D01*
X0071714Y0154696D01*
X0071027Y0155383D01*
X0070256Y0155975D01*
X0069415Y0156460D01*
X0068518Y0156832D01*
X0067579Y0157083D01*
X0066931Y0157169D01*
X0066931Y0150600D01*
X0065331Y0150600D01*
X0065331Y0157169D01*
X0064682Y0157083D01*
X0063744Y0156832D01*
X0062846Y0156460D01*
X0062005Y0155975D01*
X0061234Y0155383D01*
X0060547Y0154696D01*
X0059956Y0153926D01*
X0059470Y0153084D01*
X0059099Y0152187D01*
X0058847Y0151249D01*
X0058762Y0150600D01*
X0065331Y0150600D01*
X0065331Y0149000D01*
X0058762Y0149000D01*
X0058847Y0148351D01*
X0059099Y0147413D01*
X0059470Y0146516D01*
X0059956Y0145674D01*
X0060547Y0144904D01*
X0061234Y0144217D01*
X0062005Y0143625D01*
X0062846Y0143140D01*
X0063744Y0142768D01*
X0064682Y0142517D01*
X0065331Y0142431D01*
X0065331Y0142469D02*
X0066931Y0142469D01*
X0066931Y0142431D02*
X0067579Y0142517D01*
X0068518Y0142768D01*
X0069415Y0143140D01*
X0070256Y0143625D01*
X0071027Y0144217D01*
X0071714Y0144904D01*
X0072305Y0145674D01*
X0072791Y0146516D01*
X0073163Y0147413D01*
X0073414Y0148351D01*
X0073500Y0149000D01*
X0066931Y0149000D01*
X0066931Y0142431D01*
X0067218Y0142469D02*
X0073961Y0142469D01*
X0075560Y0144068D02*
X0070833Y0144068D01*
X0072299Y0145666D02*
X0077158Y0145666D01*
X0078757Y0147265D02*
X0073101Y0147265D01*
X0073482Y0148863D02*
X0080355Y0148863D01*
X0081014Y0150462D02*
X0066931Y0150462D01*
X0066931Y0152060D02*
X0065331Y0152060D01*
X0065331Y0150462D02*
X0054322Y0150462D01*
X0055920Y0152060D02*
X0059065Y0152060D01*
X0059802Y0153659D02*
X0057519Y0153659D01*
X0059117Y0155257D02*
X0061108Y0155257D01*
X0060716Y0156856D02*
X0063832Y0156856D01*
X0065331Y0156856D02*
X0066931Y0156856D01*
X0068430Y0156856D02*
X0076545Y0156856D01*
X0075959Y0158454D02*
X0062314Y0158454D01*
X0063913Y0160053D02*
X0075959Y0160053D01*
X0076507Y0161651D02*
X0065511Y0161651D01*
X0067110Y0163250D02*
X0077767Y0163250D01*
X0084495Y0163250D02*
X0087767Y0163250D01*
X0086507Y0161651D02*
X0085755Y0161651D01*
X0085716Y0156856D02*
X0086545Y0156856D01*
X0087860Y0155257D02*
X0084402Y0155257D01*
X0083175Y0153659D02*
X0072460Y0153659D01*
X0073197Y0152060D02*
X0081676Y0152060D01*
X0077860Y0155257D02*
X0071153Y0155257D01*
X0066931Y0155257D02*
X0065331Y0155257D01*
X0065331Y0153659D02*
X0066931Y0153659D01*
X0066931Y0148863D02*
X0065331Y0148863D01*
X0065331Y0147265D02*
X0066931Y0147265D01*
X0066931Y0145666D02*
X0065331Y0145666D01*
X0065331Y0144068D02*
X0066931Y0144068D01*
X0065043Y0142469D02*
X0046329Y0142469D01*
X0047928Y0144068D02*
X0061429Y0144068D01*
X0059962Y0145666D02*
X0049526Y0145666D01*
X0051125Y0147265D02*
X0059160Y0147265D01*
X0058780Y0148863D02*
X0052723Y0148863D01*
X0046672Y0155257D02*
X0004200Y0155257D01*
X0004200Y0153659D02*
X0045074Y0153659D01*
X0043475Y0152060D02*
X0004200Y0152060D01*
X0004200Y0150462D02*
X0041877Y0150462D01*
X0040278Y0148863D02*
X0004200Y0148863D01*
X0004200Y0147265D02*
X0038680Y0147265D01*
X0048271Y0156856D02*
X0004200Y0156856D01*
X0004200Y0158454D02*
X0049869Y0158454D01*
X0051468Y0160053D02*
X0004200Y0160053D01*
X0004200Y0161651D02*
X0053066Y0161651D01*
X0054665Y0163250D02*
X0004200Y0163250D01*
X0004200Y0164848D02*
X0056263Y0164848D01*
X0057862Y0166447D02*
X0004200Y0166447D01*
X0004200Y0168045D02*
X0059460Y0168045D01*
X0061059Y0169644D02*
X0004200Y0169644D01*
X0004200Y0171242D02*
X0062657Y0171242D01*
X0063030Y0171615D02*
X0063030Y0171615D01*
X0064256Y0172841D02*
X0004200Y0172841D01*
X0004200Y0174439D02*
X0012090Y0174439D01*
X0012229Y0174300D02*
X0016371Y0174300D01*
X0019300Y0177229D01*
X0019300Y0181371D01*
X0016371Y0184300D01*
X0012229Y0184300D01*
X0009300Y0181371D01*
X0009300Y0177229D01*
X0012229Y0174300D01*
X0010491Y0176038D02*
X0004200Y0176038D01*
X0004200Y0177636D02*
X0009300Y0177636D01*
X0009300Y0179235D02*
X0004200Y0179235D01*
X0004200Y0180833D02*
X0009300Y0180833D01*
X0010361Y0182432D02*
X0004200Y0182432D01*
X0004200Y0184030D02*
X0011959Y0184030D01*
X0016641Y0184030D02*
X0034459Y0184030D01*
X0034729Y0184300D02*
X0031800Y0181371D01*
X0031800Y0177229D01*
X0034729Y0174300D01*
X0038871Y0174300D01*
X0041800Y0177229D01*
X0041800Y0181371D01*
X0038871Y0184300D01*
X0034729Y0184300D01*
X0032861Y0182432D02*
X0018239Y0182432D01*
X0019300Y0180833D02*
X0031800Y0180833D01*
X0031800Y0179235D02*
X0019300Y0179235D01*
X0019300Y0177636D02*
X0031800Y0177636D01*
X0032991Y0176038D02*
X0018109Y0176038D01*
X0016510Y0174439D02*
X0034590Y0174439D01*
X0039010Y0174439D02*
X0126800Y0174439D01*
X0126800Y0176038D02*
X0116679Y0176038D01*
X0115381Y0175500D02*
X0118616Y0176840D01*
X0121091Y0179315D01*
X0122431Y0182550D01*
X0122431Y0186050D01*
X0121091Y0189285D01*
X0118616Y0191760D01*
X0115381Y0193100D01*
X0111880Y0193100D01*
X0108646Y0191760D01*
X0106170Y0189285D01*
X0104831Y0186050D01*
X0104831Y0182550D01*
X0106170Y0179315D01*
X0108646Y0176840D01*
X0111880Y0175500D01*
X0115381Y0175500D01*
X0119412Y0177636D02*
X0126800Y0177636D01*
X0126800Y0179235D02*
X0121011Y0179235D01*
X0121720Y0180833D02*
X0126940Y0180833D01*
X0127661Y0182432D02*
X0122382Y0182432D01*
X0122431Y0184030D02*
X0129671Y0184030D01*
X0129681Y0190250D02*
X0134287Y0190250D01*
X0134745Y0190373D01*
X0135155Y0190610D01*
X0135490Y0190945D01*
X0135727Y0191355D01*
X0135850Y0191813D01*
X0135850Y0196419D01*
X0129681Y0196419D01*
X0129681Y0197181D01*
X0128919Y0197181D01*
X0128919Y0203350D01*
X0128280Y0203350D01*
X0128414Y0203851D01*
X0128500Y0204500D01*
X0121931Y0204500D01*
X0121931Y0206100D01*
X0128500Y0206100D01*
X0128414Y0206749D01*
X0128163Y0207687D01*
X0127791Y0208584D01*
X0127305Y0209426D01*
X0126714Y0210196D01*
X0126027Y0210883D01*
X0125256Y0211475D01*
X0124415Y0211960D01*
X0123518Y0212332D01*
X0122579Y0212583D01*
X0121931Y0212669D01*
X0121931Y0206100D01*
X0120331Y0206100D01*
X0120331Y0212669D01*
X0119682Y0212583D01*
X0118744Y0212332D01*
X0117846Y0211960D01*
X0117005Y0211475D01*
X0116234Y0210883D01*
X0115547Y0210196D01*
X0114956Y0209426D01*
X0114470Y0208584D01*
X0114099Y0207687D01*
X0113847Y0206749D01*
X0113762Y0206100D01*
X0120331Y0206100D01*
X0120331Y0204500D01*
X0121931Y0204500D01*
X0121931Y0197931D01*
X0122579Y0198017D01*
X0122750Y0198062D01*
X0122750Y0197181D01*
X0128919Y0197181D01*
X0128919Y0196419D01*
X0129681Y0196419D01*
X0129681Y0190250D01*
X0129681Y0190424D02*
X0128919Y0190424D01*
X0128919Y0190250D02*
X0128919Y0196419D01*
X0122750Y0196419D01*
X0122750Y0191813D01*
X0122873Y0191355D01*
X0123110Y0190945D01*
X0123445Y0190610D01*
X0123855Y0190373D01*
X0124313Y0190250D01*
X0128919Y0190250D01*
X0128919Y0192023D02*
X0129681Y0192023D01*
X0129681Y0193621D02*
X0128919Y0193621D01*
X0128919Y0195220D02*
X0129681Y0195220D01*
X0129681Y0196818D02*
X0135930Y0196818D01*
X0135850Y0197181D02*
X0135850Y0201787D01*
X0135727Y0202245D01*
X0135490Y0202655D01*
X0135155Y0202990D01*
X0134745Y0203227D01*
X0134287Y0203350D01*
X0129681Y0203350D01*
X0129681Y0197181D01*
X0135850Y0197181D01*
X0135930Y0198222D02*
X0135930Y0195378D01*
X0137018Y0192750D01*
X0139029Y0190739D01*
X0141657Y0189650D01*
X0144502Y0189650D01*
X0147130Y0190739D01*
X0149141Y0192750D01*
X0149969Y0194750D01*
X0150798Y0192750D01*
X0152809Y0190739D01*
X0155437Y0189650D01*
X0158281Y0189650D01*
X0160909Y0190739D01*
X0162921Y0192750D01*
X0164009Y0195378D01*
X0164009Y0198222D01*
X0162921Y0200850D01*
X0160909Y0202861D01*
X0158281Y0203950D01*
X0155437Y0203950D01*
X0152809Y0202861D01*
X0150798Y0200850D01*
X0149969Y0198850D01*
X0149141Y0200850D01*
X0147130Y0202861D01*
X0144502Y0203950D01*
X0141657Y0203950D01*
X0139029Y0202861D01*
X0137018Y0200850D01*
X0135930Y0198222D01*
X0135850Y0198417D02*
X0136010Y0198417D01*
X0135850Y0200015D02*
X0136672Y0200015D01*
X0135850Y0201614D02*
X0137782Y0201614D01*
X0139877Y0203212D02*
X0134771Y0203212D01*
X0129681Y0203212D02*
X0128919Y0203212D01*
X0128919Y0201614D02*
X0129681Y0201614D01*
X0129681Y0200015D02*
X0128919Y0200015D01*
X0128919Y0198417D02*
X0129681Y0198417D01*
X0128919Y0196818D02*
X0058461Y0196818D01*
X0058461Y0197181D02*
X0063880Y0197181D01*
X0063880Y0197256D01*
X0063737Y0198158D01*
X0063694Y0198288D01*
X0063744Y0198268D01*
X0064682Y0198017D01*
X0065331Y0197931D01*
X0065331Y0204500D01*
X0066931Y0204500D01*
X0066931Y0206100D01*
X0073500Y0206100D01*
X0073414Y0206749D01*
X0073163Y0207687D01*
X0072791Y0208584D01*
X0072305Y0209426D01*
X0071714Y0210196D01*
X0071027Y0210883D01*
X0070256Y0211475D01*
X0069415Y0211960D01*
X0068518Y0212332D01*
X0067579Y0212583D01*
X0066931Y0212669D01*
X0066931Y0206100D01*
X0065331Y0206100D01*
X0065331Y0212669D01*
X0064682Y0212583D01*
X0063744Y0212332D01*
X0062846Y0211960D01*
X0062005Y0211475D01*
X0061234Y0210883D01*
X0060547Y0210196D01*
X0059956Y0209426D01*
X0059470Y0208584D01*
X0059099Y0207687D01*
X0058847Y0206749D01*
X0058762Y0206100D01*
X0065331Y0206100D01*
X0065331Y0204500D01*
X0058762Y0204500D01*
X0058847Y0203851D01*
X0059099Y0202913D01*
X0059277Y0202483D01*
X0058536Y0202600D01*
X0058461Y0202600D01*
X0058461Y0197181D01*
X0058461Y0196419D01*
X0063880Y0196419D01*
X0063880Y0196344D01*
X0063737Y0195442D01*
X0063455Y0194574D01*
X0063040Y0193760D01*
X0062504Y0193022D01*
X0061858Y0192376D01*
X0061119Y0191839D01*
X0060306Y0191425D01*
X0059438Y0191143D01*
X0058536Y0191000D01*
X0058461Y0191000D01*
X0058461Y0196419D01*
X0057698Y0196419D01*
X0052280Y0196419D01*
X0052280Y0196344D01*
X0052422Y0195442D01*
X0052704Y0194574D01*
X0053119Y0193760D01*
X0053656Y0193022D01*
X0054301Y0192376D01*
X0055040Y0191839D01*
X0055853Y0191425D01*
X0056721Y0191143D01*
X0057623Y0191000D01*
X0057698Y0191000D01*
X0057698Y0196419D01*
X0057698Y0197181D01*
X0052280Y0197181D01*
X0052280Y0197256D01*
X0052422Y0198158D01*
X0052704Y0199026D01*
X0053119Y0199840D01*
X0053656Y0200578D01*
X0054301Y0201224D01*
X0055040Y0201761D01*
X0055853Y0202175D01*
X0056721Y0202457D01*
X0057623Y0202600D01*
X0057698Y0202600D01*
X0057698Y0197181D01*
X0058461Y0197181D01*
X0057698Y0196818D02*
X0050700Y0196818D01*
X0050700Y0195220D02*
X0052494Y0195220D01*
X0053220Y0193621D02*
X0050700Y0193621D01*
X0050700Y0192323D02*
X0050335Y0191441D01*
X0049659Y0190765D01*
X0048777Y0190400D01*
X0039823Y0190400D01*
X0038941Y0190765D01*
X0038265Y0191441D01*
X0037900Y0192323D01*
X0037900Y0201277D01*
X0038265Y0202159D01*
X0038941Y0202835D01*
X0039823Y0203200D01*
X0048777Y0203200D01*
X0049659Y0202835D01*
X0050335Y0202159D01*
X0050700Y0201277D01*
X0050700Y0192323D01*
X0050576Y0192023D02*
X0054787Y0192023D01*
X0057698Y0192023D02*
X0058461Y0192023D01*
X0058461Y0193621D02*
X0057698Y0193621D01*
X0057698Y0195220D02*
X0058461Y0195220D01*
X0061372Y0192023D02*
X0069280Y0192023D01*
X0068646Y0191760D02*
X0066170Y0189285D01*
X0064831Y0186050D01*
X0064831Y0182550D01*
X0066170Y0179315D01*
X0068646Y0176840D01*
X0071880Y0175500D01*
X0075381Y0175500D01*
X0078616Y0176840D01*
X0081091Y0179315D01*
X0082431Y0182550D01*
X0082431Y0186050D01*
X0081091Y0189285D01*
X0078616Y0191760D01*
X0075381Y0193100D01*
X0071880Y0193100D01*
X0068646Y0191760D01*
X0067310Y0190424D02*
X0048836Y0190424D01*
X0050700Y0198417D02*
X0052506Y0198417D01*
X0053246Y0200015D02*
X0050700Y0200015D01*
X0050561Y0201614D02*
X0054838Y0201614D01*
X0057698Y0201614D02*
X0058461Y0201614D01*
X0058461Y0200015D02*
X0057698Y0200015D01*
X0057698Y0198417D02*
X0058461Y0198417D01*
X0059018Y0203212D02*
X0031640Y0203212D01*
X0033534Y0204430D02*
X0033534Y0204430D01*
X0033534Y0204430D01*
X0033865Y0204811D02*
X0065331Y0204811D01*
X0065331Y0206409D02*
X0066931Y0206409D01*
X0066931Y0204811D02*
X0120331Y0204811D01*
X0120331Y0204500D02*
X0113762Y0204500D01*
X0113847Y0203851D01*
X0114099Y0202913D01*
X0114470Y0202016D01*
X0114956Y0201174D01*
X0115547Y0200404D01*
X0116234Y0199717D01*
X0117005Y0199125D01*
X0117846Y0198640D01*
X0118744Y0198268D01*
X0119682Y0198017D01*
X0120331Y0197931D01*
X0120331Y0204500D01*
X0120331Y0203212D02*
X0121931Y0203212D01*
X0121931Y0201614D02*
X0120331Y0201614D01*
X0120331Y0200015D02*
X0121931Y0200015D01*
X0121931Y0198417D02*
X0120331Y0198417D01*
X0118384Y0198417D02*
X0068877Y0198417D01*
X0068518Y0198268D02*
X0069415Y0198640D01*
X0070256Y0199125D01*
X0071027Y0199717D01*
X0071714Y0200404D01*
X0072305Y0201174D01*
X0072791Y0202016D01*
X0073163Y0202913D01*
X0073414Y0203851D01*
X0073500Y0204500D01*
X0066931Y0204500D01*
X0066931Y0197931D01*
X0067579Y0198017D01*
X0068518Y0198268D01*
X0066931Y0198417D02*
X0065331Y0198417D01*
X0065331Y0200015D02*
X0066931Y0200015D01*
X0066931Y0201614D02*
X0065331Y0201614D01*
X0065331Y0203212D02*
X0066931Y0203212D01*
X0066931Y0208008D02*
X0065331Y0208008D01*
X0065331Y0209606D02*
X0066931Y0209606D01*
X0066931Y0211205D02*
X0065331Y0211205D01*
X0061654Y0211205D02*
X0038251Y0211205D01*
X0038981Y0212803D02*
X0161470Y0212803D01*
X0161131Y0214402D02*
X0125627Y0214402D01*
X0125751Y0214453D02*
X0126432Y0215134D01*
X0126800Y0216023D01*
X0126800Y0216986D01*
X0126432Y0217875D01*
X0125751Y0218556D01*
X0124862Y0218924D01*
X0062399Y0218924D01*
X0061510Y0218556D01*
X0060829Y0217875D01*
X0060461Y0216986D01*
X0060461Y0216023D01*
X0060829Y0215134D01*
X0061510Y0214453D01*
X0062399Y0214085D01*
X0124862Y0214085D01*
X0125751Y0214453D01*
X0126791Y0216001D02*
X0160901Y0216001D01*
X0160671Y0217599D02*
X0126546Y0217599D01*
X0125608Y0211205D02*
X0162200Y0211205D01*
X0162930Y0209606D02*
X0127167Y0209606D01*
X0128030Y0208008D02*
X0163815Y0208008D01*
X0163486Y0208388D02*
X0163486Y0208388D01*
X0165200Y0206409D02*
X0128459Y0206409D01*
X0121931Y0206409D02*
X0120331Y0206409D01*
X0120331Y0208008D02*
X0121931Y0208008D01*
X0121931Y0209606D02*
X0120331Y0209606D01*
X0120331Y0211205D02*
X0121931Y0211205D01*
X0116654Y0211205D02*
X0070608Y0211205D01*
X0072167Y0209606D02*
X0115095Y0209606D01*
X0114232Y0208008D02*
X0073030Y0208008D01*
X0073459Y0206409D02*
X0113803Y0206409D01*
X0114018Y0203212D02*
X0073243Y0203212D01*
X0072559Y0201614D02*
X0114702Y0201614D01*
X0115936Y0200015D02*
X0071326Y0200015D01*
X0063665Y0195220D02*
X0122750Y0195220D01*
X0122750Y0193621D02*
X0062939Y0193621D01*
X0065980Y0188826D02*
X0004200Y0188826D01*
X0004200Y0190424D02*
X0039764Y0190424D01*
X0038024Y0192023D02*
X0004200Y0192023D01*
X0004200Y0193621D02*
X0037900Y0193621D01*
X0037900Y0195220D02*
X0004200Y0195220D01*
X0004200Y0196818D02*
X0037900Y0196818D01*
X0037900Y0198417D02*
X0004200Y0198417D01*
X0004200Y0200015D02*
X0037900Y0200015D01*
X0038039Y0201614D02*
X0029153Y0201614D01*
X0029129Y0201598D02*
X0029129Y0201598D01*
X0035250Y0206409D02*
X0058803Y0206409D01*
X0059232Y0208008D02*
X0036635Y0208008D01*
X0036964Y0208388D02*
X0036964Y0208388D01*
X0037521Y0209606D02*
X0060095Y0209606D01*
X0061634Y0214402D02*
X0039319Y0214402D01*
X0039140Y0213152D02*
X0039140Y0213152D01*
X0039549Y0216001D02*
X0060470Y0216001D01*
X0060715Y0217599D02*
X0039779Y0217599D01*
X0039761Y0219198D02*
X0160689Y0219198D01*
X0160919Y0220796D02*
X0039531Y0220796D01*
X0039301Y0222395D02*
X0161149Y0222395D01*
X0161527Y0223993D02*
X0038923Y0223993D01*
X0038193Y0225592D02*
X0162257Y0225592D01*
X0162987Y0227190D02*
X0037463Y0227190D01*
X0036526Y0228789D02*
X0163924Y0228789D01*
X0165309Y0230387D02*
X0035141Y0230387D01*
X0013817Y0201614D02*
X0004200Y0201614D01*
X0004200Y0203212D02*
X0011330Y0203212D01*
X0009436Y0204430D02*
X0009436Y0204430D01*
X0009105Y0204811D02*
X0004200Y0204811D01*
X0004200Y0206409D02*
X0007720Y0206409D01*
X0006335Y0208008D02*
X0004200Y0208008D01*
X0004200Y0209606D02*
X0005449Y0209606D01*
X0004719Y0211205D02*
X0004200Y0211205D01*
X0004200Y0187227D02*
X0065318Y0187227D01*
X0064831Y0185629D02*
X0004200Y0185629D01*
X0039141Y0184030D02*
X0064831Y0184030D01*
X0064879Y0182432D02*
X0040739Y0182432D01*
X0041800Y0180833D02*
X0065542Y0180833D01*
X0066251Y0179235D02*
X0041800Y0179235D01*
X0041800Y0177636D02*
X0067849Y0177636D01*
X0070582Y0176038D02*
X0040609Y0176038D01*
X0076679Y0176038D02*
X0110582Y0176038D01*
X0107849Y0177636D02*
X0079412Y0177636D01*
X0081011Y0179235D02*
X0106251Y0179235D01*
X0105542Y0180833D02*
X0081720Y0180833D01*
X0082382Y0182432D02*
X0104879Y0182432D01*
X0104831Y0184030D02*
X0082431Y0184030D01*
X0082431Y0185629D02*
X0104831Y0185629D01*
X0105318Y0187227D02*
X0081943Y0187227D01*
X0081281Y0188826D02*
X0105980Y0188826D01*
X0107310Y0190424D02*
X0079951Y0190424D01*
X0077982Y0192023D02*
X0109280Y0192023D01*
X0117982Y0192023D02*
X0122750Y0192023D01*
X0123766Y0190424D02*
X0119951Y0190424D01*
X0121281Y0188826D02*
X0193101Y0188826D01*
X0193101Y0190424D02*
X0160151Y0190424D01*
X0162194Y0192023D02*
X0193101Y0192023D01*
X0193101Y0193621D02*
X0163282Y0193621D01*
X0163944Y0195220D02*
X0193101Y0195220D01*
X0193101Y0196818D02*
X0164009Y0196818D01*
X0163928Y0198417D02*
X0193101Y0198417D01*
X0193101Y0200015D02*
X0163266Y0200015D01*
X0162157Y0201614D02*
X0171297Y0201614D01*
X0171322Y0201598D02*
X0171322Y0201598D01*
X0168810Y0203212D02*
X0160062Y0203212D01*
X0153656Y0203212D02*
X0146282Y0203212D01*
X0148377Y0201614D02*
X0151561Y0201614D01*
X0150452Y0200015D02*
X0149487Y0200015D01*
X0149502Y0193621D02*
X0150437Y0193621D01*
X0151525Y0192023D02*
X0148414Y0192023D01*
X0146371Y0190424D02*
X0153567Y0190424D01*
X0166586Y0204811D02*
X0121931Y0204811D01*
X0134834Y0190424D02*
X0139788Y0190424D01*
X0137745Y0192023D02*
X0135850Y0192023D01*
X0135850Y0193621D02*
X0136657Y0193621D01*
X0135995Y0195220D02*
X0135850Y0195220D01*
X0121943Y0187227D02*
X0193101Y0187227D01*
X0193101Y0185629D02*
X0122431Y0185629D01*
X0126992Y0172841D02*
X0096824Y0172841D01*
X0098423Y0171242D02*
X0127787Y0171242D01*
X0129976Y0169644D02*
X0100021Y0169644D01*
X0101620Y0168045D02*
X0137664Y0168045D01*
X0137664Y0166447D02*
X0103218Y0166447D01*
X0104817Y0164848D02*
X0137664Y0164848D01*
X0127460Y0153659D02*
X0193101Y0153659D01*
X0193101Y0155257D02*
X0126153Y0155257D01*
X0123430Y0156856D02*
X0193101Y0156856D01*
X0193101Y0158454D02*
X0106302Y0158454D01*
X0106491Y0160053D02*
X0181476Y0160053D01*
X0187124Y0160053D02*
X0193101Y0160053D01*
X0193101Y0161651D02*
X0188722Y0161651D01*
X0189300Y0163250D02*
X0193101Y0163250D01*
X0193101Y0164848D02*
X0189300Y0164848D01*
X0189224Y0166447D02*
X0193101Y0166447D01*
X0193101Y0168045D02*
X0187626Y0168045D01*
X0193101Y0152060D02*
X0128197Y0152060D01*
X0131800Y0147265D02*
X0131800Y0147265D01*
X0131800Y0145666D02*
X0131800Y0145666D01*
X0131800Y0144068D02*
X0131800Y0144068D01*
X0131800Y0142469D02*
X0131800Y0142469D01*
X0131800Y0140870D02*
X0131800Y0140870D01*
X0131800Y0139272D02*
X0131800Y0139272D01*
X0131800Y0137673D02*
X0131800Y0137673D01*
X0131800Y0136075D02*
X0131800Y0136075D01*
X0121931Y0144068D02*
X0120331Y0144068D01*
X0120331Y0145666D02*
X0121931Y0145666D01*
X0121931Y0147265D02*
X0120331Y0147265D01*
X0120331Y0148863D02*
X0121931Y0148863D01*
X0121931Y0150462D02*
X0193101Y0150462D01*
X0181011Y0128082D02*
X0171800Y0128082D01*
X0171800Y0126484D02*
X0179413Y0126484D01*
X0179300Y0124885D02*
X0171800Y0124885D01*
X0170358Y0123287D02*
X0179300Y0123287D01*
X0179841Y0121688D02*
X0140983Y0121688D01*
X0139385Y0120090D02*
X0181439Y0120090D01*
X0163242Y0123287D02*
X0142582Y0123287D01*
X0141993Y0115294D02*
X0134589Y0115294D01*
X0132991Y0113696D02*
X0139111Y0113696D01*
X0137864Y0112097D02*
X0131392Y0112097D01*
X0129794Y0110499D02*
X0137202Y0110499D01*
X0137200Y0108900D02*
X0128195Y0108900D01*
X0126597Y0107302D02*
X0137533Y0107302D01*
X0138311Y0105703D02*
X0124998Y0105703D01*
X0123400Y0104105D02*
X0139519Y0104105D01*
X0138034Y0102506D02*
X0121801Y0102506D01*
X0120203Y0100908D02*
X0137372Y0100908D01*
X0137200Y0099309D02*
X0118604Y0099309D01*
X0117006Y0097711D02*
X0137364Y0097711D01*
X0138026Y0096112D02*
X0115407Y0096112D01*
X0113809Y0094514D02*
X0139501Y0094514D01*
X0138330Y0092915D02*
X0112210Y0092915D01*
X0110612Y0091317D02*
X0137541Y0091317D01*
X0137200Y0089718D02*
X0109013Y0089718D01*
X0107415Y0088120D02*
X0137200Y0088120D01*
X0137857Y0086521D02*
X0105816Y0086521D01*
X0104218Y0084923D02*
X0139092Y0084923D01*
X0138739Y0083324D02*
X0102619Y0083324D01*
X0101021Y0081726D02*
X0137710Y0081726D01*
X0137200Y0080127D02*
X0099422Y0080127D01*
X0097823Y0078529D02*
X0137200Y0078529D01*
X0137687Y0076930D02*
X0096225Y0076930D01*
X0094626Y0075332D02*
X0138683Y0075332D01*
X0139148Y0073733D02*
X0093028Y0073733D01*
X0091429Y0072134D02*
X0137880Y0072134D01*
X0137218Y0070536D02*
X0089831Y0070536D01*
X0088232Y0068937D02*
X0137200Y0068937D01*
X0137518Y0067339D02*
X0086634Y0067339D01*
X0085035Y0065740D02*
X0138274Y0065740D01*
X0139464Y0054551D02*
X0072675Y0054551D01*
X0074273Y0052952D02*
X0139216Y0052952D01*
X0138189Y0051354D02*
X0075872Y0051354D01*
X0077470Y0049755D02*
X0137805Y0049755D01*
X0137914Y0048157D02*
X0079069Y0048157D01*
X0080667Y0046558D02*
X0138536Y0046558D01*
X0139987Y0044960D02*
X0082266Y0044960D01*
X0083864Y0043361D02*
X0138776Y0043361D01*
X0137726Y0041763D02*
X0085463Y0041763D01*
X0087061Y0040164D02*
X0137200Y0040164D01*
X0137200Y0038566D02*
X0088660Y0038566D01*
X0090258Y0036967D02*
X0137672Y0036967D01*
X0138646Y0035369D02*
X0091857Y0035369D01*
X0093455Y0033770D02*
X0140871Y0033770D01*
X0152729Y0033770D02*
X0154239Y0033770D01*
X0153613Y0044960D02*
X0154879Y0044960D01*
X0155064Y0046558D02*
X0156478Y0046558D01*
X0155686Y0048157D02*
X0158076Y0048157D01*
X0159675Y0049755D02*
X0155795Y0049755D01*
X0155411Y0051354D02*
X0161273Y0051354D01*
X0163123Y0052952D02*
X0154384Y0052952D01*
X0154136Y0054551D02*
X0180471Y0054551D01*
X0180471Y0056149D02*
X0155589Y0056149D01*
X0156251Y0057748D02*
X0177715Y0057748D01*
X0176471Y0059346D02*
X0156400Y0059346D01*
X0156213Y0060945D02*
X0175900Y0060945D01*
X0175900Y0062543D02*
X0155551Y0062543D01*
X0154043Y0064142D02*
X0176425Y0064142D01*
X0177604Y0065740D02*
X0155326Y0065740D01*
X0156082Y0067339D02*
X0179497Y0067339D01*
X0177447Y0068937D02*
X0156400Y0068937D01*
X0156382Y0070536D02*
X0176664Y0070536D01*
X0176500Y0072134D02*
X0155720Y0072134D01*
X0154452Y0073733D02*
X0176898Y0073733D01*
X0178043Y0075332D02*
X0169903Y0075332D01*
X0163697Y0075332D02*
X0154917Y0075332D01*
X0155913Y0076930D02*
X0162099Y0076930D01*
X0161800Y0078529D02*
X0156400Y0078529D01*
X0156400Y0080127D02*
X0161800Y0080127D01*
X0162155Y0081726D02*
X0155890Y0081726D01*
X0154861Y0083324D02*
X0163205Y0083324D01*
X0161800Y0084923D02*
X0154508Y0084923D01*
X0155743Y0086521D02*
X0161800Y0086521D01*
X0161800Y0088120D02*
X0156400Y0088120D01*
X0156400Y0089718D02*
X0162647Y0089718D01*
X0164246Y0091317D02*
X0156059Y0091317D01*
X0155270Y0092915D02*
X0175917Y0092915D01*
X0175900Y0091317D02*
X0169354Y0091317D01*
X0170953Y0089718D02*
X0176317Y0089718D01*
X0177344Y0088120D02*
X0171800Y0088120D01*
X0171800Y0086521D02*
X0179934Y0086521D01*
X0177636Y0084923D02*
X0171800Y0084923D01*
X0170395Y0083324D02*
X0176748Y0083324D01*
X0184100Y0080127D02*
X0184500Y0080127D01*
X0184500Y0078529D02*
X0184100Y0078529D01*
X0184100Y0075332D02*
X0184500Y0075332D01*
X0184500Y0073733D02*
X0184100Y0073733D01*
X0184100Y0072134D02*
X0184500Y0072134D01*
X0190817Y0078529D02*
X0193101Y0078529D01*
X0193101Y0080127D02*
X0191803Y0080127D01*
X0177975Y0096112D02*
X0155574Y0096112D01*
X0154099Y0094514D02*
X0176579Y0094514D01*
X0157754Y0136075D02*
X0154997Y0136075D01*
X0155156Y0136234D02*
X0155563Y0136794D01*
X0155878Y0137411D01*
X0156092Y0138070D01*
X0156200Y0138754D01*
X0156200Y0144300D01*
X0156200Y0144646D01*
X0156092Y0145330D01*
X0155878Y0145989D01*
X0155563Y0146606D01*
X0155156Y0147166D01*
X0154666Y0147656D01*
X0154106Y0148063D01*
X0153489Y0148378D01*
X0152830Y0148592D01*
X0152146Y0148700D01*
X0151800Y0148700D01*
X0151800Y0144300D01*
X0151800Y0144300D01*
X0156200Y0144300D01*
X0151800Y0144300D01*
X0151800Y0144300D01*
X0151800Y0144300D01*
X0147400Y0144300D01*
X0147400Y0144646D01*
X0147508Y0145330D01*
X0147722Y0145989D01*
X0148037Y0146606D01*
X0148444Y0147166D01*
X0148934Y0147656D01*
X0149494Y0148063D01*
X0150111Y0148378D01*
X0150770Y0148592D01*
X0151454Y0148700D01*
X0151800Y0148700D01*
X0151800Y0144300D01*
X0151800Y0134700D01*
X0152146Y0134700D01*
X0152830Y0134808D01*
X0153489Y0135022D01*
X0154106Y0135337D01*
X0154666Y0135744D01*
X0155156Y0136234D01*
X0155963Y0137673D02*
X0156979Y0137673D01*
X0156800Y0139272D02*
X0156200Y0139272D01*
X0156200Y0140870D02*
X0156800Y0140870D01*
X0156800Y0142469D02*
X0156200Y0142469D01*
X0156200Y0144068D02*
X0156800Y0144068D01*
X0156954Y0145666D02*
X0155983Y0145666D01*
X0155058Y0147265D02*
X0157693Y0147265D01*
X0159751Y0148863D02*
X0143849Y0148863D01*
X0145907Y0147265D02*
X0148542Y0147265D01*
X0147617Y0145666D02*
X0146646Y0145666D01*
X0147400Y0144300D02*
X0147400Y0138754D01*
X0147508Y0138070D01*
X0147722Y0137411D01*
X0148037Y0136794D01*
X0148444Y0136234D01*
X0148934Y0135744D01*
X0149494Y0135337D01*
X0150111Y0135022D01*
X0150770Y0134808D01*
X0151454Y0134700D01*
X0151800Y0134700D01*
X0151800Y0144300D01*
X0151800Y0144300D01*
X0147400Y0144300D01*
X0147400Y0144068D02*
X0146800Y0144068D01*
X0146800Y0142469D02*
X0147400Y0142469D01*
X0147400Y0140870D02*
X0146800Y0140870D01*
X0146800Y0139272D02*
X0147400Y0139272D01*
X0147637Y0137673D02*
X0146621Y0137673D01*
X0145846Y0136075D02*
X0148602Y0136075D01*
X0151800Y0136075D02*
X0151800Y0136075D01*
X0151800Y0137673D02*
X0151800Y0137673D01*
X0151800Y0139272D02*
X0151800Y0139272D01*
X0151800Y0140870D02*
X0151800Y0140870D01*
X0151800Y0142469D02*
X0151800Y0142469D01*
X0151800Y0144068D02*
X0151800Y0144068D01*
X0151800Y0145666D02*
X0151800Y0145666D01*
X0151800Y0147265D02*
X0151800Y0147265D01*
X0121931Y0152060D02*
X0120331Y0152060D01*
X0120331Y0150462D02*
X0111247Y0150462D01*
X0111302Y0150329D02*
X0110515Y0152230D01*
X0109060Y0153684D01*
X0107159Y0154472D01*
X0105102Y0154472D01*
X0103201Y0153684D01*
X0101746Y0152230D01*
X0100959Y0150329D01*
X0100959Y0148271D01*
X0101746Y0146370D01*
X0103201Y0144916D01*
X0105102Y0144128D01*
X0107159Y0144128D01*
X0109060Y0144916D01*
X0110515Y0146370D01*
X0111302Y0148271D01*
X0111302Y0150329D01*
X0111302Y0148863D02*
X0113780Y0148863D01*
X0114160Y0147265D02*
X0110885Y0147265D01*
X0109811Y0145666D02*
X0114962Y0145666D01*
X0116429Y0144068D02*
X0086591Y0144068D01*
X0089811Y0145666D02*
X0093355Y0145666D01*
X0093152Y0145813D02*
X0093735Y0145390D01*
X0094376Y0145063D01*
X0095060Y0144841D01*
X0095771Y0144728D01*
X0096045Y0144728D01*
X0096045Y0149214D01*
X0096217Y0149214D01*
X0096217Y0149386D01*
X0100702Y0149386D01*
X0100702Y0149660D01*
X0100590Y0150371D01*
X0100367Y0151055D01*
X0100041Y0151696D01*
X0099618Y0152278D01*
X0099109Y0152787D01*
X0098527Y0153210D01*
X0097886Y0153537D01*
X0097201Y0153759D01*
X0096491Y0153872D01*
X0096217Y0153872D01*
X0096217Y0149386D01*
X0096045Y0149386D01*
X0096045Y0153872D01*
X0095771Y0153872D01*
X0095060Y0153759D01*
X0094376Y0153537D01*
X0093735Y0153210D01*
X0093152Y0152787D01*
X0092644Y0152278D01*
X0092221Y0151696D01*
X0091894Y0151055D01*
X0091672Y0150371D01*
X0091559Y0149660D01*
X0091559Y0149386D01*
X0096045Y0149386D01*
X0096045Y0149214D01*
X0091559Y0149214D01*
X0091559Y0148940D01*
X0091672Y0148229D01*
X0091894Y0147545D01*
X0092221Y0146904D01*
X0092644Y0146322D01*
X0093152Y0145813D01*
X0092037Y0147265D02*
X0090885Y0147265D01*
X0091302Y0148863D02*
X0091571Y0148863D01*
X0091701Y0150462D02*
X0091247Y0150462D01*
X0090585Y0152060D02*
X0092485Y0152060D01*
X0094751Y0153659D02*
X0089086Y0153659D01*
X0094402Y0155257D02*
X0097860Y0155257D01*
X0097511Y0153659D02*
X0103175Y0153659D01*
X0104402Y0155257D02*
X0116108Y0155257D01*
X0114802Y0153659D02*
X0109086Y0153659D01*
X0110585Y0152060D02*
X0114065Y0152060D01*
X0118832Y0156856D02*
X0105716Y0156856D01*
X0106662Y0161651D02*
X0106594Y0161882D01*
X0106594Y0162124D01*
X0106349Y0162716D01*
X0106168Y0163330D01*
X0096545Y0156856D02*
X0095716Y0156856D01*
X0096045Y0153659D02*
X0096217Y0153659D01*
X0096217Y0152060D02*
X0096045Y0152060D01*
X0096045Y0150462D02*
X0096217Y0150462D01*
X0096217Y0149214D02*
X0100702Y0149214D01*
X0100702Y0148940D01*
X0100590Y0148229D01*
X0100367Y0147545D01*
X0100041Y0146904D01*
X0099618Y0146322D01*
X0099109Y0145813D01*
X0098527Y0145390D01*
X0097886Y0145063D01*
X0097201Y0144841D01*
X0096491Y0144728D01*
X0096217Y0144728D01*
X0096217Y0149214D01*
X0096217Y0148863D02*
X0096045Y0148863D01*
X0096045Y0147265D02*
X0096217Y0147265D01*
X0096217Y0145666D02*
X0096045Y0145666D01*
X0098907Y0145666D02*
X0102451Y0145666D01*
X0101376Y0147265D02*
X0100224Y0147265D01*
X0100690Y0148863D02*
X0100959Y0148863D01*
X0101014Y0150462D02*
X0100560Y0150462D01*
X0099776Y0152060D02*
X0101676Y0152060D01*
X0120331Y0153659D02*
X0121931Y0153659D01*
X0121931Y0155257D02*
X0120331Y0155257D01*
X0120331Y0156856D02*
X0121931Y0156856D01*
X0166916Y0204430D02*
X0166916Y0204430D01*
X0186609Y0201598D02*
X0186609Y0201598D01*
X0186633Y0201614D02*
X0193101Y0201614D01*
X0193101Y0203212D02*
X0189121Y0203212D01*
X0191015Y0204430D02*
X0191015Y0204430D01*
X0191015Y0204430D01*
X0191345Y0204811D02*
X0193101Y0204811D01*
X0193101Y0206409D02*
X0192730Y0206409D01*
X0073620Y0092915D02*
X0065270Y0092915D01*
X0066059Y0091317D02*
X0072022Y0091317D01*
X0070423Y0089718D02*
X0066400Y0089718D01*
X0066400Y0088120D02*
X0068825Y0088120D01*
X0067226Y0086521D02*
X0065743Y0086521D01*
X0065628Y0084923D02*
X0064508Y0084923D01*
X0186609Y0038222D02*
X0186609Y0038222D01*
X0188562Y0036967D02*
X0193101Y0036967D01*
X0193101Y0035369D02*
X0191034Y0035369D01*
X0191015Y0035391D02*
X0191015Y0035391D01*
X0192419Y0033770D02*
X0193101Y0033770D01*
D24*
X0166800Y0039300D02*
X0165186Y0039202D01*
X0155343Y0029359D01*
X0092351Y0029359D01*
X0062824Y0058887D01*
X0056918Y0058887D01*
X0056800Y0059300D01*
X0054950Y0058887D01*
X0052981Y0056918D01*
X0017548Y0056918D01*
X0017548Y0066761D01*
X0016800Y0066800D01*
X0014300Y0086800D02*
X0015580Y0088414D01*
X0019517Y0092351D01*
X0041170Y0092351D01*
X0052981Y0080540D01*
X0054950Y0080540D01*
X0056800Y0079300D01*
X0056918Y0078572D01*
X0064792Y0078572D01*
X0106131Y0119910D01*
X0084477Y0147469D02*
X0086131Y0149300D01*
X0084477Y0147469D02*
X0064792Y0127784D01*
X0037233Y0127784D01*
X0036800Y0126800D01*
X0056800Y0069300D02*
X0056918Y0068729D01*
X0082509Y0068729D01*
X0141564Y0127784D01*
X0165186Y0127784D01*
X0166800Y0126800D01*
X0141564Y0127784D02*
X0141564Y0143532D01*
X0141800Y0144300D01*
X0141564Y0165186D02*
X0182902Y0165186D01*
X0184300Y0164300D01*
X0141564Y0165186D02*
X0141564Y0173060D01*
X0141800Y0174300D01*
D25*
X0106131Y0119910D03*
D26*
X0101131Y0159300D02*
X0102194Y0161249D01*
X0094320Y0169123D01*
X0066761Y0169123D01*
X0037233Y0139595D01*
X0036800Y0139300D01*
X0146800Y0039300D02*
X0147469Y0039202D01*
X0155343Y0039202D01*
X0165186Y0049044D01*
X0184871Y0049044D01*
X0184871Y0060855D01*
X0184300Y0061800D01*
M02*
